version 1
nodes
0 "npc_boss_016" -1
1 "Bip001" 0
2 "Bip001 Prop3" 1
3 "Bone035" 2
4 "Bone036" 3
5 "Bone037" 4
6 "Bone038" 5
7 "Bone039" 6
8 "Bone040" 7
9 "Bone041" 8
10 "Bip001 Prop2" 1
11 "Bone028" 10
12 "Bone029" 11
13 "Bone030" 12
14 "Bone031" 13
15 "Bone032" 14
16 "Bone033" 15
17 "Bone034" 16
18 "Bip001 Prop1" 1
19 "Bone027" 18
20 "Bone026" 18
21 "Bone025" 18
22 "Bone024" 18
23 "Bone022" 18
24 "Bone021" 18
25 "Bip001 Pelvis" 1
26 "Bone020" 25
27 "Bone019" 25
28 "Bone018" 25
29 "Bone017" 25
30 "Bip001 Spine" 25
31 "Bip001 Spine1" 30
32 "Bip001 Neck" 31
33 "Bip001 R Clavicle" 32
34 "Bone011" 33
35 "Bone014" 34
36 "Bone015" 35
37 "Bone016" 36
38 "Bone013" 34
39 "Bone012" 34
40 "Bip001 R UpperArm" 33
41 "Bip001 R Forearm" 40
42 "Bone009" 41
43 "Bone010" 42
44 "Bip001 R Hand" 41
45 "Bip001 R Finger3" 44
46 "Bip001 R Finger31" 45
47 "Bip001 R Finger2" 44
48 "Bip001 R Finger21" 47
49 "Bip001 R Finger1" 44
50 "Bip001 R Finger11" 49
51 "Bip001 R Finger0" 44
52 "Bip001 R Finger01" 51
53 "Bip001 L Clavicle" 32
54 "Bone003" 53
55 "Bone006" 54
56 "Bone007" 55
57 "Bone008" 56
58 "Bone005" 54
59 "Bone004" 54
60 "Bip001 L UpperArm" 53
61 "Bip001 L Forearm" 60
62 "Bone001" 61
63 "Bone002" 62
64 "Bip001 L Hand" 61
65 "Bip001 L Finger3" 64
66 "Bip001 L Finger31" 65
67 "Bip001 L Finger2" 64
68 "Bip001 L Finger21" 67
69 "Bip001 L Finger1" 64
70 "Bip001 L Finger11" 69
71 "Bip001 L Finger0" 64
72 "Bip001 L Finger01" 71
73 "Bip001 Head" 32
end
skeleton
time 0
0 0.000000 0.000000 0.000000 1.570796 -0.000000 0.000000
1 12.850461 209.005951 -23.885647 -3.008739 -1.182601 1.382050
2 71.154930 -77.590332 -2.677704 -0.769090 0.351779 -0.111003
3 -0.000000 0.000000 49.770000 -0.000000 -1.570796 0.000000
4 49.840000 0.000000 0.000000 0.000000 -0.000000 0.000000
5 49.840000 0.000000 0.000000 0.000000 -0.000000 0.000000
6 49.840000 0.000000 0.000000 0.000000 -0.000000 0.000000
7 49.840000 0.000000 -0.000000 0.000000 -0.000000 0.000000
8 49.840000 0.000000 0.000000 0.000000 -0.000000 0.000000
9 49.770000 0.000000 0.000000 0.000000 -0.000000 0.000000
10 56.863789 68.925690 -18.056961 0.869398 0.740331 0.061618
11 -0.000000 0.000000 49.840000 -0.000000 -1.570796 0.000000
12 49.980000 -0.000000 0.000000 0.000000 -0.000000 0.000000
13 49.770000 0.000000 0.000000 0.000000 -0.000000 0.000000
14 49.980000 0.000000 0.000000 0.000000 -0.000000 -0.000000
15 49.349998 0.000000 0.000000 0.000000 -0.000000 0.000000
16 50.049995 -0.000000 -0.000000 0.000000 -0.000000 0.000000
17 50.259998 0.000000 0.000000 0.000000 -0.000000 0.000000
18 7.004158 -12.761595 36.301025 0.699681 -0.032652 1.456676
19 108.542030 -59.531395 -19.113392 1.812340 -0.917801 -1.688792
20 129.783020 0.012182 81.045151 1.661300 -0.356301 -1.545275
21 28.260853 -43.295341 159.664856 1.675014 0.292449 -1.148857
22 -49.023388 -45.479515 118.411407 1.571239 0.703354 -1.571913
23 -111.858803 27.249004 69.621674 1.405422 -0.554440 -1.606709
24 -89.803940 -34.739532 -28.530741 1.324383 -0.464333 -1.091645
25 0.000000 0.000000 0.000000 -1.566652 -1.557406 0.000000
26 1.960000 22.259998 0.000000 3.136248 -0.022668 2.972063
27 13.860002 -25.129999 0.000000 -3.141028 -0.012906 -2.663964
28 13.650000 -2.520000 23.590000 -1.696536 -0.415571 -2.967013
29 13.650001 -2.520000 -23.590000 1.567559 0.512528 -3.133713
30 17.360001 3.719590 -0.004795 0.089613 0.030052 0.255925
31 35.559998 0.000000 0.000000 -0.018485 0.100647 0.681617
32 37.520000 0.000000 0.000000 0.056530 -0.098337 0.586222
33 -18.931189 5.148431 -17.495203 -1.249070 0.989955 1.338406
34 -0.350000 0.700000 -8.050000 1.406177 0.435627 -0.086749
35 18.480000 12.180000 26.880001 1.874779 -0.680670 0.646780
36 37.730000 0.000000 -0.000000 0.449719 -0.141615 -0.270509
37 32.059998 0.000000 -0.000000 0.446961 0.157464 -0.482202
38 16.170000 -9.870001 -18.059999 -1.465252 -0.232378 -1.294314
39 16.240000 -12.670000 9.730000 -1.460789 -0.429851 -1.177587
40 19.670000 0.000000 -0.000001 0.822145 -0.314482 0.308026
41 40.950001 -0.000000 0.000000 0.000000 -0.000000 -1.325025
42 34.019997 -1.259999 17.639999 -3.065629 -0.764715 0.476966
43 26.389999 0.000000 0.000000 0.507355 -0.128845 -0.653564
44 43.820000 0.000000 0.000000 1.755355 -0.032047 -0.172718
45 20.090000 0.979999 -9.800000 -0.002526 0.044037 0.531795
46 15.120002 0.000000 0.000000 0.000000 -0.000000 0.837926
47 20.370001 -1.119999 0.560000 -0.000000 0.000000 0.372842
48 19.530001 0.000000 0.000000 0.000000 -0.000000 0.933825
49 20.720003 1.400001 12.180000 -0.000000 -0.000000 0.022394
50 18.130001 -0.000001 0.000000 0.000000 -0.000000 0.914582
51 7.420000 7.070000 9.589999 -2.606736 0.102525 1.354367
52 10.710000 -0.000001 0.000000 0.000000 -0.000000 0.942501
53 -15.039537 7.128031 20.563866 1.341239 -1.044701 1.265550
54 -0.350000 0.700000 8.050000 -1.565645 -0.309403 -0.148784
55 18.410002 12.180000 -26.880001 -2.190205 0.927239 0.808794
56 37.730000 0.000000 0.000000 -0.113596 0.190862 -0.029006
57 32.059998 0.000000 0.000000 -0.071024 0.191788 -0.570102
58 16.100000 -9.870001 18.059999 1.547277 0.180389 -1.254205
59 16.170000 -12.670000 -9.730000 1.532082 0.270928 -1.109684
60 19.670000 0.000000 -0.000001 -0.521936 0.338746 -0.297123
61 40.950001 -0.000000 0.000000 0.000000 -0.000000 -1.022560
62 34.019997 -1.259998 -17.640001 -1.884521 0.559456 0.894603
63 26.389999 0.000000 0.000000 -0.378616 0.211145 -0.808119
64 43.820000 -0.000000 -0.000000 -1.639948 -0.010685 -0.059799
65 20.090000 0.979999 9.800000 -0.025194 -0.035940 1.168144
66 15.120001 0.000000 0.000000 0.000000 -0.000000 1.263449
67 20.370001 -1.119999 -0.560000 -0.000000 0.000000 0.771155
68 19.530001 0.000000 0.000000 0.000000 -0.000000 1.184386
69 20.720001 1.400000 -12.180001 0.000000 -0.000000 0.277169
70 18.130003 0.000000 0.000000 0.000000 -0.000000 1.158965
71 7.420000 7.070001 -9.589999 2.592524 -0.110060 1.356305
72 10.710000 0.000000 0.000000 0.000000 -0.000000 0.914435
73 -1.260000 1.470000 0.000000 -0.007152 0.077525 -0.570748
time 1
0 0.000000 0.000000 0.000000 1.570796 -0.000000 0.000000
1 -15.913520 161.588547 -27.629837 2.262948 -0.966884 2.503304
2 -88.038170 -99.006409 -15.726532 -1.885315 0.837971 -1.839589
3 0.000000 0.000000 49.770000 -0.000000 -1.570796 0.000000
4 49.840000 0.000000 0.000000 0.000000 -0.000000 0.000000
5 49.840000 0.000000 0.000000 0.000000 -0.000000 0.000000
6 49.840000 0.000000 0.000000 0.000000 -0.000000 0.000000
7 49.840000 0.000000 0.000000 0.000000 -0.000000 0.000000
8 49.840000 0.000000 0.000000 0.000000 -0.000000 0.000000
9 49.770000 0.000000 0.000000 0.000000 -0.000000 0.000000
10 47.545139 91.584656 67.947601 0.885029 -0.225792 0.556640
11 -0.000000 0.000000 49.840000 -0.000000 -1.570796 0.000000
12 49.980000 -0.000000 0.000000 0.000000 -0.000000 0.000000
13 49.770000 0.000000 0.000000 0.000000 -0.000000 0.000000
14 49.980000 0.000000 0.000000 0.000000 -0.000000 -0.000000
15 49.349998 0.000000 0.000000 0.000000 -0.000000 0.000000
16 50.049995 -0.000000 0.000000 0.000000 -0.000000 0.000000
17 50.259998 0.000000 0.000000 0.000000 -0.000000 0.000000
18 -103.498634 -39.992962 -6.675751 -0.246859 -0.193072 1.206769
19 111.280403 -18.549999 -38.918316 1.458651 0.197087 -0.912414
20 128.444901 34.779137 66.607857 1.630675 -0.120044 -1.515653
21 11.739159 -0.885366 162.352036 1.770266 0.616645 -0.824294
22 -45.128914 -43.374649 118.941528 1.596725 0.536575 -1.629958
23 -32.826416 -35.752899 78.630577 1.547097 -0.435757 -1.792714
24 -19.674103 -66.668823 -34.224091 1.582939 -0.261620 -1.214738
25 -0.000000 0.000000 0.000000 -1.318804 -1.547222 -0.260179
26 1.960000 22.259998 0.000000 3.101607 -0.437243 2.482606
27 13.860002 -25.129999 0.000000 -3.123173 -0.248379 -2.707515
28 13.650000 -2.520000 23.590000 -1.666648 -0.700710 -3.104433
29 13.650001 -2.520000 -23.590000 1.304079 0.275930 2.820443
30 17.379040 3.581760 0.077280 0.002669 0.059714 -0.397149
31 35.559998 0.000000 0.000000 -0.122473 0.027658 -0.517810
32 37.520000 0.000000 0.000000 0.079727 0.045743 -1.137877
33 -0.618801 -20.111841 -17.709999 1.412973 1.221656 -0.583328
34 -0.350000 0.700000 -8.050000 0.897043 0.728166 -0.370672
35 18.480000 12.180000 26.880001 1.633061 -0.574609 2.081188
36 37.730000 0.000000 -0.000000 -0.450622 0.361870 0.068244
37 32.059998 0.000000 -0.000000 -0.446204 0.252812 0.063265
38 16.170000 -9.870001 -18.059999 -1.444978 -0.273201 -1.300357
39 16.240000 -12.670000 9.730000 -1.433287 -0.532562 -1.117735
40 19.670000 0.000000 -0.000001 -1.371800 0.288543 0.456335
41 40.950001 -0.000000 0.000000 0.000000 -0.000000 -0.415901
42 34.019997 -1.259999 17.639999 -2.507911 -0.740359 -0.328124
43 26.389999 0.000000 0.000000 -0.412594 0.551066 1.056625
44 43.820000 0.000000 0.000000 1.772412 -0.024679 -0.144815
45 20.090000 0.979999 -9.800000 -0.002038 -0.101239 0.543606
46 15.120002 0.000000 0.000000 0.000000 -0.000000 0.849593
47 20.370001 -1.119999 0.560000 0.000399 -0.219003 0.409108
48 19.530001 0.000000 0.000000 0.000000 -0.000000 0.945251
49 20.720003 1.400001 12.180000 0.000670 -0.267341 0.037054
50 18.130001 -0.000001 0.000000 0.000000 -0.000000 0.929083
51 7.420000 7.070000 9.589999 -2.777981 -0.898823 1.103741
52 10.710000 -0.000001 0.000000 0.000000 -0.000000 0.942501
53 -2.811761 -17.008881 20.430479 1.372645 -0.820636 3.024574
54 -0.350000 0.700000 8.050000 -1.714362 -0.551132 0.345254
55 18.410002 12.180000 -26.880001 -1.834615 0.461905 1.766919
56 37.730000 0.000000 -0.000000 -0.066538 0.194088 -0.308767
57 32.059998 0.000000 0.000000 -0.046860 0.174602 -0.403358
58 16.100000 -9.870001 18.059999 1.550277 0.191107 -1.284163
59 16.170000 -12.670000 -9.730000 1.536351 0.327491 -1.114420
60 19.670000 0.000000 -0.000001 0.124544 0.358810 0.761839
61 40.950001 -0.000000 0.000000 0.000000 -0.000000 -1.078036
62 34.019997 -1.259998 -17.640001 -1.958126 0.086517 0.782323
63 26.389999 0.000000 0.000000 0.269111 0.101071 -0.517949
64 43.820000 -0.000000 -0.000000 -1.587819 0.005444 0.236447
65 20.090000 0.979999 9.800000 -0.001445 -0.043674 0.622775
66 15.120001 0.000000 0.000000 0.000000 -0.000000 0.720537
67 20.370001 -1.119999 -0.560000 -0.000397 0.000047 0.236200
68 19.530001 0.000000 0.000000 0.000000 -0.000000 0.733964
69 20.720001 1.400000 -12.180001 -0.000800 0.000005 0.011606
70 18.130003 0.000000 0.000000 0.000000 -0.000000 0.620095
71 7.420000 7.070001 -9.589999 2.315975 0.739341 1.220553
72 10.710000 0.000000 0.000000 0.000000 -0.000000 0.417300
73 -1.260000 1.470000 0.000000 0.138421 0.137289 0.694094
time 2
0 0.000000 0.000000 0.000000 1.570796 -0.000000 0.000000
1 20.029591 143.555206 -32.187366 2.039529 -0.942966 2.784617
2 -103.738983 -71.901489 -18.522385 -1.998026 0.578113 -2.564917
3 0.000000 0.000000 49.770000 -0.000000 -1.570796 0.000000
4 49.840000 0.000000 0.000000 0.000000 -0.000000 0.000000
5 49.840000 0.000000 0.000000 0.000000 -0.000000 0.000000
6 49.840000 0.000000 0.000000 0.000000 -0.000000 0.000000
7 49.840000 0.000000 0.000000 0.000000 -0.000000 0.000000
8 49.840000 0.000000 0.000000 0.000000 -0.000000 0.000000
9 49.770000 0.000000 0.000000 0.000000 -0.000000 0.000000
10 56.698414 68.197327 52.425186 0.976983 0.107026 0.003709
11 -0.000000 0.000000 49.840000 -0.000000 -1.570796 0.000000
12 49.980000 -0.000000 0.000000 0.000000 -0.000000 0.000000
13 49.770000 0.000000 0.000000 0.000000 -0.000000 0.000000
14 49.980000 0.000000 0.000000 0.000000 -0.000000 -0.000000
15 49.349998 0.000000 0.000000 0.000000 -0.000000 0.000000
16 50.049995 -0.000000 -0.000000 0.000000 -0.000000 0.000000
17 50.259998 0.000000 -0.000000 0.000000 -0.000000 0.000000
18 -114.385208 -70.123055 0.347626 -0.324793 -0.425774 1.228612
19 113.021912 -0.401004 -48.927876 1.389308 -0.061908 -0.980052
20 122.821648 46.369404 62.685871 1.579126 0.305083 -1.487080
21 14.623474 2.479286 134.335709 1.744587 0.446052 -0.971577
22 -46.809986 -35.978180 110.336823 1.642825 0.244659 -1.731755
23 -36.399574 -36.678761 62.194653 1.778163 -0.240620 -1.998974
24 -26.660355 -66.717209 -46.979401 1.774608 -0.355482 -1.563518
25 -0.000000 -0.000000 0.000000 -1.075655 -1.420156 -0.546275
26 1.960000 22.259998 0.000000 3.107822 0.025891 2.761001
27 13.860002 -25.129999 0.000000 -3.127179 -0.071154 -2.418601
28 13.650000 -2.520000 23.590000 -1.585158 -0.444744 -3.094090
29 13.650001 -2.520000 -23.590000 1.732350 0.380938 -2.994923
30 17.650290 1.246805 1.540315 -0.176821 0.025813 -0.428644
31 35.559998 0.000000 0.000000 -0.341227 0.143592 -0.409020
32 37.520000 0.000000 0.000000 0.006916 -0.197365 -1.602306
33 2.496199 -17.214573 -19.978279 1.552745 1.539248 0.013577
34 -0.350000 0.700000 -8.050000 1.109117 0.553318 -0.181758
35 18.480000 12.180000 26.880001 1.609383 -0.516581 1.614906
36 37.730000 0.000000 -0.000000 -0.053079 0.451727 0.223086
37 32.059998 0.000000 -0.000000 -0.517714 0.529936 0.253603
38 16.170000 -9.870001 -18.059999 -1.496130 -0.026449 -1.302062
39 16.240000 -12.670000 9.730000 -1.454191 -0.285448 -1.074833
40 19.670000 0.000000 -0.000001 -1.002236 0.092265 0.183705
41 40.950001 -0.000000 0.000000 0.000000 -0.000000 -0.390095
42 34.019997 -1.259999 17.639999 -2.871902 -0.773999 0.333918
43 26.389999 0.000000 0.000000 -0.585549 0.367112 0.752912
44 43.820000 0.000000 0.000000 1.860305 -0.010451 0.351171
45 20.090000 0.979999 -9.800000 -0.001458 -0.023487 0.550727
46 15.120002 0.000000 0.000000 0.000000 -0.000000 0.853388
47 20.370001 -1.119999 0.560000 -0.001655 -0.101996 0.488609
48 19.530001 0.000000 0.000000 0.000000 -0.000000 0.949148
49 20.720003 1.400001 12.180000 -0.001187 -0.127599 0.047191
50 18.130001 -0.000001 0.000000 0.000000 -0.000000 0.938923
51 7.420000 7.070000 9.589999 -2.516635 -0.816106 1.148720
52 10.710000 -0.000001 0.000000 0.000000 -0.000000 0.942501
53 10.006847 -17.094280 17.579275 0.962852 -1.212793 -2.466738
54 -0.350000 0.700000 8.050000 -1.874027 -0.334894 0.734678
55 18.410002 12.180000 -26.880001 -1.657737 0.325305 2.143651
56 37.730000 0.000000 -0.000000 -0.017635 0.485463 -0.121115
57 32.059998 0.000000 0.000000 -0.135602 0.569498 -0.122175
58 16.100000 -9.870001 18.059999 1.579234 -0.074259 -1.294478
59 16.170000 -12.670000 -9.730000 1.587789 0.108355 -1.242901
60 19.670000 0.000000 -0.000001 0.548153 0.323310 1.228062
61 40.950001 -0.000000 0.000000 0.000000 -0.000000 -1.417065
62 34.019997 -1.259998 -17.640001 -1.965249 0.459233 0.459202
63 26.389999 0.000000 0.000000 -0.469539 0.156075 -0.971937
64 43.820000 -0.000000 -0.000000 -1.815893 0.118288 -0.041566
65 20.090000 0.979999 9.800000 -0.005225 -0.042838 0.722660
66 15.120001 0.000000 0.000000 0.000000 -0.000000 0.829480
67 20.370001 -1.119999 -0.560000 -0.004504 -0.000429 0.509616
68 19.530001 0.000000 0.000000 0.000000 -0.000000 0.460834
69 20.720001 1.400000 -12.180001 -0.008047 0.000924 0.243681
70 18.130003 0.000000 0.000000 0.000000 -0.000000 0.330826
71 7.420000 7.070001 -9.589999 2.402128 0.953415 1.380024
72 10.710000 0.000000 0.000000 0.000000 -0.000000 0.405128
73 -1.260000 1.470000 0.000000 0.085993 0.215836 0.764205
time 3
0 0.000000 0.000000 0.000000 1.570796 -0.000000 0.000000
1 44.892803 141.918274 -34.900856 1.943125 -1.025662 2.894258
2 -97.212074 -61.057434 -16.399094 -2.142379 0.553565 -2.868931
3 0.000000 0.000000 49.770000 -0.000000 -1.570796 0.000000
4 49.840000 0.000000 0.000000 0.000000 -0.000000 0.000000
5 49.840000 0.000000 0.000000 0.000000 -0.000000 0.000000
6 49.840000 0.000000 0.000000 0.000000 -0.000000 0.000000
7 49.840000 0.000000 0.000000 0.000000 -0.000000 0.000000
8 49.840000 0.000000 0.000000 0.000000 -0.000000 0.000000
9 49.770000 0.000000 0.000000 0.000000 -0.000000 0.000000
10 55.590973 46.643463 31.818344 0.689654 0.502308 -0.432602
11 -0.000000 0.000000 49.840000 -0.000000 -1.570796 0.000000
12 49.980000 -0.000000 0.000000 0.000000 -0.000000 0.000000
13 49.770000 0.000000 0.000000 0.000000 -0.000000 0.000000
14 49.980000 0.000000 0.000000 0.000000 -0.000000 -0.000000
15 49.349998 0.000000 0.000000 0.000000 -0.000000 0.000000
16 50.049995 -0.000000 -0.000000 0.000000 -0.000000 0.000000
17 50.259998 0.000000 0.000000 0.000000 -0.000000 0.000000
18 -125.237854 -70.696640 4.290161 -0.332249 -0.516102 1.188709
19 114.783005 13.359787 -57.001778 1.358549 -0.487851 -1.105276
20 116.930786 54.247089 59.404308 1.541969 0.646281 -1.451645
21 18.345146 4.395212 100.601349 1.714966 0.262982 -1.133282
22 -49.713669 -29.145899 95.763046 1.697759 -0.096894 -1.849460
23 -38.161369 -38.312027 38.205151 2.042382 -0.017297 -2.190083
24 -38.400040 -64.495140 -59.777325 1.959613 -0.523898 -1.950111
25 0.000000 0.000000 0.000000 -1.074162 -1.339657 -0.576346
26 1.960000 22.259998 0.000000 3.119659 0.334907 3.033572
27 13.860002 -25.129999 0.000000 -3.128690 0.052978 -2.220217
28 13.650000 -2.520000 23.590000 -1.549429 -0.288756 -3.037550
29 13.650001 -2.520000 -23.590000 2.033873 0.438433 -2.664531
30 17.639999 0.095200 2.247280 -0.292040 0.005961 -0.342939
31 35.559998 0.000000 0.000000 -0.449521 0.252973 -0.225176
32 37.520000 0.000000 0.000000 -0.000011 -0.292895 -1.749943
33 2.502781 -16.123802 -20.857410 -2.927852 1.434877 1.955022
34 -0.350000 0.700000 -8.050000 1.395792 0.370583 0.047267
35 18.480000 12.180000 26.880001 1.573313 -0.404506 1.274699
36 37.730000 0.000000 -0.000000 0.006569 0.181205 0.094339
37 32.059998 0.000000 -0.000000 -0.271946 0.540061 0.355828
38 16.170000 -9.870001 -18.059999 -1.568363 0.260811 -1.299766
39 16.240000 -12.670000 9.730000 -1.488551 0.021756 -1.039858
40 19.670000 0.000000 -0.000001 -0.670791 -0.180943 -0.004382
41 40.950001 -0.000000 0.000000 0.000000 -0.000000 -0.414371
42 34.019997 -1.259999 17.639999 2.803339 -0.904338 1.186053
43 26.389999 0.000000 0.000000 -0.436483 -0.050826 0.546737
44 43.820000 0.000000 0.000000 1.794330 -0.084051 0.609375
45 20.090000 0.979999 -9.800000 -0.002548 0.048690 0.533376
46 15.120002 0.000000 0.000000 0.000000 -0.000000 0.832021
47 20.370001 -1.119999 0.560000 0.000209 0.006796 0.537337
48 19.530001 0.000000 0.000000 0.000000 -0.000000 0.928231
49 20.720003 1.400001 12.180000 0.000055 0.010147 0.024056
50 18.130001 -0.000001 0.000000 0.000000 -0.000000 0.917737
51 7.420000 7.070000 9.589999 -2.378943 -0.730933 1.207033
52 10.710000 -0.000001 0.000000 0.000000 -0.000000 0.942501
53 14.061041 -16.086281 15.733201 0.006690 -1.352379 -1.407426
54 -0.350000 0.700000 8.050000 -1.930673 -0.185973 0.872217
55 18.410002 12.180000 -26.880001 -1.602840 0.302573 2.259826
56 37.730000 0.000000 0.000000 0.037807 0.091132 -0.159392
57 32.059998 0.000000 0.000000 -0.091920 0.718089 -0.040941
58 16.100000 -9.870001 18.059999 1.615776 -0.397061 -1.310080
59 16.170000 -12.670000 -9.730000 1.645648 -0.125946 -1.385069
60 19.670000 0.000000 -0.000001 0.844305 0.487116 1.336078
61 40.950001 -0.000000 0.000000 0.000000 -0.000000 -1.552432
62 34.019997 -1.259998 -17.640001 -1.967741 0.735295 0.213759
63 26.389999 0.000000 0.000000 -0.619359 0.259018 -1.024592
64 43.820000 -0.000000 -0.000000 -1.916916 0.174323 -0.260275
65 20.090000 0.979999 9.800000 -0.009867 -0.041588 0.828457
66 15.120001 0.000000 0.000000 0.000000 -0.000000 0.948371
67 20.370001 -1.119999 -0.560000 0.004338 0.000223 0.709078
68 19.530001 0.000000 0.000000 0.000000 -0.000000 0.379878
69 20.720001 1.400000 -12.180001 0.010208 -0.001295 0.430394
70 18.130003 0.000000 0.000000 0.000000 -0.000000 0.250696
71 7.420000 7.070001 -9.589999 2.452922 1.004547 1.465231
72 10.710000 0.000000 0.000000 0.000000 -0.000000 0.422414
73 -1.260000 1.470000 0.000000 0.047163 0.261728 0.927413
time 4
0 0.000000 0.000000 0.000000 1.570796 -0.000000 0.000000
1 39.899368 159.529770 -36.894272 2.032334 -1.231313 2.741883
2 -95.300629 -59.110535 -8.225052 -2.710936 0.589717 -2.981099
3 0.000000 0.000000 49.770000 -0.000000 -1.570796 0.000000
4 49.840000 0.000000 0.000000 0.000000 -0.000000 0.000000
5 49.840000 0.000000 0.000000 0.000000 -0.000000 0.000000
6 49.840000 0.000000 0.000000 0.000000 -0.000000 0.000000
7 49.840000 0.000000 0.000000 0.000000 -0.000000 0.000000
8 49.840000 0.000000 0.000000 0.000000 -0.000000 0.000000
9 49.770000 0.000000 0.000000 0.000000 -0.000000 0.000000
10 52.349083 42.820343 14.321564 0.561443 0.725369 -0.737427
11 -0.000000 0.000000 49.840000 -0.000000 -1.570796 0.000000
12 49.980000 -0.000000 0.000000 0.000000 -0.000000 0.000000
13 49.770000 0.000000 0.000000 0.000000 -0.000000 0.000000
14 49.980000 0.000000 0.000000 0.000000 -0.000000 -0.000000
15 49.349998 0.000000 0.000000 0.000000 -0.000000 0.000000
16 50.049995 -0.000000 -0.000000 0.000000 -0.000000 0.000000
17 50.259998 0.000000 0.000000 0.000000 -0.000000 0.000000
18 -143.342499 -40.035629 -9.178741 -0.357441 -0.512280 1.068810
19 116.616486 22.662609 -62.445393 1.351961 -0.774094 -1.226711
20 114.094864 57.462788 60.749893 1.531226 0.672663 -1.405393
21 22.358368 5.960144 70.260147 1.680368 0.067947 -1.311745
22 -52.428085 -22.732500 81.096634 1.741883 -0.348537 -1.945206
23 -40.974136 -39.487274 16.060280 2.249137 0.149719 -2.323717
24 -51.534515 -62.351463 -69.935760 2.093427 -0.666618 -2.240142
25 0.000000 0.000000 0.000000 -0.988724 -1.411657 -0.639136
26 1.960000 22.259998 0.000000 3.107390 0.172446 3.126338
27 13.860002 -25.129999 0.000000 -3.131339 0.044825 -2.291482
28 13.650000 -2.520000 23.590000 -1.599388 -0.394319 -2.905586
29 13.650001 -2.520000 -23.590000 2.006476 0.383615 -2.673932
30 17.622906 1.114977 1.695313 -0.301840 0.001267 -0.170082
31 35.559998 0.000000 0.000000 -0.456514 0.246469 -0.192536
32 37.520000 0.000000 0.000000 0.018384 -0.145896 -1.660940
33 4.280571 -17.140156 -19.728151 0.447803 1.516118 -1.038545
34 -0.350000 0.700000 -8.050000 1.629354 0.315365 0.193832
35 18.480000 12.180000 26.880001 1.467427 -0.169535 1.258253
36 37.730000 0.000000 -0.000000 0.053127 -0.076293 -0.139898
37 32.059998 0.000000 -0.000000 -0.103977 0.174628 0.089642
38 16.170000 -9.870001 -18.059999 -1.661755 0.491897 -1.318443
39 16.240000 -12.670000 9.730000 -1.546232 0.294280 -1.033074
40 19.670000 0.000000 -0.000001 -0.825722 -0.160105 0.040692
41 40.950001 -0.000000 0.000000 0.000000 -0.000000 -0.369045
42 34.019997 -1.259999 17.639999 2.066295 -1.202031 1.896239
43 26.389999 0.000000 0.000000 -0.165599 -0.194947 0.315399
44 43.820000 0.000000 0.000000 1.486426 -0.260744 0.550327
45 20.090000 0.979999 -9.800000 -0.004515 0.056429 0.482725
46 15.120002 0.000000 0.000000 0.000000 -0.000000 0.805707
47 20.370001 -1.119999 0.560000 0.001182 0.019061 0.496462
48 19.530001 0.000000 0.000000 0.000000 -0.000000 0.902763
49 20.720003 1.400001 12.180000 -0.000464 0.025553 -0.034491
50 18.130001 -0.000001 0.000000 0.000000 -0.000000 0.861059
51 7.420000 7.070000 9.589999 -2.434959 -0.803425 1.137751
52 10.710000 -0.000001 0.000000 0.000000 -0.000000 0.942501
53 9.950937 -16.486094 18.108126 -0.219682 -1.389983 -1.273029
54 -0.350000 0.700000 8.050000 -1.834450 -0.213219 0.648653
55 18.410002 12.180000 -26.880001 -1.614487 0.338686 2.256594
56 37.730000 0.000000 0.000000 0.083991 -0.225224 -0.108925
57 32.059998 0.000000 0.000000 0.105101 0.265511 -0.031537
58 16.100000 -9.870001 18.059999 1.639867 -0.627203 -1.351763
59 16.170000 -12.670000 -9.730000 1.687293 -0.295500 -1.479969
60 19.670000 0.000000 -0.000001 0.971127 0.649925 1.018371
61 40.950001 -0.000000 0.000000 0.000000 -0.000000 -1.410634
62 34.019997 -1.259998 -17.640001 -1.929578 0.750018 0.126254
63 26.389999 0.000000 0.000000 -0.329952 0.249550 -0.841100
64 43.820000 -0.000000 -0.000000 -1.766398 0.206986 -0.241168
65 20.090000 0.979999 9.800000 -0.011633 -0.041145 0.856282
66 15.120001 0.000000 0.000000 0.000000 -0.000000 0.997186
67 20.370001 -1.119999 -0.560000 0.023034 0.001392 0.803490
68 19.530001 0.000000 0.000000 0.000000 -0.000000 0.478801
69 20.720001 1.400000 -12.180001 0.077645 -0.010542 0.489998
70 18.130003 0.000000 0.000000 0.000000 -0.000000 0.372531
71 7.420000 7.070001 -9.589999 2.267755 0.825877 1.242141
72 10.710000 0.000000 0.000000 0.000000 -0.000000 0.408947
73 -1.260000 1.470000 0.000000 0.062003 0.140105 1.127604
time 5
0 0.000000 0.000000 0.000000 1.570796 -0.000000 0.000000
1 31.249174 180.253845 -38.616680 1.689418 -1.486144 3.009970
2 -88.706787 -64.150879 1.012436 2.884419 0.608876 -3.134058
3 0.000000 0.000000 49.770000 -0.000000 -1.570796 0.000000
4 49.840000 0.000000 0.000000 0.000000 -0.000000 0.000000
5 49.840000 0.000000 0.000000 0.000000 -0.000000 0.000000
6 49.840000 0.000000 0.000000 0.000000 -0.000000 0.000000
7 49.840000 0.000000 0.000000 0.000000 -0.000000 0.000000
8 49.840000 0.000000 0.000000 0.000000 -0.000000 0.000000
9 49.770000 0.000000 0.000000 0.000000 -0.000000 0.000000
10 48.555622 41.252502 -2.642303 0.533226 0.869447 -0.950649
11 -0.000000 0.000000 49.840000 -0.000000 -1.570796 0.000000
12 49.980000 -0.000000 0.000000 0.000000 -0.000000 0.000000
13 49.770000 0.000000 0.000000 0.000000 -0.000000 0.000000
14 49.980000 0.000000 0.000000 0.000000 -0.000000 -0.000000
15 49.349998 0.000000 0.000000 0.000000 -0.000000 0.000000
16 50.049995 -0.000000 -0.000000 0.000000 -0.000000 0.000000
17 50.259998 0.000000 0.000000 0.000000 -0.000000 0.000000
18 -149.224319 4.818241 -21.272156 -0.375002 -0.451912 0.894974
19 118.858894 20.873699 -60.163555 1.369562 -0.776662 -1.318883
20 115.504616 53.928177 71.607468 1.528051 0.578099 -1.356480
21 27.555779 7.279932 65.797058 1.650407 -0.056115 -1.432594
22 -52.462860 -18.671961 71.918022 1.748124 -0.455745 -1.957824
23 -49.776173 -38.124462 11.422142 2.286994 0.215121 -2.324050
24 -65.648804 -57.408806 -72.137299 2.119974 -0.705930 -2.309612
25 0.000000 0.000000 0.000000 -0.928037 -1.503138 -0.670180
26 1.960000 22.259998 0.000000 3.091779 -0.024744 -3.099900
27 13.860002 -25.129999 0.000000 -3.134147 0.034224 -2.390899
28 13.650000 -2.520000 23.590000 -1.673183 -0.558061 -2.762516
29 13.650001 -2.520000 -23.590000 1.969050 0.307089 -2.685689
30 17.522234 2.720242 0.792400 -0.276668 0.000223 0.000932
31 35.559998 0.000000 0.000000 -0.428154 0.208557 -0.179698
32 37.520000 0.000000 0.000000 0.062765 0.053016 -1.471047
33 4.893024 -19.004721 -17.794689 0.291615 1.315253 -1.385905
34 -0.350000 0.700000 -8.050000 1.843416 0.286324 0.320969
35 18.480000 12.180000 26.880001 1.363241 0.057468 1.245991
36 37.730000 0.000000 -0.000000 0.091685 -0.138261 -0.234688
37 32.059998 0.000000 -0.000000 0.113165 -0.059020 -0.165957
38 16.170000 -9.870001 -18.059999 -1.774055 0.565153 -1.387301
39 16.240000 -12.670000 9.730000 -1.637227 0.424717 -1.076204
40 19.670000 0.000000 -0.000001 -1.009866 -0.140315 0.150743
41 40.950001 -0.000000 0.000000 0.000000 -0.000000 -0.318326
42 34.019997 -1.259999 17.639999 1.393992 -1.508351 2.481078
43 26.389999 0.000000 0.000000 0.004877 -0.063511 0.032352
44 43.820000 0.000000 0.000000 1.172787 -0.507258 0.434182
45 20.090000 0.979999 -9.800000 -0.005303 0.049355 0.455030
46 15.120002 0.000000 0.000000 0.000000 -0.000000 0.767986
47 20.370001 -1.119999 0.560000 0.001793 0.009081 0.464182
48 19.530001 0.000000 0.000000 0.000000 -0.000000 0.866824
49 20.720003 1.400001 12.180000 -0.000348 0.014658 -0.074924
50 18.130001 -0.000001 0.000000 0.000000 -0.000000 0.818164
51 7.420000 7.070000 9.589999 -2.550143 -0.903270 1.049833
52 10.710000 -0.000001 0.000000 0.000000 -0.000000 0.942501
53 2.624720 -16.635921 20.428799 0.003482 -1.419796 -1.698497
54 -0.350000 0.700000 8.050000 -1.678496 -0.252000 0.284316
55 18.410002 12.180000 -26.880001 -1.637541 0.405000 2.244974
56 37.730000 0.000000 0.000000 0.094212 -0.265867 -0.129572
57 32.059998 0.000000 0.000000 0.240409 -0.143141 -0.085341
58 16.100000 -9.870001 18.059999 1.618431 -0.663330 -1.493583
59 16.170000 -12.670000 -9.730000 1.655598 -0.291971 -1.358156
60 19.670000 0.000000 -0.000001 0.965246 0.806047 0.531221
61 40.950001 -0.000000 0.000000 0.000000 -0.000000 -1.216325
62 34.019997 -1.259998 -17.640001 -1.876017 0.758343 0.066589
63 26.389999 0.000000 0.000000 -0.096785 0.135849 -0.629533
64 43.820000 -0.000000 -0.000000 -1.555086 0.221601 -0.156046
65 20.090000 0.979999 9.800000 -0.013216 -0.040500 0.881355
66 15.120001 0.000000 0.000000 0.000000 -0.000000 1.046529
67 20.370001 -1.119999 -0.560000 0.047435 0.001706 0.845363
68 19.530001 0.000000 0.000000 0.000000 -0.000000 0.663163
69 20.720001 1.400000 -12.180001 0.146943 -0.020747 0.535252
70 18.130003 0.000000 0.000000 0.000000 -0.000000 0.594065
71 7.420000 7.070001 -9.589999 2.157238 0.554676 1.067736
72 10.710000 0.000000 0.000000 0.000000 -0.000000 0.394800
73 -1.260000 1.470000 0.000000 0.074987 0.047116 1.289289
time 6
0 0.000000 0.000000 0.000000 1.570796 -0.000000 0.000000
1 22.877134 196.158493 -37.930691 -2.183415 -1.450333 0.538974
2 -73.959518 -67.048462 -0.910278 2.413355 0.731569 2.935885
3 0.000000 0.000000 49.770000 -0.000000 -1.570796 0.000000
4 49.840000 0.000000 0.000000 0.000000 -0.000000 0.000000
5 49.840000 0.000000 0.000000 0.000000 -0.000000 0.000000
6 49.840000 0.000000 0.000000 0.000000 -0.000000 0.000000
7 49.840000 0.000000 0.000000 0.000000 -0.000000 0.000000
8 49.840000 0.000000 0.000000 0.000000 -0.000000 0.000000
9 49.770000 0.000000 0.000000 0.000000 -0.000000 0.000000
10 47.936363 40.671326 -10.549973 0.521461 0.915821 -0.986126
11 -0.000000 0.000000 49.840000 -0.000000 -1.570796 0.000000
12 49.980000 -0.000000 0.000000 0.000000 -0.000000 0.000000
13 49.770000 0.000000 0.000000 0.000000 -0.000000 0.000000
14 49.980000 0.000000 0.000000 0.000000 -0.000000 -0.000000
15 49.349998 0.000000 0.000000 0.000000 -0.000000 0.000000
16 50.049995 -0.000000 -0.000000 0.000000 -0.000000 0.000000
17 50.259998 0.000000 0.000000 0.000000 -0.000000 0.000000
18 -143.902252 33.852062 -22.239029 -0.377953 -0.375421 0.804845
19 121.331017 12.679209 -53.433945 1.425385 -0.641142 -1.403942
20 116.740852 48.130894 79.743652 1.526419 0.500894 -1.321313
21 32.944756 8.251682 74.535881 1.624697 -0.106631 -1.492693
22 -46.582653 -19.912107 74.801300 1.706399 -0.393557 -1.866699
23 -65.678688 -31.207748 22.604332 2.128185 0.184416 -2.156129
24 -83.949181 -38.662476 -63.685738 1.999751 -0.621344 -2.155092
25 0.000000 0.000000 0.000000 -0.993257 -1.547244 -0.590165
26 1.960000 22.259998 0.000000 3.080903 -0.165735 -3.085387
27 13.860002 -25.129999 0.000000 -3.136790 0.023767 -2.489192
28 13.650000 -2.520000 23.590000 -1.723108 -0.668966 -2.676778
29 13.650001 -2.520000 -23.590000 1.914114 0.258755 -2.722816
30 17.323915 3.961195 0.071505 -0.231839 -0.001903 0.102925
31 35.559998 0.000000 0.000000 -0.373508 0.165823 -0.166529
32 37.520000 0.000000 0.000000 0.132331 0.193869 -1.195435
33 2.584223 -20.583534 -16.474464 0.447805 1.186636 -1.513976
34 -0.350000 0.700000 -8.050000 1.992539 0.261697 0.399521
35 18.480000 12.180000 26.880001 1.301443 0.193948 1.244336
36 37.730000 0.000000 -0.000000 0.096438 -0.148769 -0.278498
37 32.059998 0.000000 -0.000000 0.213054 -0.108690 -0.277797
38 16.170000 -9.870001 -18.059999 -1.899483 0.586281 -1.519615
39 16.240000 -12.670000 9.730000 -1.753001 0.467786 -1.176312
40 19.670000 0.000000 -0.000001 -1.049182 -0.196278 0.253947
41 40.950001 -0.000000 0.000000 0.000000 -0.000000 -0.328376
42 34.019997 -1.259999 17.639999 -2.296553 -1.442630 -0.179225
43 26.389999 0.000000 0.000000 0.123254 -0.016570 -0.147849
44 43.820000 0.000000 0.000000 1.084664 -0.721895 0.288829
45 20.090000 0.979999 -9.800000 -0.001195 0.045758 0.536115
46 15.120002 0.000000 0.000000 0.000000 -0.000000 0.837463
47 20.370001 -1.119999 0.560000 0.000881 0.003629 0.532247
48 19.530001 0.000000 0.000000 0.000000 -0.000000 0.934097
49 20.720003 1.400001 12.180000 -0.000018 0.002153 0.027950
50 18.130001 -0.000001 0.000000 0.000000 -0.000000 0.898782
51 7.420000 7.070000 9.589999 -2.665615 -0.898924 1.030891
52 10.710000 -0.000001 0.000000 0.000000 -0.000000 0.942501
53 -4.976589 -15.768669 20.715115 0.219782 -1.435022 -2.162040
54 -0.350000 0.700000 8.050000 -1.583566 -0.269243 0.053090
55 18.410002 12.180000 -26.880001 -1.654856 0.447669 2.206218
56 37.730000 0.000000 0.000000 0.085940 -0.244422 -0.180250
57 32.059998 0.000000 0.000000 0.292571 -0.270928 -0.193901
58 16.100000 -9.870001 18.059999 1.567045 -0.671438 -1.708910
59 16.170000 -12.670000 -9.730000 1.579126 -0.237033 -1.068771
60 19.670000 0.000000 -0.000001 0.824673 0.885833 0.075478
61 40.950001 -0.000000 0.000000 0.000000 -0.000000 -1.043097
62 34.019997 -1.259998 -17.640001 -1.829547 0.763033 0.027936
63 26.389999 0.000000 0.000000 0.000754 -0.068154 -0.305109
64 43.820000 -0.000000 -0.000000 -1.528596 0.203537 -0.097925
65 20.090000 0.979999 9.800000 -0.016988 -0.038299 0.975051
66 15.120001 0.000000 0.000000 0.000000 -0.000000 1.168708
67 20.370001 -1.119999 -0.560000 0.064091 0.001139 0.911246
68 19.530001 0.000000 0.000000 0.000000 -0.000000 0.902429
69 20.720001 1.400000 -12.180001 0.170444 -0.028351 0.659517
70 18.130003 0.000000 0.000000 0.000000 -0.000000 0.879960
71 7.420000 7.070001 -9.589999 2.171064 0.308639 1.021836
72 10.710000 0.000000 0.000000 0.000000 -0.000000 0.416596
73 -1.260000 1.470000 0.000000 0.081060 -0.008216 1.290650
time 7
0 0.000000 0.000000 0.000000 1.570796 -0.000000 0.000000
1 15.153115 195.160172 -28.530218 -2.157372 -1.474642 0.510593
2 -41.121323 -63.996338 -16.743500 1.963060 1.283642 2.223592
3 0.000000 0.000000 49.770000 -0.000000 -1.570796 0.000000
4 49.840000 0.000000 0.000000 0.000000 -0.000000 0.000000
5 49.840000 0.000000 0.000000 0.000000 -0.000000 0.000000
6 49.840000 0.000000 0.000000 0.000000 -0.000000 0.000000
7 49.840000 0.000000 0.000000 0.000000 -0.000000 0.000000
8 49.840000 0.000000 0.000000 0.000000 -0.000000 0.000000
9 49.770000 0.000000 0.000000 0.000000 -0.000000 0.000000
10 56.335285 43.514526 -5.414978 0.360349 0.698478 -0.569587
11 -0.000000 0.000000 49.840000 -0.000000 -1.570796 0.000000
12 49.980000 -0.000000 0.000000 0.000000 -0.000000 0.000000
13 49.770000 0.000000 0.000000 0.000000 -0.000000 0.000000
14 49.980000 0.000000 0.000000 0.000000 -0.000000 -0.000000
15 49.349998 0.000000 0.000000 0.000000 -0.000000 0.000000
16 50.049995 -0.000000 -0.000000 0.000000 -0.000000 0.000000
17 50.259998 0.000000 0.000000 0.000000 -0.000000 0.000000
18 -135.574860 7.987802 -0.395889 -0.323040 -0.270588 0.980851
19 123.755676 3.794404 -46.072121 1.491847 -0.484797 -1.486732
20 115.793747 39.162342 78.054665 1.713767 0.563096 -1.453942
21 38.337959 8.664834 89.587769 1.600995 -0.130452 -1.530464
22 -44.922356 -18.569597 85.424934 1.652748 -0.287890 -1.749007
23 -84.590683 -20.017159 40.198563 1.909159 0.139487 -1.927798
24 -103.712334 -15.309880 -52.209801 1.820205 -0.483633 -1.909317
25 0.000000 0.000000 0.000000 -1.575119 -1.568540 0.000000
26 1.960000 22.259998 0.000000 3.097328 -0.139931 3.110430
27 13.860002 -25.129999 0.000000 -3.138942 0.014551 -2.574637
28 13.650000 -2.520000 23.590000 -1.687008 -0.644445 -2.794188
29 13.650001 -2.520000 -23.590000 1.796449 0.320905 -2.853377
30 17.290001 4.206720 -0.142240 -0.163522 -0.003105 0.137791
31 35.559998 0.000000 0.000000 -0.269697 0.125955 -0.142476
32 37.520000 0.000000 0.000000 0.132654 0.166848 -0.831043
33 -3.776649 -19.707146 -17.354774 0.540321 1.220315 -1.777158
34 -0.350000 0.700000 -8.050000 1.905110 0.237422 0.305629
35 18.480000 12.180000 26.880001 1.380955 0.101092 1.328015
36 37.730000 0.000000 -0.000000 0.083350 -0.195123 -0.350357
37 32.059998 0.000000 -0.000000 0.238439 -0.156772 -0.364436
38 16.170000 -9.870001 -18.059999 -1.903107 0.540677 -1.538117
39 16.240000 -12.670000 9.730000 -1.766166 0.436323 -1.238655
40 19.670000 0.000000 -0.000001 -0.741968 -0.406946 0.287152
41 40.950001 -0.000000 0.000000 0.000000 -0.000000 -0.514055
42 34.019997 -1.259999 17.639999 1.386515 -1.436841 2.378035
43 26.389999 0.000000 0.000000 0.363949 -0.296532 -0.429808
44 43.820000 0.000000 0.000000 1.547691 -0.670289 0.005480
45 20.090000 0.979999 -9.800000 0.009046 0.042497 0.779205
46 15.120002 0.000000 0.000000 0.000000 -0.000000 1.093041
47 20.370001 -1.119999 0.560000 -0.000102 -0.000463 0.773206
48 19.530001 0.000000 0.000000 0.000000 -0.000000 1.180570
49 20.720003 1.400001 12.180000 0.000005 0.000101 0.355916
50 18.130001 -0.000001 0.000000 0.000000 -0.000000 1.265467
51 7.420000 7.070000 9.589999 -2.709372 -0.640986 1.108097
52 10.710000 -0.000001 0.000000 0.000000 -0.000000 0.942501
53 -10.309643 -13.558672 20.054169 0.095337 -1.400233 -2.381372
54 -0.350000 0.700000 8.050000 -1.570867 -0.259467 0.010475
55 18.410002 12.180000 -26.880001 -1.652157 0.396205 2.014254
56 37.730000 0.000000 0.000000 0.057309 -0.307918 -0.202760
57 32.059998 0.000000 0.000000 0.281200 -0.385053 -0.251746
58 16.100000 -9.870001 18.059999 1.546620 -0.619201 -1.734682
59 16.170000 -12.670000 -9.730000 1.549943 -0.175009 -0.990210
60 19.670000 0.000000 -0.000001 0.454408 0.812133 -0.140155
61 40.950001 -0.000000 0.000000 0.000000 -0.000000 -1.023776
62 34.019997 -1.259998 -17.640001 -1.798601 0.625264 0.304659
63 26.389999 0.000000 0.000000 0.124031 -0.111940 0.290369
64 43.820000 -0.000000 -0.000000 -1.935533 0.144937 -0.108857
65 20.090000 0.979999 9.800000 -0.023779 -0.033997 1.161306
66 15.120001 0.000000 0.000000 0.000000 -0.000000 1.389537
67 20.370001 -1.119999 -0.560000 0.053735 -0.002283 1.091371
68 19.530001 0.000000 0.000000 0.000000 -0.000000 1.223655
69 20.720001 1.400000 -12.180001 0.131984 -0.033825 0.888877
70 18.130003 0.000000 0.000000 0.000000 -0.000000 1.293700
71 7.420000 7.070001 -9.589999 2.291875 0.146521 1.102841
72 10.710000 0.000000 0.000000 0.000000 -0.000000 0.540974
73 -1.260000 1.470000 0.000000 0.082165 -0.031498 1.054366
time 8
0 0.000000 0.000000 0.000000 1.570796 -0.000000 0.000000
1 7.599548 184.958679 -14.222203 1.305051 -1.524915 -2.924344
2 14.904107 -74.916199 -8.564392 0.205321 0.748218 -0.205402
3 0.000000 0.000000 49.770000 -0.000000 -1.570796 0.000000
4 49.840000 0.000000 0.000000 0.000000 -0.000000 0.000000
5 49.840000 0.000000 0.000000 0.000000 -0.000000 0.000000
6 49.840000 0.000000 0.000000 0.000000 -0.000000 0.000000
7 49.840000 0.000000 0.000000 0.000000 -0.000000 0.000000
8 49.840000 0.000000 0.000000 0.000000 -0.000000 0.000000
9 49.770000 0.000000 0.000000 0.000000 -0.000000 0.000000
10 68.482285 62.311523 21.693726 -0.152426 0.220619 0.015422
11 -0.000000 0.000000 49.840000 -0.000000 -1.570796 0.000000
12 49.980000 -0.000000 0.000000 0.000000 -0.000000 0.000000
13 49.770000 0.000000 0.000000 0.000000 -0.000000 0.000000
14 49.980000 0.000000 0.000000 0.000000 -0.000000 -0.000000
15 49.349998 0.000000 0.000000 0.000000 -0.000000 0.000000
16 50.049995 -0.000000 -0.000000 0.000000 -0.000000 0.000000
17 50.259998 0.000000 0.000000 0.000000 -0.000000 0.000000
18 -115.269081 -21.722967 33.968697 -0.201647 -0.138945 1.350688
19 125.581238 -4.325407 -39.067398 1.542400 -0.364494 -1.545888
20 113.777397 29.568159 73.062592 1.758828 0.482074 -1.561797
21 43.739487 8.943655 106.477165 1.579395 -0.151059 -1.563708
22 -47.399689 -11.191992 108.358986 1.601413 -0.202906 -1.637496
23 -103.990959 -7.608891 59.671928 1.679202 0.098893 -1.685550
24 -119.805771 6.749752 -40.846329 1.661164 -0.363653 -1.693910
25 0.000000 0.000000 0.000000 -1.569049 -1.556899 0.000000
26 1.960000 22.259998 0.000000 3.123857 -0.054333 2.975234
27 13.860002 -25.129999 0.000000 -3.140351 0.007084 -2.642250
28 13.650000 -2.520000 23.590000 -1.618341 -0.571002 -2.998428
29 13.650001 -2.520000 -23.590000 1.654154 0.442725 -3.030447
30 17.355520 4.004315 -0.077315 -0.084952 -0.002114 0.088594
31 35.559998 0.000000 0.000000 -0.133516 0.086143 -0.112954
32 37.520000 0.000000 0.000000 0.096454 0.072761 -0.427732
33 -12.035624 -14.206123 -18.778257 0.556193 1.310967 -2.168043
34 -0.350000 0.700000 -8.050000 1.702960 0.217517 0.123201
35 18.480000 12.180000 26.880001 1.519817 -0.083702 1.453007
36 37.730000 0.000000 -0.000000 0.083653 -0.267795 -0.423219
37 32.059998 0.000000 -0.000000 0.222972 -0.259106 -0.470887
38 16.170000 -9.870001 -18.059999 -1.709254 0.272765 -1.389289
39 16.240000 -12.670000 9.730000 -1.651577 0.231221 -1.257597
40 19.670000 0.000000 -0.000001 -0.139598 -0.644271 0.195967
41 40.950001 -0.000000 0.000000 0.000000 -0.000000 -0.825766
42 34.019997 -1.259999 17.639999 2.317984 -0.813875 1.370512
43 26.389999 0.000000 0.000000 0.093278 0.309638 -0.639585
44 43.820000 0.000000 0.000000 2.202936 -0.398837 -0.214529
45 20.090000 0.979999 -9.800000 0.024376 0.035389 1.195916
46 15.120002 0.000000 0.000000 0.000000 -0.000000 1.503922
47 20.370001 -1.119999 0.560000 -0.000009 -0.000028 1.178338
48 19.530001 0.000000 0.000000 0.000000 -0.000000 1.578152
49 20.720003 1.400001 12.180000 -0.000002 -0.000020 0.891885
50 18.130001 -0.000001 0.000000 0.000000 -0.000000 1.776461
51 7.420000 7.070000 9.589999 -2.687453 -0.260578 1.223070
52 10.710000 -0.000001 0.000000 0.000000 -0.000000 0.942501
53 -14.457411 -10.039439 19.395676 -0.177241 -1.367687 -2.530394
54 -0.350000 0.700000 8.050000 -1.568076 -0.236871 -0.000971
55 18.410002 12.180000 -26.880001 -1.641999 0.279750 1.663196
56 37.730000 0.000000 0.000000 0.027587 -0.396823 -0.192684
57 32.059998 0.000000 0.000000 0.230495 -0.580931 -0.220696
58 16.100000 -9.870001 18.059999 1.554786 -0.298400 -1.429449
59 16.170000 -12.670000 -9.730000 1.556153 -0.113135 -1.108748
60 19.670000 0.000000 -0.000001 -0.022100 0.664390 -0.185110
61 40.950001 -0.000000 0.000000 0.000000 -0.000000 -1.063918
62 34.019997 -1.259998 -17.640001 -1.784066 0.319083 0.911739
63 26.389999 0.000000 0.000000 0.276463 -0.328352 0.499016
64 43.820000 -0.000000 -0.000000 -2.545199 0.059600 -0.118658
65 20.090000 0.979999 9.800000 -0.031183 -0.028694 1.379619
66 15.120001 0.000000 0.000000 0.000000 -0.000000 1.645010
67 20.370001 -1.119999 -0.560000 0.027493 -0.005575 1.336512
68 19.530001 0.000000 0.000000 0.000000 -0.000000 1.600942
69 20.720001 1.400000 -12.180001 0.072768 -0.032234 1.154034
70 18.130003 0.000000 0.000000 0.000000 -0.000000 1.805735
71 7.420000 7.070001 -9.589999 2.438397 -0.006929 1.216665
72 10.710000 0.000000 0.000000 0.000000 -0.000000 0.739723
73 -1.260000 1.470000 0.000000 0.100835 -0.016934 0.598254
time 9
0 0.000000 0.000000 0.000000 1.570796 -0.000000 0.000000
1 -0.000000 175.000000 0.000000 1.348548 -1.393562 -2.942447
2 42.700005 -95.410034 37.869949 0.743526 -0.136451 -0.687255
3 0.000000 0.000000 49.770000 -0.000000 -1.570796 0.000000
4 49.840000 0.000000 0.000000 0.000000 -0.000000 0.000000
5 49.840000 0.000000 0.000000 0.000000 -0.000000 0.000000
6 49.840000 0.000000 0.000000 0.000000 -0.000000 0.000000
7 49.840000 0.000000 0.000000 0.000000 -0.000000 0.000000
8 49.840000 0.000000 0.000000 0.000000 -0.000000 0.000000
9 49.770000 0.000000 0.000000 0.000000 -0.000000 0.000000
10 53.760025 91.559998 56.630020 -0.934042 -0.208762 0.593870
11 -0.000000 0.000000 49.840000 -0.000000 -1.570796 0.000000
12 49.980000 -0.000000 0.000000 0.000000 -0.000000 0.000000
13 49.770000 0.000000 0.000000 0.000000 -0.000000 0.000000
14 49.980000 0.000000 0.000000 0.000000 -0.000000 -0.000000
15 49.349998 0.000000 0.000000 0.000000 -0.000000 0.000000
16 50.049995 -0.000000 -0.000000 0.000000 -0.000000 0.000000
17 50.259998 0.000000 0.000000 0.000000 -0.000000 0.000000
18 -88.550003 -16.940001 66.500008 -0.038593 -0.019334 1.745319
19 126.419998 -8.190000 -35.769997 1.570796 -0.295109 -1.570796
20 111.650009 19.880001 67.690002 1.570797 0.082036 -1.570796
21 49.140003 9.240001 123.130005 1.570797 -0.154157 -1.570797
22 -49.140003 -5.599998 123.130005 1.570797 -0.154157 -1.570797
23 -111.650009 -2.520000 67.690002 1.570796 0.082036 -1.570796
24 -126.420006 16.309999 -35.769997 1.570796 -0.295109 -1.570796
25 0.000000 0.000000 0.000000 -1.570796 -1.570796 0.000000
26 1.960000 22.259998 0.000000 3.141592 -0.000000 2.878737
27 13.860002 -25.129999 0.000000 3.141592 -0.000000 -2.705991
28 13.650000 -2.520000 23.590000 -1.570796 -0.523573 3.141592
29 13.650001 -2.520000 -23.590000 1.570796 0.523573 3.141592
30 17.360001 3.710000 -0.000000 0.000000 -0.000000 -0.000000
31 35.559998 0.000000 0.000000 0.000062 0.044040 -0.088030
32 37.520000 0.000000 0.000000 0.000000 -0.000000 0.000000
33 -17.430000 -5.599999 -19.179998 0.471158 1.375624 -2.678962
34 -0.350000 0.700000 -8.050000 1.569360 0.209606 -0.000151
35 18.480000 12.180000 26.880001 1.616266 -0.207809 1.539899
36 37.730000 0.000000 -0.000000 0.011980 -0.071260 -0.166710
37 32.059998 0.000000 -0.000000 0.013845 -0.155993 -0.023148
38 16.170000 -9.870001 -18.059999 -1.570332 0.079809 -1.282453
39 16.240000 -12.670000 9.730000 -1.567719 0.084576 -1.261106
40 19.670000 0.000000 -0.000001 0.568540 -0.745545 0.010971
41 40.950001 -0.000000 0.000000 0.000000 -0.000000 -1.143276
42 34.019997 -1.259999 17.639999 2.885437 -0.448323 0.759074
43 26.389999 0.000000 0.000000 0.041414 -0.829887 0.010166
44 43.820000 0.000000 0.000000 2.766842 -0.032144 -0.169145
45 20.090000 0.979999 -9.800000 0.037369 0.021660 1.623560
46 15.120002 0.000000 0.000000 0.000000 -0.000000 1.928986
47 20.370001 -1.119999 0.560000 -0.000000 0.000000 1.587769
48 19.530001 0.000000 0.000000 0.000000 -0.000000 1.991106
49 20.720003 1.400001 12.180000 -0.000000 0.000000 1.449133
50 18.130001 -0.000001 0.000000 0.000000 -0.000000 2.340474
51 7.420000 7.070000 9.589999 -2.604852 0.157724 1.357514
52 10.710000 -0.000001 0.000000 0.000000 -0.000000 0.942501
53 -17.430000 -5.599999 19.179998 -0.471159 -1.375624 -2.678964
54 -0.350000 0.700000 8.050000 -1.569360 -0.209606 -0.000151
55 18.410002 12.180000 -26.880001 -1.637794 0.206705 1.449167
56 37.730000 0.000000 0.000000 -0.031920 0.163655 -0.240120
57 32.059998 0.000000 0.000000 -0.025501 0.157114 -0.094312
58 16.100000 -9.870001 18.059999 1.563382 -0.068785 -1.211461
59 16.170000 -12.670000 -9.730000 1.560866 -0.073433 -1.194082
60 19.670000 0.000000 -0.000001 -0.494656 0.539904 -0.135240
61 40.950001 -0.000000 0.000000 0.000000 -0.000000 -1.107239
62 34.019997 -1.259998 -17.640001 -1.781119 0.143293 1.261305
63 26.389999 0.000000 0.000000 -0.149328 0.149721 -0.513375
64 43.820000 -0.000000 -0.000000 3.074326 -0.022351 -0.069289
65 20.090000 0.979999 9.800000 -0.037369 -0.021660 1.623560
66 15.120001 0.000000 0.000000 0.000000 -0.000000 1.928986
67 20.370001 -1.119999 -0.560000 0.000000 -0.000000 1.587769
68 19.530001 0.000000 0.000000 0.000000 -0.000000 1.991107
69 20.720001 1.400000 -12.180001 0.000000 -0.000000 1.449133
70 18.130003 0.000000 0.000000 0.000000 -0.000000 2.340474
71 7.420000 7.070001 -9.589999 2.604852 -0.157724 1.357514
72 10.710000 0.000000 0.000000 0.000000 -0.000000 0.942501
73 -1.260000 1.470000 0.000000 0.127666 0.052064 0.127667
end
