version 1
nodes
0 "npc_boss_016" -1
1 "Bip001" 0
2 "Bip001 Prop3" 1
3 "Bone035" 2
4 "Bone036" 3
5 "Bone037" 4
6 "Bone038" 5
7 "Bone039" 6
8 "Bone040" 7
9 "Bone041" 8
10 "Bip001 Prop2" 1
11 "Bone028" 10
12 "Bone029" 11
13 "Bone030" 12
14 "Bone031" 13
15 "Bone032" 14
16 "Bone033" 15
17 "Bone034" 16
18 "Bip001 Prop1" 1
19 "Bone027" 18
20 "Bone026" 18
21 "Bone025" 18
22 "Bone024" 18
23 "Bone022" 18
24 "Bone021" 18
25 "Bip001 Pelvis" 1
26 "Bone020" 25
27 "Bone019" 25
28 "Bone018" 25
29 "Bone017" 25
30 "Bip001 Spine" 25
31 "Bip001 Spine1" 30
32 "Bip001 Neck" 31
33 "Bip001 R Clavicle" 32
34 "Bone011" 33
35 "Bone014" 34
36 "Bone015" 35
37 "Bone016" 36
38 "Bone013" 34
39 "Bone012" 34
40 "Bip001 R UpperArm" 33
41 "Bip001 R Forearm" 40
42 "Bone009" 41
43 "Bone010" 42
44 "Bip001 R Hand" 41
45 "Bip001 R Finger3" 44
46 "Bip001 R Finger31" 45
47 "Bip001 R Finger2" 44
48 "Bip001 R Finger21" 47
49 "Bip001 R Finger1" 44
50 "Bip001 R Finger11" 49
51 "Bip001 R Finger0" 44
52 "Bip001 R Finger01" 51
53 "Bip001 L Clavicle" 32
54 "Bone003" 53
55 "Bone006" 54
56 "Bone007" 55
57 "Bone008" 56
58 "Bone005" 54
59 "Bone004" 54
60 "Bip001 L UpperArm" 53
61 "Bip001 L Forearm" 60
62 "Bone001" 61
63 "Bone002" 62
64 "Bip001 L Hand" 61
65 "Bip001 L Finger3" 64
66 "Bip001 L Finger31" 65
67 "Bip001 L Finger2" 64
68 "Bip001 L Finger21" 67
69 "Bip001 L Finger1" 64
70 "Bip001 L Finger11" 69
71 "Bip001 L Finger0" 64
72 "Bip001 L Finger01" 71
73 "Bip001 Head" 32
end
skeleton
time 0
0 0.000000 0.000000 0.000000 1.570796 -0.000000 0.000000
1 -16.682436 188.004196 -48.599045 2.160241 -1.350269 2.425234
2 40.072044 -64.739990 2.107712 0.661722 0.466345 -0.194107
3 0.000000 0.000000 49.770000 -0.000000 -1.570796 0.000000
4 49.840000 0.000000 0.000000 0.000000 -0.000000 0.000000
5 49.840000 0.000000 0.000000 0.000000 -0.000000 0.000000
6 49.840000 0.000000 0.000000 0.000000 -0.000000 0.000000
7 49.840000 0.000000 0.000000 0.000000 -0.000000 0.000000
8 49.840000 0.000000 0.000000 0.000000 -0.000000 0.000000
9 49.770000 0.000000 0.000000 0.000000 -0.000000 0.000000
10 38.072670 82.515533 17.780838 -0.868358 0.411288 0.697908
11 -0.000000 0.000000 49.840000 -0.000000 -1.570796 0.000000
12 49.980000 -0.000000 0.000000 0.000000 -0.000000 0.000000
13 49.770000 0.000000 -0.000000 0.000000 -0.000000 0.000000
14 49.980000 0.000000 -0.000000 0.000000 -0.000000 -0.000000
15 49.349998 0.000000 0.000000 0.000000 -0.000000 0.000000
16 50.049995 -0.000000 -0.000000 0.000000 -0.000000 0.000000
17 50.259998 0.000000 0.000000 0.000000 -0.000000 0.000000
18 -36.301434 -14.657553 62.451027 0.359140 -0.135204 1.738653
19 136.230011 -13.707756 -60.332253 1.427433 -0.293565 -1.570550
20 129.628967 28.199139 55.653244 1.570796 0.186520 -1.570796
21 59.983055 39.001225 125.777756 2.009822 -0.152828 -1.569835
22 -51.678230 43.677124 120.290291 1.005061 -0.153409 -1.571416
23 -134.720520 34.358414 57.034279 1.586848 0.111586 -1.570639
24 -140.216904 -13.092730 -52.414383 1.662434 -0.294762 -1.570301
25 0.000000 0.000000 0.000000 -1.570796 -1.570796 0.000000
26 1.960000 22.259998 0.000000 3.089719 -0.261387 2.814301
27 13.860002 -25.129999 -0.000000 3.111368 -0.189263 -2.601178
28 13.650000 -2.520000 23.590000 -1.393375 -0.554723 2.782866
29 13.650001 -2.520000 -23.590000 1.364194 0.303980 2.842243
30 17.360001 3.710000 -0.000000 -0.001890 0.004643 0.045194
31 35.559998 0.000000 0.000000 0.017147 0.121140 0.235586
32 37.520000 0.000000 0.000000 0.004456 0.002081 0.019914
33 -17.504364 -5.298013 -19.179998 0.489147 1.374925 -2.681401
34 -0.350000 0.700000 -8.050000 1.520251 0.235628 -0.162714
35 18.480000 12.180000 26.880001 1.577770 -0.461532 1.612321
36 37.730000 0.000000 -0.000000 0.035043 0.110857 0.200619
37 32.059998 0.000000 -0.000000 0.041591 -0.029147 0.133863
38 16.170000 -9.870001 -18.059999 -1.608311 -0.108774 -1.533760
39 16.240000 -12.670000 9.730000 -1.548924 -0.062620 -1.278188
40 19.670000 0.000000 -0.000001 0.057150 -0.792294 -0.011475
41 40.950001 -0.000000 0.000000 0.000000 -0.000000 -1.190414
42 34.019997 -1.259999 17.639999 -3.055010 -0.453191 0.115174
43 26.389999 0.000000 0.000000 -0.179506 -0.774952 0.316141
44 43.820000 0.000000 0.000000 2.768058 -0.032044 -0.169183
45 20.090000 0.979999 -9.800000 0.037369 0.021660 1.623560
46 15.120002 0.000000 0.000000 0.000000 -0.000000 1.928986
47 20.370001 -1.119999 0.560000 -0.000000 0.000000 1.587769
48 19.530001 0.000000 0.000000 0.000000 -0.000000 1.991106
49 20.720003 1.400001 12.180000 -0.000000 0.000000 1.449133
50 18.130001 -0.000001 0.000000 0.000000 -0.000000 2.340474
51 7.420000 7.070000 9.589999 -2.604852 0.157724 1.357514
52 10.710000 -0.000001 0.000000 0.000000 -0.000000 0.942501
53 -17.516939 -5.111837 19.179998 -0.423956 -1.373934 -2.745100
54 -0.350000 0.700000 8.050000 -1.488007 -0.206316 -0.092363
55 18.410002 12.180000 -26.880001 -1.573005 0.559102 1.502940
56 37.730000 0.000000 0.000000 0.002048 0.198575 0.104204
57 32.059998 0.000000 0.000000 -0.036534 0.148886 0.090163
58 16.100000 -9.870001 18.059999 1.551874 -0.078769 -1.399244
59 16.170000 -12.670000 -9.730000 1.571556 -0.025013 -1.368671
60 19.670000 0.000000 -0.000001 -0.250766 0.914258 0.085276
61 40.950001 -0.000000 0.000000 0.000000 -0.000000 -1.081415
62 34.019997 -1.259998 -17.640001 -1.861163 0.023255 0.505638
63 26.389999 0.000000 0.000000 -0.122052 0.535134 -0.445172
64 43.820000 -0.000000 -0.000000 3.058449 -0.021236 -0.069217
65 20.090000 0.979999 9.800000 -0.037369 -0.021660 1.623560
66 15.120001 0.000000 0.000000 0.000000 -0.000000 1.928986
67 20.370001 -1.119999 -0.560000 0.000000 -0.000000 1.587769
68 19.530001 0.000000 0.000000 0.000000 -0.000000 1.991106
69 20.720001 1.400000 -12.180001 0.000000 -0.000000 1.449133
70 18.130003 0.000000 0.000000 0.000000 -0.000000 2.340474
71 7.420000 7.070001 -9.589999 2.604852 -0.157724 1.357514
72 10.710000 0.000000 0.000000 0.000000 -0.000000 0.942501
73 -1.260000 1.470000 0.000000 0.153475 -0.022831 -0.132572
time 1
0 0.000000 0.000000 0.000000 1.570796 -0.000000 0.000000
1 -17.807133 166.199982 -61.970089 2.256638 -1.364832 2.434343
2 35.633076 -68.701965 20.285355 0.414223 0.379449 -0.194912
3 0.000000 0.000000 49.770000 -0.000000 -1.570796 0.000000
4 49.840000 0.000000 0.000000 0.000000 -0.000000 0.000000
5 49.840000 0.000000 0.000000 0.000000 -0.000000 0.000000
6 49.840000 0.000000 0.000000 0.000000 -0.000000 0.000000
7 49.840000 0.000000 0.000000 0.000000 -0.000000 0.000000
8 49.840000 0.000000 0.000000 0.000000 -0.000000 0.000000
9 49.770000 0.000000 0.000000 0.000000 -0.000000 0.000000
10 27.869614 84.227417 19.015701 -0.787670 0.437578 0.750138
11 -0.000000 0.000000 49.840000 -0.000000 -1.570796 0.000000
12 49.980000 -0.000000 0.000000 0.000000 -0.000000 0.000000
13 49.770000 0.000000 0.000000 0.000000 -0.000000 0.000000
14 49.980000 0.000000 0.000000 0.000000 -0.000000 -0.000000
15 49.349998 0.000000 0.000000 0.000000 -0.000000 0.000000
16 50.049995 -0.000000 0.000000 0.000000 -0.000000 0.000000
17 50.259998 0.000000 -0.000000 0.000000 -0.000000 0.000000
18 -42.239594 -15.746669 77.968857 0.352556 -0.032331 1.726710
19 149.067627 -13.500628 -56.746269 1.634145 -0.297762 -1.571336
20 130.966324 29.292757 65.376381 1.570796 0.290001 -1.570796
21 52.451054 39.819187 137.821167 2.107872 -0.154576 -1.570661
22 -56.583672 43.822487 124.782837 0.838495 -0.158486 -1.566199
23 -128.912247 34.808731 64.928024 1.604462 0.142145 -1.570451
24 -127.148140 -13.433844 -57.528534 1.481637 -0.294480 -1.572093
25 -0.000000 0.000000 0.000000 -1.570796 -1.570796 0.000000
26 1.960000 22.259998 0.000000 3.136005 -0.193316 2.632607
27 13.860002 -25.129999 0.000000 3.048772 -0.094056 -2.433839
28 13.650000 -2.520000 23.590000 -1.402927 -0.643191 2.831625
29 13.650001 -2.520000 -23.590000 1.368319 0.395449 2.901875
30 17.360001 3.710000 -0.000000 -0.002771 -0.042190 0.147585
31 35.559998 0.000000 0.000000 0.029098 0.075125 0.121602
32 37.520000 0.000000 0.000000 0.020271 0.005881 0.088620
33 -17.648438 -4.785152 -19.179998 0.573410 1.372104 -2.667142
34 -0.350000 0.700000 -8.050000 1.516432 0.418540 -0.114020
35 18.480000 12.180000 26.880001 1.427417 -0.590758 1.896960
36 37.730000 0.000000 -0.000000 0.004495 0.053238 0.172438
37 32.059998 0.000000 -0.000000 0.043751 0.066335 0.112296
38 16.170000 -9.870001 -18.059999 -1.679485 0.286272 -1.562775
39 16.240000 -12.670000 9.730000 -1.545030 0.188743 -1.304219
40 19.670000 0.000000 -0.000001 -0.201202 -0.589143 0.443958
41 40.950001 -0.000000 0.000000 0.000000 -0.000000 -1.605915
42 34.019997 -1.259999 17.639999 3.089398 -0.428062 0.315619
43 26.389999 0.000000 0.000000 -0.130570 -0.771256 0.450172
44 43.820000 0.000000 0.000000 2.769448 -0.031931 -0.169228
45 20.090000 0.979999 -9.800000 0.037369 0.021660 1.623560
46 15.120002 0.000000 0.000000 0.000000 -0.000000 1.928986
47 20.370001 -1.119999 0.560000 -0.000000 0.000000 1.587769
48 19.530001 0.000000 0.000000 0.000000 -0.000000 1.991106
49 20.720003 1.400001 12.180000 -0.000000 0.000000 1.449133
50 18.130001 -0.000001 0.000000 0.000000 -0.000000 2.340474
51 7.420000 7.070000 9.589999 -2.604852 0.157724 1.357514
52 10.710000 -0.000001 0.000000 0.000000 -0.000000 0.942501
53 -17.827448 -4.158494 19.179998 -0.278135 -1.365314 -2.958659
54 -0.350000 0.700000 8.050000 -1.559013 -0.341810 0.066229
55 18.410002 12.180000 -26.880001 -1.351802 0.738256 1.796453
56 37.730000 0.000000 0.000000 0.012406 0.050081 0.156316
57 32.059998 0.000000 0.000000 0.037039 0.141093 -0.005348
58 16.100000 -9.870001 18.059999 1.621547 -0.273367 -1.281588
59 16.170000 -12.670000 -9.730000 1.643949 -0.145945 -1.258092
60 19.670000 0.000000 -0.000001 0.080918 0.769805 0.533702
61 40.950001 -0.000000 0.000000 0.000000 -0.000000 -1.353835
62 34.019997 -1.259998 -17.640001 -1.852654 0.085107 0.695393
63 26.389999 0.000000 0.000000 -0.209753 0.584950 -0.425025
64 43.820000 -0.000000 -0.000000 3.026538 -0.020517 -0.068981
65 20.090000 0.979999 9.800000 -0.037369 -0.021660 1.623560
66 15.120001 0.000000 0.000000 0.000000 -0.000000 1.928986
67 20.370001 -1.119999 -0.560000 0.000000 -0.000000 1.587769
68 19.530001 0.000000 0.000000 0.000000 -0.000000 1.991106
69 20.720001 1.400000 -12.180001 0.000000 -0.000000 1.449133
70 18.130003 0.000000 0.000000 0.000000 -0.000000 2.340474
71 7.420000 7.070001 -9.589999 2.604852 -0.157724 1.357514
72 10.710000 0.000000 0.000000 0.000000 -0.000000 0.942501
73 -1.260000 1.470000 0.000000 0.046355 -0.074376 -0.359458
time 2
0 0.000000 0.000000 0.000000 1.570796 -0.000000 0.000000
1 -14.556509 155.877350 -68.169601 2.333652 -1.385682 2.447048
2 32.481327 -65.932922 26.380157 0.270629 0.542586 -0.285638
3 0.000000 0.000000 49.770000 -0.000000 -1.570796 0.000000
4 49.840000 0.000000 0.000000 0.000000 -0.000000 0.000000
5 49.840000 0.000000 0.000000 0.000000 -0.000000 0.000000
6 49.840000 0.000000 0.000000 0.000000 -0.000000 0.000000
7 49.840000 0.000000 0.000000 0.000000 -0.000000 0.000000
8 49.840000 0.000000 0.000000 0.000000 -0.000000 0.000000
9 49.770000 0.000000 0.000000 0.000000 -0.000000 0.000000
10 11.085937 76.467377 7.499817 -0.760292 0.719529 0.913121
11 -0.000000 0.000000 49.840000 -0.000000 -1.570796 0.000000
12 49.980000 -0.000000 0.000000 0.000000 -0.000000 0.000000
13 49.770000 0.000000 0.000000 0.000000 -0.000000 0.000000
14 49.980000 0.000000 0.000000 0.000000 -0.000000 -0.000000
15 49.349998 0.000000 0.000000 0.000000 -0.000000 0.000000
16 50.049995 -0.000000 -0.000000 0.000000 -0.000000 0.000000
17 50.259998 0.000000 0.000000 0.000000 -0.000000 0.000000
18 -51.594360 -12.811380 78.790436 0.363147 0.054555 1.711873
19 150.709991 -3.608015 -29.611223 1.752562 -0.276599 -1.567858
20 127.484169 32.495853 70.896973 1.570692 0.367790 -1.570900
21 52.867863 36.521278 126.788467 2.174457 -0.143615 -1.566637
22 -43.450397 41.658119 120.789909 0.782216 -0.115917 -1.603217
23 -120.572716 34.745872 61.773758 1.621055 0.172044 -1.570282
24 -108.431015 -7.691222 -49.288979 1.449930 -0.271326 -1.574844
25 0.000000 0.000000 0.000000 -1.570796 -1.570796 0.000000
26 1.960000 22.259998 0.000000 3.100405 0.021983 2.765975
27 13.860002 -25.129999 0.000000 3.050004 0.035730 -2.570665
28 13.650000 -2.520000 23.590000 -1.485141 -0.495082 3.092402
29 13.650001 -2.520000 -23.590000 1.455067 0.421094 -3.124338
30 17.360001 3.710000 -0.000000 -0.003383 -0.098568 0.258848
31 35.559998 0.000000 0.000000 0.049741 -0.025426 0.256228
32 37.520000 0.000000 0.000000 0.026376 0.007062 0.113127
33 -17.672335 -4.623656 -19.179998 0.603404 1.371045 -2.661268
34 -0.350000 0.700000 -8.050000 1.512828 0.361229 0.049625
35 18.480000 12.180000 26.880001 1.365618 -0.651167 2.015856
36 37.730000 0.000000 -0.000000 -0.012774 0.067684 0.282087
37 32.059998 0.000000 -0.000000 -0.057991 0.047312 0.278228
38 16.170000 -9.870001 -18.059999 -1.608127 0.342680 -1.590226
39 16.240000 -12.670000 9.730000 -1.468175 0.180610 -1.379480
40 19.670000 0.000000 -0.000001 -0.300542 -0.654773 0.648855
41 40.950001 -0.000000 0.000000 0.000000 -0.000000 -1.713725
42 34.019997 -1.259999 17.639999 3.000081 -0.312742 0.463286
43 26.389999 0.000000 0.000000 -0.093470 -0.870535 0.386520
44 43.820000 0.000000 0.000000 2.770807 -0.031819 -0.169271
45 20.090000 0.979999 -9.800000 0.037369 0.021660 1.623560
46 15.120002 0.000000 0.000000 0.000000 -0.000000 1.928986
47 20.370001 -1.119999 0.560000 -0.000000 0.000000 1.587769
48 19.530001 0.000000 0.000000 0.000000 -0.000000 1.991106
49 20.720003 1.400001 12.180000 -0.000000 0.000000 1.449133
50 18.130001 -0.000001 0.000000 0.000000 -0.000000 2.340474
51 7.420000 7.070000 9.589999 -2.604852 0.157724 1.357514
52 10.710000 -0.000001 0.000000 0.000000 -0.000000 0.942501
53 -17.983534 -3.483075 19.179998 -0.228888 -1.364109 -3.031784
54 -0.350000 0.700000 8.050000 -1.506007 -0.304079 0.173343
55 18.410002 12.180000 -26.880001 -1.338646 0.857494 1.800324
56 37.730000 0.000000 0.000000 0.009393 -0.063754 0.398078
57 32.059998 0.000000 0.000000 0.079989 -0.007851 0.304147
58 16.100000 -9.870001 18.059999 1.600538 -0.276503 -1.143215
59 16.170000 -12.670000 -9.730000 1.546287 -0.149842 -1.219242
60 19.670000 0.000000 -0.000001 0.257104 0.781419 0.834633
61 40.950001 -0.000000 0.000000 0.000000 -0.000000 -1.502483
62 34.019997 -1.259998 -17.640001 -1.805942 -0.070597 0.771253
63 26.389999 0.000000 0.000000 -0.285122 0.573974 -0.562210
64 43.820000 -0.000000 -0.000000 3.010921 -0.020722 -0.068923
65 20.090000 0.979999 9.800000 -0.037369 -0.021660 1.623560
66 15.120001 0.000000 0.000000 0.000000 -0.000000 1.928986
67 20.370001 -1.119999 -0.560000 0.000000 -0.000000 1.587769
68 19.530001 0.000000 0.000000 0.000000 -0.000000 1.991106
69 20.720001 1.400000 -12.180001 0.000000 -0.000000 1.449133
70 18.130003 0.000000 0.000000 0.000000 -0.000000 2.340474
71 7.420000 7.070001 -9.589999 2.604852 -0.157724 1.357514
72 10.710000 0.000000 0.000000 0.000000 -0.000000 0.942501
73 -1.260000 1.470000 0.000000 -0.059391 -0.055219 -0.561327
time 3
0 0.000000 0.000000 0.000000 1.570796 -0.000000 0.000000
1 -10.959940 146.988632 -74.246880 2.413044 -1.410718 2.457514
2 30.976532 -61.926636 30.865662 0.138279 0.668225 -0.417015
3 0.000000 0.000000 49.770000 -0.000000 -1.570796 0.000000
4 49.840000 0.000000 0.000000 0.000000 -0.000000 0.000000
5 49.840000 0.000000 0.000000 0.000000 -0.000000 0.000000
6 49.840000 0.000000 0.000000 0.000000 -0.000000 0.000000
7 49.840000 0.000000 0.000000 0.000000 -0.000000 0.000000
8 49.840000 0.000000 0.000000 0.000000 -0.000000 0.000000
9 49.770000 0.000000 0.000000 0.000000 -0.000000 0.000000
10 1.388389 68.169403 1.927994 -0.710260 0.876217 1.089945
11 -0.000000 0.000000 49.840000 -0.000000 -1.570796 0.000000
12 49.980000 -0.000000 0.000000 0.000000 -0.000000 0.000000
13 49.770000 0.000000 0.000000 0.000000 -0.000000 0.000000
14 49.980000 0.000000 0.000000 0.000000 -0.000000 -0.000000
15 49.349998 0.000000 0.000000 0.000000 -0.000000 0.000000
16 50.049995 -0.000000 -0.000000 0.000000 -0.000000 0.000000
17 50.259998 0.000000 0.000000 0.000000 -0.000000 0.000000
18 -61.109882 -8.101210 67.940582 0.371813 0.143674 1.694203
19 114.296738 1.441429 -38.187958 1.737401 -0.204871 -1.556084
20 104.733749 34.985752 55.969810 1.567362 0.410301 -1.574231
21 41.393139 28.261635 97.903595 2.213436 -0.086138 -1.544418
22 -12.225304 34.488476 96.857445 0.816828 0.065769 -1.766114
23 -97.026825 35.202591 36.318020 1.634047 0.199618 -1.570179
24 -93.556229 8.218781 -45.761169 1.826952 -0.125990 -1.599144
25 0.000000 0.000000 0.000000 -1.570796 -1.570796 0.000000
26 1.960000 22.259998 0.000000 3.068967 0.215482 2.945858
27 13.860002 -25.129999 0.000000 3.054857 0.135731 -2.718701
28 13.650000 -2.520000 23.590000 -1.594138 -0.329581 -2.976037
29 13.650001 -2.520000 -23.590000 1.560327 0.431501 -2.876717
30 17.360001 3.710000 -0.000000 -0.003215 -0.155956 0.352204
31 35.559998 0.000000 0.000000 0.049849 -0.123561 0.366998
32 37.520000 0.000000 0.000000 0.018317 0.004227 0.075608
33 -17.660725 -4.605071 -19.179998 0.557119 1.372518 -2.668166
34 -0.350000 0.700000 -8.050000 1.505428 0.289923 0.228325
35 18.480000 12.180000 26.880001 1.318448 -0.700057 2.105532
36 37.730000 0.000000 -0.000000 -0.007933 0.048157 0.142491
37 32.059998 0.000000 -0.000000 -0.057951 0.100676 0.228278
38 16.170000 -9.870001 -18.059999 -1.507562 0.358302 -1.610176
39 16.240000 -12.670000 9.730000 -1.365398 0.164891 -1.458123
40 19.670000 0.000000 -0.000001 -0.461422 -0.769065 0.867456
41 40.950001 -0.000000 0.000000 0.000000 0.000000 -1.814468
42 34.019997 -1.259999 17.639999 2.955605 -0.290153 0.572441
43 26.389999 0.000000 0.000000 -0.023899 -0.912980 0.244191
44 43.820000 0.000000 0.000000 2.771928 -0.031728 -0.169307
45 20.090000 0.979999 -9.800000 0.037369 0.021660 1.623560
46 15.120002 0.000000 0.000000 0.000000 -0.000000 1.928986
47 20.370001 -1.119999 0.560000 -0.000000 0.000000 1.587769
48 19.530001 0.000000 0.000000 0.000000 -0.000000 1.991107
49 20.720003 1.400001 12.180000 -0.000000 0.000000 1.449133
50 18.130001 -0.000001 0.000000 0.000000 -0.000000 2.340474
51 7.420000 7.070000 9.589999 -2.604852 0.157724 1.357514
52 10.710000 -0.000001 0.000000 0.000000 -0.000000 0.942501
53 -17.966328 -3.621927 19.179998 -0.309449 -1.369168 -2.914005
54 -0.350000 0.700000 8.050000 -1.449513 -0.263405 0.274647
55 18.410002 12.180000 -26.880001 -1.327684 0.959457 1.818636
56 37.730000 0.000000 0.000000 0.010670 -0.128829 0.269903
57 32.059998 0.000000 0.000000 0.098077 -0.114632 0.322343
58 16.100000 -9.870001 18.059999 1.557986 -0.278451 -1.004572
59 16.170000 -12.670000 -9.730000 1.425093 -0.138771 -1.185530
60 19.670000 0.000000 -0.000001 0.378915 0.878587 1.057511
61 40.950001 -0.000000 0.000000 0.000000 -0.000000 -1.630402
62 34.019997 -1.259998 -17.640001 -1.806882 0.089925 0.876760
63 26.389999 0.000000 0.000000 -0.244652 0.561955 -0.627293
64 43.820000 -0.000000 -0.000000 3.027365 -0.022047 -0.069212
65 20.090000 0.979999 9.800000 -0.037369 -0.021660 1.623560
66 15.120001 0.000000 0.000000 0.000000 -0.000000 1.928986
67 20.370001 -1.119999 -0.560000 0.000000 -0.000000 1.587769
68 19.530001 0.000000 0.000000 0.000000 -0.000000 1.991107
69 20.720001 1.400000 -12.180001 0.000000 -0.000000 1.449133
70 18.130003 0.000000 0.000000 0.000000 -0.000000 2.340474
71 7.420000 7.070001 -9.589999 2.604852 -0.157724 1.357514
72 10.710000 0.000000 0.000000 0.000000 -0.000000 0.942501
73 -1.260000 1.470000 0.000000 -0.164517 -0.005526 -0.652204
time 4
0 0.000000 0.000000 0.000000 1.570796 -0.000000 0.000000
1 12.163636 258.449890 -104.335342 -0.810698 -1.259753 -0.341598
2 24.529099 -66.648193 35.840424 0.458421 0.260115 -0.729686
3 0.000000 0.000000 49.770000 -0.000000 -1.570796 0.000000
4 49.840000 0.000000 0.000000 0.000000 -0.000000 0.000000
5 49.840000 0.000000 0.000000 0.000000 -0.000000 0.000000
6 49.840000 0.000000 0.000000 0.000000 -0.000000 0.000000
7 49.840000 0.000000 0.000000 0.000000 -0.000000 0.000000
8 49.840000 0.000000 0.000000 0.000000 -0.000000 0.000000
9 49.770000 0.000000 0.000000 0.000000 -0.000000 0.000000
10 2.073087 70.784515 -2.793854 -0.926703 0.613859 1.058702
11 -0.000000 0.000000 49.840000 -0.000000 -1.570796 0.000000
12 49.980000 -0.000000 0.000000 0.000000 -0.000000 0.000000
13 49.770000 0.000000 0.000000 0.000000 -0.000000 0.000000
14 49.980000 0.000000 0.000000 0.000000 -0.000000 -0.000000
15 49.349998 0.000000 0.000000 0.000000 -0.000000 0.000000
16 50.049995 -0.000000 -0.000000 0.000000 -0.000000 0.000000
17 50.259998 0.000000 0.000000 0.000000 -0.000000 0.000000
18 -42.677555 -14.250817 -33.271622 0.045305 0.480556 1.356688
19 107.836937 4.324284 -30.385508 1.732485 -0.215954 -1.544800
20 108.865295 38.193127 68.774475 1.565323 0.430553 -1.576270
21 41.166573 33.188431 124.641586 2.216768 -0.083249 -1.551664
22 -35.472778 38.100960 115.331322 0.900338 0.116791 -1.823062
23 -107.205513 41.374046 57.342308 1.639167 0.220698 -1.570940
24 -93.224869 8.503967 -46.147579 1.721631 -0.107198 -1.601282
25 0.000000 0.000000 0.000000 -1.570796 -1.570796 0.000000
26 1.960000 22.259998 0.000000 3.107116 0.224139 3.096483
27 13.860002 -25.129999 0.000000 -3.000274 0.127301 -2.821292
28 13.650000 -2.520000 23.590000 -1.730035 -0.256613 -3.030386
29 13.650001 -2.520000 -23.590000 1.634549 0.437119 -3.070898
30 17.360001 3.710000 -0.000000 0.030098 -0.227585 0.110713
31 35.559998 0.000000 0.000000 0.039671 -0.179901 0.122344
32 37.520000 0.000000 0.000000 -0.110579 -0.069390 -0.546179
33 -13.219387 -11.654543 -19.754391 -0.296820 1.386697 -2.884098
34 -0.350000 0.700000 -8.050000 1.438907 0.148931 0.356352
35 18.480000 12.180000 26.880001 1.419162 -0.654051 1.872816
36 37.730000 0.000000 -0.000000 0.081918 -0.195205 -0.121935
37 32.059998 0.000000 -0.000000 0.125200 -0.108982 0.047090
38 16.170000 -9.870001 -18.059999 -1.504356 0.297458 -1.504724
39 16.240000 -12.670000 9.730000 -1.355956 0.061611 -1.369519
40 19.670000 0.000000 -0.000001 -0.691142 -1.052857 1.312096
41 40.950001 -0.000000 0.000000 0.000000 -0.000000 -1.497249
42 34.019997 -1.259999 17.639999 2.814447 -0.176797 0.967460
43 26.389999 0.000000 0.000000 0.152039 -0.706618 -0.029273
44 43.820000 0.000000 0.000000 2.772607 -0.031672 -0.169329
45 20.090000 0.979999 -9.800000 0.037369 0.021660 1.623560
46 15.120002 0.000000 0.000000 0.000000 -0.000000 1.928986
47 20.370001 -1.119999 0.560000 -0.000000 0.000000 1.587769
48 19.530001 0.000000 0.000000 0.000000 -0.000000 1.991106
49 20.720003 1.400001 12.180000 -0.000000 0.000000 1.449133
50 18.130001 -0.000001 0.000000 0.000000 -0.000000 2.340474
51 7.420000 7.070000 9.589999 -2.604852 0.157724 1.357514
52 10.710000 -0.000001 0.000000 0.000000 -0.000000 0.942501
53 -10.632648 -15.883880 18.295713 -1.188345 -1.287473 -1.418479
54 -0.350000 0.700000 8.050000 -1.358841 -0.165174 0.166185
55 18.410002 12.180000 -26.880001 -1.327594 0.920258 1.969206
56 37.730000 0.000000 0.000000 0.092342 -0.115774 -0.099375
57 32.059998 0.000000 0.000000 0.248385 -0.118146 -0.006828
58 16.100000 -9.870001 18.059999 1.514437 -0.294030 -0.873898
59 16.170000 -12.670000 -9.730000 1.405119 -0.168795 -1.090805
60 19.670000 0.000000 -0.000001 0.319694 0.888299 1.188974
61 40.950001 -0.000000 0.000000 0.000000 -0.000000 -1.735687
62 34.019997 -1.259998 -17.640001 -1.663292 0.539533 1.245478
63 26.389999 0.000000 0.000000 0.251838 0.198102 -0.069226
64 43.820000 -0.000000 -0.000000 -2.998402 -0.022359 -0.069284
65 20.090000 0.979999 9.800000 -0.037369 -0.021660 1.623560
66 15.120001 0.000000 0.000000 0.000000 -0.000000 1.928986
67 20.370001 -1.119999 -0.560000 0.000000 -0.000000 1.587769
68 19.530001 0.000000 0.000000 0.000000 -0.000000 1.991106
69 20.720001 1.400000 -12.180001 0.000000 -0.000000 1.449133
70 18.130003 0.000000 0.000000 0.000000 -0.000000 2.340474
71 7.420000 7.070001 -9.589999 2.604852 -0.157724 1.357514
72 10.710000 0.000000 0.000000 0.000000 -0.000000 0.942501
73 -1.260000 1.470000 0.000000 -0.108973 0.054216 0.134535
time 5
0 0.000000 0.000000 0.000000 1.570796 -0.000000 0.000000
1 12.726977 276.346527 -85.029640 -0.489490 -0.498820 -0.405945
2 14.340616 -85.697205 64.272781 0.573235 -0.290981 -0.838506
3 0.000000 0.000000 49.770000 -0.000000 -1.570796 0.000000
4 49.840000 0.000000 0.000000 0.000000 -0.000000 0.000000
5 49.840000 0.000000 0.000000 0.000000 -0.000000 0.000000
6 49.840000 0.000000 0.000000 0.000000 -0.000000 0.000000
7 49.840000 0.000000 0.000000 0.000000 -0.000000 0.000000
8 49.840000 0.000000 0.000000 0.000000 -0.000000 0.000000
9 49.770000 0.000000 0.000000 0.000000 -0.000000 0.000000
10 0.336729 97.720062 4.217804 -0.720370 -0.087250 1.177674
11 -0.000000 0.000000 49.840000 -0.000000 -1.570796 0.000000
12 49.980000 -0.000000 0.000000 0.000000 -0.000000 0.000000
13 49.770000 0.000000 0.000000 0.000000 -0.000000 0.000000
14 49.980000 0.000000 0.000000 0.000000 -0.000000 -0.000000
15 49.349998 0.000000 0.000000 0.000000 -0.000000 0.000000
16 50.049995 -0.000000 -0.000000 0.000000 -0.000000 0.000000
17 50.259998 0.000000 0.000000 0.000000 -0.000000 0.000000
18 -43.703270 -7.837542 -48.887558 -0.524443 0.406861 1.245304
19 107.280823 -20.490192 -28.606735 1.739630 -0.315553 -1.537616
20 98.789192 3.324297 73.691635 1.573845 0.430571 -1.568128
21 35.020504 18.147648 125.701279 2.175472 -0.151036 -1.594422
22 -34.663391 35.389961 114.407661 0.976846 0.090805 -1.788221
23 -106.724335 38.085144 56.281059 1.570225 0.209084 -1.568427
24 -94.559097 6.387450 -45.612625 1.714795 -0.113286 -1.601322
25 0.000000 0.000000 0.000000 -1.570796 -1.570796 0.000000
26 1.960000 22.259998 0.000000 3.022696 0.395830 2.976335
27 13.860002 -25.129999 0.000000 3.136351 0.463825 -2.778500
28 13.650000 -2.520000 23.590000 -1.415013 -0.265224 2.881644
29 13.650001 -2.520000 -23.590000 1.639673 0.662426 -3.055079
30 17.360001 3.710000 -0.000000 0.111902 -0.252835 -0.246451
31 35.559998 0.000000 0.000000 0.107136 -0.208255 -0.255809
32 37.520000 0.000000 0.000000 -0.174256 -0.257855 -1.381935
33 -2.257096 -14.623010 -22.052553 -1.340015 1.363601 -3.065920
34 -0.350000 0.700000 -8.050000 1.535628 0.179056 0.405400
35 18.480000 12.180000 26.880001 1.656634 -0.506762 1.433821
36 37.730000 0.000000 -0.000000 -0.011800 -0.002237 -0.465628
37 32.059998 0.000000 -0.000000 0.236325 -0.153306 -0.393438
38 16.170000 -9.870001 -18.059999 -1.536053 0.091553 -1.195671
39 16.240000 -12.670000 9.730000 -1.406347 -0.107852 -1.171850
40 19.670000 0.000000 -0.000001 -0.167373 -0.760802 1.001812
41 40.950001 -0.000000 0.000000 0.000000 -0.000000 -1.250061
42 34.019997 -1.259999 17.639999 2.566293 -0.518808 1.433302
43 26.389999 0.000000 0.000000 0.673634 -0.659882 -0.625682
44 43.820000 0.000000 0.000000 2.767869 -0.032105 -0.169159
45 20.090000 0.979999 -9.800000 0.037369 0.021660 1.623560
46 15.120002 0.000000 0.000000 0.000000 -0.000000 1.928986
47 20.370001 -1.119999 0.560000 -0.000000 0.000000 1.587769
48 19.530001 0.000000 0.000000 0.000000 -0.000000 1.991106
49 20.720003 1.400001 12.180000 -0.000000 0.000000 1.449133
50 18.130001 -0.000001 0.000000 0.000000 -0.000000 2.340474
51 7.420000 7.070000 9.589999 -2.604852 0.157724 1.357514
52 10.710000 -0.000001 0.000000 0.000000 -0.000000 0.942501
53 7.767750 -21.038368 14.365511 -1.439787 -1.030841 -0.264018
54 -0.350000 0.700000 8.050000 -1.115496 -0.308761 0.034957
55 18.410002 12.180000 -26.880001 -1.345297 0.642846 2.222506
56 37.730000 0.000000 0.000000 0.029237 -0.038961 -0.033444
57 32.059998 0.000000 0.000000 0.272923 -0.179996 -0.091389
58 16.100000 -9.870001 18.059999 1.479918 -0.383423 -0.776858
59 16.170000 -12.670000 -9.730000 1.413086 -0.221610 -0.983186
60 19.670000 0.000000 -0.000001 -0.126871 0.716624 0.676652
61 40.950001 -0.000000 0.000000 0.000000 -0.000000 -1.660864
62 34.019997 -1.259998 -17.640001 -1.647743 0.509594 1.620193
63 26.389999 0.000000 0.000000 0.237157 -0.198317 -0.068525
64 43.820000 -0.000000 -0.000000 -2.547352 -0.021982 -0.069808
65 20.090000 0.979999 9.800000 -0.037369 -0.021660 1.623560
66 15.120001 0.000000 0.000000 0.000000 -0.000000 1.928986
67 20.370001 -1.119999 -0.560000 0.000000 -0.000000 1.587769
68 19.530001 0.000000 0.000000 0.000000 -0.000000 1.991106
69 20.720001 1.400000 -12.180001 0.000000 -0.000000 1.449133
70 18.130003 0.000000 0.000000 0.000000 -0.000000 2.340474
71 7.420000 7.070001 -9.589999 2.604852 -0.157724 1.357514
72 10.710000 0.000000 0.000000 0.000000 -0.000000 0.942501
73 -1.260000 1.470000 0.000000 -0.114919 0.009013 1.077022
time 6
0 0.000000 0.000000 0.000000 1.570796 -0.000000 0.000000
1 -4.339996 56.419998 -26.670002 0.292788 -0.417549 -2.968144
2 17.990000 -54.250061 -25.620041 1.688042 1.094808 0.305832
3 0.000000 0.000000 49.770000 -0.000000 -1.570796 0.000000
4 49.840000 0.000000 0.000000 0.000000 -0.000000 0.000000
5 49.840000 0.000000 0.000000 0.000000 -0.000000 0.000000
6 49.840000 0.000000 0.000000 0.000000 -0.000000 0.000000
7 49.840000 0.000000 0.000000 0.000000 -0.000000 0.000000
8 49.840000 0.000000 0.000000 0.000000 -0.000000 0.000000
9 49.770000 0.000000 0.000000 0.000000 -0.000000 0.000000
10 4.550010 92.050018 97.790016 2.457882 0.376748 1.360622
11 -0.000000 0.000000 49.840000 -0.000000 -1.570796 0.000000
12 49.980000 -0.000000 0.000000 0.000000 -0.000000 0.000000
13 49.770000 0.000000 0.000000 0.000000 -0.000000 0.000000
14 49.980000 0.000000 0.000000 0.000000 -0.000000 -0.000000
15 49.349998 0.000000 0.000000 0.000000 -0.000000 0.000000
16 50.049995 -0.000000 -0.000000 0.000000 -0.000000 0.000000
17 50.259998 0.000000 0.000000 0.000000 -0.000000 0.000000
18 -55.369995 -75.040001 35.559998 0.270388 -0.282859 1.917814
19 142.310013 82.040031 -23.659979 1.582723 -0.097203 -1.548343
20 126.070007 41.090038 115.500031 2.053577 0.202535 -1.075242
21 35.279995 -44.729980 203.770050 2.296841 -0.077922 -1.019852
22 -69.860016 -85.750015 177.099991 0.587701 0.276591 -1.244554
23 -178.850006 -63.630016 76.860001 0.876277 0.241193 -1.254435
24 -176.050018 -47.250031 -47.669987 1.501966 0.189284 -1.490867
25 0.000000 0.000000 0.000000 -1.570796 -1.570796 0.000000
26 1.960000 22.259998 0.000000 -3.080598 0.382390 2.939063
27 13.860002 -25.129999 0.000000 -3.130881 0.328061 -2.324980
28 13.650000 -2.520000 23.590000 -2.063949 -0.397166 -2.522330
29 13.650001 -2.520000 -23.590000 1.687189 0.498579 -2.775625
30 17.360001 3.710000 -0.000000 0.137177 0.210969 0.517704
31 35.559998 0.000000 0.000000 0.162012 0.248504 0.474936
32 37.520000 0.000000 0.000000 -0.006117 0.003064 -0.000087
33 -17.365185 -5.467779 -19.268148 0.451247 1.380637 -2.698875
34 -0.350000 0.700000 -8.050000 1.778666 0.096471 0.316019
35 18.480000 12.180000 26.880001 1.444614 -0.692066 2.450737
36 37.730000 0.000000 -0.000000 -0.132246 -1.023748 -0.278965
37 32.059998 0.000000 -0.000000 -1.013020 -0.932581 -0.691614
38 16.170000 -9.870001 -18.059999 -1.539863 -0.065852 -1.349175
39 16.240000 -12.670000 9.730000 -1.362031 -0.266835 -1.319389
40 19.670000 0.000000 -0.000001 -0.103673 -0.678950 0.339356
41 40.950001 -0.000000 0.000000 0.000000 -0.000000 -1.451956
42 34.019997 -1.259999 17.639999 2.768919 0.494655 0.505259
43 26.389999 0.000000 0.000000 0.763627 -1.012362 -0.368259
44 43.820000 0.000000 0.000000 -2.941794 -0.031533 -0.168274
45 20.090000 0.979999 -9.800000 0.037369 0.021660 1.623560
46 15.120002 0.000000 0.000000 0.000000 -0.000000 1.928986
47 20.370001 -1.119999 0.560000 -0.000000 0.000000 1.587769
48 19.530001 0.000000 0.000000 0.000000 -0.000000 1.991106
49 20.720003 1.400001 12.180000 -0.000000 0.000000 1.449133
50 18.130001 -0.000001 0.000000 0.000000 -0.000000 2.340474
51 7.420000 7.070000 9.589999 -2.604852 0.157724 1.357514
52 10.710000 -0.000001 0.000000 0.000000 -0.000000 0.942501
53 -17.471481 -5.708889 19.094446 -1.496050 -0.669822 -1.687955
54 -0.350000 0.700000 8.050000 -1.520850 -0.317286 -0.327453
55 18.410002 12.180000 -26.880001 -1.525960 0.002371 2.052321
56 37.730000 0.000000 0.000000 -0.064673 -0.165322 -0.682578
57 32.059998 0.000000 0.000000 -0.635833 -0.065830 -0.480544
58 16.100000 -9.870001 18.059999 1.521862 -0.248263 -0.710484
59 16.170000 -12.670000 -9.730000 1.497599 -0.089116 -1.032775
60 19.670000 0.000000 -0.000001 0.133534 0.329209 -0.360220
61 40.950001 -0.000000 0.000000 0.000000 -0.000000 -1.112746
62 34.019997 -1.259998 -17.640001 -1.821080 0.242146 2.009461
63 26.389999 0.000000 0.000000 -0.205880 -0.538563 -0.522511
64 43.820000 -0.000000 -0.000000 -1.471832 0.144973 -0.144828
65 20.090000 0.979999 9.800000 -0.037369 -0.021660 1.623560
66 15.120001 0.000000 0.000000 0.000000 -0.000000 1.928986
67 20.370001 -1.119999 -0.560000 0.000000 -0.000000 1.587769
68 19.530001 0.000000 0.000000 0.000000 -0.000000 1.991106
69 20.720001 1.400000 -12.180001 0.000000 -0.000000 1.449133
70 18.130003 0.000000 0.000000 0.000000 -0.000000 2.340474
71 7.420000 7.070001 -9.589999 2.604852 -0.157724 1.357514
72 10.710000 0.000000 0.000000 0.000000 -0.000000 0.942501
73 -1.260000 1.470000 0.000000 0.551267 0.151767 -0.703313
time 7
0 0.000000 0.000000 0.000000 1.570796 -0.000000 0.000000
1 -2.109731 91.455666 -14.341912 0.251035 -0.484303 -2.506414
2 -10.649191 -56.337280 5.317719 0.535034 1.211565 -1.166774
3 0.000000 0.000000 49.770000 -0.000000 -1.570796 0.000000
4 49.840000 0.000000 0.000000 0.000000 -0.000000 0.000000
5 49.840000 -0.000000 0.000000 0.000000 -0.000000 0.000000
6 49.840000 0.000000 0.000000 0.000000 -0.000000 0.000000
7 49.840000 -0.000000 0.000000 0.000000 -0.000000 0.000000
8 49.840000 0.000000 -0.000000 0.000000 -0.000000 0.000000
9 49.770000 0.000000 0.000000 0.000000 -0.000000 0.000000
10 52.894367 115.461792 57.414688 2.302653 0.499843 0.888847
11 -0.000000 0.000000 49.840000 -0.000000 -1.570796 0.000000
12 49.980000 -0.000000 0.000000 0.000000 -0.000000 0.000000
13 49.770000 0.000000 0.000000 0.000000 -0.000000 0.000000
14 49.980000 0.000000 -0.000000 0.000000 -0.000000 -0.000000
15 49.349998 0.000000 0.000000 0.000000 -0.000000 0.000000
16 50.049995 -0.000000 -0.000000 0.000000 -0.000000 0.000000
17 50.259998 0.000000 0.000000 0.000000 -0.000000 0.000000
18 -75.773117 -2.787777 27.886971 0.576407 -0.110733 1.324779
19 128.829559 114.723152 -23.576830 1.747206 0.157102 -0.802117
20 104.182693 112.021347 119.272400 2.341185 -0.003213 -0.765263
21 36.814095 59.771690 214.973267 2.653843 -0.030374 -0.688507
22 -74.955376 -27.665033 235.524750 0.364846 0.382835 -0.916959
23 -176.705078 -51.311855 147.896851 0.493103 0.250839 -1.052744
24 -213.692245 -83.350258 8.602753 1.036843 -0.158100 -0.719438
25 0.000000 0.000000 0.000000 0.062370 -1.464499 -1.633169
26 1.960000 22.259998 0.000000 2.784750 0.478318 2.660948
27 13.860002 -25.129999 0.000000 3.025183 0.028838 -2.522031
28 13.650000 -2.520000 23.590000 -2.040991 -0.500621 -2.870354
29 13.650001 -2.520000 -23.590000 1.562485 0.345349 -3.031343
30 17.293322 3.710000 1.754795 -0.097373 -0.091082 0.543112
31 35.559998 0.000000 0.000000 -0.025486 0.215741 0.472555
32 37.520000 0.000000 0.000000 -0.036299 0.018231 -0.000526
33 -17.101107 -5.002819 -19.578121 1.116809 1.212376 -2.056000
34 -0.350000 0.700000 -8.050000 1.818985 -0.013206 0.114529
35 18.480000 12.180000 26.880001 1.501954 -0.559421 2.125868
36 37.730000 0.000000 -0.000000 0.040017 0.101060 0.017051
37 32.059998 0.000000 -0.000000 -0.274743 -0.050881 -0.108230
38 16.170000 -9.870001 -18.059999 -1.497015 -0.072628 -1.727057
39 16.240000 -12.670000 9.730000 -1.277162 -0.335435 -1.597750
40 19.670000 0.000000 -0.000001 -0.492818 -0.946943 0.506441
41 40.950001 -0.000000 0.000000 0.000000 -0.000000 -1.402544
42 34.019997 -1.259999 17.639999 2.994238 -0.563068 0.386761
43 26.389999 0.000000 0.000000 -0.231549 -0.748449 0.386868
44 43.820000 0.000000 0.000000 -3.023307 -0.031392 -0.168094
45 20.090000 0.979999 -9.800000 0.037369 0.021660 1.623560
46 15.120002 0.000000 0.000000 0.000000 -0.000000 1.928986
47 20.370001 -1.119999 0.560000 -0.000000 0.000000 1.587769
48 19.530001 0.000000 0.000000 0.000000 -0.000000 1.991106
49 20.720003 1.400001 12.180000 -0.000000 0.000000 1.449133
50 18.130001 -0.000001 0.000000 0.000000 -0.000000 2.340474
51 7.420000 7.070000 9.589999 -2.604852 0.157724 1.357514
52 10.710000 -0.000001 0.000000 0.000000 -0.000000 0.942501
53 -17.683741 -6.124992 18.724236 -1.504351 -0.570231 -1.675809
54 -0.350000 0.700000 8.050000 -1.218131 -0.530270 -0.631844
55 18.410002 12.180000 -26.880001 -1.661220 0.419224 1.877781
56 37.730000 0.000000 0.000000 0.000645 -0.135845 0.049093
57 32.059998 0.000000 0.000000 -0.197095 -0.295998 -0.060788
58 16.100000 -9.870001 18.059999 1.605610 0.009448 -0.729064
59 16.170000 -12.670000 -9.730000 1.698580 0.128878 -1.283893
60 19.670000 0.000000 -0.000001 0.106136 -0.032734 -0.689109
61 40.950001 -0.000000 0.000000 0.000000 -0.000000 -0.999416
62 34.019997 -1.259998 -17.640001 -1.774805 0.311978 1.355280
63 26.389999 0.000000 0.000000 -0.211701 -0.356833 -0.342446
64 43.820000 -0.000000 -0.000000 -1.745543 -0.117345 0.012034
65 20.090000 0.979999 9.800000 -0.037369 -0.021660 1.623560
66 15.120001 0.000000 0.000000 0.000000 -0.000000 1.928986
67 20.370001 -1.119999 -0.560000 0.000000 -0.000000 1.587769
68 19.530001 0.000000 0.000000 0.000000 -0.000000 1.991106
69 20.720001 1.400000 -12.180001 0.000000 -0.000000 1.449133
70 18.130003 0.000000 0.000000 0.000000 -0.000000 2.340474
71 7.420000 7.070001 -9.589999 2.604852 -0.157724 1.357514
72 10.710000 0.000000 0.000000 0.000000 -0.000000 0.942501
73 -1.260000 1.470000 -0.000000 0.596160 0.404518 -0.397981
time 8
0 0.000000 0.000000 0.000000 1.570796 -0.000000 0.000000
1 -5.056497 79.157585 -17.936584 0.264796 -0.519840 -2.699216
2 -15.412973 -65.486877 2.668472 0.662019 1.107071 -1.278046
3 0.000000 0.000000 49.770000 -0.000000 -1.570796 0.000000
4 49.840000 0.000000 0.000000 0.000000 -0.000000 0.000000
5 49.840000 0.000000 0.000000 0.000000 -0.000000 0.000000
6 49.840000 0.000000 0.000000 0.000000 -0.000000 0.000000
7 49.840000 0.000000 0.000000 0.000000 -0.000000 0.000000
8 49.840000 0.000000 0.000000 0.000000 -0.000000 0.000000
9 49.770000 0.000000 0.000000 0.000000 -0.000000 0.000000
10 34.683655 110.161041 73.072357 2.438066 0.475364 1.099438
11 -0.000000 0.000000 49.840000 -0.000000 -1.570796 0.000000
12 49.980000 -0.000000 0.000000 0.000000 -0.000000 0.000000
13 49.770000 0.000000 0.000000 0.000000 -0.000000 0.000000
14 49.980000 0.000000 0.000000 0.000000 -0.000000 -0.000000
15 49.349998 0.000000 0.000000 0.000000 -0.000000 0.000000
16 50.049995 -0.000000 -0.000000 0.000000 -0.000000 0.000000
17 50.259998 0.000000 0.000000 0.000000 -0.000000 0.000000
18 -76.686249 -14.023600 62.767838 0.587639 -0.247334 1.387037
19 118.814888 75.251907 -30.100311 1.679788 0.021560 -0.962658
20 98.008110 66.625679 91.684509 1.998991 -0.070382 -0.925870
21 43.265472 27.380993 177.677933 2.323003 -0.137014 -0.857718
22 -56.965496 -40.364212 202.637299 0.766042 0.186562 -1.118619
23 -143.998383 -63.938152 124.907608 0.900305 0.093194 -1.100873
24 -187.857117 -81.822792 -17.587099 1.179846 -0.156107 -0.920269
25 0.000000 0.000000 0.000000 -3.141593 -1.524362 1.570801
26 1.960000 22.259998 0.000000 2.961998 0.037030 2.722366
27 13.860002 -25.129999 0.000000 3.044055 -0.226591 -2.541680
28 13.650000 -2.520000 23.590000 -1.847826 -0.649190 -2.999658
29 13.650001 -2.520000 -23.590000 1.575539 0.370298 -3.112391
30 17.350412 3.710000 -0.881507 0.053464 0.134159 0.560936
31 35.559998 0.000000 0.000000 -0.146189 0.226962 0.315685
32 37.520000 0.000000 0.000000 -0.056582 0.028203 -0.000747
33 -17.069544 -4.886231 -19.655846 0.780467 1.318094 -2.379435
34 -0.350000 0.700000 -8.050000 1.699138 0.252081 0.093269
35 18.480000 12.180000 26.880001 1.822028 -0.486146 1.701641
36 37.730000 0.000000 -0.000000 -0.027541 0.255883 0.059455
37 32.059998 0.000000 -0.000000 -0.106123 0.287631 0.005808
38 16.170000 -9.870001 -18.059999 -1.416178 0.203873 -1.444529
39 16.240000 -12.670000 9.730000 -1.380322 -0.338780 -1.172865
40 19.670000 0.000000 -0.000001 -0.368795 -0.886631 0.643625
41 40.950001 -0.000000 0.000000 0.000000 -0.000000 -1.348091
42 34.019997 -1.259999 17.639999 2.824344 -0.297286 0.855265
43 26.389999 0.000000 0.000000 -0.192361 -0.899250 0.351339
44 43.820000 0.000000 0.000000 -2.875317 -0.032971 -0.169614
45 20.090000 0.979999 -9.800000 0.037369 0.021660 1.623560
46 15.120002 0.000000 0.000000 0.000000 -0.000000 1.928986
47 20.370001 -1.119999 0.560000 -0.000000 0.000000 1.587769
48 19.530001 0.000000 0.000000 0.000000 -0.000000 1.991106
49 20.720003 1.400001 12.180000 -0.000000 0.000000 1.449133
50 18.130001 -0.000001 0.000000 0.000000 -0.000000 2.340474
51 7.420000 7.070000 9.589999 -2.604852 0.157724 1.357514
52 10.710000 -0.000001 0.000000 0.000000 -0.000000 0.942501
53 -17.751556 -6.236624 18.658760 -1.494532 -0.596037 -1.682962
54 -0.350000 0.700000 8.050000 -1.342366 -0.576440 -0.391239
55 18.410002 12.180000 -26.880001 -1.885974 0.181775 1.956845
56 37.730000 0.000000 0.000000 0.042226 0.044948 -0.118302
57 32.059998 0.000000 0.000000 0.080302 -0.030988 -0.087827
58 16.100000 -9.870001 18.059999 1.569106 -0.177375 -0.908399
59 16.170000 -12.670000 -9.730000 1.738578 -0.089987 -1.431011
60 19.670000 0.000000 -0.000001 0.300928 -0.019250 -0.330711
61 40.950001 -0.000000 0.000000 0.000000 -0.000000 -1.204610
62 34.019997 -1.259998 -17.640001 -1.764288 0.158928 1.301461
63 26.389999 0.000000 0.000000 -0.115200 -0.000585 -0.430177
64 43.820000 -0.000000 -0.000000 -1.686860 -0.046799 0.005840
65 20.090000 0.979999 9.800000 -0.037369 -0.021660 1.623560
66 15.120001 0.000000 0.000000 0.000000 -0.000000 1.928986
67 20.370001 -1.119999 -0.560000 0.000000 -0.000000 1.587769
68 19.530001 0.000000 0.000000 0.000000 -0.000000 1.991107
69 20.720001 1.400000 -12.180001 0.000000 -0.000000 1.449133
70 18.130003 0.000000 0.000000 0.000000 -0.000000 2.340474
71 7.420000 7.070001 -9.589999 2.604852 -0.157724 1.357514
72 10.710000 0.000000 0.000000 0.000000 -0.000000 0.942501
73 -1.260000 1.470000 0.000000 0.808142 0.381233 -0.307860
time 9
0 0.000000 0.000000 0.000000 1.570796 -0.000000 0.000000
1 -7.927984 67.437134 -20.993528 0.238664 -0.554847 -2.777408
2 -11.724077 -69.640930 -14.158218 0.946500 1.100257 -1.077879
3 0.000000 0.000000 49.770000 -0.000000 -1.570796 0.000000
4 49.840000 0.000000 0.000000 0.000000 -0.000000 0.000000
5 49.840000 0.000000 0.000000 0.000000 -0.000000 0.000000
6 49.840000 0.000000 0.000000 0.000000 -0.000000 0.000000
7 49.840000 0.000000 0.000000 0.000000 -0.000000 0.000000
8 49.840000 0.000000 0.000000 0.000000 -0.000000 0.000000
9 49.770000 0.000000 0.000000 0.000000 -0.000000 0.000000
10 27.044315 99.047424 86.541245 2.534317 0.437248 1.191275
11 -0.000000 0.000000 49.840000 -0.000000 -1.570796 0.000000
12 49.980000 -0.000000 0.000000 0.000000 -0.000000 0.000000
13 49.770000 0.000000 0.000000 0.000000 -0.000000 0.000000
14 49.980000 0.000000 0.000000 0.000000 -0.000000 -0.000000
15 49.349998 0.000000 0.000000 0.000000 -0.000000 0.000000
16 50.049995 -0.000000 -0.000000 0.000000 -0.000000 0.000000
17 50.259998 0.000000 0.000000 0.000000 -0.000000 0.000000
18 -74.402458 -28.722450 91.500008 0.570823 -0.358927 1.402793
19 110.642281 31.932346 -37.270969 1.612257 -0.135862 -1.140593
20 93.409271 21.659693 60.007515 1.536715 -0.114747 -1.143314
21 50.958370 0.044483 138.561188 1.875122 -0.279727 -1.121849
22 -41.741371 -51.103264 170.088760 1.321986 -0.085370 -1.396861
23 -115.912712 -73.235489 101.179344 1.450737 -0.121089 -1.184158
24 -147.964523 -77.414749 -41.012848 1.330357 -0.153114 -1.141073
25 0.000000 0.000000 0.000000 -3.141592 -1.392148 1.570796
26 1.960000 22.259998 0.000000 -3.092393 -0.365190 2.773632
27 13.860002 -25.129999 0.000000 3.082538 -0.428320 -2.549924
28 13.650000 -2.520000 23.590000 -1.556170 -0.776805 -3.118270
29 13.650001 -2.520000 -23.590000 1.601123 0.395685 3.124930
30 17.113508 3.710000 -3.184675 0.131315 0.352509 0.530576
31 35.559998 0.000000 0.000000 -0.250694 0.231861 0.160664
32 37.520000 0.000000 0.000000 -0.010390 0.004480 0.000038
33 -17.223602 -5.141373 -19.501671 0.511296 1.379124 -2.638968
34 -0.350000 0.700000 -8.050000 1.577247 0.230640 0.034230
35 18.480000 12.180000 26.880001 2.137563 -0.406953 1.389716
36 37.730000 0.000000 -0.000000 -0.012696 0.015810 0.057633
37 32.059998 0.000000 -0.000000 -0.100698 0.199770 0.032383
38 16.170000 -9.870001 -18.059999 -1.474884 0.109425 -1.425931
39 16.240000 -12.670000 9.730000 -1.472268 -0.429496 -1.146526
40 19.670000 0.000000 -0.000001 -0.102501 -0.872224 0.398437
41 40.950001 -0.000000 0.000000 0.000000 -0.000000 -1.151942
42 34.019997 -1.259999 17.639999 2.773883 -0.212913 1.104089
43 26.389999 0.000000 0.000000 0.272168 -0.995992 -0.269852
44 43.820000 0.000000 0.000000 -2.864099 -0.032058 -0.168200
45 20.090000 0.979999 -9.800000 0.037369 0.021660 1.623560
46 15.120002 0.000000 0.000000 0.000000 -0.000000 1.928986
47 20.370001 -1.119999 0.560000 -0.000000 0.000000 1.587769
48 19.530001 0.000000 0.000000 0.000000 -0.000000 1.991106
49 20.720003 1.400001 12.180000 -0.000000 0.000000 1.449133
50 18.130001 -0.000001 0.000000 0.000000 -0.000000 2.340474
51 7.420000 7.070000 9.589999 -2.604852 0.157724 1.357514
52 10.710000 -0.000001 0.000000 0.000000 -0.000000 0.942501
53 -17.644407 -6.028873 18.870071 -1.492327 -0.651475 -1.688949
54 -0.350000 0.700000 8.050000 -1.520850 -0.596009 -0.059856
55 18.410002 12.180000 -26.880001 -2.032354 -0.031099 2.106538
56 37.730000 0.000000 0.000000 0.033094 0.134150 -0.049061
57 32.059998 0.000000 0.000000 0.151517 0.177007 -0.087581
58 16.100000 -9.870001 18.059999 1.540068 -0.049863 -1.048281
59 16.170000 -12.670000 -9.730000 1.634839 0.060394 -1.435414
60 19.670000 0.000000 -0.000001 0.470472 -0.156917 -0.053898
61 40.950001 -0.000000 0.000000 0.000000 -0.000000 -1.413903
62 34.019997 -1.259998 -17.640001 -1.770077 0.144161 1.305507
63 26.389999 0.000000 0.000000 -0.102892 0.094789 -0.507480
64 43.820000 -0.000000 -0.000000 -1.665883 0.023819 0.045602
65 20.090000 0.979999 9.800000 -0.037369 -0.021660 1.623560
66 15.120001 0.000000 0.000000 0.000000 -0.000000 1.928986
67 20.370001 -1.119999 -0.560000 0.000000 -0.000000 1.587769
68 19.530001 0.000000 0.000000 0.000000 -0.000000 1.991106
69 20.720001 1.400000 -12.180001 0.000000 -0.000000 1.449133
70 18.130003 0.000000 0.000000 0.000000 -0.000000 2.340474
71 7.420000 7.070001 -9.589999 2.604852 -0.157724 1.357514
72 10.710000 0.000000 0.000000 0.000000 -0.000000 0.942501
73 -1.260000 1.470000 0.000000 0.957694 0.371949 -0.300832
time 10
0 0.000000 0.000000 0.000000 1.570796 -0.000000 0.000000
1 -8.178771 78.924736 -3.785498 -0.082925 -0.439100 -1.842633
2 -11.317730 -72.788391 -9.186569 1.119510 0.722405 -0.892975
3 0.000000 0.000000 49.770000 -0.000000 -1.570796 0.000000
4 49.840000 0.000000 0.000000 0.000000 -0.000000 0.000000
5 49.840000 0.000000 0.000000 0.000000 -0.000000 0.000000
6 49.840000 0.000000 0.000000 0.000000 -0.000000 0.000000
7 49.840000 0.000000 0.000000 0.000000 -0.000000 0.000000
8 49.840000 0.000000 0.000000 0.000000 -0.000000 0.000000
9 49.770000 0.000000 0.000000 0.000000 -0.000000 0.000000
10 89.178238 67.856750 63.084869 2.153260 0.504800 0.262213
11 -0.000000 0.000000 49.840000 -0.000000 -1.570796 0.000000
12 49.980000 -0.000000 0.000000 0.000000 -0.000000 0.000000
13 49.770000 0.000000 0.000000 0.000000 -0.000000 0.000000
14 49.980000 0.000000 0.000000 0.000000 -0.000000 -0.000000
15 49.349998 0.000000 0.000000 0.000000 -0.000000 0.000000
16 50.049995 -0.000000 -0.000000 0.000000 -0.000000 0.000000
17 50.259998 0.000000 0.000000 0.000000 -0.000000 0.000000
18 -71.457733 45.032452 38.906693 0.325340 -0.158112 0.839046
19 116.934578 -14.858594 -47.762844 1.563504 -0.362053 -1.347332
20 99.731033 20.529421 42.141037 1.262774 -0.198698 -1.269899
21 57.769966 5.655014 125.611656 1.617771 -0.363604 -1.367711
22 -39.187073 -44.864288 149.450089 1.683272 -0.258391 -1.579453
23 -110.214371 -64.609436 85.785141 1.767263 -0.246330 -1.276714
24 -88.347565 -40.837654 -31.620016 1.483626 -0.148020 -1.379298
25 0.000000 0.000000 0.000000 -3.141589 -1.551223 1.570796
26 1.960000 22.259998 0.000000 -2.947586 0.205252 2.662432
27 13.860002 -25.129999 0.000000 -2.897586 -0.428517 -2.549718
28 13.650000 -2.520000 23.590000 -1.300654 -0.752178 2.751789
29 13.650001 -2.520000 -23.590000 1.654373 0.250963 -3.085188
30 17.363674 3.710000 -0.211224 -0.347138 0.166591 0.088442
31 35.559998 0.000000 0.000000 -0.288428 0.203599 0.301323
32 37.520000 0.000000 0.000000 0.464998 -0.217860 -0.050810
33 -20.932043 -12.677755 -10.111426 0.821055 1.005953 -2.365455
34 -0.350000 0.700000 -8.050000 1.659967 -0.058606 0.070639
35 18.480000 12.180000 26.880001 1.537582 -0.258404 1.345541
36 37.730000 0.000000 -0.000000 0.196335 -0.153203 -0.080216
37 32.059998 0.000000 -0.000000 0.421804 -0.135720 -0.015900
38 16.170000 -9.870001 -18.059999 -1.574188 -0.085402 -1.449716
39 16.240000 -12.670000 9.730000 -1.538881 -0.563794 -1.194595
40 19.670000 0.000000 -0.000001 0.212970 -0.825794 -0.045232
41 40.950001 -0.000000 0.000000 0.000000 -0.000000 -1.061186
42 34.019997 -1.259999 17.639999 2.789752 -0.542339 1.192829
43 26.389999 0.000000 0.000000 0.424183 -0.448648 -0.371900
44 43.820000 0.000000 0.000000 -3.085179 -0.031439 -0.169794
45 20.090000 0.979999 -9.800000 0.037369 0.021660 1.623560
46 15.120002 0.000000 0.000000 0.000000 -0.000000 1.928986
47 20.370001 -1.119999 0.560000 -0.000000 0.000000 1.587769
48 19.530001 0.000000 0.000000 0.000000 -0.000000 1.991107
49 20.720003 1.400001 12.180000 -0.000000 0.000000 1.449133
50 18.130001 -0.000001 0.000000 0.000000 -0.000000 2.340474
51 7.420000 7.070000 9.589999 -2.604852 0.157724 1.357514
52 10.710000 -0.000001 0.000000 0.000000 -0.000000 0.942501
53 -12.350817 4.669594 22.947756 1.854864 -1.041772 1.314871
54 -0.350000 0.700000 8.050000 -1.732516 -0.525596 0.433500
55 18.410002 12.180000 -26.880001 -1.782306 0.327318 2.405490
56 37.730000 0.000000 0.000000 -0.058282 0.343703 -0.063220
57 32.059998 0.000000 0.000000 -0.108984 0.330000 -0.163604
58 16.100000 -9.870001 18.059999 1.525823 0.089539 -1.113546
59 16.170000 -12.670000 -9.730000 1.503585 0.310486 -1.375674
60 19.670000 0.000000 -0.000001 -0.046581 0.089355 0.674758
61 40.950001 -0.000000 0.000000 0.000000 -0.000000 -1.626190
62 34.019997 -1.259998 -17.640001 -1.719341 -0.017860 1.410426
63 26.389999 0.000000 0.000000 -0.032963 0.112940 -0.650167
64 43.820000 -0.000000 -0.000000 -1.364689 0.234136 0.206122
65 20.090000 0.979999 9.800000 -0.037369 -0.021660 1.623560
66 15.120001 0.000000 0.000000 0.000000 -0.000000 1.928986
67 20.370001 -1.119999 -0.560000 0.000000 -0.000000 1.587769
68 19.530001 0.000000 0.000000 0.000000 -0.000000 1.991106
69 20.720001 1.400000 -12.180001 0.000000 -0.000000 1.449133
70 18.130003 0.000000 0.000000 0.000000 -0.000000 2.340474
71 7.420000 7.070001 -9.589999 2.604852 -0.157724 1.357514
72 10.710000 0.000000 0.000000 0.000000 -0.000000 0.942501
73 -1.260000 1.470000 0.000000 0.395986 0.197829 -1.147076
time 11
0 0.000000 0.000000 0.000000 1.570796 -0.000000 0.000000
1 5.539801 183.560043 12.292045 -0.115387 -1.310896 -1.598983
2 59.649017 -74.646484 28.389969 0.883469 -0.149983 -0.187825
3 0.000000 0.000000 49.770000 -0.000000 -1.570796 0.000000
4 49.840000 0.000000 0.000000 0.000000 -0.000000 0.000000
5 49.840000 0.000000 0.000000 0.000000 -0.000000 0.000000
6 49.840000 0.000000 0.000000 0.000000 -0.000000 0.000000
7 49.840000 0.000000 0.000000 0.000000 -0.000000 0.000000
8 49.840000 0.000000 0.000000 0.000000 -0.000000 0.000000
9 49.770000 0.000000 0.000000 0.000000 -0.000000 0.000000
10 -8.789589 69.746307 7.476334 0.515682 0.743870 0.511048
11 -0.000000 0.000000 49.840000 -0.000000 -1.570796 0.000000
12 49.980000 -0.000000 0.000000 0.000000 -0.000000 0.000000
13 49.770000 0.000000 0.000000 0.000000 -0.000000 0.000000
14 49.980000 0.000000 0.000000 0.000000 -0.000000 -0.000000
15 49.349998 0.000000 0.000000 0.000000 -0.000000 0.000000
16 50.049995 -0.000000 -0.000000 0.000000 -0.000000 0.000000
17 50.259998 0.000000 0.000000 0.000000 -0.000000 0.000000
18 -101.412292 -6.439029 12.482086 -0.149756 -0.271146 1.423390
19 134.435730 -34.824257 -53.778366 1.581192 -0.630923 -1.452130
20 111.510612 23.235729 38.006767 1.314600 -0.427577 -1.260378
21 61.052277 21.842831 123.549187 1.765143 -0.310289 -1.445020
22 -42.650272 -30.725988 134.636795 1.657045 -0.233467 -1.576817
23 -109.428528 -43.151623 76.011276 1.724036 -0.141945 -1.405835
24 -95.636986 -39.855991 -32.413376 1.549439 -0.184832 -1.496212
25 0.000000 0.000000 0.000000 -0.000002 -1.548445 -1.570812
26 1.960000 22.259998 0.000000 -3.127276 -0.155541 2.673728
27 13.860002 -25.129999 0.000000 -3.111149 0.020018 -2.508976
28 13.650000 -2.520000 23.590000 -1.829206 -0.728646 3.141520
29 13.650001 -2.520000 -23.590000 1.377481 0.364329 2.903803
30 17.360001 3.710000 0.341511 0.030854 0.118667 -0.051908
31 35.559998 0.000000 0.000000 0.020316 0.184920 -0.333700
32 37.520000 0.000000 0.000000 0.038513 -0.018798 -0.000348
33 -17.636938 -6.006730 -18.866531 -0.732331 1.319763 2.420871
34 -0.350000 0.700000 -8.050000 1.849991 0.136710 0.509152
35 18.480000 12.180000 26.880001 1.232174 -0.202161 1.365690
36 37.730000 0.000000 -0.000000 0.049114 0.030588 -0.407943
37 32.059998 0.000000 -0.000000 0.475555 0.016652 -0.337635
38 16.170000 -9.870001 -18.059999 -1.498406 -0.087315 -1.572816
39 16.240000 -12.670000 9.730000 -1.429179 -0.339524 -1.466382
40 19.670000 0.000000 -0.000001 -0.037841 -0.482714 0.463370
41 40.950001 -0.000000 0.000000 0.000000 -0.000000 -1.358895
42 34.019997 -1.259999 17.639999 2.649649 -0.514579 1.438386
43 26.389999 0.000000 0.000000 0.309330 -0.249648 -0.462265
44 43.820000 0.000000 0.000000 2.984565 -0.034649 -0.158772
45 20.090000 0.979999 -9.800000 0.037369 0.021660 1.623560
46 15.120002 0.000000 0.000000 0.000000 -0.000000 1.928986
47 20.370001 -1.119999 0.560000 -0.000000 0.000000 1.587769
48 19.530001 0.000000 0.000000 0.000000 -0.000000 1.991106
49 20.720003 1.400001 12.180000 -0.000000 0.000000 1.449133
50 18.130001 -0.000001 0.000000 0.000000 -0.000000 2.340474
51 7.420000 7.070000 9.589999 -2.604852 0.157724 1.357514
52 10.710000 -0.000001 0.000000 0.000000 -0.000000 0.942501
53 -17.223471 -5.166944 19.492649 -1.303216 -1.163023 -1.867091
54 -0.350000 0.700000 8.050000 -1.713578 -0.368579 0.432401
55 18.410002 12.180000 -26.880001 -1.629780 0.504742 2.410919
56 37.730000 0.000000 0.000000 0.099764 0.061192 -0.396114
57 32.059998 0.000000 0.000000 0.363630 0.076020 -0.318738
58 16.100000 -9.870001 18.059999 1.543186 -0.105126 -0.989297
59 16.170000 -12.670000 -9.730000 1.517472 0.006186 -1.096249
60 19.670000 0.000000 -0.000001 0.998436 0.441071 0.456062
61 40.950001 -0.000000 0.000000 0.000000 -0.000000 -1.319004
62 34.019997 -1.259998 -17.640001 -1.709489 0.158452 0.540792
63 26.389999 0.000000 0.000000 0.615182 0.457024 -0.156658
64 43.820000 -0.000000 -0.000000 -2.012126 0.229659 0.069736
65 20.090000 0.979999 9.800000 -0.037369 -0.021660 1.623560
66 15.120001 0.000000 0.000000 0.000000 -0.000000 1.928986
67 20.370001 -1.119999 -0.560000 0.000000 -0.000000 1.587769
68 19.530001 0.000000 0.000000 0.000000 -0.000000 1.991106
69 20.720001 1.400000 -12.180001 0.000000 -0.000000 1.449133
70 18.130003 0.000000 0.000000 0.000000 -0.000000 2.340474
71 7.420000 7.070001 -9.589999 2.604852 -0.157724 1.357514
72 10.710000 0.000000 0.000000 0.000000 -0.000000 0.942501
73 -1.260000 1.470000 0.000000 0.361010 -0.098069 -0.431460
time 12
0 0.000000 0.000000 0.000000 1.570796 -0.000000 0.000000
1 3.520358 186.180115 6.672614 0.707846 -1.465556 -2.350793
2 59.524162 -85.687439 23.959030 0.982579 -0.300420 -0.551796
3 0.000000 0.000000 49.770000 -0.000000 -1.570796 0.000000
4 49.840000 0.000000 0.000000 0.000000 -0.000000 0.000000
5 49.840000 0.000000 0.000000 0.000000 -0.000000 0.000000
6 49.840000 0.000000 0.000000 0.000000 -0.000000 0.000000
7 49.840000 0.000000 0.000000 0.000000 -0.000000 0.000000
8 49.840000 0.000000 0.000000 0.000000 -0.000000 0.000000
9 49.770000 0.000000 0.000000 0.000000 -0.000000 0.000000
10 25.156673 75.364655 63.937286 -0.789158 -0.564946 0.537333
11 -0.000000 0.000000 49.840000 -0.000000 -1.570796 0.000000
12 49.980000 -0.000000 0.000000 0.000000 -0.000000 0.000000
13 49.770000 0.000000 0.000000 0.000000 -0.000000 0.000000
14 49.980000 0.000000 0.000000 0.000000 -0.000000 -0.000000
15 49.349998 0.000000 0.000000 0.000000 -0.000000 0.000000
16 50.049995 -0.000000 -0.000000 0.000000 -0.000000 0.000000
17 50.259998 0.000000 0.000000 0.000000 -0.000000 0.000000
18 -98.268875 -25.087702 63.438622 -0.136778 -0.172743 1.632856
19 154.039566 5.342031 -51.067940 1.631334 -0.425977 -1.536178
20 122.872246 45.099976 78.742035 1.493879 -0.103026 -1.455925
21 53.021221 40.782837 125.311836 1.647957 -0.204510 -1.529996
22 -46.193184 -16.379995 127.210693 1.609916 -0.189749 -1.573834
23 -110.759178 -16.059124 69.719437 1.626891 -0.005704 -1.514687
24 -116.655922 -7.250786 -34.776733 1.562385 -0.247150 -1.539727
25 0.000000 0.000000 0.000000 -1.570784 -1.559833 0.000000
26 1.960000 22.259998 0.000000 3.089956 -0.227377 2.782154
27 13.860002 -25.129999 0.000000 3.078371 0.170984 -2.560219
28 13.650000 -2.520000 23.590000 -1.937406 -0.626063 -2.981921
29 13.650001 -2.520000 -23.590000 1.346508 0.501863 2.882520
30 17.360001 3.710000 0.151205 0.061435 0.060503 -0.033181
31 35.559998 0.000000 0.000000 0.042807 0.118599 -0.268116
32 37.520000 0.000000 0.000000 -0.030700 0.015239 0.000081
33 -17.203087 -5.181829 -19.442572 -0.460707 1.344931 2.689652
34 -0.350000 0.700000 -8.050000 1.692676 0.205629 0.228275
35 18.480000 12.180000 26.880001 1.487908 -0.205875 1.481531
36 37.730000 0.000000 -0.000000 -0.019008 -0.003966 0.196973
37 32.059998 0.000000 -0.000000 0.067659 -0.038246 -0.162406
38 16.170000 -9.870001 -18.059999 -1.490710 -0.012085 -1.505590
39 16.240000 -12.670000 9.730000 -1.437326 -0.041717 -1.475809
40 19.670000 0.000000 -0.000001 0.548133 -0.779491 0.103114
41 40.950001 -0.000000 0.000000 0.000000 -0.000000 -0.861749
42 34.019997 -1.259999 17.639999 2.857555 -0.680865 0.683004
43 26.389999 0.000000 0.000000 -0.133064 -0.820065 -0.285374
44 43.820000 0.000000 0.000000 2.755652 0.003594 -0.529357
45 20.090000 0.979999 -9.800000 0.037369 0.021660 1.623560
46 15.120002 0.000000 0.000000 0.000000 -0.000000 1.928986
47 20.370001 -1.119999 0.560000 -0.000000 0.000000 1.587769
48 19.530001 0.000000 0.000000 0.000000 -0.000000 1.991106
49 20.720003 1.400001 12.180000 -0.000000 0.000000 1.449133
50 18.130001 -0.000001 0.000000 0.000000 -0.000000 2.340474
51 7.420000 7.070000 9.589999 -2.604852 0.157724 1.357514
52 10.710000 -0.000001 0.000000 0.000000 -0.000000 0.942501
53 -17.572626 -5.969543 18.881771 -1.064282 -1.175079 -2.102488
54 -0.350000 0.700000 8.050000 -1.624144 -0.251601 0.199642
55 18.410002 12.180000 -26.880001 -1.635072 0.300741 1.753989
56 37.730000 0.000000 0.000000 -0.098937 0.007370 0.420702
57 32.059998 0.000000 0.000000 -0.100728 -0.167976 0.054865
58 16.100000 -9.870001 18.059999 1.561212 -0.174218 -1.008337
59 16.170000 -12.670000 -9.730000 1.546199 -0.150811 -1.047585
60 19.670000 0.000000 -0.000001 0.035405 0.690252 0.208170
61 40.950001 -0.000000 0.000000 0.000000 -0.000000 -1.576500
62 34.019997 -1.259998 -17.640001 -1.661811 0.130340 1.828733
63 26.389999 0.000000 0.000000 0.272712 -0.077690 -0.306299
64 43.820000 -0.000000 -0.000000 -3.096213 -0.118663 -0.224518
65 20.090000 0.979999 9.800000 -0.037369 -0.021660 1.623560
66 15.120001 0.000000 0.000000 0.000000 -0.000000 1.928986
67 20.370001 -1.119999 -0.560000 0.000000 -0.000000 1.587769
68 19.530001 0.000000 0.000000 0.000000 -0.000000 1.991106
69 20.720001 1.400000 -12.180001 0.000000 -0.000000 1.449133
70 18.130003 0.000000 0.000000 0.000000 -0.000000 2.340474
71 7.420000 7.070001 -9.589999 2.604852 -0.157724 1.357514
72 10.710000 0.000000 0.000000 0.000000 -0.000000 0.942501
73 -1.260000 1.470000 0.000000 0.201590 -0.077156 -0.072368
time 13
0 0.000000 0.000000 0.000000 1.570796 -0.000000 0.000000
1 -0.000000 175.000000 0.000000 1.348545 -1.393562 -2.942444
2 42.700005 -95.410034 37.869949 0.743526 -0.136452 -0.687256
3 0.000000 0.000000 49.770000 -0.000000 -1.570796 0.000000
4 49.840000 0.000000 0.000000 0.000000 -0.000000 0.000000
5 49.840000 0.000000 0.000000 0.000000 -0.000000 0.000000
6 49.840000 0.000000 0.000000 0.000000 -0.000000 0.000000
7 49.840000 0.000000 0.000000 0.000000 -0.000000 0.000000
8 49.840000 0.000000 0.000000 0.000000 -0.000000 0.000000
9 49.770000 0.000000 0.000000 0.000000 -0.000000 0.000000
10 53.760025 91.559998 56.630020 -0.934042 -0.208763 0.593870
11 -0.000000 0.000000 49.840000 -0.000000 -1.570796 0.000000
12 49.980000 -0.000000 0.000000 0.000000 -0.000000 0.000000
13 49.770000 0.000000 0.000000 0.000000 -0.000000 0.000000
14 49.980000 0.000000 0.000000 0.000000 -0.000000 -0.000000
15 49.349998 0.000000 0.000000 0.000000 -0.000000 0.000000
16 50.049995 -0.000000 -0.000000 0.000000 -0.000000 0.000000
17 50.259998 0.000000 0.000000 0.000000 -0.000000 0.000000
18 -88.550003 -16.940001 66.500008 -0.038593 -0.019334 1.745319
19 126.419998 -8.190000 -35.769997 1.570796 -0.295110 -1.570796
20 111.650009 19.880001 67.690002 1.570796 0.082036 -1.570796
21 49.140003 9.240001 123.130005 1.570797 -0.154157 -1.570797
22 -49.140003 -5.599998 123.130005 1.570797 -0.154157 -1.570797
23 -111.650009 -2.520000 67.690002 1.570796 0.082036 -1.570796
24 -126.420006 16.309999 -35.769997 1.570796 -0.295109 -1.570796
25 0.000000 0.000000 0.000000 -1.570796 -1.570796 0.000000
26 1.960000 22.259998 0.000000 -3.141592 -0.000000 2.878737
27 13.860002 -25.129999 0.000000 -3.141592 -0.000000 -2.705991
28 13.650000 -2.520000 23.590000 -1.570796 -0.523573 3.141592
29 13.650001 -2.520000 -23.590000 1.570796 0.523573 3.141592
30 17.360001 3.710000 -0.000000 0.000000 -0.000000 -0.000000
31 35.559998 0.000000 0.000000 0.000062 0.044040 -0.088030
32 37.520000 0.000000 0.000000 0.000000 -0.000000 0.000000
33 -17.430000 -5.599999 -19.179998 0.471158 1.375624 -2.678963
34 -0.350000 0.700000 -8.050000 1.569360 0.209606 -0.000151
35 18.480000 12.180000 26.880001 1.616266 -0.207809 1.539899
36 37.730000 0.000000 -0.000000 0.011980 -0.071259 -0.166708
37 32.059998 0.000000 -0.000000 0.013845 -0.155993 -0.023147
38 16.170000 -9.870001 -18.059999 -1.570332 0.079809 -1.282453
39 16.240000 -12.670000 9.730000 -1.567719 0.084576 -1.261106
40 19.670000 0.000000 -0.000001 0.568540 -0.745545 0.010971
41 40.950001 -0.000000 0.000000 0.000000 -0.000000 -1.143275
42 34.019997 -1.259999 17.639999 2.885437 -0.448323 0.759073
43 26.389999 0.000000 0.000000 0.041414 -0.829888 0.010168
44 43.820000 0.000000 0.000000 2.766842 -0.032144 -0.169145
45 20.090000 0.979999 -9.800000 0.037369 0.021660 1.623560
46 15.120002 0.000000 0.000000 0.000000 -0.000000 1.928986
47 20.370001 -1.119999 0.560000 -0.000000 0.000000 1.587769
48 19.530001 0.000000 0.000000 0.000000 -0.000000 1.991106
49 20.720003 1.400001 12.180000 -0.000000 0.000000 1.449133
50 18.130001 -0.000001 0.000000 0.000000 -0.000000 2.340474
51 7.420000 7.070000 9.589999 -2.604852 0.157724 1.357514
52 10.710000 -0.000001 0.000000 0.000000 -0.000000 0.942501
53 -17.430000 -5.599999 19.179998 -0.471158 -1.375624 -2.678962
54 -0.350000 0.700000 8.050000 -1.569360 -0.209606 -0.000151
55 18.410002 12.180000 -26.880001 -1.637794 0.206705 1.449167
56 37.730000 0.000000 0.000000 -0.031920 0.163656 -0.240118
57 32.059998 0.000000 0.000000 -0.025502 0.157114 -0.094310
58 16.100000 -9.870001 18.059999 1.563382 -0.068785 -1.211461
59 16.170000 -12.670000 -9.730000 1.560866 -0.073433 -1.194082
60 19.670000 0.000000 -0.000001 -0.494656 0.539904 -0.135239
61 40.950001 -0.000000 0.000000 0.000000 -0.000000 -1.107240
62 34.019997 -1.259998 -17.640001 -1.781119 0.143292 1.261306
63 26.389999 0.000000 0.000000 -0.149328 0.149721 -0.513376
64 43.820000 -0.000000 -0.000000 3.074326 -0.022351 -0.069289
65 20.090000 0.979999 9.800000 -0.037369 -0.021660 1.623560
66 15.120001 0.000000 0.000000 0.000000 -0.000000 1.928986
67 20.370001 -1.119999 -0.560000 0.000000 -0.000000 1.587769
68 19.530001 0.000000 0.000000 0.000000 -0.000000 1.991106
69 20.720001 1.400000 -12.180001 0.000000 -0.000000 1.449133
70 18.130003 0.000000 0.000000 0.000000 -0.000000 2.340474
71 7.420000 7.070001 -9.589999 2.604852 -0.157724 1.357514
72 10.710000 0.000000 0.000000 0.000000 -0.000000 0.942501
73 -1.260000 1.470000 0.000000 0.127666 0.052064 0.127666
end
