version 1
nodes
0 "npc_boss_016" -1
1 "Bip001" 0
2 "Bip001 Prop3" 1
3 "Bone035" 2
4 "Bone036" 3
5 "Bone037" 4
6 "Bone038" 5
7 "Bone039" 6
8 "Bone040" 7
9 "Bone041" 8
10 "Bip001 Prop2" 1
11 "Bone028" 10
12 "Bone029" 11
13 "Bone030" 12
14 "Bone031" 13
15 "Bone032" 14
16 "Bone033" 15
17 "Bone034" 16
18 "Bip001 Prop1" 1
19 "Bone027" 18
20 "Bone026" 18
21 "Bone025" 18
22 "Bone024" 18
23 "Bone022" 18
24 "Bone021" 18
25 "Bip001 Pelvis" 1
26 "Bone020" 25
27 "Bone019" 25
28 "Bone018" 25
29 "Bone017" 25
30 "Bip001 Spine" 25
31 "Bip001 Spine1" 30
32 "Bip001 Neck" 31
33 "Bip001 R Clavicle" 32
34 "Bone011" 33
35 "Bone014" 34
36 "Bone015" 35
37 "Bone016" 36
38 "Bone013" 34
39 "Bone012" 34
40 "Bip001 R UpperArm" 33
41 "Bip001 R Forearm" 40
42 "Bone009" 41
43 "Bone010" 42
44 "Bip001 R Hand" 41
45 "Bip001 R Finger3" 44
46 "Bip001 R Finger31" 45
47 "Bip001 R Finger2" 44
48 "Bip001 R Finger21" 47
49 "Bip001 R Finger1" 44
50 "Bip001 R Finger11" 49
51 "Bip001 R Finger0" 44
52 "Bip001 R Finger01" 51
53 "Bip001 L Clavicle" 32
54 "Bone003" 53
55 "Bone006" 54
56 "Bone007" 55
57 "Bone008" 56
58 "Bone005" 54
59 "Bone004" 54
60 "Bip001 L UpperArm" 53
61 "Bip001 L Forearm" 60
62 "Bone001" 61
63 "Bone002" 62
64 "Bip001 L Hand" 61
65 "Bip001 L Finger3" 64
66 "Bip001 L Finger31" 65
67 "Bip001 L Finger2" 64
68 "Bip001 L Finger21" 67
69 "Bip001 L Finger1" 64
70 "Bip001 L Finger11" 69
71 "Bip001 L Finger0" 64
72 "Bip001 L Finger01" 71
73 "Bip001 Head" 32
end
skeleton
time 0
0 0.000000 0.000000 0.000000 1.570796 -0.000000 0.000000
1 8.686939 188.202454 -40.129185 2.198240 -1.365467 2.368554
2 40.615105 -74.914917 -3.016174 0.532865 0.553416 -0.339535
3 0.000000 0.000000 49.770000 -0.000000 -1.570796 0.000000
4 49.840000 0.000000 0.000000 0.000000 -0.000000 0.000000
5 49.840000 0.000000 0.000000 0.000000 -0.000000 0.000000
6 49.840000 0.000000 0.000000 0.000000 -0.000000 0.000000
7 49.840000 0.000000 0.000000 0.000000 -0.000000 0.000000
8 49.840000 0.000000 0.000000 0.000000 -0.000000 0.000000
9 49.770000 0.000000 0.000000 0.000000 -0.000000 0.000000
10 47.897976 85.478546 26.885925 -0.876328 0.295047 0.661013
11 -0.000000 0.000000 49.840000 -0.000000 -1.570796 0.000000
12 49.980000 -0.000000 0.000000 0.000000 -0.000000 0.000000
13 49.770000 0.000000 -0.000000 0.000000 -0.000000 0.000000
14 49.980000 0.000000 -0.000000 0.000000 -0.000000 -0.000000
15 49.349998 0.000000 0.000000 0.000000 -0.000000 0.000000
16 50.049995 -0.000000 -0.000000 0.000000 -0.000000 0.000000
17 50.259998 0.000000 0.000000 0.000000 -0.000000 0.000000
18 -45.375313 -19.530815 61.616341 0.334335 -0.154670 1.734300
19 136.230011 -13.707756 -60.332253 1.427433 -0.293565 -1.570550
20 129.628967 28.199139 55.653244 1.570796 0.186520 -1.570796
21 59.983055 39.001225 125.777756 2.009822 -0.152828 -1.569835
22 -51.678230 43.677124 120.290291 1.005061 -0.153409 -1.571416
23 -134.720520 34.358414 57.034279 1.586848 0.111586 -1.570639
24 -140.216904 -13.092730 -52.414383 1.662434 -0.294762 -1.570301
25 0.000000 0.000000 0.000000 -1.570796 -1.569287 0.000000
26 1.960000 22.259998 0.000000 3.090207 -0.086633 2.689653
27 13.860002 -25.129999 -0.000000 3.100818 0.069633 -2.644406
28 13.650000 -2.520000 23.590000 -1.393586 -0.475380 2.788367
29 13.650001 -2.520000 -23.590000 1.400303 0.463202 2.901706
30 17.360001 3.853061 0.000000 0.000129 0.003746 0.053153
31 35.559998 0.000000 0.000000 0.021212 0.147333 0.224995
32 37.520000 0.000000 0.000000 0.004237 0.002005 0.018952
33 -17.506939 -5.288671 -19.179998 0.489777 1.374463 -2.679954
34 -0.350000 0.700000 -8.050000 1.520251 0.235628 -0.162714
35 18.480000 12.180000 26.880001 1.636699 -0.444379 1.447526
36 37.730000 0.000000 -0.000000 -0.019566 -0.078534 0.322534
37 32.059998 0.000000 -0.000000 0.036939 -0.053173 0.036011
38 16.170000 -9.870001 -18.059999 -1.605484 -0.100848 -1.529607
39 16.240000 -12.670000 9.730000 -1.548924 -0.062620 -1.278188
40 19.670000 0.000000 -0.000001 0.180549 -0.677958 -0.146906
41 40.950001 -0.000000 0.000000 0.000000 -0.000000 -0.925642
42 34.019997 -1.259999 17.639999 -3.128761 -0.381271 0.198135
43 26.389999 0.000000 0.000000 -0.179273 -0.776907 0.366485
44 43.820000 0.000000 0.000000 2.767432 -0.032251 -0.169065
45 20.090000 0.979999 -9.800000 0.037369 0.021660 1.623560
46 15.120002 0.000000 0.000000 0.000000 -0.000000 1.928986
47 20.370001 -1.119999 0.560000 -0.000000 0.000000 1.587769
48 19.530001 0.000000 0.000000 0.000000 -0.000000 1.991106
49 20.720003 1.400001 12.180000 -0.000000 0.000000 1.449133
50 18.130001 -0.000001 0.000000 0.000000 -0.000000 2.340474
51 7.420000 7.070000 9.589999 -2.604852 0.157724 1.357514
52 10.710000 -0.000001 0.000000 0.000000 -0.000000 0.942501
53 -17.516939 -5.111837 19.179998 -0.426123 -1.374077 -2.741982
54 -0.350000 0.700000 8.050000 -1.488007 -0.206316 -0.092363
55 18.410002 12.180000 -26.880001 -1.556718 0.525596 1.630338
56 37.730000 0.000000 0.000000 -0.023501 0.056446 0.205560
57 32.059998 0.000000 0.000000 -0.017361 0.133153 0.113556
58 16.100000 -9.870001 18.059999 1.551320 -0.077656 -1.399204
59 16.170000 -12.670000 -9.730000 1.567064 -0.019950 -1.374566
60 19.670000 0.000000 -0.000001 -0.464580 0.852813 -0.136413
61 40.950001 -0.000000 0.000000 0.000000 -0.000000 -1.030005
62 34.019997 -1.259998 -17.640001 -1.929923 0.245236 0.649362
63 26.389999 0.000000 0.000000 -0.075589 0.540488 -0.360449
64 43.820000 -0.000000 -0.000000 3.056390 -0.021186 -0.069202
65 20.090000 0.979999 9.800000 -0.037369 -0.021660 1.623560
66 15.120001 0.000000 0.000000 0.000000 -0.000000 1.928986
67 20.370001 -1.119999 -0.560000 0.000000 -0.000000 1.587769
68 19.530001 0.000000 0.000000 0.000000 -0.000000 1.991106
69 20.720001 1.400000 -12.180001 0.000000 -0.000000 1.449133
70 18.130003 0.000000 0.000000 0.000000 -0.000000 2.340474
71 7.420000 7.070001 -9.589999 2.604852 -0.157724 1.357514
72 10.710000 0.000000 0.000000 0.000000 -0.000000 0.942501
73 -1.260000 1.470000 0.000000 0.220529 -0.004620 -0.085963
time 1
0 0.000000 0.000000 0.000000 1.570796 -0.000000 0.000000
1 8.712449 171.188980 -63.393055 1.742047 -1.202690 2.808708
2 28.285892 -68.867920 8.606888 0.530250 0.460754 -0.245838
3 0.000000 0.000000 49.770000 -0.000000 -1.570796 0.000000
4 49.840000 0.000000 0.000000 0.000000 -0.000000 0.000000
5 49.840000 0.000000 0.000000 0.000000 -0.000000 0.000000
6 49.840000 0.000000 0.000000 0.000000 -0.000000 0.000000
7 49.840000 0.000000 0.000000 0.000000 -0.000000 0.000000
8 49.840000 0.000000 0.000000 0.000000 -0.000000 0.000000
9 49.770000 0.000000 0.000000 0.000000 -0.000000 0.000000
10 24.043602 80.051849 34.002014 -0.651034 0.347892 0.753993
11 -0.000000 0.000000 49.840000 -0.000000 -1.570796 0.000000
12 49.980000 -0.000000 0.000000 0.000000 -0.000000 0.000000
13 49.770000 0.000000 0.000000 0.000000 -0.000000 0.000000
14 49.980000 0.000000 0.000000 0.000000 -0.000000 -0.000000
15 49.349998 0.000000 0.000000 0.000000 -0.000000 0.000000
16 50.049995 -0.000000 0.000000 0.000000 -0.000000 0.000000
17 50.259998 0.000000 -0.000000 0.000000 -0.000000 0.000000
18 -43.098167 -22.190817 69.132248 0.287784 -0.172987 1.934788
19 149.067627 -13.500628 -56.746269 1.634145 -0.297762 -1.571336
20 130.966324 29.292757 65.376381 1.570796 0.290001 -1.570796
21 52.451054 39.819187 137.821167 2.107872 -0.154576 -1.570661
22 -56.583672 43.822487 124.782837 0.838495 -0.158486 -1.566199
23 -128.912247 34.808731 64.928024 1.604462 0.142145 -1.570451
24 -127.148140 -13.433844 -57.528534 1.481637 -0.294480 -1.572093
25 -0.000000 0.000000 0.000000 -1.570794 -1.567558 0.000000
26 1.960000 22.259998 0.000000 3.138162 -0.212168 2.621365
27 13.860002 -25.129999 0.000000 3.049501 -0.115106 -2.430212
28 13.650000 -2.520000 23.590000 -1.409403 -0.631039 2.851983
29 13.650001 -2.520000 -23.590000 1.364393 0.378317 2.893911
30 17.284899 4.080000 -0.000000 0.002684 -0.007188 0.156990
31 35.559998 0.000000 0.000000 -0.012520 0.202326 0.139939
32 37.520000 0.000000 0.000000 0.011781 0.003046 0.051466
33 -17.638973 -4.833299 -19.179998 0.598799 1.353243 -2.610154
34 -0.350000 0.700000 -8.050000 1.514933 0.384497 -0.101018
35 18.480000 12.180000 26.880001 1.469973 -0.621763 1.833476
36 37.730000 0.000000 -0.000000 -0.017866 0.068458 0.370654
37 32.059998 0.000000 -0.000000 -0.102409 -0.012496 0.222895
38 16.170000 -9.870001 -18.059999 -1.684104 0.279019 -1.567714
39 16.240000 -12.670000 9.730000 -1.547621 0.179724 -1.309877
40 19.670000 0.000000 -0.000001 -0.188867 -0.585623 0.389033
41 40.950001 -0.000000 0.000000 0.000000 -0.000000 -1.518315
42 34.019997 -1.259999 17.639999 3.024844 -0.332480 0.356151
43 26.389999 0.000000 0.000000 -0.240937 -0.755085 0.537647
44 43.820000 0.000000 0.000000 2.768578 -0.032458 -0.168911
45 20.090000 0.979999 -9.800000 0.037369 0.021660 1.623560
46 15.120002 0.000000 0.000000 0.000000 -0.000000 1.928986
47 20.370001 -1.119999 0.560000 -0.000000 0.000000 1.587769
48 19.530001 0.000000 0.000000 0.000000 -0.000000 1.991106
49 20.720003 1.400001 12.180000 -0.000000 0.000000 1.449133
50 18.130001 -0.000001 0.000000 0.000000 -0.000000 2.340474
51 7.420000 7.070000 9.589999 -2.604852 0.157724 1.357514
52 10.710000 -0.000001 0.000000 0.000000 -0.000000 0.942501
53 -17.762632 -4.478934 19.179998 -0.360352 -1.371328 -2.839623
54 -0.350000 0.700000 8.050000 -1.560361 -0.330896 0.066382
55 18.410002 12.180000 -26.880001 -1.420578 0.698691 1.796484
56 37.730000 0.000000 0.000000 -0.013965 0.058916 0.143215
57 32.059998 0.000000 0.000000 -0.079808 0.099293 -0.001793
58 16.100000 -9.870001 18.059999 1.625607 -0.278817 -1.278445
59 16.170000 -12.670000 -9.730000 1.642291 -0.153954 -1.248973
60 19.670000 0.000000 -0.000001 0.309514 0.734376 0.887843
61 40.950001 -0.000000 0.000000 0.000000 -0.000000 -1.572891
62 34.019997 -1.259998 -17.640001 -1.850809 0.065250 0.900340
63 26.389999 0.000000 0.000000 -0.340530 0.631732 -0.448606
64 43.820000 -0.000000 -0.000000 3.049976 -0.021023 -0.069157
65 20.090000 0.979999 9.800000 -0.037369 -0.021660 1.623560
66 15.120001 0.000000 0.000000 0.000000 -0.000000 1.928986
67 20.370001 -1.119999 -0.560000 0.000000 -0.000000 1.587769
68 19.530001 0.000000 0.000000 0.000000 -0.000000 1.991106
69 20.720001 1.400000 -12.180001 0.000000 -0.000000 1.449133
70 18.130003 0.000000 0.000000 0.000000 -0.000000 2.340474
71 7.420000 7.070001 -9.589999 2.604852 -0.157724 1.357514
72 10.710000 0.000000 0.000000 0.000000 -0.000000 0.942501
73 -1.260000 1.470000 0.000000 0.408421 -0.033437 -0.201153
time 2
0 0.000000 0.000000 0.000000 1.570796 -0.000000 0.000000
1 15.067962 158.491623 -69.003677 1.654268 -1.181950 2.860440
2 9.509951 -60.685120 6.832886 0.579913 0.712376 -0.409085
3 0.000000 0.000000 49.770000 -0.000000 -1.570796 0.000000
4 49.840000 0.000000 0.000000 0.000000 -0.000000 0.000000
5 49.840000 0.000000 0.000000 0.000000 -0.000000 0.000000
6 49.840000 0.000000 0.000000 0.000000 -0.000000 0.000000
7 49.840000 0.000000 0.000000 0.000000 -0.000000 0.000000
8 49.840000 0.000000 0.000000 0.000000 -0.000000 0.000000
9 49.770000 0.000000 0.000000 0.000000 -0.000000 0.000000
10 15.103589 73.962067 23.788879 -0.488613 0.686057 0.950337
11 -0.000000 0.000000 49.840000 -0.000000 -1.570796 0.000000
12 49.980000 -0.000000 0.000000 0.000000 -0.000000 0.000000
13 49.770000 0.000000 0.000000 0.000000 -0.000000 0.000000
14 49.980000 0.000000 0.000000 0.000000 -0.000000 -0.000000
15 49.349998 0.000000 0.000000 0.000000 -0.000000 0.000000
16 50.049995 -0.000000 -0.000000 0.000000 -0.000000 0.000000
17 50.259998 0.000000 0.000000 0.000000 -0.000000 0.000000
18 -48.625309 -33.737350 62.288979 0.274892 -0.205419 1.944877
19 150.709991 -3.608015 -29.611223 1.752562 -0.276599 -1.567858
20 127.484169 32.495853 70.896973 1.570692 0.367790 -1.570900
21 52.867863 36.521278 126.788467 2.174457 -0.143615 -1.566637
22 -43.450397 41.658119 120.789909 0.782216 -0.115917 -1.603217
23 -120.572716 34.745872 61.773758 1.621055 0.172044 -1.570282
24 -108.431015 -7.691222 -49.288979 1.449930 -0.271326 -1.574844
25 0.000000 0.000000 0.000000 -1.570792 -1.565827 0.000000
26 1.960000 22.259998 0.000000 3.099606 0.023734 2.770852
27 13.860002 -25.129999 0.000000 3.050831 0.017585 -2.562319
28 13.650000 -2.520000 23.590000 -1.483728 -0.498137 3.092950
29 13.650001 -2.520000 -23.590000 1.455564 0.406839 -3.121262
30 17.261227 4.295102 -0.000000 -0.004239 -0.016028 0.256720
31 35.559998 0.000000 0.000000 -0.059742 0.216844 0.333112
32 37.520000 0.000000 0.000000 0.015912 0.003409 0.069075
33 -17.588251 -4.969767 -19.179998 0.650344 1.342324 -2.570284
34 -0.350000 0.700000 -8.050000 1.506724 0.227922 0.099078
35 18.480000 12.180000 26.880001 1.467694 -0.752980 1.851196
36 37.730000 0.000000 -0.000000 -0.004720 0.188191 0.340289
37 32.059998 0.000000 -0.000000 -0.103961 0.162569 0.302038
38 16.170000 -9.870001 -18.059999 -1.704493 0.217698 -1.692462
39 16.240000 -12.670000 9.730000 -1.532063 0.017052 -1.481830
40 19.670000 0.000000 -0.000001 -0.379684 -0.720139 0.632823
41 40.950001 -0.000000 0.000000 0.000000 -0.000000 -1.617300
42 34.019997 -1.259999 17.639999 2.975899 -0.287263 0.435653
43 26.389999 0.000000 0.000000 -0.273262 -0.855251 0.542443
44 43.820000 0.000000 0.000000 2.769360 -0.032599 -0.168806
45 20.090000 0.979999 -9.800000 0.037369 0.021660 1.623560
46 15.120002 0.000000 0.000000 0.000000 -0.000000 1.928986
47 20.370001 -1.119999 0.560000 -0.000000 0.000000 1.587769
48 19.530001 0.000000 0.000000 0.000000 -0.000000 1.991106
49 20.720003 1.400001 12.180000 -0.000000 0.000000 1.449133
50 18.130001 -0.000001 0.000000 0.000000 -0.000000 2.340474
51 7.420000 7.070000 9.589999 -2.604852 0.157724 1.357514
52 10.710000 -0.000001 0.000000 0.000000 -0.000000 0.942501
53 -17.689960 -4.684649 19.179998 -0.326788 -1.370169 -2.890639
54 -0.350000 0.700000 8.050000 -1.508829 -0.257250 0.172498
55 18.410002 12.180000 -26.880001 -1.252805 0.921221 1.897071
56 37.730000 0.000000 0.000000 0.000335 0.015883 0.337680
57 32.059998 0.000000 0.000000 -0.001417 0.101845 0.214457
58 16.100000 -9.870001 18.059999 1.624351 -0.207486 -1.106088
59 16.170000 -12.670000 -9.730000 1.524323 -0.133074 -1.090810
60 19.670000 0.000000 -0.000001 0.554349 0.784443 1.139077
61 40.950001 -0.000000 0.000000 0.000000 -0.000000 -1.560073
62 34.019997 -1.259998 -17.640001 -1.820773 -0.005740 1.060077
63 26.389999 0.000000 0.000000 -0.485174 0.535190 -0.752513
64 43.820000 -0.000000 -0.000000 3.049104 -0.021203 -0.069137
65 20.090000 0.979999 9.800000 -0.037369 -0.021660 1.623560
66 15.120001 0.000000 0.000000 0.000000 -0.000000 1.928986
67 20.370001 -1.119999 -0.560000 0.000000 -0.000000 1.587769
68 19.530001 0.000000 0.000000 0.000000 -0.000000 1.991106
69 20.720001 1.400000 -12.180001 0.000000 -0.000000 1.449133
70 18.130003 0.000000 0.000000 0.000000 -0.000000 2.340474
71 7.420000 7.070001 -9.589999 2.604852 -0.157724 1.357514
72 10.710000 0.000000 0.000000 0.000000 -0.000000 0.942501
73 -1.260000 1.470000 0.000000 0.563060 -0.077692 -0.303689
time 3
0 0.000000 0.000000 0.000000 1.570796 -0.000000 0.000000
1 21.431023 145.033676 -74.194901 1.575776 -1.182760 2.902755
2 -5.563688 -59.438599 9.921661 0.439990 0.805139 -0.836322
3 0.000000 0.000000 49.770000 -0.000000 -1.570796 0.000000
4 49.840000 0.000000 0.000000 0.000000 -0.000000 0.000000
5 49.840000 0.000000 0.000000 0.000000 -0.000000 0.000000
6 49.840000 0.000000 0.000000 0.000000 -0.000000 0.000000
7 49.840000 0.000000 0.000000 0.000000 -0.000000 0.000000
8 49.840000 0.000000 0.000000 0.000000 -0.000000 0.000000
9 49.770000 0.000000 0.000000 0.000000 -0.000000 0.000000
10 17.530178 70.474243 16.271362 -0.394600 0.809823 1.024520
11 -0.000000 0.000000 49.840000 -0.000000 -1.570796 0.000000
12 49.980000 -0.000000 0.000000 0.000000 -0.000000 0.000000
13 49.770000 0.000000 0.000000 0.000000 -0.000000 0.000000
14 49.980000 0.000000 0.000000 0.000000 -0.000000 -0.000000
15 49.349998 0.000000 0.000000 0.000000 -0.000000 0.000000
16 50.049995 -0.000000 -0.000000 0.000000 -0.000000 0.000000
17 50.259998 0.000000 0.000000 0.000000 -0.000000 0.000000
18 -56.472862 -42.438164 57.355713 0.264219 -0.231734 1.929284
19 114.296738 1.441429 -38.187958 1.737401 -0.204871 -1.556084
20 104.733749 34.985752 55.969810 1.567362 0.410301 -1.574231
21 41.393139 28.261635 97.903595 2.213436 -0.086138 -1.544418
22 -12.225304 34.488476 96.857445 0.816828 0.065769 -1.766114
23 -97.026825 35.202591 36.318020 1.634047 0.199618 -1.570179
24 -93.556229 8.218781 -45.761169 1.826952 -0.125990 -1.599144
25 0.000000 0.000000 0.000000 -1.570791 -1.564312 0.000000
26 1.960000 22.259998 0.000000 3.068536 0.218046 2.946178
27 13.860002 -25.129999 0.000000 3.054843 0.129249 -2.719829
28 13.650000 -2.520000 23.590000 -1.594583 -0.330001 -2.978518
29 13.650001 -2.520000 -23.590000 1.560182 0.430362 -2.876711
30 17.220001 4.473696 0.000000 -0.042939 -0.009696 0.314487
31 35.559998 0.000000 0.000000 -0.128723 0.233925 0.431971
32 37.520000 0.000000 0.000000 0.007223 0.002151 0.031214
33 -17.512394 -5.198786 -19.179998 0.584130 1.353710 -2.599110
34 -0.350000 0.700000 -8.050000 1.501150 0.089968 0.275504
35 18.480000 12.180000 26.880001 1.465836 -0.878387 1.869125
36 37.730000 0.000000 -0.000000 -0.013265 0.277559 0.208343
37 32.059998 0.000000 -0.000000 -0.121066 0.276826 0.233971
38 16.170000 -9.870001 -18.059999 -1.714631 0.130341 -1.808331
39 16.240000 -12.670000 9.730000 -1.504764 -0.157832 -1.661218
40 19.670000 0.000000 -0.000001 -0.452240 -0.863403 0.874239
41 40.950001 -0.000000 0.000000 0.000000 -0.000000 -1.687616
42 34.019997 -1.259999 17.639999 2.929249 -0.431427 0.532118
43 26.389999 0.000000 0.000000 -0.336442 -0.843478 0.529366
44 43.820000 0.000000 0.000000 2.768861 -0.032509 -0.168873
45 20.090000 0.979999 -9.800000 0.037369 0.021660 1.623560
46 15.120002 0.000000 0.000000 0.000000 -0.000000 1.928986
47 20.370001 -1.119999 0.560000 -0.000000 0.000000 1.587769
48 19.530001 0.000000 0.000000 0.000000 -0.000000 1.991106
49 20.720003 1.400001 12.180000 -0.000000 0.000000 1.449133
50 18.130001 -0.000001 0.000000 0.000000 -0.000000 2.340474
51 7.420000 7.070000 9.589999 -2.604852 0.157724 1.357514
52 10.710000 -0.000001 0.000000 0.000000 -0.000000 0.942501
53 -17.590866 -4.964152 19.179998 -0.408075 -1.374817 -2.772696
54 -0.350000 0.700000 8.050000 -1.453634 -0.182321 0.273276
55 18.410002 12.180000 -26.880001 -1.138689 1.072459 1.959372
56 37.730000 0.000000 0.000000 -0.009823 0.080515 0.154852
57 32.059998 0.000000 0.000000 -0.035943 0.065936 0.310614
58 16.100000 -9.870001 18.059999 1.602215 -0.152526 -0.946314
59 16.170000 -12.670000 -9.730000 1.420168 -0.106016 -0.987286
60 19.670000 0.000000 -0.000001 0.663988 0.884773 1.283992
61 40.950001 -0.000000 0.000000 0.000000 -0.000000 -1.536717
62 34.019997 -1.259998 -17.640001 -1.793937 0.090953 1.271067
63 26.389999 0.000000 0.000000 -0.365543 0.282402 -0.682887
64 43.820000 -0.000000 -0.000000 3.063433 -0.020632 -0.069244
65 20.090000 0.979999 9.800000 -0.037369 -0.021660 1.623560
66 15.120001 0.000000 0.000000 0.000000 -0.000000 1.928986
67 20.370001 -1.119999 -0.560000 0.000000 -0.000000 1.587769
68 19.530001 0.000000 0.000000 0.000000 -0.000000 1.991106
69 20.720001 1.400000 -12.180001 0.000000 -0.000000 1.449133
70 18.130003 0.000000 0.000000 0.000000 -0.000000 2.340474
71 7.420000 7.070001 -9.589999 2.604852 -0.157724 1.357514
72 10.710000 0.000000 0.000000 0.000000 -0.000000 0.942501
73 -1.260000 1.470000 0.000000 0.710337 -0.125217 -0.392619
time 4
0 0.000000 0.000000 0.000000 1.570796 -0.000000 0.000000
1 10.614956 261.299591 -93.067604 1.243638 -0.764354 -2.807291
2 -49.781349 -105.451782 77.080643 1.313272 -0.788616 -2.014218
3 0.000000 0.000000 49.770000 -0.000000 -1.570796 0.000000
4 49.840000 0.000000 0.000000 0.000000 -0.000000 0.000000
5 49.840000 0.000000 0.000000 0.000000 -0.000000 0.000000
6 49.840000 0.000000 0.000000 0.000000 -0.000000 0.000000
7 49.840000 0.000000 0.000000 0.000000 -0.000000 0.000000
8 49.840000 0.000000 0.000000 0.000000 -0.000000 0.000000
9 49.770000 0.000000 0.000000 0.000000 -0.000000 0.000000
10 54.224888 40.813232 138.593475 0.298539 -1.310627 -0.736835
11 -0.000000 0.000000 49.840000 -0.000000 -1.570796 0.000000
12 49.980000 -0.000000 0.000000 0.000000 -0.000000 0.000000
13 49.770000 0.000000 0.000000 0.000000 -0.000000 0.000000
14 49.980000 0.000000 0.000000 0.000000 -0.000000 -0.000000
15 49.349998 0.000000 0.000000 0.000000 -0.000000 0.000000
16 50.049995 -0.000000 -0.000000 0.000000 -0.000000 0.000000
17 50.259998 0.000000 0.000000 0.000000 -0.000000 0.000000
18 -69.911499 -11.236430 -48.132996 -0.206929 0.078054 1.192938
19 107.836937 4.324284 -30.385508 1.732485 -0.215954 -1.544800
20 108.865295 38.193127 68.774475 1.565323 0.430553 -1.576270
21 41.166573 33.188431 124.641586 2.216768 -0.083249 -1.551664
22 -35.472778 38.100960 115.331322 0.900338 0.116791 -1.823062
23 -107.205513 41.374046 57.342308 1.639167 0.220698 -1.570940
24 -93.224869 8.503967 -46.147579 1.721631 -0.107198 -1.601282
25 0.000000 0.000000 0.000000 -1.570793 -1.563230 0.000000
26 1.960000 22.259998 0.000000 3.102622 0.205470 3.059631
27 13.860002 -25.129999 0.000000 -3.000714 0.115543 -2.819542
28 13.650000 -2.520000 23.590000 -1.734660 -0.256520 -3.030421
29 13.650001 -2.520000 -23.590000 1.630291 0.424787 -3.116772
30 17.217451 4.361616 0.000000 -0.382487 0.114898 0.060590
31 35.559998 0.000000 0.000000 -0.343256 0.123335 -0.472301
32 37.520000 0.000000 0.000000 -0.108758 -0.066241 -0.528323
33 -13.518979 -11.486736 -19.661428 -1.518782 1.115407 2.157999
34 -0.350000 0.700000 -8.050000 1.685792 0.330711 0.290211
35 18.480000 12.180000 26.880001 1.275499 -0.224668 1.967215
36 37.730000 0.000000 -0.000000 -0.019188 -0.028959 -0.224742
37 32.059998 0.000000 -0.000000 -0.193361 -0.021569 -0.044725
38 16.170000 -9.870001 -18.059999 -1.695477 0.062137 -1.668113
39 16.240000 -12.670000 9.730000 -1.480660 -0.209896 -1.530192
40 19.670000 0.000000 -0.000001 1.249861 -0.320813 0.112116
41 40.950001 -0.000000 0.000000 0.000000 -0.000000 -1.198363
42 34.019997 -1.259999 17.639999 2.335426 -0.454073 1.643461
43 26.389999 0.000000 0.000000 -0.304029 -0.116883 -0.517133
44 43.820000 0.000000 0.000000 2.764179 -0.031663 -0.169503
45 20.090000 0.979999 -9.800000 0.037369 0.021660 1.623560
46 15.120002 0.000000 0.000000 0.000000 -0.000000 1.928986
47 20.370001 -1.119999 0.560000 -0.000000 0.000000 1.587769
48 19.530001 0.000000 0.000000 0.000000 -0.000000 1.991106
49 20.720003 1.400001 12.180000 -0.000000 0.000000 1.449133
50 18.130001 -0.000001 0.000000 0.000000 -0.000000 2.340474
51 7.420000 7.070000 9.589999 -2.604852 0.157724 1.357514
52 10.710000 -0.000001 0.000000 0.000000 -0.000000 0.942501
53 -11.019383 -15.601227 18.353878 -1.144593 -1.325937 -1.477701
54 -0.350000 0.700000 8.050000 -1.337647 -0.351664 -0.052557
55 18.410002 12.180000 -26.880001 -1.380842 0.187634 1.590728
56 37.730000 0.000000 0.000000 -0.112619 0.061618 -0.279165
57 32.059998 0.000000 0.000000 -0.389366 0.075441 -0.114363
58 16.100000 -9.870001 18.059999 1.562880 -0.169540 -0.817161
59 16.170000 -12.670000 -9.730000 1.382686 -0.125839 -0.953928
60 19.670000 0.000000 -0.000001 -0.905220 0.061615 0.084674
61 40.950001 -0.000000 0.000000 0.000000 -0.000000 -1.459187
62 34.019997 -1.259998 -17.640001 -1.611251 0.219868 1.986515
63 26.389999 0.000000 0.000000 0.168229 -0.508361 -0.392751
64 43.820000 -0.000000 -0.000000 -3.056600 -0.051499 -0.061778
65 20.090000 0.979999 9.800000 -0.037369 -0.021660 1.623560
66 15.120001 0.000000 0.000000 0.000000 -0.000000 1.928986
67 20.370001 -1.119999 -0.560000 0.000000 -0.000000 1.587769
68 19.530001 0.000000 0.000000 0.000000 -0.000000 1.991106
69 20.720001 1.400000 -12.180001 0.000000 -0.000000 1.449133
70 18.130003 0.000000 0.000000 0.000000 -0.000000 2.340474
71 7.420000 7.070001 -9.589999 2.604852 -0.157724 1.357514
72 10.710000 0.000000 0.000000 0.000000 -0.000000 0.942501
73 -1.260000 1.470000 0.000000 0.705695 -0.350988 0.730356
time 5
0 0.000000 0.000000 0.000000 1.570796 -0.000000 0.000000
1 1.165848 284.579956 -81.383751 0.911067 -0.559488 -2.532504
2 -56.788177 -92.709412 96.647301 1.541771 -1.253748 -2.409105
3 0.000000 0.000000 49.770000 -0.000000 -1.570796 0.000000
4 49.840000 0.000000 0.000000 0.000000 -0.000000 0.000000
5 49.840000 0.000000 0.000000 0.000000 -0.000000 0.000000
6 49.840000 0.000000 0.000000 0.000000 -0.000000 0.000000
7 49.840000 0.000000 0.000000 0.000000 -0.000000 0.000000
8 49.840000 0.000000 0.000000 0.000000 -0.000000 0.000000
9 49.770000 0.000000 0.000000 0.000000 -0.000000 0.000000
10 -25.650829 6.890594 153.667984 2.326330 -0.740786 -2.034378
11 -0.000000 0.000000 49.840000 -0.000000 -1.570796 0.000000
12 49.980000 -0.000000 0.000000 0.000000 -0.000000 0.000000
13 49.770000 0.000000 0.000000 0.000000 -0.000000 0.000000
14 49.980000 0.000000 0.000000 0.000000 -0.000000 -0.000000
15 49.349998 0.000000 0.000000 0.000000 -0.000000 0.000000
16 50.049995 -0.000000 -0.000000 0.000000 -0.000000 0.000000
17 50.259998 0.000000 0.000000 0.000000 -0.000000 0.000000
18 -82.247551 -18.174280 -31.583878 -0.399780 -0.110440 1.801651
19 107.280823 -20.490192 -28.606735 1.739630 -0.315553 -1.537616
20 98.789192 3.324297 73.691635 1.573845 0.430571 -1.568128
21 35.020504 18.147648 125.701279 2.175472 -0.151036 -1.594422
22 -34.663391 35.389961 114.407661 0.976846 0.090805 -1.788221
23 -106.724335 38.085144 56.281059 1.570225 0.209084 -1.568427
24 -94.559097 6.387450 -45.612625 1.714795 -0.113286 -1.601322
25 0.000000 0.000000 0.000000 -1.570797 -1.562800 0.000000
26 1.960000 22.259998 0.000000 2.987024 0.249438 2.714411
27 13.860002 -25.129999 0.000000 3.121587 0.316071 -2.765143
28 13.650000 -2.520000 23.590000 -1.401749 -0.256179 2.828053
29 13.650001 -2.520000 -23.590000 1.605257 0.511070 2.999679
30 17.353062 3.943673 -0.000000 -0.165012 0.129036 -0.362523
31 35.559998 0.000000 0.000000 -0.246623 0.156672 -0.404060
32 37.520000 0.000000 0.000000 -0.174081 -0.258741 -1.385359
33 -2.222657 -14.617754 -22.062859 -1.748935 0.975981 2.826581
34 -0.350000 0.700000 -8.050000 1.594634 0.584418 0.289145
35 18.480000 12.180000 26.880001 1.874122 -0.565541 1.086486
36 37.730000 0.000000 -0.000000 -0.007574 0.071543 -0.586667
37 32.059998 0.000000 -0.000000 -0.259825 0.243961 -0.431434
38 16.170000 -9.870001 -18.059999 -1.604626 0.008172 -1.243835
39 16.240000 -12.670000 9.730000 -1.448472 -0.198291 -1.221306
40 19.670000 0.000000 -0.000001 1.109418 0.448527 0.351494
41 40.950001 -0.000000 0.000000 0.000000 -0.000000 -1.252592
42 34.019997 -1.259999 17.639999 2.634880 -0.443627 1.485096
43 26.389999 0.000000 0.000000 0.064871 -0.237486 -0.670906
44 43.820000 0.000000 0.000000 2.763879 -0.031605 -0.169539
45 20.090000 0.979999 -9.800000 0.037369 0.021660 1.623560
46 15.120002 0.000000 0.000000 0.000000 -0.000000 1.928986
47 20.370001 -1.119999 0.560000 -0.000000 0.000000 1.587769
48 19.530001 0.000000 0.000000 0.000000 -0.000000 1.991106
49 20.720003 1.400001 12.180000 -0.000000 0.000000 1.449133
50 18.130001 -0.000001 0.000000 0.000000 -0.000000 2.340474
51 7.420000 7.070000 9.589999 -2.604852 0.157724 1.357514
52 10.710000 -0.000001 0.000000 0.000000 -0.000000 0.942501
53 7.833462 -21.038162 14.354898 -1.355743 -1.351466 -0.375609
54 -0.350000 0.700000 8.050000 -1.153149 -0.600422 -0.245423
55 18.410002 12.180000 -26.880001 -1.267670 0.651517 2.515214
56 37.730000 0.000000 0.000000 0.059565 -0.035612 -0.317068
57 32.059998 0.000000 0.000000 -0.067485 0.238113 -0.324933
58 16.100000 -9.870001 18.059999 1.495319 -0.346678 -0.751968
59 16.170000 -12.670000 -9.730000 1.402176 -0.197805 -0.957284
60 19.670000 0.000000 -0.000001 -0.821787 -0.487160 0.016091
61 40.950001 -0.000000 0.000000 0.000000 -0.000000 -1.365169
62 34.019997 -1.259998 -17.640001 -1.587813 0.681059 1.724543
63 26.389999 0.000000 0.000000 -0.055336 -0.598014 -0.039777
64 43.820000 -0.000000 -0.000000 -2.915913 -0.247420 -0.021808
65 20.090000 0.979999 9.800000 -0.037369 -0.021660 1.623560
66 15.120001 0.000000 0.000000 0.000000 -0.000000 1.928986
67 20.370001 -1.119999 -0.560000 0.000000 -0.000000 1.587769
68 19.530001 0.000000 0.000000 0.000000 -0.000000 1.991106
69 20.720001 1.400000 -12.180001 0.000000 -0.000000 1.449133
70 18.130003 0.000000 0.000000 0.000000 -0.000000 2.340474
71 7.420000 7.070001 -9.589999 2.604852 -0.157724 1.357514
72 10.710000 0.000000 0.000000 0.000000 -0.000000 0.942501
73 -1.260000 1.470000 0.000000 0.358778 -0.620945 1.728005
time 6
0 0.000000 0.000000 0.000000 1.570796 -0.000000 0.000000
1 -0.069998 41.089996 -24.849993 0.020096 0.007766 -1.498563
2 28.980000 -61.040039 89.109940 -1.065569 -1.428271 1.059900
3 0.000000 0.000000 49.770000 -0.000000 -1.570796 0.000000
4 49.840000 0.000000 0.000000 0.000000 -0.000000 0.000000
5 49.840000 0.000000 0.000000 0.000000 -0.000000 0.000000
6 49.840000 0.000000 0.000000 0.000000 -0.000000 0.000000
7 49.840000 0.000000 0.000000 0.000000 -0.000000 0.000000
8 49.840000 0.000000 0.000000 0.000000 -0.000000 0.000000
9 49.770000 0.000000 0.000000 0.000000 -0.000000 0.000000
10 42.910015 42.980011 131.390015 1.561062 -1.304064 -1.612443
11 -0.000000 0.000000 49.840000 -0.000000 -1.570796 0.000000
12 49.980000 -0.000000 0.000000 0.000000 -0.000000 0.000000
13 49.770000 0.000000 0.000000 0.000000 -0.000000 0.000000
14 49.980000 0.000000 0.000000 0.000000 -0.000000 -0.000000
15 49.349998 0.000000 0.000000 0.000000 -0.000000 0.000000
16 50.049995 -0.000000 -0.000000 0.000000 -0.000000 0.000000
17 50.259998 0.000000 0.000000 0.000000 -0.000000 0.000000
18 -121.099998 22.470003 2.730011 -0.396680 -0.202826 1.114008
19 142.310013 82.040031 -23.659979 1.582723 -0.097203 -1.548343
20 126.070007 41.090038 115.500031 2.053577 0.202535 -1.075242
21 35.279995 -44.729980 203.770050 2.296841 -0.077922 -1.019852
22 -69.860016 -85.750015 177.099991 0.587701 0.276591 -1.244554
23 -178.850006 -63.630016 76.860001 0.876277 0.241193 -1.254435
24 -176.050018 -47.250031 -47.669987 1.501966 0.189284 -1.490867
25 0.000000 0.000000 0.000000 -1.570796 -1.554796 0.000000
26 1.960000 22.259998 0.000000 -3.053036 0.369816 3.070558
27 13.860002 -25.129999 0.000000 -3.126850 0.356610 -2.369995
28 13.650000 -2.520000 23.590000 -2.009064 -0.437076 -2.577600
29 13.650001 -2.520000 -23.590000 1.776194 0.516694 -2.631776
30 17.290001 4.060000 -0.000000 -0.021640 0.054739 -0.130799
31 35.559998 0.000000 0.000000 0.111318 0.064541 -0.515027
32 37.520000 0.000000 0.000000 -0.001316 0.000788 0.005860
33 -17.430002 -5.612444 -19.179998 2.661953 1.126892 -0.439036
34 -0.350000 0.700000 -8.050000 1.765891 0.189482 0.334103
35 18.480000 12.180000 26.880001 1.815971 0.029342 1.414993
36 37.730000 0.000000 -0.000000 -0.246561 0.072769 -1.054570
37 32.059998 0.000000 -0.000000 0.710294 -0.206451 -0.577157
38 16.170000 -9.870001 -18.059999 -1.428074 0.023440 -1.604205
39 16.240000 -12.670000 9.730000 -1.314312 -0.114977 -1.578572
40 19.670000 0.000000 -0.000001 1.124261 -1.396371 -0.827816
41 40.950001 -0.000000 0.000000 0.000000 -0.000000 -1.742128
42 34.019997 -1.259999 17.639999 3.015052 0.388211 1.449074
43 26.389999 0.000000 0.000000 1.450128 -1.044160 -1.391536
44 43.820000 0.000000 0.000000 2.136694 -0.112807 -0.579302
45 20.090000 0.979999 -9.800000 0.037369 0.021660 1.623560
46 15.120002 0.000000 0.000000 0.000000 -0.000000 1.928986
47 20.370001 -1.119999 0.560000 -0.000000 0.000000 1.587769
48 19.530001 0.000000 0.000000 0.000000 -0.000000 1.991107
49 20.720003 1.400001 12.180000 -0.000000 0.000000 1.449133
50 18.130001 -0.000001 0.000000 0.000000 -0.000000 2.340474
51 7.420000 7.070000 9.589999 -2.604852 0.157724 1.357514
52 10.710000 -0.000001 0.000000 0.000000 -0.000000 0.942501
53 -17.426889 -5.609334 19.183113 0.775623 -1.079431 2.428677
54 -0.350000 0.700000 8.050000 -1.611092 -0.302871 -0.216112
55 18.410002 12.180000 -26.880001 -2.062179 -0.046358 1.538077
56 37.730000 0.000000 0.000000 0.243081 0.081080 -1.180642
57 32.059998 0.000000 0.000000 1.174764 -0.161597 -0.606433
58 16.100000 -9.870001 18.059999 1.702224 -0.348738 -1.154876
59 16.170000 -12.670000 -9.730000 1.545749 -0.241334 -1.414525
60 19.670000 0.000000 -0.000001 -1.082026 0.058119 -0.814997
61 40.950001 -0.000000 0.000000 0.000000 -0.000000 -0.904925
62 34.019997 -1.259998 -17.640001 -1.932742 -0.794589 1.539149
63 26.389999 0.000000 0.000000 -1.137673 0.140539 -1.238900
64 43.820000 -0.000000 -0.000000 -2.115064 0.218564 -0.460929
65 20.090000 0.979999 9.800000 -0.037369 -0.021660 1.623560
66 15.120001 0.000000 0.000000 0.000000 -0.000000 1.928986
67 20.370001 -1.119999 -0.560000 0.000000 -0.000000 1.587769
68 19.530001 0.000000 0.000000 0.000000 -0.000000 1.991106
69 20.720001 1.400000 -12.180001 0.000000 -0.000000 1.449133
70 18.130003 0.000000 0.000000 0.000000 -0.000000 2.340474
71 7.420000 7.070001 -9.589999 2.604852 -0.157724 1.357514
72 10.710000 0.000000 0.000000 0.000000 -0.000000 0.942501
73 -1.260000 1.470000 0.000000 -0.064077 -0.090338 -0.183682
time 7
0 0.000000 0.000000 0.000000 1.570796 -0.000000 0.000000
1 4.375369 79.055321 -6.402831 0.213848 -0.469967 -1.599407
2 94.954582 -56.272156 41.341751 -0.467251 -0.669287 0.349514
3 0.000000 0.000000 49.770000 -0.000000 -1.570796 0.000000
4 49.840000 0.000000 0.000000 0.000000 -0.000000 0.000000
5 49.840000 -0.000000 0.000000 0.000000 -0.000000 0.000000
6 49.840000 0.000000 0.000000 0.000000 -0.000000 0.000000
7 49.840000 -0.000000 0.000000 0.000000 -0.000000 0.000000
8 49.840000 0.000000 -0.000000 0.000000 -0.000000 0.000000
9 49.770000 0.000000 0.000000 0.000000 -0.000000 0.000000
10 115.242691 55.185852 56.075592 0.097881 -0.898402 -0.168926
11 -0.000000 0.000000 49.840000 -0.000000 -1.570796 0.000000
12 49.980000 -0.000000 0.000000 0.000000 -0.000000 0.000000
13 49.770000 0.000000 0.000000 0.000000 -0.000000 0.000000
14 49.980000 0.000000 -0.000000 0.000000 -0.000000 -0.000000
15 49.349998 0.000000 0.000000 0.000000 -0.000000 0.000000
16 50.049995 -0.000000 -0.000000 0.000000 -0.000000 0.000000
17 50.259998 0.000000 0.000000 0.000000 -0.000000 0.000000
18 -86.894844 13.819218 15.553978 0.200617 0.115989 0.987631
19 128.832779 114.609016 -23.606724 1.746957 0.158465 -0.800499
20 104.182663 111.977402 119.192322 2.343036 -0.002321 -0.765504
21 36.845947 59.771694 214.714371 2.655789 -0.029639 -0.688943
22 -74.941544 -27.669462 235.486435 0.361259 0.385556 -0.917149
23 -176.733902 -51.252560 147.882523 0.490829 0.253039 -1.052314
24 -213.583679 -83.350258 8.602753 1.033979 -0.158985 -0.718629
25 0.000000 0.000000 0.000000 -1.570796 -1.557705 0.000000
26 1.960000 22.259998 0.000000 -3.135102 0.048825 3.089307
27 13.860002 -25.129999 0.000000 3.071298 0.258297 -2.699945
28 13.650000 -2.520000 23.590000 -1.756088 -0.521163 -3.083149
29 13.650001 -2.520000 -23.590000 1.598709 0.619647 3.131357
30 17.219624 4.408473 -0.000000 -0.072201 -0.114779 0.358703
31 35.559998 0.000000 0.000000 -0.027627 -0.032167 0.476466
32 37.520000 0.000000 0.000000 -0.007722 0.004686 0.034807
33 -17.434387 -5.237374 -19.190008 -1.134805 0.968358 2.066791
34 -0.350000 0.700000 -8.050000 1.837955 0.291238 0.242729
35 18.480000 12.180000 26.880001 1.453482 -0.610022 1.649382
36 37.730000 0.000000 -0.000000 -0.013706 -0.385475 0.262026
37 32.059998 0.000000 -0.000000 0.387399 -0.476964 -0.125358
38 16.170000 -9.870001 -18.059999 -1.496801 -0.228247 -1.417044
39 16.240000 -12.670000 9.730000 -1.463123 -0.421216 -1.549330
40 19.670000 0.000000 -0.000001 1.294305 -0.087637 -0.458323
41 40.950001 -0.000000 0.000000 0.000000 -0.000000 -1.171648
42 34.019997 -1.259999 17.639999 2.935726 -0.400338 0.680723
43 26.389999 0.000000 0.000000 0.359127 -1.068835 -0.233485
44 43.820000 0.000000 0.000000 1.982798 -0.029620 -0.806931
45 20.090000 0.979999 -9.800000 0.037369 0.021660 1.623560
46 15.120002 0.000000 0.000000 0.000000 -0.000000 1.928986
47 20.370001 -1.119999 0.560000 -0.000000 0.000000 1.587769
48 19.530001 0.000000 0.000000 0.000000 -0.000000 1.991106
49 20.720003 1.400001 12.180000 -0.000000 0.000000 1.449133
50 18.130001 -0.000001 0.000000 0.000000 -0.000000 2.340474
51 7.420000 7.070000 9.589999 -2.604852 0.157724 1.357514
52 10.710000 -0.000001 0.000000 0.000000 -0.000000 0.942501
53 -17.526867 -5.330914 19.096861 1.107875 -1.246967 2.034158
54 -0.350000 0.700000 8.050000 -1.689375 -0.332696 -0.294073
55 18.410002 12.180000 -26.880001 -2.154138 0.612998 1.172929
56 37.730000 0.000000 0.000000 -0.011133 0.125344 0.188445
57 32.059998 0.000000 0.000000 0.222226 -0.117303 -0.475489
58 16.100000 -9.870001 18.059999 1.753884 -0.022678 -1.072838
59 16.170000 -12.670000 -9.730000 1.493108 -0.100950 -1.157706
60 19.670000 0.000000 -0.000001 -1.334853 -0.342464 -0.722158
61 40.950001 -0.000000 0.000000 0.000000 -0.000000 -1.012286
62 34.019997 -1.259998 -17.640001 -1.818037 0.144537 1.208489
63 26.389999 0.000000 0.000000 -0.541656 0.149753 -0.810500
64 43.820000 -0.000000 -0.000000 -2.056440 -0.014246 -0.554183
65 20.090000 0.979999 9.800000 -0.037369 -0.021660 1.623560
66 15.120001 0.000000 0.000000 0.000000 -0.000000 1.928986
67 20.370001 -1.119999 -0.560000 0.000000 -0.000000 1.587769
68 19.530001 0.000000 0.000000 0.000000 -0.000000 1.991106
69 20.720001 1.400000 -12.180001 0.000000 -0.000000 1.449133
70 18.130003 0.000000 0.000000 0.000000 -0.000000 2.340474
71 7.420000 7.070001 -9.589999 2.604852 -0.157724 1.357514
72 10.710000 0.000000 0.000000 0.000000 -0.000000 0.942501
73 -1.260000 1.470000 -0.000000 0.059503 -0.045545 -0.775381
time 8
0 0.000000 0.000000 0.000000 1.570796 -0.000000 0.000000
1 2.644896 68.307579 -14.312789 0.015513 -0.272500 -1.509088
2 74.756645 -66.075500 60.070587 -0.186114 -0.980677 0.167142
3 0.000000 0.000000 49.770000 -0.000000 -1.570796 0.000000
4 49.840000 0.000000 0.000000 0.000000 -0.000000 0.000000
5 49.840000 0.000000 0.000000 0.000000 -0.000000 0.000000
6 49.840000 0.000000 0.000000 0.000000 -0.000000 0.000000
7 49.840000 0.000000 0.000000 0.000000 -0.000000 0.000000
8 49.840000 0.000000 0.000000 0.000000 -0.000000 0.000000
9 49.770000 0.000000 0.000000 0.000000 -0.000000 0.000000
10 97.455254 39.637177 94.869690 0.469129 -1.017982 -0.556788
11 -0.000000 0.000000 49.840000 -0.000000 -1.570796 0.000000
12 49.980000 -0.000000 0.000000 0.000000 -0.000000 0.000000
13 49.770000 0.000000 0.000000 0.000000 -0.000000 0.000000
14 49.980000 0.000000 0.000000 0.000000 -0.000000 -0.000000
15 49.349998 0.000000 0.000000 0.000000 -0.000000 0.000000
16 50.049995 -0.000000 -0.000000 0.000000 -0.000000 0.000000
17 50.259998 0.000000 0.000000 0.000000 -0.000000 0.000000
18 -89.854248 19.908245 18.315720 0.056570 -0.087353 0.992927
19 118.847481 74.508690 -30.290421 1.684155 0.027590 -0.953410
20 98.027168 66.535782 91.298012 2.020625 -0.065689 -0.915961
21 43.426514 27.380993 176.364014 2.344559 -0.128998 -0.855499
22 -56.806812 -40.415100 202.197983 0.733840 0.203229 -1.101441
23 -144.378418 -63.333889 124.891510 0.852334 0.111984 -1.094626
24 -187.085098 -81.846809 -17.624500 1.168150 -0.156664 -0.907017
25 0.000000 0.000000 0.000000 -1.570797 -1.563868 0.000000
26 1.960000 22.259998 0.000000 -3.016871 -0.251041 3.016152
27 13.860002 -25.129999 0.000000 -3.129429 -0.087397 -2.466211
28 13.650000 -2.520000 23.590000 -1.771927 -0.339214 -3.024629
29 13.650001 -2.520000 -23.590000 1.756757 0.492301 -2.898721
30 17.273186 4.067986 -0.000000 -0.097374 -0.035649 0.108894
31 35.559998 0.000000 0.000000 -0.039493 0.110960 0.196449
32 37.520000 0.000000 0.000000 -0.023881 0.017348 0.125372
33 -17.643635 -1.552819 -19.695995 -1.458746 1.057784 1.527754
34 -0.350000 0.700000 -8.050000 1.807608 0.171384 0.276332
35 18.480000 12.180000 26.880001 1.587801 -0.284902 1.784631
36 37.730000 0.000000 -0.000000 -0.009096 -0.025028 -0.167437
37 32.059998 0.000000 -0.000000 0.081857 -0.207394 0.003457
38 16.170000 -9.870001 -18.059999 -1.513459 -0.074697 -1.316130
39 16.240000 -12.670000 9.730000 -1.528898 -0.301230 -1.653334
40 19.670000 0.000000 -0.000001 1.343104 -0.518625 -0.532351
41 40.950001 -0.000000 0.000000 0.000000 -0.000000 -1.226773
42 34.019997 -1.259999 17.639999 2.837707 -0.425898 0.825898
43 26.389999 0.000000 0.000000 0.066331 -0.917283 -0.037497
44 43.820000 0.000000 0.000000 2.092301 -0.164424 -0.799215
45 20.090000 0.979999 -9.800000 0.037369 0.021660 1.623560
46 15.120002 0.000000 0.000000 0.000000 -0.000000 1.928986
47 20.370001 -1.119999 0.560000 -0.000000 0.000000 1.587769
48 19.530001 0.000000 0.000000 0.000000 -0.000000 1.991106
49 20.720003 1.400001 12.180000 -0.000000 0.000000 1.449133
50 18.130001 -0.000001 0.000000 0.000000 -0.000000 2.340474
51 7.420000 7.070000 9.589999 -2.604852 0.157724 1.357514
52 10.710000 -0.000001 0.000000 0.000000 -0.000000 0.942501
53 -18.659817 -2.919539 18.602362 0.599531 -1.165312 2.383642
54 -0.350000 0.700000 8.050000 -1.637988 -0.385630 -0.265120
55 18.410002 12.180000 -26.880001 -2.026104 0.345276 1.425885
56 37.730000 0.000000 0.000000 0.016026 0.088929 0.049001
57 32.059998 0.000000 0.000000 0.087063 0.083724 0.102307
58 16.100000 -9.870001 18.059999 1.752267 0.017624 -1.450338
59 16.170000 -12.670000 -9.730000 1.433938 -0.148627 -1.064763
60 19.670000 0.000000 -0.000001 -1.249245 -0.217175 -0.796121
61 40.950001 -0.000000 0.000000 0.000000 -0.000000 -1.116591
62 34.019997 -1.259998 -17.640001 -1.756122 0.104530 1.324937
63 26.389999 0.000000 0.000000 -0.190392 0.093619 -0.622813
64 43.820000 -0.000000 -0.000000 -2.017106 0.141528 -0.359409
65 20.090000 0.979999 9.800000 -0.037369 -0.021660 1.623560
66 15.120001 0.000000 0.000000 0.000000 -0.000000 1.928986
67 20.370001 -1.119999 -0.560000 0.000000 -0.000000 1.587769
68 19.530001 0.000000 0.000000 0.000000 -0.000000 1.991106
69 20.720001 1.400000 -12.180001 0.000000 -0.000000 1.449133
70 18.130003 0.000000 0.000000 0.000000 -0.000000 2.340474
71 7.420000 7.070001 -9.589999 2.604852 -0.157724 1.357514
72 10.710000 0.000000 0.000000 0.000000 -0.000000 0.942501
73 -1.260000 1.470000 0.000000 0.116098 -0.035480 -0.944439
time 9
0 0.000000 0.000000 0.000000 1.570796 -0.000000 0.000000
1 0.884140 57.837334 -21.404699 -0.134462 -0.128475 -1.488361
2 53.175652 -76.038818 67.549988 0.125770 -1.181870 -0.111480
3 0.000000 0.000000 49.770000 -0.000000 -1.570796 0.000000
4 49.840000 0.000000 0.000000 0.000000 -0.000000 0.000000
5 49.840000 0.000000 0.000000 0.000000 -0.000000 0.000000
6 49.840000 0.000000 0.000000 0.000000 -0.000000 0.000000
7 49.840000 0.000000 0.000000 0.000000 -0.000000 0.000000
8 49.840000 0.000000 0.000000 0.000000 -0.000000 0.000000
9 49.770000 0.000000 0.000000 0.000000 -0.000000 0.000000
10 68.756805 20.772034 124.526718 0.921964 -1.037120 -0.970036
11 -0.000000 0.000000 49.840000 -0.000000 -1.570796 0.000000
12 49.980000 -0.000000 0.000000 0.000000 -0.000000 0.000000
13 49.770000 0.000000 0.000000 0.000000 -0.000000 0.000000
14 49.980000 0.000000 0.000000 0.000000 -0.000000 -0.000000
15 49.349998 0.000000 0.000000 0.000000 -0.000000 0.000000
16 50.049995 -0.000000 -0.000000 0.000000 -0.000000 0.000000
17 50.259998 0.000000 0.000000 0.000000 -0.000000 0.000000
18 -99.215614 20.221149 21.104622 -0.096445 -0.232596 1.054834
19 110.625580 31.439827 -37.421448 1.620502 -0.116821 -1.117836
20 93.408005 21.604458 59.696384 1.619257 -0.113407 -1.104850
21 51.044571 0.071997 138.032928 1.935393 -0.258488 -1.097176
22 -41.687286 -51.113525 169.923569 1.267211 -0.057879 -1.370583
23 -115.769440 -73.467636 100.940567 1.373847 -0.091146 -1.170014
24 -147.268906 -77.132416 -41.031013 1.307827 -0.154743 -1.107894
25 0.000000 0.000000 0.000000 -1.570797 -1.569522 0.000000
26 1.960000 22.259998 0.000000 -3.123531 -0.172133 2.810362
27 13.860002 -25.129999 0.000000 3.027296 -0.026682 -2.801114
28 13.650000 -2.520000 23.590000 -1.618630 -0.399749 2.845694
29 13.650001 -2.520000 -23.590000 1.566478 0.532536 3.005843
30 17.352945 3.737336 -0.000000 -0.132274 0.052143 -0.136420
31 35.559998 0.000000 0.000000 -0.112355 0.232407 -0.313426
32 37.520000 0.000000 0.000000 -0.013450 0.008455 0.066284
33 -17.649183 -3.908985 -19.431427 -1.744337 1.163225 1.318600
34 -0.350000 0.700000 -8.050000 1.774194 0.062255 0.303204
35 18.480000 12.180000 26.880001 1.710146 0.010739 1.856594
36 37.730000 0.000000 -0.000000 -0.006093 0.016968 -0.266829
37 32.059998 0.000000 -0.000000 -0.004845 -0.021751 -0.309700
38 16.170000 -9.870001 -18.059999 -1.764914 -0.602286 -1.130934
39 16.240000 -12.670000 9.730000 -1.599420 -0.780664 -1.327832
40 19.670000 0.000000 -0.000001 0.971823 -0.864545 -0.361116
41 40.950001 -0.000000 0.000000 0.000000 -0.000000 -1.104022
42 34.019997 -1.259999 17.639999 2.870594 -0.463705 0.804070
43 26.389999 0.000000 0.000000 0.073135 -0.842059 -0.125078
44 43.820000 0.000000 0.000000 2.140156 -0.263200 -0.716230
45 20.090000 0.979999 -9.800000 0.037369 0.021660 1.623560
46 15.120002 0.000000 0.000000 0.000000 -0.000000 1.928986
47 20.370001 -1.119999 0.560000 -0.000000 0.000000 1.587769
48 19.530001 0.000000 0.000000 0.000000 -0.000000 1.991106
49 20.720003 1.400001 12.180000 -0.000000 0.000000 1.449133
50 18.130001 -0.000001 0.000000 0.000000 -0.000000 2.340474
51 7.420000 7.070000 9.589999 -2.604852 0.157724 1.357514
52 10.710000 -0.000001 0.000000 0.000000 -0.000000 0.942501
53 -18.001019 -4.541636 18.937143 0.476490 -1.069000 2.648173
54 -0.350000 0.700000 8.050000 -1.589966 -0.403328 -0.235158
55 18.410002 12.180000 -26.880001 -1.911047 0.104534 1.654828
56 37.730000 0.000000 0.000000 -0.023270 0.111813 -0.166423
57 32.059998 0.000000 0.000000 -0.006888 0.143362 -0.122745
58 16.100000 -9.870001 18.059999 1.703303 0.280369 -1.061881
59 16.170000 -12.670000 -9.730000 1.917885 0.806857 -0.910316
60 19.670000 0.000000 -0.000001 -1.134098 0.097412 -0.854656
61 40.950001 -0.000000 0.000000 0.000000 -0.000000 -0.857832
62 34.019997 -1.259998 -17.640001 -1.763605 0.094594 1.289358
63 26.389999 0.000000 0.000000 -0.111080 0.141155 -0.605974
64 43.820000 -0.000000 -0.000000 -1.862934 0.277555 -0.351665
65 20.090000 0.979999 9.800000 -0.037369 -0.021660 1.623560
66 15.120001 0.000000 0.000000 0.000000 -0.000000 1.928986
67 20.370001 -1.119999 -0.560000 0.000000 -0.000000 1.587769
68 19.530001 0.000000 0.000000 0.000000 -0.000000 1.991107
69 20.720001 1.400000 -12.180001 0.000000 -0.000000 1.449133
70 18.130003 0.000000 0.000000 0.000000 -0.000000 2.340474
71 7.420000 7.070001 -9.589999 2.604852 -0.157724 1.357514
72 10.710000 0.000000 0.000000 0.000000 -0.000000 0.942501
73 -1.260000 1.470000 0.000000 0.118662 -0.106844 -0.539540
time 10
0 0.000000 0.000000 0.000000 1.570796 -0.000000 0.000000
1 0.673980 59.130310 -8.464369 -0.094335 -0.330468 -1.606068
2 68.723625 -68.979309 45.702194 -0.581567 -0.496754 0.346047
3 0.000000 0.000000 49.770000 -0.000000 -1.570796 0.000000
4 49.840000 0.000000 0.000000 0.000000 -0.000000 0.000000
5 49.840000 0.000000 0.000000 0.000000 -0.000000 0.000000
6 49.840000 0.000000 0.000000 0.000000 -0.000000 0.000000
7 49.840000 0.000000 0.000000 0.000000 -0.000000 0.000000
8 49.840000 0.000000 0.000000 0.000000 -0.000000 0.000000
9 49.770000 0.000000 0.000000 0.000000 -0.000000 0.000000
10 87.378433 37.623322 97.598930 1.023066 -1.046669 -0.803902
11 -0.000000 0.000000 49.840000 -0.000000 -1.570796 0.000000
12 49.980000 -0.000000 0.000000 0.000000 -0.000000 0.000000
13 49.770000 0.000000 0.000000 0.000000 -0.000000 0.000000
14 49.980000 0.000000 0.000000 0.000000 -0.000000 -0.000000
15 49.349998 0.000000 0.000000 0.000000 -0.000000 0.000000
16 50.049995 -0.000000 -0.000000 0.000000 -0.000000 0.000000
17 50.259998 0.000000 0.000000 0.000000 -0.000000 0.000000
18 -93.367950 -3.258995 26.077568 -0.014074 -0.146171 1.257097
19 114.378220 -6.714101 -45.732803 1.569698 -0.308186 -1.309824
20 97.976799 20.551140 45.007622 1.292085 -0.161929 -1.259225
21 56.627914 3.348591 126.912651 1.674114 -0.345971 -1.319822
22 -38.657730 -46.277351 150.646210 1.623649 -0.232665 -1.546732
23 -110.748856 -65.630936 87.095657 1.722788 -0.234526 -1.253585
24 -95.699501 -46.271164 -33.255428 1.456752 -0.147594 -1.334525
25 0.000000 0.000000 0.000000 -1.570797 -1.569837 0.000000
26 1.960000 22.259998 0.000000 -2.976308 -0.009140 2.805982
27 13.860002 -25.129999 0.000000 3.019071 0.038649 -2.830966
28 13.650000 -2.520000 23.590000 -1.496694 -0.358775 2.773864
29 13.650001 -2.520000 -23.590000 1.556388 0.487985 2.971619
30 17.360001 3.710000 -0.000000 -0.095878 0.097652 0.091799
31 35.559998 0.000000 0.000000 -0.129075 0.280611 0.010652
32 37.520000 0.000000 0.000000 0.325038 0.093049 -1.623299
33 8.516758 -21.876110 -12.028976 -0.714963 1.050575 -2.280229
34 -0.350000 0.700000 -8.050000 1.760836 0.333102 0.169410
35 18.480000 12.180000 26.880001 1.661042 -0.230915 1.619677
36 37.730000 0.000000 -0.000000 -0.009718 0.082453 0.076541
37 32.059998 0.000000 -0.000000 -0.040578 0.032474 -0.124364
38 16.170000 -9.870001 -18.059999 -1.745328 -0.603502 -1.373094
39 16.240000 -12.670000 9.730000 -1.556088 -0.725878 -1.521257
40 19.670000 0.000000 -0.000001 0.629674 -0.323162 -0.237980
41 40.950001 -0.000000 0.000000 0.000000 -0.000000 -1.400853
42 34.019997 -1.259999 17.639999 3.016785 -0.560900 0.659153
43 26.389999 0.000000 0.000000 0.222636 -0.644271 -0.021378
44 43.820000 0.000000 0.000000 1.892898 -0.292502 -0.408177
45 20.090000 0.979999 -9.800000 0.037369 0.021660 1.623560
46 15.120002 0.000000 0.000000 0.000000 -0.000000 1.928986
47 20.370001 -1.119999 0.560000 -0.000000 0.000000 1.587769
48 19.530001 0.000000 0.000000 0.000000 -0.000000 1.991106
49 20.720003 1.400001 12.180000 -0.000000 0.000000 1.449133
50 18.130001 -0.000001 0.000000 0.000000 -0.000000 2.340474
51 7.420000 7.070000 9.589999 -2.604852 0.157724 1.357514
52 10.710000 -0.000001 0.000000 0.000000 -0.000000 0.942501
53 4.804502 -9.707335 24.131634 1.779617 -1.185574 3.105472
54 -0.350000 0.700000 8.050000 -1.574644 -0.291480 -0.167420
55 18.410002 12.180000 -26.880001 -1.945720 0.456694 1.582720
56 37.730000 0.000000 0.000000 -0.041486 0.052911 -0.158522
57 32.059998 0.000000 0.000000 -0.088110 0.028020 -0.117976
58 16.100000 -9.870001 18.059999 1.583329 0.047309 -0.783643
59 16.170000 -12.670000 -9.730000 1.731990 0.325003 -0.761457
60 19.670000 0.000000 -0.000001 -1.766709 0.469304 -0.704749
61 40.950001 -0.000000 0.000000 0.000000 -0.000000 -1.534216
62 34.019997 -1.259998 -17.640001 -1.743487 0.124259 1.297827
63 26.389999 0.000000 0.000000 -0.055988 0.131047 -0.585379
64 43.820000 -0.000000 -0.000000 -1.752763 0.437823 -0.468109
65 20.090000 0.979999 9.800000 -0.037369 -0.021660 1.623560
66 15.120001 0.000000 0.000000 0.000000 -0.000000 1.928986
67 20.370001 -1.119999 -0.560000 0.000000 -0.000000 1.587769
68 19.530001 0.000000 0.000000 0.000000 -0.000000 1.991106
69 20.720001 1.400000 -12.180001 0.000000 -0.000000 1.449133
70 18.130003 0.000000 0.000000 0.000000 -0.000000 2.340474
71 7.420000 7.070001 -9.589999 2.604852 -0.157724 1.357514
72 10.710000 0.000000 0.000000 0.000000 -0.000000 0.942501
73 -1.260000 1.470000 0.000000 -0.027960 0.034663 0.701029
time 11
0 0.000000 0.000000 0.000000 1.570796 -0.000000 0.000000
1 0.580000 147.243225 35.520798 1.735464 -1.287519 3.026767
2 36.996460 -76.321472 27.301208 -0.695965 0.443862 0.076163
3 0.000000 0.000000 49.770000 -0.000000 -1.570796 0.000000
4 49.840000 0.000000 0.000000 0.000000 -0.000000 0.000000
5 49.840000 0.000000 0.000000 0.000000 -0.000000 0.000000
6 49.840000 0.000000 0.000000 0.000000 -0.000000 0.000000
7 49.840000 0.000000 0.000000 0.000000 -0.000000 0.000000
8 49.840000 0.000000 0.000000 0.000000 -0.000000 0.000000
9 49.770000 0.000000 0.000000 0.000000 -0.000000 0.000000
10 34.446594 78.473511 -19.922943 0.718164 0.586028 0.084523
11 -0.000000 0.000000 49.840000 -0.000000 -1.570796 0.000000
12 49.980000 -0.000000 0.000000 0.000000 -0.000000 0.000000
13 49.770000 0.000000 0.000000 0.000000 -0.000000 0.000000
14 49.980000 0.000000 0.000000 0.000000 -0.000000 -0.000000
15 49.349998 0.000000 0.000000 0.000000 -0.000000 0.000000
16 50.049995 -0.000000 -0.000000 0.000000 -0.000000 0.000000
17 50.259998 0.000000 0.000000 0.000000 -0.000000 0.000000
18 -99.188889 -15.255615 93.930740 0.397099 0.195799 1.552381
19 125.204163 -36.210121 -53.050034 1.560683 -0.581903 -1.415888
20 105.675697 20.653023 34.547840 1.265740 -0.393908 -1.250085
21 61.096233 12.866969 123.501228 1.714116 -0.352024 -1.425080
22 -42.133224 -33.559372 137.852875 1.685766 -0.248556 -1.590918
23 -109.537743 -47.542736 78.025452 1.758025 -0.182859 -1.371486
24 -92.552002 -40.228912 -31.981186 1.540598 -0.173433 -1.475579
25 0.000000 0.000000 0.000000 -1.570797 -1.569671 0.000000
26 1.960000 22.259998 0.000000 -3.123167 0.080801 -3.131404
27 13.860002 -25.129999 0.000000 3.023418 0.079011 -2.543346
28 13.650000 -2.520000 23.590000 -1.747100 -0.322100 -2.901151
29 13.650001 -2.520000 -23.590000 1.692257 0.439843 -3.001518
30 17.360001 3.710000 -0.000000 -0.060952 -0.000313 0.196630
31 35.559998 0.000000 0.000000 -0.226838 -0.133269 0.256769
32 37.520000 0.000000 0.000000 0.152065 -0.029204 -0.682775
33 -10.618812 -17.535280 -16.412663 0.313181 1.290486 -2.158035
34 -0.350000 0.700000 -8.050000 1.756172 0.377003 0.166303
35 18.480000 12.180000 26.880001 1.604948 -0.586457 1.992031
36 37.730000 0.000000 -0.000000 -0.121179 -0.023007 -0.221562
37 32.059998 0.000000 -0.000000 -0.198333 -0.054540 -0.199250
38 16.170000 -9.870001 -18.059999 -1.599387 -0.201173 -1.232961
39 16.240000 -12.670000 9.730000 -1.494455 -0.227918 -1.407562
40 19.670000 0.000000 -0.000001 0.132204 -0.620013 -0.110828
41 40.950001 -0.000000 0.000000 0.000000 -0.000000 -1.412469
42 34.019997 -1.259999 17.639999 2.762209 -0.664272 0.631979
43 26.389999 0.000000 0.000000 -0.217792 -0.224771 0.095486
44 43.820000 0.000000 0.000000 1.805868 -0.279898 -0.312096
45 20.090000 0.979999 -9.800000 0.037369 0.021660 1.623560
46 15.120002 0.000000 0.000000 0.000000 -0.000000 1.928986
47 20.370001 -1.119999 0.560000 -0.000000 0.000000 1.587769
48 19.530001 0.000000 0.000000 0.000000 -0.000000 1.991106
49 20.720003 1.400001 12.180000 -0.000000 0.000000 1.449133
50 18.130001 -0.000001 0.000000 0.000000 -0.000000 2.340474
51 7.420000 7.070000 9.589999 -2.604852 0.157724 1.357514
52 10.710000 -0.000001 0.000000 0.000000 -0.000000 0.942501
53 -9.551664 -11.897134 21.506731 0.350574 -1.490916 -2.812153
54 -0.350000 0.700000 8.050000 -1.601748 -0.105647 0.166356
55 18.410002 12.180000 -26.880001 -2.035249 0.478157 1.274200
56 37.730000 0.000000 0.000000 0.004477 -0.078975 -0.243421
57 32.059998 0.000000 0.000000 0.052184 -0.043537 -0.180661
58 16.100000 -9.870001 18.059999 1.452108 -0.278147 -0.824496
59 16.170000 -12.670000 -9.730000 1.510965 -0.131436 -0.942306
60 19.670000 0.000000 -0.000001 -0.395825 0.803780 0.161802
61 40.950001 -0.000000 0.000000 0.000000 -0.000000 -1.131704
62 34.019997 -1.259998 -17.640001 -1.865617 0.386318 1.097461
63 26.389999 0.000000 0.000000 -0.142098 0.152495 -0.055734
64 43.820000 -0.000000 -0.000000 -1.296769 0.325371 -0.273769
65 20.090000 0.979999 9.800000 -0.037369 -0.021660 1.623560
66 15.120001 0.000000 0.000000 0.000000 -0.000000 1.928986
67 20.370001 -1.119999 -0.560000 0.000000 -0.000000 1.587769
68 19.530001 0.000000 0.000000 0.000000 -0.000000 1.991107
69 20.720001 1.400000 -12.180001 0.000000 -0.000000 1.449133
70 18.130003 0.000000 0.000000 0.000000 -0.000000 2.340474
71 7.420000 7.070001 -9.589999 2.604852 -0.157724 1.357514
72 10.710000 0.000000 0.000000 0.000000 -0.000000 0.942501
73 -1.260000 1.470000 0.000000 -0.114969 0.231749 0.435559
time 12
0 0.000000 0.000000 0.000000 1.570796 -0.000000 0.000000
1 0.290000 193.693253 14.992712 1.179286 -1.196379 -2.827794
2 22.219597 -87.535950 34.637253 0.259162 -0.352705 -0.396565
3 0.000000 0.000000 49.770000 -0.000000 -1.570796 0.000000
4 49.840000 0.000000 0.000000 0.000000 -0.000000 0.000000
5 49.840000 0.000000 0.000000 0.000000 -0.000000 0.000000
6 49.840000 0.000000 0.000000 0.000000 -0.000000 0.000000
7 49.840000 0.000000 0.000000 0.000000 -0.000000 0.000000
8 49.840000 0.000000 0.000000 0.000000 -0.000000 0.000000
9 49.770000 0.000000 0.000000 0.000000 -0.000000 0.000000
10 49.348488 82.926514 38.972702 0.058732 -0.201133 0.315534
11 -0.000000 0.000000 49.840000 -0.000000 -1.570796 0.000000
12 49.980000 -0.000000 0.000000 0.000000 -0.000000 0.000000
13 49.770000 0.000000 0.000000 0.000000 -0.000000 0.000000
14 49.980000 0.000000 0.000000 0.000000 -0.000000 -0.000000
15 49.349998 0.000000 0.000000 0.000000 -0.000000 0.000000
16 50.049995 -0.000000 -0.000000 0.000000 -0.000000 0.000000
17 50.259998 0.000000 0.000000 0.000000 -0.000000 0.000000
18 -120.410339 -39.927864 52.912300 -0.101782 -0.044120 1.731746
19 157.652679 6.339812 -53.528370 1.639807 -0.481617 -1.517329
20 124.206535 48.218575 79.325928 1.417924 -0.247009 -1.368003
21 54.793465 44.922039 125.552658 1.690700 -0.243471 -1.499279
22 -45.265011 -19.958170 128.702759 1.606235 -0.187006 -1.573240
23 -110.320488 -23.455318 71.106773 1.646018 -0.035322 -1.493449
24 -111.127281 -19.065966 -34.146629 1.560481 -0.231835 -1.529605
25 0.000000 0.000000 0.000000 -1.570796 -1.570339 0.000000
26 1.960000 22.259998 0.000000 -3.020153 0.077464 2.516852
27 13.860002 -25.129999 0.000000 3.054324 0.040642 -2.840610
28 13.650000 -2.520000 23.590000 -1.568499 -0.442712 2.632721
29 13.650001 -2.520000 -23.590000 1.368652 0.438335 2.583967
30 17.360001 3.710000 -0.000000 -0.057577 0.008616 -0.039126
31 35.559998 0.000000 0.000000 -0.150732 0.118405 -0.113682
32 37.520000 0.000000 0.000000 -0.016394 0.010663 0.079433
33 -17.643507 -2.836135 -19.535673 0.730995 1.372761 -2.501445
34 -0.350000 0.700000 -8.050000 1.674593 0.279504 0.108449
35 18.480000 12.180000 26.880001 1.725522 -0.298493 1.514308
36 37.730000 0.000000 -0.000000 0.040721 0.136624 0.096473
37 32.059998 0.000000 -0.000000 -0.099976 0.179732 -0.079847
38 16.170000 -9.870001 -18.059999 -1.449978 0.346468 -0.832740
39 16.240000 -12.670000 9.730000 -1.460742 0.263699 -1.054003
40 19.670000 0.000000 -0.000001 0.342676 -0.675828 0.088217
41 40.950001 -0.000000 0.000000 0.000000 -0.000000 -1.393007
42 34.019997 -1.259999 17.639999 2.819135 -0.528120 0.844249
43 26.389999 0.000000 0.000000 -0.289379 -0.430438 0.002995
44 43.820000 0.000000 0.000000 2.453473 -0.243629 -0.427013
45 20.090000 0.979999 -9.800000 0.037369 0.021660 1.623560
46 15.120002 0.000000 0.000000 0.000000 -0.000000 1.928986
47 20.370001 -1.119999 0.560000 -0.000000 0.000000 1.587769
48 19.530001 0.000000 0.000000 0.000000 -0.000000 1.991106
49 20.720003 1.400001 12.180000 -0.000000 0.000000 1.449133
50 18.130001 -0.000001 0.000000 0.000000 -0.000000 2.340474
51 7.420000 7.070000 9.589999 -2.604852 0.157724 1.357514
52 10.710000 -0.000001 0.000000 0.000000 -0.000000 0.942501
53 -18.022869 -4.497882 18.936771 -0.790427 -1.297805 -2.446924
54 -0.350000 0.700000 8.050000 -1.598050 -0.125587 0.172556
55 18.410002 12.180000 -26.880001 -1.400597 0.240560 1.839104
56 37.730000 0.000000 0.000000 0.014796 0.117000 0.212633
57 32.059998 0.000000 0.000000 -0.103112 0.176421 -0.131580
58 16.100000 -9.870001 18.059999 1.368618 -0.470461 -1.043581
59 16.170000 -12.670000 -9.730000 1.414200 -0.278748 -1.320746
60 19.670000 0.000000 -0.000001 -0.106131 0.755759 0.359515
61 40.950001 -0.000000 0.000000 0.000000 -0.000000 -1.365095
62 34.019997 -1.259998 -17.640001 -1.781987 0.351472 1.161308
63 26.389999 0.000000 0.000000 -0.078089 0.006593 -0.219731
64 43.820000 -0.000000 -0.000000 -2.210041 0.069192 -0.268280
65 20.090000 0.979999 9.800000 -0.037369 -0.021660 1.623560
66 15.120001 0.000000 0.000000 0.000000 -0.000000 1.928986
67 20.370001 -1.119999 -0.560000 0.000000 -0.000000 1.587769
68 19.530001 0.000000 0.000000 0.000000 -0.000000 1.991106
69 20.720001 1.400000 -12.180001 0.000000 -0.000000 1.449133
70 18.130003 0.000000 0.000000 0.000000 -0.000000 2.340474
71 7.420000 7.070001 -9.589999 2.604852 -0.157724 1.357514
72 10.710000 0.000000 0.000000 0.000000 -0.000000 0.942501
73 -1.260000 1.470000 0.000000 0.411740 0.021901 -0.034799
time 13
0 0.000000 0.000000 0.000000 1.570796 -0.000000 0.000000
1 -0.000000 175.000000 0.000000 1.348547 -1.393561 -2.942446
2 42.700005 -95.410034 37.869949 0.743526 -0.136452 -0.687256
3 0.000000 0.000000 49.770000 -0.000000 -1.570796 0.000000
4 49.840000 0.000000 0.000000 0.000000 -0.000000 0.000000
5 49.840000 0.000000 0.000000 0.000000 -0.000000 0.000000
6 49.840000 0.000000 0.000000 0.000000 -0.000000 0.000000
7 49.840000 0.000000 0.000000 0.000000 -0.000000 0.000000
8 49.840000 0.000000 0.000000 0.000000 -0.000000 0.000000
9 49.770000 0.000000 0.000000 0.000000 -0.000000 0.000000
10 53.760025 91.559998 56.630020 -0.934041 -0.208763 0.593870
11 -0.000000 0.000000 49.840000 -0.000000 -1.570796 0.000000
12 49.980000 -0.000000 0.000000 0.000000 -0.000000 0.000000
13 49.770000 0.000000 0.000000 0.000000 -0.000000 0.000000
14 49.980000 0.000000 0.000000 0.000000 -0.000000 -0.000000
15 49.349998 0.000000 0.000000 0.000000 -0.000000 0.000000
16 50.049995 -0.000000 -0.000000 0.000000 -0.000000 0.000000
17 50.259998 0.000000 0.000000 0.000000 -0.000000 0.000000
18 -88.550003 -16.940001 66.500008 -0.038593 -0.019334 1.745320
19 126.419998 -8.190000 -35.769997 1.570796 -0.295109 -1.570796
20 111.650009 19.880001 67.690002 1.570796 0.082036 -1.570796
21 49.140003 9.240001 123.130005 1.570797 -0.154157 -1.570797
22 -49.140003 -5.599998 123.130005 1.570797 -0.154157 -1.570797
23 -111.650009 -2.520000 67.690002 1.570796 0.082036 -1.570796
24 -126.420006 16.309999 -35.769997 1.570796 -0.295109 -1.570796
25 0.000000 0.000000 0.000000 -1.570796 -1.570796 0.000000
26 1.960000 22.259998 0.000000 -3.141592 -0.000000 2.878737
27 13.860002 -25.129999 0.000000 -3.141592 -0.000000 -2.705991
28 13.650000 -2.520000 23.590000 -1.570796 -0.523573 3.141592
29 13.650001 -2.520000 -23.590000 1.570796 0.523573 3.141592
30 17.360001 3.710000 -0.000000 0.000000 -0.000000 -0.000000
31 35.559998 0.000000 0.000000 0.000062 0.044040 -0.088030
32 37.520000 0.000000 0.000000 0.000000 -0.000000 0.000000
33 -17.430000 -5.599999 -19.179998 0.471158 1.375624 -2.678962
34 -0.350000 0.700000 -8.050000 1.569360 0.209606 -0.000151
35 18.480000 12.180000 26.880001 1.616266 -0.207809 1.539898
36 37.730000 0.000000 -0.000000 0.011980 -0.071260 -0.166709
37 32.059998 0.000000 -0.000000 0.013845 -0.155993 -0.023147
38 16.170000 -9.870001 -18.059999 -1.570332 0.079809 -1.282453
39 16.240000 -12.670000 9.730000 -1.567719 0.084576 -1.261106
40 19.670000 0.000000 -0.000001 0.568540 -0.745545 0.010971
41 40.950001 -0.000000 0.000000 0.000000 -0.000000 -1.143276
42 34.019997 -1.259999 17.639999 2.885437 -0.448323 0.759074
43 26.389999 0.000000 0.000000 0.041415 -0.829889 0.010167
44 43.820000 0.000000 0.000000 2.766842 -0.032144 -0.169145
45 20.090000 0.979999 -9.800000 0.037369 0.021660 1.623560
46 15.120002 0.000000 0.000000 0.000000 -0.000000 1.928986
47 20.370001 -1.119999 0.560000 -0.000000 0.000000 1.587769
48 19.530001 0.000000 0.000000 0.000000 -0.000000 1.991107
49 20.720003 1.400001 12.180000 -0.000000 0.000000 1.449133
50 18.130001 -0.000001 0.000000 0.000000 -0.000000 2.340474
51 7.420000 7.070000 9.589999 -2.604852 0.157724 1.357514
52 10.710000 -0.000001 0.000000 0.000000 -0.000000 0.942501
53 -17.430000 -5.599999 19.179998 -0.471158 -1.375624 -2.678962
54 -0.350000 0.700000 8.050000 -1.569360 -0.209606 -0.000151
55 18.410002 12.180000 -26.880001 -1.637795 0.206705 1.449167
56 37.730000 0.000000 0.000000 -0.031920 0.163655 -0.240119
57 32.059998 0.000000 0.000000 -0.025501 0.157114 -0.094311
58 16.100000 -9.870001 18.059999 1.563382 -0.068786 -1.211461
59 16.170000 -12.670000 -9.730000 1.560866 -0.073433 -1.194082
60 19.670000 0.000000 -0.000001 -0.494656 0.539904 -0.135240
61 40.950001 -0.000000 0.000000 0.000000 -0.000000 -1.107239
62 34.019997 -1.259998 -17.640001 -1.781119 0.143294 1.261305
63 26.389999 0.000000 0.000000 -0.149329 0.149722 -0.513375
64 43.820000 -0.000000 -0.000000 3.074326 -0.022351 -0.069289
65 20.090000 0.979999 9.800000 -0.037369 -0.021660 1.623560
66 15.120001 0.000000 0.000000 0.000000 -0.000000 1.928986
67 20.370001 -1.119999 -0.560000 0.000000 -0.000000 1.587769
68 19.530001 0.000000 0.000000 0.000000 -0.000000 1.991106
69 20.720001 1.400000 -12.180001 0.000000 -0.000000 1.449133
70 18.130003 0.000000 0.000000 0.000000 -0.000000 2.340474
71 7.420000 7.070001 -9.589999 2.604852 -0.157724 1.357514
72 10.710000 0.000000 0.000000 0.000000 -0.000000 0.942501
73 -1.260000 1.470000 0.000000 0.127666 0.052064 0.127666
end
