version 1
nodes
0 "npc_boss_016" -1
1 "Bip001" 0
2 "Bip001 Prop3" 1
3 "Bone035" 2
4 "Bone036" 3
5 "Bone037" 4
6 "Bone038" 5
7 "Bone039" 6
8 "Bone040" 7
9 "Bone041" 8
10 "Bip001 Prop2" 1
11 "Bone028" 10
12 "Bone029" 11
13 "Bone030" 12
14 "Bone031" 13
15 "Bone032" 14
16 "Bone033" 15
17 "Bone034" 16
18 "Bip001 Prop1" 1
19 "Bone027" 18
20 "Bone026" 18
21 "Bone025" 18
22 "Bone024" 18
23 "Bone022" 18
24 "Bone021" 18
25 "Bip001 Pelvis" 1
26 "Bone020" 25
27 "Bone019" 25
28 "Bone018" 25
29 "Bone017" 25
30 "Bip001 Spine" 25
31 "Bip001 Spine1" 30
32 "Bip001 Neck" 31
33 "Bip001 R Clavicle" 32
34 "Bone011" 33
35 "Bone014" 34
36 "Bone015" 35
37 "Bone016" 36
38 "Bone013" 34
39 "Bone012" 34
40 "Bip001 R UpperArm" 33
41 "Bip001 R Forearm" 40
42 "Bone009" 41
43 "Bone010" 42
44 "Bip001 R Hand" 41
45 "Bip001 R Finger3" 44
46 "Bip001 R Finger31" 45
47 "Bip001 R Finger2" 44
48 "Bip001 R Finger21" 47
49 "Bip001 R Finger1" 44
50 "Bip001 R Finger11" 49
51 "Bip001 R Finger0" 44
52 "Bip001 R Finger01" 51
53 "Bip001 L Clavicle" 32
54 "Bone003" 53
55 "Bone006" 54
56 "Bone007" 55
57 "Bone008" 56
58 "Bone005" 54
59 "Bone004" 54
60 "Bip001 L UpperArm" 53
61 "Bip001 L Forearm" 60
62 "Bone001" 61
63 "Bone002" 62
64 "Bip001 L Hand" 61
65 "Bip001 L Finger3" 64
66 "Bip001 L Finger31" 65
67 "Bip001 L Finger2" 64
68 "Bip001 L Finger21" 67
69 "Bip001 L Finger1" 64
70 "Bip001 L Finger11" 69
71 "Bip001 L Finger0" 64
72 "Bip001 L Finger01" 71
73 "Bip001 Head" 32
end
skeleton
time 0
0 0.000000 0.000000 0.000000 1.570796 -0.000000 0.000000
1 -1.645810 166.110809 -1.097477 1.441533 -1.395332 -3.034416
2 45.298103 -91.449402 43.829681 0.588561 -0.273235 -0.511016
3 0.000000 0.000000 49.770000 -0.000000 -1.570796 0.000000
4 49.840000 0.000000 0.000000 0.000000 -0.000000 0.000000
5 49.840000 0.000000 0.000000 0.000000 -0.000000 0.000000
6 49.840000 0.000000 0.000000 0.000000 -0.000000 0.000000
7 49.840000 0.000000 0.000000 0.000000 -0.000000 0.000000
8 49.840000 0.000000 0.000000 0.000000 -0.000000 0.000000
9 49.770000 0.000000 0.000000 0.000000 -0.000000 0.000000
10 55.607410 86.297058 60.197250 -0.770897 -0.352416 0.423500
11 -0.000000 0.000000 49.840000 -0.000000 -1.570796 0.000000
12 49.980000 -0.000000 0.000000 0.000000 -0.000000 0.000000
13 49.770000 0.000000 0.000000 0.000000 -0.000000 0.000000
14 49.980000 0.000000 0.000000 0.000000 -0.000000 -0.000000
15 49.349998 0.000000 0.000000 0.000000 -0.000000 0.000000
16 50.049995 -0.000000 -0.000000 0.000000 -0.000000 0.000000
17 50.259998 0.000000 0.000000 0.000000 -0.000000 0.000000
18 -87.675003 -14.613471 71.030228 -0.020884 -0.019702 1.745153
19 125.619057 -8.190000 -37.900135 1.550993 -0.244311 -1.588686
20 112.248230 19.880001 65.696617 1.513487 0.082154 -1.597019
21 49.210812 9.239999 120.665573 1.565105 -0.139667 -1.582596
22 -48.804909 -5.600000 120.463196 1.579957 -0.137261 -1.565580
23 -111.650009 -2.519999 66.422379 1.603158 0.101221 -1.518426
24 -125.350723 16.309999 -37.503471 1.570796 -0.295109 -1.570796
25 0.000000 0.000000 0.000000 -1.570796 -1.570796 0.000000
26 1.960000 22.259998 0.000000 3.141592 -0.000000 2.818253
27 13.860002 -25.129999 0.000000 3.141592 0.000000 -2.644521
28 13.650000 -2.520000 23.590000 -1.570796 -0.585666 3.141592
29 13.650001 -2.520000 -23.590000 1.570796 0.585666 3.141592
30 17.360001 3.710000 -0.000000 0.000132 0.009665 0.027332
31 35.559998 0.000000 0.000000 0.001448 0.018712 -0.058979
32 37.520000 0.000000 0.000000 0.000000 -0.000000 0.000000
33 -17.430000 -5.599999 -19.179998 0.698016 1.433810 -2.449246
34 -0.350000 0.700000 -8.050000 1.570796 0.278595 -0.000000
35 18.480000 12.180000 26.880001 1.577721 -0.287896 1.668372
36 37.730000 0.000000 -0.000000 0.011735 0.074404 -0.215867
37 32.059998 0.000000 -0.000000 0.028582 -0.165617 -0.106131
38 16.170000 -9.870001 -18.059999 -1.553261 0.149486 -1.191274
39 16.240000 -12.670000 9.730000 -1.551098 0.153105 -1.174757
40 19.670000 0.000000 -0.000001 0.584608 -0.806150 -0.026927
41 40.950001 -0.000000 0.000000 0.000000 -0.000000 -1.216508
42 34.019997 -1.259999 17.639999 2.869564 -0.475191 0.788095
43 26.389999 0.000000 0.000000 0.047382 -0.793617 -0.069034
44 43.820000 0.000000 0.000000 2.700280 -0.079804 -0.299738
45 20.090000 0.979999 -9.800000 0.037369 0.021660 1.623560
46 15.120002 0.000000 0.000000 0.000000 -0.000000 1.928986
47 20.370001 -1.119999 0.560000 -0.000000 0.000000 1.587769
48 19.530001 0.000000 0.000000 0.000000 -0.000000 1.991106
49 20.720003 1.400001 12.180000 -0.000000 0.000000 1.449133
50 18.130001 -0.000001 0.000000 0.000000 -0.000000 2.340474
51 7.420000 7.070000 9.589999 -2.604852 0.157724 1.357514
52 10.710000 -0.000001 0.000000 0.000000 -0.000000 0.942501
53 -17.430000 -5.599999 19.179998 -0.698016 -1.433810 -2.449246
54 -0.350000 0.700000 8.050000 -1.570796 -0.278595 -0.000000
55 18.410002 12.180000 -26.880001 -1.625827 0.295985 1.483496
56 37.730000 0.000000 0.000000 -0.031852 0.055063 -0.285756
57 32.059998 0.000000 0.000000 -0.036816 0.099095 -0.181242
58 16.100000 -9.870001 18.059999 1.539315 -0.132502 -1.090180
59 16.170000 -12.670000 -9.730000 1.536826 -0.136813 -1.082361
60 19.670000 0.000000 -0.000001 -0.514376 0.560654 -0.163317
61 40.950001 -0.000000 0.000000 0.000000 -0.000000 -1.184420
62 34.019997 -1.259998 -17.640001 -1.781659 0.113986 1.258219
63 26.389999 0.000000 0.000000 -0.151208 0.169706 -0.539709
64 43.820000 -0.000000 -0.000000 -3.130484 -0.032708 -0.206985
65 20.090000 0.979999 9.800000 -0.037369 -0.021660 1.623560
66 15.120001 0.000000 0.000000 0.000000 -0.000000 1.928986
67 20.370001 -1.119999 -0.560000 0.000000 -0.000000 1.587769
68 19.530001 0.000000 0.000000 0.000000 -0.000000 1.991106
69 20.720001 1.400000 -12.180001 0.000000 -0.000000 1.449133
70 18.130003 0.000000 0.000000 0.000000 -0.000000 2.340474
71 7.420000 7.070001 -9.589999 2.604852 -0.157724 1.357514
72 10.710000 0.000000 0.000000 0.000000 -0.000000 0.942501
73 -1.260000 1.470000 0.000000 0.126152 0.036506 0.003642
time 1
0 0.000000 0.000000 0.000000 1.570796 -0.000000 0.000000
1 -1.752593 161.316299 -1.166667 1.545439 -1.396586 -3.136308
2 46.047039 -90.356995 44.519958 0.521857 -0.283618 -0.489442
3 0.000000 0.000000 49.770000 -0.000000 -1.570796 0.000000
4 49.840000 0.000000 0.000000 0.000000 -0.000000 0.000000
5 49.840000 0.000000 0.000000 0.000000 -0.000000 0.000000
6 49.840000 0.000000 0.000000 0.000000 -0.000000 0.000000
7 49.840000 0.000000 0.000000 0.000000 -0.000000 0.000000
8 49.840000 0.000000 0.000000 0.000000 -0.000000 0.000000
9 49.770000 0.000000 0.000000 0.000000 -0.000000 0.000000
10 56.471874 86.123322 59.658157 -0.701198 -0.358024 0.408724
11 -0.000000 0.000000 49.840000 -0.000000 -1.570796 0.000000
12 49.980000 -0.000000 0.000000 0.000000 -0.000000 0.000000
13 49.770000 0.000000 0.000000 0.000000 -0.000000 0.000000
14 49.980000 0.000000 0.000000 0.000000 -0.000000 -0.000000
15 49.349998 0.000000 0.000000 0.000000 -0.000000 0.000000
16 50.049995 -0.000000 -0.000000 0.000000 -0.000000 0.000000
17 50.259998 0.000000 0.000000 0.000000 -0.000000 0.000000
18 -86.450012 -14.267037 72.405930 -0.005050 -0.019904 1.744997
19 123.855927 -8.189999 -42.425186 1.509778 -0.136006 -1.627511
20 113.472580 19.880003 61.506668 1.391206 0.084766 -1.656864
21 49.329258 9.240000 115.152580 1.554452 -0.109354 -1.607620
22 -48.066662 -5.599998 114.680740 1.597863 -0.104997 -1.552186
23 -111.650017 -2.519997 63.795921 1.668327 0.142133 -1.407123
24 -123.179260 16.310003 -41.139259 1.570796 -0.295109 -1.570796
25 0.000000 0.000000 0.000000 -1.570796 -1.570796 0.000000
26 1.960000 22.259998 0.000000 -3.141592 0.000000 2.805266
27 13.860002 -25.129999 0.000000 -3.141592 0.000000 -2.631424
28 13.650000 -2.520000 23.590000 -1.570796 -0.597275 3.141592
29 13.650001 -2.520000 -23.590000 1.570796 0.597275 3.141592
30 17.360001 3.710000 -0.000000 0.000108 0.011999 0.018000
31 35.559998 0.000000 0.000000 0.002019 0.004659 0.008005
32 37.520000 0.000000 0.000000 0.000000 -0.000000 0.000000
33 -17.430000 -5.599999 -19.179998 0.720669 1.437388 -2.426594
34 -0.350000 0.700000 -8.050000 1.570310 0.290392 -0.000071
35 18.480000 12.180000 26.880001 1.600724 -0.370755 1.563144
36 37.730000 0.000000 -0.000000 0.000639 0.245949 -0.207144
37 32.059998 0.000000 -0.000000 0.023354 -0.047308 -0.193585
38 16.170000 -9.870001 -18.059999 -1.555954 0.163148 -1.267439
39 16.240000 -12.670000 9.730000 -1.555011 0.165362 -1.264317
40 19.670000 0.000000 -0.000001 0.651249 -0.831547 -0.080201
41 40.950001 -0.000000 0.000000 0.000000 -0.000000 -1.240732
42 34.019997 -1.259999 17.639999 2.953168 -0.428060 0.646436
43 26.389999 0.000000 0.000000 0.011618 -0.721062 -0.161314
44 43.820000 0.000000 0.000000 2.640539 -0.088113 -0.306716
45 20.090000 0.979999 -9.800000 0.037369 0.021660 1.623560
46 15.120002 0.000000 0.000000 0.000000 -0.000000 1.928986
47 20.370001 -1.119999 0.560000 -0.000000 0.000000 1.587769
48 19.530001 0.000000 0.000000 0.000000 -0.000000 1.991106
49 20.720003 1.400001 12.180000 -0.000000 0.000000 1.449133
50 18.130001 -0.000001 0.000000 0.000000 -0.000000 2.340474
51 7.420000 7.070000 9.589999 -2.604852 0.157724 1.357514
52 10.710000 -0.000001 0.000000 0.000000 -0.000000 0.942501
53 -17.430000 -5.599999 19.179998 -0.720669 -1.437388 -2.426594
54 -0.350000 0.700000 8.050000 -1.570310 -0.290392 -0.000071
55 18.410002 12.180000 -26.880001 -1.645308 0.375583 1.406680
56 37.730000 0.000000 0.000000 -0.025679 -0.004127 -0.267427
57 32.059998 0.000000 0.000000 -0.028230 -0.005122 -0.266000
58 16.100000 -9.870001 18.059999 1.550385 -0.155339 -1.237543
59 16.170000 -12.670000 -9.730000 1.550659 -0.158723 -1.239617
60 19.670000 0.000000 -0.000001 -0.576984 0.547463 -0.202970
61 40.950001 -0.000000 0.000000 0.000000 -0.000000 -1.188948
62 34.019997 -1.259998 -17.640001 -1.786302 0.099662 1.216573
63 26.389999 0.000000 0.000000 -0.152922 0.240580 -0.547361
64 43.820000 -0.000000 -0.000000 -3.069355 -0.029032 -0.216914
65 20.090000 0.979999 9.800000 -0.037369 -0.021660 1.623560
66 15.120001 0.000000 0.000000 0.000000 -0.000000 1.928986
67 20.370001 -1.119999 -0.560000 0.000000 -0.000000 1.587769
68 19.530001 0.000000 0.000000 0.000000 -0.000000 1.991106
69 20.720001 1.400000 -12.180001 0.000000 -0.000000 1.449133
70 18.130003 0.000000 0.000000 0.000000 -0.000000 2.340474
71 7.420000 7.070001 -9.589999 2.604852 -0.157724 1.357514
72 10.710000 0.000000 0.000000 0.000000 -0.000000 0.942501
73 -1.260000 1.470000 0.000000 0.124953 0.044329 -0.056720
time 2
0 0.000000 0.000000 0.000000 1.570796 -0.000000 0.000000
1 -0.140000 158.707504 -0.065625 1.595226 -1.396445 3.097085
2 44.415009 -92.990601 39.335571 0.567667 -0.162092 -0.656828
3 0.000000 0.000000 49.770000 -0.000000 -1.570796 0.000000
4 49.840000 0.000000 0.000000 0.000000 -0.000000 0.000000
5 49.840000 0.000000 0.000000 0.000000 -0.000000 0.000000
6 49.840000 0.000000 0.000000 0.000000 -0.000000 0.000000
7 49.840000 0.000000 0.000000 0.000000 -0.000000 0.000000
8 49.840000 0.000000 0.000000 0.000000 -0.000000 0.000000
9 49.770000 0.000000 0.000000 0.000000 -0.000000 0.000000
10 55.895023 91.638763 54.766266 -0.753643 -0.220900 0.581341
11 -0.000000 0.000000 49.840000 -0.000000 -1.570796 0.000000
12 49.980000 -0.000000 0.000000 0.000000 -0.000000 0.000000
13 49.770000 0.000000 0.000000 0.000000 -0.000000 0.000000
14 49.980000 0.000000 0.000000 0.000000 -0.000000 -0.000000
15 49.349998 0.000000 0.000000 0.000000 -0.000000 0.000000
16 50.049995 -0.000000 -0.000000 0.000000 -0.000000 0.000000
17 50.259998 0.000000 0.000000 0.000000 -0.000000 0.000000
18 -85.605629 -16.345001 72.695007 0.003914 -0.020213 1.744907
19 122.255005 -8.190000 -46.593750 1.470347 -0.036769 -1.664114
20 114.590012 19.880001 57.526878 1.276645 0.086656 -1.711257
21 49.454998 9.240000 109.466881 1.541199 -0.078991 -1.632701
22 -47.320000 -5.600000 109.016251 1.616723 -0.070761 -1.539392
23 -111.580002 -2.519997 61.451248 1.726387 0.178683 -1.311057
24 -121.270630 16.310001 -44.288128 1.570796 -0.295109 -1.570796
25 0.000000 0.000000 0.000000 -1.570796 -1.570796 0.000000
26 1.960000 22.259998 0.000000 3.141592 0.000000 2.873781
27 13.860002 -25.129999 0.000000 3.141592 -0.000000 -2.700891
28 13.650000 -2.520000 23.590000 -1.570796 -0.529403 3.141593
29 13.650001 -2.520000 -23.590000 1.570796 0.529403 3.141592
30 17.360001 3.710000 -0.000000 -0.000108 0.006998 -0.030998
31 35.559998 0.000000 0.000000 0.004415 0.007780 0.105080
32 37.520000 0.000000 0.000000 0.000000 -0.000000 0.000000
33 -17.430000 -5.599999 -19.179998 0.482857 1.380079 -2.667260
34 -0.350000 0.700000 -8.050000 1.570077 0.215304 -0.000078
35 18.480000 12.180000 26.880001 1.684460 -0.421727 1.317999
36 37.730000 0.000000 -0.000000 0.005059 0.201186 -0.139314
37 32.059998 0.000000 -0.000000 -0.008655 0.176573 -0.256449
38 16.170000 -9.870001 -18.059999 -1.571074 0.163638 -1.427203
39 16.240000 -12.670000 9.730000 -1.573204 0.166234 -1.436923
40 19.670000 0.000000 -0.000001 0.760120 -0.809046 -0.143355
41 40.950001 -0.000000 0.000000 0.000000 -0.000000 -1.204008
42 34.019997 -1.259999 17.639999 3.045715 -0.347596 0.488805
43 26.389999 0.000000 0.000000 -0.020076 -0.727025 -0.166998
44 43.820000 0.000000 0.000000 2.594776 -0.036771 -0.179001
45 20.090000 0.979999 -9.800000 0.037369 0.021660 1.623560
46 15.120002 0.000000 0.000000 0.000000 -0.000000 1.928986
47 20.370001 -1.119999 0.560000 -0.000000 0.000000 1.587769
48 19.530001 0.000000 0.000000 0.000000 -0.000000 1.991107
49 20.720003 1.400001 12.180000 -0.000000 0.000000 1.449133
50 18.130001 -0.000001 0.000000 0.000000 -0.000000 2.340474
51 7.420000 7.070000 9.589999 -2.604852 0.157724 1.357514
52 10.710000 -0.000001 0.000000 0.000000 -0.000000 0.942501
53 -17.430000 -5.599999 19.179998 -0.482857 -1.380079 -2.667260
54 -0.350000 0.700000 8.050000 -1.570077 -0.215304 -0.000078
55 18.410002 12.180000 -26.880001 -1.689146 0.424649 1.277985
56 37.730000 0.000000 0.000000 -0.028535 0.099850 -0.188004
57 32.059998 0.000000 0.000000 -0.001378 -0.096499 -0.325624
58 16.100000 -9.870001 18.059999 1.584679 -0.169691 -1.509752
59 16.170000 -12.670000 -9.730000 1.586054 -0.171190 -1.520397
60 19.670000 0.000000 -0.000001 -0.669599 0.498744 -0.249651
61 40.950001 -0.000000 0.000000 0.000000 -0.000000 -1.113067
62 34.019997 -1.259998 -17.640001 -1.787140 0.114042 1.200764
63 26.389999 0.000000 0.000000 -0.149324 0.292183 -0.507295
64 43.820000 -0.000000 -0.000000 -3.034615 -0.021805 -0.079282
65 20.090000 0.979999 9.800000 -0.037369 -0.021660 1.623560
66 15.120001 0.000000 0.000000 0.000000 -0.000000 1.928986
67 20.370001 -1.119999 -0.560000 0.000000 -0.000000 1.587769
68 19.530001 0.000000 0.000000 0.000000 -0.000000 1.991106
69 20.720001 1.400000 -12.180001 0.000000 -0.000000 1.449133
70 18.130003 0.000000 0.000000 0.000000 -0.000000 2.340474
71 7.420000 7.070001 -9.589999 2.604852 -0.157724 1.357514
72 10.710000 0.000000 0.000000 0.000000 -0.000000 0.942501
73 -1.260000 1.470000 0.000000 0.129628 0.078781 -0.040011
time 3
0 0.000000 0.000000 0.000000 1.570796 -0.000000 0.000000
1 1.545185 160.662964 1.031852 1.541603 -1.396517 -3.132478
2 41.551483 -97.546326 32.931046 0.655269 -0.004703 -0.833758
3 0.000000 0.000000 49.770000 -0.000000 -1.570796 0.000000
4 49.840000 0.000000 0.000000 0.000000 -0.000000 0.000000
5 49.840000 0.000000 0.000000 0.000000 -0.000000 0.000000
6 49.840000 0.000000 0.000000 0.000000 -0.000000 0.000000
7 49.840000 0.000000 0.000000 0.000000 -0.000000 0.000000
8 49.840000 0.000000 0.000000 0.000000 -0.000000 0.000000
9 49.770000 0.000000 0.000000 0.000000 -0.000000 0.000000
10 53.827431 96.568909 50.081131 -0.854747 -0.067350 0.736553
11 -0.000000 0.000000 49.840000 -0.000000 -1.570796 0.000000
12 49.980000 -0.000000 0.000000 0.000000 -0.000000 0.000000
13 49.770000 0.000000 0.000000 0.000000 -0.000000 0.000000
14 49.980000 0.000000 0.000000 0.000000 -0.000000 -0.000000
15 49.349998 0.000000 0.000000 0.000000 -0.000000 0.000000
16 50.049995 -0.000000 -0.000000 0.000000 -0.000000 0.000000
17 50.259998 0.000000 0.000000 0.000000 -0.000000 0.000000
18 -86.330742 -18.765184 72.763702 -0.005479 -0.019393 1.745000
19 121.833702 -8.190000 -47.612961 1.461619 -0.012658 -1.673938
20 114.851852 19.880001 56.604073 1.250552 0.087263 -1.724599
21 49.490002 9.240000 106.485550 1.534116 -0.062463 -1.646728
22 -47.037407 -5.599998 106.659271 1.625119 -0.057697 -1.534331
23 -111.580002 -2.519999 61.426292 1.727196 0.178292 -1.308035
24 -121.206291 16.309999 -44.356663 1.570796 -0.295109 -1.570796
25 0.000000 0.000000 0.000000 -1.570796 -1.570796 0.000000
26 1.960000 22.259998 0.000000 -3.141593 -0.000000 2.943252
27 13.860002 -25.129999 0.000000 -3.141593 0.000000 -2.770610
28 13.650000 -2.520000 23.590000 -1.570797 -0.459536 3.141592
29 13.650001 -2.520000 -23.590000 1.570797 0.459536 3.141592
30 17.360001 3.710000 -0.000000 -0.001977 -0.000731 -0.064000
31 35.559998 0.000000 0.000000 0.003560 0.025163 0.123468
32 37.520000 0.000000 0.000000 0.000000 -0.000000 0.000000
33 -17.430000 -5.599999 -19.179998 0.350807 1.312104 -2.802671
34 -0.350000 0.700000 -8.050000 1.569438 0.138685 0.000851
35 18.480000 12.180000 26.880001 1.722798 -0.378019 1.195593
36 37.730000 0.000000 -0.000000 0.003677 -0.012566 -0.054677
37 32.059998 0.000000 -0.000000 -0.020381 0.251277 -0.219361
38 16.170000 -9.870001 -18.059999 -1.582462 0.117731 -1.519392
39 16.240000 -12.670000 9.730000 -1.584949 0.121994 -1.534597
40 19.670000 0.000000 -0.000001 0.807698 -0.733370 -0.161096
41 40.950001 -0.000000 0.000000 0.000000 -0.000000 -1.098333
42 34.019997 -1.259999 17.639999 3.056739 -0.376074 0.470365
43 26.389999 0.000000 0.000000 -0.026681 -0.814629 -0.050948
44 43.820000 0.000000 0.000000 2.621954 0.016232 -0.050528
45 20.090000 0.979999 -9.800000 0.037369 0.021660 1.623560
46 15.120002 0.000000 0.000000 0.000000 -0.000000 1.928986
47 20.370001 -1.119999 0.560000 -0.000000 0.000000 1.587769
48 19.530001 0.000000 0.000000 0.000000 -0.000000 1.991106
49 20.720003 1.400001 12.180000 -0.000000 0.000000 1.449133
50 18.130001 -0.000001 0.000000 0.000000 -0.000000 2.340474
51 7.420000 7.070000 9.589999 -2.604852 0.157724 1.357514
52 10.710000 -0.000001 0.000000 0.000000 -0.000000 0.942501
53 -17.430000 -5.599999 19.179998 -0.350807 -1.312104 -2.802671
54 -0.350000 0.700000 8.050000 -1.569438 -0.138685 0.000851
55 18.410002 12.180000 -26.880001 -1.699466 0.368686 1.239433
56 37.730000 0.000000 0.000000 -0.022714 0.253249 -0.099050
57 32.059998 0.000000 0.000000 0.001753 -0.054226 -0.261490
58 16.100000 -9.870001 18.059999 1.601344 -0.133657 -1.647673
59 16.170000 -12.670000 -9.730000 1.604301 -0.137720 -1.663696
60 19.670000 0.000000 -0.000001 -0.695511 0.461816 -0.250598
61 40.950001 -0.000000 0.000000 0.000000 -0.000000 -1.036143
62 34.019997 -1.259998 -17.640001 -1.786154 0.145072 1.220149
63 26.389999 0.000000 0.000000 -0.142640 0.273064 -0.479648
64 43.820000 -0.000000 -0.000000 -3.065345 -0.015589 0.058780
65 20.090000 0.979999 9.800000 -0.037369 -0.021660 1.623560
66 15.120001 0.000000 0.000000 0.000000 -0.000000 1.928986
67 20.370001 -1.119999 -0.560000 0.000000 -0.000000 1.587769
68 19.530001 0.000000 0.000000 0.000000 -0.000000 1.991106
69 20.720001 1.400000 -12.180001 0.000000 -0.000000 1.449133
70 18.130003 0.000000 0.000000 0.000000 -0.000000 2.340474
71 7.420000 7.070001 -9.589999 2.604852 -0.157724 1.357514
72 10.710000 0.000000 0.000000 0.000000 -0.000000 0.942501
73 -1.260000 1.470000 0.000000 0.136655 0.102582 0.045173
time 4
0 0.000000 0.000000 0.000000 1.570796 -0.000000 0.000000
1 1.859051 165.344849 1.236667 1.422687 -1.394909 -3.015570
2 40.489334 -99.144653 31.182037 0.725631 0.038527 -0.869919
3 0.000000 0.000000 49.770000 -0.000000 -1.570796 0.000000
4 49.840000 0.000000 0.000000 0.000000 -0.000000 0.000000
5 49.840000 0.000000 0.000000 0.000000 -0.000000 0.000000
6 49.840000 0.000000 0.000000 0.000000 -0.000000 0.000000
7 49.840000 0.000000 0.000000 0.000000 -0.000000 0.000000
8 49.840000 0.000000 0.000000 0.000000 -0.000000 0.000000
9 49.770000 0.000000 0.000000 0.000000 -0.000000 0.000000
10 52.790878 97.422821 49.825439 -0.930890 -0.032280 0.760738
11 -0.000000 0.000000 49.840000 -0.000000 -1.570796 0.000000
12 49.980000 0.000000 0.000000 0.000000 -0.000000 0.000000
13 49.770000 0.000000 0.000000 0.000000 -0.000000 0.000000
14 49.980000 0.000000 0.000000 0.000000 -0.000000 -0.000000
15 49.349998 0.000000 0.000000 0.000000 -0.000000 0.000000
16 50.049995 -0.000000 0.000000 0.000000 -0.000000 0.000000
17 50.259998 -0.000000 0.000000 0.000000 -0.000000 0.000000
18 -87.815002 -19.491434 71.539513 -0.024978 -0.020527 1.745203
19 124.130898 -8.190000 -41.650002 1.516635 -0.154834 -1.620970
20 113.271652 19.879999 62.222385 1.412662 0.083830 -1.647245
21 49.346760 9.240001 113.104271 1.549024 -0.097571 -1.617129
22 -47.993427 -5.599998 114.210190 1.599796 -0.101362 -1.550235
23 -111.650017 -2.519999 64.789047 1.643627 0.126797 -1.448972
24 -123.994156 16.309998 -39.747520 1.570796 -0.295109 -1.570796
25 0.000000 0.000000 0.000000 -1.570796 -1.570796 0.000000
26 1.960000 22.259998 0.000000 -3.141593 0.000000 2.958009
27 13.860002 -25.129999 0.000000 -3.141593 -0.000000 -2.784271
28 13.650000 -2.520000 23.590000 -1.570796 -0.446182 3.141593
29 13.650001 -2.520000 -23.590000 1.570796 0.446182 3.141593
30 17.360001 3.710000 -0.000000 -0.001826 -0.005722 -0.060643
31 35.559998 -0.000000 0.000000 0.003252 0.040260 0.062099
32 37.520000 0.000000 0.000000 0.000000 -0.000000 0.000000
33 -17.430000 -5.599999 -19.179998 0.329823 1.298479 -2.824618
34 -0.350000 0.700000 -8.050000 1.570559 0.123089 -0.000015
35 18.480000 12.180000 26.880001 1.684571 -0.287186 1.302443
36 37.730000 0.000000 -0.000000 0.000992 -0.189541 -0.031557
37 32.059998 0.000000 -0.000000 0.007882 0.091235 -0.098158
38 16.170000 -9.870001 -18.059999 -1.583825 0.097927 -1.444320
39 16.240000 -12.670000 9.730000 -1.584575 0.102891 -1.452092
40 19.670000 0.000000 -0.000001 0.753724 -0.698342 -0.111949
41 40.950001 -0.000000 0.000000 0.000000 -0.000000 -1.054781
42 34.019997 -1.259999 17.639999 2.980283 -0.409869 0.614548
43 26.389999 0.000000 0.000000 0.003852 -0.852625 0.068931
44 43.820000 0.000000 0.000000 2.686066 0.022863 -0.022409
45 20.090000 0.979999 -9.800000 0.037369 0.021660 1.623560
46 15.120002 0.000000 0.000000 0.000000 -0.000000 1.928986
47 20.370001 -1.119999 0.560000 -0.000000 0.000000 1.587769
48 19.530001 0.000000 0.000000 0.000000 -0.000000 1.991106
49 20.720003 1.400001 12.180000 -0.000000 0.000000 1.449133
50 18.130001 -0.000001 0.000000 0.000000 -0.000000 2.340474
51 7.420000 7.070000 9.589999 -2.604852 0.157724 1.357514
52 10.710000 -0.000001 0.000000 0.000000 -0.000000 0.942501
53 -17.430000 -5.599999 19.179998 -0.329823 -1.298479 -2.824618
54 -0.350000 0.700000 8.050000 -1.570559 -0.123089 -0.000015
55 18.410002 12.180000 -26.880001 -1.675423 0.275258 1.315504
56 37.730000 0.000000 -0.000000 -0.026521 0.308917 -0.103003
57 32.059998 0.000000 0.000000 -0.017749 0.078994 -0.135901
58 16.100000 -9.870001 18.059999 1.592984 -0.110574 -1.525286
59 16.170000 -12.670000 -9.730000 1.596203 -0.115748 -1.533695
60 19.670000 0.000000 -0.000001 -0.643564 0.470648 -0.211743
61 40.950001 -0.000000 0.000000 0.000000 -0.000000 -1.020928
62 34.019997 -1.259998 -17.640001 -1.782225 0.159364 1.256220
63 26.389999 0.000000 0.000000 -0.144795 0.202481 -0.472991
64 43.820000 -0.000000 -0.000000 -3.130285 -0.008500 0.086983
65 20.090000 0.979999 9.800000 -0.037369 -0.021660 1.623560
66 15.120001 0.000000 0.000000 0.000000 -0.000000 1.928986
67 20.370001 -1.119999 -0.560000 0.000000 -0.000000 1.587769
68 19.530001 0.000000 0.000000 0.000000 -0.000000 1.991106
69 20.720001 1.400000 -12.180001 0.000000 -0.000000 1.449133
70 18.130003 0.000000 0.000000 0.000000 -0.000000 2.340474
71 7.420000 7.070001 -9.589999 2.604852 -0.157724 1.357514
72 10.710000 0.000000 0.000000 0.000000 -0.000000 0.942501
73 -1.260000 1.470000 0.000000 0.136246 0.097382 0.118425
time 5
0 0.000000 0.000000 0.000000 1.570796 -0.000000 0.000000
1 0.280000 169.190002 0.140000 1.355736 -1.392879 -2.948618
2 42.419998 -95.970032 36.959961 0.751060 -0.112703 -0.713150
3 0.000000 0.000000 49.770000 -0.000000 -1.570796 0.000000
4 49.840000 0.000000 0.000000 0.000000 -0.000000 0.000000
5 49.840000 0.000000 0.000000 0.000000 -0.000000 0.000000
6 49.840000 0.000000 0.000000 0.000000 -0.000000 0.000000
7 49.840000 0.000000 0.000000 0.000000 -0.000000 0.000000
8 49.840000 0.000000 0.000000 0.000000 -0.000000 0.000000
9 49.770000 0.000000 0.000000 0.000000 -0.000000 0.000000
10 53.620022 92.400024 55.860016 -0.943253 -0.185756 0.616580
11 -0.000000 0.000000 49.840000 -0.000000 -1.570796 0.000000
12 49.980000 -0.000000 0.000000 0.000000 -0.000000 0.000000
13 49.770000 0.000000 0.000000 0.000000 -0.000000 0.000000
14 49.980000 0.000000 0.000000 0.000000 -0.000000 -0.000000
15 49.349998 0.000000 0.000000 0.000000 -0.000000 0.000000
16 50.049995 -0.000000 -0.000000 0.000000 -0.000000 0.000000
17 50.259998 0.000000 0.000000 0.000000 -0.000000 0.000000
18 -88.760002 -17.430000 72.170013 -0.038593 -0.019334 1.745320
19 126.349991 -8.190000 -35.980000 1.569915 -0.290017 -1.571679
20 111.719994 19.880001 67.549995 1.565664 0.080988 -1.574006
21 49.140003 9.240000 122.779991 1.570951 -0.152163 -1.572815
22 -49.140003 -5.599998 122.849998 1.571729 -0.151241 -1.569864
23 -111.650009 -2.519999 67.619995 1.573928 0.082989 -1.567665
24 -126.349998 16.309999 -35.910000 1.570796 -0.295109 -1.570796
25 0.000000 0.000000 0.000000 -1.570796 -1.570796 0.000000
26 1.960000 22.259998 0.000000 3.141592 -0.000000 2.890898
27 13.860002 -25.129999 0.000000 -3.141592 0.000000 -2.716614
28 13.650000 -2.520000 23.590000 -1.570796 -0.511912 -3.141592
29 13.650001 -2.520000 -23.590000 1.570796 0.511912 -3.141592
30 17.360001 3.710000 -0.000000 0.000000 0.000000 -0.006000
31 35.559998 0.000000 0.000000 0.000326 0.044049 -0.076032
32 37.520000 0.000000 0.000000 0.000000 -0.000000 0.000000
33 -17.430000 -5.599999 -19.179998 0.446311 1.365508 -2.703811
34 -0.350000 0.700000 -8.050000 1.569360 0.198352 -0.000143
35 18.480000 12.180000 26.880001 1.617232 -0.200703 1.538972
36 37.730000 0.000000 -0.000000 0.011766 -0.125619 -0.123077
37 32.059998 0.000000 -0.000000 0.017491 -0.125884 -0.023146
38 16.170000 -9.870001 -18.059999 -1.573980 0.080350 -1.274678
39 16.240000 -12.670000 9.730000 -1.571246 0.085213 -1.251053
40 19.670000 0.000000 -0.000001 0.584170 -0.737925 0.002595
41 40.950001 -0.000000 0.000000 0.000000 -0.000000 -1.131617
42 34.019997 -1.259999 17.639999 2.882022 -0.446884 0.773452
43 26.389999 0.000000 0.000000 0.044402 -0.849217 0.052418
44 43.820000 0.000000 0.000000 2.764092 -0.026260 -0.147902
45 20.090000 0.979999 -9.800000 0.037369 0.021660 1.623560
46 15.120002 0.000000 0.000000 0.000000 -0.000000 1.928986
47 20.370001 -1.119999 0.560000 -0.000000 0.000000 1.587769
48 19.530001 0.000000 0.000000 0.000000 -0.000000 1.991106
49 20.720003 1.400001 12.180000 -0.000000 0.000000 1.449133
50 18.130001 -0.000001 0.000000 0.000000 -0.000000 2.340474
51 7.420000 7.070000 9.589999 -2.604852 0.157724 1.357514
52 10.710000 -0.000001 0.000000 0.000000 -0.000000 0.942501
53 -17.430000 -5.599999 19.179998 -0.446311 -1.365508 -2.703811
54 -0.350000 0.700000 8.050000 -1.569360 -0.198352 -0.000143
55 18.410002 12.180000 -26.880001 -1.636878 0.198924 1.453537
56 37.730000 0.000000 0.000000 -0.034149 0.200001 -0.198763
57 32.059998 0.000000 0.000000 -0.029153 0.159022 -0.088615
58 16.100000 -9.870001 18.059999 1.566185 -0.070347 -1.212360
59 16.170000 -12.670000 -9.730000 1.564353 -0.076124 -1.192236
60 19.670000 0.000000 -0.000001 -0.505698 0.533013 -0.138705
61 40.950001 -0.000000 0.000000 0.000000 -0.000000 -1.095583
62 34.019997 -1.259998 -17.640001 -1.781946 0.152042 1.268293
63 26.389999 0.000000 0.000000 -0.146993 0.144465 -0.504025
64 43.820000 -0.000000 -0.000000 3.078014 -0.019525 -0.047418
65 20.090000 0.979999 9.800000 -0.037369 -0.021660 1.623560
66 15.120001 0.000000 0.000000 0.000000 -0.000000 1.928986
67 20.370001 -1.119999 -0.560000 0.000000 -0.000000 1.587769
68 19.530001 0.000000 0.000000 0.000000 -0.000000 1.991106
69 20.720001 1.400000 -12.180001 0.000000 -0.000000 1.449133
70 18.130003 0.000000 0.000000 0.000000 -0.000000 2.340474
71 7.420000 7.070001 -9.589999 2.604852 -0.157724 1.357514
72 10.710000 0.000000 0.000000 0.000000 -0.000000 0.942501
73 -1.260000 1.470000 0.000000 0.128290 0.057821 0.132181
time 6
0 0.000000 0.000000 0.000000 1.570796 -0.000000 0.000000
1 -1.428194 166.943176 -0.949050 1.396469 -1.394213 -2.989352
2 44.730804 -92.101013 42.892288 0.628320 -0.253247 -0.540965
3 0.000000 0.000000 49.770000 -0.000000 -1.570796 0.000000
4 49.840000 0.000000 0.000000 0.000000 -0.000000 0.000000
5 49.840000 0.000000 0.000000 0.000000 -0.000000 0.000000
6 49.840000 0.000000 0.000000 0.000000 -0.000000 0.000000
7 49.840000 0.000000 0.000000 0.000000 -0.000000 0.000000
8 49.840000 0.000000 0.000000 0.000000 -0.000000 0.000000
9 49.770000 0.000000 0.000000 0.000000 -0.000000 0.000000
10 55.175739 87.082764 59.835587 -0.811917 -0.332015 0.454306
11 -0.000000 0.000000 49.840000 -0.000000 -1.570796 0.000000
12 49.980000 -0.000000 0.000000 0.000000 -0.000000 0.000000
13 49.770000 0.000000 0.000000 0.000000 -0.000000 0.000000
14 49.980000 0.000000 0.000000 0.000000 -0.000000 -0.000000
15 49.349998 0.000000 0.000000 0.000000 -0.000000 0.000000
16 50.049995 -0.000000 -0.000000 0.000000 -0.000000 0.000000
17 50.259998 0.000000 0.000000 0.000000 -0.000000 0.000000
18 -88.301773 -15.120002 71.365005 -0.030612 -0.020034 1.745254
19 125.825012 -8.189999 -37.280991 1.557073 -0.258761 -1.584134
20 112.042610 19.880001 66.310585 1.530332 0.081660 -1.589466
21 49.201576 9.239998 121.349861 1.567474 -0.143018 -1.578080
22 -48.880096 -5.600000 121.222336 1.576997 -0.143638 -1.566396
23 -111.650009 -2.519997 66.769135 1.594306 0.095627 -1.532955
24 -125.627487 16.310001 -37.025135 1.570796 -0.295109 -1.570796
25 0.000000 0.000000 0.000000 -1.570796 -1.570796 0.000000
26 1.960000 22.259998 0.000000 3.141593 0.000000 2.822202
27 13.860002 -25.129999 0.000000 3.141592 -0.000000 -2.648076
28 13.650000 -2.520000 23.590000 -1.570796 -0.582957 3.141592
29 13.650001 -2.520000 -23.590000 1.570796 0.582957 3.141592
30 17.360001 3.710000 -0.000000 0.000097 0.007666 0.025332
31 35.559998 0.000000 0.000000 0.001041 0.024730 -0.077692
32 37.520000 0.000000 0.000000 0.000000 -0.000000 0.000000
33 -17.430000 -5.599999 -19.179998 0.654162 1.425988 -2.493104
34 -0.350000 0.700000 -8.050000 1.569584 0.273295 -0.000166
35 18.480000 12.180000 26.880001 1.585387 -0.276524 1.651075
36 37.730000 0.000000 -0.000000 0.013166 0.042984 -0.213520
37 32.059998 0.000000 -0.000000 0.025397 -0.169619 -0.089862
38 16.170000 -9.870001 -18.059999 -1.555335 0.142884 -1.204528
39 16.240000 -12.670000 9.730000 -1.552579 0.145840 -1.188637
40 19.670000 0.000000 -0.000001 0.563176 -0.793673 -0.006926
41 40.950001 -0.000000 0.000000 0.000000 -0.000000 -1.205776
42 34.019997 -1.259999 17.639999 2.866213 -0.473795 0.793824
43 26.389999 0.000000 0.000000 0.046818 -0.803945 -0.052156
44 43.820000 0.000000 0.000000 2.724461 -0.071387 -0.278704
45 20.090000 0.979999 -9.800000 0.037369 0.021660 1.623560
46 15.120002 0.000000 0.000000 0.000000 -0.000000 1.928986
47 20.370001 -1.119999 0.560000 -0.000000 0.000000 1.587769
48 19.530001 0.000000 0.000000 0.000000 -0.000000 1.991106
49 20.720003 1.400001 12.180000 -0.000000 0.000000 1.449133
50 18.130001 -0.000001 0.000000 0.000000 -0.000000 2.340474
51 7.420000 7.070000 9.589999 -2.604852 0.157724 1.357514
52 10.710000 -0.000001 0.000000 0.000000 -0.000000 0.942501
53 -17.430000 -5.599999 19.179998 -0.654162 -1.425988 -2.493104
54 -0.350000 0.700000 8.050000 -1.569584 -0.273295 -0.000166
55 18.410002 12.180000 -26.880001 -1.629051 0.282232 1.476289
56 37.730000 0.000000 0.000000 -0.032426 0.073528 -0.284090
57 32.059998 0.000000 0.000000 -0.034961 0.111598 -0.163742
58 16.100000 -9.870001 18.059999 1.542169 -0.126625 -1.106092
59 16.170000 -12.670000 -9.730000 1.540031 -0.130379 -1.095482
60 19.670000 0.000000 -0.000001 -0.496710 0.559802 -0.149098
61 40.950001 -0.000000 0.000000 0.000000 -0.000000 -1.171567
62 34.019997 -1.259998 -17.640001 -1.782027 0.118533 1.261508
63 26.389999 0.000000 0.000000 -0.149454 0.164134 -0.534729
64 43.820000 -0.000000 -0.000000 3.126243 -0.032914 -0.186109
65 20.090000 0.979999 9.800000 -0.037369 -0.021660 1.623560
66 15.120001 0.000000 0.000000 0.000000 -0.000000 1.928986
67 20.370001 -1.119999 -0.560000 0.000000 -0.000000 1.587769
68 19.530001 0.000000 0.000000 0.000000 -0.000000 1.991106
69 20.720001 1.400000 -12.180001 0.000000 -0.000000 1.449133
70 18.130003 0.000000 0.000000 0.000000 -0.000000 2.340474
71 7.420000 7.070001 -9.589999 2.604852 -0.157724 1.357514
72 10.710000 0.000000 0.000000 0.000000 -0.000000 0.942501
73 -1.260000 1.470000 0.000000 0.126769 0.036438 0.036386
time 7
0 0.000000 0.000000 0.000000 1.570796 -0.000000 0.000000
1 -1.944444 162.094086 -1.311852 1.506165 -1.396301 -3.099049
2 46.142960 -90.170349 45.009964 0.520514 -0.295294 -0.471229
3 0.000000 0.000000 49.770000 -0.000000 -1.570796 0.000000
4 49.840000 0.000000 0.000000 0.000000 -0.000000 0.000000
5 49.840000 0.000000 0.000000 0.000000 -0.000000 0.000000
6 49.840000 0.000000 0.000000 0.000000 -0.000000 0.000000
7 49.840000 0.000000 0.000000 0.000000 -0.000000 0.000000
8 49.840000 0.000000 0.000000 0.000000 -0.000000 0.000000
9 49.770000 0.000000 0.000000 0.000000 -0.000000 0.000000
10 56.399284 85.490753 60.220749 -0.700724 -0.372786 0.389004
11 -0.000000 0.000000 49.840000 -0.000000 -1.570796 0.000000
12 49.980000 -0.000000 0.000000 0.000000 -0.000000 0.000000
13 49.770000 0.000000 0.000000 0.000000 -0.000000 0.000000
14 49.980000 0.000000 0.000000 0.000000 -0.000000 -0.000000
15 49.349998 0.000000 0.000000 0.000000 -0.000000 0.000000
16 50.049995 -0.000000 -0.000000 0.000000 -0.000000 0.000000
17 50.259998 0.000000 0.000000 0.000000 -0.000000 0.000000
18 -86.963348 -14.077777 71.874451 -0.011625 -0.019329 1.745059
19 124.154068 -8.190000 -41.577408 1.516802 -0.156659 -1.620436
20 113.239250 19.879999 62.276665 1.414210 0.084078 -1.646682
21 49.274815 9.239999 116.179245 1.555975 -0.114972 -1.603329
22 -48.206665 -5.599997 115.785187 1.594625 -0.110299 -1.554744
23 -111.650017 -2.519999 64.262589 1.657298 0.135357 -1.426720
24 -123.544815 16.310001 -40.454815 1.570796 -0.295109 -1.570796
25 0.000000 0.000000 0.000000 -1.570796 -1.570796 0.000000
26 1.960000 22.259998 0.000000 3.141592 0.000000 2.797812
27 13.860002 -25.129999 0.000000 3.141592 -0.000000 -2.624467
28 13.650000 -2.520000 23.590000 -1.570797 -0.605038 3.141593
29 13.650001 -2.520000 -23.590000 1.570796 0.605038 3.141592
30 17.360001 3.710000 -0.000000 0.000144 0.011998 0.024000
31 35.559998 0.000000 0.000000 0.001972 0.006009 -0.009327
32 37.520000 0.000000 0.000000 0.000000 -0.000000 0.000000
33 -17.430000 -5.599999 -19.179998 0.756594 1.443284 -2.390196
34 -0.350000 0.700000 -8.050000 1.569821 0.299924 -0.000148
35 18.480000 12.180000 26.880001 1.587844 -0.355186 1.606008
36 37.730000 0.000000 -0.000000 0.002309 0.225919 -0.210756
37 32.059998 0.000000 -0.000000 0.027936 -0.079868 -0.178872
38 16.170000 -9.870001 -18.059999 -1.553906 0.160904 -1.238258
39 16.240000 -12.670000 9.730000 -1.552525 0.163785 -1.231573
40 19.670000 0.000000 -0.000001 0.632921 -0.830829 -0.069518
41 40.950001 -0.000000 0.000000 0.000000 -0.000000 -1.242592
42 34.019997 -1.259999 17.639999 2.932695 -0.444731 0.680463
43 26.389999 0.000000 0.000000 0.020913 -0.733441 -0.147391
44 43.820000 0.000000 0.000000 2.651586 -0.091919 -0.320531
45 20.090000 0.979999 -9.800000 0.037369 0.021660 1.623560
46 15.120002 0.000000 0.000000 0.000000 -0.000000 1.928986
47 20.370001 -1.119999 0.560000 -0.000000 0.000000 1.587769
48 19.530001 0.000000 0.000000 0.000000 -0.000000 1.991106
49 20.720003 1.400001 12.180000 -0.000000 0.000000 1.449133
50 18.130001 -0.000001 0.000000 0.000000 -0.000000 2.340474
51 7.420000 7.070000 9.589999 -2.604852 0.157724 1.357514
52 10.710000 -0.000001 0.000000 0.000000 -0.000000 0.942501
53 -17.430000 -5.599999 19.179998 -0.756594 -1.443284 -2.390196
54 -0.350000 0.700000 8.050000 -1.569821 -0.299924 -0.000148
55 18.410002 12.180000 -26.880001 -1.637478 0.360467 1.432449
56 37.730000 0.000000 0.000000 -0.026232 -0.004964 -0.274113
57 32.059998 0.000000 0.000000 -0.032771 0.014665 -0.252256
58 16.100000 -9.870001 18.059999 1.546310 -0.150246 -1.186881
59 16.170000 -12.670000 -9.730000 1.545236 -0.153785 -1.186358
60 19.670000 0.000000 -0.000001 -0.559618 0.554253 -0.193299
61 40.950001 -0.000000 0.000000 0.000000 -0.000000 -1.196159
62 34.019997 -1.259998 -17.640001 -1.785349 0.099644 1.225180
63 26.389999 0.000000 0.000000 -0.153080 0.225617 -0.549763
64 43.820000 -0.000000 -0.000000 -3.078906 -0.030985 -0.231644
65 20.090000 0.979999 9.800000 -0.037369 -0.021660 1.623560
66 15.120001 0.000000 0.000000 0.000000 -0.000000 1.928986
67 20.370001 -1.119999 -0.560000 0.000000 -0.000000 1.587769
68 19.530001 0.000000 0.000000 0.000000 -0.000000 1.991106
69 20.720001 1.400000 -12.180001 0.000000 -0.000000 1.449133
70 18.130003 0.000000 0.000000 0.000000 -0.000000 2.340474
71 7.420000 7.070001 -9.589999 2.604852 -0.157724 1.357514
72 10.710000 0.000000 0.000000 0.000000 -0.000000 0.942501
73 -1.260000 1.470000 0.000000 0.125093 0.040118 -0.053622
time 8
0 0.000000 0.000000 0.000000 1.570796 -0.000000 0.000000
1 -0.419999 158.843124 -0.240624 1.595226 -1.396445 3.097085
2 44.765007 -92.470032 40.241211 0.558279 -0.184335 -0.629092
3 0.000000 0.000000 49.770000 -0.000000 -1.570796 0.000000
4 49.840000 0.000000 0.000000 0.000000 -0.000000 0.000000
5 49.840000 0.000000 0.000000 0.000000 -0.000000 0.000000
6 49.840000 0.000000 0.000000 0.000000 -0.000000 0.000000
7 49.840000 0.000000 0.000000 0.000000 -0.000000 0.000000
8 49.840000 0.000000 0.000000 0.000000 -0.000000 0.000000
9 49.770000 0.000000 0.000000 0.000000 -0.000000 0.000000
10 56.109398 90.768097 55.571274 -0.742953 -0.243797 0.554159
11 -0.000000 0.000000 49.840000 -0.000000 -1.570796 0.000000
12 49.980000 -0.000000 0.000000 0.000000 -0.000000 0.000000
13 49.770000 0.000000 0.000000 0.000000 -0.000000 0.000000
14 49.980000 0.000000 0.000000 0.000000 -0.000000 -0.000000
15 49.349998 0.000000 0.000000 0.000000 -0.000000 0.000000
16 50.049995 -0.000000 -0.000000 0.000000 -0.000000 0.000000
17 50.259998 0.000000 0.000000 0.000000 -0.000000 0.000000
18 -85.671257 -15.999375 72.660004 0.003914 -0.020213 1.744907
19 122.460625 -8.189999 -46.038124 1.476395 -0.050761 -1.659040
20 114.454376 19.880001 58.095627 1.292276 0.086564 -1.704308
21 49.415623 9.240000 110.350632 1.543227 -0.083887 -1.629712
22 -47.424999 -5.599998 109.816872 1.613720 -0.075669 -1.541394
23 -111.580002 -2.519997 61.770626 1.718979 0.173884 -1.323758
24 -121.515633 16.310001 -43.863754 1.570796 -0.295109 -1.570796
25 0.000000 0.000000 0.000000 -1.570796 -1.570796 0.000000
26 1.960000 22.259998 0.000000 3.141592 -0.000000 2.862747
27 13.860002 -25.129999 0.000000 3.141592 -0.000000 -2.689720
28 13.650000 -2.520000 23.590000 -1.570796 -0.541061 -3.141593
29 13.650001 -2.520000 -23.590000 1.570796 0.541061 3.141592
30 17.360001 3.710000 -0.000000 -0.000096 0.007999 -0.023999
31 35.559998 0.000000 0.000000 0.003322 0.006852 0.093037
32 37.520000 0.000000 0.000000 0.000000 -0.000000 0.000000
33 -17.430000 -5.599999 -19.179998 0.507951 1.390476 -2.641451
34 -0.350000 0.700000 -8.050000 1.570075 0.228105 -0.000083
35 18.480000 12.180000 26.880001 1.673195 -0.421220 1.347819
36 37.730000 0.000000 -0.000000 0.003089 0.229530 -0.156895
37 32.059998 0.000000 -0.000000 -0.003866 0.142773 -0.250602
38 16.170000 -9.870001 -18.059999 -1.568661 0.167068 -1.407380
39 16.240000 -12.670000 9.730000 -1.570265 0.168200 -1.415517
40 19.670000 0.000000 -0.000001 0.747049 -0.815207 -0.136514
41 40.950001 -0.000000 0.000000 0.000000 -0.000000 -1.213996
42 34.019997 -1.259999 17.639999 3.036404 -0.352543 0.503530
43 26.389999 0.000000 0.000000 -0.019218 -0.714370 -0.177722
44 43.820000 0.000000 0.000000 2.597413 -0.045425 -0.199579
45 20.090000 0.979999 -9.800000 0.037369 0.021660 1.623560
46 15.120002 0.000000 0.000000 0.000000 -0.000000 1.928986
47 20.370001 -1.119999 0.560000 -0.000000 0.000000 1.587769
48 19.530001 0.000000 0.000000 0.000000 -0.000000 1.991107
49 20.720003 1.400001 12.180000 -0.000000 0.000000 1.449133
50 18.130001 -0.000001 0.000000 0.000000 -0.000000 2.340474
51 7.420000 7.070000 9.589999 -2.604852 0.157724 1.357514
52 10.710000 -0.000001 0.000000 0.000000 -0.000000 0.942501
53 -17.430000 -5.599999 19.179998 -0.507951 -1.390476 -2.641451
54 -0.350000 0.700000 8.050000 -1.570075 -0.228105 -0.000083
55 18.410002 12.180000 -26.880001 -1.684807 0.425085 1.290782
56 37.730000 0.000000 0.000000 -0.027782 0.073540 -0.207525
57 32.059998 0.000000 0.000000 -0.004952 -0.087966 -0.322508
58 16.100000 -9.870001 18.059999 1.579857 -0.170774 -1.477216
59 16.170000 -12.670000 -9.730000 1.581212 -0.172320 -1.487849
60 19.670000 0.000000 -0.000001 -0.658561 0.505251 -0.244457
61 40.950001 -0.000000 0.000000 0.000000 -0.000000 -1.125255
62 34.019997 -1.259998 -17.640001 -1.787464 0.109606 1.198256
63 26.389999 0.000000 0.000000 -0.150292 0.290607 -0.515677
64 43.820000 -0.000000 -0.000000 -3.036325 -0.021726 -0.101314
65 20.090000 0.979999 9.800000 -0.037369 -0.021660 1.623560
66 15.120001 0.000000 0.000000 0.000000 -0.000000 1.928986
67 20.370001 -1.119999 -0.560000 0.000000 -0.000000 1.587769
68 19.530001 0.000000 0.000000 0.000000 -0.000000 1.991106
69 20.720001 1.400000 -12.180001 0.000000 -0.000000 1.449133
70 18.130003 0.000000 0.000000 0.000000 -0.000000 2.340474
71 7.420000 7.070001 -9.589999 2.604852 -0.157724 1.357514
72 10.710000 0.000000 0.000000 0.000000 -0.000000 0.942501
73 -1.260000 1.470000 0.000000 0.128486 0.074159 -0.046368
time 9
0 0.000000 0.000000 0.000000 1.570796 -0.000000 0.000000
1 1.291111 160.056305 0.842592 1.564590 -1.396547 3.127721
2 42.090744 -96.750427 34.110687 0.638617 -0.033234 -0.804082
3 0.000000 -0.000000 49.770000 -0.000000 -1.570796 0.000000
4 49.840000 0.000000 0.000000 0.000000 -0.000000 0.000000
5 49.840000 0.000000 0.000000 0.000000 -0.000000 0.000000
6 49.840000 0.000000 0.000000 0.000000 -0.000000 0.000000
7 49.840000 0.000000 0.000000 0.000000 -0.000000 0.000000
8 49.840000 0.000000 0.000000 0.000000 -0.000000 0.000000
9 49.770000 0.000000 0.000000 0.000000 -0.000000 0.000000
10 54.250023 95.765167 50.884842 -0.835632 -0.094627 0.711867
11 -0.000000 0.000000 49.840000 -0.000000 -1.570796 0.000000
12 49.980000 -0.000000 0.000000 0.000000 -0.000000 0.000000
13 49.770000 0.000000 0.000000 0.000000 -0.000000 0.000000
14 49.980000 0.000000 0.000000 0.000000 -0.000000 -0.000000
15 49.349998 0.000000 0.000000 0.000000 -0.000000 0.000000
16 50.049995 -0.000000 -0.000000 0.000000 -0.000000 0.000000
17 50.259998 -0.000000 -0.000000 0.000000 -0.000000 0.000000
18 -86.097412 -18.339996 72.805176 -0.002661 -0.019639 1.744973
19 121.745552 -8.189999 -47.861851 1.458553 -0.006232 -1.675683
20 114.921860 19.879999 56.321484 1.242887 0.087453 -1.728442
21 49.490002 9.239999 106.713699 1.535500 -0.063745 -1.646748
22 -47.039997 -5.599998 106.628159 1.624440 -0.058352 -1.534330
23 -111.580002 -2.519997 61.115177 1.733853 0.183493 -1.296675
24 -120.944443 16.309999 -44.727402 1.570796 -0.295109 -1.570796
25 -0.000000 -0.000000 0.000000 -1.570796 -1.570796 0.000000
26 1.960000 22.259998 -0.000000 -3.141592 -0.000000 2.931175
27 13.860002 -25.129999 0.000000 3.141593 -0.000000 -2.759098
28 13.650000 -2.520000 23.590000 -1.570796 -0.470283 3.141592
29 13.650001 -2.520000 -23.590000 1.570796 0.470283 3.141592
30 17.360001 3.710000 -0.000000 -0.001998 -0.000059 -0.059316
31 35.559998 -0.000000 0.000000 0.003333 0.021166 0.125455
32 37.520000 0.000000 0.000000 0.000000 -0.000000 0.000000
33 -17.430000 -5.599999 -19.179998 0.365115 1.323915 -2.786926
34 -0.350000 0.700000 -8.050000 1.570357 0.151448 0.000439
35 18.480000 12.180000 26.880001 1.719554 -0.389445 1.208869
36 37.730000 0.000000 -0.000000 0.004452 0.026835 -0.065962
37 32.059998 0.000000 -0.000000 -0.021773 0.253900 -0.233150
38 16.170000 -9.870001 -18.059999 -1.580873 0.125819 -1.507948
39 16.240000 -12.670000 9.730000 -1.583120 0.130405 -1.524166
40 19.670000 0.000000 -0.000001 0.802890 -0.748531 -0.161341
41 40.950001 -0.000000 0.000000 0.000000 -0.000000 -1.119245
42 34.019997 -1.259999 17.639999 3.057907 -0.369230 0.465929
43 26.389999 0.000000 0.000000 -0.025424 -0.803068 -0.073274
44 43.820000 0.000000 0.000000 2.612192 0.007952 -0.072619
45 20.090000 0.979999 -9.800000 0.037369 0.021660 1.623560
46 15.120002 0.000000 0.000000 0.000000 -0.000000 1.928986
47 20.370001 -1.119999 0.560000 -0.000000 0.000000 1.587769
48 19.530001 0.000000 0.000000 0.000000 -0.000000 1.991106
49 20.720003 1.400001 12.180000 -0.000000 0.000000 1.449133
50 18.130001 -0.000001 0.000000 0.000000 -0.000000 2.340474
51 7.420000 7.070000 9.589999 -2.604852 0.157724 1.357514
52 10.710000 -0.000001 0.000000 0.000000 -0.000000 0.942501
53 -17.430000 -5.599999 19.179998 -0.365115 -1.323915 -2.786926
54 -0.350000 0.700000 8.050000 -1.570357 -0.151448 0.000439
55 18.410002 12.180000 -26.880001 -1.699702 0.382973 1.242441
56 37.730000 0.000000 -0.000000 -0.023920 0.229639 -0.108208
57 32.059998 0.000000 0.000000 0.002642 -0.071003 -0.281155
58 16.100000 -9.870001 18.059999 1.599565 -0.140950 -1.632643
59 16.170000 -12.670000 -9.730000 1.602050 -0.144075 -1.646943
60 19.670000 0.000000 -0.000001 -0.695327 0.467819 -0.252888
61 40.950001 -0.000000 0.000000 0.000000 -0.000000 -1.049623
62 34.019997 -1.259998 -17.640001 -1.785627 0.140702 1.216686
63 26.389999 0.000000 0.000000 -0.144210 0.279569 -0.483433
64 43.820000 -0.000000 -0.000000 -3.056523 -0.016851 0.035314
65 20.090000 0.979999 9.800000 -0.037369 -0.021660 1.623560
66 15.120001 0.000000 0.000000 0.000000 -0.000000 1.928986
67 20.370001 -1.119999 -0.560000 0.000000 -0.000000 1.587769
68 19.530001 0.000000 0.000000 0.000000 -0.000000 1.991106
69 20.720001 1.400000 -12.180001 0.000000 -0.000000 1.449133
70 18.130003 0.000000 0.000000 0.000000 -0.000000 2.340474
71 7.420000 7.070001 -9.589999 2.604852 -0.157724 1.357514
72 10.710000 0.000000 0.000000 0.000000 -0.000000 0.942501
73 -1.260000 1.470000 0.000000 0.135565 0.098444 0.026757
time 10
0 0.000000 0.000000 0.000000 1.570796 -0.000000 0.000000
1 2.011528 164.438416 1.384768 1.441533 -1.395332 -3.034417
2 40.338474 -99.317200 30.648926 0.715162 0.051553 -0.884145
3 0.000000 0.000000 49.770000 -0.000000 -1.570796 0.000000
4 49.840000 0.000000 0.000000 0.000000 -0.000000 0.000000
5 49.840000 0.000000 0.000000 0.000000 -0.000000 0.000000
6 49.840000 0.000000 0.000000 0.000000 -0.000000 0.000000
7 49.840000 0.000000 0.000000 0.000000 -0.000000 0.000000
8 49.840000 0.000000 0.000000 0.000000 -0.000000 0.000000
9 49.770000 0.000000 0.000000 0.000000 -0.000000 0.000000
10 52.713589 97.813019 49.156403 -0.922060 -0.016775 0.773558
11 -0.000000 0.000000 49.840000 -0.000000 -1.570796 0.000000
12 49.980000 -0.000000 0.000000 0.000000 -0.000000 0.000000
13 49.770000 0.000000 0.000000 0.000000 -0.000000 0.000000
14 49.980000 0.000000 0.000000 0.000000 -0.000000 -0.000000
15 49.349998 0.000000 0.000000 0.000000 -0.000000 0.000000
16 50.049995 -0.000000 -0.000000 0.000000 -0.000000 0.000000
17 50.259998 0.000000 0.000000 0.000000 -0.000000 0.000000
18 -87.609055 -19.656389 71.650192 -0.020884 -0.019702 1.745153
19 123.630852 -8.189999 -42.910004 1.504495 -0.125278 -1.632822
20 113.625717 19.880001 60.962708 1.377014 0.085649 -1.664105
21 49.407520 9.240000 111.123688 1.544886 -0.087469 -1.627066
22 -47.778240 -5.599997 112.367668 1.605716 -0.091171 -1.546018
23 -111.650017 -2.519999 64.093422 1.660184 0.137010 -1.421352
24 -123.433334 16.309999 -40.658337 1.570796 -0.295109 -1.570796
25 0.000000 0.000000 0.000000 -1.570796 -1.570796 0.000000
26 1.960000 22.259998 0.000000 -3.141592 0.000000 2.964348
27 13.860002 -25.129999 0.000000 -3.141592 -0.000000 -2.790858
28 13.650000 -2.520000 23.590000 -1.570796 -0.440099 -3.141593
29 13.650001 -2.520000 -23.590000 1.570796 0.440099 -3.141593
30 17.360001 3.710000 -0.000000 -0.001799 -0.006065 -0.067026
31 35.559998 0.000000 0.000000 0.003585 0.038219 0.082770
32 37.520000 0.000000 0.000000 0.000000 -0.000000 0.000000
33 -17.430000 -5.599999 -19.179998 0.321485 1.291443 -2.832963
34 -0.350000 0.700000 -8.050000 1.570796 0.116958 -0.000000
35 18.480000 12.180000 26.880001 1.697411 -0.305485 1.259554
36 37.730000 0.000000 -0.000000 0.000297 -0.171593 -0.026797
37 32.059998 0.000000 -0.000000 0.000637 0.133347 -0.120604
38 16.170000 -9.870001 -18.059999 -1.585171 0.099521 -1.476996
39 16.240000 -12.670000 9.730000 -1.586568 0.102784 -1.487808
40 19.670000 0.000000 -0.000001 0.778580 -0.695527 -0.129813
41 40.950001 -0.000000 0.000000 0.000000 -0.000000 -1.048254
42 34.019997 -1.259999 17.639999 2.999495 -0.404323 0.577200
43 26.389999 0.000000 0.000000 -0.006283 -0.848257 0.054426
44 43.820000 0.000000 0.000000 2.671376 0.027922 -0.010802
45 20.090000 0.979999 -9.800000 0.037369 0.021660 1.623560
46 15.120002 0.000000 0.000000 0.000000 -0.000000 1.928986
47 20.370001 -1.119999 0.560000 -0.000000 0.000000 1.587769
48 19.530001 0.000000 0.000000 0.000000 -0.000000 1.991106
49 20.720003 1.400001 12.180000 -0.000000 0.000000 1.449133
50 18.130001 -0.000001 0.000000 0.000000 -0.000000 2.340474
51 7.420000 7.070000 9.589999 -2.604852 0.157724 1.357514
52 10.710000 -0.000001 0.000000 0.000000 -0.000000 0.942501
53 -17.430000 -5.599999 19.179998 -0.321485 -1.291443 -2.832963
54 -0.350000 0.700000 8.050000 -1.570796 -0.116958 -0.000000
55 18.410002 12.180000 -26.880001 -1.683127 0.292592 1.287332
56 37.730000 0.000000 0.000000 -0.024989 0.312062 -0.094379
57 32.059998 0.000000 0.000000 -0.012982 0.055147 -0.155179
58 16.100000 -9.870001 18.059999 1.597857 -0.114296 -1.577018
59 16.170000 -12.670000 -9.730000 1.600754 -0.119944 -1.588781
60 19.670000 0.000000 -0.000001 -0.662531 0.461831 -0.222728
61 40.950001 -0.000000 0.000000 0.000000 -0.000000 -1.014260
62 34.019997 -1.259998 -17.640001 -1.783656 0.158969 1.249207
63 26.389999 0.000000 0.000000 -0.144115 0.217161 -0.471778
64 43.820000 -0.000000 -0.000000 -3.116366 -0.009269 0.099899
65 20.090000 0.979999 9.800000 -0.037369 -0.021660 1.623560
66 15.120001 0.000000 0.000000 0.000000 -0.000000 1.928986
67 20.370001 -1.119999 -0.560000 0.000000 -0.000000 1.587769
68 19.530001 0.000000 0.000000 0.000000 -0.000000 1.991106
69 20.720001 1.400000 -12.180001 0.000000 -0.000000 1.449133
70 18.130003 0.000000 0.000000 0.000000 -0.000000 2.340474
71 7.420000 7.070001 -9.589999 2.604852 -0.157724 1.357514
72 10.710000 0.000000 0.000000 0.000000 -0.000000 0.942501
73 -1.260000 1.470000 0.000000 0.137729 0.102279 0.109150
time 11
0 0.000000 0.000000 0.000000 1.570796 -0.000000 0.000000
1 0.559999 168.910004 0.350000 1.355736 -1.392879 -2.948618
2 42.070000 -96.600037 35.979950 0.755157 -0.084409 -0.741709
3 0.000000 0.000000 49.770000 -0.000000 -1.570796 0.000000
4 49.840000 0.000000 0.000000 0.000000 -0.000000 0.000000
5 49.840000 0.000000 0.000000 0.000000 -0.000000 0.000000
6 49.840000 0.000000 0.000000 0.000000 -0.000000 0.000000
7 49.840000 0.000000 0.000000 0.000000 -0.000000 0.000000
8 49.840000 0.000000 0.000000 0.000000 -0.000000 0.000000
9 49.770000 0.000000 0.000000 0.000000 -0.000000 0.000000
10 53.480022 93.309998 54.880005 -0.949116 -0.158794 0.643252
11 -0.000000 0.000000 49.840000 -0.000000 -1.570796 0.000000
12 49.980000 -0.000000 0.000000 0.000000 -0.000000 0.000000
13 49.770000 0.000000 0.000000 0.000000 -0.000000 0.000000
14 49.980000 0.000000 0.000000 0.000000 -0.000000 -0.000000
15 49.349998 0.000000 0.000000 0.000000 -0.000000 0.000000
16 50.049995 -0.000000 -0.000000 0.000000 -0.000000 0.000000
17 50.259998 0.000000 0.000000 0.000000 -0.000000 0.000000
18 -88.620003 -17.779999 72.030014 -0.037308 -0.020866 1.745336
19 126.139999 -8.190000 -36.470001 1.563421 -0.279002 -1.575821
20 111.860001 19.880001 67.060005 1.552429 0.079957 -1.579539
21 49.140003 9.240000 121.869995 1.568144 -0.147109 -1.575613
22 -49.000000 -5.600000 122.079987 1.574681 -0.148177 -1.569079
23 -111.650009 -2.519999 67.409996 1.579337 0.085981 -1.558417
24 -126.140007 16.310001 -36.260002 1.570796 -0.295109 -1.570796
25 0.000000 0.000000 0.000000 -1.570796 -1.570796 0.000000
26 1.960000 22.259998 0.000000 3.141592 -0.000000 2.903053
27 13.860002 -25.129999 0.000000 3.141592 0.000000 -2.728763
28 13.650000 -2.520000 23.590000 -1.570796 -0.500249 -3.141592
29 13.650001 -2.520000 -23.590000 1.570796 0.500249 -3.141592
30 17.360001 3.710000 -0.000000 0.000014 -0.002000 -0.014000
31 35.559998 0.000000 0.000000 0.000619 0.046056 -0.060028
32 37.520000 0.000000 0.000000 0.000000 -0.000000 0.000000
33 -17.430000 -5.599999 -19.179998 0.415890 1.354418 -2.735661
34 -0.350000 0.700000 -8.050000 1.570796 0.184137 -0.000000
35 18.480000 12.180000 26.880001 1.624949 -0.209004 1.514824
36 37.730000 0.000000 -0.000000 0.011613 -0.149737 -0.101188
37 32.059998 0.000000 -0.000000 0.019393 -0.101753 -0.027012
38 16.170000 -9.870001 -18.059999 -1.575596 0.086620 -1.286644
39 16.240000 -12.670000 9.730000 -1.572131 0.090269 -1.266395
40 19.670000 0.000000 -0.000001 0.608731 -0.731458 -0.011733
41 40.950001 -0.000000 0.000000 0.000000 -0.000000 -1.117199
42 34.019997 -1.259999 17.639999 2.888998 -0.440738 0.765708
43 26.389999 0.000000 0.000000 0.042313 -0.853849 0.066505
44 43.820000 0.000000 0.000000 2.755418 -0.018332 -0.124941
45 20.090000 0.979999 -9.800000 0.037369 0.021660 1.623560
46 15.120002 0.000000 0.000000 0.000000 -0.000000 1.928986
47 20.370001 -1.119999 0.560000 -0.000000 0.000000 1.587769
48 19.530001 0.000000 0.000000 0.000000 -0.000000 1.991106
49 20.720003 1.400001 12.180000 -0.000000 0.000000 1.449133
50 18.130001 -0.000001 0.000000 0.000000 -0.000000 2.340474
51 7.420000 7.070000 9.589999 -2.604852 0.157724 1.357514
52 10.710000 -0.000001 0.000000 0.000000 -0.000000 0.942501
53 -17.430000 -5.599999 19.179998 -0.415890 -1.354418 -2.735661
54 -0.350000 0.700000 8.050000 -1.570796 -0.184137 0.000000
55 18.410002 12.180000 -26.880001 -1.640384 0.204549 1.442831
56 37.730000 0.000000 0.000000 -0.034373 0.224290 -0.179179
57 32.059998 0.000000 0.000000 -0.029061 0.157031 -0.088578
58 16.100000 -9.870001 18.059999 1.569912 -0.078920 -1.243096
59 16.170000 -12.670000 -9.730000 1.567545 -0.083699 -1.229667
60 19.670000 0.000000 -0.000001 -0.524180 0.524210 -0.147967
61 40.950001 -0.000000 0.000000 0.000000 -0.000000 -1.082211
62 34.019997 -1.259998 -17.640001 -1.780669 0.158690 1.271680
63 26.389999 0.000000 0.000000 -0.147978 0.151134 -0.494837
64 43.820000 -0.000000 -0.000000 3.083748 -0.016697 -0.023540
65 20.090000 0.979999 9.800000 -0.037369 -0.021660 1.623560
66 15.120001 0.000000 0.000000 0.000000 -0.000000 1.928986
67 20.370001 -1.119999 -0.560000 0.000000 -0.000000 1.587769
68 19.530001 0.000000 0.000000 0.000000 -0.000000 1.991106
69 20.720001 1.400000 -12.180001 0.000000 -0.000000 1.449133
70 18.130003 0.000000 0.000000 0.000000 -0.000000 2.340474
71 7.420000 7.070001 -9.589999 2.604852 -0.157724 1.357514
72 10.710000 0.000000 0.000000 0.000000 -0.000000 0.942501
73 -1.260000 1.470000 0.000000 0.128808 0.063529 0.136568
end
