version 1
nodes
0 "npc_boss_016" -1
1 "Bip001" 0
2 "Bip001 Prop3" 1
3 "Bone035" 2
4 "Bone036" 3
5 "Bone037" 4
6 "Bone038" 5
7 "Bone039" 6
8 "Bone040" 7
9 "Bone041" 8
10 "Bip001 Prop2" 1
11 "Bone028" 10
12 "Bone029" 11
13 "Bone030" 12
14 "Bone031" 13
15 "Bone032" 14
16 "Bone033" 15
17 "Bone034" 16
18 "Bip001 Prop1" 1
19 "Bone027" 18
20 "Bone026" 18
21 "Bone025" 18
22 "Bone024" 18
23 "Bone022" 18
24 "Bone021" 18
25 "Bip001 Pelvis" 1
26 "Bone020" 25
27 "Bone019" 25
28 "Bone018" 25
29 "Bone017" 25
30 "Bip001 Spine" 25
31 "Bip001 Spine1" 30
32 "Bip001 Neck" 31
33 "Bip001 R Clavicle" 32
34 "Bone011" 33
35 "Bone014" 34
36 "Bone015" 35
37 "Bone016" 36
38 "Bone013" 34
39 "Bone012" 34
40 "Bip001 R UpperArm" 33
41 "Bip001 R Forearm" 40
42 "Bone009" 41
43 "Bone010" 42
44 "Bip001 R Hand" 41
45 "Bip001 R Finger3" 44
46 "Bip001 R Finger31" 45
47 "Bip001 R Finger2" 44
48 "Bip001 R Finger21" 47
49 "Bip001 R Finger1" 44
50 "Bip001 R Finger11" 49
51 "Bip001 R Finger0" 44
52 "Bip001 R Finger01" 51
53 "Bip001 L Clavicle" 32
54 "Bone003" 53
55 "Bone006" 54
56 "Bone007" 55
57 "Bone008" 56
58 "Bone005" 54
59 "Bone004" 54
60 "Bip001 L UpperArm" 53
61 "Bip001 L Forearm" 60
62 "Bone001" 61
63 "Bone002" 62
64 "Bip001 L Hand" 61
65 "Bip001 L Finger3" 64
66 "Bip001 L Finger31" 65
67 "Bip001 L Finger2" 64
68 "Bip001 L Finger21" 67
69 "Bip001 L Finger1" 64
70 "Bip001 L Finger11" 69
71 "Bip001 L Finger0" 64
72 "Bip001 L Finger01" 71
73 "Bip001 Head" 32
end
skeleton
time 0
0 0.000000 0.000000 0.000000 1.570796 -0.000000 0.000000
1 -0.978247 165.082275 -0.671745 0.607195 -1.015944 -2.248249
2 10.915917 -84.981812 -17.176880 -1.389797 1.097667 -0.791115
3 0.000000 0.000000 49.770000 -0.000000 -1.570796 0.000000
4 49.840000 0.000000 0.000000 0.000000 -0.000000 0.000000
5 49.840000 0.000000 0.000000 0.000000 -0.000000 0.000000
6 49.840000 0.000000 0.000000 0.000000 -0.000000 0.000000
7 49.840000 0.000000 0.000000 0.000000 -0.000000 0.000000
8 49.840000 0.000000 0.000000 0.000000 -0.000000 0.000000
9 49.770000 0.000000 0.000000 0.000000 -0.000000 0.000000
10 -19.466034 90.575989 -12.200180 1.122748 0.897495 1.065073
11 -0.000000 0.000000 49.840000 -0.000000 -1.570796 0.000000
12 49.980000 -0.000000 0.000000 0.000000 -0.000000 0.000000
13 49.770000 0.000000 0.000000 0.000000 -0.000000 0.000000
14 49.980000 0.000000 0.000000 0.000000 -0.000000 -0.000000
15 49.349998 0.000000 0.000000 0.000000 -0.000000 0.000000
16 50.049995 -0.000000 -0.000000 0.000000 -0.000000 0.000000
17 50.259998 0.000000 0.000000 0.000000 -0.000000 0.000000
18 -103.950012 -34.720009 27.510002 -0.185072 0.006205 1.907224
19 126.419998 -9.339567 -40.107006 1.602363 -0.315787 -1.600107
20 111.650009 27.419067 61.759052 1.570796 0.082036 -1.570796
21 49.140003 20.453875 116.411224 1.620728 -0.153669 -1.570773
22 -48.040001 30.007755 118.527565 1.544363 -0.112606 -1.592450
23 -110.798759 14.440630 65.646629 1.561101 0.097403 -1.569879
24 -126.419998 9.501406 -40.560543 1.529328 -0.261216 -1.554459
25 0.000000 0.000000 0.000000 -1.570796 -1.570796 0.000000
26 1.960000 22.259998 0.840000 3.098762 -0.011650 2.841804
27 13.860002 -25.060001 -1.260000 3.102899 0.018735 -2.667501
28 13.650000 -3.570000 23.309999 -1.620904 -0.561736 -3.116658
29 13.650001 -1.470000 -23.800001 1.520689 0.561736 3.116658
30 17.360001 3.710000 -0.000000 0.044039 0.003245 0.001404
31 35.559998 0.000000 0.000000 0.123045 0.022239 -0.054472
32 37.520000 0.000000 0.000000 0.000000 -0.000000 0.000000
33 -17.430000 -5.599999 -19.179998 0.547521 1.397006 -2.601490
34 -0.350000 0.700000 -8.050000 1.569305 0.248482 -0.000184
35 18.480000 12.180000 26.880001 1.605141 -0.195193 1.597350
36 37.730000 0.000000 -0.000000 0.007936 0.068458 -0.303292
37 32.059998 0.000000 -0.000000 0.025259 -0.032292 -0.173476
38 16.170000 -9.870001 -18.059999 -1.566380 0.128690 -1.320038
39 16.240000 -12.670000 9.730000 -1.565415 0.132676 -1.312991
40 19.670000 0.000000 -0.000001 -0.458644 -0.770378 0.159775
41 40.950001 -0.000000 0.000000 0.000000 -0.000000 -0.322599
42 34.019997 -1.259999 17.639999 2.724130 -0.629301 1.074664
43 26.389999 0.000000 0.000000 0.017432 0.053817 -0.280468
44 43.820000 0.000000 0.000000 1.492140 -0.111787 -0.083317
45 20.090000 0.979999 -9.800000 0.037369 0.021660 1.623560
46 15.120002 0.000000 0.000000 0.000000 -0.000000 1.928986
47 20.370001 -1.119999 0.560000 -0.000000 0.000000 1.587769
48 19.530001 0.000000 0.000000 0.000000 -0.000000 1.991106
49 20.720003 1.400001 12.180000 -0.000000 0.000000 1.449133
50 18.130001 -0.000001 0.000000 0.000000 -0.000000 2.340474
51 7.420000 7.070000 9.589999 -2.604852 0.157724 1.357514
52 10.710000 -0.000001 0.000000 0.000000 -0.000000 0.942501
53 -17.430000 -5.599999 19.179998 -0.568734 -1.401145 -2.580189
54 -0.350000 0.700000 8.050000 -1.569305 -0.248482 -0.000184
55 18.410002 12.180000 -26.880001 -1.629029 -0.007624 1.400941
56 37.730000 0.000000 0.000000 0.018087 0.056161 -0.275696
57 32.059998 0.000000 0.000000 0.020703 0.050239 -0.294664
58 16.100000 -9.870001 18.059999 1.562392 -0.122322 -1.281641
59 16.170000 -12.670000 -9.730000 1.558626 -0.130419 -1.263687
60 19.670000 0.000000 -0.000001 0.379836 0.689421 0.191465
61 40.950001 -0.000000 0.000000 0.000000 -0.000000 -0.417539
62 34.019997 -1.259998 -17.640001 -2.766802 0.338914 1.325840
63 26.389999 0.000000 0.000000 -0.141535 0.177691 -0.481284
64 43.820000 -0.000000 -0.000000 -1.677995 0.079631 -0.132043
65 20.090000 0.979999 9.800000 -0.037369 -0.021660 1.623560
66 15.120001 0.000000 0.000000 0.000000 -0.000000 1.928986
67 20.370001 -1.119999 -0.560000 0.000000 -0.000000 1.587769
68 19.530001 0.000000 0.000000 0.000000 -0.000000 1.991106
69 20.720001 1.400000 -12.180001 0.000000 -0.000000 1.449133
70 18.130003 0.000000 0.000000 0.000000 -0.000000 2.340474
71 7.420000 7.070001 -9.589999 2.604852 -0.157724 1.357514
72 10.710000 0.000000 0.000000 0.000000 -0.000000 0.942501
73 -1.260000 1.470000 0.000000 0.218733 -0.071357 -0.241387
time 1
0 0.000000 0.000000 0.000000 1.570796 -0.000000 0.000000
1 -1.898138 157.639801 -1.309280 0.611931 -1.018950 -2.252445
2 12.950000 -84.910034 -15.820038 -1.288247 1.094833 -0.588067
3 0.000000 0.000000 49.770000 -0.000000 -1.570796 0.000000
4 49.840000 0.000000 0.000000 0.000000 -0.000000 0.000000
5 49.840000 0.000000 0.000000 0.000000 -0.000000 0.000000
6 49.840000 0.000000 0.000000 0.000000 -0.000000 0.000000
7 49.840000 0.000000 0.000000 0.000000 -0.000000 0.000000
8 49.840000 0.000000 0.000000 0.000000 -0.000000 0.000000
9 49.770000 0.000000 0.000000 0.000000 -0.000000 0.000000
10 -17.009975 92.680023 -10.359985 1.095224 0.853451 0.933562
11 -0.000000 0.000000 49.840000 -0.000000 -1.570796 0.000000
12 49.980000 -0.000000 0.000000 0.000000 -0.000000 0.000000
13 49.770000 0.000000 0.000000 0.000000 -0.000000 0.000000
14 49.980000 0.000000 0.000000 0.000000 -0.000000 -0.000000
15 49.349998 0.000000 0.000000 0.000000 -0.000000 0.000000
16 50.049995 -0.000000 -0.000000 0.000000 -0.000000 0.000000
17 50.259998 0.000000 0.000000 0.000000 -0.000000 0.000000
18 -104.632706 -33.604347 30.516563 -0.181061 0.006247 1.907424
19 126.419998 -10.533997 -44.613258 1.634931 -0.339469 -1.632449
20 111.650017 25.549042 57.767807 1.570796 0.082036 -1.570796
21 49.139999 18.525303 109.236938 1.675114 -0.153138 -1.570748
22 -46.779999 28.619181 115.981850 1.517489 -0.070384 -1.614450
23 -109.822624 13.420803 61.858700 1.549985 0.115022 -1.568827
24 -126.419998 7.555745 -40.034256 1.484927 -0.224930 -1.536977
25 0.000000 0.000000 0.000000 -1.570796 -1.570796 0.000000
26 1.960000 22.259998 0.840000 3.098795 -0.011627 2.802638
27 13.860002 -25.060001 -1.260000 3.103065 0.018631 -2.628645
28 13.650000 -3.570000 23.309999 -1.620327 -0.600455 -3.117005
29 13.650001 -1.470000 -23.800001 1.521266 0.600455 3.117005
30 17.360001 3.710000 -0.000000 0.044108 0.006812 0.003252
31 35.559998 0.000000 0.000000 0.123490 0.007983 -0.017709
32 37.520000 0.000000 0.000000 0.000000 -0.000000 0.000000
33 -17.430000 -5.599999 -19.179998 0.630477 1.420623 -2.517308
34 -0.350000 0.700000 -8.050000 1.569250 0.287359 -0.000216
35 18.480000 12.180000 26.880001 1.605675 -0.213595 1.592012
36 37.730000 0.000000 -0.000000 0.007808 0.063547 -0.278216
37 32.059998 0.000000 -0.000000 0.024716 -0.008420 -0.162728
38 16.170000 -9.870001 -18.059999 -1.565357 0.150671 -1.320952
39 16.240000 -12.670000 9.730000 -1.564522 0.154688 -1.317092
40 19.670000 0.000000 -0.000001 -0.439478 -0.803379 0.135420
41 40.950001 -0.000000 0.000000 0.000000 -0.000000 -0.358908
42 34.019997 -1.259999 17.639999 2.693886 -0.616705 1.121603
43 26.389999 0.000000 0.000000 0.016492 0.060996 -0.312655
44 43.820000 0.000000 0.000000 1.447744 -0.129816 -0.142764
45 20.090000 0.979999 -9.800000 0.037369 0.021660 1.623560
46 15.120002 0.000000 0.000000 0.000000 -0.000000 1.928986
47 20.370001 -1.119999 0.560000 -0.000000 0.000000 1.587769
48 19.530001 0.000000 0.000000 0.000000 -0.000000 1.991106
49 20.720003 1.400001 12.180000 -0.000000 0.000000 1.449133
50 18.130001 -0.000001 0.000000 0.000000 -0.000000 2.340474
51 7.420000 7.070000 9.589999 -2.604852 0.157724 1.357514
52 10.710000 -0.000001 0.000000 0.000000 -0.000000 0.942501
53 -17.430000 -5.599999 19.179998 -0.670933 -1.428115 -2.476721
54 -0.350000 0.700000 8.050000 -1.569250 -0.287359 -0.000216
55 18.410002 12.180000 -26.880001 -1.630955 0.013132 1.394175
56 37.730000 0.000000 0.000000 0.016742 0.069453 -0.240980
57 32.059998 0.000000 0.000000 0.020027 0.047945 -0.273473
58 16.100000 -9.870001 18.059999 1.561824 -0.145809 -1.287895
59 16.170000 -12.670000 -9.730000 1.558578 -0.154536 -1.269236
60 19.670000 0.000000 -0.000001 0.343241 0.704007 0.158072
61 40.950001 -0.000000 0.000000 0.000000 -0.000000 -0.452674
62 34.019997 -1.259998 -17.640001 -2.761755 0.316501 1.359749
63 26.389999 0.000000 0.000000 -0.147390 0.184597 -0.515126
64 43.820000 -0.000000 -0.000000 -1.631949 0.075217 -0.193730
65 20.090000 0.979999 9.800000 -0.037369 -0.021660 1.623560
66 15.120001 0.000000 0.000000 0.000000 -0.000000 1.928986
67 20.370001 -1.119999 -0.560000 0.000000 -0.000000 1.587769
68 19.530001 0.000000 0.000000 0.000000 -0.000000 1.991106
69 20.720001 1.400000 -12.180001 0.000000 -0.000000 1.449133
70 18.130003 0.000000 0.000000 0.000000 -0.000000 2.340474
71 7.420000 7.070001 -9.589999 2.604852 -0.157724 1.357514
72 10.710000 0.000000 0.000000 0.000000 -0.000000 0.942501
73 -1.260000 1.470000 0.000000 0.221139 -0.086095 -0.307198
time 2
0 0.000000 0.000000 0.000000 1.570796 -0.000000 0.000000
1 -1.892628 149.432419 -1.297520 0.616883 -1.022094 -2.256833
2 13.069838 -84.104187 -16.076050 -1.305727 1.096696 -0.567033
3 0.000000 0.000000 49.770000 -0.000000 -1.570796 0.000000
4 49.840000 0.000000 0.000000 0.000000 -0.000000 0.000000
5 49.840000 0.000000 0.000000 0.000000 -0.000000 0.000000
6 49.840000 0.000000 0.000000 0.000000 -0.000000 0.000000
7 49.840000 0.000000 0.000000 0.000000 -0.000000 0.000000
8 49.840000 0.000000 0.000000 0.000000 -0.000000 0.000000
9 49.770000 0.000000 0.000000 0.000000 -0.000000 0.000000
10 -17.125767 93.073212 -10.115768 1.155930 0.866427 0.974760
11 -0.000000 0.000000 49.840000 -0.000000 -1.570796 0.000000
12 49.980000 -0.000000 0.000000 0.000000 -0.000000 0.000000
13 49.770000 0.000000 0.000000 0.000000 -0.000000 0.000000
14 49.980000 0.000000 0.000000 0.000000 -0.000000 -0.000000
15 49.349998 0.000000 0.000000 0.000000 -0.000000 0.000000
16 50.049995 -0.000000 -0.000000 0.000000 -0.000000 0.000000
17 50.259998 0.000000 0.000000 0.000000 -0.000000 0.000000
18 -104.452034 -33.708206 31.779243 -0.176866 0.006290 1.907633
19 126.419998 -11.234952 -47.257771 1.664498 -0.354138 -1.655696
20 111.650017 23.644863 53.703671 1.570796 0.082036 -1.570796
21 49.140003 17.208979 104.340210 1.716135 -0.152736 -1.570729
22 -45.480000 27.186529 113.355301 1.490835 -0.028498 -1.636276
23 -108.836906 12.390943 58.033497 1.538666 0.132964 -1.567756
24 -126.419998 5.632544 -39.514038 1.442620 -0.190353 -1.520312
25 0.000000 0.000000 0.000000 -1.570796 -1.570796 0.000000
26 1.960000 22.259998 0.840000 3.098935 -0.011604 2.791800
27 13.860002 -25.060001 -1.260000 3.103103 0.018594 -2.618041
28 13.650000 -3.570000 23.309999 -1.620057 -0.611691 -3.117134
29 13.650001 -1.470000 -23.800001 1.521536 0.611691 3.117134
30 17.360001 3.710000 -0.000000 0.044107 0.009412 0.003769
31 35.559998 0.000000 0.000000 0.123886 -0.001866 0.013007
32 37.520000 0.000000 0.000000 0.000000 -0.000000 0.000000
33 -17.430000 -5.599999 -19.179998 0.680465 1.433063 -2.466677
34 -0.350000 0.700000 -8.050000 1.569334 0.297989 -0.000220
35 18.480000 12.180000 26.880001 1.613207 -0.226053 1.556164
36 37.730000 0.000000 -0.000000 0.006656 -0.002796 -0.266468
37 32.059998 0.000000 -0.000000 0.022276 0.000010 -0.143721
38 16.170000 -9.870001 -18.059999 -1.567191 0.157835 -1.341259
39 16.240000 -12.670000 9.730000 -1.566816 0.162054 -1.340716
40 19.670000 0.000000 -0.000001 -0.413967 -0.825774 0.109935
41 40.950001 -0.000000 0.000000 0.000000 -0.000000 -0.382254
42 34.019997 -1.259999 17.639999 2.681504 -0.585491 1.140770
43 26.389999 0.000000 0.000000 0.015219 0.053355 -0.339432
44 43.820000 0.000000 0.000000 1.409779 -0.134596 -0.167097
45 20.090000 0.979999 -9.800000 0.037369 0.021660 1.623560
46 15.120002 0.000000 0.000000 0.000000 -0.000000 1.928986
47 20.370001 -1.119999 0.560000 -0.000000 0.000000 1.587769
48 19.530001 0.000000 0.000000 0.000000 -0.000000 1.991106
49 20.720003 1.400001 12.180000 -0.000000 0.000000 1.449133
50 18.130001 -0.000001 0.000000 0.000000 -0.000000 2.340474
51 7.420000 7.070000 9.589999 -2.604852 0.157724 1.357514
52 10.710000 -0.000001 0.000000 0.000000 -0.000000 0.942501
53 -17.430000 -5.599999 19.179998 -0.722277 -1.439154 -2.424886
54 -0.350000 0.700000 8.050000 -1.569334 -0.297989 -0.000220
55 18.410002 12.180000 -26.880001 -1.636352 0.025392 1.377130
56 37.730000 0.000000 0.000000 0.019056 0.129974 -0.216781
57 32.059998 0.000000 0.000000 0.022110 0.063241 -0.240603
58 16.100000 -9.870001 18.059999 1.566823 -0.157170 -1.332277
59 16.170000 -12.670000 -9.730000 1.566363 -0.163667 -1.331348
60 19.670000 0.000000 -0.000001 0.313744 0.713818 0.132355
61 40.950001 -0.000000 0.000000 0.000000 -0.000000 -0.467991
62 34.019997 -1.259998 -17.640001 -2.760757 0.299744 1.367978
63 26.389999 0.000000 0.000000 -0.152278 0.195704 -0.539169
64 43.820000 -0.000000 -0.000000 -1.593033 0.073037 -0.217905
65 20.090000 0.979999 9.800000 -0.037369 -0.021660 1.623560
66 15.120001 0.000000 0.000000 0.000000 -0.000000 1.928986
67 20.370001 -1.119999 -0.560000 0.000000 -0.000000 1.587769
68 19.530001 0.000000 0.000000 0.000000 -0.000000 1.991106
69 20.720001 1.400000 -12.180001 0.000000 -0.000000 1.449133
70 18.130003 0.000000 0.000000 0.000000 -0.000000 2.340474
71 7.420000 7.070001 -9.589999 2.604852 -0.157724 1.357514
72 10.710000 0.000000 0.000000 0.000000 -0.000000 0.942501
73 -1.260000 1.470000 0.000000 0.222256 -0.091868 -0.351409
time 3
0 0.000000 0.000000 0.000000 1.570796 -0.000000 0.000000
1 -1.064000 143.082825 -0.722960 0.621681 -1.025140 -2.261084
2 12.055680 -83.132446 -17.094971 -1.440793 1.105496 -0.722922
3 0.000000 0.000000 49.770000 -0.000000 -1.570796 0.000000
4 49.840000 0.000000 0.000000 0.000000 -0.000000 0.000000
5 49.840000 0.000000 0.000000 0.000000 -0.000000 0.000000
6 49.840000 0.000000 0.000000 0.000000 -0.000000 0.000000
7 49.840000 0.000000 0.000000 0.000000 -0.000000 0.000000
8 49.840000 0.000000 0.000000 0.000000 -0.000000 0.000000
9 49.770000 0.000000 0.000000 0.000000 -0.000000 0.000000
10 -19.809364 91.875732 -11.233246 1.270363 0.913974 1.120278
11 -0.000000 0.000000 49.840000 -0.000000 -1.570796 0.000000
12 49.980000 -0.000000 0.000000 0.000000 -0.000000 0.000000
13 49.770000 0.000000 0.000000 0.000000 -0.000000 0.000000
14 49.980000 0.000000 0.000000 0.000000 -0.000000 -0.000000
15 49.349998 0.000000 0.000000 0.000000 -0.000000 0.000000
16 50.049995 -0.000000 -0.000000 0.000000 -0.000000 0.000000
17 50.259998 0.000000 0.000000 0.000000 -0.000000 0.000000
18 -103.529167 -34.616768 31.668777 -0.172801 0.006333 1.907834
19 126.419998 -11.198175 -47.119022 1.687470 -0.346896 -1.657070
20 111.650009 21.911463 50.004021 1.570796 0.082036 -1.570796
21 49.140003 17.069740 103.822235 1.726920 -0.152631 -1.570724
22 -44.259998 25.842041 110.890404 1.465065 0.012050 -1.657412
23 -107.956841 11.471467 54.618301 1.528361 0.149296 -1.566781
24 -126.419991 4.001329 -39.072815 1.407440 -0.161587 -1.506431
25 0.000000 0.000000 0.000000 -1.570796 -1.570796 0.000000
26 1.960000 22.259998 0.840000 3.099280 -0.011574 2.822428
27 13.860002 -25.060001 -1.260000 3.102950 0.018651 -2.648839
28 13.650000 -3.570000 23.309999 -1.620178 -0.584590 -3.116969
29 13.650001 -1.470000 -23.800001 1.521415 0.584590 3.116969
30 17.360001 3.710000 -0.000000 0.043942 0.009798 0.001189
31 35.559998 0.000000 0.000000 0.124204 -0.002802 0.032745
32 37.520000 0.000000 0.000000 0.000000 -0.000000 0.000000
33 -17.430000 -5.599999 -19.179998 0.655326 1.419607 -2.492535
34 -0.350000 0.700000 -8.050000 1.569654 0.267230 -0.000178
35 18.480000 12.180000 26.880001 1.629038 -0.232668 1.484052
36 37.730000 0.000000 -0.000000 0.004097 -0.094856 -0.252570
37 32.059998 0.000000 -0.000000 0.018670 -0.048956 -0.122978
38 16.170000 -9.870001 -18.059999 -1.572221 0.150564 -1.384165
39 16.240000 -12.670000 9.730000 -1.572714 0.155160 -1.387420
40 19.670000 0.000000 -0.000001 -0.370582 -0.823427 0.079604
41 40.950001 -0.000000 0.000000 0.000000 -0.000000 -0.374445
42 34.019997 -1.259999 17.639999 2.687828 -0.531280 1.130899
43 26.389999 0.000000 0.000000 0.012701 0.007707 -0.361795
44 43.820000 0.000000 0.000000 1.378918 -0.107410 -0.109817
45 20.090000 0.979999 -9.800000 0.037369 0.021660 1.623560
46 15.120002 0.000000 0.000000 0.000000 -0.000000 1.928986
47 20.370001 -1.119999 0.560000 -0.000000 0.000000 1.587769
48 19.530001 0.000000 0.000000 0.000000 -0.000000 1.991106
49 20.720003 1.400001 12.180000 -0.000000 0.000000 1.449133
50 18.130001 -0.000001 0.000000 0.000000 -0.000000 2.340474
51 7.420000 7.070000 9.589999 -2.604852 0.157724 1.357514
52 10.710000 -0.000001 0.000000 0.000000 -0.000000 0.942501
53 -17.430000 -5.599999 19.179998 -0.673918 -1.418061 -2.474337
54 -0.350000 0.700000 8.050000 -1.569654 -0.267230 -0.000178
55 18.410002 12.180000 -26.880001 -1.646052 0.030366 1.347232
56 37.730000 0.000000 0.000000 0.020643 0.177579 -0.209474
57 32.059998 0.000000 0.000000 0.025181 0.107570 -0.210320
58 16.100000 -9.870001 18.059999 1.578357 -0.155777 -1.422003
59 16.170000 -12.670000 -9.730000 1.578812 -0.161595 -1.427131
60 19.670000 0.000000 -0.000001 0.297404 0.714115 0.121273
61 40.950001 -0.000000 0.000000 0.000000 -0.000000 -0.445069
62 34.019997 -1.259998 -17.640001 -2.763414 0.285553 1.353438
63 26.389999 0.000000 0.000000 -0.156642 0.217973 -0.549731
64 43.820000 -0.000000 -0.000000 -1.563135 0.075727 -0.154386
65 20.090000 0.979999 9.800000 -0.037369 -0.021660 1.623560
66 15.120001 0.000000 0.000000 0.000000 -0.000000 1.928986
67 20.370001 -1.119999 -0.560000 0.000000 -0.000000 1.587769
68 19.530001 0.000000 0.000000 0.000000 -0.000000 1.991106
69 20.720001 1.400000 -12.180001 0.000000 -0.000000 1.449133
70 18.130003 0.000000 0.000000 0.000000 -0.000000 2.340474
71 7.420000 7.070001 -9.589999 2.604852 -0.157724 1.357514
72 10.710000 0.000000 0.000000 0.000000 -0.000000 0.942501
73 -1.260000 1.470000 0.000000 0.220564 -0.077710 -0.353572
time 4
0 0.000000 0.000000 0.000000 1.570796 -0.000000 0.000000
1 -0.000000 140.000000 0.000000 0.625951 -1.027851 -2.264866
2 9.800001 -82.460083 -18.620041 -1.601297 1.102812 -0.933435
3 0.000000 0.000000 49.770000 -0.000000 -1.570796 0.000000
4 49.840000 0.000000 0.000000 0.000000 -0.000000 0.000000
5 49.840000 0.000000 0.000000 0.000000 -0.000000 0.000000
6 49.840000 0.000000 0.000000 0.000000 -0.000000 0.000000
7 49.840000 0.000000 0.000000 0.000000 -0.000000 0.000000
8 49.840000 0.000000 0.000000 0.000000 -0.000000 0.000000
9 49.770000 0.000000 0.000000 0.000000 -0.000000 0.000000
10 -23.099979 89.950012 -12.809982 1.371533 0.958709 1.272134
11 -0.000000 0.000000 49.840000 -0.000000 -1.570796 0.000000
12 49.980000 -0.000000 0.000000 0.000000 -0.000000 0.000000
13 49.770000 0.000000 0.000000 0.000000 -0.000000 0.000000
14 49.980000 0.000000 0.000000 0.000000 -0.000000 -0.000000
15 49.349998 0.000000 0.000000 0.000000 -0.000000 0.000000
16 50.049995 -0.000000 -0.000000 0.000000 -0.000000 0.000000
17 50.259998 0.000000 0.000000 0.000000 -0.000000 0.000000
18 -102.717407 -35.767632 31.276375 -0.169184 0.006371 1.908014
19 126.419998 -10.909625 -46.030403 1.707435 -0.299736 -1.621674
20 111.650009 20.553776 47.106270 1.570796 0.082036 -1.570796
21 49.139999 17.504654 105.440102 1.716135 -0.152737 -1.570729
22 -43.240002 24.717958 108.829590 1.440842 0.050256 -1.677337
23 -107.297691 10.782802 52.060402 1.520290 0.162088 -1.566017
24 -126.419991 2.931635 -38.783470 1.385202 -0.143373 -1.497599
25 0.000000 0.000000 0.000000 -1.570796 -1.570796 0.000000
26 1.960000 22.259998 0.840000 3.099746 -0.011539 2.875478
27 13.860002 -25.060001 -1.260000 3.102693 0.018757 -2.702039
28 13.650000 -3.570000 23.309999 -1.620492 -0.537281 -3.116653
29 13.650001 -1.470000 -23.800001 1.521100 0.537281 3.116653
30 17.360001 3.710000 -0.000000 0.043568 0.008144 -0.005191
31 35.559998 0.000000 0.000000 0.124549 0.002818 0.049577
32 37.520000 0.000000 0.000000 0.000000 -0.000000 0.000000
33 -17.430000 -5.599999 -19.179998 0.542307 1.374658 -2.607922
34 -0.350000 0.700000 -8.050000 1.570110 0.214077 -0.000113
35 18.480000 12.180000 26.880001 1.636548 -0.230619 1.449274
36 37.730000 0.000000 -0.000000 0.000682 -0.198010 -0.237724
37 32.059998 0.000000 -0.000000 0.012846 -0.194036 -0.098483
38 16.170000 -9.870001 -18.059999 -1.575852 0.139007 -1.412529
39 16.240000 -12.670000 9.730000 -1.576826 0.144001 -1.417688
40 19.670000 0.000000 -0.000001 -0.298299 -0.790224 0.038471
41 40.950001 -0.000000 0.000000 0.000000 -0.000000 -0.325228
42 34.019997 -1.259999 17.639999 2.705616 -0.511899 1.102536
43 26.389999 0.000000 0.000000 0.010187 -0.049290 -0.373709
44 43.820000 0.000000 0.000000 1.364251 -0.067653 -0.015473
45 20.090000 0.979999 -9.800000 0.037369 0.021660 1.623560
46 15.120002 0.000000 0.000000 0.000000 -0.000000 1.928986
47 20.370001 -1.119999 0.560000 -0.000000 0.000000 1.587769
48 19.530001 0.000000 0.000000 0.000000 -0.000000 1.991107
49 20.720003 1.400001 12.180000 -0.000000 0.000000 1.449133
50 18.130001 -0.000001 0.000000 0.000000 -0.000000 2.340474
51 7.420000 7.070000 9.589999 -2.604852 0.157724 1.357514
52 10.710000 -0.000001 0.000000 0.000000 -0.000000 0.942501
53 -17.430000 -5.599999 19.179998 -0.548257 -1.371289 -2.602360
54 -0.350000 0.700000 8.050000 -1.570110 -0.214077 -0.000113
55 18.410002 12.180000 -26.880001 -1.651749 0.027510 1.329791
56 37.730000 0.000000 0.000000 0.020621 0.210449 -0.215195
57 32.059998 0.000000 0.000000 0.030341 0.209886 -0.180170
58 16.100000 -9.870001 18.059999 1.584094 -0.147570 -1.464705
59 16.170000 -12.670000 -9.730000 1.585100 -0.149980 -1.479308
60 19.670000 0.000000 -0.000001 0.285456 0.708063 0.117032
61 40.950001 -0.000000 0.000000 0.000000 -0.000000 -0.393119
62 34.019997 -1.259998 -17.640001 -2.767161 0.280731 1.330737
63 26.389999 0.000000 0.000000 -0.160041 0.244444 -0.550495
64 43.820000 -0.000000 -0.000000 -1.549829 0.081164 -0.051880
65 20.090000 0.979999 9.800000 -0.037369 -0.021660 1.623560
66 15.120001 0.000000 0.000000 0.000000 -0.000000 1.928986
67 20.370001 -1.119999 -0.560000 0.000000 -0.000000 1.587769
68 19.530001 0.000000 0.000000 0.000000 -0.000000 1.991107
69 20.720001 1.400000 -12.180001 0.000000 -0.000000 1.449133
70 18.130003 0.000000 0.000000 0.000000 -0.000000 2.340474
71 7.420000 7.070001 -9.589999 2.604852 -0.157724 1.357514
72 10.710000 0.000000 0.000000 0.000000 -0.000000 0.942501
73 -1.260000 1.470000 0.000000 0.216492 -0.046503 -0.322227
time 5
0 0.000000 0.000000 0.000000 1.570796 -0.000000 0.000000
1 0.969020 144.331284 0.645098 0.629322 -1.029991 -2.267853
2 6.672959 -83.776123 -19.402924 -1.797744 1.060357 -1.227652
3 0.000000 0.000000 49.770000 -0.000000 -1.570796 0.000000
4 49.840000 0.000000 0.000000 0.000000 -0.000000 0.000000
5 49.840000 0.000000 0.000000 0.000000 -0.000000 0.000000
6 49.840000 0.000000 0.000000 0.000000 -0.000000 0.000000
7 49.840000 0.000000 0.000000 0.000000 -0.000000 0.000000
8 49.840000 0.000000 0.000000 0.000000 -0.000000 0.000000
9 49.770000 0.000000 0.000000 0.000000 -0.000000 0.000000
10 -25.619087 87.421997 -14.356384 1.450372 0.990986 1.422284
11 -0.000000 0.000000 49.840000 -0.000000 -1.570796 0.000000
12 49.980000 -0.000000 0.000000 0.000000 -0.000000 0.000000
13 49.770000 0.000000 0.000000 0.000000 -0.000000 0.000000
14 49.980000 0.000000 0.000000 0.000000 -0.000000 -0.000000
15 49.349998 0.000000 0.000000 0.000000 -0.000000 0.000000
16 50.049995 -0.000000 -0.000000 0.000000 -0.000000 0.000000
17 50.259998 0.000000 0.000000 0.000000 -0.000000 0.000000
18 -102.698891 -37.137142 31.219551 -0.166329 0.006400 1.908156
19 126.419998 -10.455832 -44.318367 1.719172 -0.239097 -1.571399
20 111.650009 19.776735 45.447811 1.570796 0.082036 -1.570796
21 49.139999 18.264551 108.266937 1.694124 -0.152951 -1.570739
22 -42.540001 23.946527 107.415298 1.413249 0.094238 -1.700391
23 -106.974709 10.445368 50.807076 1.515672 0.169410 -1.565580
24 -126.419991 2.717362 -38.725517 1.392514 -0.149217 -1.500237
25 0.000000 0.000000 0.000000 -1.570796 -1.570796 0.000000
26 1.960000 22.259998 0.840000 3.100171 -0.011511 2.931014
27 13.860002 -25.060001 -1.260000 3.102427 0.018873 -2.757660
28 13.650000 -3.570000 23.309999 -1.620885 -0.485752 -3.116295
29 13.650001 -1.470000 -23.800001 1.520708 0.485752 3.116295
30 17.360001 3.710000 -0.000000 0.043076 0.005331 -0.013698
31 35.559998 0.000000 0.000000 0.124864 0.012001 0.062111
32 37.520000 0.000000 0.000000 0.000000 -0.000000 0.000000
33 -17.430000 -5.599999 -19.179998 0.407654 1.323507 -2.745265
34 -0.350000 0.700000 -8.050000 1.570540 0.158496 -0.000047
35 18.480000 12.180000 26.880001 1.633648 -0.219785 1.460277
36 37.730000 0.000000 -0.000000 0.002128 -0.208571 -0.244683
37 32.059998 0.000000 -0.000000 0.011037 -0.301185 -0.088506
38 16.170000 -9.870001 -18.059999 -1.575672 0.125566 -1.405804
39 16.240000 -12.670000 9.730000 -1.576225 0.131038 -1.409538
40 19.670000 0.000000 -0.000001 -0.236872 -0.750540 0.007256
41 40.950001 -0.000000 0.000000 0.000000 -0.000000 -0.270411
42 34.019997 -1.259999 17.639999 2.738187 -0.543855 1.049767
43 26.389999 0.000000 0.000000 0.010385 -0.063586 -0.359103
44 43.820000 0.000000 0.000000 1.380131 -0.044263 0.050250
45 20.090000 0.979999 -9.800000 0.037369 0.021660 1.623560
46 15.120002 0.000000 0.000000 0.000000 -0.000000 1.928986
47 20.370001 -1.119999 0.560000 -0.000000 0.000000 1.587769
48 19.530001 0.000000 0.000000 0.000000 -0.000000 1.991106
49 20.720003 1.400001 12.180000 -0.000000 0.000000 1.449133
50 18.130001 -0.000001 0.000000 0.000000 -0.000000 2.340474
51 7.420000 7.070000 9.589999 -2.604852 0.157724 1.357514
52 10.710000 -0.000001 0.000000 0.000000 -0.000000 0.942501
53 -17.430000 -5.599999 19.179998 -0.410136 -1.322210 -2.742937
54 -0.350000 0.700000 8.050000 -1.570540 -0.158496 -0.000047
55 18.410002 12.180000 -26.880001 -1.649083 0.014675 1.338070
56 37.730000 0.000000 0.000000 0.020214 0.233027 -0.227524
57 32.059998 0.000000 0.000000 0.031692 0.260859 -0.176372
58 16.100000 -9.870001 18.059999 1.582465 -0.133149 -1.449396
59 16.170000 -12.670000 -9.730000 1.583553 -0.127897 -1.472347
60 19.670000 0.000000 -0.000001 0.277485 0.698496 0.117608
61 40.950001 -0.000000 0.000000 0.000000 -0.000000 -0.335477
62 34.019997 -1.259998 -17.640001 -2.770709 0.294668 1.306116
63 26.389999 0.000000 0.000000 -0.160176 0.258438 -0.542714
64 43.820000 -0.000000 -0.000000 -1.564685 0.086486 0.017625
65 20.090000 0.979999 9.800000 -0.037369 -0.021660 1.623560
66 15.120001 0.000000 0.000000 0.000000 -0.000000 1.928986
67 20.370001 -1.119999 -0.560000 0.000000 -0.000000 1.587769
68 19.530001 0.000000 0.000000 0.000000 -0.000000 1.991106
69 20.720001 1.400000 -12.180001 0.000000 -0.000000 1.449133
70 18.130003 0.000000 0.000000 0.000000 -0.000000 2.340474
71 7.420000 7.070001 -9.589999 2.604852 -0.157724 1.357514
72 10.710000 0.000000 0.000000 0.000000 -0.000000 0.942501
73 -1.260000 1.470000 0.000000 0.212721 -0.018507 -0.281620
time 6
0 0.000000 0.000000 0.000000 1.570796 -0.000000 0.000000
1 1.914147 150.264786 1.274437 0.631420 -1.031322 -2.269712
2 3.726400 -85.200623 -19.786606 -1.914221 1.025395 -1.432454
3 0.000000 0.000000 49.770000 -0.000000 -1.570796 0.000000
4 49.840000 0.000000 0.000000 0.000000 -0.000000 0.000000
5 49.840000 0.000000 0.000000 0.000000 -0.000000 0.000000
6 49.840000 0.000000 0.000000 0.000000 -0.000000 0.000000
7 49.840000 0.000000 0.000000 0.000000 -0.000000 0.000000
8 49.840000 0.000000 0.000000 0.000000 -0.000000 0.000000
9 49.770000 0.000000 0.000000 0.000000 -0.000000 0.000000
10 -27.673210 84.882843 -15.801788 1.513398 1.018314 1.571033
11 -0.000000 0.000000 49.840000 -0.000000 -1.570796 0.000000
12 49.980000 -0.000000 0.000000 0.000000 -0.000000 0.000000
13 49.770000 0.000000 0.000000 0.000000 -0.000000 0.000000
14 49.980000 0.000000 0.000000 0.000000 -0.000000 -0.000000
15 49.349998 0.000000 0.000000 0.000000 -0.000000 0.000000
16 50.049995 -0.000000 -0.000000 0.000000 -0.000000 0.000000
17 50.259998 0.000000 0.000000 0.000000 -0.000000 0.000000
18 -103.211617 -38.635151 31.101418 -0.164552 0.006419 1.908244
19 126.420006 -9.896885 -42.209614 1.713281 -0.204119 -1.538067
20 111.650009 20.025509 45.978775 1.570796 0.082036 -1.570796
21 49.139999 19.234735 111.876022 1.664736 -0.153239 -1.570753
22 -42.279999 23.660000 106.889999 1.408196 0.102744 -1.704827
23 -107.297691 10.782802 52.060402 1.517150 0.167065 -1.565720
24 -126.419991 3.920229 -39.050880 1.421459 -0.172762 -1.511433
25 0.000000 0.000000 0.000000 -1.570796 -1.570796 0.000000
26 1.960000 22.259998 0.840000 3.100394 -0.011500 2.969096
27 13.860002 -25.060001 -1.260000 3.102249 0.018957 -2.795724
28 13.650000 -3.570000 23.309999 -1.621239 -0.445992 -3.116004
29 13.650001 -1.470000 -23.800001 1.520354 0.445992 3.116004
30 17.360001 3.710000 -0.000000 0.042582 0.002033 -0.022339
31 35.559998 0.000000 0.000000 0.125060 0.022210 0.066781
32 37.520000 0.000000 0.000000 0.000000 -0.000000 0.000000
33 -17.430000 -5.599999 -19.179998 0.324928 1.294490 -2.829512
34 -0.350000 0.700000 -8.050000 1.570784 0.120449 -0.000004
35 18.480000 12.180000 26.880001 1.626855 -0.205496 1.489263
36 37.730000 0.000000 -0.000000 0.005776 -0.181380 -0.260780
37 32.059998 0.000000 -0.000000 0.016510 -0.332509 -0.101002
38 16.170000 -9.870001 -18.059999 -1.573789 0.110611 -1.382933
39 16.240000 -12.670000 9.730000 -1.573534 0.116522 -1.383449
40 19.670000 0.000000 -0.000001 -0.230750 -0.728669 0.010129
41 40.950001 -0.000000 0.000000 0.000000 -0.000000 -0.236076
42 34.019997 -1.259999 17.639999 2.769616 -0.588063 0.999417
43 26.389999 0.000000 0.000000 0.013092 -0.041980 -0.317580
44 43.820000 0.000000 0.000000 1.416093 -0.026903 0.108880
45 20.090000 0.979999 -9.800000 0.037369 0.021660 1.623560
46 15.120002 0.000000 0.000000 0.000000 -0.000000 1.928986
47 20.370001 -1.119999 0.560000 -0.000000 0.000000 1.587769
48 19.530001 0.000000 0.000000 0.000000 -0.000000 1.991107
49 20.720003 1.400001 12.180000 -0.000000 0.000000 1.449133
50 18.130001 -0.000001 0.000000 0.000000 -0.000000 2.340474
51 7.420000 7.070000 9.589999 -2.604852 0.157724 1.357514
52 10.710000 -0.000001 0.000000 0.000000 -0.000000 0.942501
53 -17.430000 -5.599999 19.179998 -0.324928 -1.294490 -2.829513
54 -0.350000 0.700000 8.050000 -1.570784 -0.120449 -0.000004
55 18.410002 12.180000 -26.880001 -1.642568 -0.003760 1.358263
56 37.730000 0.000000 0.000000 0.020040 0.232606 -0.243872
57 32.059998 0.000000 0.000000 0.028132 0.249066 -0.198560
58 16.100000 -9.870001 18.059999 1.578096 -0.116677 -1.411734
59 16.170000 -12.670000 -9.730000 1.578721 -0.117778 -1.424368
60 19.670000 0.000000 -0.000001 0.275250 0.687591 0.122834
61 40.950001 -0.000000 0.000000 0.000000 -0.000000 -0.295598
62 34.019997 -1.259998 -17.640001 -2.774734 0.323671 1.276066
63 26.389999 0.000000 0.000000 -0.154394 0.249343 -0.522341
64 43.820000 -0.000000 -0.000000 -1.598333 0.092407 0.078091
65 20.090000 0.979999 9.800000 -0.037369 -0.021660 1.623560
66 15.120001 0.000000 0.000000 0.000000 -0.000000 1.928986
67 20.370001 -1.119999 -0.560000 0.000000 -0.000000 1.587769
68 19.530001 0.000000 0.000000 0.000000 -0.000000 1.991106
69 20.720001 1.400000 -12.180001 0.000000 -0.000000 1.449133
70 18.130003 0.000000 0.000000 0.000000 -0.000000 2.340474
71 7.420000 7.070001 -9.589999 2.604852 -0.157724 1.357514
72 10.710000 0.000000 0.000000 0.000000 -0.000000 0.942501
73 -1.260000 1.470000 0.000000 0.211668 -0.012086 -0.252406
time 7
0 0.000000 0.000000 0.000000 1.570796 -0.000000 0.000000
1 1.945717 157.354599 1.302334 0.631261 -1.031222 -2.269571
2 3.698805 -85.629761 -19.726913 -1.831010 1.039227 -1.364216
3 0.000000 0.000000 49.770000 -0.000000 -1.570796 0.000000
4 49.840000 0.000000 0.000000 0.000000 -0.000000 0.000000
5 49.840000 0.000000 0.000000 0.000000 -0.000000 0.000000
6 49.840000 0.000000 0.000000 0.000000 -0.000000 0.000000
7 49.840000 0.000000 0.000000 0.000000 -0.000000 0.000000
8 49.840000 0.000000 0.000000 0.000000 -0.000000 0.000000
9 49.770000 0.000000 0.000000 0.000000 -0.000000 0.000000
10 -28.055634 83.951660 -16.397888 1.517332 1.029483 1.634844
11 -0.000000 0.000000 49.840000 -0.000000 -1.570796 0.000000
12 49.980000 -0.000000 0.000000 0.000000 -0.000000 0.000000
13 49.770000 0.000000 0.000000 0.000000 -0.000000 0.000000
14 49.980000 0.000000 0.000000 0.000000 -0.000000 -0.000000
15 49.349998 0.000000 0.000000 0.000000 -0.000000 0.000000
16 50.049995 -0.000000 -0.000000 0.000000 -0.000000 0.000000
17 50.259998 0.000000 0.000000 0.000000 -0.000000 0.000000
18 -103.424820 -38.796551 29.901154 -0.164686 0.006418 1.908237
19 126.419998 -9.292871 -39.930836 1.678966 -0.216924 -1.537794
20 111.650017 22.377342 50.998371 1.570796 0.082036 -1.570796
21 49.140003 20.300508 115.840691 1.631819 -0.153561 -1.570768
22 -43.550369 25.059999 109.456657 1.460132 0.020838 -1.661552
23 -108.526115 12.066238 56.827454 1.531131 0.144906 -1.567043
24 -126.419998 6.179947 -39.662117 1.461909 -0.205857 -1.527431
25 0.000000 0.000000 0.000000 -1.570796 -1.570796 0.000000
26 1.960000 22.259998 0.840000 3.100173 -0.011527 2.966712
27 13.860002 -25.060001 -1.260000 3.102273 0.018966 -2.793110
28 13.650000 -3.570000 23.309999 -1.621438 -0.437769 -3.115910
29 13.650001 -1.470000 -23.800001 1.520155 0.437769 3.115910
30 17.360001 3.710000 -0.000000 0.042201 -0.001078 -0.029126
31 35.559998 0.000000 0.000000 0.125049 0.030913 0.060025
32 37.520000 0.000000 0.000000 0.000000 -0.000000 0.000000
33 -17.430000 -5.599999 -19.179998 0.337678 1.305735 -2.816159
34 -0.350000 0.700000 -8.050000 1.570614 0.123032 -0.000016
35 18.480000 12.180000 26.880001 1.620236 -0.193400 1.520069
36 37.730000 0.000000 -0.000000 0.009028 -0.134915 -0.280908
37 32.059998 0.000000 -0.000000 0.021308 -0.299127 -0.122414
38 16.170000 -9.870001 -18.059999 -1.571894 0.101459 -1.361528
39 16.240000 -12.670000 9.730000 -1.571082 0.107326 -1.358700
40 19.670000 0.000000 -0.000001 -0.284702 -0.720797 0.051810
41 40.950001 -0.000000 0.000000 0.000000 -0.000000 -0.215075
42 34.019997 -1.259999 17.639999 2.781345 -0.616341 0.983045
43 26.389999 0.000000 0.000000 0.016113 -0.010477 -0.274611
44 43.820000 0.000000 0.000000 1.455721 -0.023644 0.131858
45 20.090000 0.979999 -9.800000 0.037369 0.021660 1.623560
46 15.120002 0.000000 0.000000 0.000000 -0.000000 1.928986
47 20.370001 -1.119999 0.560000 -0.000000 0.000000 1.587769
48 19.530001 0.000000 0.000000 0.000000 -0.000000 1.991106
49 20.720003 1.400001 12.180000 -0.000000 0.000000 1.449133
50 18.130001 -0.000001 0.000000 0.000000 -0.000000 2.340474
51 7.420000 7.070000 9.589999 -2.604852 0.157724 1.357514
52 10.710000 -0.000001 0.000000 0.000000 -0.000000 0.942501
53 -17.430000 -5.599999 19.179998 -0.335579 -1.305448 -2.818250
54 -0.350000 0.700000 8.050000 -1.570614 -0.123032 -0.000016
55 18.410002 12.180000 -26.880001 -1.636265 -0.019405 1.377970
56 37.730000 0.000000 0.000000 0.020366 0.194990 -0.265506
57 32.059998 0.000000 0.000000 0.023250 0.213829 -0.230872
58 16.100000 -9.870001 18.059999 1.573758 -0.104684 -1.373193
59 16.170000 -12.670000 -9.730000 1.572621 -0.111383 -1.367829
60 19.670000 0.000000 -0.000001 0.280510 0.677522 0.132544
61 40.950001 -0.000000 0.000000 0.000000 -0.000000 -0.298288
62 34.019997 -1.259998 -17.640001 -2.777191 0.348892 1.256951
63 26.389999 0.000000 0.000000 -0.145180 0.226505 -0.492842
64 43.820000 -0.000000 -0.000000 -1.636895 0.095437 0.100296
65 20.090000 0.979999 9.800000 -0.037369 -0.021660 1.623560
66 15.120001 0.000000 0.000000 0.000000 -0.000000 1.928986
67 20.370001 -1.119999 -0.560000 0.000000 -0.000000 1.587769
68 19.530001 0.000000 0.000000 0.000000 -0.000000 1.991106
69 20.720001 1.400000 -12.180001 0.000000 -0.000000 1.449133
70 18.130003 0.000000 0.000000 0.000000 -0.000000 2.340474
71 7.420000 7.070001 -9.589999 2.604852 -0.157724 1.357514
72 10.710000 0.000000 0.000000 0.000000 -0.000000 0.942501
73 -1.260000 1.470000 0.000000 0.212727 -0.022827 -0.227116
time 8
0 0.000000 0.000000 0.000000 1.570796 -0.000000 0.000000
1 0.983989 165.740707 0.676195 0.619057 -1.023474 -2.258758
2 5.922371 -85.286011 -19.429382 -1.670065 1.070101 -1.192923
3 0.000000 0.000000 49.770000 -0.000000 -1.570796 0.000000
4 49.840000 0.000000 0.000000 0.000000 -0.000000 0.000000
5 49.840000 0.000000 0.000000 0.000000 -0.000000 0.000000
6 49.840000 0.000000 0.000000 0.000000 -0.000000 0.000000
7 49.840000 0.000000 0.000000 0.000000 -0.000000 0.000000
8 49.840000 0.000000 0.000000 0.000000 -0.000000 0.000000
9 49.770000 0.000000 0.000000 0.000000 -0.000000 0.000000
10 -25.654549 85.677917 -15.585693 1.377571 1.001566 1.485002
11 -0.000000 0.000000 49.840000 -0.000000 -1.570796 0.000000
12 49.980000 -0.000000 0.000000 0.000000 -0.000000 0.000000
13 49.770000 0.000000 0.000000 0.000000 -0.000000 0.000000
14 49.980000 0.000000 0.000000 0.000000 -0.000000 -0.000000
15 49.349998 0.000000 0.000000 0.000000 -0.000000 0.000000
16 50.049995 -0.000000 -0.000000 0.000000 -0.000000 0.000000
17 50.259998 0.000000 0.000000 0.000000 -0.000000 0.000000
18 -103.370193 -37.418446 27.473862 -0.175024 0.006310 1.907724
19 126.419998 -8.703880 -37.708725 1.624881 -0.256017 -1.554295
20 111.650017 25.823055 58.352654 1.570796 0.082036 -1.570796
21 49.139999 21.347164 119.734261 1.599222 -0.153880 -1.570783
22 -46.345184 28.139999 115.103333 1.528243 -0.086758 -1.604981
23 -110.154762 13.767807 63.147575 1.551614 0.112440 -1.568981
24 -126.419998 8.829033 -40.378670 1.515807 -0.250034 -1.548893
25 0.000000 0.000000 0.000000 -1.570796 -1.570796 0.000000
26 1.960000 22.259998 0.840000 3.099471 -0.011598 2.925376
27 13.860002 -25.060001 -1.260000 3.102495 0.018905 -2.751278
28 13.650000 -3.570000 23.309999 -1.621471 -0.476580 -3.116089
29 13.650001 -1.470000 -23.800001 1.520122 0.476580 3.116089
30 17.360001 3.710000 -0.000000 0.042047 -0.003326 -0.032067
31 35.559998 0.000000 0.000000 0.124258 0.034912 0.009658
32 37.520000 0.000000 0.000000 0.000000 -0.000000 0.000000
33 -17.430000 -5.599999 -19.179998 0.404418 1.340680 -2.747561
34 -0.350000 0.700000 -8.050000 1.570004 0.164777 -0.000081
35 18.480000 12.180000 26.880001 1.613067 -0.184349 1.557949
36 37.730000 0.000000 -0.000000 0.009258 -0.062519 -0.305346
37 32.059998 0.000000 -0.000000 0.023164 -0.194188 -0.149908
38 16.170000 -9.870001 -18.059999 -1.569904 0.101832 -1.341841
39 16.240000 -12.670000 9.730000 -1.568931 0.106857 -1.335386
40 19.670000 0.000000 -0.000001 -0.360205 -0.719848 0.106488
41 40.950001 -0.000000 0.000000 0.000000 -0.000000 -0.229922
42 34.019997 -1.259999 17.639999 2.779264 -0.638142 0.990285
43 26.389999 0.000000 0.000000 0.017617 0.016728 -0.254827
44 43.820000 0.000000 0.000000 1.495036 -0.051666 0.072098
45 20.090000 0.979999 -9.800000 0.037369 0.021660 1.623560
46 15.120002 0.000000 0.000000 0.000000 -0.000000 1.928986
47 20.370001 -1.119999 0.560000 -0.000000 0.000000 1.587769
48 19.530001 0.000000 0.000000 0.000000 -0.000000 1.991106
49 20.720003 1.400001 12.180000 -0.000000 0.000000 1.449133
50 18.130001 -0.000001 0.000000 0.000000 -0.000000 2.340474
51 7.420000 7.070000 9.589999 -2.604852 0.157724 1.357514
52 10.710000 -0.000001 0.000000 0.000000 -0.000000 0.942501
53 -17.430000 -5.599999 19.179998 -0.403370 -1.340536 -2.748606
54 -0.350000 0.700000 8.050000 -1.570004 -0.164777 -0.000081
55 18.410002 12.180000 -26.880001 -1.631781 -0.026151 1.392478
56 37.730000 0.000000 0.000000 0.020905 0.131625 -0.292109
57 32.059998 0.000000 0.000000 0.019855 0.170221 -0.263939
58 16.100000 -9.870001 18.059999 1.568878 -0.100002 -1.328261
59 16.170000 -12.670000 -9.730000 1.566499 -0.106742 -1.318574
60 19.670000 0.000000 -0.000001 0.302126 0.671144 0.150890
61 40.950001 -0.000000 0.000000 0.000000 -0.000000 -0.339727
62 34.019997 -1.259998 -17.640001 -2.775657 0.358180 1.266608
63 26.389999 0.000000 0.000000 -0.138032 0.202129 -0.466664
64 43.820000 -0.000000 -0.000000 -1.678686 0.091253 0.034344
65 20.090000 0.979999 9.800000 -0.037369 -0.021660 1.623560
66 15.120001 0.000000 0.000000 0.000000 -0.000000 1.928986
67 20.370001 -1.119999 -0.560000 0.000000 -0.000000 1.587769
68 19.530001 0.000000 0.000000 0.000000 -0.000000 1.991106
69 20.720001 1.400000 -12.180001 0.000000 -0.000000 1.449133
70 18.130003 0.000000 0.000000 0.000000 -0.000000 2.340474
71 7.420000 7.070001 -9.589999 2.604852 -0.157724 1.357514
72 10.710000 0.000000 0.000000 0.000000 -0.000000 0.942501
73 -1.260000 1.470000 0.000000 0.214675 -0.040859 -0.202383
time 9
0 0.000000 0.000000 0.000000 1.570796 -0.000000 0.000000
1 -0.000000 169.959991 0.000000 0.603049 -1.013312 -2.244576
2 8.260001 -84.840088 -19.040039 -1.509119 1.100974 -1.021630
3 0.000000 0.000000 49.770000 -0.000000 -1.570796 0.000000
4 49.840000 0.000000 0.000000 0.000000 -0.000000 0.000000
5 49.840000 0.000000 0.000000 0.000000 -0.000000 0.000000
6 49.840000 0.000000 0.000000 0.000000 -0.000000 0.000000
7 49.840000 0.000000 0.000000 0.000000 -0.000000 0.000000
8 49.840000 0.000000 0.000000 0.000000 -0.000000 0.000000
9 49.770000 0.000000 0.000000 0.000000 -0.000000 0.000000
10 -22.539978 88.059998 -14.419983 1.171331 0.955470 1.239604
11 -0.000000 0.000000 49.840000 -0.000000 -1.570796 0.000000
12 49.980000 -0.000000 0.000000 0.000000 -0.000000 0.000000
13 49.770000 0.000000 0.000000 0.000000 -0.000000 0.000000
14 49.980000 0.000000 0.000000 0.000000 -0.000000 -0.000000
15 49.349998 0.000000 0.000000 0.000000 -0.000000 0.000000
16 50.049995 -0.000000 -0.000000 0.000000 -0.000000 0.000000
17 50.259998 0.000000 0.000000 0.000000 -0.000000 0.000000
18 -105.210007 -36.610004 29.540009 -0.188585 0.006168 1.907050
19 126.419998 -8.190000 -35.769997 1.570796 -0.295109 -1.570796
20 111.650017 29.050003 65.239998 1.570796 0.082036 -1.570796
21 49.140003 22.259998 123.130005 1.570797 -0.154157 -1.570797
22 -49.140007 31.220001 120.750008 1.570797 -0.154157 -1.570797
23 -111.650009 15.330000 68.950005 1.570796 0.082036 -1.570796
24 -126.419998 11.199999 -41.020000 1.570796 -0.295109 -1.570796
25 0.000000 0.000000 0.000000 -1.570796 -1.570796 0.000000
26 1.960000 22.259998 0.840000 3.098730 -0.011672 2.880971
27 13.860002 -25.060001 -1.260000 3.102732 0.018839 -2.706357
28 13.650000 -3.570000 23.309999 -1.621479 -0.523018 -3.116312
29 13.650001 -1.470000 -23.800001 1.520113 0.523018 3.116312
30 17.360001 3.710000 -0.000000 0.043993 -0.000000 0.000000
31 35.559998 0.000000 0.000000 0.122609 0.035615 -0.090025
32 37.520000 0.000000 0.000000 0.000000 -0.000000 0.000000
33 -17.430000 -5.599999 -19.179998 0.471158 1.375624 -2.678962
34 -0.350000 0.700000 -8.050000 1.569360 0.209606 -0.000151
35 18.480000 12.180000 26.880001 1.605484 -0.175820 1.598877
36 37.730000 0.000000 -0.000000 0.007460 0.039797 -0.335410
37 32.059998 0.000000 -0.000000 0.024577 -0.072134 -0.179307
38 16.170000 -9.870001 -18.059999 -1.567795 0.104474 -1.321681
39 16.240000 -12.670000 9.730000 -1.566739 0.108457 -1.311430
40 19.670000 0.000000 -0.000001 -0.479078 -0.739498 0.184356
41 40.950001 -0.000000 0.000000 0.000000 -0.000000 -0.288883
42 34.019997 -1.259999 17.639999 2.757077 -0.639733 1.023513
43 26.389999 0.000000 0.000000 0.018372 0.046638 -0.248281
44 43.820000 0.000000 0.000000 1.536534 -0.093758 -0.023869
45 20.090000 0.979999 -9.800000 0.037369 0.021660 1.623560
46 15.120002 0.000000 0.000000 0.000000 -0.000000 1.928986
47 20.370001 -1.119999 0.560000 -0.000000 0.000000 1.587769
48 19.530001 0.000000 0.000000 0.000000 -0.000000 1.991106
49 20.720003 1.400001 12.180000 -0.000000 0.000000 1.449133
50 18.130001 -0.000001 0.000000 0.000000 -0.000000 2.340474
51 7.420000 7.070000 9.589999 -2.604852 0.157724 1.357514
52 10.710000 -0.000001 0.000000 0.000000 -0.000000 0.942501
53 -17.430000 -5.599999 19.179998 -0.471158 -1.375624 -2.678962
54 -0.350000 0.700000 8.050000 -1.569360 -0.209606 -0.000151
55 18.410002 12.180000 -26.880001 -1.627535 -0.029759 1.406438
56 37.730000 0.000000 0.000000 0.021444 0.068259 -0.318712
57 32.059998 0.000000 0.000000 0.024757 0.076604 -0.302372
58 16.100000 -9.870001 18.059999 1.563668 -0.097012 -1.280144
59 16.170000 -12.670000 -9.730000 1.560282 -0.102623 -1.269753
60 19.670000 0.000000 -0.000001 0.415011 0.675789 0.223322
61 40.950001 -0.000000 0.000000 0.000000 -0.000000 -0.384205
62 34.019997 -1.259998 -17.640001 -2.772470 0.362378 1.287963
63 26.389999 0.000000 0.000000 -0.135681 0.170786 -0.447443
64 43.820000 -0.000000 -0.000000 -1.724041 0.084046 -0.070355
65 20.090000 0.979999 9.800000 -0.037369 -0.021660 1.623560
66 15.120001 0.000000 0.000000 0.000000 -0.000000 1.928986
67 20.370001 -1.119999 -0.560000 0.000000 -0.000000 1.587769
68 19.530001 0.000000 0.000000 0.000000 -0.000000 1.991106
69 20.720001 1.400000 -12.180001 0.000000 -0.000000 1.449133
70 18.130003 0.000000 0.000000 0.000000 -0.000000 2.340474
71 7.420000 7.070001 -9.589999 2.604852 -0.157724 1.357514
72 10.710000 0.000000 0.000000 0.000000 -0.000000 0.942501
73 -1.260000 1.470000 0.000000 0.216444 -0.057433 -0.177539
end
