version 1
nodes
0 "b_046" -1
1 "S_GC" 0
2 "Bip001" 1
3 "Bone007(mirrored)" 2
4 "Bone008(mirrored)" 3
5 "Bone009(mirrored)" 4
6 "Bone010(mirrored)" 5
7 "Bone011(mirrored)" 6
8 "Bone012(mirrored)" 7
9 "Bone013(mirrored)" 8
10 "Bone007" 2
11 "Bone008" 10
12 "Bone009" 11
13 "Bone010" 12
14 "Bone011" 13
15 "Bone012" 14
16 "Bone013" 15
17 "Bone001" 2
18 "Bone002" 17
19 "Bone003" 18
20 "Bone004" 19
21 "Bone005" 20
22 "Bone006" 21
23 "Bip001 Pelvis" 2
24 "Bip001 Spine" 23
25 "Bip001 R Thigh" 24
26 "Bip001 R Calf" 25
27 "Bip001 R HorseLink" 26
28 "Bip001 R Foot" 27
29 "Bip001 R Toe0" 28
30 "Bip001 L Thigh" 24
31 "Bip001 L Calf" 30
32 "Bip001 L HorseLink" 31
33 "Bip001 L Foot" 32
34 "Bip001 L Toe0" 33
35 "Bip001 Spine1" 24
36 "Bip001 Neck" 35
37 "Bip001 R Clavicle" 36
38 "Bip001 R UpperArm" 37
39 "Bip001 R Forearm" 38
40 "Bip001 R Hand" 39
41 "Bip001 R Finger1" 40
42 "Bip001 R Finger0" 40
43 "Bip001 L Clavicle" 36
44 "Bip001 L UpperArm" 43
45 "Bip001 L Forearm" 44
46 "Bip001 L Hand" 45
47 "Bip001 L Finger1" 46
48 "Bip001 L Finger0" 46
49 "Bip001 Head" 36
end
skeleton
time 0
0 0.000000 0.000000 0.000000 1.570796 -0.000000 0.000000
1 0.000000 0.000000 0.000001 0.000000 -0.000000 0.000000
2 0.000004 127.338036 -31.989420 -3.141492 -1.546868 1.570695
3 -27.514357 17.090467 22.904945 -2.421222 0.740036 1.058215
4 38.339050 0.036428 0.000000 -0.013747 -0.007707 0.101528
5 40.888317 0.025451 -0.000004 0.071596 -0.304959 -0.408313
6 37.840919 0.015298 0.000006 0.058550 -0.212884 -0.369053
7 48.571720 0.685606 -0.000022 0.050301 -0.155464 -0.826772
8 44.261993 0.465025 0.000035 0.090681 -0.153226 -0.662265
9 47.723759 0.024180 -0.000016 0.112394 -0.153265 -0.178430
10 -26.517460 -15.956991 21.321764 -1.782872 0.608835 -2.995438
11 37.914181 -0.000000 0.000003 -0.001147 -0.000668 0.098203
12 41.189346 0.000000 0.000003 0.002966 -0.061661 -0.337339
13 38.203541 0.000001 0.000003 0.020716 -0.163808 -0.406376
14 50.162155 0.000231 0.000003 0.064674 -0.208150 -1.001602
15 45.618237 -0.000009 0.000003 0.072007 0.389765 -0.698658
16 48.074074 -0.000010 0.000002 0.027046 0.490381 -0.211834
17 -20.210398 11.855524 -14.683264 -2.799006 0.911366 1.214928
18 43.390297 -0.000000 0.000004 0.046296 -0.060809 -0.338749
19 47.998016 0.000000 0.000004 0.194899 -0.316826 -0.877000
20 50.215260 -0.000009 0.000004 0.127758 -0.214264 -0.369790
21 41.153103 0.000001 0.000003 0.129146 -0.108060 -0.208330
22 66.351677 0.000000 0.000005 0.075863 -0.231307 0.127086
23 0.000000 0.000000 0.000000 1.612226 -0.934994 2.524029
24 21.859787 19.138950 0.467905 0.174019 0.082246 0.471961
25 -26.565012 -8.825401 -16.586439 -2.988136 0.564766 2.929811
26 85.581299 -0.000009 -0.000000 0.000000 0.000000 -1.579022
27 53.650108 0.000006 -0.000006 0.000000 0.000000 1.571555
28 33.201401 -0.000003 0.000003 0.038294 0.453795 -0.546802
29 21.348549 28.691181 -0.000006 -0.144064 -0.266782 1.716138
30 -28.947943 -3.562988 13.331795 2.901031 -0.623909 2.600067
31 85.581314 -0.000002 0.000004 0.000000 0.000000 -1.184040
32 53.650101 0.000003 -0.000001 -0.000000 0.000000 1.106745
33 33.201405 0.000002 0.000006 0.123591 -0.312345 -0.849985
34 21.348545 28.691175 -0.000000 -0.001089 0.004698 1.664852
35 32.431362 -0.027421 -0.003141 0.026266 -0.003532 1.032525
36 67.584412 6.189977 -0.001590 0.132938 -0.313327 0.750597
37 -23.894897 1.976557 -26.375601 0.524778 1.049428 2.847890
38 38.227749 -0.000013 0.000008 1.209061 -0.166394 -0.888782
39 89.093895 0.000007 0.000001 -0.000000 -0.000000 -0.136863
40 59.561523 -0.000002 0.000001 1.431444 -0.125996 0.157983
41 31.086201 -3.122439 -0.002489 -0.028289 -0.203709 0.129176
42 11.272784 -0.349144 24.738405 -2.979790 -0.793723 1.734978
43 -4.176327 10.043220 33.947643 -0.124398 -1.373893 2.466880
44 38.227753 -0.000000 -0.000009 -1.271437 -0.055198 -1.592985
45 89.093910 0.000002 -0.000006 -0.000000 0.000000 -0.176290
46 59.561543 -0.000001 0.000003 -1.474530 0.067707 -0.177929
47 31.086199 -3.122447 0.002493 -0.039461 0.048594 0.186144
48 11.272798 -0.349164 -24.738398 3.064497 0.803201 1.814651
49 15.788307 -0.000000 -0.000000 -0.494223 -0.096078 -0.009190
time 1
0 0.000000 0.000000 0.000000 1.570796 -0.000000 0.000000
1 0.000000 0.000000 0.000001 0.000000 -0.000000 0.000000
2 0.000005 122.842079 -70.168823 -3.141577 -1.416486 1.570782
3 -27.514357 17.090467 22.904945 -2.539690 0.597684 0.845992
4 38.339050 0.036428 0.000000 0.020692 0.270751 0.315380
5 40.888317 0.025451 -0.000004 0.068314 -0.297288 -0.396232
6 37.840919 0.015298 0.000006 0.200968 -0.464167 -0.619138
7 48.571720 0.685606 -0.000022 0.154877 -0.239138 -0.979083
8 44.261993 0.465025 0.000035 0.075751 -0.061924 -0.638263
9 47.723759 0.024180 -0.000016 0.092210 -0.032081 -0.190622
10 -26.517460 -15.956991 21.321764 -1.712926 0.558693 -3.024920
11 37.914181 -0.000000 0.000003 -0.000192 0.000303 0.035147
12 41.189346 0.000000 0.000003 0.006568 -0.043655 -0.442566
13 38.203541 0.000001 0.000003 0.023684 -0.125511 -0.496008
14 50.162155 0.000231 0.000003 0.042451 -0.155527 -1.072738
15 45.618237 -0.000009 0.000003 0.048787 0.140169 -0.805198
16 48.074074 -0.000010 0.000002 0.038120 0.205225 -0.319205
17 -20.210398 11.855524 -14.683264 -2.888991 0.830145 1.077220
18 43.390297 -0.000000 0.000004 0.029251 0.220051 0.035261
19 47.998016 0.000000 0.000004 0.193898 -0.215399 -1.109318
20 50.215260 -0.000009 0.000004 0.336192 -0.283664 -0.953367
21 41.153103 0.000001 0.000003 0.267914 -0.127614 -0.323278
22 66.351677 0.000000 0.000005 0.075863 -0.231307 0.127086
23 0.000000 0.000000 0.000000 1.609764 -0.917847 2.526720
24 21.839924 18.877762 0.468540 0.027435 0.191247 -0.474003
25 -5.332611 -28.494221 -16.586489 -3.115784 0.539925 -2.574543
26 85.581291 0.000001 0.000000 -0.000000 0.000000 -1.879496
27 53.650116 -0.000004 0.000001 -0.000000 0.000000 2.072086
28 33.201401 -0.000004 -0.000003 -0.018086 0.303971 -1.002579
29 21.348543 28.691179 -0.000006 -0.144820 -0.271765 1.716336
30 -11.298819 -28.008324 13.331723 2.976156 -0.602104 -2.831250
31 85.581291 -0.000003 -0.000003 -0.000000 0.000000 -0.849618
32 53.650116 0.000005 -0.000000 -0.000000 0.000000 0.675346
33 33.201389 0.000004 -0.000005 0.122335 -0.242422 -0.971594
34 21.348545 28.691175 -0.000000 -0.001089 0.004698 1.664852
35 32.428040 -0.035738 -0.009410 0.159476 0.131086 0.925550
36 67.584396 6.189987 -0.001587 0.132938 -0.313327 0.750597
37 -23.894897 1.976557 -26.375601 0.524778 1.049428 2.847890
38 38.227757 -0.000001 -0.000009 0.277768 -0.505016 0.005643
39 89.093895 -0.000005 0.000000 -0.000000 0.000000 -0.744412
40 59.561523 0.000013 -0.000008 1.405082 -0.088569 0.402915
41 31.086205 -3.122422 -0.002492 -0.028289 -0.203709 0.129176
42 11.272784 -0.349144 24.738405 -2.979790 -0.793723 1.734978
43 -4.176327 10.043220 33.947643 -0.124398 -1.373893 2.466880
44 38.227749 0.000007 0.000015 -0.844122 0.885689 -1.447793
45 89.093895 -0.000014 0.000001 0.000000 0.000000 -0.415582
46 59.561523 0.000010 0.000000 -1.465687 0.053046 -0.031640
47 31.086201 -3.122440 0.002474 -0.007091 0.062186 0.755016
48 11.272798 -0.349164 -24.738398 3.064497 0.803201 1.814651
49 15.788301 0.000001 0.000001 -0.204254 -0.044184 0.861035
time 2
0 0.000000 0.000000 0.000000 1.570796 -0.000000 0.000000
1 0.000000 0.000000 0.000001 0.000000 -0.000000 0.000000
2 0.000006 119.431290 -69.300102 -3.141579 -1.394304 1.570784
3 -27.514357 17.090467 22.904945 -2.364077 0.649061 1.118633
4 38.339050 0.036428 0.000000 0.051359 0.405134 0.429205
5 40.888317 0.025451 -0.000004 0.013383 0.054957 -0.125376
6 37.840919 0.015298 0.000006 0.139293 -0.396809 -0.557327
7 48.571720 0.685606 -0.000022 0.252568 -0.293948 -1.195807
8 44.261993 0.465025 0.000035 0.167560 -0.090289 -0.759372
9 47.723759 0.024180 -0.000016 0.118480 0.054069 -0.200278
10 -26.517460 -15.956991 21.321764 -1.716724 0.561425 -3.023349
11 37.914181 -0.000000 0.000003 -0.000357 0.005886 0.032610
12 41.189346 0.000000 0.000003 0.003950 -0.023152 -0.449249
13 38.203541 0.000001 0.000003 0.014676 -0.088896 -0.477820
14 50.162155 0.000231 0.000003 0.023725 -0.119721 -1.049260
15 45.618237 -0.000009 0.000003 0.031912 -0.094948 -0.777455
16 48.074074 -0.000010 0.000002 0.075283 -0.052177 -0.315434
17 -20.210398 11.855524 -14.683264 -2.513502 0.866568 1.553679
18 43.390297 -0.000000 0.000004 0.069998 0.350823 0.277970
19 47.998016 0.000000 0.000004 0.008633 0.036594 -0.595201
20 50.215260 -0.000009 0.000004 0.276295 -0.167752 -1.167354
21 41.153103 0.000001 0.000003 0.368025 -0.160595 -0.627342
22 66.351677 0.000000 0.000005 0.075863 -0.231307 0.127086
23 0.000000 0.000000 0.000000 1.607987 -0.932596 2.528286
24 22.197725 18.510639 0.468758 0.067446 0.179197 -0.282540
25 -12.183542 -25.593700 -16.586477 -3.132426 0.556241 -2.762330
26 85.581284 0.000001 0.000000 -0.000000 0.000000 -1.924143
27 53.650108 -0.000002 -0.000009 0.000000 0.000000 2.219458
28 33.201405 -0.000009 0.000000 -0.044725 0.303337 -1.125303
29 21.348543 28.691177 -0.000009 -0.145306 -0.274956 1.716466
30 -17.700665 -23.640100 13.331736 2.979656 -0.600593 -3.028906
31 85.581299 -0.000000 0.000000 -0.000000 0.000000 -0.912441
32 53.650105 0.000008 0.000009 -0.000000 -0.000000 0.736733
33 33.201401 -0.000007 -0.000000 0.128843 -0.243892 -0.994976
34 21.348545 28.691175 -0.000000 -0.001089 0.004698 1.664852
35 32.406307 -0.053476 -0.005931 0.102769 0.195322 0.444966
36 67.584396 6.189991 -0.001586 0.132938 -0.313327 0.750597
37 -23.894897 1.976557 -26.375601 0.524778 1.049428 2.847890
38 38.227753 -0.000026 -0.000001 -0.072400 -0.343773 0.368485
39 89.093887 -0.000015 0.000000 -0.000000 -0.000000 -1.178502
40 59.561535 0.000000 0.000000 1.395049 -0.066394 0.532355
41 31.086206 -3.122408 -0.002493 -0.028289 -0.203709 0.129176
42 11.272784 -0.349144 24.738405 -2.979790 -0.793723 1.734978
43 -4.176327 10.043220 33.947643 -0.124398 -1.373893 2.466880
44 38.227757 -0.000007 0.000001 -0.070552 1.191800 -0.560491
45 89.093910 -0.000006 0.000000 0.000000 0.000000 -0.904401
46 59.561523 0.000009 -0.000009 -1.454856 0.020702 0.260039
47 31.086203 -3.122448 0.002483 0.030527 0.054648 1.378409
48 11.272798 -0.349164 -24.738398 3.064497 0.803201 1.814651
49 15.788319 -0.000035 -0.000000 -0.059024 -0.179878 0.468446
time 3
0 0.000000 0.000000 0.000000 1.570796 -0.000000 0.000000
1 0.000000 0.000000 0.000001 0.000000 -0.000000 0.000000
2 0.000007 115.773773 -68.556580 -3.141581 -1.369111 1.570785
3 -27.514357 17.090467 22.904945 -2.232745 0.659665 1.318218
4 38.339050 0.036428 0.000000 0.051255 0.397668 0.417512
5 40.888317 0.025451 -0.000004 0.024245 0.280110 0.040626
6 37.840919 0.015298 0.000006 0.040777 -0.195831 -0.330858
7 48.571720 0.685606 -0.000022 0.243329 -0.262165 -1.261437
8 44.261993 0.465025 0.000035 0.221628 -0.100538 -0.873573
9 47.723759 0.024180 -0.000016 0.187442 0.037473 -0.294280
10 -26.517460 -15.956991 21.321764 -1.727921 0.569476 -3.018705
11 37.914181 -0.000000 0.000003 -0.001477 0.019566 0.019583
12 41.189346 0.000000 0.000003 0.002103 -0.008888 -0.430142
13 38.203541 0.000001 0.000003 0.010603 -0.062212 -0.454153
14 50.162155 0.000231 0.000003 0.018285 -0.093086 -1.021694
15 45.618237 -0.000009 0.000003 0.026130 -0.075802 -0.761465
16 48.074074 -0.000010 0.000002 0.073342 -0.046471 -0.310903
17 -20.210398 11.855524 -14.683264 -2.275268 0.816647 1.862720
18 43.390297 -0.000000 0.000004 0.060276 0.340423 0.238249
19 47.998016 0.000000 0.000004 -0.005714 0.235812 -0.203837
20 50.215260 -0.000009 0.000004 0.103623 -0.017923 -0.917931
21 41.153103 0.000001 0.000003 0.406599 -0.115294 -0.885743
22 66.351677 0.000000 0.000005 0.075863 -0.231307 0.127086
23 0.000000 0.000000 0.000000 1.613062 -0.969804 2.522716
24 22.777849 17.728512 0.468840 0.117980 0.152753 -0.031507
25 -19.854778 -20.198299 -16.586468 3.129597 0.581633 -3.071442
26 85.581299 -0.000009 0.000000 0.000000 0.000000 -1.978038
27 53.650112 -0.000003 0.000012 -0.000000 0.000000 2.267850
28 33.201397 0.000004 0.000008 -0.060139 0.329610 -1.094836
29 21.348547 28.691181 0.000001 -0.145675 -0.277377 1.716567
30 -24.428360 -16.555441 13.331758 2.993737 -0.605143 2.926232
31 85.581306 0.000008 -0.000004 -0.000000 -0.000000 -0.986456
32 53.650105 0.000003 -0.000002 0.000000 -0.000000 0.805173
33 33.201408 -0.000003 0.000005 0.135867 -0.245182 -1.021183
34 21.348545 28.691175 -0.000000 -0.001089 0.004698 1.664852
35 32.380920 -0.058882 -0.001366 0.028249 0.219116 0.010291
36 67.584404 6.189965 -0.001592 0.132938 -0.313327 0.750597
37 -23.894897 1.976557 -26.375601 0.524778 1.049428 2.847890
38 38.227749 -0.000003 0.000012 -0.190604 -0.180390 0.529104
39 89.093880 -0.000001 -0.000006 -0.000000 -0.000000 -1.175344
40 59.561531 -0.000001 0.000033 1.415283 -0.102336 0.312697
41 31.086199 -3.122413 -0.002486 -0.028289 -0.203709 0.129176
42 11.272784 -0.349144 24.738405 -2.979790 -0.793723 1.734978
43 -4.176327 10.043220 33.947643 -0.124398 -1.373893 2.466880
44 38.227749 -0.000007 0.000001 0.612444 1.168557 0.260121
45 89.093887 -0.000004 -0.000004 -0.000000 0.000000 -0.884629
46 59.561535 0.000006 -0.000000 -1.455890 0.024379 0.227451
47 31.086201 -3.122441 0.002481 0.038717 0.049117 1.536707
48 11.272798 -0.349164 -24.738398 3.064497 0.803201 1.814651
49 15.788312 0.000013 -0.000002 0.055137 -0.233718 0.259197
time 4
0 0.000000 0.000000 0.000000 1.570796 -0.000000 0.000000
1 0.000000 0.000000 0.000001 0.000000 -0.000000 0.000000
2 0.000008 112.339363 -67.432541 -3.141584 -1.343018 1.570789
3 -27.514357 17.090467 22.904945 -2.107671 0.660977 1.506801
4 38.339050 0.036428 0.000000 0.038570 0.344152 0.357417
5 40.888317 0.025451 -0.000004 0.052278 0.407605 0.126155
6 37.840919 0.015298 0.000006 0.002649 0.034981 -0.120040
7 48.571720 0.685606 -0.000022 0.164598 -0.172599 -1.135765
8 44.261993 0.465025 0.000035 0.244135 -0.088597 -0.984296
9 47.723759 0.024180 -0.000016 0.263889 -0.001315 -0.408541
10 -26.517460 -15.956991 21.321764 -1.739440 0.577761 -3.013932
11 37.914181 -0.000000 0.000003 -0.002855 0.035452 0.003416
12 41.189346 0.000000 0.000003 0.001212 0.003365 -0.411104
13 38.203541 0.000001 0.000003 0.006938 -0.035604 -0.429218
14 50.162155 0.000231 0.000003 0.013746 -0.066210 -0.992798
15 45.618237 -0.000009 0.000003 0.020842 -0.055941 -0.746409
16 48.074074 -0.000010 0.000002 0.069964 -0.040306 -0.307683
17 -20.210398 11.855524 -14.683264 -2.097544 0.752567 2.096997
18 43.390297 -0.000000 0.000004 0.045040 0.311529 0.169498
19 47.998016 0.000000 0.000004 0.023895 0.357490 0.015654
20 50.215260 -0.000009 0.000004 -0.012896 0.172831 -0.504160
21 41.153103 0.000001 0.000003 0.377114 -0.055868 -1.004667
22 66.351677 0.000000 0.000005 0.075863 -0.231307 0.127086
23 0.000000 0.000000 0.000000 1.632725 -1.028377 2.502294
24 23.622742 16.450596 0.468789 0.146757 0.126319 0.114921
25 -23.280552 -16.205236 -16.586464 3.111284 0.615659 3.027421
26 85.581291 -0.000006 -0.000001 0.000000 0.000000 -2.024369
27 53.650116 -0.000005 0.000013 0.000000 -0.000000 2.298057
28 33.201401 -0.000002 -0.000007 -0.077082 0.358052 -1.062898
29 21.348549 28.691174 -0.000003 -0.145914 -0.278943 1.716633
30 -27.107725 -11.774588 13.331768 3.010355 -0.611804 2.707317
31 85.581314 0.000006 0.000004 -0.000000 -0.000000 -1.061910
32 53.650097 0.000001 -0.000003 0.000000 -0.000000 0.878294
33 33.201408 -0.000009 0.000005 0.143096 -0.246484 -1.048236
34 21.348545 28.691175 -0.000000 -0.001089 0.004698 1.664852
35 32.368095 -0.057312 0.001177 -0.020184 0.219823 -0.243153
36 67.584412 6.189947 -0.001597 0.132938 -0.313327 0.750597
37 -23.894897 1.976557 -26.375601 0.524778 1.049428 2.847890
38 38.227749 -0.000002 0.000013 -0.243098 -0.057513 0.647360
39 89.093895 -0.000004 0.000001 -0.000000 -0.000000 -1.153154
40 59.561527 0.000017 -0.000008 1.440631 -0.135150 0.087790
41 31.086184 -3.122433 -0.002480 -0.028289 -0.203709 0.129176
42 11.272784 -0.349144 24.738405 -2.979790 -0.793723 1.734978
43 -4.176327 10.043220 33.947643 -0.124398 -1.373893 2.466880
44 38.227749 0.000015 0.000000 0.928019 0.968439 0.709200
45 89.093887 -0.000000 0.000001 -0.000000 0.000000 -0.780826
46 59.561527 -0.000003 0.000007 -1.458975 0.035202 0.131422
47 31.086208 -3.122432 0.002478 0.042639 0.045704 1.619874
48 11.272798 -0.349164 -24.738398 3.064497 0.803201 1.814651
49 15.788332 0.000003 0.000000 0.084114 -0.255909 0.248861
time 5
0 0.000000 0.000000 0.000000 1.570796 -0.000000 0.000000
1 0.000000 0.000000 0.000001 0.000000 -0.000000 0.000000
2 0.000009 109.508621 -65.764084 -3.141587 -1.317552 1.570791
3 -27.514357 17.090467 22.904945 -2.000183 0.661834 1.668014
4 38.339050 0.036428 0.000000 0.023319 0.278759 0.286132
5 40.888317 0.025451 -0.000004 0.055029 0.442379 0.121149
6 37.840919 0.015298 0.000006 0.016726 0.234074 0.022578
7 48.571720 0.685606 -0.000022 0.068724 -0.044652 -0.923899
8 44.261993 0.465025 0.000035 0.248223 -0.068015 -1.071226
9 47.723759 0.024180 -0.000016 0.334742 -0.035561 -0.533308
10 -26.517460 -15.956991 21.321764 -1.751226 0.586240 -3.009052
11 37.914181 -0.000000 0.000003 -0.004097 0.049777 -0.009254
12 41.189346 0.000000 0.000003 0.000393 0.015874 -0.391035
13 38.203541 0.000001 0.000003 0.003816 -0.010766 -0.403765
14 50.162155 0.000231 0.000003 0.009987 -0.039716 -0.963358
15 45.618237 -0.000009 0.000003 0.016105 -0.036278 -0.732440
16 48.074074 -0.000010 0.000002 0.065252 -0.033401 -0.304503
17 -20.210398 11.855524 -14.683264 -1.994447 0.721403 2.236812
18 43.390297 -0.000000 0.000004 0.030433 0.255107 0.078850
19 47.998016 0.000000 0.000004 0.033386 0.366881 0.033510
20 50.215260 -0.000009 0.000004 -0.031399 0.349114 -0.122492
21 41.153103 0.000001 0.000003 0.206617 0.030380 -0.813084
22 66.351677 0.000000 0.000005 0.075863 -0.231307 0.127086
23 0.000000 0.000000 0.000000 1.668066 -1.098934 2.466041
24 24.715668 14.796596 0.468612 0.152219 0.119414 0.095434
25 -23.644125 -15.663835 -16.586458 3.101452 0.655687 3.015158
26 85.581306 -0.000005 -0.000000 -0.000000 0.000000 -2.071663
27 53.650116 -0.000004 0.000009 0.000000 -0.000000 2.321621
28 33.201401 0.000002 0.000000 -0.093928 0.387470 -1.028213
29 21.348545 28.691179 -0.000000 -0.146001 -0.279509 1.716658
30 -27.369785 -11.136732 13.331772 3.020963 -0.618456 2.656135
31 85.581322 0.000001 -0.000000 -0.000000 -0.000000 -1.131507
32 53.650108 -0.000000 -0.000009 0.000000 -0.000000 0.954734
33 33.201393 0.000001 -0.000001 0.150308 -0.247963 -1.074702
34 21.348545 28.691175 -0.000000 -0.001089 0.004698 1.664852
35 32.366478 -0.056853 0.001726 -0.033837 0.221661 -0.297189
36 67.584412 6.189945 -0.001598 0.132938 -0.313327 0.750597
37 -23.894897 1.976557 -26.375601 0.524778 1.049428 2.847890
38 38.227753 0.000000 -0.000000 -0.240633 0.025859 0.747184
39 89.093887 0.000007 -0.000035 -0.000000 -0.000000 -1.104599
40 59.561523 -0.000009 0.000000 1.473704 -0.159602 -0.134121
41 31.086195 -3.122428 -0.002493 -0.028289 -0.203709 0.129176
42 11.272784 -0.349144 24.738405 -2.979790 -0.793723 1.734978
43 -4.176327 10.043220 33.947643 -0.124398 -1.373893 2.466880
44 38.227757 0.000001 0.000001 1.113856 0.762947 1.013622
45 89.093887 0.000007 0.000000 -0.000000 0.000000 -0.667293
46 59.561535 -0.000018 -0.000009 -1.461739 0.044410 0.049357
47 31.086206 -3.122438 0.002487 0.045652 0.042831 1.686402
48 11.272798 -0.349164 -24.738398 3.064497 0.803201 1.814651
49 15.788319 -0.000000 0.000002 0.095118 -0.271664 0.258394
time 6
0 0.000000 0.000000 0.000000 1.570796 -0.000000 0.000000
1 0.000000 0.000000 0.000001 0.000000 -0.000000 0.000000
2 0.000009 107.650124 -63.404911 -3.141589 -1.294789 1.570793
3 -27.514357 17.090467 22.904945 -1.925287 0.673210 1.779797
4 38.339050 0.036428 0.000000 0.009194 0.209867 0.219603
5 40.888317 0.025451 -0.000004 0.040350 0.431133 0.063454
6 37.840919 0.015298 0.000006 0.034003 0.377773 0.103458
7 48.571720 0.685606 -0.000022 0.008420 0.152583 -0.680704
8 44.261993 0.465025 0.000035 0.208714 -0.038254 -1.030420
9 47.723759 0.024180 -0.000016 0.389098 -0.069528 -0.656382
10 -26.517460 -15.956991 21.321764 -1.763238 0.594878 -3.004071
11 37.914181 -0.000000 0.000003 -0.004646 0.057407 -0.009277
12 41.189346 0.000000 0.000003 -0.000357 0.028035 -0.369796
13 38.203541 0.000001 0.000003 0.001405 0.009848 -0.378710
14 50.162155 0.000231 0.000003 0.006851 -0.014477 -0.934336
15 45.618237 -0.000009 0.000003 0.012028 -0.018038 -0.719890
16 48.074074 -0.000010 0.000002 0.059171 -0.025302 -0.299684
17 -20.210398 11.855524 -14.683264 -1.935146 0.708307 2.322004
18 43.390297 -0.000000 0.000004 0.013989 0.170152 -0.040959
19 47.998016 0.000000 0.000004 0.022789 0.329307 -0.029931
20 50.215260 -0.000009 0.000004 -0.009108 0.449171 0.059513
21 41.153103 0.000001 0.000003 0.040953 0.145592 -0.473964
22 66.351677 0.000000 0.000005 0.075863 -0.231307 0.127086
23 0.000000 0.000000 0.000000 1.707128 -1.176665 2.425975
24 25.803043 12.939159 0.468402 0.151350 0.120813 0.008817
25 -23.580523 -15.802335 -16.586454 3.109802 0.690975 3.071079
26 85.581299 -0.000007 0.000002 -0.000000 -0.000000 -2.107351
27 53.650108 -0.000011 0.000003 0.000000 -0.000000 2.327015
28 33.201401 -0.000003 -0.000003 -0.108670 0.416336 -0.988759
29 21.348547 28.691177 0.000001 -0.145889 -0.278768 1.716629
30 -27.341047 -11.247257 13.331773 3.005271 -0.618818 2.700790
31 85.581306 0.000002 0.000000 -0.000000 -0.000000 -1.195222
32 53.650120 0.000002 0.000004 0.000000 -0.000000 1.035849
33 33.201393 -0.000015 -0.000000 0.157205 -0.249881 -1.098631
34 21.348545 28.691175 -0.000000 -0.001089 0.004698 1.664852
35 32.367008 -0.056999 0.001891 -0.029709 0.227693 -0.254824
36 67.584412 6.189947 -0.001598 0.132938 -0.313327 0.750597
37 -23.894897 1.976557 -26.375601 0.524778 1.049428 2.847890
38 38.227753 0.000003 -0.000000 -0.212359 0.074648 0.821074
39 89.093887 0.000004 -0.000011 -0.000000 -0.000000 -0.989876
40 59.561535 -0.000002 0.000019 1.484939 -0.167147 -0.206035
41 31.086199 -3.122441 -0.002486 -0.028289 -0.203709 0.129176
42 11.272784 -0.349144 24.738405 -2.979790 -0.793723 1.734978
43 -4.176327 10.043220 33.947643 -0.124398 -1.373893 2.466880
44 38.227749 -0.000023 -0.000012 1.182539 0.613479 1.171179
45 89.093895 -0.000000 -0.000007 -0.000000 0.000000 -0.554258
46 59.561535 -0.000001 0.000007 -1.463688 0.050036 -0.001578
47 31.086197 -3.122449 0.002497 0.047581 0.040818 1.730972
48 11.272798 -0.349164 -24.738398 3.064497 0.803201 1.814651
49 15.788306 0.000006 0.000002 0.087382 -0.283084 0.273572
time 7
0 0.000000 0.000000 0.000000 1.570796 -0.000000 0.000000
1 0.000000 0.000000 0.000001 0.000000 -0.000000 0.000000
2 0.000009 107.686554 -59.638008 -3.141589 -1.276209 1.570794
3 -27.514357 17.090467 22.904945 -1.875274 0.691686 1.853399
4 38.339050 0.036428 0.000000 0.000647 0.144916 0.172022
5 40.888317 0.025451 -0.000004 0.022319 0.395988 -0.008680
6 37.840919 0.015298 0.000006 0.032836 0.437488 0.102346
7 48.571720 0.685606 -0.000022 -0.015487 0.349972 -0.548425
8 44.261993 0.465025 0.000035 0.095672 0.031236 -0.784006
9 47.723759 0.024180 -0.000016 0.384103 -0.103268 -0.694823
10 -26.517460 -15.956991 21.321764 -1.775390 0.603618 -2.999035
11 37.914181 -0.000000 0.000003 -0.004479 0.058512 0.003418
12 41.189346 0.000000 0.000003 -0.000996 0.039326 -0.347507
13 38.203541 0.000001 0.000003 -0.000158 0.024968 -0.354876
14 50.162155 0.000231 0.000003 0.004213 0.008935 -0.906625
15 45.618237 -0.000009 0.000003 0.008526 -0.001240 -0.708549
16 48.074074 -0.000010 0.000002 0.051920 -0.015841 -0.291898
17 -20.210398 11.855523 -14.683264 -1.898507 0.702587 2.378161
18 43.390297 -0.000000 0.000004 0.001780 0.094762 -0.136348
19 47.998016 0.000000 0.000004 0.009767 0.279207 -0.108212
20 50.215260 -0.000009 0.000004 -0.004070 0.452832 0.069678
21 41.153103 0.000001 0.000003 -0.060119 0.267407 -0.214273
22 66.351677 0.000000 0.000005 0.075863 -0.231307 0.127086
23 0.000000 0.000000 0.000000 1.739238 -1.255791 2.392847
24 26.632294 11.040906 0.468254 0.149079 0.123978 -0.092183
25 -23.466578 -16.012735 -16.586456 3.120686 0.727168 -3.139271
26 85.581306 -0.000001 0.000007 -0.000000 -0.000000 -2.119484
27 53.650105 -0.000007 -0.000007 0.000000 -0.000000 2.306508
28 33.201397 -0.000005 0.000004 -0.119552 0.443372 -0.943591
29 21.348547 28.691177 -0.000006 -0.145607 -0.276909 1.716554
30 -27.275587 -11.441866 13.331774 2.984979 -0.617977 2.766141
31 85.581306 0.000006 -0.000003 -0.000000 -0.000000 -1.258049
32 53.650112 0.000003 -0.000001 0.000000 -0.000000 1.130435
33 33.201408 0.000006 -0.000003 0.163568 -0.252362 -1.118638
34 21.348545 28.691175 -0.000000 -0.001089 0.004698 1.664852
35 32.368828 -0.057395 0.001827 -0.022090 0.236565 -0.197972
36 67.584412 6.189951 -0.001598 0.132938 -0.313327 0.750597
37 -23.894897 1.976557 -26.375601 0.524778 1.049428 2.847890
38 38.227749 -0.000022 0.000005 -0.179127 0.061334 0.844485
39 89.093895 -0.000001 -0.000018 -0.000000 -0.000000 -0.816844
40 59.561539 -0.000001 0.000005 1.482227 -0.165988 -0.190514
41 31.086199 -3.122445 -0.002481 -0.028289 -0.203709 0.129176
42 11.272784 -0.349144 24.738405 -2.979790 -0.793723 1.734978
43 -4.176327 10.043220 33.947643 -0.124398 -1.373893 2.466880
44 38.227753 0.000002 -0.000019 1.160319 0.512663 1.216453
45 89.093910 0.000000 0.000004 -0.000000 0.000000 -0.436554
46 59.561527 0.000002 0.000009 -1.464426 0.051272 -0.013657
47 31.086201 -3.122449 0.002495 0.048959 0.039069 1.766433
48 11.272798 -0.349164 -24.738398 3.064497 0.803201 1.814651
49 15.788312 -0.000002 0.000001 0.057932 -0.293058 0.296947
time 8
0 0.000000 0.000000 0.000000 1.570796 -0.000000 0.000000
1 0.000000 0.000000 0.000001 0.000000 -0.000000 0.000000
2 0.000009 109.948814 -54.075306 -3.141590 -1.263335 1.570794
3 -27.514357 17.090467 22.904945 -1.842520 0.713454 1.900492
4 38.339050 0.036428 0.000000 -0.001977 0.078169 0.142568
5 40.888317 0.025451 -0.000004 0.007985 0.342526 -0.074011
6 37.840919 0.015298 0.000006 0.022800 0.452284 0.051447
7 48.571720 0.685606 -0.000022 -0.029207 0.496413 -0.509129
8 44.261993 0.465025 0.000035 -0.018512 0.156693 -0.529413
9 47.723759 0.024180 -0.000016 0.271428 -0.120363 -0.547612
10 -26.517460 -15.956991 21.321764 -1.787626 0.612420 -2.993970
11 37.914181 -0.000000 0.000003 -0.003974 0.057106 0.022132
12 41.189346 0.000000 0.000003 -0.001511 0.049264 -0.324157
13 38.203541 0.000001 0.000003 -0.000907 0.035347 -0.332588
14 50.162155 0.000231 0.000003 0.001935 0.029899 -0.881015
15 45.618237 -0.000009 0.000003 0.005444 0.014927 -0.698086
16 48.074074 -0.000010 0.000002 0.043033 -0.005043 -0.280124
17 -20.210398 11.855524 -14.683264 -1.875215 0.702779 2.415581
18 43.390297 -0.000000 0.000004 -0.003835 0.051394 -0.174760
19 47.998016 0.000000 0.000004 0.000163 0.226507 -0.173646
20 50.215260 -0.000009 0.000004 -0.008776 0.422208 0.019204
21 41.153103 0.000001 0.000003 -0.105026 0.368609 -0.079815
22 66.351677 0.000000 0.000005 0.075863 -0.231307 0.127086
23 0.000000 0.000000 0.000000 1.753737 -1.332170 2.377372
24 27.227032 9.083258 0.468164 0.147773 0.125476 -0.180618
25 -23.422358 -16.080740 -16.586456 3.133939 0.759360 -3.073724
26 85.581291 -0.000003 0.000000 -0.000000 -0.000000 -2.105277
27 53.650108 0.000000 0.000009 0.000000 -0.000000 2.252813
28 33.201401 0.000001 -0.000000 -0.124942 0.467357 -0.891403
29 21.348547 28.691185 -0.000009 -0.145193 -0.274185 1.716444
30 -27.245190 -11.515822 13.331775 2.964110 -0.617097 2.826736
31 85.581322 0.000001 -0.000000 -0.000000 -0.000000 -1.317658
32 53.650120 -0.000002 0.000000 0.000000 -0.000000 1.230011
33 33.201389 -0.000003 -0.000006 0.169175 -0.255576 -1.133292
34 21.348545 28.691175 -0.000000 -0.001089 0.004698 1.664852
35 32.373596 -0.058319 0.001239 -0.014457 0.240683 -0.131183
36 67.584412 6.189955 -0.001598 0.132938 -0.313327 0.750597
37 -23.894897 1.976557 -26.375601 0.524778 1.049428 2.847890
38 38.227745 -0.000007 0.000017 -0.151831 -0.003007 0.833194
39 89.093887 0.000016 0.000000 -0.000000 0.000000 -0.587388
40 59.561543 -0.000009 0.000000 1.474738 -0.161363 -0.143180
41 31.086203 -3.122448 -0.002476 -0.028289 -0.203709 0.129176
42 11.272784 -0.349144 24.738405 -2.979790 -0.793723 1.734978
43 -4.176327 10.043220 33.947643 -0.124398 -1.373893 2.466880
44 38.227760 0.000008 0.000017 1.114930 0.512505 1.212518
45 89.093903 -0.000001 0.000009 -0.000000 0.000000 -0.335612
46 59.561535 0.000009 0.000000 -1.461435 0.041232 0.075699
47 31.086203 -3.122448 0.002492 0.051094 0.036264 1.823121
48 11.272798 -0.349164 -24.738398 3.064497 0.803201 1.814651
49 15.788319 0.000008 0.000001 0.014643 -0.304524 0.331381
time 9
0 0.000000 0.000000 0.000000 1.570796 -0.000000 0.000000
1 0.000000 0.000000 0.000001 0.000000 -0.000000 0.000000
2 0.000008 113.071098 -47.844627 -3.141588 -1.258881 1.570792
3 -27.514357 17.090467 22.904945 -1.821133 0.734514 1.930504
4 38.339050 0.036428 0.000000 -0.000907 0.009604 0.125433
5 40.888317 0.025451 -0.000004 0.000578 0.245619 -0.130314
6 37.840919 0.015298 0.000006 0.010433 0.433985 -0.016855
7 48.571720 0.685606 -0.000022 -0.057473 0.534779 -0.572390
8 44.261993 0.465025 0.000035 -0.104128 0.301195 -0.444134
9 47.723759 0.024180 -0.000016 0.089817 -0.058222 -0.298236
10 -26.517460 -15.956991 21.321764 -1.799883 0.621234 -2.988887
11 37.914181 -0.000000 0.000003 -0.003226 0.053852 0.045144
12 41.189346 0.000000 0.000003 -0.001891 0.057043 -0.299604
13 38.203541 0.000001 0.000003 -0.000985 0.042156 -0.311361
14 50.162155 0.000231 0.000003 0.000004 0.046989 -0.859296
15 45.618237 -0.000009 0.000003 0.002753 0.030371 -0.688459
16 48.074074 -0.000010 0.000002 0.032548 0.006910 -0.265361
17 -20.210398 11.855524 -14.683264 -1.858223 0.708465 2.441143
18 43.390297 -0.000000 0.000004 -0.006151 0.022458 -0.184577
19 47.998016 0.000000 0.000004 -0.003885 0.170328 -0.218499
20 50.215260 -0.000009 0.000004 -0.014049 0.370922 -0.042316
21 41.153103 0.000001 0.000003 -0.115621 0.385810 -0.054871
22 66.351677 0.000000 0.000005 0.075863 -0.231307 0.127086
23 0.000000 0.000000 0.000000 1.735265 -1.399946 2.394986
24 27.715771 7.043589 0.468093 0.150361 0.121314 -0.226040
25 -23.565535 -15.790605 -16.586454 -3.133942 0.780701 -3.048474
26 85.581306 -0.000002 -0.000010 0.000000 -0.000000 -2.070529
27 53.650116 -0.000008 0.000006 -0.000000 -0.000000 2.168841
28 33.201405 -0.000001 0.000002 -0.122211 0.486616 -0.827761
29 21.348543 28.691175 0.000004 -0.144685 -0.270843 1.716309
30 -27.317801 -11.269852 13.331775 2.947847 -0.617871 2.848588
31 85.581306 0.000009 -0.000000 -0.000000 0.000000 -1.370593
32 53.650108 0.000005 0.000003 0.000000 -0.000000 1.317360
33 33.201393 0.000005 -0.000005 0.173637 -0.259838 -1.140044
34 21.348545 28.691175 -0.000000 -0.001089 0.004698 1.664852
35 32.378662 -0.058868 0.000713 -0.011375 0.229574 -0.059198
36 67.584412 6.189956 -0.001597 0.132938 -0.313327 0.750597
37 -23.894897 1.976557 -26.375601 0.524778 1.049428 2.847890
38 38.227749 0.000016 0.000020 -0.125102 -0.097123 0.802771
39 89.093887 -0.000003 -0.000014 0.000000 0.000000 -0.403786
40 59.561550 -0.000005 0.000000 1.465273 -0.155146 -0.082185
41 31.086210 -3.122451 -0.002472 -0.028289 -0.203709 0.129176
42 11.272784 -0.349144 24.738405 -2.979790 -0.793723 1.734978
43 -4.176327 10.043220 33.947643 -0.124398 -1.373893 2.466880
44 38.227753 0.000007 -0.000015 1.051106 0.601295 1.163892
45 89.093918 -0.000002 -0.000000 -0.000000 -0.000000 -0.248031
46 59.561535 0.000002 0.000012 -1.454984 0.019755 0.267505
47 31.086203 -3.122447 0.002491 0.054441 0.031989 1.910955
48 11.272798 -0.349164 -24.738398 3.064497 0.803201 1.814651
49 15.788319 -0.000002 -0.000000 -0.035322 -0.313236 0.364845
time 10
0 0.000000 0.000000 0.000000 1.570796 -0.000000 0.000000
1 0.000000 0.000000 0.000001 0.000000 -0.000000 0.000000
2 0.000007 115.676819 -42.106918 -3.141583 -1.264218 1.570788
3 -27.514357 17.090467 22.904945 -1.803083 0.751278 1.955827
4 38.339050 0.036428 0.000000 0.001202 -0.051438 0.116129
5 40.888317 0.025451 -0.000004 -0.003230 0.123907 -0.181085
6 37.840919 0.015298 0.000006 0.000753 0.393001 -0.071366
7 48.571720 0.685606 -0.000022 -0.087145 0.533265 -0.668513
8 44.261993 0.465025 0.000035 -0.158955 0.391603 -0.443390
9 47.723759 0.024180 -0.000016 -0.082423 0.074092 -0.091019
10 -26.517460 -15.956991 21.321764 -1.812095 0.630018 -2.983826
11 37.914181 -0.000000 0.000003 -0.002354 0.049336 0.070528
12 41.189346 0.000000 0.000003 -0.002107 0.062341 -0.273970
13 38.203541 0.000001 0.000003 -0.000656 0.046490 -0.290282
14 50.162155 0.000231 0.000003 -0.000912 0.058971 -0.843359
15 45.618237 -0.000009 0.000003 0.000386 0.045050 -0.679479
16 48.074074 -0.000010 0.000002 0.021479 0.019649 -0.250190
17 -20.210398 11.855523 -14.683264 -1.855044 0.722049 2.445535
18 43.390297 -0.000000 0.000004 -0.006863 -0.000224 -0.181686
19 47.998016 0.000000 0.000004 -0.005742 0.108299 -0.258232
20 50.215260 -0.000009 0.000004 -0.016459 0.301068 -0.096645
21 41.153103 0.000001 0.000003 -0.112978 0.356439 -0.080277
22 66.351677 0.000000 0.000005 0.075863 -0.231307 0.127086
23 0.000000 0.000000 0.000000 1.685720 -1.459116 2.443794
24 28.140602 4.979964 0.468029 0.156078 0.113476 -0.247104
25 -24.148113 -14.833055 -16.586452 -3.116668 0.789531 -3.072467
26 85.581299 0.000003 0.000004 0.000000 0.000000 -2.025884
27 53.650105 -0.000002 0.000002 -0.000000 0.000000 2.069738
28 33.201397 -0.000004 -0.000006 -0.112620 0.502348 -0.753613
29 21.348547 28.691177 0.000003 -0.144142 -0.267268 1.716164
30 -27.703718 -10.233685 13.331775 2.938475 -0.620439 2.821913
31 85.581314 0.000003 0.000002 -0.000000 0.000000 -1.415230
32 53.650108 -0.000002 0.000003 0.000000 -0.000000 1.379862
33 33.201408 0.000003 0.000003 0.176712 -0.265341 -1.137396
34 21.348545 28.691175 -0.000000 -0.001089 0.004698 1.664852
35 32.383072 -0.058951 0.000627 -0.013262 0.198684 0.015810
36 67.584412 6.189960 -0.001596 0.132938 -0.313327 0.750597
37 -23.894897 1.976557 -26.375601 0.524778 1.049428 2.847890
38 38.227757 0.000011 -0.000000 -0.088471 -0.207218 0.751681
39 89.093895 0.000002 0.000002 0.000000 0.000000 -0.263651
40 59.561527 0.000010 0.000000 1.456425 -0.148869 -0.023771
41 31.086210 -3.122454 -0.002470 -0.028289 -0.203709 0.129176
42 11.272784 -0.349144 24.738405 -2.979790 -0.793723 1.734978
43 -4.176327 10.043220 33.947643 -0.124398 -1.373893 2.466880
44 38.227749 0.000002 -0.000010 0.938550 0.707907 1.070598
45 89.093895 -0.000000 -0.000003 -0.000000 0.000000 -0.178981
46 59.561523 0.000010 0.000009 -1.452747 0.002370 0.417859
47 31.086203 -3.122448 0.002492 0.055460 0.029993 1.945959
48 11.272798 -0.349164 -24.738398 3.064497 0.803201 1.814651
49 15.788313 0.000002 0.000000 -0.083915 -0.314425 0.384259
time 11
0 0.000000 0.000000 0.000000 1.570796 -0.000000 0.000000
1 0.000000 0.000000 0.000001 0.000000 -0.000000 0.000000
2 0.000007 117.811798 -36.997780 -3.141577 -1.284660 1.570781
3 -27.514357 17.090467 22.904945 -1.789593 0.764289 1.974589
4 38.339050 0.036428 0.000000 0.002204 -0.097124 0.111975
5 40.888317 0.025451 -0.000004 -0.005531 0.028912 -0.211214
6 37.840919 0.015298 0.000006 -0.006090 0.309148 -0.114576
7 48.571720 0.685606 -0.000022 -0.103368 0.498233 -0.742672
8 44.261993 0.465025 0.000035 -0.186764 0.409639 -0.506850
9 47.723759 0.024180 -0.000016 -0.192896 0.189047 -0.020778
10 -26.517460 -15.956991 21.321764 -1.824209 0.638733 -2.978811
11 37.914181 -0.000000 0.000003 -0.001438 0.043887 0.097043
12 41.189346 0.000000 0.000003 -0.002019 0.063106 -0.246049
13 38.203541 0.000001 0.000003 -0.000107 0.048948 -0.268668
14 50.162155 0.000231 0.000003 -0.000941 0.066641 -0.831294
15 45.618237 -0.000009 0.000003 -0.001694 0.058858 -0.671060
16 48.074074 -0.000010 0.000002 0.010529 0.032955 -0.236531
17 -20.210398 11.855524 -14.683264 -1.863152 0.741271 2.433339
18 43.390297 -0.000000 0.000004 -0.006565 -0.018208 -0.170808
19 47.998016 0.000000 0.000004 -0.006518 0.047479 -0.290541
20 50.215260 -0.000009 0.000004 -0.017624 0.213149 -0.154768
21 41.153103 0.000001 0.000003 -0.103919 0.309669 -0.126519
22 66.351677 0.000000 0.000005 0.075863 -0.231307 0.127086
23 0.000000 0.000000 0.000000 1.605677 -1.512815 2.523180
24 28.545891 2.946160 0.467958 0.163453 0.103135 -0.249170
25 -25.183453 -13.121264 -16.586449 -3.097506 0.789144 -3.130648
26 85.581322 -0.000000 0.000000 0.000000 0.000000 -1.977124
27 53.650108 -0.000004 0.000000 -0.000000 0.000000 1.963563
28 33.201401 -0.000003 0.000017 -0.097762 0.515695 -0.671650
29 21.348545 28.691179 0.000000 -0.143604 -0.263731 1.716021
30 -28.392746 -8.236691 13.331777 2.933974 -0.623948 2.762389
31 85.581299 -0.000000 0.000000 -0.000000 0.000000 -1.452965
32 53.650097 -0.000000 -0.000004 0.000000 -0.000000 1.423447
33 33.201405 0.000008 -0.000006 0.177300 -0.273183 -1.118588
34 21.348545 28.691175 -0.000000 -0.001089 0.004698 1.664852
35 32.387585 -0.058697 0.000853 -0.018092 0.151399 0.096639
36 67.584412 6.189960 -0.001595 0.132938 -0.313327 0.750597
37 -23.894897 1.976557 -26.375601 0.524778 1.049428 2.847890
38 38.227745 0.000009 -0.000017 -0.032554 -0.324088 0.676456
39 89.093903 0.000003 -0.000018 0.000000 -0.000000 -0.200094
40 59.561531 0.000005 0.000000 1.445560 -0.139874 0.051874
41 31.086208 -3.122456 -0.002470 -0.028289 -0.203709 0.129176
42 11.272784 -0.349144 24.738405 -2.979790 -0.793723 1.734978
43 -4.176327 10.043220 33.947643 -0.124398 -1.373893 2.466880
44 38.227760 0.000014 -0.000018 0.754360 0.795262 0.929590
45 89.093903 -0.000007 -0.000009 -0.000000 0.000000 -0.173681
46 59.561516 0.000004 0.000000 -1.453169 -0.005961 0.487893
47 31.086203 -3.122448 0.002492 0.051657 0.033774 1.862393
48 11.272798 -0.349164 -24.738398 3.064497 0.803201 1.814651
49 15.788319 0.000008 -0.000000 -0.124770 -0.304064 0.378168
time 12
0 0.000000 0.000000 0.000000 1.570796 -0.000000 0.000000
1 0.000000 0.000000 0.000001 0.000000 -0.000000 0.000000
2 0.000006 119.985458 -31.836840 -3.141565 -1.321656 1.570769
3 -27.514357 17.090467 22.904945 -1.782576 0.775344 1.983744
4 38.339050 0.036428 0.000000 0.001286 -0.116252 0.118612
5 40.888317 0.025451 -0.000004 -0.007145 -0.010334 -0.209161
6 37.840919 0.015298 0.000006 -0.011804 0.198055 -0.151569
7 48.571720 0.685606 -0.000022 -0.097043 0.424152 -0.766390
8 44.261993 0.465025 0.000035 -0.199232 0.395974 -0.594125
9 47.723759 0.024180 -0.000016 -0.251818 0.284943 -0.063417
10 -26.517460 -15.956991 21.321764 -1.836137 0.647311 -2.973864
11 37.914181 -0.000000 0.000003 -0.000548 0.037820 0.123205
12 41.189346 0.000000 0.000003 -0.001184 0.054069 -0.212091
13 38.203541 0.000001 0.000003 0.000447 0.050085 -0.245557
14 50.162155 0.000231 0.000003 -0.000454 0.071324 -0.819712
15 45.618237 -0.000009 0.000003 -0.003348 0.071158 -0.663768
16 48.074074 -0.000010 0.000002 0.000612 0.046594 -0.227070
17 -20.210398 11.855524 -14.683264 -1.874264 0.761517 2.416685
18 43.390297 -0.000000 0.000004 -0.005831 -0.032954 -0.157130
19 47.998016 0.000000 0.000004 -0.007673 -0.002730 -0.311432
20 50.215260 -0.000009 0.000004 -0.018821 0.123239 -0.207461
21 41.153103 0.000001 0.000003 -0.092484 0.254926 -0.177912
22 66.351677 0.000000 0.000005 0.075863 -0.231307 0.127086
23 0.000000 0.000000 0.000000 -2.154853 -1.559305 0.000000
24 28.834904 1.185509 0.467825 0.171023 0.090575 -0.226795
25 -26.184744 -10.960079 -16.586445 -3.076747 0.781946 3.070818
26 85.581306 -0.000004 0.000000 0.000000 0.000000 -1.923917
27 53.650101 0.000005 0.000006 -0.000000 0.000000 1.849539
28 33.201397 -0.000001 -0.000001 -0.079236 0.528112 -0.584549
29 21.348547 28.691177 0.000004 -0.143128 -0.260593 1.715894
30 -28.933256 -5.865157 13.331782 2.931589 -0.628465 2.680608
31 85.581306 0.000008 -0.000001 -0.000000 0.000000 -1.485862
32 53.650108 -0.000001 0.000002 0.000000 -0.000000 1.457324
33 33.201397 0.000004 -0.000005 0.175210 -0.283645 -1.081797
34 21.348545 28.691175 -0.000000 -0.001089 0.004698 1.664852
35 32.392658 -0.058030 0.001402 -0.026999 0.093910 0.183319
36 67.584412 6.189965 -0.001594 0.132938 -0.313327 0.750597
37 -23.894897 1.976557 -26.375601 0.524778 1.049428 2.847890
38 38.227757 -0.000011 -0.000004 0.057830 -0.445400 0.564944
39 89.093880 -0.000000 0.000003 0.000000 -0.000000 -0.284860
40 59.561523 0.000004 0.000006 1.436424 -0.131216 0.119420
41 31.086203 -3.122457 -0.002485 -0.028289 -0.203709 0.129176
42 11.272784 -0.349144 24.738405 -2.979790 -0.793723 1.734978
43 -4.176327 10.043220 33.947643 -0.124398 -1.373893 2.466880
44 38.227749 0.000004 -0.000000 0.511473 0.884986 0.748095
45 89.093903 -0.000002 -0.000000 -0.000000 0.000000 -0.278234
46 59.561527 -0.000005 -0.000003 -1.454037 0.002437 0.416506
47 31.086203 -3.122447 0.002492 0.043373 0.043879 1.661396
48 11.272798 -0.349164 -24.738398 3.064497 0.803201 1.814651
49 15.788313 0.000005 -0.000000 -0.155748 -0.278597 0.338349
time 13
0 0.000000 0.000000 0.000000 1.570796 -0.000000 0.000000
1 0.000000 0.000000 0.000001 0.000000 -0.000000 0.000000
2 0.000006 122.234512 -26.114010 -3.141553 -1.368563 1.570757
3 -27.514357 17.090467 22.904945 -1.778868 0.785381 1.987973
4 38.339050 0.036428 0.000000 -0.000106 -0.116939 0.135073
5 40.888317 0.025451 -0.000004 -0.007760 -0.026599 -0.190295
6 37.840919 0.015298 0.000006 -0.015639 0.111265 -0.173442
7 48.571720 0.685606 -0.000022 -0.079676 0.323845 -0.770996
8 44.261993 0.465025 0.000035 -0.196774 0.364849 -0.656843
9 47.723759 0.024180 -0.000016 -0.283748 0.342886 -0.118064
10 -26.517460 -15.956991 21.321764 -1.847839 0.655727 -2.969016
11 37.914181 -0.000000 0.000003 0.000214 0.031584 0.147604
12 41.189346 0.000000 0.000003 -0.000002 0.039920 -0.175240
13 38.203541 0.000001 0.000003 0.000898 0.049220 -0.219066
14 50.162155 0.000231 0.000003 0.000078 0.075007 -0.805113
15 45.618237 -0.000009 0.000003 -0.003969 0.080447 -0.659450
16 48.074074 -0.000010 0.000002 -0.007105 0.061761 -0.228786
17 -20.210398 11.855523 -14.683264 -1.880227 0.778156 2.407600
18 43.390297 -0.000000 0.000004 -0.005388 -0.046642 -0.146464
19 47.998016 0.000000 0.000004 -0.009498 -0.029268 -0.307205
20 50.215260 -0.000009 0.000004 -0.019750 0.050595 -0.240740
21 41.153103 0.000001 0.000003 -0.081859 0.200765 -0.218540
22 66.351677 0.000000 0.000005 0.075863 -0.231307 0.127086
23 0.000000 0.000000 0.000000 -1.830139 -1.543813 -0.325186
24 28.854469 0.313284 0.467618 0.177388 0.076340 -0.178088
25 -26.882685 -8.487638 -16.586435 -3.055026 0.771892 2.980293
26 85.581291 -0.000004 -0.000003 0.000000 0.000000 -1.867473
27 53.650112 -0.000002 0.000013 -0.000000 0.000000 1.729938
28 33.201393 0.000004 -0.000002 -0.058689 0.540776 -0.495245
29 21.348547 28.691179 -0.000003 -0.142753 -0.258125 1.715795
30 -29.362251 -3.052614 13.331793 2.928250 -0.634009 2.590780
31 85.581299 0.000005 -0.000005 -0.000000 0.000000 -1.515713
32 53.650116 0.000007 0.000013 0.000000 -0.000000 1.485087
33 33.201389 0.000001 -0.000006 0.171730 -0.295469 -1.034894
34 21.348545 28.691175 -0.000000 -0.001089 0.004698 1.664852
35 32.398029 -0.056590 0.002514 -0.041689 0.034881 0.274017
36 67.584412 6.189968 -0.001592 0.132938 -0.313327 0.750597
37 -23.894897 1.976557 -26.375601 0.524778 1.049428 2.847890
38 38.227741 -0.000005 -0.000008 0.199504 -0.592614 0.388937
39 89.093895 0.000004 -0.000002 -0.000000 0.000000 -0.438817
40 59.561543 0.000005 -0.000006 1.428227 -0.122370 0.184060
41 31.086199 -3.122456 -0.002495 -0.028289 -0.203709 0.129176
42 11.272784 -0.349144 24.738405 -2.979790 -0.793723 1.734978
43 -4.176327 10.043220 33.947643 -0.124398 -1.373893 2.466880
44 38.227760 -0.000003 0.000008 0.234159 0.963881 0.538602
45 89.093895 0.000003 0.000004 -0.000000 0.000000 -0.446516
46 59.561531 0.000001 -0.000013 -1.455194 0.015711 0.303747
47 31.086201 -3.122446 0.002492 0.031891 0.053807 1.411413
48 11.272798 -0.349164 -24.738398 3.064497 0.803201 1.814651
49 15.788325 -0.000001 -0.000001 -0.182621 -0.243434 0.277850
time 14
0 0.000000 0.000000 0.000000 1.570796 -0.000000 0.000000
1 0.000000 0.000000 0.000001 0.000000 -0.000000 0.000000
2 0.000005 124.570053 -19.739365 -3.141539 -1.421260 1.570742
3 -27.514357 17.090467 22.904945 -1.776417 0.795029 1.990331
4 38.339050 0.036428 0.000000 -0.001547 -0.109304 0.153035
5 40.888317 0.025451 -0.000004 -0.008017 -0.034532 -0.165841
6 37.840919 0.015298 0.000006 -0.016317 0.069590 -0.164820
7 48.571720 0.685606 -0.000022 -0.059135 0.216778 -0.767931
8 44.261993 0.465025 0.000035 -0.162952 0.295513 -0.673955
9 47.723759 0.024180 -0.000016 -0.275451 0.336538 -0.174874
10 -26.517460 -15.956991 21.321764 -1.859258 0.663941 -2.964288
11 37.914181 -0.000000 0.000003 0.000777 0.025508 0.169000
12 41.189346 0.000000 0.000003 0.001175 0.024735 -0.138346
13 38.203541 0.000001 0.000003 0.001681 0.036765 -0.181025
14 50.162155 0.000231 0.000003 0.001071 0.072775 -0.776281
15 45.618237 -0.000009 0.000003 -0.003896 0.087577 -0.655507
16 48.074074 -0.000010 0.000002 -0.012573 0.079022 -0.242341
17 -20.210398 11.855524 -14.683264 -1.881127 0.790291 2.405889
18 43.390297 -0.000000 0.000004 -0.005544 -0.056714 -0.138926
19 47.998016 0.000000 0.000004 -0.011441 -0.032506 -0.274963
20 50.215260 -0.000009 0.000004 -0.020723 0.012312 -0.230441
21 41.153103 0.000001 0.000003 -0.069104 0.135193 -0.246319
22 66.351677 0.000000 0.000005 0.075863 -0.231307 0.127086
23 0.000000 0.000000 0.000000 -2.023361 -1.514524 -0.132282
24 28.856882 0.300271 0.467445 0.182506 0.059123 -0.087982
25 -27.465168 -5.664525 -16.586430 -3.032747 0.761638 2.891338
26 85.581291 0.000002 -0.000009 0.000000 0.000000 -1.808852
27 53.650116 0.000006 0.000000 -0.000000 0.000000 1.606652
28 33.201393 0.000010 0.000000 -0.033652 0.552870 -0.400267
29 21.348549 28.691181 -0.000018 -0.142506 -0.256492 1.715731
30 -29.552959 -0.066781 13.331803 2.921511 -0.640710 2.502973
31 85.581314 0.000008 -0.000000 -0.000000 0.000000 -1.543593
32 53.650108 0.000009 0.000000 0.000000 -0.000000 1.508894
33 33.201397 -0.000007 0.000004 0.167715 -0.307822 -0.982911
34 21.348545 28.691175 -0.000000 -0.001089 0.004698 1.664852
35 32.403461 -0.054788 0.003885 -0.064657 -0.021862 0.369315
36 67.584412 6.189970 -0.001591 0.132938 -0.313327 0.750597
37 -23.894897 1.976557 -26.375601 0.524778 1.049428 2.847890
38 38.227757 0.000001 0.000018 0.388217 -0.739755 0.158973
39 89.093910 0.000004 0.000001 0.000000 0.000000 -0.590143
40 59.561535 0.000009 0.000000 1.422600 -0.115795 0.230295
41 31.086203 -3.122457 -0.002479 -0.028289 -0.203709 0.129176
42 11.272784 -0.349144 24.738405 -2.979790 -0.793723 1.734978
43 -4.176327 10.043220 33.947643 -0.124398 -1.373893 2.466880
44 38.227749 0.000000 0.000000 -0.059367 1.016240 0.312857
45 89.093910 -0.000003 -0.000009 -0.000000 0.000000 -0.632948
46 59.561550 0.000001 -0.000002 -1.457564 0.030968 0.171200
47 31.086201 -3.122444 0.002492 0.016817 0.058986 1.137491
48 11.272798 -0.349164 -24.738398 3.064497 0.803201 1.814651
49 15.788327 -0.000000 -0.000000 -0.206818 -0.201730 0.203918
end
