version 1
nodes
0 "b_046" -1
1 "S_GC" 0
2 "Bip001" 1
3 "Bone007(mirrored)" 2
4 "Bone008(mirrored)" 3
5 "Bone009(mirrored)" 4
6 "Bone010(mirrored)" 5
7 "Bone011(mirrored)" 6
8 "Bone012(mirrored)" 7
9 "Bone013(mirrored)" 8
10 "Bone007" 2
11 "Bone008" 10
12 "Bone009" 11
13 "Bone010" 12
14 "Bone011" 13
15 "Bone012" 14
16 "Bone013" 15
17 "Bone001" 2
18 "Bone002" 17
19 "Bone003" 18
20 "Bone004" 19
21 "Bone005" 20
22 "Bone006" 21
23 "Bip001 Pelvis" 2
24 "Bip001 Spine" 23
25 "Bip001 R Thigh" 24
26 "Bip001 R Calf" 25
27 "Bip001 R HorseLink" 26
28 "Bip001 R Foot" 27
29 "Bip001 R Toe0" 28
30 "Bip001 L Thigh" 24
31 "Bip001 L Calf" 30
32 "Bip001 L HorseLink" 31
33 "Bip001 L Foot" 32
34 "Bip001 L Toe0" 33
35 "Bip001 Spine1" 24
36 "Bip001 Neck" 35
37 "Bip001 R Clavicle" 36
38 "Bip001 R UpperArm" 37
39 "Bip001 R Forearm" 38
40 "Bip001 R Hand" 39
41 "Bip001 R Finger1" 40
42 "Bip001 R Finger0" 40
43 "Bip001 L Clavicle" 36
44 "Bip001 L UpperArm" 43
45 "Bip001 L Forearm" 44
46 "Bip001 L Hand" 45
47 "Bip001 L Finger1" 46
48 "Bip001 L Finger0" 46
49 "Bip001 Head" 36
end
skeleton
time 0
0 0.000000 0.000000 0.000000 1.570796 -0.000000 0.000000
1 0.000000 0.000000 0.000001 0.000000 -0.000000 0.000000
2 12.986361 141.203766 -135.286789 -1.570799 -1.557525 0.000000
3 -27.514357 17.090467 22.904945 -1.950139 -0.092507 2.324950
4 38.339050 0.036428 0.000000 0.569867 0.686136 1.450087
5 40.888332 0.025434 -0.000004 0.015305 0.235946 0.247221
6 37.900436 0.015323 0.000006 0.025727 -0.225872 -0.084020
7 48.648121 0.686701 -0.000027 0.419107 -0.378933 -0.752531
8 44.331642 0.465742 0.000044 0.699458 -0.494297 -1.381445
9 47.798843 0.024210 -0.000024 0.219682 -0.465017 -0.380394
10 -26.517460 -15.956991 21.321764 -1.751676 -0.337282 -2.882682
11 37.914181 -0.000000 0.000003 -0.795993 -0.702931 1.939019
12 41.189339 0.000000 0.000001 -0.029894 -0.357418 0.376947
13 38.263634 0.000000 0.000003 -0.225920 0.111925 -0.359287
14 50.241070 0.000233 0.000012 -0.492568 0.050540 -1.106346
15 45.689995 -0.000010 -0.000015 -0.208231 0.009451 -1.059268
16 48.149696 -0.000019 0.000010 -0.080471 -0.033135 -0.201493
17 -19.804550 8.761357 -14.683263 -1.938901 -0.073331 2.885562
18 43.390297 -0.000000 0.000004 0.615103 0.473415 1.581439
19 47.998001 0.000001 -0.000000 -0.031917 0.157869 0.340880
20 50.294254 -0.000000 0.000006 -0.038827 -0.562469 -0.267144
21 41.217842 0.000001 0.000003 0.319479 -1.100660 -1.071262
22 66.456085 0.000007 0.000014 -0.068482 -0.520229 -0.345784
23 0.000000 0.000000 0.000000 -3.038888 -1.495330 1.672536
24 28.662945 1.507731 -2.774367 -0.171133 0.148454 0.728931
25 -20.118176 21.056349 -12.117218 -2.770002 0.544762 1.783005
26 85.581291 -0.000004 0.000007 -0.000000 0.000000 -1.571230
27 53.650116 -0.000007 -0.000002 -0.000000 -0.000000 1.428856
28 33.201389 -0.000005 0.000000 -0.074776 0.210102 -0.686989
29 21.348549 28.691189 -0.000003 -0.001343 -0.033891 1.902103
30 -24.685743 14.794481 15.899506 2.724937 -0.381307 2.368517
31 85.581284 -0.000000 0.000013 -0.000000 -0.000000 -1.365321
32 53.650097 -0.000002 0.000004 0.000000 0.000000 1.211470
33 33.201405 0.000003 -0.000008 0.196057 -0.297568 -0.598033
34 21.348558 28.691216 -0.000001 0.012916 -0.058924 2.375619
35 32.417988 -0.045651 -0.007281 0.122952 -0.068371 0.651785
36 67.582573 6.188445 0.000170 -0.002593 -0.273827 0.606366
37 -23.114214 3.614973 -26.469069 -0.737201 1.188453 1.738319
38 38.227753 0.000021 -0.000004 1.232185 0.066937 -0.040603
39 89.093903 0.000005 -0.000001 0.000000 -0.000000 -1.766691
40 59.561531 0.000006 -0.000016 1.610072 -0.091942 -0.005530
41 31.086206 -3.122448 -0.002485 -0.028289 -0.203709 0.129176
42 11.272793 -0.349162 24.738407 -2.979336 -0.793866 1.733641
43 -6.308169 2.698741 34.911617 1.004294 -1.385047 1.556616
44 38.227757 -0.000019 -0.000003 -1.044249 -0.154168 -0.847232
45 89.093918 -0.000001 0.000000 0.000000 -0.000000 -1.051763
46 59.561520 -0.000022 0.000016 -1.443014 0.224202 -0.092498
47 31.086197 -3.122459 0.002483 -0.070570 0.179836 0.014834
48 11.272788 -0.349162 -24.738400 3.063695 0.803113 1.813254
49 15.788310 -0.000010 0.000004 -0.015181 0.417405 0.005624
time 1
0 0.000000 0.000000 0.000000 1.570796 -0.000000 0.000000
1 0.000000 0.000000 0.000001 0.000000 -0.000000 0.000000
2 24.498505 127.089912 -203.008942 -1.570796 -1.559298 0.000000
3 -27.514357 17.090467 22.904945 -1.936895 -0.056501 2.430719
4 38.339050 0.036428 0.000000 0.732834 1.245042 1.002550
5 40.888332 0.025434 -0.000004 -0.252491 0.570897 0.177735
6 38.068790 0.015390 0.000006 -0.255984 -0.073404 0.279055
7 48.864216 0.689749 -0.000027 0.159653 -0.404273 -0.142809
8 44.528561 0.467814 0.000044 0.628670 -0.501140 -0.751673
9 48.011162 0.024318 -0.000025 0.842723 -0.929147 -1.171472
10 -26.517460 -15.956991 21.321764 -1.637826 -0.332769 -2.790607
11 37.914181 -0.000000 0.000003 -0.480195 -1.477981 0.612229
12 41.189339 0.000000 0.000001 0.749459 -0.843603 0.129988
13 38.433601 0.000000 0.000003 0.301898 0.004756 0.242527
14 50.464237 0.000233 0.000012 -0.442197 0.359173 -0.573278
15 45.892948 -0.000010 -0.000015 -0.575236 0.188258 -0.982777
16 48.363575 -0.000019 0.000011 -0.345418 0.274154 -0.786284
17 -19.398706 5.667192 -14.683264 -1.899894 -0.038632 2.998340
18 43.390297 -0.000000 0.000004 1.454233 1.324963 1.402363
19 47.998001 0.000001 -0.000000 -0.526644 0.737177 0.256009
20 50.517662 -0.000001 0.000006 -0.591077 -0.125174 0.521069
21 41.400932 0.000001 0.000003 -0.818729 -0.886646 0.447277
22 66.751274 0.000007 0.000014 -0.830197 -1.076593 0.107555
23 0.000000 0.000000 0.000000 -2.906557 -1.523021 1.538646
24 28.766178 1.718461 -1.723014 -0.138951 0.185245 0.505813
25 -23.022903 14.851233 -16.184626 -2.894579 0.575367 1.592190
26 85.581299 0.000002 0.000006 0.000000 -0.000000 -1.351301
27 53.650089 -0.000003 0.000000 -0.000000 -0.000000 1.266346
28 33.201393 -0.000008 -0.000000 -0.187967 0.031435 -1.016993
29 21.348547 28.691185 -0.000003 -0.008283 -0.013015 1.902060
30 -28.683302 10.930212 13.382241 2.663547 -0.162783 2.797794
31 85.581329 0.000001 -0.000002 0.000000 0.000000 -1.965786
32 53.650097 -0.000005 -0.000000 0.000000 -0.000000 1.662937
33 33.201393 -0.000011 0.000000 0.047355 -0.271356 -0.063639
34 21.348555 28.691187 0.000020 -0.014479 -0.079745 2.317232
35 32.420002 -0.044513 -0.007804 0.144025 -0.239637 0.667083
36 67.583633 6.189093 0.000383 -0.028000 -0.352622 0.707290
37 -25.146988 5.662154 -24.614187 -0.133145 1.108087 2.265082
38 38.227753 -0.000001 -0.000002 1.335358 -0.188230 -0.372562
39 89.093887 0.000005 0.000000 0.000000 0.000000 -1.394465
40 59.561531 0.000000 0.000022 1.636977 -0.223283 -0.281650
41 31.086197 -3.122440 -0.002483 -0.029923 -0.208476 0.122661
42 11.272793 -0.349162 24.738407 -2.990746 -0.790401 1.767133
43 -2.924020 3.661762 35.339859 1.420133 -1.349230 1.056616
44 38.227745 -0.000011 0.000005 -0.719780 -0.197922 -0.948385
45 89.093903 0.000020 0.000001 -0.000000 -0.000000 -1.191539
46 59.561531 0.000006 -0.000013 -1.473718 0.394993 -0.234268
47 31.086197 -3.122442 0.002478 -0.075945 0.184557 -0.007660
48 11.272788 -0.349162 -24.738400 3.083703 0.805487 1.848146
49 15.788323 0.000000 -0.000000 -0.051617 0.191424 0.184222
time 2
0 0.000000 0.000000 0.000000 1.570796 -0.000000 0.000000
1 0.000000 0.000000 0.000001 0.000000 -0.000000 0.000000
2 13.817815 125.229622 -224.884033 -1.609775 -1.453599 0.038979
3 -27.514357 17.090467 22.904945 -1.850965 0.420958 2.425732
4 38.339050 0.036428 0.000000 0.180143 1.058104 -0.009771
5 40.888332 0.025434 -0.000004 -0.272174 0.719719 -0.315945
6 38.331078 0.015496 0.000006 -0.256110 0.328251 0.188798
7 49.200882 0.694504 -0.000027 0.045949 -0.135619 0.133583
8 44.835350 0.471037 0.000044 0.304180 -0.298259 0.187772
9 48.341949 0.024486 -0.000025 0.326046 -0.795485 -0.021482
10 -26.517460 -15.956991 21.321764 -1.524759 0.132702 -2.679346
11 37.914181 -0.000000 0.000003 0.060025 -0.838785 -0.701867
12 41.189339 0.000000 0.000001 1.175941 -0.993136 -0.863189
13 38.698399 0.000000 0.000003 0.654262 -0.429783 0.291394
14 50.811928 0.000233 0.000012 0.052866 0.468630 -0.180091
15 46.209141 -0.000010 -0.000015 -0.448435 0.564231 -0.368391
16 48.696789 -0.000019 0.000011 -0.491332 0.503897 -0.609412
17 -18.992861 2.573026 -14.683267 -1.807727 0.438810 3.000841
18 43.390297 -0.000000 0.000004 0.046910 1.148344 -0.532510
19 47.998001 0.000001 -0.000000 -0.583153 0.794921 -0.501055
20 50.865719 -0.000000 0.000006 -0.528550 0.408989 0.331162
21 41.686176 0.000001 0.000003 -0.624874 -0.222960 0.695879
22 67.211182 0.000007 0.000014 -1.190197 -0.588729 0.874273
23 0.000000 0.000000 0.000000 -2.588774 -1.549155 1.045438
24 28.807144 1.785942 -0.572825 -0.092935 0.076370 0.190541
25 -27.439615 5.164862 -16.404808 -2.988187 0.459583 1.800020
26 85.581284 0.000007 0.000008 0.000000 0.000000 -1.152102
27 53.650116 0.000008 -0.000009 0.000000 -0.000000 1.046184
28 33.201405 -0.000009 0.000009 -0.010867 0.016708 -1.056088
29 21.348549 28.691179 -0.000008 -0.002051 -0.032133 1.902035
30 -29.747503 2.386488 13.859719 2.712968 -0.276362 2.891657
31 85.581291 0.000001 0.000018 -0.000000 0.000000 -2.099906
32 53.650127 -0.000004 -0.000001 0.000000 -0.000000 1.516320
33 33.201405 0.000019 -0.000000 0.052767 -0.262389 0.144801
34 21.348547 28.691179 -0.000001 -0.014567 -0.079694 2.147699
35 32.413479 -0.045174 -0.021357 0.378868 -0.218515 0.519564
36 67.584053 6.189604 -0.001402 0.118960 -0.363454 0.706975
37 -25.451994 1.834946 -24.889729 0.553697 1.104913 2.931813
38 38.227749 -0.000000 -0.000008 0.771668 -0.981423 0.079025
39 89.093887 0.000003 0.000000 0.000000 0.000000 -1.086541
40 59.561531 0.000016 -0.000017 1.452050 -0.255444 -0.270396
41 31.086220 -3.122442 -0.002489 0.007911 -0.099457 0.271935
42 11.272793 -0.349162 24.738407 -2.801983 -0.811796 1.241919
43 -2.523965 8.950659 34.413570 0.600624 -1.349932 1.814601
44 38.227764 -0.000001 0.000017 -0.289587 0.464960 -0.589854
45 89.093903 -0.000001 -0.000017 -0.000000 0.000000 -0.861639
46 59.561539 0.000034 0.000000 -1.473423 0.156754 -0.235226
47 31.086216 -3.122456 0.002524 -0.004792 0.096682 0.346295
48 11.272788 -0.349162 -24.738400 2.810227 0.720032 1.343306
49 15.788304 0.000017 -0.000000 -0.209970 0.038270 0.650414
time 3
0 0.000000 0.000000 0.000000 1.570796 -0.000000 0.000000
1 0.000000 0.000000 0.000001 0.000000 -0.000000 0.000000
2 2.333278 138.975464 -220.259766 -1.563916 -1.351970 -0.006943
3 -27.514357 17.090467 22.904945 -1.755059 0.884325 2.419962
4 38.339050 0.036428 0.000000 0.133588 0.596661 -0.273741
5 40.888332 0.025434 -0.000004 -0.254080 0.621542 -0.628356
6 38.672283 0.015635 0.000006 -0.302680 0.541817 -0.157317
7 49.638847 0.700684 -0.000027 -0.035863 0.300791 -0.024374
8 45.234455 0.475228 0.000044 0.154865 0.036947 0.347922
9 48.772270 0.024703 -0.000025 0.209298 -0.116717 0.517979
10 -26.517460 -15.956991 21.321764 -1.442705 0.584774 -2.594910
11 37.914181 -0.000000 0.000003 -0.275022 -0.148175 -0.598816
12 41.189339 0.000000 0.000001 0.733190 -0.595216 -1.234519
13 39.042881 0.000000 0.000003 1.107227 -0.883784 -0.529804
14 51.264233 0.000239 0.000013 0.296522 -0.220175 0.092450
15 46.620476 -0.000009 -0.000015 0.063088 0.614709 0.222419
16 49.130268 -0.000019 0.000011 -0.096721 0.699482 0.269551
17 -18.587015 -0.521141 -14.683265 -1.719373 0.902178 3.001950
18 43.390297 -0.000000 0.000004 0.151701 0.663011 -0.537917
19 47.998001 0.000001 -0.000000 -0.338712 0.633058 -0.725623
20 51.318501 -0.000000 0.000006 -0.485007 0.583793 -0.190786
21 42.057251 0.000001 0.000003 -0.369694 0.270623 0.477001
22 67.809471 0.000007 0.000014 -0.765312 -0.085108 0.892017
23 0.000000 0.000000 0.000000 -2.697083 -1.545462 1.178998
24 28.796305 1.796791 -0.751585 -0.177234 0.013428 -0.033725
25 -28.541422 -0.261386 -15.105634 -2.991541 0.404211 2.170453
26 85.581291 0.000007 -0.000008 -0.000000 -0.000000 -1.108138
27 53.650108 0.000016 0.000008 -0.000000 -0.000000 0.913717
28 33.201405 -0.000002 -0.000008 0.043561 0.094816 -0.860841
29 21.348547 28.691174 0.000008 -0.003777 -0.093614 1.902161
30 -28.896524 -5.707338 14.890257 2.780139 -0.417575 3.045089
31 85.581314 0.000005 0.000003 -0.000000 0.000000 -1.799794
32 53.650112 -0.000013 -0.000019 -0.000000 -0.000000 1.078002
33 33.201405 0.000018 0.000018 0.093383 -0.323876 0.218098
34 21.348549 28.691185 -0.000002 -0.015765 -0.078776 2.110436
35 32.402493 -0.046799 -0.029564 0.519223 -0.108095 0.342575
36 67.585083 6.190799 -0.002043 0.169764 -0.394013 0.816294
37 -25.542702 2.049233 -24.781555 0.961016 1.113398 -3.059018
38 38.227741 0.000018 -0.000003 -0.373585 -0.889111 1.489450
39 89.093903 0.000005 -0.000016 -0.000000 0.000000 -1.043326
40 59.561523 -0.000004 -0.000013 1.383940 -0.089214 -0.148495
41 31.086205 -3.122439 -0.002476 0.060917 -0.000689 0.416833
42 11.272793 -0.349162 24.738407 -2.631558 -0.781626 0.769527
43 -1.056435 12.366535 33.419266 0.052736 -1.286548 2.211833
44 38.227764 0.000005 -0.000001 0.366038 0.425146 0.087879
45 89.093948 0.000001 0.000000 -0.000000 0.000000 -0.573339
46 59.561554 0.000029 -0.000001 -1.466875 -0.058277 -0.259473
47 31.086193 -3.122439 0.002451 0.021770 -0.002863 0.660696
48 11.272788 -0.349162 -24.738400 2.644805 0.584281 0.960658
49 15.788318 -0.000001 0.000015 -0.024889 0.115648 0.770772
time 4
0 0.000000 0.000000 0.000000 1.570796 -0.000000 0.000000
1 0.000000 0.000000 0.000001 0.000000 -0.000000 0.000000
2 6.356430 153.435043 -211.786377 -1.575359 -1.358639 0.004678
3 -27.514357 17.090467 22.904945 -1.695678 1.005507 2.423470
4 38.339050 0.036428 0.000000 0.093572 0.157949 -0.165084
5 40.888332 0.025434 -0.000004 -0.207467 0.447511 -0.726662
6 39.077122 0.015799 0.000006 -0.376175 0.545079 -0.498464
7 50.158489 0.708022 -0.000028 -0.259771 0.521482 -0.420423
8 45.707989 0.480204 0.000045 -0.053853 0.255438 0.236502
9 49.282837 0.024962 -0.000025 0.087665 0.119345 0.598389
10 -26.517460 -15.956991 21.321764 -1.419487 0.702375 -2.572543
11 37.914181 -0.000000 0.000003 -0.200713 -0.025997 -0.224531
12 41.189339 0.000000 0.000001 0.152399 -0.354572 -0.918366
13 39.451595 0.000000 0.000003 0.898579 -0.680423 -0.965979
14 51.800888 0.000239 0.000013 0.716655 -0.771840 -0.575172
15 47.108517 -0.000009 -0.000015 0.247271 0.010426 0.286143
16 49.644585 -0.000019 0.000011 0.228772 0.452877 0.614545
17 -18.285614 -2.819014 -14.683265 -1.668266 1.023303 3.013061
18 43.390297 -0.000000 0.000004 0.127384 0.238589 -0.401576
19 47.998001 0.000001 -0.000000 -0.192716 0.451176 -0.731886
20 51.855728 -0.000001 0.000006 -0.464069 0.527198 -0.539831
21 42.497520 0.000001 0.000003 -0.383074 0.488386 0.095496
22 68.519325 0.000007 0.000014 -0.450456 0.266838 0.740012
23 0.000000 0.000000 0.000000 -2.692520 -1.545541 1.176078
24 28.798059 1.797514 -0.746564 -0.172146 0.016441 -0.002606
25 -28.562477 0.505694 -15.073431 -2.903228 0.410434 2.375030
26 85.581299 -0.000019 0.000001 -0.000000 0.000000 -0.828893
27 53.650108 0.000009 -0.000005 -0.000000 0.000000 0.860700
28 33.201405 -0.000006 0.000003 -0.058216 0.131139 -0.881342
29 21.348555 28.691189 -0.000001 -0.005327 -0.153028 1.902408
30 -29.034931 -4.482970 15.004189 2.727573 -0.357284 3.126599
31 85.581314 -0.000011 -0.000001 -0.000000 -0.000000 -1.484206
32 53.650097 0.000001 0.000002 0.000000 -0.000000 0.886017
33 33.201397 -0.000011 -0.000012 0.101016 -0.300952 0.188573
34 21.348547 28.691196 -0.000000 -0.015682 -0.078839 2.135589
35 32.392464 -0.050428 -0.029000 0.517199 -0.076118 0.146526
36 67.586296 6.192339 -0.001075 0.096181 -0.417268 0.987338
37 -25.216850 6.636638 -24.367863 1.060705 1.027709 -3.114834
38 38.227749 -0.000001 -0.000001 -0.299418 -0.869159 1.611001
39 89.093872 0.000006 0.000003 0.000000 0.000000 -1.032173
40 59.561539 0.000014 -0.000009 1.651001 0.208915 -0.099492
41 31.086189 -3.122452 -0.002488 0.057892 -0.006557 0.407131
42 11.272793 -0.349162 24.738407 -2.640637 -0.788969 0.802786
43 1.601170 12.073030 33.565636 0.096547 -1.290961 2.014855
44 38.227760 0.000005 0.000000 0.454971 0.308322 0.154461
45 89.093903 0.000009 0.000008 -0.000000 0.000000 -0.593374
46 59.561535 0.000011 0.000002 -1.465052 -0.048379 -0.259363
47 31.086185 -3.122427 0.002518 0.018369 0.003739 0.637568
48 11.272788 -0.349162 -24.738400 2.653047 0.599640 0.987173
49 15.788304 -0.000000 0.000003 0.160364 0.167282 0.497932
time 5
0 0.000000 0.000000 0.000000 1.570796 -0.000000 0.000000
1 0.000000 0.000000 0.000001 0.000000 -0.000000 0.000000
2 4.293482 144.355072 -199.113892 -1.592618 -1.366075 0.022372
3 -27.514357 17.090467 22.904945 -1.666982 0.878718 2.440742
4 38.339050 0.036428 0.000000 0.036857 0.039588 -0.122029
5 40.888332 0.025434 -0.000004 -0.116759 0.259110 -0.575341
6 39.530670 0.015982 0.000006 -0.337997 0.419962 -0.547462
7 50.740650 0.716238 -0.000028 -0.391926 0.476400 -0.740449
8 46.238503 0.485776 0.000045 -0.244550 0.360916 -0.009434
9 49.854839 0.025251 -0.000026 -0.089450 0.238961 0.551890
10 -26.517460 -15.956991 21.321764 -1.427815 0.576096 -2.591040
11 37.914181 -0.000000 0.000003 -0.132734 0.113174 -0.079364
12 41.189339 0.000000 0.000001 0.067655 -0.260003 -0.666756
13 39.909489 0.000000 0.000003 0.595396 -0.543325 -0.890524
14 52.402115 0.000244 0.000013 0.876535 -0.624819 -1.078601
15 47.655285 -0.000008 -0.000015 0.428938 -0.382364 -0.092772
16 50.220783 -0.000020 0.000011 0.321239 0.114795 0.528314
17 -18.300535 -2.705258 -14.683265 -1.644919 0.896269 3.031129
18 43.390297 -0.000000 0.000004 0.067891 0.157898 -0.328620
19 47.998001 0.000001 -0.000000 -0.063134 0.262941 -0.557665
20 52.457584 0.000000 0.000007 -0.343131 0.384110 -0.582079
21 42.990772 0.000001 0.000003 -0.408465 0.472203 -0.192821
22 69.314598 0.000007 0.000014 -0.334697 0.468103 0.513838
23 0.000000 0.000000 0.000000 -2.687335 -1.545796 1.166645
24 28.800482 1.798551 -0.744110 -0.266103 0.048084 0.107690
25 -28.081036 5.497446 -14.951674 -3.001381 0.388014 2.160678
26 85.581291 -0.000002 -0.000008 -0.000000 0.000000 -1.201348
27 53.650108 -0.000003 -0.000006 -0.000000 0.000000 1.172183
28 33.201401 -0.000003 -0.000001 -0.110920 0.137037 -0.880480
29 21.348549 28.691179 -0.000001 -0.006110 -0.188390 1.902535
30 -29.566513 -2.532961 14.414819 2.597308 -0.367684 -3.113382
31 85.581329 0.000017 0.000016 -0.000000 -0.000000 -1.521894
32 53.650093 -0.000013 -0.000016 0.000000 -0.000000 0.997806
33 33.201397 0.000015 -0.000001 0.108508 -0.373016 0.159540
34 21.348539 28.691193 0.000003 -0.015682 -0.078839 2.150200
35 32.394783 -0.051535 -0.025641 0.454666 -0.156901 0.177051
36 67.586067 6.191888 -0.000889 0.071262 -0.147747 0.975122
37 -17.642738 6.526119 -30.241446 0.799388 1.351659 2.950400
38 38.227749 -0.000001 0.000018 -0.222577 -1.041842 1.281361
39 89.093910 0.000001 -0.000029 0.000000 0.000000 -0.984455
40 59.561516 0.000009 0.000001 1.995015 -0.357177 -0.229083
41 31.086199 -3.122454 -0.002490 -0.061997 -0.191344 0.185189
42 11.272793 -0.349162 24.738407 -2.883176 -0.633195 1.321686
43 -8.353745 10.948999 32.825436 -0.499587 -1.127167 2.611583
44 38.227764 -0.000000 0.000002 0.030327 0.557091 0.398568
45 89.093933 0.000021 0.000030 0.000000 0.000000 -0.998667
46 59.561535 -0.000043 -0.000030 -1.574773 0.516863 -0.169907
47 31.086197 -3.122455 0.002457 0.100290 0.190899 0.278000
48 11.272788 -0.349162 -24.738400 2.856774 0.556225 1.368202
49 15.788310 -0.000001 0.000010 0.031222 0.111141 0.082272
time 6
0 0.000000 0.000000 0.000000 1.570796 -0.000000 0.000000
1 0.000000 0.000000 0.000001 0.000000 -0.000000 0.000000
2 0.250576 135.980072 -193.708618 -1.644068 -1.368038 0.075059
3 -27.514357 17.090467 22.904945 -1.652957 0.665221 2.470215
4 38.339050 0.036428 0.000000 0.022410 0.052218 0.066982
5 40.888332 0.025434 -0.000004 -0.038369 0.128030 -0.524026
6 40.018009 0.016179 0.000006 -0.218636 0.259002 -0.535583
7 51.366184 0.725069 -0.000028 -0.384489 0.348827 -0.924578
8 46.808533 0.491763 0.000046 -0.337201 0.340555 -0.245165
9 50.469452 0.025562 -0.000026 -0.202517 0.295151 0.439611
10 -26.517460 -15.956991 21.321764 -1.440708 0.363311 -2.621644
11 37.914181 -0.000000 0.000003 -0.085423 0.146514 0.144508
12 41.189339 0.000000 0.000001 0.004585 -0.146515 -0.548430
13 40.401501 0.000000 0.000003 0.407407 -0.466013 -0.825028
14 53.048134 0.000244 0.000013 0.747443 -0.483337 -1.190240
15 48.242783 -0.000009 -0.000015 0.545371 -0.396328 -0.453401
16 50.839912 -0.000019 0.000011 0.386338 -0.102692 0.336234
17 -18.300535 -2.705258 -14.683265 -1.633735 0.682358 3.052823
18 43.390297 -0.000000 0.000004 0.046794 0.140158 -0.146981
19 47.998001 0.000001 -0.000000 0.001430 0.171777 -0.491861
20 53.104294 -0.000000 0.000007 -0.188051 0.255299 -0.562320
21 43.520763 0.000001 0.000003 -0.360156 0.347573 -0.357629
22 70.169113 0.000007 0.000015 -0.336214 0.509877 0.279102
23 0.000000 0.000000 0.000000 -2.694848 -1.545796 1.166651
24 28.801483 1.801863 -0.735390 -0.335328 0.063133 0.144276
25 -27.744354 7.791010 -14.590354 -3.064418 0.338083 2.044333
26 85.581314 -0.000003 -0.000009 0.000000 0.000000 -1.472455
27 53.650097 0.000008 -0.000008 -0.000000 0.000000 1.343811
28 33.201405 -0.000018 -0.000000 -0.131612 0.128753 -0.860409
29 21.348553 28.691189 0.000000 -0.006081 -0.199647 1.902526
30 -29.729691 -2.317136 14.102404 2.512437 -0.396380 -3.045588
31 85.581314 0.000019 -0.000001 -0.000000 -0.000000 -1.581440
32 53.650074 -0.000001 0.000017 0.000000 -0.000000 1.113819
33 33.201416 0.000017 -0.000001 0.118292 -0.441721 0.125271
34 21.348547 28.691179 0.000002 -0.015683 -0.078839 2.164363
35 32.416771 -0.044040 -0.018373 0.333179 -0.302711 0.563028
36 67.585281 6.190830 -0.000805 0.063440 0.058526 0.890269
37 -11.858484 5.382347 -33.186481 -1.142230 1.467017 1.120134
38 38.227764 -0.000018 -0.000007 0.773462 -1.180421 0.081688
39 89.093887 0.000001 0.000001 0.000000 0.000000 -0.975756
40 59.561527 0.000015 0.000000 2.428301 -0.798760 -0.630700
41 31.086216 -3.122447 -0.002483 -0.128447 -0.349074 0.023324
42 11.272793 -0.349162 24.738407 -2.976814 -0.462489 1.642210
43 -15.794936 9.399343 30.548525 -0.675157 -0.947342 2.862392
44 38.227753 0.000000 0.000018 -0.655146 1.035968 0.053043
45 89.093903 0.000002 0.000034 -0.000000 0.000000 -1.270316
46 59.561543 0.000018 -0.000033 -1.713875 0.946241 -0.171118
47 31.086214 -3.122439 0.002448 0.118786 0.348633 0.003119
48 11.272788 -0.349162 -24.738400 2.985781 0.477783 1.634837
49 15.788327 0.000016 0.000001 -0.013159 -0.000237 -0.148966
time 7
0 0.000000 0.000000 0.000000 1.570796 -0.000000 0.000000
1 0.000000 0.000000 0.000001 0.000000 -0.000000 0.000000
2 -2.829852 139.417496 -192.642456 -1.740561 -1.358655 0.173878
3 -27.514357 17.090467 22.904945 -1.647177 0.485673 2.495112
4 38.339050 0.036428 0.000000 0.023582 0.055437 0.265234
5 40.888332 0.025434 -0.000004 -0.002157 0.061400 -0.360968
6 40.523849 0.016383 0.000006 -0.108769 0.142168 -0.535856
7 52.015469 0.734233 -0.000029 -0.294192 0.230988 -1.033080
8 47.400208 0.497981 0.000047 -0.376017 0.285610 -0.451015
9 51.107403 0.025886 -0.000026 -0.279859 0.319575 0.286534
10 -26.517460 -15.956991 21.321764 -1.451658 0.184364 -2.647448
11 37.914181 -0.000000 0.000003 -0.053385 0.117260 0.360153
12 41.189339 0.000000 0.000001 -0.043050 -0.069855 -0.333833
13 40.912189 0.000000 0.000003 0.244220 -0.398485 -0.756703
14 53.718681 0.000248 0.000013 0.605334 -0.422207 -1.280963
15 48.852589 -0.000008 -0.000016 0.533563 -0.356555 -0.655103
16 51.482540 -0.000020 0.000011 0.421351 -0.182281 0.080566
17 -18.300535 -2.705258 -14.683265 -1.629298 0.502461 3.069578
18 43.390297 -0.000000 0.000004 0.039001 0.097044 0.030152
19 47.998001 0.000001 -0.000000 0.025214 0.118262 -0.350244
20 53.775543 -0.000001 0.000007 -0.082757 0.186160 -0.541490
21 44.070877 0.000001 0.000003 -0.256462 0.250373 -0.449716
22 71.056068 0.000007 0.000015 -0.325691 0.487533 0.061489
23 0.000000 0.000000 0.000000 -2.703601 -1.545796 1.166647
24 28.800631 1.807944 -0.719051 -0.326236 0.049234 0.116215
25 -28.061657 6.595047 -14.592519 -3.043855 0.323391 2.122350
26 85.581314 0.000003 -0.000000 -0.000000 0.000000 -1.441743
27 53.650120 -0.000015 0.000000 -0.000000 -0.000000 1.292993
28 33.201408 -0.000001 0.000001 -0.141043 0.113813 -0.831646
29 21.348547 28.691179 -0.000008 -0.005921 -0.204992 1.902501
30 -29.571091 -3.158193 14.251452 2.510509 -0.398478 -2.970144
31 85.581306 -0.000000 0.000018 0.000000 -0.000000 -1.521446
32 53.650112 -0.000005 -0.000012 0.000000 0.000000 1.088555
33 33.201397 0.000021 0.000017 0.127946 -0.449417 0.082935
34 21.348549 28.691202 -0.000007 -0.015682 -0.078838 2.178157
35 32.425873 -0.036883 -0.013714 0.248705 -0.307995 0.790110
36 67.584267 6.189748 -0.001147 0.091268 0.036737 0.774569
37 -13.420960 2.831684 -32.888718 -0.559821 1.514253 1.814088
38 38.227745 -0.000004 -0.000001 1.234711 -1.059052 -0.370425
39 89.093903 0.000002 -0.000002 -0.000000 -0.000000 -1.253421
40 59.561546 -0.000022 0.000000 2.490542 -0.671291 -0.604226
41 31.086203 -3.122448 -0.002481 -0.125817 -0.341245 0.031127
42 11.272793 -0.349162 24.738407 -2.973938 -0.470973 1.628130
43 -15.774055 8.633356 30.776880 -0.605458 -0.970352 2.918818
44 38.227741 -0.000012 -0.000004 -1.077435 1.029191 -0.471104
45 89.093910 0.000013 -0.000003 0.000000 0.000000 -1.272081
46 59.561527 0.000007 -0.000035 -1.892754 0.871177 -0.275359
47 31.086199 -3.122435 0.002494 0.118940 0.341105 0.016241
48 11.272788 -0.349162 -24.738400 2.980256 0.482193 1.622527
49 15.788320 0.000017 0.000001 -0.013654 -0.038002 0.251016
time 8
0 0.000000 0.000000 0.000000 1.570796 -0.000000 0.000000
1 0.000000 0.000000 0.000001 0.000000 -0.000000 0.000000
2 -5.808753 142.349274 -192.157654 -1.847261 -1.347067 0.283212
3 -27.514357 17.090467 22.904945 -1.648421 0.417471 2.504672
4 38.339050 0.036428 0.000000 0.020176 0.060784 0.237161
5 40.888332 0.025434 -0.000004 0.011271 0.023210 -0.257500
6 41.033173 0.016590 0.000006 -0.041632 0.051870 -0.421809
7 52.669228 0.743462 -0.000029 -0.180341 0.135187 -1.098869
8 47.995956 0.504239 0.000047 -0.342751 0.222013 -0.601445
9 51.749748 0.026211 -0.000026 -0.335640 0.327462 0.125152
10 -26.517460 -15.956991 21.321764 -1.455750 0.116379 -2.657245
11 37.914181 -0.000000 0.000003 -0.041353 0.097030 0.343994
12 41.189339 0.000000 0.000001 -0.054743 -0.036010 -0.186278
13 41.426392 0.000000 0.000003 0.132485 -0.348096 -0.580060
14 54.393845 0.000252 0.000013 0.468240 -0.387767 -1.341439
15 49.466595 -0.000009 -0.000016 0.474895 -0.315892 -0.793918
16 52.129601 -0.000021 0.000011 0.400538 -0.203505 -0.091059
17 -18.300535 -2.705258 -14.683265 -1.630423 0.434289 3.075144
18 43.390297 -0.000000 0.000004 0.030197 0.072072 -0.013121
19 47.998001 0.000001 -0.000000 0.033419 0.065120 -0.255513
20 54.451424 0.000000 0.000007 -0.027013 0.130600 -0.402535
21 44.624786 0.000000 0.000003 -0.153644 0.184761 -0.506201
22 71.949142 0.000007 0.000015 -0.273279 0.423386 -0.126289
23 0.000000 0.000000 0.000000 -2.713142 -1.545796 1.166650
24 28.799198 1.815174 -0.699582 -0.315913 0.030589 0.072474
25 -28.399984 5.035057 -14.568574 -3.024648 0.310004 2.214948
26 85.581284 0.000001 0.000007 0.000000 0.000000 -1.411241
27 53.650105 -0.000019 -0.000000 -0.000000 -0.000000 1.244871
28 33.201408 0.000006 0.000001 -0.146370 0.094365 -0.796057
29 21.348547 28.691185 0.000002 -0.005628 -0.206394 1.902455
30 -29.322950 -4.439164 14.392274 2.504238 -0.400614 -2.879894
31 85.581306 0.000000 0.000008 -0.000000 -0.000000 -1.465337
32 53.650085 -0.000004 -0.000008 0.000000 -0.000000 1.065114
33 33.201393 -0.000005 0.000012 0.139919 -0.458184 0.038445
34 21.348549 28.691164 -0.000005 -0.015683 -0.078838 2.191694
35 32.428040 -0.035283 -0.011505 0.207114 -0.278995 0.844620
36 67.582108 6.188121 -0.001833 0.142834 0.034068 0.569713
37 -14.378684 -2.184722 -32.546253 0.744337 1.537818 -2.962557
38 38.227749 0.000000 -0.000004 1.285482 -0.989866 -0.491562
39 89.093903 -0.000008 0.000000 0.000000 0.000000 -1.342531
40 59.561527 -0.000008 -0.000005 2.512569 -0.637080 -0.516382
41 31.086201 -3.122439 -0.002499 -0.124417 -0.336649 0.036036
42 11.272793 -0.349162 24.738407 -2.972217 -0.474603 1.621266
43 -16.637283 7.122944 30.711624 -0.494803 -0.985196 3.030298
44 38.227749 0.000002 0.000002 -1.167350 0.953574 -0.606873
45 89.093910 0.000002 0.000018 -0.000000 -0.000000 -1.260683
46 59.561531 -0.000010 -0.000036 -2.042881 0.803063 -0.350973
47 31.086212 -3.122422 0.002478 0.119025 0.337480 0.021906
48 11.272788 -0.349162 -24.738400 2.976964 0.484604 1.615302
49 15.788317 0.000013 -0.000007 -0.042726 -0.024418 0.515899
time 9
0 0.000000 0.000000 0.000000 1.570796 -0.000000 0.000000
1 0.000000 0.000000 0.000001 0.000000 -0.000000 0.000000
2 -8.755088 143.728088 -192.022675 -1.960074 -1.334038 0.398843
3 -27.514357 17.090467 22.904945 -1.655245 0.479563 2.496525
4 38.339050 0.036428 0.000000 0.013934 0.063265 0.075518
5 40.888332 0.025434 -0.000004 0.016804 -0.000560 -0.225946
6 41.531094 0.016791 0.000006 -0.001082 -0.020158 -0.288315
7 53.308350 0.752482 -0.000029 -0.083840 0.061790 -1.052263
8 48.578373 0.510360 0.000048 -0.257625 0.147758 -0.717677
9 52.377712 0.026528 -0.000027 -0.364361 0.323478 -0.021400
10 -26.517460 -15.956991 21.321764 -1.452266 0.178263 -2.648557
11 37.914181 -0.000000 0.000003 -0.040293 0.085376 0.175863
12 41.189339 0.000000 0.000001 -0.050326 -0.021759 -0.119474
13 41.929085 0.000000 0.000004 0.048919 -0.300725 -0.408888
14 55.053898 0.000252 0.000013 0.362101 -0.366140 -1.297662
15 50.066849 -0.000010 -0.000016 0.389921 -0.298003 -0.901439
16 52.762180 -0.000021 0.000011 0.349033 -0.192671 -0.220794
17 -18.300535 -2.705258 -14.683265 -1.636056 0.498083 3.068202
18 43.390297 -0.000000 0.000004 0.024899 0.055085 -0.184660
19 47.998001 0.000001 -0.000000 0.037328 0.014929 -0.224068
20 55.112175 -0.000001 0.000007 0.005537 0.066766 -0.251279
21 45.166294 0.000000 0.000004 -0.083401 0.137034 -0.442107
22 72.822220 0.000007 0.000015 -0.210863 0.361583 -0.202918
23 0.000000 0.000000 0.000000 -2.723114 -1.545796 1.166655
24 28.797407 1.823039 -0.678378 -0.303783 0.013439 0.034585
25 -28.645819 3.683067 -14.515558 -3.010567 0.298520 2.285079
26 85.581322 -0.000008 0.000000 -0.000000 0.000000 -1.406323
27 53.650120 0.000009 0.000009 0.000000 -0.000000 1.196814
28 33.201405 0.000003 -0.000009 -0.149075 0.071300 -0.754955
29 21.348551 28.691189 0.000000 -0.005193 -0.205298 1.902380
30 -29.055521 -5.435228 14.571286 2.500313 -0.408488 -2.796955
31 85.581306 0.000018 -0.000018 -0.000000 -0.000000 -1.437625
32 53.650108 -0.000007 0.000018 0.000000 0.000000 1.066404
33 33.201408 0.000002 -0.000001 0.152298 -0.465983 -0.006614
34 21.348553 28.691198 -0.000018 -0.015683 -0.078839 2.205053
35 32.416363 -0.046237 -0.012911 0.224202 -0.176544 0.596878
36 67.582741 6.188535 -0.001314 0.104187 -0.000326 0.616205
37 -15.360480 0.084612 -32.164341 0.076997 1.500800 2.603619
38 38.227753 0.000035 -0.000000 0.901928 -0.998901 -0.243937
39 89.093887 0.000019 0.000000 0.000000 -0.000000 -1.300220
40 59.561565 0.000000 0.000000 2.585814 -0.554024 -0.497229
41 31.086216 -3.122447 -0.002474 -0.123219 -0.332496 0.040613
42 11.272793 -0.349162 24.738407 -2.970939 -0.477179 1.616315
43 -15.339734 6.737773 31.463650 -0.561807 -1.017703 3.036362
44 38.227768 0.000001 0.000001 -0.792992 0.888823 -0.267994
45 89.093880 0.000008 0.000035 -0.000000 0.000000 -1.332429
46 59.561550 0.000009 0.000000 -2.209235 0.700847 -0.417892
47 31.086216 -3.122428 0.002478 0.119073 0.334873 0.025930
48 11.272788 -0.349162 -24.738400 2.973974 0.486711 1.608777
49 15.788333 -0.000002 0.000001 -0.011633 -0.032768 0.497830
time 10
0 0.000000 0.000000 0.000000 1.570796 -0.000000 0.000000
1 0.000000 0.000000 0.000001 0.000000 -0.000000 0.000000
2 -11.722009 148.297363 -192.183746 -2.077553 -1.320356 0.519220
3 -27.514357 17.090467 22.904945 -1.664231 0.588419 2.482095
4 38.339050 0.036428 0.000000 0.011899 0.056127 -0.032327
5 40.888332 0.025434 -0.000004 0.024423 -0.009807 -0.341097
6 42.002453 0.016981 0.000007 0.018167 -0.065121 -0.212382
7 53.913368 0.761022 -0.000030 -0.023136 0.013258 -0.890028
8 49.129707 0.516154 0.000048 -0.168652 0.082564 -0.772516
9 52.972168 0.026831 -0.000027 -0.326373 0.288897 -0.154743
10 -26.517460 -15.956991 21.321764 -1.446092 0.286753 -2.633255
11 37.914181 -0.000000 0.000003 -0.039401 0.083748 0.064870
12 41.189339 0.000000 0.000001 -0.038307 -0.015978 -0.229886
13 42.404957 -0.000000 0.000004 0.020232 -0.254202 -0.308122
14 55.678726 0.000259 0.000014 0.286651 -0.360510 -1.148380
15 50.635078 -0.000011 -0.000016 0.320664 -0.282965 -0.917543
16 53.360996 -0.000020 0.000012 0.294072 -0.175546 -0.325658
17 -18.300535 -2.705258 -14.683265 -1.643390 0.608728 3.056834
18 43.390297 -0.000000 0.000004 0.023929 0.041538 -0.296136
19 47.998001 0.000001 -0.000000 0.048592 -0.021869 -0.338176
20 55.737659 -0.000000 0.000007 0.024799 -0.004766 -0.181012
21 45.678902 0.000001 0.000004 -0.045896 0.101657 -0.284131
22 73.648712 0.000007 0.000015 -0.146086 0.307036 -0.158676
23 0.000000 0.000000 0.000000 -2.733107 -1.545796 1.166652
24 28.795464 1.831036 -0.656792 -0.291195 -0.013265 -0.044658
25 -28.876955 0.974228 -14.501405 -2.990367 0.280649 2.430117
26 85.581284 0.000009 0.000008 0.000000 -0.000000 -1.327878
27 53.650108 -0.000003 -0.000000 0.000000 0.000000 1.109369
28 33.201401 0.000003 -0.000009 -0.148739 0.046295 -0.711225
29 21.348549 28.691181 -0.000015 -0.004587 -0.203260 1.902267
30 -28.436884 -7.777578 14.696997 2.491660 -0.404096 -2.674989
31 85.581284 0.000013 -0.000014 0.000000 -0.000000 -1.354776
32 53.650120 0.000010 -0.000015 0.000000 0.000000 1.016306
33 33.201393 -0.000004 -0.000001 0.164845 -0.473715 -0.051641
34 21.348547 28.691189 -0.000005 -0.015683 -0.078838 2.218310
35 32.425068 -0.039441 -0.009681 0.170645 -0.178559 0.769972
36 67.582169 6.188135 -0.001319 0.102037 -0.028845 0.550908
37 -16.251795 -0.782859 -31.714321 0.199767 1.467092 2.787897
38 38.227757 -0.000014 0.000003 1.111431 -0.900278 -0.517370
39 89.093880 0.000012 -0.000014 0.000000 -0.000000 -1.239127
40 59.561543 0.000013 0.000001 2.641998 -0.470289 -0.502271
41 31.086214 -3.122444 -0.002479 -0.122195 -0.329393 0.043814
42 11.272793 -0.349162 24.738407 -2.970867 -0.479431 1.613865
43 -14.786819 5.904285 31.895086 -0.563863 -1.053050 3.100089
44 38.227745 -0.000013 -0.000002 -0.985264 0.835697 -0.521494
45 89.093887 0.000027 0.000022 0.000000 -0.000000 -1.267195
46 59.561527 0.000004 -0.000027 -2.302509 0.633753 -0.446743
47 31.086208 -3.122445 0.002490 0.118994 0.333527 0.029347
48 11.272788 -0.349162 -24.738400 2.971733 0.488384 1.603863
49 15.788320 -0.000001 0.000000 -0.022553 -0.028113 0.369603
time 11
0 0.000000 0.000000 0.000000 1.570796 -0.000000 0.000000
1 0.000000 0.000000 0.000001 0.000000 -0.000000 0.000000
2 -14.770428 151.862411 -192.443634 -2.194715 -1.306306 0.639240
3 -27.514357 17.090467 22.904945 -1.673663 0.703252 2.466773
4 38.339050 0.036428 0.000000 0.008551 0.055609 -0.127842
5 40.888332 0.025434 -0.000004 0.033710 -0.015703 -0.463959
6 42.432072 0.017155 0.000007 0.037309 -0.091637 -0.242602
7 54.464821 0.768808 -0.000030 0.018215 -0.030178 -0.732901
8 49.632225 0.521430 0.000049 -0.104114 0.054295 -0.677196
9 53.513992 0.027104 -0.000027 -0.249164 0.238601 -0.239972
10 -26.517460 -15.956991 21.321764 -1.439488 0.401199 -2.617061
11 37.914181 -0.000000 0.000003 -0.038555 0.082070 -0.034163
12 41.189339 0.000000 0.000001 -0.025758 -0.013135 -0.364770
13 42.838692 0.000000 0.000004 0.016509 -0.209675 -0.275787
14 56.248230 0.000260 0.000014 0.225486 -0.337263 -1.013122
15 51.152996 -0.000010 -0.000016 0.272485 -0.267970 -0.863814
16 53.906796 -0.000020 0.000012 0.248911 -0.169170 -0.400336
17 -18.300535 -2.705258 -14.683265 -1.650853 0.722079 3.045146
18 43.390297 -0.000000 0.000004 0.022635 0.036665 -0.389121
19 47.998001 0.000001 -0.000000 0.060639 -0.046852 -0.465973
20 56.307774 -0.000001 0.000007 0.050843 -0.071212 -0.235062
21 46.146122 0.000001 0.000004 -0.013158 0.052755 -0.199645
22 74.402023 0.000007 0.000015 -0.095012 0.254948 -0.036741
23 0.000000 0.000000 0.000000 -2.742731 -1.545796 1.166656
24 28.793566 1.838666 -0.636178 -0.277552 -0.030192 -0.088989
25 -28.908995 -0.379989 -14.412009 -2.973594 0.260868 2.531794
26 85.581299 0.000024 -0.000003 -0.000000 0.000000 -1.259966
27 53.650120 -0.000004 0.000000 -0.000000 0.000000 1.029410
28 33.201397 0.000005 -0.000009 -0.145742 0.021525 -0.668431
29 21.348549 28.691185 0.000011 -0.003816 -0.202014 1.902112
30 -28.012672 -8.717642 14.893594 2.483562 -0.404101 -2.589806
31 85.581291 0.000004 0.000001 -0.000000 0.000000 -1.282274
32 53.650127 -0.000003 0.000000 0.000000 -0.000000 0.974664
33 33.201408 0.000002 -0.000000 0.177376 -0.482198 -0.096095
34 21.348536 28.691183 -0.000001 -0.015683 -0.078838 2.231566
35 32.415836 -0.047281 -0.008984 0.151388 -0.095325 0.624306
36 67.580910 6.187420 -0.001294 0.102842 -0.069933 0.432679
37 -17.950241 -2.564785 -30.688208 0.279647 1.415128 2.980583
38 38.227753 -0.000004 0.000001 0.905173 -0.888711 -0.437093
39 89.093910 0.000025 0.000001 -0.000000 -0.000000 -1.285391
40 59.561543 -0.000008 -0.000012 2.739593 -0.313077 -0.498648
41 31.086212 -3.122440 -0.002489 -0.121283 -0.327748 0.044863
42 11.272793 -0.349162 24.738407 -2.972183 -0.481868 1.613710
43 -13.406141 3.977055 32.786686 -0.575694 -1.105671 -3.059276
44 38.227749 0.000004 0.000019 -0.784235 0.779226 -0.411430
45 89.093903 0.000007 0.000009 0.000000 0.000000 -1.315187
46 59.561527 0.000027 -0.000001 -2.456482 0.505487 -0.474529
47 31.086212 -3.122452 0.002508 0.118757 0.333313 0.032889
48 11.272788 -0.349162 -24.738400 2.970542 0.489573 1.601158
49 15.788309 -0.000001 0.000000 -0.029558 0.003612 0.395139
time 12
0 0.000000 0.000000 0.000000 1.570796 -0.000000 0.000000
1 0.000000 0.000000 0.000001 0.000000 -0.000000 0.000000
2 -17.986275 154.762619 -192.645538 -2.308808 -1.292333 0.756052
3 -27.514357 17.090467 22.904945 -1.683039 0.810072 2.452504
4 38.339050 0.036428 0.000000 0.002811 0.062488 -0.184566
5 40.888332 0.025434 -0.000004 0.039334 -0.018298 -0.560854
6 42.805061 0.017305 0.000007 0.056653 -0.107096 -0.320264
7 54.943584 0.775564 -0.000030 0.048590 -0.060734 -0.690528
8 50.068508 0.526014 0.000049 -0.056158 0.043967 -0.514439
9 53.984398 0.027343 -0.000028 -0.182749 0.203259 -0.201951
10 -26.517460 -15.956991 21.321764 -1.433331 0.507773 -2.602192
11 37.914181 -0.000000 0.000003 -0.036198 0.082176 -0.091175
12 41.189339 0.000000 0.000001 -0.013432 -0.012865 -0.490241
13 43.215256 -0.000000 0.000004 0.022706 -0.176491 -0.335877
14 56.742672 0.000262 0.000014 0.177144 -0.285183 -0.897198
15 51.602646 -0.000013 -0.000017 0.229531 -0.246784 -0.781597
16 54.380653 -0.000022 0.000012 0.209979 -0.160596 -0.412486
17 -18.300535 -2.705258 -14.683265 -1.658277 0.827450 3.033970
18 43.390297 -0.000000 0.000004 0.019710 0.039962 -0.440682
19 47.998001 0.000001 -0.000000 0.073746 -0.063293 -0.565154
20 56.802734 0.000001 0.000007 0.081390 -0.122271 -0.338667
21 46.551762 0.000001 0.000004 0.015517 -0.002308 -0.154879
22 75.056038 0.000007 0.000016 -0.053151 0.202734 0.114941
23 0.000000 0.000000 0.000000 -2.751618 -1.545796 1.166652
24 28.791922 1.845436 -0.617864 -0.264810 -0.047188 -0.140547
25 -28.907835 -2.167629 -14.354247 -2.964696 0.239805 2.631098
26 85.581306 0.000016 0.000000 0.000000 -0.000000 -1.207753
27 53.650116 0.000001 -0.000009 0.000000 0.000000 0.964403
28 33.201405 -0.000001 0.000001 -0.140060 -0.001283 -0.629489
29 21.348549 28.691172 0.000009 -0.002637 -0.201007 1.901858
30 -27.483437 -10.128402 15.038900 2.477490 -0.406838 -2.500942
31 85.581299 -0.000017 -0.000000 -0.000000 0.000000 -1.221416
32 53.650108 -0.000014 0.000017 -0.000000 -0.000000 0.939594
33 33.201412 0.000000 -0.000000 0.189985 -0.495622 -0.137840
34 21.348547 28.691198 0.000017 -0.015683 -0.078839 2.244902
35 32.417637 -0.046536 -0.006934 0.118108 -0.055722 0.643862
36 67.578949 6.186677 -0.001381 0.109587 -0.094895 0.268234
37 -18.561731 -5.346859 -29.954462 0.258719 1.372362 3.120233
38 38.227760 -0.000002 0.000002 0.933872 -0.829027 -0.568426
39 89.093903 0.000005 -0.000001 0.000000 -0.000000 -1.273479
40 59.561562 0.000033 -0.000000 2.831784 -0.170894 -0.495921
41 31.086214 -3.122438 -0.002494 -0.120531 -0.328779 0.041865
42 11.272793 -0.349162 24.738407 -2.974505 -0.484264 1.615412
43 -12.482959 1.634407 33.347450 -0.609664 -1.146150 -2.868351
44 38.227749 0.000000 0.000018 -0.787006 0.730646 -0.487081
45 89.093918 0.000020 0.000034 -0.000000 -0.000000 -1.362615
46 59.561543 0.000018 -0.000018 -2.565809 0.407967 -0.484638
47 31.086212 -3.122442 0.002455 0.118405 0.334032 0.036246
48 11.272788 -0.349162 -24.738400 2.971288 0.489920 1.602507
49 15.788312 -0.000002 0.000003 -0.046557 0.028278 0.343542
time 13
0 0.000000 0.000000 0.000000 1.570796 -0.000000 0.000000
1 0.000000 0.000000 0.000001 0.000000 -0.000000 0.000000
2 -21.422533 159.565140 -192.662384 -2.417159 -1.279250 0.866856
3 -27.514357 17.090467 22.904945 -1.692702 0.920048 2.437919
4 38.339050 0.036428 0.000000 -0.000444 0.059961 -0.175230
5 40.888332 0.025434 -0.000004 0.033654 -0.013062 -0.615611
6 43.106415 0.017428 0.000007 0.067476 -0.109772 -0.421119
7 55.330391 0.781026 -0.000031 0.072996 -0.083116 -0.720445
8 50.421001 0.529719 0.000050 -0.019714 0.022293 -0.441140
9 54.364449 0.027536 -0.000028 -0.120449 0.178314 -0.051518
10 -26.517460 -15.956991 21.321764 -1.427072 0.617550 -2.587041
11 37.914181 -0.000000 0.000003 -0.032187 0.090865 -0.070890
12 41.189339 0.000000 0.000001 -0.010020 -0.009232 -0.543915
13 43.519497 0.000000 0.000004 0.032988 -0.153346 -0.442145
14 57.142143 0.000265 0.000014 0.144100 -0.234281 -0.843188
15 51.965935 -0.000011 -0.000017 0.186880 -0.210594 -0.662360
16 54.763496 -0.000021 0.000012 0.181467 -0.141370 -0.327367
17 -18.300535 -2.705258 -14.683265 -1.666439 0.943548 3.021477
18 43.390297 -0.000000 0.000004 0.017418 0.042888 -0.423822
19 47.998001 0.000001 -0.000000 0.076192 -0.068940 -0.609871
20 57.202633 -0.000000 0.000007 0.106750 -0.156254 -0.455204
21 46.879490 0.000001 0.000004 0.044114 -0.059340 -0.174064
22 75.584442 0.000007 0.000016 -0.022340 0.143279 0.167075
23 0.000000 0.000000 0.000000 -2.759319 -1.545796 1.166654
24 28.790720 1.850878 -0.603127 -0.249539 -0.072452 -0.229786
25 -28.535875 -5.135761 -14.295690 -2.955348 0.211121 2.791645
26 85.581314 0.000020 -0.000007 -0.000000 0.000000 -1.104308
27 53.650124 -0.000015 -0.000001 0.000000 0.000000 0.880539
28 33.201408 0.000003 0.000008 -0.127171 -0.017627 -0.602456
29 21.348553 28.691181 -0.000007 -0.000563 -0.196769 1.901397
30 -26.308029 -12.640701 15.165376 2.466815 -0.399354 -2.369689
31 85.581291 0.000017 0.000000 0.000000 0.000000 -1.111284
32 53.650124 0.000007 0.000001 -0.000000 0.000000 0.864421
33 33.201393 -0.000019 -0.000001 0.201839 -0.497818 -0.174209
34 21.348557 28.691185 -0.000000 -0.015683 -0.078839 2.257082
35 32.409554 -0.051936 -0.005242 0.094493 0.009652 0.497090
36 67.578461 6.186521 -0.001184 0.093746 -0.123741 0.223463
37 -19.409954 -5.488122 -29.379713 0.171922 1.338527 3.076899
38 38.227757 -0.000018 -0.000013 0.657947 -0.886073 -0.398056
39 89.093910 0.000005 0.000013 0.000000 -0.000000 -1.385026
40 59.561543 -0.000003 0.000015 2.894367 -0.063085 -0.468181
41 31.086210 -3.122438 -0.002493 -0.120129 -0.334047 0.032645
42 11.272793 -0.349162 24.738407 -2.977536 -0.486299 1.618752
43 -11.316025 0.473798 33.797379 -0.684095 -1.170703 -2.758689
44 38.227757 0.000020 -0.000014 -0.521751 0.707650 -0.328344
45 89.093903 0.000020 -0.000001 -0.000000 0.000000 -1.378096
46 59.561531 0.000028 0.000016 -2.673517 0.304713 -0.478620
47 31.086216 -3.122448 0.002507 0.117985 0.335578 0.039008
48 11.272788 -0.349162 -24.738400 2.975091 0.488846 1.610294
49 15.788320 -0.000002 0.000005 -0.023594 0.079674 0.409010
time 14
0 0.000000 0.000000 0.000000 1.570796 -0.000000 0.000000
1 0.000000 0.000000 0.000001 0.000000 -0.000000 0.000000
2 -24.010902 162.701263 -192.952026 -2.516101 -1.267439 0.967880
3 -27.514357 17.090467 22.904945 -1.699017 0.984270 2.429357
4 38.339050 0.036428 0.000000 -0.001760 0.047232 -0.115423
5 40.888332 0.025434 -0.000004 0.025451 -0.007609 -0.640402
6 43.320839 0.017514 0.000007 0.066021 -0.105203 -0.501959
7 55.605625 0.784911 -0.000031 0.094619 -0.103572 -0.784275
8 50.671810 0.532353 0.000050 0.010987 -0.001547 -0.396241
9 54.634880 0.027673 -0.000028 -0.073970 0.154399 0.063274
10 -26.517460 -15.956991 21.321764 -1.423362 0.680957 -2.576879
11 37.914181 -0.000000 0.000003 -0.029393 0.078266 -0.004208
12 41.189339 0.000000 0.000001 -0.012672 -0.002528 -0.559513
13 43.735977 0.000000 0.000004 0.031425 -0.135266 -0.536709
14 57.426384 0.000264 0.000014 0.122993 -0.202023 -0.901448
15 52.224426 -0.000011 -0.000017 0.147544 -0.172826 -0.559330
16 55.035908 -0.000021 0.000012 0.151102 -0.114977 -0.232854
17 -18.300535 -2.705258 -14.683265 -1.671082 1.005348 3.015205
18 43.390297 -0.000000 0.000004 0.015336 0.032090 -0.368736
19 47.998001 0.000001 -0.000000 0.068314 -0.067915 -0.626258
20 57.487175 -0.000001 0.000007 0.115489 -0.170699 -0.544632
21 47.112690 0.000000 0.000004 0.066201 -0.110227 -0.270565
22 75.960426 0.000008 0.000016 -0.000642 0.076762 0.137821
23 0.000000 0.000000 0.000000 -2.765444 -1.545796 1.166653
24 28.790379 1.853666 -0.595473 -0.227158 -0.099525 -0.241775
25 -28.742348 -5.841367 -13.662327 -2.943603 0.163112 2.872833
26 85.581291 0.000011 -0.000004 0.000000 0.000000 -1.003682
27 53.650108 0.000002 0.000005 -0.000000 0.000000 0.834409
28 33.201393 0.000004 -0.000005 -0.093344 -0.021625 -0.600583
29 21.348549 28.691191 0.000011 0.001867 -0.192565 1.900848
30 -25.883032 -12.646070 15.916443 2.472531 -0.458641 -2.363784
31 85.581291 0.000008 0.000000 -0.000000 0.000000 -1.088297
32 53.650124 -0.000006 -0.000010 -0.000000 0.000000 0.812851
33 33.201397 0.000022 -0.000001 0.255155 -0.474564 -0.295627
34 21.348549 28.691151 -0.000009 -0.015683 -0.078839 2.345650
35 32.409000 -0.052355 -0.003727 0.063936 0.072982 0.476884
36 67.578598 6.186552 -0.000590 0.042410 -0.082643 0.244558
37 -18.142666 -3.814714 -30.418344 -0.028056 1.375684 2.864201
38 38.227753 -0.000009 -0.000009 0.651435 -0.812159 -0.389200
39 89.093895 0.000014 -0.000002 0.000000 -0.000000 -1.504131
40 59.561546 0.000004 0.000021 2.900506 0.038205 -0.305601
41 31.086193 -3.122438 -0.002502 -0.119945 -0.340692 0.021638
42 11.272793 -0.349162 24.738407 -2.980899 -0.487672 1.623350
43 -12.810808 -0.847200 33.249050 -0.733178 -1.101985 -2.736429
44 38.227753 -0.000000 0.000011 -0.569955 0.632736 -0.392311
45 89.093887 0.000003 0.000001 0.000000 0.000000 -1.448321
46 59.561543 -0.000002 -0.000011 -2.722318 0.208160 -0.404513
47 31.086201 -3.122440 0.002475 0.117555 0.337757 0.040807
48 11.272788 -0.349162 -24.738400 2.979852 0.487193 1.620146
49 15.788301 0.000010 -0.000001 -0.030610 0.056546 0.278049
time 15
0 0.000000 0.000000 0.000000 1.570796 -0.000000 0.000000
1 0.000000 0.000000 0.000001 0.000000 -0.000000 0.000000
2 -26.761621 164.892792 -193.490326 -2.569700 -1.259600 1.020758
3 -27.514357 17.090467 22.904945 -1.697056 0.927878 2.437466
4 38.339050 0.036428 0.000000 0.000946 0.045967 0.060547
5 40.888332 0.025434 -0.000004 0.022938 -0.013327 -0.601112
6 43.433411 0.017560 0.000007 0.070958 -0.117072 -0.572715
7 55.750122 0.786952 -0.000031 0.112044 -0.122868 -0.894324
8 50.803486 0.533734 0.000050 0.036296 -0.027782 -0.399135
9 54.776855 0.027744 -0.000028 -0.046081 0.131040 0.129477
10 -26.517460 -15.956991 21.321764 -1.426732 0.620561 -2.577361
11 37.914181 -0.000000 0.000003 -0.019871 0.085142 0.186146
12 41.189339 0.000000 0.000001 -0.014917 -0.001053 -0.496747
13 43.849632 0.000000 0.000004 0.031760 -0.128134 -0.615626
14 57.575615 0.000263 0.000014 0.110887 -0.179647 -1.023226
15 52.360142 -0.000013 -0.000017 0.113357 -0.145031 -0.551820
16 55.178925 -0.000021 0.000012 0.117286 -0.084643 -0.151340
17 -18.300535 -2.705258 -14.683265 -1.667105 0.942756 3.024032
18 43.390297 -0.000000 0.000004 0.018096 0.042132 -0.203142
19 47.998001 0.000001 -0.000000 0.063117 -0.072067 -0.605513
20 57.636566 -0.000000 0.000007 0.127729 -0.192104 -0.624558
21 47.235115 0.000001 0.000004 0.079845 -0.148749 -0.362749
22 76.157814 0.000008 0.000016 0.016856 0.010373 0.078287
23 0.000000 0.000000 0.000000 -2.769735 -1.545796 1.166659
24 28.790903 1.853503 -0.595683 -0.209698 -0.133543 -0.197308
25 -29.383814 -5.098370 -12.538560 -2.944096 0.091430 2.886991
26 85.581284 0.000027 -0.000001 0.000000 0.000000 -0.890914
27 53.650116 -0.000007 -0.000001 0.000000 0.000000 0.821270
28 33.201405 -0.000013 0.000011 -0.044729 -0.021324 -0.612519
29 21.348549 28.691168 -0.000009 0.005377 -0.189149 1.900037
30 -25.734377 -11.374114 17.068573 2.481716 -0.548102 -2.428594
31 85.581291 0.000015 -0.000000 -0.000000 0.000000 -1.085464
32 53.650108 0.000000 0.000000 -0.000000 0.000000 0.756807
33 33.201389 0.000016 -0.000014 0.313052 -0.451161 -0.418009
34 21.348541 28.691179 -0.000018 -0.015683 -0.078839 2.449336
35 32.409298 -0.052222 -0.003112 0.050119 0.119732 0.483578
36 67.578590 6.186548 0.000151 0.000067 -0.022436 0.246650
37 -16.031187 -1.932177 -31.778940 -0.363563 1.414701 2.532576
38 38.227757 0.000001 -0.000002 0.744822 -0.727309 -0.427963
39 89.093887 0.000006 0.000010 0.000000 0.000000 -1.629633
40 59.561520 0.000007 -0.000033 2.876044 0.129390 -0.099363
41 31.086201 -3.122441 -0.002492 -0.120161 -0.349897 0.007380
42 11.272793 -0.349162 24.738407 -2.987038 -0.486317 1.635633
43 -15.046101 -2.717956 32.197838 -0.749515 -1.021171 -2.726854
44 38.227745 0.000004 -0.000001 -0.693596 0.509280 -0.506979
45 89.093910 0.000006 -0.000016 0.000000 0.000000 -1.543877
46 59.561543 0.000000 0.000001 -2.758801 0.121904 -0.316094
47 31.086191 -3.122446 0.002491 0.116739 0.348305 0.035902
48 11.272788 -0.349162 -24.738400 2.986335 0.484431 1.633743
49 15.788301 -0.000004 -0.000006 -0.018558 0.041823 0.086757
time 16
0 0.000000 0.000000 0.000000 1.570796 -0.000000 0.000000
1 0.000000 0.000000 0.000001 0.000000 -0.000000 0.000000
2 -30.338310 166.239548 -193.825592 -2.547662 -1.262249 0.996090
3 -27.514357 17.090467 22.904945 -1.687506 0.716061 2.466498
4 38.339050 0.036428 0.000000 0.007930 0.093330 0.304039
5 40.888332 0.025434 -0.000004 0.022965 -0.031114 -0.400986
6 43.429218 0.017558 0.000007 0.081614 -0.143799 -0.627231
7 55.744736 0.786875 -0.000031 0.128306 -0.143703 -1.058682
8 50.798584 0.533686 0.000050 0.048824 -0.058210 -0.509134
9 54.771564 0.027741 -0.000028 -0.027392 0.109170 0.153381
10 -26.517460 -15.956991 21.321764 -1.438964 0.397922 -2.586355
11 37.914181 -0.000000 0.000003 0.008571 0.132038 0.468229
12 41.189339 0.000000 0.000001 -0.011761 -0.010660 -0.276753
13 43.845398 -0.000000 0.000004 0.050625 -0.153164 -0.687416
14 57.570057 0.000264 0.000014 0.110473 -0.174234 -1.164464
15 52.355087 -0.000011 -0.000017 0.082902 -0.126681 -0.622560
16 55.173592 -0.000022 0.000012 0.080262 -0.052007 -0.083168
17 -18.300535 -2.705258 -14.683265 -1.655261 0.758331 3.046895
18 43.390297 -0.000000 0.000004 0.026661 0.075204 0.035565
19 47.998001 0.000001 -0.000000 0.068806 -0.094397 -0.484804
20 57.630997 -0.000001 0.000007 0.162544 -0.244839 -0.713261
21 47.230556 0.000000 0.000004 0.093689 -0.188137 -0.460046
22 76.150467 0.000008 0.000016 0.030022 -0.043386 0.007839
23 0.000000 0.000000 0.000000 -2.772502 -1.545796 1.166655
24 28.791729 1.851987 -0.599543 -0.197451 -0.164682 -0.158567
25 -30.096075 -4.394979 -11.004648 -2.947372 0.016183 2.878931
26 85.581314 0.000018 0.000008 -0.000000 0.000000 -0.905083
27 53.650105 0.000000 -0.000000 0.000000 -0.000000 0.826777
28 33.201385 0.000025 -0.000008 0.009766 -0.021368 -0.628520
29 21.348551 28.691174 0.000001 0.007506 -0.192745 1.899526
30 -25.189278 -10.336528 18.484060 2.496550 -0.646239 -2.501376
31 85.581299 -0.000004 0.000001 -0.000000 -0.000000 -1.086888
32 53.650127 0.000000 -0.000017 -0.000000 0.000000 0.694504
33 33.201397 0.000001 -0.000016 0.371074 -0.435376 -0.526045
34 21.348543 28.691196 -0.000001 -0.015683 -0.078839 2.550798
35 32.409557 -0.052113 -0.002864 0.051386 0.127266 0.490261
36 67.578629 6.186533 0.000365 -0.026451 0.030838 0.245670
37 -14.495719 -1.407939 -32.533054 -0.723428 1.441113 2.176987
38 38.227745 0.000020 -0.000002 0.860402 -0.648314 -0.501819
39 89.093925 0.000006 -0.000020 -0.000000 0.000000 -1.743593
40 59.561531 -0.000008 0.000002 2.826216 0.200182 0.063465
41 31.086224 -3.122440 -0.002492 -0.120471 -0.355271 -0.000460
42 11.272793 -0.349162 24.738407 -2.991060 -0.483918 1.645191
43 -16.570568 -3.271548 31.386814 -0.751020 -0.959359 -2.726276
44 38.227757 0.000003 -0.000000 -0.790255 0.345782 -0.562388
45 89.093910 0.000007 -0.000017 0.000000 0.000000 -1.628758
46 59.561516 0.000000 0.000000 -2.777994 0.049478 -0.225664
47 31.086197 -3.122435 0.002475 0.116538 0.349245 0.034500
48 11.272788 -0.349162 -24.738400 2.990014 0.482570 1.641578
49 15.788301 0.000015 0.000000 0.022162 0.057571 -0.035743
time 17
0 0.000000 0.000000 0.000000 1.570796 -0.000000 0.000000
1 0.000000 0.000000 0.000001 0.000000 -0.000000 0.000000
2 -46.271225 156.393906 -191.099487 -2.356028 -1.320367 0.783127
3 -27.514357 17.090467 22.904945 -1.668189 0.490378 2.496165
4 38.339050 0.036428 0.000000 -0.009000 0.310119 0.335859
5 40.888332 0.025434 -0.000004 -0.004125 -0.024268 -0.086791
6 43.292965 0.017503 0.000007 0.093091 -0.251453 -0.426643
7 55.569847 0.784405 -0.000031 0.194935 -0.219043 -1.168919
8 50.639206 0.532009 0.000050 0.069870 -0.106398 -0.707011
9 54.599724 0.027655 -0.000028 -0.021647 0.092030 0.047845
10 -26.517460 -15.956991 21.321764 -1.451626 0.172468 -2.616965
11 37.914181 -0.000000 0.000003 0.079433 0.321434 0.662921
12 41.189339 0.000000 0.000001 -0.043416 -0.045724 0.038717
13 43.707840 0.000000 0.000004 0.090248 -0.285178 -0.635786
14 57.389435 0.000267 0.000014 0.152807 -0.236465 -1.344147
15 52.190830 -0.000012 -0.000017 0.042455 -0.136841 -0.738476
16 55.000496 -0.000021 0.000012 0.032814 -0.016040 -0.078975
17 -18.300535 -2.705258 -14.683265 -1.641143 0.554582 3.068937
18 43.390297 -0.000000 0.000004 0.061775 0.307477 0.237354
19 47.998001 0.000001 -0.000000 0.046525 -0.145083 -0.201815
20 57.450188 -0.000000 0.000007 0.234712 -0.415180 -0.696556
21 47.082375 0.000001 0.000004 0.135046 -0.279690 -0.608208
22 75.911545 0.000008 0.000016 0.037709 -0.101228 -0.130947
23 0.000000 0.000000 0.000000 -2.774304 -1.545796 1.166657
24 28.792233 1.850843 -0.602521 -0.206343 -0.177779 -0.161728
25 -30.364969 -4.283722 -10.318091 -2.953879 -0.116814 2.684637
26 85.581291 0.000011 -0.000001 0.000000 0.000000 -1.259768
27 53.650116 -0.000002 -0.000003 0.000000 0.000000 1.003440
28 33.201397 0.000000 -0.000002 0.025388 -0.100851 -0.557368
29 21.348555 28.691195 0.000000 0.025570 -0.193399 1.872410
30 -24.780075 -10.368353 19.028006 2.574989 -0.850992 -2.616238
31 85.581314 0.000013 -0.000012 0.000000 -0.000000 -1.218906
32 53.650108 -0.000010 0.000001 -0.000000 -0.000000 0.743394
33 33.201393 0.000001 -0.000014 0.337049 -0.317715 -0.549181
34 21.348537 28.691196 0.000002 -0.030130 0.062238 2.463361
35 32.408825 -0.051971 -0.007924 0.143159 0.055784 0.480251
36 67.578621 6.186619 -0.001328 0.118721 0.000480 0.252711
37 -15.348935 -5.633912 -31.707634 0.011353 1.446990 2.900393
38 38.227753 -0.000017 -0.000013 0.953999 -0.492868 -0.585757
39 89.093895 0.000003 0.000010 0.000000 0.000000 -1.573722
40 59.561539 -0.000017 -0.000015 2.631011 0.163915 -0.003004
41 31.086208 -3.122436 -0.002496 -0.105297 -0.251680 0.157132
42 11.272793 -0.349162 24.738407 -2.914630 -0.508124 1.482794
43 -15.785053 1.110688 31.971939 -0.619166 -1.100267 -2.821198
44 38.227753 0.000000 0.000006 -0.810536 0.178954 -0.461359
45 89.093910 0.000014 0.000023 0.000000 0.000000 -1.595038
46 59.561523 0.000001 -0.000024 -2.547201 0.201877 -0.111521
47 31.086201 -3.122423 0.002484 0.122072 0.262234 0.084742
48 11.272788 -0.349162 -24.738400 2.916532 0.510933 1.490047
49 15.788320 0.000017 -0.000002 -0.068546 0.023575 0.092677
time 18
0 0.000000 0.000000 0.000000 1.570796 -0.000000 0.000000
1 0.000000 0.000000 0.000001 0.000000 -0.000000 0.000000
2 -84.876709 126.018112 -182.785278 -1.368579 -1.375201 -0.200917
3 -27.514357 17.090467 22.904945 -1.634604 0.376072 2.485138
4 38.339050 0.036428 0.000000 -0.159617 0.489318 0.024933
5 40.888332 0.025434 -0.000004 -0.087862 0.121551 0.042344
6 43.009640 0.017389 0.000007 0.004625 -0.285020 0.033424
7 55.206173 0.779274 -0.000030 0.254331 -0.369581 -0.786181
8 50.307800 0.528530 0.000049 0.193081 -0.223593 -0.934171
9 54.242401 0.027474 -0.000028 0.009113 -0.006121 -0.279705
10 -26.517460 -15.956991 21.321764 -1.397394 0.078870 -2.769948
11 37.914181 -0.000000 0.000003 0.035715 0.675586 0.363717
12 41.189339 0.000000 0.000001 -0.171738 0.050652 0.435178
13 43.421799 0.000000 0.000004 -0.033941 -0.643187 -0.159323
14 57.013863 0.000262 0.000014 0.311174 -0.494103 -1.448922
15 51.849270 -0.000011 -0.000017 -0.012403 -0.227030 -0.935046
16 54.640553 -0.000022 0.000012 -0.051849 0.023002 -0.211569
17 -18.300535 -2.705258 -14.683265 -1.629340 0.376879 2.990090
18 43.390297 -0.000000 0.000004 0.037307 0.583478 0.136875
19 47.998001 0.000001 -0.000000 -0.050592 -0.040737 0.180759
20 57.074211 0.000000 0.000007 0.083315 -0.641073 -0.135082
21 46.774250 0.000001 0.000004 0.247098 -0.548780 -0.724044
22 75.414757 0.000007 0.000016 0.078582 -0.327130 -0.377225
23 0.000000 0.000000 0.000000 -2.775311 -1.545796 1.166654
24 28.792154 1.850828 -0.602614 -0.236788 -0.170416 -0.209935
25 -29.758709 -5.340256 -11.628783 -2.857819 -0.373513 2.201056
26 85.581314 -0.000001 0.000002 -0.000000 0.000000 -1.860459
27 53.650093 -0.000020 -0.000002 0.000000 -0.000000 1.184739
28 33.201389 -0.000002 -0.000003 0.014100 -0.331375 -0.404158
29 21.348553 28.691198 0.000000 0.080516 -0.002901 1.848175
30 -24.896130 -12.407017 17.663158 2.677236 -1.095800 -2.680251
31 85.581322 -0.000000 0.000001 0.000000 0.000000 -1.190665
32 53.650116 0.000008 0.000000 -0.000000 -0.000000 0.793094
33 33.201385 -0.000003 -0.000001 0.120618 -0.031432 -0.518950
34 21.348539 28.691191 0.000000 0.051818 0.257334 1.731964
35 32.407227 -0.049578 -0.019705 0.337512 -0.091593 0.435579
36 67.578987 6.188462 -0.006489 0.521315 -0.168105 0.217382
37 -20.462093 -17.434378 -23.447456 0.746249 1.213046 -2.694040
38 38.227749 0.000020 0.000017 0.907709 -0.142390 -0.701494
39 89.093880 0.000003 -0.000014 0.000000 -0.000000 -0.958237
40 59.561527 -0.000003 0.000002 2.240306 -0.174775 -0.357701
41 31.086195 -3.122449 -0.002500 0.000815 -0.003490 0.564387
42 11.272793 -0.349162 24.738407 -2.698361 -0.516721 1.041440
43 -10.116213 15.492337 30.652340 0.979115 -1.392336 1.899519
44 38.227753 0.000001 0.000014 -0.797150 0.051256 -0.140895
45 89.093910 0.000015 0.000036 0.000000 -0.000000 -1.343950
46 59.561535 -0.000014 0.000003 -1.774091 0.516161 0.264716
47 31.086205 -3.122430 0.002487 0.117574 0.055073 0.200345
48 11.272788 -0.349162 -24.738400 2.703258 0.535183 1.073839
49 15.788322 0.000012 0.000000 -0.144068 0.057172 0.667568
time 19
0 0.000000 0.000000 0.000000 1.570796 -0.000000 0.000000
1 0.000000 0.000000 0.000001 0.000000 -0.000000 0.000000
2 -128.174988 38.017189 -165.412048 0.391290 -1.280374 -0.490971
3 -27.514357 17.090467 22.904945 -1.549544 0.364003 2.354589
4 38.339050 0.036428 0.000000 0.360487 0.059794 0.577222
5 40.888332 0.025434 -0.000004 -0.069063 0.039359 0.143383
6 42.564346 0.017208 0.000007 0.000015 -0.120375 0.188547
7 54.634613 0.771202 -0.000030 0.239052 -0.217212 -0.111597
8 49.786953 0.523055 0.000049 0.259320 -0.143025 -0.153728
9 53.680817 0.027189 -0.000027 0.164034 -0.219825 -0.279512
10 -26.517460 -15.956991 21.321764 -1.068209 0.133031 2.924631
11 37.914181 -0.000000 0.000003 0.557163 0.560175 -0.013579
12 41.189339 0.000000 0.000001 -0.047996 0.108369 0.081170
13 42.972240 0.000001 0.000004 0.136160 -0.452499 0.612786
14 56.423580 0.000262 0.000014 0.388309 -0.852866 -0.367794
15 51.312462 -0.000013 -0.000016 0.283306 -0.467876 -1.161285
16 54.074848 -0.000021 0.000012 -0.101717 -0.029220 -0.567820
17 -18.300535 -2.705258 -14.683265 -1.605907 0.304616 2.496752
18 43.390297 -0.000000 0.000004 0.629585 -0.210324 0.281362
19 47.998001 0.000001 -0.000000 0.131301 -0.061589 0.379646
20 56.483307 -0.000000 0.000007 0.093332 -0.286484 0.395669
21 46.289986 0.000000 0.000004 0.153965 -0.554616 -0.116487
22 74.633972 0.000007 0.000015 0.146333 -0.716854 -0.354928
23 0.000000 0.000000 0.000000 -2.775640 -1.545796 1.166657
24 28.791891 1.850973 -0.602352 -0.274137 -0.450733 -0.151207
25 -31.746454 -5.692743 -2.537214 -2.653826 -0.542316 1.880121
26 85.581291 0.000001 -0.000001 -0.000000 -0.000000 -1.908558
27 53.650108 0.000000 0.000000 0.000000 -0.000000 1.009247
28 33.201408 -0.000001 0.000001 0.073969 -0.326582 -0.712897
29 21.348549 28.691193 0.000001 -0.000128 0.011148 1.815667
30 -18.466320 -13.121346 23.878853 2.540624 -0.227832 -2.885819
31 85.581322 0.000001 -0.000004 -0.000000 0.000000 -0.849800
32 53.650089 -0.000018 0.000000 0.000000 0.000000 0.789006
33 33.201401 -0.000016 -0.000001 -0.145799 -0.029681 -0.970817
34 21.348541 28.691189 0.000000 0.061703 0.079142 1.554425
35 32.406773 -0.048080 -0.023602 0.470625 -0.491167 0.238287
36 67.577377 6.186568 -0.002422 0.221173 -0.494362 0.043253
37 -28.161953 -9.946764 -19.447624 -0.932979 0.629705 1.856138
38 38.227749 -0.000000 -0.000017 0.552266 0.283025 -0.658160
39 89.093941 0.000001 0.000000 0.000000 0.000000 -0.734329
40 59.561543 0.000009 0.000000 1.790189 -0.346324 -0.471261
41 31.086199 -3.122445 -0.002486 -0.142854 0.006271 0.479394
42 11.272793 -0.349162 24.738407 -2.614859 -0.497113 0.867487
43 2.192204 2.407182 35.495892 2.651389 -1.080338 0.390159
44 38.227757 -0.000017 -0.000008 -0.186604 0.345362 -0.079359
45 89.093887 0.000037 0.000009 -0.000000 -0.000000 -0.665563
46 59.561531 -0.000000 -0.000026 -1.432324 -0.551219 -0.038915
47 31.086216 -3.122456 0.002483 0.108809 -0.029603 0.247834
48 11.272788 -0.349162 -24.738400 2.617956 0.523200 0.907564
49 15.788314 0.000017 0.000000 0.418001 -0.540597 0.252709
end
