version 1
nodes
0 "b_046" -1
1 "S_GC" 0
2 "Bip001" 1
3 "Bone007(mirrored)" 2
4 "Bone008(mirrored)" 3
5 "Bone009(mirrored)" 4
6 "Bone010(mirrored)" 5
7 "Bone011(mirrored)" 6
8 "Bone012(mirrored)" 7
9 "Bone013(mirrored)" 8
10 "Bone007" 2
11 "Bone008" 10
12 "Bone009" 11
13 "Bone010" 12
14 "Bone011" 13
15 "Bone012" 14
16 "Bone013" 15
17 "Bone001" 2
18 "Bone002" 17
19 "Bone003" 18
20 "Bone004" 19
21 "Bone005" 20
22 "Bone006" 21
23 "Bip001 Pelvis" 2
24 "Bip001 Spine" 23
25 "Bip001 R Thigh" 24
26 "Bip001 R Calf" 25
27 "Bip001 R HorseLink" 26
28 "Bip001 R Foot" 27
29 "Bip001 R Toe0" 28
30 "Bip001 L Thigh" 24
31 "Bip001 L Calf" 30
32 "Bip001 L HorseLink" 31
33 "Bip001 L Foot" 32
34 "Bip001 L Toe0" 33
35 "Bip001 Spine1" 24
36 "Bip001 Neck" 35
37 "Bip001 R Clavicle" 36
38 "Bip001 R UpperArm" 37
39 "Bip001 R Forearm" 38
40 "Bip001 R Hand" 39
41 "Bip001 R Finger1" 40
42 "Bip001 R Finger0" 40
43 "Bip001 L Clavicle" 36
44 "Bip001 L UpperArm" 43
45 "Bip001 L Forearm" 44
46 "Bip001 L Hand" 45
47 "Bip001 L Finger1" 46
48 "Bip001 L Finger0" 46
49 "Bip001 Head" 36
end
skeleton
time 0
0 0.000000 0.000000 0.000000 1.570796 -0.000000 0.000000
1 0.000000 0.000000 0.000001 0.000000 -0.000000 0.000000
2 10.037288 151.662918 -0.000051 -0.000010 -1.178098 -1.570787
3 -27.514357 17.090467 22.904945 -1.674471 0.800295 2.302840
4 38.339050 0.036430 -0.000000 0.029262 -0.509280 0.003847
5 40.888321 0.025444 -0.000002 -0.016496 -0.414602 0.133221
6 37.840919 0.015301 0.000002 0.063525 -0.034357 0.305242
7 48.571732 0.685620 -0.000029 -0.181241 0.402641 -0.819566
8 44.261993 0.465028 0.000035 -0.219366 0.231479 -1.174955
9 47.723770 0.024173 -0.000002 -0.108756 0.128453 -0.489431
10 -26.517460 -15.956991 21.321764 -1.950270 0.789877 -3.127559
11 37.914181 -0.000018 0.000007 0.025248 -0.183102 -0.294538
12 41.189346 0.000000 0.000002 0.089214 -0.386557 -0.248333
13 38.203533 0.000001 0.000004 0.090927 -0.347084 0.121665
14 50.162159 0.000228 0.000007 -0.038341 0.043493 -0.336063
15 45.618252 -0.000009 0.000020 -0.327010 0.467779 -0.790977
16 48.074089 -0.000000 -0.000004 -0.305192 0.508035 -0.446616
17 -23.209875 6.711029 -14.494003 -1.850593 0.843090 2.790866
18 43.390289 -0.000008 0.000004 0.081405 -0.283775 -0.556404
19 47.998020 0.000000 0.000004 0.076436 -0.383483 -0.129606
20 50.215244 -0.000000 0.000004 0.057169 -0.310423 0.257203
21 41.153103 0.000001 0.000003 0.015930 0.212004 -0.077755
22 66.351677 -0.000004 0.000005 -0.115171 0.585173 -0.293732
23 0.000000 0.000000 0.000000 0.017812 -1.456825 -1.880052
24 28.514416 2.083226 3.972428 0.292627 -0.263486 0.022893
25 -32.625610 -4.532516 -10.079837 -3.047413 -0.016263 -2.527710
26 85.581284 0.000005 -0.000002 -0.000000 -0.000000 -1.450799
27 53.650120 -0.000002 0.000002 0.000000 -0.000000 1.259174
28 33.201397 -0.000004 0.000000 -0.292220 0.061653 -1.285019
29 21.348541 28.691179 -0.000000 0.000528 0.000826 0.885754
30 -24.545437 3.976339 18.053633 3.070490 -0.194389 1.861773
31 85.581322 0.000007 0.000002 0.000000 0.000000 -1.426763
32 53.650093 -0.000000 -0.000002 0.000000 0.000000 1.320878
33 33.201405 -0.000006 -0.000002 0.003411 0.053805 -0.543726
34 21.348549 28.691179 0.000005 0.000000 0.000000 1.740068
35 32.400829 -0.052097 -0.020327 0.351431 -0.166124 0.289847
36 67.582077 6.187991 -0.000003 0.000000 -0.000002 0.548471
37 -15.546215 2.382507 -31.987392 -1.747687 1.100543 0.822085
38 38.227757 0.000002 0.000016 1.138711 -0.853133 -0.202961
39 89.093880 -0.000006 0.000001 -0.000000 0.000000 -1.372890
40 59.561508 -0.000003 0.000016 1.459061 0.040053 0.046887
41 31.086205 -3.122445 -0.002486 -0.005195 -0.123021 0.115369
42 11.272784 -0.349144 24.738405 -2.378553 -0.634228 0.828845
43 -15.546145 2.382385 31.987486 -0.921595 -1.062683 -2.834727
44 38.227760 -0.000002 0.000012 0.074036 0.900489 0.557876
45 89.093903 -0.000007 0.000014 0.000000 0.000000 -1.432508
46 59.561516 -0.000004 -0.000001 -1.300899 0.409828 -0.009774
47 31.086210 -3.122453 0.002483 0.020630 0.039412 0.258330
48 11.272810 -0.349162 -24.738411 2.687416 0.860334 1.272777
49 15.788314 0.000001 -0.000001 -0.033945 0.425971 0.284667
time 1
0 0.000000 0.000000 0.000000 1.570796 -0.000000 0.000000
1 0.000000 0.000000 0.000001 0.000000 -0.000000 0.000000
2 17.588776 147.777649 -0.000069 -0.000010 -1.178098 -1.570787
3 -27.514357 17.090467 22.904945 -1.603510 0.891295 2.411299
4 38.339050 0.036430 0.000000 0.029028 -0.378306 -0.038547
5 40.888321 0.025444 -0.000002 0.006588 -0.460567 -0.075781
6 37.840919 0.015301 0.000002 0.050135 -0.161506 0.287088
7 48.571732 0.685620 -0.000029 -0.108844 0.367711 -0.518946
8 44.261993 0.465028 0.000035 -0.301780 0.320017 -1.138873
9 47.723770 0.024173 -0.000002 -0.147876 0.182372 -0.612623
10 -26.517460 -15.956991 21.321764 -1.878708 0.831491 -3.019103
11 37.914181 -0.000018 0.000007 0.003905 -0.073848 -0.241478
12 41.189346 0.000000 0.000002 0.072693 -0.264947 -0.405467
13 38.203533 0.000001 0.000004 0.115420 -0.376917 -0.005744
14 50.162159 0.000228 0.000007 0.023915 -0.150831 -0.278111
15 45.618252 -0.000009 0.000020 -0.190719 0.403716 -0.435281
16 48.074089 -0.000000 -0.000004 -0.303872 0.623119 -0.424706
17 -23.174873 4.494063 -14.447177 -1.794869 0.949888 2.861785
18 43.390289 -0.000008 0.000004 0.041540 -0.149028 -0.624381
19 47.998020 0.000000 0.000004 0.084014 -0.314163 -0.346185
20 50.215244 -0.000000 0.000004 0.085051 -0.393588 0.130530
21 41.153103 0.000001 0.000003 0.065427 0.025793 0.122926
22 66.351677 -0.000004 0.000005 0.013711 0.481491 0.061434
23 0.000000 0.000000 0.000000 0.096841 -1.413840 -1.845380
24 28.294300 2.516209 5.137018 0.175492 -0.257024 0.037320
25 -32.746872 -3.503507 -11.714956 -3.020625 0.055628 -2.705350
26 85.581314 -0.000007 -0.000001 0.000000 0.000000 -1.767006
27 53.650101 -0.000009 -0.000000 0.000000 -0.000000 1.646575
28 33.201397 -0.000013 0.000002 -0.287451 0.173604 -1.420262
29 21.348541 28.691179 -0.000000 0.000000 0.000000 0.805354
30 -24.678890 1.539903 17.247196 3.025238 -0.152490 2.159214
31 85.581314 -0.000006 -0.000000 -0.000000 -0.000000 -1.617789
32 53.650108 -0.000005 -0.000000 -0.000000 -0.000000 1.687977
33 33.201401 0.000003 0.000001 -0.106741 0.025050 -0.698528
34 21.348553 28.691187 0.000005 -0.023258 0.000006 1.645179
35 32.408478 -0.050777 -0.014238 0.241176 -0.195421 0.436201
36 67.582085 6.187987 -0.000012 0.000000 -0.000002 0.548471
37 -15.546215 2.382507 -31.987392 -1.650955 1.198591 0.931956
38 38.227749 0.000006 -0.000001 1.249148 -0.853840 -0.358584
39 89.093887 -0.000006 0.000001 -0.000000 0.000000 -1.372153
40 59.561516 -0.000013 -0.000001 1.517855 -0.138788 -0.163153
41 31.086210 -3.122450 -0.002489 -0.016428 -0.151565 0.247608
42 11.272784 -0.349144 24.738405 -2.350332 -0.594931 0.780043
43 -15.546145 2.382385 31.987486 -0.853086 -1.135348 -2.885085
44 38.227749 -0.000012 0.000002 -0.133898 1.040917 0.367622
45 89.093918 -0.000003 -0.000013 0.000000 0.000000 -1.487731
46 59.561535 -0.000001 -0.000007 -1.264436 0.315129 0.141983
47 31.086212 -3.122449 0.002486 0.009540 -0.045549 0.132138
48 11.272810 -0.349162 -24.738411 2.769742 0.890278 1.379444
49 15.788309 0.000002 -0.000000 0.033727 0.346451 0.166383
time 2
0 0.000000 0.000000 0.000000 1.570796 -0.000000 0.000000
1 0.000000 0.000000 0.000001 0.000000 -0.000000 0.000000
2 19.856430 155.102402 -0.000080 -0.000010 -1.178098 -1.570787
3 -27.514357 17.090467 22.904945 -1.522717 0.978458 2.533749
4 38.339050 0.036430 0.000000 0.010406 -0.160341 0.028409
5 40.888321 0.025444 -0.000002 0.020417 -0.418020 -0.240690
6 37.840919 0.015301 0.000002 0.022151 -0.324000 0.100102
7 48.571732 0.685620 -0.000029 -0.064853 0.130748 -0.339834
8 44.261993 0.465028 0.000035 -0.337160 0.390467 -0.907655
9 47.723770 0.024173 -0.000002 -0.247612 0.292818 -0.704437
10 -26.517460 -15.956991 21.321764 -1.771369 0.889127 -2.856952
11 37.914181 -0.000018 0.000007 -0.000133 0.021729 -0.058492
12 41.189346 0.000000 0.000002 0.033538 -0.144863 -0.489105
13 38.203533 0.000001 0.000004 0.108582 -0.322660 -0.233784
14 50.162159 0.000228 0.000007 0.091371 -0.289716 -0.404843
15 45.618252 -0.000009 0.000020 -0.080361 0.205750 -0.164259
16 48.074089 -0.000000 -0.000004 -0.190395 0.617901 -0.136532
17 -23.137590 2.132437 -14.397293 -1.720567 1.068651 2.956527
18 43.390289 -0.000008 0.000004 0.010921 -0.019388 -0.560707
19 47.998020 0.000000 0.000004 0.057948 -0.211955 -0.533420
20 50.215244 -0.000000 0.000004 0.115671 -0.396457 -0.137286
21 41.153103 0.000001 0.000003 0.091545 -0.155130 0.157227
22 66.351677 -0.000004 0.000005 0.063277 0.254273 0.329690
23 0.000000 0.000000 0.000000 0.141517 -1.495298 -1.806954
24 28.615927 2.763961 2.532765 0.093688 -0.127122 0.033976
25 -30.731106 -3.073970 -13.732147 -2.983492 0.124640 -3.083955
26 85.581299 -0.000001 0.000000 0.000000 0.000000 -1.935998
27 53.650101 0.000002 0.000001 -0.000000 0.000000 1.893274
28 33.201401 -0.000006 0.000002 -0.211274 0.208578 -1.622438
29 21.348541 28.691179 -0.000000 0.000000 0.000000 0.826565
30 -26.835112 -0.280902 16.364906 2.923877 -0.142417 2.421020
31 85.581314 -0.000000 -0.000000 -0.000000 -0.000000 -1.735805
32 53.650105 0.000001 -0.000002 0.000000 -0.000000 1.769889
33 33.201401 0.000002 -0.000000 -0.047131 0.041599 -0.695430
34 21.348545 28.691183 -0.000003 -0.096438 -0.011277 1.749523
35 32.415714 -0.048007 -0.006507 0.119812 -0.196452 0.581141
36 67.582100 6.187988 -0.000013 0.000000 -0.000002 0.548471
37 -15.546215 2.382507 -31.987392 -1.766201 1.330635 0.824138
38 38.227753 0.000002 0.000000 1.337861 -0.861246 -0.520063
39 89.093895 -0.000004 -0.000011 -0.000000 0.000000 -1.371336
40 59.561523 0.000007 0.000001 1.568083 -0.309025 -0.229236
41 31.086214 -3.122455 -0.002491 -0.028671 -0.179007 0.378167
42 11.272784 -0.349144 24.738405 -2.329559 -0.566131 0.744184
43 -15.546145 2.382385 31.987486 -0.894983 -1.244678 -2.829283
44 38.227749 0.000001 0.000016 -0.492530 1.132683 0.042515
45 89.093910 0.000003 0.000001 0.000000 -0.000000 -1.533701
46 59.561535 -0.000003 -0.000007 -1.278380 0.254213 0.157582
47 31.086214 -3.122447 0.002489 -0.001039 -0.130156 0.016775
48 11.272810 -0.349162 -24.738411 2.842559 0.916048 1.473580
49 15.788307 0.000002 0.000000 0.090721 0.232047 0.188913
time 3
0 0.000000 0.000000 0.000000 1.570796 -0.000000 0.000000
1 0.000000 0.000000 0.000001 0.000000 -0.000000 0.000000
2 21.357897 164.305664 -0.000082 -0.000010 -1.178098 -1.570787
3 -27.514357 17.090467 22.904945 -1.436477 1.037562 2.663532
4 38.339050 0.036430 0.000000 0.016709 0.003083 0.097256
5 40.888321 0.025444 -0.000002 0.019174 -0.285693 -0.303122
6 37.840919 0.015301 0.000002 0.027879 -0.407249 -0.106221
7 48.571732 0.685620 -0.000029 -0.027109 -0.155404 -0.376121
8 44.261993 0.465028 0.000035 -0.247556 0.318592 -0.556578
9 47.723770 0.024173 -0.000002 -0.336785 0.407431 -0.649278
10 -26.517460 -15.956991 21.321764 -1.658800 0.938254 -2.687483
11 37.914181 -0.000018 0.000007 0.018109 0.082248 0.095918
12 41.189346 0.000000 0.000002 0.003294 -0.029124 -0.460564
13 38.203533 0.000001 0.000004 0.083075 -0.229496 -0.415497
14 50.162159 0.000228 0.000007 0.150645 -0.319912 -0.613626
15 45.618252 -0.000009 0.000020 -0.006232 -0.017957 -0.137293
16 48.074089 -0.000000 -0.000004 -0.080043 0.433126 0.167772
17 -23.099747 -0.264731 -14.346659 -1.624753 1.199133 3.077986
18 43.390289 -0.000008 0.000004 0.013051 0.060388 -0.475106
19 47.998020 0.000000 0.000004 0.022836 -0.102192 -0.609231
20 50.215244 -0.000000 0.000004 0.115499 -0.311837 -0.366420
21 41.153103 0.000001 0.000003 0.106004 -0.287636 0.021619
22 66.351677 -0.000004 0.000005 0.055009 0.007951 0.438289
23 0.000000 0.000000 0.000000 3.077675 -1.534253 1.618760
24 28.722054 2.716991 -0.735256 0.015905 0.023592 0.023898
25 -28.467386 -2.255746 -15.080871 -2.984402 0.190721 2.746058
26 85.581291 -0.000002 0.000000 0.000000 0.000000 -2.073571
27 53.650116 0.000001 0.000002 0.000000 0.000000 2.114490
28 33.201408 0.000002 0.000000 -0.107724 0.203651 -1.816757
29 21.348541 28.691179 -0.000000 -0.000000 0.000000 0.859901
30 -29.135853 -1.831060 15.391354 2.837788 -0.120228 2.701196
31 85.581306 -0.000002 -0.000001 -0.000000 0.000000 -1.609358
32 53.650108 0.000007 -0.000001 -0.000000 -0.000000 1.624788
33 33.201405 0.000002 -0.000001 0.014055 0.057901 -0.688783
34 21.348545 28.691177 -0.000003 -0.172834 -0.043542 1.767207
35 32.419338 -0.045774 -0.000198 0.006737 -0.162588 0.676273
36 67.582100 6.187974 -0.000010 0.000000 -0.000002 0.548471
37 -15.546215 2.382507 -31.987392 -2.097540 1.480667 0.495113
38 38.227757 -0.000016 0.000001 1.355807 -0.931577 -0.634602
39 89.093887 -0.000014 -0.000018 -0.000000 0.000000 -1.370822
40 59.561535 0.000001 -0.000016 1.584562 -0.471875 -0.169122
41 31.086210 -3.122458 -0.002493 -0.042415 -0.200300 0.495207
42 11.272784 -0.349144 24.738405 -2.320158 -0.558061 0.730247
43 -15.546145 2.382385 31.987486 -1.040348 -1.375613 -2.673692
44 38.227749 -0.000001 -0.000000 -0.885626 1.135424 -0.297445
45 89.093903 0.000003 -0.000001 0.000000 -0.000000 -1.556538
46 59.561550 -0.000000 0.000000 -1.321372 0.222421 0.069392
47 31.086216 -3.122443 0.002491 -0.011613 -0.211002 -0.085327
48 11.272810 -0.349162 -24.738411 2.896363 0.933764 1.542803
49 15.788332 -0.000016 -0.000002 0.118172 0.121111 0.220334
time 4
0 0.000000 0.000000 0.000000 1.570796 -0.000000 0.000000
1 0.000000 0.000000 0.000001 0.000000 -0.000000 0.000000
2 22.481264 173.772919 -0.000086 -0.000010 -1.178098 -1.570787
3 -27.514357 17.090467 22.904945 -1.345315 1.070766 2.800432
4 38.339050 0.036430 0.000000 0.033799 0.104108 0.182213
5 40.888321 0.025444 -0.000002 0.020170 -0.148375 -0.317383
6 37.840919 0.015301 0.000002 0.039010 -0.385366 -0.231365
7 48.571732 0.685620 -0.000029 0.056002 -0.321085 -0.554180
8 44.261993 0.465028 0.000035 -0.135525 0.099398 -0.341034
9 47.723770 0.024173 -0.000002 -0.300337 0.427112 -0.387465
10 -26.517460 -15.956991 21.321764 -1.564890 0.957630 -2.545320
11 37.914181 -0.000018 0.000007 0.036614 0.104087 0.222879
12 41.189346 0.000000 0.000002 -0.012010 0.067102 -0.392019
13 38.203533 0.000001 0.000004 0.057016 -0.134053 -0.493123
14 50.162159 0.000228 0.000007 0.182930 -0.260994 -0.833809
15 45.618252 -0.000009 0.000020 0.061971 -0.176569 -0.249926
16 48.074089 -0.000000 -0.000004 -0.037337 0.199222 0.273421
17 -23.063063 -2.588314 -14.297579 -1.518448 1.269614 -3.071595
18 43.390289 -0.000008 0.000004 0.029562 0.096746 -0.333345
19 47.998020 0.000000 0.000004 0.010072 -0.025939 -0.578878
20 50.215244 -0.000000 0.000004 0.095158 -0.206750 -0.530699
21 41.153103 0.000001 0.000003 0.121537 -0.313673 -0.163355
22 66.351677 -0.000004 0.000005 0.056100 -0.164778 0.375055
23 0.000000 0.000000 0.000000 3.055986 -1.448397 1.718442
24 28.532162 2.410672 -3.630408 -0.061651 0.144048 0.014859
25 -26.602049 -1.022026 -15.685235 -3.016806 0.228957 2.281416
26 85.581291 -0.000009 -0.000002 -0.000000 -0.000000 -2.191113
27 53.650108 -0.000009 0.000002 0.000000 -0.000000 2.246697
28 33.201393 -0.000010 -0.000001 0.005863 0.170206 -1.974952
29 21.348541 28.691179 -0.000000 -0.000000 0.000000 0.891505
30 -30.618917 -2.790829 14.387689 2.778649 -0.093021 2.954149
31 85.581299 -0.000005 -0.000001 -0.000000 -0.000000 -1.281456
32 53.650105 0.000008 0.000004 -0.000000 -0.000000 1.268445
33 33.201389 -0.000003 -0.000002 0.073546 0.077773 -0.680401
34 21.348549 28.691177 0.000000 -0.239184 -0.084852 1.813877
35 32.418709 -0.046054 0.004203 -0.082990 -0.105955 0.662835
36 67.582108 6.187991 -0.000009 0.000000 -0.000002 0.548471
37 -15.546215 2.382507 -31.987392 0.570256 1.510353 -3.121068
38 38.227757 0.000001 -0.000018 1.257763 -1.029589 -0.630489
39 89.093903 0.000006 -0.000018 -0.000000 0.000000 -1.370993
40 59.561550 0.000009 0.000000 1.560133 -0.576757 -0.094080
41 31.086203 -3.122459 -0.002494 -0.053676 -0.208855 0.569642
42 11.272784 -0.349144 24.738405 -2.325296 -0.573247 0.742861
43 -15.546145 2.382385 31.987486 -1.230501 -1.513304 -2.474103
44 38.227749 0.000019 0.000000 -1.029423 1.090798 -0.374574
45 89.093918 -0.000005 0.000018 0.000000 -0.000000 -1.549767
46 59.561523 -0.000009 0.000000 -1.358158 0.181838 -0.000126
47 31.086216 -3.122441 0.002492 -0.019801 -0.263644 -0.161817
48 11.272810 -0.349162 -24.738411 2.891884 0.928965 1.536075
49 15.788319 -0.000000 -0.000002 0.124530 0.015638 0.249124
time 5
0 0.000000 0.000000 0.000000 1.570796 -0.000000 0.000000
1 0.000000 0.000000 0.000001 0.000000 -0.000000 0.000000
2 22.588703 183.363861 -0.000090 -0.000010 -1.178098 -1.570787
3 -27.514357 17.090467 22.904945 -1.245895 1.062272 2.948962
4 38.339050 0.036430 0.000000 0.058578 0.180095 0.267517
5 40.888321 0.025444 -0.000002 0.030647 -0.028648 -0.252304
6 37.840919 0.015301 0.000002 0.052228 -0.302063 -0.298864
7 48.571732 0.685620 -0.000029 0.139387 -0.385962 -0.730073
8 44.261993 0.465028 0.000035 -0.031766 -0.071946 -0.393321
9 47.723770 0.024173 -0.000002 -0.183803 0.290699 -0.134021
10 -26.517460 -15.956991 21.321764 -1.481746 0.917908 -2.418277
11 37.914181 -0.000018 0.000007 0.056527 0.120271 0.343659
12 41.189346 0.000000 0.000002 0.003993 0.119374 -0.267325
13 38.203533 0.000001 0.000004 0.034102 -0.041222 -0.502124
14 50.162159 0.000228 0.000007 0.169044 -0.180361 -0.954092
15 45.618252 -0.000009 0.000020 0.114520 -0.198477 -0.433756
16 48.074089 -0.000000 -0.000004 -0.005150 0.006243 0.245079
17 -23.029226 -4.731699 -14.252306 -1.408153 1.197216 -2.932856
18 43.390289 -0.000008 0.000004 0.054331 0.130519 -0.150455
19 47.998020 0.000000 0.000004 0.010364 0.030800 -0.483077
20 50.215244 -0.000000 0.000004 0.077722 -0.128128 -0.617849
21 41.153103 0.000001 0.000003 0.136370 -0.278400 -0.371962
22 66.351677 -0.000004 0.000005 0.063930 -0.286946 0.207261
23 0.000000 0.000000 0.000000 3.100356 -1.428415 1.752804
24 28.346197 2.042120 -5.055760 -0.140371 0.192827 0.010957
25 -25.524073 0.408401 -16.114586 -3.065410 0.234646 1.928557
26 85.581314 0.000008 -0.000001 -0.000000 0.000000 -2.175071
27 53.650108 0.000002 -0.000001 0.000000 -0.000000 2.184040
28 33.201405 -0.000008 0.000000 0.069212 0.110459 -1.921230
29 21.348541 28.691179 -0.000000 -0.000508 0.001313 0.939890
30 -31.768780 -3.585095 13.388583 2.745058 -0.031708 -3.050773
31 85.581291 -0.000001 0.000002 0.000000 -0.000000 -0.742387
32 53.650116 0.000006 -0.000000 -0.000000 0.000000 0.764793
33 33.201385 0.000015 -0.000002 0.102682 0.118827 -0.745791
34 21.348549 28.691181 -0.000007 -0.272851 -0.086951 1.936162
35 32.415314 -0.047587 0.008658 -0.161639 -0.037780 0.595062
36 67.582077 6.187990 -0.000007 0.000000 -0.000002 0.548471
37 -15.546215 2.382507 -31.987392 0.392160 1.381191 2.977370
38 38.227749 -0.000017 0.000002 0.926183 -1.092790 -0.377979
39 89.093903 0.000002 0.000004 -0.000000 0.000000 -1.372437
40 59.561527 -0.000000 -0.000016 1.528714 -0.593771 -0.104286
41 31.086195 -3.122459 -0.002495 -0.055925 -0.200769 0.566837
42 11.272784 -0.349144 24.738405 -2.359585 -0.609417 0.796974
43 -15.546145 2.382385 31.987486 1.713511 -1.492962 0.872585
44 38.227764 -0.000001 -0.000000 -1.083490 1.030938 -0.355696
45 89.093903 -0.000006 -0.000001 0.000000 -0.000000 -1.520349
46 59.561539 0.000010 -0.000016 -1.373888 0.101215 0.030450
47 31.086214 -3.122439 0.002490 -0.021577 -0.228244 -0.165830
48 11.272810 -0.349162 -24.738411 2.795731 0.894292 1.411669
49 15.788312 0.000003 -0.000004 0.125560 -0.086714 0.278399
time 6
0 0.000000 0.000000 0.000000 1.570796 -0.000000 0.000000
1 0.000000 0.000000 0.000001 0.000000 -0.000000 0.000000
2 20.166145 193.653442 -0.000084 -0.000010 -1.178098 -1.570787
3 -27.514357 17.090467 22.904945 -1.131920 1.001696 3.118405
4 38.339050 0.036430 0.000000 0.088132 0.274344 0.337314
5 40.888321 0.025444 -0.000002 0.044604 0.086435 -0.150411
6 37.840919 0.015301 0.000002 0.060704 -0.209717 -0.307386
7 48.571732 0.685620 -0.000029 0.198980 -0.360373 -0.837693
8 44.261993 0.465028 0.000035 0.069616 -0.224674 -0.485428
9 47.723770 0.024173 -0.000002 -0.089647 0.099279 -0.039843
10 -26.517460 -15.956991 21.321764 -1.394961 0.820122 -2.284076
11 37.914181 -0.000018 0.000007 0.080142 0.164519 0.480410
12 41.189346 0.000000 0.000002 0.033210 0.152712 -0.114450
13 38.203533 0.000001 0.000004 0.026726 0.031472 -0.461363
14 50.162159 0.000228 0.000007 0.141778 -0.091300 -1.041893
15 45.618252 -0.000009 0.000020 0.159224 -0.175171 -0.637496
16 48.074089 -0.000000 -0.000004 0.038593 -0.110944 0.103202
17 -22.999916 -6.588262 -14.213090 -1.305631 1.064797 -2.802587
18 43.390289 -0.000008 0.000004 0.081576 0.202068 0.045874
19 47.998020 0.000000 0.000004 0.014713 0.088089 -0.341981
20 50.215244 -0.000000 0.000004 0.066134 -0.061177 -0.603665
21 41.153103 0.000001 0.000003 0.148639 -0.238362 -0.562798
22 66.351677 -0.000004 0.000005 0.087614 -0.362736 0.002605
23 0.000000 0.000000 0.000000 -3.089797 -1.442129 1.737233
24 28.442629 1.771421 -4.575814 -0.218172 0.204169 0.009805
25 -25.486300 2.017658 -16.511076 -3.111070 0.228712 1.668660
26 85.581284 -0.000003 0.000001 -0.000000 0.000000 -1.964985
27 53.650112 0.000006 0.000002 -0.000000 -0.000000 1.759796
28 33.201397 0.000003 0.000000 0.045692 0.041858 -1.514172
29 21.348541 28.691179 -0.000000 -0.002676 0.012316 1.250987
30 -32.169930 -4.290993 12.531498 2.778975 0.004044 -2.837253
31 85.581306 0.000006 0.000006 -0.000000 -0.000000 -0.571858
32 53.650112 -0.000007 0.000000 -0.000000 0.000000 0.667335
33 33.201397 -0.000005 -0.000007 0.042190 0.134015 -1.223108
34 21.348562 28.691187 0.000006 -0.153289 -0.072439 1.669816
35 32.411514 -0.049230 0.013048 -0.229075 0.027267 0.521826
36 67.582092 6.187990 -0.000008 0.000000 -0.000002 0.548471
37 -15.546215 2.382507 -31.987392 0.481230 1.275833 3.052617
38 38.227753 0.000001 0.000000 0.531440 -1.129065 -0.051144
39 89.093903 0.000003 0.000012 -0.000000 0.000000 -1.374938
40 59.561516 -0.000002 0.000009 1.491927 -0.583262 -0.128175
41 31.086191 -3.122457 -0.002496 -0.053964 -0.183516 0.533041
42 11.272784 -0.349144 24.738405 -2.413478 -0.657557 0.877880
43 -15.546145 2.382385 31.987486 1.601566 -1.369157 0.989459
44 38.227757 0.000007 -0.000001 -1.107047 0.965010 -0.305331
45 89.093903 -0.000007 0.000001 0.000000 -0.000000 -1.480284
46 59.561539 0.000002 0.000001 -1.387020 0.016544 0.076459
47 31.086203 -3.122440 0.002476 -0.018891 -0.152842 -0.134529
48 11.272810 -0.349162 -24.738411 2.674212 0.850060 1.254267
49 15.788316 -0.000008 -0.000004 0.125272 -0.188539 0.309267
time 7
0 0.000000 0.000000 0.000000 1.570796 -0.000000 0.000000
1 0.000000 0.000000 0.000001 0.000000 -0.000000 0.000000
2 16.198189 200.545654 -0.000071 -0.000010 -1.178098 -1.570787
3 -27.514357 17.090467 22.904945 -1.031934 0.927835 -3.014711
4 38.339050 0.036430 0.000000 0.105988 0.360960 0.348914
5 40.888321 0.025444 -0.000002 0.055612 0.195419 -0.061575
6 37.840919 0.015301 0.000002 0.061213 -0.112587 -0.233586
7 48.571732 0.685620 -0.000029 0.231227 -0.305855 -0.889716
8 44.261993 0.465028 0.000035 0.162002 -0.303835 -0.594345
9 47.723770 0.024173 -0.000002 -0.006522 -0.064902 -0.021882
10 -26.517460 -15.956991 21.321764 -1.322030 0.717762 -2.169578
11 37.914181 -0.000018 0.000007 0.104312 0.234070 0.568166
12 41.189346 0.000000 0.000002 0.055393 0.189217 0.031867
13 38.203533 0.000001 0.000004 0.039241 0.069749 -0.355037
14 50.162159 0.000228 0.000007 0.125838 -0.021427 -1.089836
15 45.618252 -0.000009 0.000020 0.180072 -0.128470 -0.795558
16 48.074089 -0.000000 -0.000004 0.086756 -0.164319 -0.064376
17 -22.976854 -8.048888 -14.182240 -1.217495 0.932118 -2.690245
18 43.390289 -0.000008 0.000004 0.109747 0.298641 0.169794
19 47.998020 0.000000 0.000004 0.020579 0.150406 -0.149438
20 50.215244 -0.000000 0.000004 0.061991 -0.004815 -0.480445
21 41.153103 0.000001 0.000003 0.159385 -0.200171 -0.688835
22 66.351677 -0.000004 0.000005 0.130739 -0.376873 -0.239856
23 0.000000 0.000000 0.000000 -2.936739 -1.481647 1.657465
24 28.653448 1.696411 -3.018981 -0.292125 0.187441 0.013517
25 -26.029192 3.619827 -16.771273 -3.133642 0.215692 1.549928
26 85.581299 0.000011 -0.000000 -0.000000 -0.000000 -1.625733
27 53.650112 0.000003 -0.000000 0.000000 -0.000000 1.183727
28 33.201397 0.000002 0.000001 -0.030072 -0.009225 -0.964369
29 21.348541 28.691179 -0.000000 -0.000965 0.024803 1.601019
30 -31.634968 -4.910632 11.842153 2.826272 0.026214 -2.652637
31 85.581314 0.000000 0.000006 -0.000000 0.000000 -0.483471
32 53.650097 0.000005 -0.000000 -0.000000 0.000000 0.613869
33 33.201401 0.000010 -0.000001 0.010014 0.132973 -1.619692
34 21.348562 28.691193 0.000004 -0.028938 -0.019616 1.375077
35 32.407600 -0.050380 0.017040 -0.283888 0.081353 0.461596
36 67.582069 6.188000 -0.000009 0.000000 -0.000002 0.548471
37 -15.546215 2.382507 -31.987392 0.691524 1.185912 -3.038156
38 38.227753 0.000012 -0.000000 0.195201 -1.093836 0.245549
39 89.093910 -0.000002 -0.000002 -0.000000 0.000000 -1.377643
40 59.561523 0.000004 0.000009 1.449167 -0.555627 -0.152572
41 31.086191 -3.122454 -0.002496 -0.047919 -0.156968 0.483041
42 11.272784 -0.349144 24.738405 -2.476068 -0.712496 0.971318
43 -15.546145 2.382385 31.987486 1.562251 -1.262166 1.028543
44 38.227741 0.000020 0.000012 -1.119473 0.898623 -0.246555
45 89.093903 -0.000005 -0.000012 -0.000000 -0.000000 -1.437268
46 59.561535 -0.000012 0.000003 -1.402210 -0.060497 0.126543
47 31.086205 -3.122425 0.002498 -0.014208 -0.070333 -0.096134
48 11.272810 -0.349162 -24.738411 2.562352 0.800732 1.106079
49 15.788328 -0.000006 -0.000000 0.122835 -0.288312 0.339612
time 8
0 0.000000 0.000000 0.000000 1.570796 -0.000000 0.000000
1 0.000000 0.000000 0.000001 0.000000 -0.000000 0.000000
2 11.271904 189.701859 -0.000059 -0.000010 -1.178098 -1.570787
3 -27.514357 17.090467 22.904945 -0.968201 0.880051 -2.918802
4 38.339050 0.036430 0.000000 0.063816 0.409837 0.141730
5 40.888321 0.025444 -0.000002 0.039959 0.351156 0.057978
6 37.840919 0.015301 0.000002 0.035600 -0.056620 -0.084942
7 48.571732 0.685620 -0.000029 0.245848 -0.293733 -0.970105
8 44.261993 0.465028 0.000035 0.218671 -0.293364 -0.689004
9 47.723770 0.024173 -0.000002 0.068066 -0.134924 -0.028342
10 -26.517460 -15.956991 21.321764 -1.275977 0.649413 -2.097004
11 37.914181 -0.000018 0.000007 0.110271 0.397099 0.465927
12 41.189346 0.000000 0.000002 0.044774 0.239348 0.227983
13 38.203533 0.000001 0.000004 0.036312 0.026754 -0.222808
14 50.162159 0.000228 0.000007 0.136179 -0.019871 -1.167461
15 45.618252 -0.000009 0.000020 0.164093 -0.069505 -0.862677
16 48.074089 -0.000000 -0.000004 0.115834 -0.134981 -0.152558
17 -22.961771 -9.004450 -14.162056 -1.143058 0.799153 -2.595127
18 43.390289 -0.000008 0.000004 0.103379 0.432658 0.053806
19 47.998020 0.000000 0.000004 0.001017 0.229601 0.050059
20 50.215244 -0.000000 0.000004 0.040912 0.007642 -0.270027
21 41.153103 0.000001 0.000003 0.171624 -0.199313 -0.746795
22 66.351677 -0.000004 0.000005 0.173562 -0.373197 -0.423153
23 0.000000 0.000000 0.000000 -2.846061 -1.542935 1.631715
24 28.770647 1.819546 -1.419840 -0.357973 0.144447 0.022636
25 -26.575230 5.148418 -16.999001 -3.087517 0.215379 1.572571
26 85.581284 0.000001 0.000001 -0.000000 -0.000000 -1.170729
27 53.650120 -0.000008 0.000005 0.000000 -0.000000 0.728525
28 33.201401 0.000007 0.000000 -0.109718 -0.057415 -0.567661
29 21.348541 28.691179 -0.000000 0.000965 0.016478 1.795807
30 -30.877483 -5.460982 11.234608 2.898540 0.035982 -2.604841
31 85.581322 0.000001 -0.000002 0.000000 0.000000 -0.762164
32 53.650112 0.000009 0.000004 -0.000000 -0.000000 0.753963
33 33.201401 -0.000001 -0.000001 0.035091 0.126988 -1.618938
34 21.348560 28.691195 0.000003 -0.002604 -0.002939 1.099682
35 32.404243 -0.050858 0.020030 -0.328087 0.126411 0.405623
36 67.582092 6.188027 -0.000009 0.000000 -0.000002 0.548471
37 -15.546215 2.382507 -31.987392 0.882684 1.107415 -2.863503
38 38.227757 0.000011 0.000002 -0.024611 -0.999223 0.458010
39 89.093895 -0.000009 0.000016 -0.000000 -0.000000 -1.382359
40 59.561527 0.000006 -0.000017 1.403161 -0.521436 -0.169483
41 31.086191 -3.122451 -0.002496 -0.038840 -0.124276 0.421773
42 11.272784 -0.349144 24.738405 -2.544464 -0.769470 1.072177
43 -15.546145 2.382385 31.987486 1.619642 -1.173482 0.963112
44 38.227749 0.000019 0.000004 -1.139420 0.837417 -0.201745
45 89.093910 -0.000003 -0.000002 -0.000000 -0.000000 -1.398996
46 59.561523 0.000023 -0.000032 -1.418949 -0.123986 0.177046
47 31.086201 -3.122452 0.002486 -0.008399 0.018166 -0.046862
48 11.272810 -0.349162 -24.738411 2.480126 0.746343 0.990008
49 15.788319 -0.000016 -0.000004 0.120978 -0.381864 0.363834
time 9
0 0.000000 0.000000 0.000000 1.570796 -0.000000 0.000000
1 0.000000 0.000000 0.000001 0.000000 -0.000000 0.000000
2 5.750707 167.657104 -0.000040 -0.000010 -1.178098 -1.570787
3 -27.514357 17.090467 22.904945 -0.937518 0.854954 -2.872812
4 38.339050 0.036430 0.000000 -0.013191 0.318420 -0.229596
5 40.888321 0.025444 -0.000002 -0.017625 0.554963 0.102885
6 37.840919 0.015301 0.000002 -0.034908 0.059870 0.164805
7 48.571732 0.685620 -0.000029 0.242887 -0.331728 -0.974329
8 44.261993 0.465028 0.000035 0.265402 -0.304091 -0.830024
9 47.723770 0.024173 -0.000002 0.136263 -0.167498 -0.041783
10 -26.517460 -15.956991 21.321764 -1.254771 0.612287 -2.063570
11 37.914181 -0.000018 0.000007 0.015343 0.549446 0.109377
12 41.189346 0.000000 0.000002 0.018008 0.368048 0.421870
13 38.203533 0.000001 0.000004 -0.035645 -0.054158 0.024001
14 50.162159 0.000228 0.000007 0.161014 -0.073012 -1.253578
15 45.618252 -0.000009 0.000020 0.143057 -0.042727 -0.957246
16 48.074089 -0.000000 -0.000004 0.124858 -0.079034 -0.207578
17 -22.956381 -9.345830 -14.154844 -1.107429 0.726505 -2.549363
18 43.390289 -0.000008 0.000004 0.012642 0.465536 -0.315043
19 47.998020 0.000000 0.000004 -0.034971 0.371243 0.185631
20 50.215244 -0.000000 0.000004 -0.026026 0.045788 0.083329
21 41.153103 0.000001 0.000003 0.160972 -0.254784 -0.713420
22 66.351677 -0.000004 0.000005 0.205863 -0.399032 -0.571733
23 0.000000 0.000000 0.000000 -1.178096 -1.570795 0.000000
24 28.787306 1.953570 -0.809160 -0.394704 0.126495 0.031311
25 -26.783052 5.934079 -16.979546 -3.007441 0.209222 1.735474
26 85.581314 0.000008 0.000000 0.000000 0.000000 -0.808731
27 53.650124 0.000009 0.000001 -0.000000 -0.000000 0.563344
28 33.201401 -0.000001 0.000001 -0.150213 -0.079880 -0.378960
29 21.348541 28.691179 -0.000000 0.000000 0.000000 1.971248
30 -30.629059 -5.694883 10.936941 2.977514 0.030322 -2.671719
31 85.581322 0.000001 -0.000003 0.000000 0.000000 -1.315196
32 53.650108 -0.000000 0.000004 -0.000000 -0.000000 1.050483
33 33.201408 0.000002 -0.000001 0.095594 0.090549 -1.407385
34 21.348560 28.691196 0.000001 -0.000959 -0.002251 0.783219
35 32.403496 -0.050848 0.021217 -0.356629 0.164915 0.362089
36 67.582108 6.187991 -0.000011 0.000000 -0.000002 0.548471
37 -15.546215 2.382507 -31.987392 0.949485 1.053301 -2.808470
38 38.227757 0.000001 -0.000018 -0.127638 -0.952109 0.563212
39 89.093887 -0.000006 0.000000 -0.000000 -0.000000 -1.392352
40 59.561543 -0.000002 0.000018 1.345951 -0.479470 -0.127524
41 31.086191 -3.122447 -0.002496 -0.027587 -0.084546 0.349439
42 11.272784 -0.349144 24.738405 -2.615632 -0.823784 1.175214
43 -15.546145 2.382385 31.987486 1.717732 -1.109394 0.854261
44 38.227757 0.000010 -0.000018 -1.153150 0.787736 -0.173182
45 89.093925 -0.000001 -0.000018 -0.000000 -0.000000 -1.373165
46 59.561516 -0.000009 0.000000 -1.431304 -0.147257 0.198143
47 31.086182 -3.122438 0.002501 -0.003059 0.111051 0.017421
48 11.272810 -0.349162 -24.738411 2.418878 0.684818 0.895152
49 15.788319 -0.000000 -0.000000 0.125999 -0.432053 0.343520
time 10
0 0.000000 0.000000 0.000000 1.570796 -0.000000 0.000000
1 0.000000 0.000000 0.000001 0.000000 -0.000000 0.000000
2 -4.319823 151.195572 -0.000013 -0.000010 -1.178098 -1.570787
3 -27.514357 17.090467 22.904945 -0.957904 0.870384 -2.903617
4 38.339050 0.036430 0.000000 -0.027315 0.206168 -0.394511
5 40.888321 0.025444 -0.000002 -0.103906 0.498697 -0.146087
6 37.840919 0.015301 0.000002 -0.073630 0.268926 0.287357
7 48.571732 0.685620 -0.000029 0.132688 -0.276383 -0.608512
8 44.261993 0.465028 0.000035 0.328730 -0.385841 -0.962574
9 47.723770 0.024173 -0.000002 0.186535 -0.274562 -0.189382
10 -26.517460 -15.956991 21.321764 -1.268127 0.636286 -2.085217
11 37.914181 -0.000018 0.000007 -0.063723 0.546470 -0.138410
12 41.189346 0.000000 0.000002 -0.003705 0.476795 0.235327
13 38.203533 0.000001 0.000004 -0.116778 -0.002652 0.283223
14 50.162159 0.000228 0.000007 0.191917 -0.220271 -1.079422
15 45.618252 -0.000009 0.000020 0.156469 -0.076066 -1.131928
16 48.074089 -0.000000 -0.000004 0.112500 -0.048411 -0.338672
17 -22.961771 -9.004450 -14.162056 -1.143058 0.799153 -2.595127
18 43.390289 -0.000008 0.000004 0.001506 0.357321 -0.540457
19 47.998020 0.000000 0.000004 -0.072394 0.401596 -0.010417
20 50.215244 -0.000000 0.000004 -0.070831 0.195930 0.305123
21 41.153103 0.000001 0.000003 0.061998 -0.271255 -0.354141
22 66.351677 -0.000004 0.000005 0.199420 -0.475025 -0.570410
23 0.000000 0.000000 0.000000 3.135854 -1.446037 1.875063
24 28.469664 2.040945 -4.288568 -0.293685 0.236584 0.047024
25 -25.103338 4.414847 -16.877985 -3.036336 0.175491 1.884885
26 85.581291 -0.000000 -0.000000 0.000000 0.000000 -1.363836
27 53.650120 0.000010 0.000001 0.000000 0.000000 1.311688
28 33.201397 0.000000 0.000002 0.021463 -0.039773 -0.558818
29 21.348541 28.691179 -0.000000 0.000056 0.005505 1.745370
30 -32.368023 -4.210058 11.431749 3.023744 -0.031925 -2.654475
31 85.581314 0.000001 0.000000 0.000000 0.000000 -1.732969
32 53.650108 -0.000002 0.000003 0.000000 -0.000000 1.414121
33 33.201385 0.000018 -0.000005 0.190746 -0.057489 -1.269609
34 21.348560 28.691196 -0.000000 -0.000458 -0.001019 0.824765
35 32.405571 -0.050235 0.019896 -0.349139 0.195644 0.368711
36 67.582108 6.188012 -0.000009 0.000000 -0.000002 0.548471
37 -15.546215 2.382507 -31.987392 0.920038 1.061476 -2.836651
38 38.227741 -0.000009 -0.000015 -0.067353 -0.983647 0.508746
39 89.093887 0.000002 0.000016 0.000000 -0.000000 -1.413622
40 59.561531 0.000011 -0.000001 1.253545 -0.382041 0.107128
41 31.086191 -3.122441 -0.002496 -0.012532 -0.029139 0.260632
42 11.272784 -0.349144 24.738405 -2.686327 -0.869306 1.274456
43 -15.546145 2.382385 31.987486 1.771424 -1.098398 0.797832
44 38.227757 -0.000008 -0.000011 -1.189298 0.769170 -0.207445
45 89.093903 -0.000006 -0.000002 -0.000000 -0.000000 -1.362902
46 59.561531 -0.000001 0.000016 -1.425852 -0.044388 0.116260
47 31.086191 -3.122442 0.002497 0.006421 0.205379 0.115247
48 11.272810 -0.349162 -24.738411 2.373673 0.629177 0.821083
49 15.788318 0.000002 0.000001 0.132928 -0.412672 0.140374
time 11
0 0.000000 0.000000 0.000000 1.570796 -0.000000 0.000000
1 0.000000 0.000000 0.000001 0.000000 -0.000000 0.000000
2 -11.967269 148.614502 0.000008 -0.000010 -1.178098 -1.570787
3 -27.514357 17.090467 22.904945 -1.035403 0.936998 -3.020272
4 38.339050 0.036430 0.000000 -0.005914 0.108562 -0.286288
5 40.888321 0.025444 -0.000002 -0.084211 0.339502 -0.393833
6 37.840919 0.015301 0.000002 -0.086832 0.373618 0.126886
7 48.571732 0.685620 -0.000029 0.039233 -0.056855 -0.327874
8 44.261993 0.465028 0.000035 0.309512 -0.437143 -0.782459
9 47.723770 0.024173 -0.000002 0.237659 -0.432916 -0.342391
10 -26.517460 -15.956991 21.321764 -1.318267 0.734761 -2.165890
11 37.914181 -0.000018 0.000007 -0.028652 0.378246 -0.118751
12 41.189346 0.000000 0.000002 -0.022012 0.534076 -0.050887
13 38.203533 0.000001 0.000004 -0.090987 0.182230 0.296265
14 50.162159 0.000228 0.000007 0.139271 -0.267591 -0.716909
15 45.618252 -0.000009 0.000020 0.237245 -0.148160 -1.205193
16 48.074089 -0.000000 -0.000004 0.124666 -0.063803 -0.507404
17 -22.976854 -8.048887 -14.182240 -1.217495 0.932118 -2.690245
18 43.390289 -0.000008 0.000004 0.036148 0.202143 -0.607116
19 47.998020 0.000000 0.000004 -0.090136 0.372661 -0.280413
20 50.215244 -0.000000 0.000004 -0.074974 0.352325 0.219659
21 41.153103 0.000001 0.000003 -0.038641 -0.144493 0.001222
22 66.351677 -0.000004 0.000005 0.106644 -0.499880 -0.272659
23 0.000000 0.000000 0.000000 3.055809 -1.390720 1.834360
24 28.163757 2.525448 -5.820858 -0.166523 0.258181 0.072571
25 -24.729429 2.239025 -16.482759 -3.007250 0.130918 2.152065
26 85.581314 0.000006 -0.000001 -0.000000 -0.000000 -1.560218
27 53.650112 -0.000001 0.000001 -0.000000 0.000000 1.665153
28 33.201401 0.000005 0.000000 0.119357 -0.016653 -0.710050
29 21.348541 28.691179 -0.000000 0.018616 0.005277 1.719086
30 -32.862408 -2.509566 12.522631 3.017874 -0.093791 -2.827722
31 85.581322 0.000010 -0.000002 -0.000000 -0.000000 -2.022207
32 53.650112 -0.000002 0.000000 0.000000 -0.000000 1.693401
33 33.201397 0.000000 -0.000001 0.223370 -0.175063 -1.269361
34 21.348558 28.691196 -0.000000 -0.000221 -0.000481 0.859179
35 32.411003 -0.048894 0.015193 -0.268818 0.209033 0.474070
36 67.582092 6.188003 -0.000008 0.000000 -0.000002 0.548471
37 -15.546215 2.382507 -31.987392 0.848102 1.131573 -2.891152
38 38.227753 -0.000012 0.000001 0.169095 -1.095649 0.276493
39 89.093903 0.000006 -0.000001 0.000000 -0.000000 -1.453505
40 59.561520 0.000004 -0.000001 1.199894 -0.241028 0.380780
41 31.086193 -3.122437 -0.002495 0.008368 0.057576 0.139161
42 11.272784 -0.349144 24.738405 -2.766427 -0.899604 1.378834
43 -15.546145 2.382385 31.987486 1.741516 -1.194444 0.839869
44 38.227764 0.000003 0.000015 -1.288853 0.785803 -0.335869
45 89.093895 -0.000001 -0.000012 -0.000000 -0.000000 -1.360383
46 59.561520 -0.000002 -0.000002 -1.423265 0.136639 0.001245
47 31.086203 -3.122449 0.002490 0.025718 0.292127 0.249326
48 11.272810 -0.349162 -24.738411 2.341600 0.590207 0.768558
49 15.788319 0.000001 0.000000 0.081842 -0.349988 0.019452
time 12
0 0.000000 0.000000 0.000000 1.570796 -0.000000 0.000000
1 0.000000 0.000000 0.000001 0.000000 -0.000000 0.000000
2 -14.535963 159.588654 0.000013 -0.000010 -1.178098 -1.570787
3 -27.514357 17.090467 22.904945 -1.141452 1.013697 3.104852
4 38.339050 0.036430 0.000000 -0.005016 0.030942 -0.052341
5 40.888321 0.025444 -0.000002 -0.021809 0.191059 -0.499724
6 37.840919 0.015301 0.000002 -0.081443 0.345401 -0.168133
7 48.571732 0.685620 -0.000029 -0.018162 0.173465 -0.360951
8 44.261993 0.465028 0.000035 0.189237 -0.323191 -0.423012
9 47.723770 0.024173 -0.000002 0.242124 -0.539010 -0.295544
10 -26.517460 -15.956991 21.321764 -1.389680 0.856897 -2.278823
11 37.914181 -0.000018 0.000007 0.007861 0.137647 0.025492
12 41.189346 0.000000 0.000002 -0.018453 0.453431 -0.282239
13 38.203533 0.000001 0.000004 -0.039836 0.373505 0.082082
14 50.162159 0.000228 0.000007 0.061353 -0.057443 -0.452468
15 45.618252 -0.000009 0.000020 0.300327 -0.207416 -1.014459
16 48.074089 -0.000000 -0.000004 0.212021 -0.151796 -0.671575
17 -22.999916 -6.588263 -14.213090 -1.305631 1.064797 -2.802587
18 43.390289 -0.000008 0.000004 0.072469 0.046374 -0.506950
19 47.998020 0.000000 0.000004 -0.060229 0.265463 -0.497635
20 50.215244 -0.000000 0.000004 -0.094632 0.413646 -0.071218
21 41.153103 0.000001 0.000003 -0.067344 0.073572 0.120915
22 66.351677 -0.000004 0.000005 -0.006444 -0.359318 0.108550
23 0.000000 0.000000 0.000000 3.028792 -1.470675 1.778796
24 28.545660 2.788747 -3.225090 -0.088494 0.141942 0.077712
25 -26.619081 0.885851 -16.054016 -2.928389 0.118553 2.409202
26 85.581314 -0.000001 0.000002 0.000000 -0.000000 -1.592900
27 53.650105 -0.000004 -0.000001 -0.000000 -0.000000 1.698290
28 33.201405 -0.000005 0.000001 0.077920 -0.026392 -0.722965
29 21.348541 28.691179 -0.000000 0.081863 0.031289 1.774458
30 -31.065691 -1.732192 13.986748 2.996349 -0.148715 3.070801
31 85.581299 0.000005 -0.000004 -0.000000 -0.000000 -2.143548
32 53.650101 0.000006 0.000001 0.000000 -0.000000 1.899636
33 33.201405 -0.000005 0.000000 0.161901 -0.204995 -1.428505
34 21.348557 28.691195 -0.000000 -0.000049 -0.000105 0.894871
35 32.416351 -0.047115 0.009288 -0.166723 0.196221 0.591435
36 67.582085 6.187989 -0.000010 0.000000 -0.000002 0.548471
37 -15.546215 2.382507 -31.987392 0.930763 1.246744 -2.792283
38 38.227753 -0.000007 0.000000 0.543580 -1.160156 -0.075294
39 89.093910 -0.000010 -0.000001 0.000000 -0.000000 -1.504078
40 59.561527 0.000007 0.000012 1.217263 -0.160483 0.460530
41 31.086195 -3.122433 -0.002495 0.019888 0.142997 0.019317
42 11.272784 -0.349144 24.738405 -2.842243 -0.918424 1.474025
43 -15.546145 2.382385 31.987486 1.411588 -1.315957 1.180019
44 38.227757 0.000020 -0.000001 -1.373840 0.816899 -0.483268
45 89.093887 -0.000003 0.000003 -0.000000 -0.000000 -1.363034
46 59.561523 0.000004 0.000012 -1.408519 0.311646 -0.009919
47 31.086214 -3.122455 0.002484 0.045603 0.277540 0.389941
48 11.272810 -0.349162 -24.738411 2.322010 0.565391 0.735807
49 15.788319 -0.000000 0.000000 -0.002417 -0.264147 0.086946
time 13
0 0.000000 0.000000 0.000000 1.570796 -0.000000 0.000000
1 0.000000 0.000000 0.000001 0.000000 -0.000000 0.000000
2 -16.424627 173.084808 0.000019 -0.000010 -1.178098 -1.570787
3 -27.514357 17.090467 22.904945 -1.242078 1.063193 2.955201
4 38.339050 0.036430 0.000000 -0.027055 -0.010221 0.128235
5 40.888321 0.025444 -0.000002 0.018470 0.069495 -0.453349
6 37.840919 0.015301 0.000002 -0.044278 0.242411 -0.365792
7 48.571732 0.685620 -0.000029 -0.083370 0.265524 -0.581360
8 44.261993 0.465028 0.000035 0.093360 -0.087323 -0.260595
9 47.723770 0.024173 -0.000002 0.165592 -0.459090 -0.058471
10 -26.517460 -15.956991 21.321764 -1.464523 0.953548 -2.395584
11 37.914181 -0.000018 0.000007 -0.001634 -0.037546 0.147932
12 41.189346 0.000000 0.000002 -0.000048 0.285164 -0.343989
13 38.203533 0.000001 0.000004 -0.034709 0.425328 -0.162581
14 50.162159 0.000228 0.000007 -0.007466 0.222619 -0.472911
15 45.618252 -0.000009 0.000020 0.222717 -0.146746 -0.654888
16 48.074089 -0.000000 -0.000004 0.301444 -0.236362 -0.674365
17 -23.029226 -4.731697 -14.252306 -1.408153 1.197216 -2.932856
18 43.390289 -0.000008 0.000004 0.068075 -0.047701 -0.401203
19 47.998020 0.000000 0.000004 -0.020090 0.140987 -0.567216
20 50.215244 -0.000000 0.000004 -0.097678 0.348822 -0.324873
21 41.153103 0.000001 0.000003 -0.081488 0.235490 0.006959
22 66.351677 -0.000004 0.000005 -0.030127 -0.107536 0.289135
23 0.000000 0.000000 0.000000 -1.553721 -1.560668 0.000000
24 28.729784 2.755086 0.075933 -0.017429 -0.002068 0.073165
25 -28.828871 -0.343887 -15.387052 -2.850631 0.106134 2.644758
26 85.581314 -0.000000 0.000001 0.000000 0.000000 -1.469653
27 53.650097 -0.000002 -0.000003 -0.000000 0.000000 1.519143
28 33.201405 -0.000005 0.000001 0.009366 -0.053501 -0.708484
29 21.348541 28.691179 -0.000000 0.153187 0.073951 1.729288
30 -28.887789 -0.828962 15.097445 3.001116 -0.202338 2.621052
31 85.581291 -0.000000 -0.000003 0.000000 0.000000 -2.226700
32 53.650108 0.000017 0.000000 0.000000 -0.000000 2.090677
33 33.201393 0.000005 -0.000002 0.074259 -0.190673 -1.605657
34 21.348555 28.691195 -0.000000 0.000020 0.000045 0.941917
35 32.418617 -0.046171 0.004002 -0.070900 0.159850 0.653372
36 67.582092 6.187992 -0.000010 0.000000 -0.000002 0.548471
37 -15.546215 2.382507 -31.987392 1.176200 1.380130 -2.534042
38 38.227745 -0.000001 0.000001 0.913194 -1.140613 -0.395223
39 89.093887 -0.000002 0.000016 0.000000 -0.000000 -1.547841
40 59.561554 0.000009 0.000002 1.265545 -0.134356 0.392926
41 31.086195 -3.122428 -0.002494 0.020910 0.216446 -0.087775
42 11.272784 -0.349144 24.738405 -2.894772 -0.932142 1.540391
43 -15.546145 2.382385 31.987486 0.790331 -1.413913 1.805386
44 38.227757 0.000021 0.000001 -1.380020 0.903833 -0.584662
45 89.093887 -0.000003 0.000002 -0.000000 -0.000000 -1.368287
46 59.561543 0.000000 0.000002 -1.370284 0.463772 0.060761
47 31.086216 -3.122458 0.002482 0.056796 0.176196 0.503644
48 11.272810 -0.349162 -24.738411 2.316541 0.554696 0.724872
49 15.788319 -0.000002 -0.000001 -0.053742 -0.164773 0.161108
time 14
0 0.000000 0.000000 0.000000 1.570796 -0.000000 0.000000
1 0.000000 0.000000 0.000001 0.000000 -0.000000 0.000000
2 -17.912222 186.213531 0.000019 -0.000010 -1.178098 -1.570787
3 -27.514357 17.090467 22.904945 -1.339226 1.088961 2.810079
4 38.339050 0.036430 0.000000 -0.044282 -0.018098 0.257871
5 40.888321 0.025444 -0.000002 0.017080 0.004510 -0.347395
6 37.840919 0.015301 0.000002 -0.007270 0.139447 -0.455895
7 48.571732 0.685620 -0.000029 -0.102422 0.233967 -0.783886
8 44.261993 0.465028 0.000035 0.012902 0.081111 -0.337907
9 47.723770 0.024173 -0.000002 0.107553 -0.255662 0.082717
10 -26.517460 -15.956991 21.321764 -1.550845 1.001205 -2.528076
11 37.914181 -0.000018 0.000007 -0.026681 -0.128824 0.260410
12 41.189346 0.000000 0.000002 -0.000036 0.135401 -0.294054
13 38.203533 0.000001 0.000004 -0.039482 0.385749 -0.326975
14 50.162159 0.000228 0.000007 -0.099841 0.356698 -0.656643
15 45.618252 -0.000009 0.000020 0.096678 0.039393 -0.444933
16 48.074089 -0.000000 -0.000004 0.266313 -0.226069 -0.456847
17 -23.063063 -2.588315 -14.297578 -1.518449 1.269614 -3.071595
18 43.390289 -0.000008 0.000004 0.049906 -0.087087 -0.262210
19 47.998020 0.000000 0.000004 -0.008114 0.058811 -0.514454
20 50.215244 -0.000000 0.000004 -0.080948 0.247490 -0.495280
21 41.153103 0.000001 0.000003 -0.101981 0.315301 -0.186772
22 66.351677 -0.000004 0.000005 -0.024586 0.125013 0.303928
23 0.000000 0.000000 0.000000 0.109002 -1.462930 -1.739798
24 28.581173 2.447580 3.205454 0.053831 -0.134919 0.065332
25 -30.890762 -1.339075 -14.273221 -2.780506 0.085029 2.871814
26 85.581314 0.000000 0.000000 0.000000 0.000000 -1.194648
27 53.650097 0.000000 -0.000004 0.000000 -0.000000 1.163142
28 33.201393 -0.000001 0.000001 -0.059988 -0.085675 -0.689486
29 21.348541 28.691179 -0.000000 0.223799 0.114173 1.702775
30 -26.800234 0.273788 15.793704 3.033652 -0.236188 2.173284
31 85.581314 0.000008 -0.000000 0.000000 0.000000 -2.286664
32 53.650097 0.000008 0.000002 -0.000000 0.000000 2.191045
33 33.201405 0.000002 0.000001 -0.016640 -0.148199 -1.752643
34 21.348555 28.691191 0.000000 -0.000000 -0.000000 0.992857
35 32.417065 -0.047493 -0.000553 0.020986 0.108140 0.619662
36 67.582123 6.187975 -0.000003 0.000000 -0.000002 0.548471
37 -15.546215 2.382507 -31.987392 1.488304 1.519929 -2.210242
38 38.227764 0.000019 -0.000000 1.063199 -1.090253 -0.469799
39 89.093880 -0.000000 0.000000 0.000000 -0.000000 -1.567293
40 59.561535 0.000000 0.000018 1.313500 -0.109156 0.305347
41 31.086199 -3.122425 -0.002493 0.019738 0.251709 -0.162061
42 11.272784 -0.349144 24.738405 -2.891884 -0.928965 1.536075
43 -15.546145 2.382385 31.987486 0.162607 -1.450957 2.430865
44 38.227749 0.000000 0.000000 -1.273346 1.020157 -0.580729
45 89.093903 -0.000001 -0.000018 -0.000000 -0.000000 -1.373572
46 59.561531 -0.000009 0.000018 -1.336470 0.552510 0.102324
47 31.086216 -3.122458 0.002481 0.056877 0.113797 0.550490
48 11.272810 -0.349162 -24.738411 2.327284 0.563926 0.740732
49 15.788319 -0.000000 -0.000001 -0.077956 -0.057519 0.227475
time 15
0 0.000000 0.000000 0.000000 1.570796 -0.000000 0.000000
1 0.000000 0.000000 0.000001 0.000000 -0.000000 0.000000
2 -17.214682 196.128174 0.000017 -0.000010 -1.178098 -1.570787
3 -27.514357 17.090467 22.904945 -1.434599 1.067230 2.667318
4 38.339050 0.036430 0.000000 -0.060702 -0.036184 0.361162
5 40.888321 0.025444 -0.000002 -0.006730 -0.027790 -0.208655
6 37.840919 0.015301 0.000002 -0.006146 0.087025 -0.434614
7 48.571732 0.685620 -0.000029 -0.099606 0.176683 -0.930470
8 44.261993 0.465028 0.000035 -0.046337 0.160176 -0.482258
9 47.723770 0.024173 -0.000002 0.062526 -0.081136 0.106202
10 -26.517460 -15.956991 21.321764 -1.657532 0.969848 -2.688599
11 37.914181 -0.000018 0.000007 -0.057685 -0.190162 0.339111
12 41.189346 0.000000 0.000002 -0.009818 -0.000439 -0.182052
13 38.203533 0.000001 0.000004 -0.038405 0.298360 -0.331741
14 50.162159 0.000228 0.000007 -0.175160 0.392874 -0.830042
15 45.618252 -0.000009 0.000020 -0.016029 0.192292 -0.477592
16 48.074089 -0.000000 -0.000004 0.157195 -0.113777 -0.247715
17 -23.099745 -0.264728 -14.346659 -1.624753 1.199132 3.077986
18 43.390289 -0.000008 0.000004 0.024880 -0.124846 -0.106578
19 47.998020 0.000000 0.000004 -0.009932 -0.001382 -0.401026
20 50.215244 -0.000000 0.000004 -0.067227 0.173549 -0.562770
21 41.153103 0.000001 0.000003 -0.115477 0.307648 -0.359295
22 66.351677 -0.000004 0.000005 -0.042444 0.248277 0.172125
23 0.000000 0.000000 0.000000 0.026608 -1.411991 -1.733383
24 28.334833 2.036759 5.134782 0.128232 -0.225520 0.052140
25 -32.355835 -2.252504 -13.015985 -2.743474 0.029164 3.113834
26 85.581314 0.000002 0.000001 -0.000000 0.000000 -0.761089
27 53.650120 -0.000006 -0.000001 0.000000 0.000000 0.709800
28 33.201397 0.000004 0.000002 -0.089737 -0.135811 -0.747566
29 21.348541 28.691179 -0.000000 0.259489 0.121977 1.805732
30 -25.453983 1.530171 16.434404 3.084201 -0.241771 1.829457
31 85.581322 0.000008 0.000001 -0.000000 -0.000000 -2.190088
32 53.650093 0.000005 0.000002 -0.000000 0.000000 2.072563
33 33.201397 0.000009 -0.000002 -0.059251 -0.088594 -1.696694
34 21.348551 28.691189 0.000000 0.000553 -0.001272 1.032340
35 32.412460 -0.049609 -0.006010 0.110806 0.048448 0.538585
36 67.582108 6.187980 -0.000008 0.000000 -0.000002 0.548471
37 -15.546215 2.382507 -31.987392 -1.394726 1.482538 1.198124
38 38.227737 -0.000001 0.000000 1.107540 -1.026640 -0.425909
39 89.093910 0.000006 -0.000016 -0.000000 -0.000000 -1.547643
40 59.561531 -0.000026 -0.000001 1.348494 -0.037915 0.272360
41 31.086199 -3.122422 -0.002492 0.020568 0.204619 -0.170294
42 11.272784 -0.349144 24.738405 -2.790152 -0.898633 1.406483
43 -15.546145 2.382385 31.987486 -0.245389 -1.387662 2.826956
44 38.227760 -0.000001 0.000001 -0.896649 1.121515 -0.304883
45 89.093910 -0.000007 -0.000018 0.000000 -0.000000 -1.376039
46 59.561535 0.000007 0.000002 -1.321567 0.575039 0.090619
47 31.086220 -3.122458 0.002481 0.051386 0.079959 0.552818
48 11.272810 -0.349162 -24.738411 2.361265 0.605924 0.796912
49 15.788317 0.000018 0.000001 -0.088403 0.053063 0.289021
time 16
0 0.000000 0.000000 0.000000 1.570796 -0.000000 0.000000
1 0.000000 0.000000 0.000001 0.000000 -0.000000 0.000000
2 -14.615581 201.298264 0.000008 -0.000010 -1.178098 -1.570787
3 -27.514357 17.090467 22.904945 -1.527364 0.987335 2.527685
4 38.339050 0.036430 0.000000 -0.081981 -0.104075 0.469233
5 40.888321 0.025444 -0.000002 -0.028523 -0.060422 -0.074445
6 37.840919 0.015301 0.000002 -0.015663 0.052878 -0.374115
7 48.571732 0.685620 -0.000029 -0.093633 0.133100 -1.015161
8 44.261993 0.465028 0.000035 -0.079020 0.162468 -0.622644
9 47.723770 0.024173 -0.000002 0.020314 0.015831 0.034077
10 -26.517460 -15.956991 21.321764 -1.767886 0.912143 -2.854166
11 37.914181 -0.000018 0.000007 -0.086217 -0.282742 0.370273
12 41.189346 0.000000 0.000002 -0.022505 -0.120784 -0.080893
13 38.203533 0.000001 0.000004 -0.035839 0.195587 -0.282427
14 50.162159 0.000228 0.000007 -0.213002 0.361204 -0.921544
15 45.618252 -0.000009 0.000020 -0.113743 0.289370 -0.568278
16 48.074089 -0.000000 -0.000004 0.063749 0.007827 -0.184357
17 -23.137590 2.132437 -14.397293 -1.720567 1.068651 2.956527
18 43.390289 -0.000008 0.000004 -0.001075 -0.213086 0.043725
19 47.998020 0.000000 0.000004 -0.013919 -0.059087 -0.272229
20 50.215244 -0.000000 0.000004 -0.059165 0.118585 -0.540524
21 41.153103 0.000001 0.000003 -0.127505 0.276329 -0.517610
22 66.351677 -0.000004 0.000005 -0.068162 0.332511 -0.007741
23 0.000000 0.000000 0.000000 -0.066227 -1.410740 -1.712830
24 28.368582 1.762064 5.022762 0.202393 -0.265202 0.037748
25 -32.670361 -3.124363 -11.726823 -2.780827 0.010081 -3.076182
26 85.581314 0.000002 -0.000004 0.000000 0.000000 -0.786943
27 53.650097 0.000008 -0.000006 -0.000000 0.000000 0.674684
28 33.201408 -0.000021 0.000010 -0.000044 -0.149177 -1.233375
29 21.348541 28.691179 -0.000000 0.141580 0.094135 1.510913
30 -24.707230 2.823204 17.120012 3.130848 -0.228479 1.654832
31 85.581322 -0.000000 -0.000004 -0.000000 -0.000000 -1.853132
32 53.650085 0.000004 0.000001 0.000000 -0.000000 1.540320
33 33.201405 0.000005 -0.000000 -0.032109 -0.032169 -1.301752
34 21.348553 28.691187 0.000000 0.003803 -0.011859 1.231499
35 32.407429 -0.051702 -0.011534 0.198404 -0.009940 0.447249
36 67.582108 6.187999 -0.000008 0.000000 -0.000002 0.548471
37 -15.546215 2.382507 -31.987392 -1.350413 1.351915 1.244165
38 38.227749 0.000001 -0.000008 1.122620 -0.963693 -0.353851
39 89.093895 -0.000003 -0.000007 -0.000000 -0.000000 -1.505071
40 59.561535 -0.000000 -0.000001 1.380211 0.037962 0.249098
41 31.086199 -3.122421 -0.002491 0.020254 0.121528 -0.143609
42 11.272784 -0.349144 24.738405 -2.663662 -0.855683 1.243523
43 -15.546145 2.382385 31.987486 -0.560837 -1.278449 3.126079
44 38.227760 0.000009 -0.000000 -0.496581 1.126787 0.027809
45 89.093910 -0.000001 -0.000004 0.000000 -0.000000 -1.377229
46 59.561543 -0.000005 0.000004 -1.324938 0.565113 0.037056
47 31.086216 -3.122458 0.002481 0.046363 0.066283 0.528081
48 11.272810 -0.349162 -24.738411 2.411813 0.668352 0.880490
49 15.788303 0.000018 -0.000001 -0.089219 0.167412 0.347126
time 17
0 0.000000 0.000000 0.000000 1.570796 -0.000000 0.000000
1 0.000000 0.000000 0.000001 0.000000 -0.000000 0.000000
2 -10.576382 201.729309 -0.000004 -0.000010 -1.178098 -1.570787
3 -27.514357 17.090467 22.904945 -1.613548 0.884398 2.396390
4 38.339050 0.036430 0.000000 -0.105827 -0.205874 0.540337
5 40.888321 0.025444 -0.000002 -0.043839 -0.095642 0.055892
6 37.840919 0.015301 0.000002 -0.029105 0.046779 -0.288253
7 48.571732 0.685620 -0.000029 -0.101041 0.110329 -1.071980
8 44.261993 0.465028 0.000035 -0.100121 0.139661 -0.758694
9 47.723770 0.024173 -0.000002 -0.019063 0.083020 -0.064056
10 -26.517460 -15.956991 21.321764 -1.870127 0.850500 -3.007554
11 37.914181 -0.000018 0.000007 -0.097478 -0.377128 0.336351
12 41.189346 0.000000 0.000002 -0.034842 -0.224771 0.003629
13 38.203533 0.000001 0.000004 -0.030152 0.105684 -0.191641
14 50.162159 0.000228 0.000007 -0.230027 0.315911 -0.952919
15 45.618252 -0.000009 0.000020 -0.192168 0.319643 -0.687443
16 48.074089 -0.000000 -0.000004 -0.025365 0.123356 -0.147731
17 -23.174873 4.494069 -14.447176 -1.794870 0.949888 2.861785
18 43.390289 -0.000008 0.000004 -0.024952 -0.325563 0.128318
19 47.998020 0.000000 0.000004 -0.013590 -0.127500 -0.126592
20 50.215244 -0.000000 0.000004 -0.056965 0.082391 -0.432739
21 41.153103 0.000001 0.000003 -0.143125 0.265382 -0.632748
22 66.351677 -0.000004 0.000005 -0.102840 0.387411 -0.182626
23 0.000000 0.000000 0.000000 -0.108815 -1.454606 -1.739097
24 28.557543 1.675147 3.868008 0.275412 -0.255557 0.025811
25 -32.500584 -3.961032 -10.573455 -2.827209 -0.009204 -2.971106
26 85.581299 0.000004 -0.000004 0.000000 -0.000000 -0.822793
27 53.650101 -0.000018 0.000000 -0.000000 0.000000 0.651804
28 33.201401 -0.000007 0.000003 0.036562 -0.134582 -1.628275
29 21.348541 28.691179 -0.000000 0.025426 0.024143 1.186587
30 -24.779247 4.066499 17.807386 -3.128580 -0.214532 1.600546
31 85.581314 -0.000001 -0.000004 0.000000 0.000000 -1.401374
32 53.650078 0.000001 -0.000000 0.000000 -0.000000 0.879684
33 33.201393 -0.000000 -0.000000 0.033967 0.009930 -0.786971
34 21.348551 28.691185 0.000001 0.004877 -0.024266 1.455556
35 32.402672 -0.052818 -0.016449 0.281654 -0.059176 0.356152
36 67.582085 6.187973 -0.000005 0.000000 -0.000002 0.548471
37 -15.546215 2.382507 -31.987392 -1.513233 1.232946 1.072386
38 38.227757 0.000001 0.000003 1.118287 -0.914356 -0.274419
39 89.093910 -0.000004 0.000005 -0.000000 -0.000000 -1.452911
40 59.561520 -0.000001 0.000012 1.406477 0.103731 0.230243
41 31.086199 -3.122425 -0.002489 0.016411 0.043615 -0.102618
42 11.272784 -0.349144 24.738405 -2.561017 -0.802196 1.104522
43 -15.546145 2.382385 31.987486 -0.812256 -1.167903 -2.922359
44 38.227753 0.000008 0.000000 -0.188933 1.028412 0.305802
45 89.093895 0.000003 0.000007 0.000000 -0.000000 -1.378728
46 59.561527 0.000005 0.000005 -1.333946 0.541921 -0.029882
47 31.086212 -3.122457 0.002481 0.042314 0.070282 0.480534
48 11.272810 -0.349162 -24.738411 2.469163 0.732526 0.972348
49 15.788316 0.000005 0.000001 -0.083390 0.282428 0.402049
time 18
0 0.000000 0.000000 0.000000 1.570796 -0.000000 0.000000
1 0.000000 0.000000 0.000001 0.000000 -0.000000 0.000000
2 -5.600362 189.043884 -0.000013 -0.000010 -1.178098 -1.570787
3 -27.514357 17.090467 22.904945 -1.676752 0.799408 2.299250
4 38.339050 0.036430 0.000000 -0.118813 -0.393474 0.475483
5 40.888321 0.025444 -0.000002 -0.032072 -0.133654 0.229441
6 37.840919 0.015301 0.000002 -0.024621 0.116732 -0.163104
7 48.571732 0.685620 -0.000029 -0.125722 0.135429 -1.164709
8 44.261993 0.465028 0.000035 -0.099139 0.112786 -0.844627
9 47.723770 0.024173 -0.000002 -0.046712 0.091189 -0.126721
10 -26.517460 -15.956991 21.321764 -1.957231 0.789157 -3.138150
11 37.914181 -0.000018 0.000007 -0.047829 -0.434455 0.113998
12 41.189346 0.000000 0.000002 -0.019357 -0.368592 0.099942
13 38.203533 0.000001 0.000004 0.000854 0.038296 -0.023321
14 50.162159 0.000228 0.000007 -0.233809 0.310082 -0.962703
15 45.618252 -0.000009 0.000020 -0.243455 0.318016 -0.794330
16 48.074089 -0.000000 -0.000004 -0.099026 0.183544 -0.150259
17 -23.209873 6.711029 -14.494003 -1.850593 0.843091 2.790866
18 43.390289 -0.000008 0.000004 -0.010327 -0.450435 0.008927
19 47.998020 0.000000 0.000004 0.005337 -0.220393 0.047587
20 50.215244 -0.000000 0.000004 -0.030981 0.070951 -0.223824
21 41.153103 0.000001 0.000003 -0.158981 0.282333 -0.688400
22 66.351677 -0.000004 0.000005 -0.144303 0.414773 -0.349094
23 0.000000 0.000000 0.000000 -0.179520 -1.522785 -1.743838
24 28.735838 1.738132 2.054695 0.355375 -0.212399 0.014253
25 -31.754990 -5.052377 -9.701900 -2.908194 -0.054527 -2.788312
26 85.581314 0.000009 0.000004 0.000000 -0.000000 -0.889007
27 53.650089 -0.000012 -0.000000 0.000000 0.000000 0.663032
28 33.201408 -0.000001 0.000008 -0.059648 -0.132651 -1.601365
29 21.348541 28.691179 -0.000000 0.002424 0.003073 1.074322
30 -25.343618 5.382389 18.207125 3.117171 -0.217566 1.645392
31 85.581299 -0.000000 -0.000003 0.000000 0.000000 -0.978379
32 53.650093 -0.000008 -0.000002 0.000000 0.000000 0.526067
33 33.201393 -0.000016 -0.000001 0.111330 0.052931 -0.470900
34 21.348547 28.691181 0.000001 0.001328 -0.016511 1.691751
35 32.398460 -0.052843 -0.020495 0.354333 -0.097420 0.266556
36 67.582077 6.187989 -0.000002 0.000000 -0.000002 0.548471
37 -15.546215 2.382507 -31.987392 -1.728218 1.124792 0.844627
38 38.227753 0.000000 0.000019 1.082420 -0.882043 -0.179674
39 89.093895 0.000000 0.000004 -0.000000 -0.000000 -1.404502
40 59.561520 -0.000010 0.000003 1.425294 0.151687 0.215623
41 31.086199 -3.122432 -0.002486 0.009100 -0.029099 -0.047269
42 11.272784 -0.349144 24.738405 -2.481735 -0.738942 0.988988
43 -15.546145 2.382385 31.987486 -0.936705 -1.093784 -2.811794
44 38.227757 0.000002 0.000000 0.066692 0.909754 0.543579
45 89.093910 0.000001 0.000017 0.000000 0.000000 -1.380351
46 59.561523 0.000011 -0.000014 -1.342764 0.515646 -0.094183
47 31.086208 -3.122457 0.002481 0.038190 0.083551 0.420132
48 11.272810 -0.349162 -24.738411 2.533016 0.785015 1.066234
49 15.788320 0.000016 0.000001 -0.076517 0.390468 0.450101
time 19
0 0.000000 0.000000 0.000000 1.570796 -0.000000 0.000000
1 0.000000 0.000000 0.000001 0.000000 -0.000000 0.000000
2 0.020662 167.657104 -0.000025 -0.000010 -1.178098 -1.570787
3 -27.514357 17.090467 22.904945 -1.702657 0.761183 2.259377
4 38.339050 0.036430 0.000000 -0.037205 -0.591520 0.170706
5 40.888321 0.025444 -0.000002 -0.003340 -0.247215 0.411888
6 37.840919 0.015301 0.000002 0.053565 0.221976 0.085238
7 48.571732 0.685620 -0.000029 -0.172503 0.244574 -1.243195
8 44.261993 0.465028 0.000035 -0.082030 0.113503 -0.947432
9 47.723770 0.024173 -0.000002 -0.048439 0.058113 -0.188887
10 -26.517460 -15.956991 21.321764 -1.994395 0.760959 3.089106
11 37.914181 -0.000018 0.000007 0.028759 -0.336612 -0.246961
12 41.189346 0.000000 0.000002 0.050141 -0.542986 0.087174
13 38.203533 0.000001 0.000004 0.066438 -0.101556 0.214200
14 50.162159 0.000228 0.000007 -0.199632 0.342308 -0.840491
15 45.618252 -0.000009 0.000020 -0.290217 0.346897 -0.935366
16 48.074089 -0.000000 -0.000004 -0.155515 0.223218 -0.212994
17 -23.240868 8.674212 -14.535473 -1.902105 0.736310 2.725335
18 43.390289 -0.000008 0.000004 0.078973 -0.458385 -0.348859
19 47.998020 0.000000 0.000004 0.040901 -0.371974 0.163180
20 50.215244 -0.000000 0.000004 0.038566 0.006553 0.124348
21 41.153103 0.000001 0.000003 -0.144767 0.348772 -0.640484
22 66.351677 -0.000004 0.000005 -0.174371 0.469207 -0.492327
23 0.000000 0.000000 0.000000 -1.963494 -1.570795 0.000000
24 28.787321 1.953566 0.809232 0.397662 -0.173974 0.011228
25 -31.151108 -5.694409 -9.347206 -3.009475 -0.083047 -2.586824
26 85.581314 0.000000 0.000000 -0.000000 -0.000000 -1.047339
27 53.650124 0.000000 0.000004 -0.000000 -0.000000 0.795136
28 33.201412 -0.000000 0.000000 -0.215161 -0.090087 -1.292544
29 21.348541 28.691179 -0.000000 0.001445 0.001975 1.012054
30 -25.874191 5.933258 18.335033 3.047375 -0.220289 1.791458
31 85.581299 -0.000000 -0.000003 -0.000000 0.000000 -0.748073
32 53.650105 -0.000000 -0.000001 -0.000000 -0.000000 0.567572
33 33.201393 0.000001 0.000000 0.152949 0.071339 -0.378753
34 21.348547 28.691181 0.000001 -0.000000 -0.000000 1.971248
35 32.397060 -0.052484 -0.022373 0.392515 -0.128693 0.224110
36 67.582092 6.187991 -0.000012 0.000000 -0.000002 0.548471
37 -15.546215 2.382507 -31.987392 -1.771693 1.074195 0.793919
38 38.227749 -0.000000 0.000000 1.074246 -0.870807 -0.135526
39 89.093895 -0.000007 -0.000018 -0.000000 0.000000 -1.373165
40 59.561531 0.000000 0.000000 1.431304 0.147257 0.198143
41 31.086199 -3.122438 -0.002483 0.000800 -0.102208 0.012672
42 11.272784 -0.349144 24.738405 -2.406632 -0.673008 0.877246
43 -15.546145 2.382385 31.987486 -0.938219 -1.047668 -2.822375
44 38.227749 -0.000008 0.000001 0.123175 0.841240 0.597024
45 89.093887 -0.000006 -0.000018 -0.000000 0.000000 -1.381911
46 59.561535 -0.000002 0.000018 -1.345951 0.479470 -0.127525
47 31.086208 -3.122456 0.002481 0.034011 0.096406 0.360280
48 11.272810 -0.349162 -24.738411 2.605812 0.830331 1.166951
49 15.788319 -0.000000 -0.000001 -0.069442 0.447289 0.450102
end
