version 1
nodes
0 "b_046" -1
1 "S_GC" 0
2 "Bip001" 1
3 "Bone007(mirrored)" 2
4 "Bone008(mirrored)" 3
5 "Bone009(mirrored)" 4
6 "Bone010(mirrored)" 5
7 "Bone011(mirrored)" 6
8 "Bone012(mirrored)" 7
9 "Bone013(mirrored)" 8
10 "Bone007" 2
11 "Bone008" 10
12 "Bone009" 11
13 "Bone010" 12
14 "Bone011" 13
15 "Bone012" 14
16 "Bone013" 15
17 "Bone001" 2
18 "Bone002" 17
19 "Bone003" 18
20 "Bone004" 19
21 "Bone005" 20
22 "Bone006" 21
23 "Bip001 Pelvis" 2
24 "Bip001 Spine" 23
25 "Bip001 R Thigh" 24
26 "Bip001 R Calf" 25
27 "Bip001 R HorseLink" 26
28 "Bip001 R Foot" 27
29 "Bip001 R Toe0" 28
30 "Bip001 L Thigh" 24
31 "Bip001 L Calf" 30
32 "Bip001 L HorseLink" 31
33 "Bip001 L Foot" 32
34 "Bip001 L Toe0" 33
35 "Bip001 Spine1" 24
36 "Bip001 Neck" 35
37 "Bip001 R Clavicle" 36
38 "Bip001 R UpperArm" 37
39 "Bip001 R Forearm" 38
40 "Bip001 R Hand" 39
41 "Bip001 R Finger1" 40
42 "Bip001 R Finger0" 40
43 "Bip001 L Clavicle" 36
44 "Bip001 L UpperArm" 43
45 "Bip001 L Forearm" 44
46 "Bip001 L Hand" 45
47 "Bip001 L Finger1" 46
48 "Bip001 L Finger0" 46
49 "Bip001 Head" 36
end
skeleton
time 0
0 0.000000 0.000000 0.000000 1.570796 -0.000000 0.000000
1 0.000000 0.000000 0.000001 0.000000 -0.000000 0.000000
2 -5.144246 130.542435 -20.191154 -1.562769 -1.497420 0.060222
3 -27.514357 17.090467 22.904945 -1.953653 0.629985 1.756707
4 38.339050 0.036428 0.000000 0.049612 0.252179 0.384569
5 40.888332 0.025434 -0.000004 0.044202 -0.065006 -0.248785
6 37.840912 0.015298 0.000006 0.104037 -0.308414 -0.432928
7 48.571709 0.685623 -0.000027 0.195420 -0.299628 -0.967772
8 44.262009 0.465012 0.000044 0.115832 -0.195943 -0.609981
9 47.723766 0.024172 -0.000024 0.050180 -0.070379 -0.027800
10 -26.517460 -15.956991 21.321764 -1.861284 0.531690 -2.913127
11 37.914181 -0.000000 0.000003 0.047777 -0.009079 0.588545
12 41.189339 0.000000 0.000001 0.012897 -0.127253 -0.341185
13 38.203533 0.000001 0.000003 0.049842 -0.247183 -0.551984
14 50.162155 0.000231 0.000012 0.104233 -0.261006 -1.035567
15 45.618233 -0.000011 -0.000015 0.037306 -0.168395 -0.579890
16 48.074070 -0.000019 0.000010 -0.011697 -0.025649 -0.023322
17 -20.210398 11.855524 -14.683262 -1.952475 0.653137 2.320072
18 43.390297 -0.000000 0.000004 0.091736 0.146295 0.228942
19 47.998001 0.000001 -0.000000 0.100685 -0.198345 -0.417925
20 50.215256 0.000000 0.000006 0.193496 -0.465395 -0.560797
21 41.153103 0.000001 0.000003 0.123245 -0.304138 -0.300680
22 66.351707 0.000007 0.000014 0.084265 -0.191628 0.161986
23 0.000000 0.000000 0.000000 2.750206 -1.550227 1.387620
24 28.805340 1.872278 0.448182 0.039719 -0.121682 0.241609
25 -30.095579 4.580891 -12.327569 -2.948654 0.540137 2.408520
26 85.581299 -0.000009 -0.000001 0.000000 0.000000 -1.829901
27 53.650093 -0.000005 0.000002 -0.000000 0.000000 1.374934
28 33.201412 -0.000005 0.000009 0.008651 0.472468 -0.161127
29 21.348549 28.691187 0.000002 -0.149738 -0.252524 1.711662
30 -26.411503 5.824530 17.897236 3.098799 -0.791743 1.947543
31 85.581306 0.000005 -0.000007 -0.000000 -0.000000 -1.460118
32 53.650108 0.000004 0.000005 0.000000 0.000000 1.249624
33 33.201408 0.000006 -0.000007 0.130101 -0.373819 -0.796907
34 21.348547 28.691193 -0.000000 -0.001077 0.004614 1.664853
35 32.418385 -0.043145 0.017375 -0.295369 -0.043792 0.710464
36 67.582710 6.188517 -0.001484 0.130089 -0.448336 0.551472
37 -28.013718 -0.562510 -22.013725 0.458548 0.967219 2.980220
38 38.227757 -0.000002 0.000000 0.830837 -0.697142 -0.631107
39 89.093903 -0.000001 -0.000002 -0.000000 -0.000000 -1.045462
40 59.561543 0.000004 -0.000005 1.595939 0.001477 0.209244
41 31.086216 -3.122456 -0.002486 -0.028409 -0.203236 0.130884
42 11.272793 -0.349162 24.738407 -2.979860 -0.793742 1.735058
43 0.071342 6.858638 34.972870 1.180365 -1.438606 1.361860
44 38.227760 -0.000017 -0.000008 -1.134216 0.677927 -0.209738
45 89.093903 -0.000004 0.000002 -0.000000 0.000000 -1.591272
46 59.561539 -0.000016 0.000011 -1.750051 0.084333 -0.202372
47 31.086201 -3.122456 0.002496 -0.059868 0.133242 0.072412
48 11.272788 -0.349162 -24.738400 3.076454 0.798559 1.830009
49 15.788320 0.000019 0.000001 0.019849 0.128173 0.125197
time 1
0 0.000000 0.000000 0.000000 1.570796 -0.000000 0.000000
1 0.000000 0.000000 0.000001 0.000000 -0.000000 0.000000
2 -8.902910 126.571304 -33.890938 -1.456215 -1.421330 0.024442
3 -27.514357 17.090467 22.904945 -1.920638 0.382195 1.836720
4 38.339050 0.036428 0.000000 0.086989 0.323689 0.610998
5 40.888332 0.025434 -0.000004 0.026753 0.068211 0.022487
6 37.840912 0.015298 0.000006 0.069312 -0.278713 -0.272497
7 48.571709 0.685623 -0.000027 0.281483 -0.382717 -1.064860
8 44.262009 0.465012 0.000044 0.185597 -0.275648 -0.773562
9 47.723766 0.024172 -0.000025 0.059209 -0.090950 -0.116247
10 -26.517460 -15.956991 21.321764 -1.833076 0.278990 -2.838986
11 37.914181 -0.000000 0.000003 0.095838 0.026235 0.820081
12 41.189339 0.000000 0.000001 0.004376 -0.126488 0.039355
13 38.203533 0.000001 0.000003 0.066436 -0.302625 -0.627963
14 50.162155 0.000231 0.000012 0.131107 -0.298190 -1.280840
15 45.618233 -0.000011 -0.000015 0.027401 -0.185777 -0.646480
16 48.074070 -0.000019 0.000010 -0.018950 -0.027871 0.000630
17 -20.210398 11.855524 -14.683262 -1.916615 0.405139 2.400989
18 43.390297 -0.000000 0.000004 0.135519 0.187831 0.495798
19 47.998001 0.000001 -0.000000 0.068507 -0.089061 -0.061439
20 50.215256 0.000000 0.000006 0.204892 -0.550709 -0.588716
21 41.153103 0.000001 0.000003 0.172660 -0.460320 -0.542423
22 66.351707 0.000007 0.000014 0.085649 -0.289597 0.016420
23 0.000000 0.000000 0.000000 2.539654 -1.554342 1.608000
24 28.800762 1.925764 0.528717 0.038120 -0.194128 0.293718
25 -30.904659 5.801718 -9.664188 -2.793577 0.567310 2.327247
26 85.581322 0.000007 0.000000 0.000000 0.000000 -2.026747
27 53.650112 -0.000001 0.000005 -0.000000 -0.000000 1.535489
28 33.201397 -0.000003 0.000014 -0.034366 0.404144 -0.215684
29 21.348549 28.691175 -0.000005 -0.157914 -0.251225 1.707430
30 -24.740387 5.513962 20.197613 -2.961010 -0.720837 1.697160
31 85.581314 0.000004 -0.000005 0.000000 0.000000 -1.329334
32 53.650101 -0.000003 0.000001 -0.000000 0.000000 0.978891
33 33.201401 0.000001 0.000007 0.092613 -0.411695 -0.753919
34 21.348545 28.691187 -0.000001 -0.001046 0.004400 1.664856
35 32.418961 -0.042712 0.017233 -0.282101 -0.026462 0.712123
36 67.581535 6.187752 -0.001482 0.134972 -0.530477 0.436279
37 -29.784243 -2.122232 -19.471720 0.401875 0.979944 3.019318
38 38.227768 -0.000010 0.000000 0.840418 -0.543025 -0.542184
39 89.093910 -0.000000 -0.000000 -0.000000 -0.000000 -1.004787
40 59.561531 0.000002 0.000010 1.753470 0.112261 0.417443
41 31.086216 -3.122456 -0.002484 -0.028545 -0.202698 0.132828
42 11.272793 -0.349162 24.738407 -2.980025 -0.793778 1.735272
43 2.704048 5.381733 35.136333 1.962588 -1.286107 0.735797
44 38.227760 0.000011 0.000001 -1.121716 0.282867 -0.121444
45 89.093910 0.000002 -0.000010 0.000000 0.000000 -1.712116
46 59.561535 0.000006 -0.000011 -1.912037 0.035720 -0.015272
47 31.086208 -3.122440 0.002498 -0.070502 0.185312 0.016592
48 11.272788 -0.349162 -24.738400 3.087715 0.794178 1.844480
49 15.788315 -0.000003 -0.000005 0.133150 0.169197 0.258847
time 2
0 0.000000 0.000000 0.000000 1.570796 -0.000000 0.000000
1 0.000000 0.000000 0.000001 0.000000 -0.000000 0.000000
2 -11.066298 119.028488 -39.921940 -1.361954 -1.351581 -0.004934
3 -27.514357 17.090467 22.904945 -1.877587 0.195174 1.919763
4 38.339050 0.036428 0.000000 0.077974 0.372291 0.598245
5 40.888332 0.025434 -0.000004 0.005160 0.179747 0.217057
6 37.840912 0.015298 0.000006 -0.003272 -0.179089 0.022524
7 48.571709 0.685623 -0.000027 0.243751 -0.421667 -0.867524
8 44.262009 0.465012 0.000044 0.287580 -0.377770 -0.985004
9 47.723766 0.024172 -0.000025 0.095434 -0.191521 -0.308530
10 -26.517460 -15.956991 21.321764 -1.812845 0.087884 -2.783139
11 37.914181 -0.000000 0.000003 0.142357 0.134418 0.776321
12 41.189339 0.000000 0.000001 -0.002588 -0.085835 0.384480
13 38.203533 0.000001 0.000003 0.036384 -0.361169 -0.327680
14 50.162155 0.000231 0.000012 0.200586 -0.376132 -1.458946
15 45.618233 -0.000011 -0.000015 0.018778 -0.238045 -0.875040
16 48.074070 -0.000019 0.000011 -0.055889 -0.038228 -0.101329
17 -20.210398 11.855524 -14.683262 -1.872292 0.217915 2.484086
18 43.390297 -0.000000 0.000004 0.153074 0.268897 0.481427
19 47.998001 0.000001 -0.000000 0.055294 0.031741 0.262215
20 50.215256 0.000000 0.000006 0.024482 -0.430310 -0.063417
21 41.153103 0.000001 0.000003 0.229181 -0.637922 -0.710089
22 66.351707 0.000007 0.000014 0.097532 -0.528858 -0.256450
23 0.000000 0.000000 0.000000 -2.123042 -1.555735 0.000000
24 28.779043 2.130608 0.853189 0.088384 -0.248810 0.374299
25 -30.814505 7.354812 -9.359299 -2.578524 0.673732 2.314934
26 85.581314 0.000005 -0.000001 0.000000 -0.000000 -2.229292
27 53.650116 -0.000006 -0.000008 0.000000 -0.000000 1.741851
28 33.201393 -0.000005 0.000004 -0.081871 0.384196 -0.259600
29 21.348549 28.691179 -0.000001 -0.166314 -0.249930 1.703090
30 -23.330503 9.101558 20.078625 -2.808959 -0.497966 1.478119
31 85.581322 0.000002 -0.000002 0.000000 -0.000000 -1.312336
32 53.650101 -0.000009 0.000000 -0.000000 -0.000000 0.835081
33 33.201416 0.000000 0.000005 0.058698 -0.449725 -0.716049
34 21.348547 28.691193 0.000002 -0.001001 0.004092 1.664859
35 32.418762 -0.045483 0.008151 -0.126625 -0.162323 0.694258
36 67.581596 6.187798 -0.001385 0.125942 -0.543095 0.442827
37 -29.974854 -1.741061 -19.207100 0.335206 1.085761 2.953009
38 38.227760 0.000002 0.000000 1.172584 -0.446323 -0.308372
39 89.093895 0.000009 -0.000004 -0.000000 -0.000000 -0.968071
40 59.561535 0.000001 -0.000003 1.886678 0.156418 0.568495
41 31.086216 -3.122456 -0.002483 -0.028684 -0.202154 0.134794
42 11.272793 -0.349162 24.738407 -2.980271 -0.793828 1.735600
43 2.911776 5.285782 35.131912 1.888452 -1.050200 0.902928
44 38.227753 0.000021 -0.000007 -0.891010 -0.339358 -0.367187
45 89.093910 0.000000 0.000002 -0.000000 0.000000 -1.407329
46 59.561535 -0.000003 0.000001 -1.933851 -0.115560 0.348110
47 31.086216 -3.122458 0.002473 -0.065023 0.187553 0.049170
48 11.272788 -0.349162 -24.738400 3.091282 0.792770 1.849142
49 15.788314 0.000015 -0.000000 0.032677 0.095332 0.323649
time 3
0 0.000000 0.000000 0.000000 1.570796 -0.000000 0.000000
1 0.000000 0.000000 0.000001 0.000000 -0.000000 0.000000
2 -13.033210 110.902168 -44.858456 -1.295615 -1.297289 -0.020723
3 -27.514357 17.090467 22.904945 -1.823066 0.167977 1.996673
4 38.339050 0.036428 0.000000 0.045508 0.446276 0.375024
5 40.888332 0.025434 -0.000004 -0.010888 0.293943 0.225165
6 37.840912 0.015298 0.000006 -0.050931 -0.055357 0.228497
7 48.571709 0.685623 -0.000027 0.102351 -0.399828 -0.408091
8 44.262009 0.465012 0.000044 0.345079 -0.485941 -1.014606
9 47.723766 0.024172 -0.000025 0.158296 -0.367577 -0.557428
10 -26.517460 -15.956991 21.321764 -1.809708 0.058541 -2.773433
11 37.914181 -0.000000 0.000003 0.137919 0.236220 0.490451
12 41.189339 0.000000 0.000001 0.024492 -0.009804 0.502422
13 38.203533 0.000001 0.000003 -0.032219 -0.355383 0.098798
14 50.162155 0.000231 0.000012 0.267287 -0.503633 -1.384918
15 45.618233 -0.000011 -0.000015 0.049087 -0.321376 -1.111478
16 48.074070 -0.000019 0.000011 -0.110681 -0.060011 -0.300153
17 -20.210398 11.855524 -14.683262 -1.818872 0.190586 2.559927
18 43.390297 -0.000000 0.000004 0.124071 0.363241 0.241054
19 47.998001 0.000001 -0.000000 0.055406 0.150327 0.297696
20 50.215256 0.000000 0.000006 -0.040907 -0.205324 0.383382
21 41.153103 0.000001 0.000003 0.089575 -0.644426 -0.307585
22 66.351707 0.000007 0.000014 0.082725 -0.808051 -0.363362
23 0.000000 0.000000 0.000000 -2.104593 -1.555680 0.000000
24 28.753746 2.354437 1.190745 0.142083 -0.285030 0.440038
25 -30.548216 8.858830 -9.523869 -2.286244 0.821603 2.417491
26 85.581314 -0.000003 -0.000000 0.000000 -0.000000 -2.396399
27 53.650108 -0.000011 0.000000 0.000000 0.000000 1.965174
28 33.201408 0.000001 -0.000008 -0.123607 0.378872 -0.297772
29 21.348549 28.691191 0.000000 -0.174619 -0.248635 1.698796
30 -21.976192 13.001594 19.436668 -2.745444 -0.260307 1.320071
31 85.581299 -0.000000 0.000009 0.000000 -0.000000 -1.289503
32 53.650105 0.000004 -0.000000 -0.000000 -0.000000 0.725091
33 33.201408 -0.000002 0.000004 0.030917 -0.488966 -0.687127
34 21.348547 28.691181 -0.000004 -0.000947 0.003724 1.664863
35 32.418476 -0.046342 -0.003200 0.040402 -0.298516 0.651343
36 67.581963 6.187978 -0.001232 0.115766 -0.541186 0.468517
37 -29.830296 -0.915064 -19.488163 -0.237839 1.198842 2.296813
38 38.227741 -0.000000 0.000000 1.002721 0.032560 -0.142538
39 89.093903 0.000003 0.000018 -0.000000 0.000000 -0.952981
40 59.561516 0.000009 0.000018 1.748840 -0.060500 0.266137
41 31.086216 -3.122457 -0.002484 -0.028808 -0.201663 0.136567
42 11.272793 -0.349162 24.738407 -2.980583 -0.793890 1.736019
43 2.767902 5.362654 35.131390 1.829373 -0.769295 1.054896
44 38.227764 0.000000 0.000008 -0.184498 -0.712761 -0.787163
45 89.093903 -0.000001 0.000000 -0.000000 -0.000000 -1.366246
46 59.561543 0.000000 0.000018 -1.278615 -0.190118 0.295206
47 31.086205 -3.122451 0.002476 -0.064754 0.183516 0.050383
48 11.272788 -0.349162 -24.738400 3.081682 0.796446 1.837037
49 15.788311 -0.000000 0.000004 -0.118002 0.000964 0.434840
time 4
0 0.000000 0.000000 0.000000 1.570796 -0.000000 0.000000
1 0.000000 0.000000 0.000001 0.000000 -0.000000 0.000000
2 -14.719620 104.765518 -49.397011 -1.268290 -1.261803 -0.015256
3 -27.514357 17.090467 22.904945 -1.754969 0.227259 2.071547
4 38.339050 0.036428 0.000000 0.000060 0.445083 0.192411
5 40.888329 0.025433 -0.000004 -0.022369 0.389049 0.054239
6 37.840912 0.015298 0.000006 -0.070144 0.068726 0.286335
7 48.571709 0.685623 -0.000027 0.004111 -0.290858 -0.053577
8 44.262009 0.465012 0.000044 0.198489 -0.555408 -0.473428
9 47.723766 0.024172 -0.000025 0.230250 -0.610893 -0.670449
10 -26.517460 -15.956991 21.321764 -1.817050 0.117318 -2.777277
11 37.914181 -0.000000 0.000003 0.097045 0.232662 0.254454
12 41.189339 0.000000 0.000001 0.070445 0.086213 0.363411
13 38.203533 0.000001 0.000003 -0.042358 -0.281940 0.364955
14 50.162155 0.000231 0.000012 0.240776 -0.635359 -0.996543
15 45.618233 -0.000011 -0.000015 0.121976 -0.428990 -1.306633
16 48.074070 -0.000019 0.000011 -0.113516 -0.124103 -0.481783
17 -20.210398 11.855524 -14.683262 -1.753227 0.248844 2.632849
18 43.390297 -0.000000 0.000004 0.060641 0.382946 -0.023435
19 47.998001 0.000001 -0.000000 0.061368 0.273366 0.147126
20 50.215256 0.000000 0.000006 -0.021370 -0.013618 0.485810
21 41.153103 0.000001 0.000003 -0.022566 -0.414373 0.188513
22 66.351707 0.000007 0.000014 -0.159945 -0.800570 0.133065
23 0.000000 0.000000 0.000000 2.086444 -1.553573 2.112216
24 28.744108 2.503274 1.168694 0.187431 -0.299423 0.474522
25 -30.129944 9.685586 -10.047731 -2.101081 0.902264 2.492326
26 85.581291 -0.000005 -0.000001 -0.000000 -0.000000 -2.500591
27 53.650101 -0.000002 -0.000000 0.000000 -0.000000 2.128608
28 33.201389 -0.000002 -0.000007 -0.127661 0.367834 -0.324046
29 21.348545 28.691181 0.000001 -0.182437 -0.247327 1.694736
30 -21.127932 15.569747 18.481554 -2.726065 -0.081212 1.220612
31 85.581314 0.000002 -0.000005 0.000000 0.000000 -1.258251
32 53.650120 -0.000001 0.000008 -0.000000 -0.000000 0.620968
33 33.201401 0.000001 0.000003 0.005932 -0.531822 -0.662950
34 21.348547 28.691183 -0.000003 -0.000890 0.003333 1.664868
35 32.418297 -0.045333 -0.010708 0.192369 -0.413697 0.593943
36 67.582199 6.188101 -0.001134 0.105622 -0.532743 0.500455
37 -29.624670 -0.273121 -19.819016 -1.074804 1.113749 1.320539
38 38.227753 -0.000001 -0.000004 0.015859 0.359920 -0.781132
39 89.093903 -0.000002 0.000003 -0.000000 0.000000 -0.987688
40 59.561531 0.000004 -0.000000 1.670187 -0.517967 -0.323986
41 31.086218 -3.122459 -0.002487 -0.028899 -0.201300 0.137875
42 11.272793 -0.349162 24.738407 -2.980947 -0.793961 1.736511
43 2.690516 5.411757 35.129925 1.841565 -0.560270 1.111707
44 38.227768 -0.000003 0.000000 0.489514 -0.754741 -1.042218
45 89.093887 0.000001 -0.000007 -0.000000 -0.000000 -1.525385
46 59.561531 -0.000002 0.000008 -0.271137 0.092978 0.039492
47 31.086195 -3.122443 0.002482 -0.070072 0.179979 0.018575
48 11.272788 -0.349162 -24.738400 3.067477 0.801914 1.819042
49 15.788320 0.000005 -0.000001 -0.209547 -0.062612 0.523536
time 5
0 0.000000 0.000000 0.000000 1.570796 -0.000000 0.000000
1 0.000000 0.000000 0.000001 0.000000 -0.000000 0.000000
2 -16.048513 101.731552 -53.925117 -1.265163 -1.237296 0.004000
3 -27.514357 17.090467 22.904945 -1.676780 0.324415 2.145985
4 38.339050 0.036428 0.000000 -0.038634 0.421788 0.043395
5 40.888329 0.025433 -0.000004 -0.042138 0.409309 -0.124647
6 37.840912 0.015298 0.000006 -0.076342 0.165808 0.192352
7 48.571709 0.685623 -0.000027 -0.012184 -0.125765 0.056435
8 44.262009 0.465012 0.000044 0.028416 -0.426574 0.097673
9 47.723766 0.024172 -0.000025 0.046836 -0.711693 -0.138476
10 -26.517460 -15.956991 21.321764 -1.828665 0.210580 -2.783744
11 37.914181 -0.000000 0.000003 0.067171 0.205786 0.105718
12 41.189339 0.000000 0.000001 0.084469 0.145528 0.118273
13 38.203533 0.000001 0.000003 -0.001203 -0.178728 0.372801
14 50.162155 0.000231 0.000012 0.103654 -0.628075 -0.487138
15 45.618233 -0.000011 -0.000015 0.247196 -0.520526 -1.322560
16 48.074070 -0.000019 0.000011 -0.075312 -0.222986 -0.649773
17 -20.210398 11.855524 -14.683262 -1.678159 0.344379 2.704788
18 43.390297 -0.000000 0.000004 0.002474 0.341855 -0.205875
19 47.998001 0.000001 -0.000000 0.052019 0.322059 -0.030362
20 50.215256 0.000000 0.000006 0.020202 0.150369 0.392726
21 41.153103 0.000001 0.000003 -0.024256 -0.172635 0.422121
22 66.351707 0.000007 0.000014 -0.209563 -0.484167 0.547735
23 0.000000 0.000000 0.000000 2.047685 -1.545761 2.163964
24 28.751724 2.571237 0.785576 0.233533 -0.300064 0.495722
25 -29.906778 9.558326 -10.121571 -2.059309 0.897975 2.505017
26 85.581299 0.000005 -0.000005 -0.000000 -0.000000 -2.569969
27 53.650108 -0.000002 0.000001 0.000000 -0.000000 2.224169
28 33.201405 -0.000004 0.000012 -0.085382 0.341826 -0.338292
29 21.348549 28.691177 0.000001 -0.189456 -0.246004 1.691060
30 -20.878727 16.649883 18.141283 -2.701266 0.006693 1.185603
31 85.581299 0.000002 -0.000001 0.000000 0.000000 -1.219819
32 53.650112 -0.000001 -0.000003 -0.000000 -0.000000 0.531678
33 33.201393 0.000012 -0.000007 -0.016990 -0.575103 -0.641805
34 21.348545 28.691189 -0.000002 -0.000836 0.002960 1.664872
35 32.418320 -0.044836 -0.012632 0.261111 -0.461533 0.566798
36 67.582260 6.188158 -0.001105 0.101219 -0.528594 0.515239
37 -29.635944 -0.171640 -19.803009 -1.219019 0.718324 1.028632
38 38.227737 0.000006 -0.000002 -0.437473 0.325878 -0.875835
39 89.093910 0.000005 0.000000 -0.000000 0.000000 -1.037900
40 59.561531 0.000004 0.000004 2.060618 -0.201361 -0.230272
41 31.086214 -3.122460 -0.002491 -0.028942 -0.201119 0.138518
42 11.272793 -0.349162 24.738407 -2.981344 -0.794038 1.737049
43 2.690832 5.428454 35.127296 1.848386 -0.509694 1.129548
44 38.227753 -0.000011 0.000002 0.666593 -0.706698 -1.140987
45 89.093903 0.000015 -0.000014 -0.000000 -0.000000 -1.585529
46 59.561527 -0.000008 -0.000001 -0.038675 0.146515 -0.004125
47 31.086195 -3.122443 0.002485 -0.071264 0.179111 0.011392
48 11.272788 -0.349162 -24.738400 3.061758 0.804108 1.811796
49 15.788315 -0.000010 0.000003 -0.228187 -0.087196 0.576345
time 6
0 0.000000 0.000000 0.000000 1.570796 -0.000000 0.000000
1 0.000000 0.000000 0.000001 0.000000 -0.000000 0.000000
2 -17.181698 100.280998 -58.539600 -1.274482 -1.221311 0.028033
3 -27.514357 17.090467 22.904945 -1.597650 0.436144 2.220382
4 38.339050 0.036428 0.000000 -0.053333 0.388155 -0.047552
5 40.888329 0.025433 -0.000004 -0.065064 0.401149 -0.316425
6 37.840912 0.015298 0.000006 -0.076549 0.235678 0.027941
7 48.571709 0.685623 -0.000027 -0.008984 0.030115 0.014429
8 44.262009 0.465012 0.000044 -0.025077 -0.223523 0.361999
9 47.723766 0.024171 -0.000025 -0.120456 -0.426025 0.475281
10 -26.517460 -15.956991 21.321764 -1.842043 0.318136 -2.792075
11 37.914181 -0.000000 0.000003 0.049875 0.167431 0.020522
12 41.189339 0.000000 0.000001 0.066258 0.155236 -0.124108
13 38.203533 0.000001 0.000003 0.030749 -0.077463 0.236707
14 50.162155 0.000231 0.000012 0.052562 -0.504617 -0.184826
15 45.618233 -0.000011 -0.000015 0.306940 -0.592084 -1.077776
16 48.074070 -0.000019 0.000011 -0.015186 -0.334537 -0.807757
17 -20.210398 11.855524 -14.683262 -1.602342 0.454320 2.776592
18 43.390297 -0.000000 0.000004 -0.018555 0.292907 -0.303245
19 47.998001 0.000001 -0.000000 0.025665 0.301125 -0.232306
20 50.215256 0.000000 0.000006 0.041328 0.265409 0.226839
21 41.153103 0.000001 0.000003 0.002299 0.023949 0.466105
22 66.351707 0.000007 0.000014 -0.117353 -0.174764 0.736560
23 0.000000 0.000000 0.000000 2.107016 -1.531209 2.107011
24 28.761169 2.626864 0.225442 0.270448 -0.291675 0.506655
25 -29.746309 9.191017 -10.058086 -2.127889 0.874396 2.445432
26 85.581306 -0.000003 0.000004 -0.000000 0.000000 -2.605914
27 53.650108 -0.000000 -0.000008 0.000000 -0.000000 2.278168
28 33.201393 -0.000005 -0.000006 -0.014559 0.309052 -0.344985
29 21.348549 28.691183 -0.000008 -0.195354 -0.244658 1.687921
30 -21.106337 16.865997 18.147869 -2.677223 0.041008 1.185978
31 85.581314 0.000008 -0.000001 0.000000 0.000000 -1.166204
32 53.650108 -0.000000 0.000000 -0.000000 -0.000000 0.464920
33 33.201401 -0.000015 -0.000001 -0.037379 -0.615577 -0.623589
34 21.348543 28.691191 -0.000001 -0.000789 0.002639 1.664876
35 32.418365 -0.044812 -0.012596 0.275032 -0.469040 0.560670
36 67.582268 6.188163 -0.001104 0.100371 -0.528326 0.518121
37 -29.694736 -0.222227 -19.713028 -1.216433 0.607658 0.991494
38 38.227749 -0.000003 -0.000007 -0.496291 0.373698 -0.790140
39 89.093895 -0.000007 0.000001 -0.000000 0.000000 -1.084667
40 59.561523 0.000004 0.000009 2.263394 -0.078307 -0.138697
41 31.086214 -3.122459 -0.002493 -0.028948 -0.201124 0.138545
42 11.272793 -0.349162 24.738407 -2.981756 -0.794118 1.737610
43 2.704365 5.433190 35.125504 1.845805 -0.501707 1.144322
44 38.227757 0.000019 0.000002 0.729874 -0.655365 -1.173054
45 89.093903 -0.000008 0.000001 -0.000000 -0.000000 -1.609165
46 59.561523 0.000002 0.000001 0.072155 0.145064 -0.040938
47 31.086195 -3.122445 0.002488 -0.071564 0.178733 0.009497
48 11.272788 -0.349162 -24.738400 3.060722 0.804507 1.810487
49 15.788312 0.000002 -0.000002 -0.228417 -0.099339 0.594264
time 7
0 0.000000 0.000000 0.000000 1.570796 -0.000000 0.000000
1 0.000000 0.000000 0.000001 0.000000 -0.000000 0.000000
2 -18.180437 99.786003 -62.643505 -1.284839 -1.211397 0.048182
3 -27.514357 17.090467 22.904945 -1.526820 0.543266 2.294743
4 38.339050 0.036428 0.000000 -0.056999 0.348343 -0.113449
5 40.888329 0.025433 -0.000004 -0.083652 0.377776 -0.487846
6 37.840912 0.015298 0.000006 -0.076809 0.250757 -0.109168
7 48.571709 0.685623 -0.000027 -0.024774 0.145762 -0.150479
8 44.262009 0.465012 0.000044 -0.035433 -0.026468 0.392464
9 47.723766 0.024171 -0.000026 -0.117061 -0.136933 0.706811
10 -26.517460 -15.956991 21.321764 -1.855521 0.426197 -2.800674
11 37.914181 -0.000000 0.000003 0.036275 0.124520 -0.042579
12 41.189339 0.000000 0.000001 0.042619 0.148420 -0.347070
13 38.203533 0.000001 0.000003 0.056305 0.010965 0.063952
14 50.162155 0.000231 0.000012 0.060551 -0.330742 -0.066278
15 45.618233 -0.000011 -0.000015 0.234291 -0.605225 -0.586082
16 48.074070 -0.000019 0.000011 0.117756 -0.453663 -0.882018
17 -20.210398 11.855524 -14.683262 -1.534554 0.559728 2.848719
18 43.390297 -0.000000 0.000004 -0.024211 0.240984 -0.369039
19 47.998001 0.000001 -0.000000 -0.004514 0.249460 -0.439997
20 50.215256 0.000000 0.000006 0.010013 0.289795 -0.041930
21 41.153103 0.000001 0.000003 0.001803 0.151245 0.373841
22 66.351707 0.000007 0.000015 -0.028042 0.052566 0.803061
23 0.000000 0.000000 0.000000 2.208219 -1.513325 2.003045
24 28.737898 2.656230 -0.396456 0.291420 -0.278322 0.509979
25 -29.577997 8.797163 -9.978426 -2.241990 0.845280 2.352775
26 85.581284 -0.000001 0.000000 -0.000000 0.000000 -2.619274
27 53.650108 -0.000004 -0.000000 0.000000 0.000000 2.316604
28 33.201401 -0.000003 0.000000 0.072327 0.274694 -0.346096
29 21.348547 28.691177 0.000000 -0.199813 -0.243281 1.685472
30 -21.399820 17.001444 18.178015 -2.659502 0.045102 1.194977
31 85.581322 0.000004 -0.000004 0.000000 0.000000 -1.088183
32 53.650108 0.000004 0.000000 -0.000000 -0.000000 0.416673
33 33.201401 -0.000002 -0.000014 -0.054740 -0.650006 -0.608222
34 21.348543 28.691193 0.000000 -0.000755 0.002406 1.664878
35 32.418415 -0.044778 -0.012582 0.273760 -0.468798 0.562029
36 67.582245 6.188136 -0.001111 0.100413 -0.528766 0.518383
37 -29.758057 -0.278214 -19.616081 -1.218579 0.618844 0.991789
38 38.227757 0.000000 -0.000000 -0.513049 0.383136 -0.786703
39 89.093903 0.000006 0.000000 -0.000000 0.000000 -1.125237
40 59.561565 -0.000004 -0.000009 2.405693 -0.075538 -0.202192
41 31.086199 -3.122421 -0.002474 -0.028962 -0.201219 0.138391
42 11.272793 -0.349162 24.738407 -2.982171 -0.794199 1.738173
43 2.723909 5.435469 35.123627 1.842145 -0.499053 1.159147
44 38.227760 0.000000 0.000003 0.791418 -0.602057 -1.201829
45 89.093910 0.000000 -0.000009 -0.000000 -0.000000 -1.630353
46 59.561543 0.000000 0.000000 0.174306 0.140517 -0.078120
47 31.086199 -3.122446 0.002491 -0.071519 0.178558 0.009651
48 11.272788 -0.349162 -24.738400 3.059922 0.804815 1.809478
49 15.788317 -0.000000 -0.000004 -0.225165 -0.109726 0.603228
time 8
0 0.000000 0.000000 0.000000 1.570796 -0.000000 0.000000
1 0.000000 0.000000 0.000001 0.000000 -0.000000 0.000000
2 -19.102171 99.658249 -65.607063 -1.285410 -1.206271 0.055368
3 -27.514357 17.090467 22.904945 -1.466247 0.646856 2.367423
4 38.339050 0.036428 0.000000 -0.053671 0.304147 -0.157104
5 40.888329 0.025433 -0.000004 -0.089813 0.345812 -0.595572
6 37.840912 0.015298 0.000006 -0.077540 0.236084 -0.235161
7 48.571709 0.685623 -0.000027 -0.041765 0.213940 -0.348304
8 44.262009 0.465012 0.000044 -0.052997 0.092237 0.288121
9 47.723766 0.024171 -0.000026 -0.120475 0.026431 0.723744
10 -26.517460 -15.956991 21.321764 -1.867524 0.522115 -2.808168
11 37.914181 -0.000000 0.000003 0.024224 0.083619 -0.084551
12 41.189339 0.000000 0.000001 0.027712 0.124130 -0.489752
13 38.203533 0.000001 0.000003 0.062454 0.048168 -0.107825
14 50.162155 0.000231 0.000012 0.086858 -0.129580 -0.183227
15 45.618233 -0.000011 -0.000015 0.124362 -0.434871 -0.071714
16 48.074070 -0.000019 0.000011 0.200829 -0.560864 -0.549553
17 -20.210398 11.855524 -14.683262 -1.478559 0.658642 2.919976
18 43.390297 0.000000 0.000004 -0.022933 0.188576 -0.415225
19 47.998001 0.000001 -0.000000 -0.023454 0.195564 -0.592797
20 50.215256 0.000000 0.000006 -0.005815 0.243405 -0.248343
21 41.153103 0.000001 0.000003 -0.023091 0.223267 0.181488
22 66.351707 0.000007 0.000015 0.008238 0.186781 0.731890
23 0.000000 0.000000 0.000000 2.344441 -1.493365 1.861037
24 28.701674 2.679548 -1.038244 0.303708 -0.260427 0.506699
25 -29.351564 8.534020 -9.959874 -2.374988 0.811368 2.250601
26 85.581306 0.000002 0.000004 -0.000000 0.000000 -2.620062
27 53.650112 -0.000004 -0.000001 0.000000 0.000000 2.340136
28 33.201412 -0.000007 0.000008 0.162893 0.244264 -0.342825
29 21.348549 28.691179 0.000008 -0.200798 -0.241768 1.684677
30 -21.716299 17.101662 18.220779 -2.643880 0.036805 1.207845
31 85.581291 0.000003 -0.000011 -0.000000 0.000000 -0.995938
32 53.650108 0.000001 0.000005 -0.000000 -0.000000 0.379245
33 33.201408 -0.000006 -0.000004 -0.067917 -0.674013 -0.596470
34 21.348543 28.691191 0.000001 -0.000741 0.002310 1.664879
35 32.418465 -0.044755 -0.012522 0.267996 -0.465776 0.565413
36 67.582214 6.188118 -0.001121 0.101123 -0.529702 0.516663
37 -29.817432 -0.335095 -19.525139 -1.220795 0.631666 0.992649
38 38.227749 0.000001 -0.000010 -0.530312 0.389960 -0.787188
39 89.093895 -0.000004 0.000008 -0.000000 0.000000 -1.165794
40 59.561531 0.000004 -0.000009 2.542015 -0.076753 -0.271509
41 31.086197 -3.122445 -0.002496 -0.028984 -0.201384 0.138103
42 11.272793 -0.349162 24.738407 -2.982569 -0.794276 1.738714
43 2.746798 5.436412 35.121696 1.837815 -0.500499 1.173403
44 38.227749 0.000002 -0.000001 0.845020 -0.551704 -1.227148
45 89.093895 -0.000002 0.000009 -0.000000 -0.000000 -1.650726
46 59.561539 -0.000000 0.000001 0.245734 0.125940 -0.120079
47 31.086203 -3.122448 0.002492 -0.071282 0.178588 0.010993
48 11.272788 -0.349162 -24.738400 3.059354 0.805034 1.808764
49 15.788317 -0.000016 -0.000001 -0.219229 -0.118669 0.608131
time 9
0 0.000000 0.000000 0.000000 1.570796 -0.000000 0.000000
1 0.000000 0.000000 0.000001 0.000000 -0.000000 0.000000
2 -19.943943 99.824310 -67.014053 -1.284082 -1.209018 0.054361
3 -27.514357 17.090467 22.904945 -1.410028 0.752333 2.439805
4 38.339050 0.036428 0.000000 -0.045519 0.258228 -0.178259
5 40.888329 0.025433 -0.000004 -0.084425 0.299984 -0.648009
6 37.840912 0.015298 0.000006 -0.077966 0.208728 -0.357401
7 48.571709 0.685623 -0.000027 -0.056295 0.219309 -0.510289
8 44.262009 0.465012 0.000044 -0.084311 0.156862 0.111940
9 47.723766 0.024171 -0.000026 -0.136635 0.131458 0.653915
10 -26.517460 -15.956991 21.321764 -1.879542 0.614810 -2.816444
11 37.914181 -0.000000 0.000003 0.012228 0.051248 -0.103646
12 41.189339 0.000000 0.000001 0.019935 0.079519 -0.560191
13 38.203533 0.000001 0.000003 0.047301 0.036690 -0.292642
14 50.162155 0.000231 0.000012 0.089053 -0.002001 -0.386805
15 45.618233 -0.000011 -0.000015 0.094050 -0.204106 0.123686
16 48.074070 -0.000019 0.000011 0.090179 -0.427444 0.118087
17 -20.210398 11.855525 -14.683262 -1.427862 0.757803 2.991281
18 43.390297 0.000000 0.000004 -0.018903 0.140113 -0.446758
19 47.998001 0.000001 -0.000000 -0.021842 0.149113 -0.658702
20 50.215256 0.000000 0.000006 -0.002498 0.167942 -0.394780
21 41.153103 0.000001 0.000003 -0.038668 0.229344 -0.001025
22 66.351707 0.000007 0.000015 0.004405 0.269027 0.575269
23 0.000000 0.000000 0.000000 2.495894 -1.472292 1.702501
24 28.660879 2.699589 -1.689429 0.311195 -0.239415 0.499431
25 -29.091621 8.322824 -9.968155 -2.502921 0.773440 2.160164
26 85.581299 -0.000002 -0.000005 0.000000 0.000000 -2.613426
27 53.650097 -0.000005 -0.000010 0.000000 0.000000 2.348680
28 33.201385 0.000001 0.000000 0.246286 0.223175 -0.336485
29 21.348547 28.691183 -0.000001 -0.198216 -0.240130 1.685582
30 -22.047607 17.175434 18.272812 -2.629242 0.021707 1.223484
31 85.581306 0.000006 -0.000004 -0.000000 -0.000000 -0.912274
32 53.650112 -0.000005 0.000002 -0.000000 -0.000000 0.349331
33 33.201397 -0.000004 -0.000001 -0.075944 -0.687218 -0.590332
34 21.348545 28.691189 0.000003 -0.000751 0.002379 1.664879
35 32.418507 -0.044745 -0.012424 0.259344 -0.460900 0.570003
36 67.582191 6.188118 -0.001142 0.102179 -0.530847 0.513903
37 -29.863405 -0.383457 -19.454725 -1.223074 0.645736 0.993966
38 38.227741 -0.000003 -0.000004 -0.546520 0.397695 -0.788727
39 89.093918 0.000002 -0.000005 0.000000 0.000000 -1.205769
40 59.561531 -0.000000 0.000000 2.628700 -0.083935 -0.342356
41 31.086195 -3.122447 -0.002482 -0.029004 -0.201601 0.137681
42 11.272793 -0.349162 24.738407 -2.982935 -0.794348 1.739209
43 2.769367 5.436555 35.119911 1.833334 -0.504157 1.186548
44 38.227764 -0.000009 0.000002 0.885075 -0.508573 -1.248614
45 89.093910 -0.000003 -0.000005 0.000000 -0.000000 -1.669909
46 59.561531 -0.000007 0.000005 0.277775 0.098831 -0.168539
47 31.086203 -3.122448 0.002490 -0.071037 0.178794 0.012475
48 11.272788 -0.349162 -24.738400 3.058982 0.805177 1.808298
49 15.788314 -0.000008 -0.000000 -0.212067 -0.126154 0.610225
time 10
0 0.000000 0.000000 0.000000 1.570796 -0.000000 0.000000
1 0.000000 0.000000 0.000001 0.000000 -0.000000 0.000000
2 -20.674002 100.602631 -67.183304 -1.282756 -1.217923 0.048422
3 -27.514357 17.090467 22.904945 -1.361504 0.846705 2.512990
4 38.339050 0.036428 0.000000 -0.030711 0.209405 -0.162888
5 40.888329 0.025433 -0.000004 -0.072715 0.246343 -0.666716
6 37.840912 0.015298 0.000006 -0.077647 0.176663 -0.472420
7 48.571709 0.685623 -0.000027 -0.069617 0.190230 -0.662273
8 44.262009 0.465012 0.000044 -0.114767 0.193507 -0.083794
9 47.723766 0.024171 -0.000026 -0.154435 0.211806 0.556249
10 -26.517460 -15.956991 21.321764 -1.890414 0.699826 -2.823498
11 37.914181 -0.000000 0.000003 0.001930 0.032364 -0.069485
12 41.189339 0.000000 0.000001 0.014925 0.028765 -0.585267
13 38.203533 0.000001 0.000003 0.028115 0.003105 -0.463492
14 50.162155 0.000231 0.000012 0.052772 0.024181 -0.616117
15 45.618233 -0.000011 -0.000015 0.076645 -0.008819 0.031016
16 48.074070 -0.000020 0.000011 0.071058 -0.148457 0.471570
17 -20.210398 11.855524 -14.683262 -1.382216 0.849832 3.063228
18 43.390297 0.000000 0.000004 -0.007936 0.102506 -0.437862
19 47.998001 0.000001 -0.000000 -0.006731 0.100350 -0.662914
20 50.215256 0.000000 0.000006 0.006685 0.081725 -0.518954
21 41.153103 0.000001 0.000003 -0.041224 0.171072 -0.162598
22 66.351707 0.000007 0.000015 -0.012293 0.315672 0.389873
23 0.000000 0.000000 0.000000 2.652994 -1.450799 1.538377
24 28.618101 2.714731 -2.339655 0.315261 -0.216542 0.490218
25 -28.813046 8.138972 -9.988382 -2.614429 0.727513 2.099393
26 85.581314 0.000006 0.000003 0.000000 0.000000 -2.603176
27 53.650108 0.000007 0.000006 0.000000 -0.000000 2.327313
28 33.201408 0.000001 -0.000007 0.329319 0.216452 -0.321427
29 21.348547 28.691185 0.000010 -0.193712 -0.238502 1.687421
30 -22.385687 17.231455 18.330795 -2.615740 0.002647 1.240139
31 85.581322 0.000002 -0.000006 -0.000000 -0.000000 -0.858520
32 53.650108 -0.000004 0.000006 -0.000000 0.000000 0.324683
33 33.201416 0.000005 -0.000003 -0.080005 -0.692821 -0.588105
34 21.348547 28.691183 0.000004 -0.000790 0.002648 1.664875
35 32.418545 -0.044747 -0.012298 0.248952 -0.454816 0.575193
36 67.582161 6.188107 -0.001158 0.103332 -0.531973 0.510821
37 -29.884605 -0.412988 -19.422325 -1.225412 0.660816 0.995686
38 38.227753 -0.000000 0.000003 -0.560283 0.409358 -0.788981
39 89.093880 -0.000002 -0.000007 0.000000 0.000000 -1.244642
40 59.561527 -0.000003 0.000008 2.660563 -0.098009 -0.417055
41 31.086201 -3.122447 -0.002483 -0.029015 -0.201859 0.137117
42 11.272793 -0.349162 24.738407 -2.983254 -0.794411 1.739638
43 2.787994 5.436426 35.118481 1.829119 -0.508609 1.198057
44 38.227757 -0.000016 0.000000 0.902452 -0.478812 -1.264947
45 89.093887 -0.000003 -0.000006 0.000000 -0.000000 -1.687508
46 59.561531 0.000002 0.000000 0.281868 0.062556 -0.221305
47 31.086201 -3.122447 0.002487 -0.070938 0.179163 0.013230
48 11.272788 -0.349162 -24.738400 3.058785 0.805253 1.808056
49 15.788318 -0.000018 0.000004 -0.204807 -0.132065 0.610359
time 11
0 0.000000 0.000000 0.000000 1.570796 -0.000000 0.000000
1 0.000000 0.000000 0.000001 0.000000 -0.000000 0.000000
2 -21.342693 101.710709 -66.571625 -1.280284 -1.229715 0.039268
3 -27.514357 17.090467 22.904945 -1.324430 0.916991 2.587677
4 38.339050 0.036428 0.000000 -0.005734 0.155346 -0.098584
5 40.888329 0.025433 -0.000004 -0.059804 0.194604 -0.671296
6 37.840912 0.015298 0.000006 -0.076339 0.147871 -0.576798
7 48.571709 0.685623 -0.000028 -0.081425 0.149536 -0.808494
8 44.262009 0.465012 0.000044 -0.131396 0.196602 -0.254423
9 47.723766 0.024170 -0.000027 -0.168306 0.256689 0.436167
10 -26.517460 -15.956991 21.321764 -1.898106 0.768050 -2.826206
11 37.914181 -0.000000 0.000003 -0.006997 0.021985 -0.001512
12 41.189339 0.000000 0.000001 0.011056 -0.012814 -0.568087
13 38.203533 0.000001 0.000003 0.022302 -0.034305 -0.567983
14 50.162155 0.000231 0.000012 0.015728 0.014812 -0.838653
15 45.618233 -0.000011 -0.000015 0.038247 0.083295 -0.147002
16 48.074070 -0.000020 0.000011 0.067339 0.053642 0.502516
17 -20.210398 11.855524 -14.683262 -1.341565 0.927335 3.136245
18 43.390297 0.000000 0.000004 0.013773 0.082643 -0.369446
19 47.998001 0.000001 -0.000000 0.012969 0.052667 -0.641641
20 50.215256 0.000000 0.000006 0.017980 0.002375 -0.626213
21 41.153103 0.000001 0.000003 -0.037725 0.083929 -0.317632
22 66.351707 0.000007 0.000015 -0.029181 0.307724 0.206806
23 0.000000 0.000000 0.000000 2.806885 -1.429618 1.378879
24 28.575928 2.723351 -2.978568 0.317292 -0.193068 0.481106
25 -28.519567 7.997169 -10.023140 -2.715710 0.670439 2.068944
26 85.581291 0.000009 0.000000 0.000000 0.000000 -2.593115
27 53.650120 0.000009 0.000009 0.000000 -0.000000 2.288254
28 33.201401 -0.000005 0.000001 0.413291 0.218525 -0.298972
29 21.348555 28.691187 -0.000000 -0.188932 -0.237015 1.689425
30 -22.722466 17.278408 18.391413 -2.603513 -0.017528 1.256058
31 85.581322 0.000004 -0.000004 -0.000000 -0.000000 -0.865360
32 53.650097 -0.000009 0.000000 -0.000000 0.000000 0.303055
33 33.201405 0.000008 0.000003 -0.081848 -0.694498 -0.587079
34 21.348547 28.691181 0.000004 -0.000864 0.003151 1.664870
35 32.418575 -0.044762 -0.012153 0.237964 -0.448171 0.580377
36 67.582161 6.188095 -0.001163 0.104334 -0.532854 0.508135
37 -29.833920 -0.396136 -19.500294 -1.227800 0.676676 0.997759
38 38.227764 -0.000002 -0.000018 -0.570215 0.427974 -0.785609
39 89.093910 0.000000 0.000000 0.000000 0.000000 -1.281895
40 59.561516 -0.000000 -0.000009 2.659074 -0.117103 -0.490834
41 31.086206 -3.122447 -0.002486 -0.029008 -0.202145 0.136403
42 11.272793 -0.349162 24.738407 -2.983510 -0.794463 1.739980
43 2.799063 5.436549 35.117592 1.825593 -0.512438 1.207400
44 38.227753 0.000003 -0.000000 0.852857 -0.486057 -1.264059
45 89.093887 -0.000006 -0.000000 0.000000 -0.000000 -1.703126
46 59.561531 0.000000 -0.000009 0.272264 0.022063 -0.276345
47 31.086197 -3.122445 0.002484 -0.071077 0.179726 0.012773
48 11.272788 -0.349162 -24.738400 3.058746 0.805269 1.808013
49 15.788313 -0.000000 -0.000000 -0.198580 -0.136285 0.609388
time 12
0 0.000000 0.000000 0.000000 1.570796 -0.000000 0.000000
1 0.000000 0.000000 0.000001 0.000000 -0.000000 0.000000
2 -22.014723 102.789200 -65.871094 -1.275265 -1.240743 0.028736
3 -27.514357 17.090467 22.904945 -1.330158 0.900014 2.667383
4 38.339050 0.036428 0.000000 0.024156 0.104736 -0.016883
5 40.888329 0.025433 -0.000004 -0.039271 0.152217 -0.594802
6 37.840912 0.015298 0.000006 -0.067640 0.117350 -0.594260
7 48.571709 0.685623 -0.000028 -0.084655 0.115163 -0.927282
8 44.262009 0.465012 0.000044 -0.130560 0.147595 -0.403849
9 47.723766 0.024170 -0.000027 -0.177323 0.246768 0.277602
10 -26.517460 -15.956991 21.321764 -1.889084 0.746565 -2.806815
11 37.914181 -0.000000 0.000003 -0.014379 0.025770 0.109855
12 41.189339 0.000000 0.000001 0.009456 -0.045116 -0.471074
13 38.203533 0.000001 0.000003 0.030129 -0.087025 -0.587133
14 50.162155 0.000231 0.000012 0.014459 -0.036673 -0.971514
15 45.618233 -0.000011 -0.000015 -0.017433 0.076874 -0.377471
16 48.074070 -0.000020 0.000011 0.026450 0.150543 0.367066
17 -20.210398 11.855524 -14.683262 -1.339494 0.913085 -3.069087
18 43.390297 0.000000 0.000004 0.035556 0.093270 -0.270262
19 47.998001 0.000001 -0.000000 0.030232 0.026682 -0.596790
20 50.215256 0.000000 0.000006 0.040544 -0.041095 -0.637916
21 41.153103 0.000001 0.000003 -0.021339 0.007730 -0.437563
22 66.351707 0.000007 0.000015 -0.050496 0.217940 0.015826
23 0.000000 0.000000 0.000000 2.949007 -1.409980 1.234303
24 28.538231 2.666697 -3.507923 0.318786 -0.170440 0.474540
25 -28.224258 7.875005 -10.063196 -2.789549 0.618630 2.069358
26 85.581299 0.000000 0.000001 -0.000000 -0.000000 -2.574947
27 53.650108 0.000003 0.000000 0.000000 -0.000000 2.260545
28 33.201393 -0.000005 0.000001 0.482944 0.227423 -0.265050
29 21.348545 28.691179 0.000002 -0.184559 -0.237019 1.691564
30 -23.049862 17.342184 18.446142 -2.592811 -0.035511 1.269115
31 85.581337 0.000009 0.000004 0.000000 -0.000000 -0.910622
32 53.650108 0.000002 -0.000005 -0.000000 0.000000 0.282017
33 33.201393 -0.000014 0.000004 -0.083368 -0.696312 -0.584131
34 21.348547 28.691181 0.000004 -0.000981 0.003951 1.664861
35 32.418602 -0.044767 -0.012040 0.227688 -0.441693 0.584841
36 67.582191 6.188109 -0.001148 0.104878 -0.533199 0.506735
37 -29.738949 -0.345994 -19.645947 -1.230240 0.693097 1.000152
38 38.227749 0.000005 0.000002 -0.545537 0.506191 -0.757382
39 89.093887 -0.000000 0.000006 0.000000 0.000000 -1.316775
40 59.561546 0.000003 0.000009 2.586912 -0.148759 -0.532551
41 31.086214 -3.122446 -0.002488 -0.028973 -0.202449 0.135516
42 11.272793 -0.349162 24.738407 -2.983682 -0.794500 1.740202
43 2.810394 5.437179 35.116600 1.830195 -0.521015 1.181854
44 38.227760 0.000001 -0.000001 0.760217 -0.518274 -1.251971
45 89.093887 -0.000000 -0.000001 0.000000 -0.000000 -1.716122
46 59.561543 0.000002 -0.000007 0.264428 -0.016949 -0.331639
47 31.086199 -3.122439 0.002483 -0.071289 0.180643 0.012159
48 11.272788 -0.349162 -24.738400 3.058856 0.805227 1.808158
49 15.788314 0.000029 0.000000 -0.201411 -0.114058 0.585011
time 13
0 0.000000 0.000000 0.000000 1.570796 -0.000000 0.000000
1 0.000000 0.000000 0.000001 0.000000 -0.000000 0.000000
2 -20.871073 113.413445 -21.777386 -0.933937 -1.338778 -0.347055
3 -27.514357 17.090467 22.904945 -1.381414 0.801325 2.752743
4 38.339050 0.036428 0.000000 -0.002540 -0.072450 0.037571
5 40.888329 0.025433 -0.000004 -0.060279 0.058755 -0.352175
6 37.840912 0.015298 0.000006 -0.118704 0.084470 -0.403015
7 48.571716 0.685623 -0.000028 -0.201314 0.094242 -0.773753
8 44.262009 0.465012 0.000044 -0.183631 0.182159 -0.512018
9 47.723766 0.024170 -0.000027 -0.118598 0.329735 -0.010747
10 -26.517460 -15.956991 21.321764 -1.827102 0.562349 -2.686067
11 37.914185 -0.000000 0.000003 -0.065386 0.080564 0.253588
12 41.189339 0.000000 0.000001 -0.001777 -0.060877 -0.213011
13 38.203533 0.000000 0.000003 0.037985 -0.134076 -0.406144
14 50.162155 0.000231 0.000012 0.045275 -0.084026 -0.851915
15 45.618233 -0.000011 -0.000015 0.007877 0.037002 -0.605482
16 48.074070 -0.000020 0.000011 0.012529 0.143524 -0.028396
17 -20.210398 11.855524 -14.683262 -1.364419 0.749931 -2.970310
18 43.390297 0.000001 0.000004 0.008973 0.070102 -0.135401
19 47.998001 0.000001 -0.000000 0.025788 0.010104 -0.343934
20 50.215256 0.000000 0.000006 0.015360 -0.055648 -0.415848
21 41.153103 0.000001 0.000003 -0.008599 -0.020003 -0.448010
22 66.351707 0.000007 0.000016 -0.018604 0.118643 -0.200940
23 0.000000 0.000000 0.000000 3.081484 -1.422739 1.220304
24 28.579052 2.247487 -3.492366 0.223718 -0.127857 0.551865
25 -26.593939 11.055250 -11.052835 -2.728450 0.632306 2.266071
26 85.581314 0.000002 0.000005 0.000000 0.000000 -2.071967
27 53.650108 -0.000003 -0.000005 -0.000000 0.000000 1.602001
28 33.201401 -0.000007 0.000000 0.442570 0.393008 0.138749
29 21.348549 28.691185 -0.000001 -0.166345 -0.243850 1.701902
30 -22.700527 17.974869 18.343863 -2.690808 -0.194796 1.395454
31 85.581291 -0.000005 -0.000000 0.000000 0.000000 -1.338816
32 53.650101 -0.000010 0.000000 -0.000000 -0.000000 0.883104
33 33.201401 0.000000 -0.000006 -0.138723 -0.640311 -0.491132
34 21.348545 28.691177 0.000004 -0.001062 0.005161 1.664860
35 32.416401 -0.047364 -0.004700 0.092296 -0.314657 0.578791
36 67.582535 6.188321 -0.000981 0.084700 -0.481698 0.557378
37 -28.715870 0.581512 -21.079227 -1.231691 0.850628 1.060461
38 38.227760 0.000000 -0.000009 0.014561 0.866514 -0.302031
39 89.093903 0.000001 0.000009 0.000000 0.000000 -1.037640
40 59.561546 -0.000005 -0.000007 1.222886 -0.092445 -0.069360
41 31.086214 -3.122445 -0.002491 -0.028903 -0.202756 0.134461
42 11.272793 -0.349162 24.738407 -2.983757 -0.794519 1.740289
43 1.284679 5.512318 35.183208 2.090084 -0.595506 0.600789
44 38.227764 0.000000 0.000001 -0.207602 -0.772083 -0.528685
45 89.093880 -0.000004 0.000006 0.000000 -0.000000 -1.239260
46 59.561543 0.000006 -0.000009 -0.038221 -0.136850 -0.439163
47 31.086208 -3.122426 0.002484 -0.071528 0.181806 0.011576
48 11.272788 -0.349162 -24.738400 3.059082 0.805141 1.808450
49 15.788317 0.000009 -0.000002 -0.320210 0.261232 0.107746
time 14
0 0.000000 0.000000 0.000000 1.570796 -0.000000 0.000000
1 0.000000 0.000000 0.000001 0.000000 -0.000000 0.000000
2 -10.643886 144.624344 51.674187 0.655502 -1.172223 -2.060707
3 -27.514357 17.090467 22.904945 -1.470588 0.642060 2.841826
4 38.339050 0.036428 0.000000 -0.211306 -0.401901 0.354293
5 40.888329 0.025433 -0.000004 -0.161875 -0.163733 -0.125783
6 37.840912 0.015298 0.000006 -0.198887 0.001824 -0.146323
7 48.571716 0.685623 -0.000028 -0.364058 0.106469 -0.431248
8 44.262012 0.465012 0.000044 -0.319698 0.193191 -0.290397
9 47.723766 0.024170 -0.000027 -0.086717 0.456381 -0.116631
10 -26.517460 -15.956991 21.321764 -1.744351 0.304983 -2.520489
11 37.914185 -0.000000 0.000003 -0.242463 -0.234077 0.461988
12 41.189339 0.000000 0.000001 -0.085270 -0.121164 0.004482
13 38.203533 0.000000 0.000003 -0.018313 -0.075283 -0.090311
14 50.162155 0.000231 0.000012 -0.011854 -0.036023 -0.462620
15 45.618233 -0.000011 -0.000015 0.023671 0.057574 -0.443178
16 48.074070 -0.000020 0.000011 0.069851 0.140764 -0.374816
17 -20.210396 11.855524 -14.683262 -1.406403 0.556022 -2.876453
18 43.390301 0.000001 0.000004 -0.147080 -0.216513 0.220147
19 47.998001 0.000001 -0.000000 -0.049381 -0.104959 -0.063541
20 50.215256 0.000000 0.000006 -0.057385 -0.049580 -0.086761
21 41.153103 0.000001 0.000003 -0.050400 0.047943 -0.277326
22 66.351707 0.000007 0.000016 -0.014738 0.123697 -0.256613
23 0.000000 0.000000 0.000000 -2.456960 -1.517332 0.899871
24 28.830914 1.118501 -1.159997 0.009443 -0.048246 0.408757
25 -27.484949 10.341717 -12.904897 -2.542941 0.488529 2.882653
26 85.581314 -0.000001 -0.000010 -0.000000 -0.000000 -0.734091
27 53.650112 0.000002 0.000010 0.000000 0.000000 0.716808
28 33.201397 -0.000006 -0.000001 0.134670 0.408568 -0.030190
29 21.348543 28.691181 0.000007 0.151436 -0.303513 1.835890
30 -26.144611 10.448650 17.568686 -3.026122 -0.365058 1.972393
31 85.581291 0.000001 -0.000001 0.000000 -0.000000 -1.456948
32 53.650097 -0.000002 -0.000002 -0.000000 0.000000 1.261648
33 33.201397 -0.000001 -0.000005 -0.251106 -0.443855 -0.169521
34 21.348545 28.691177 0.000004 -0.001257 0.009430 1.664874
35 32.398731 -0.056520 -0.002852 0.047976 -0.189464 0.285860
36 67.583977 6.189384 -0.000466 0.041641 -0.300533 0.715113
37 -23.524437 4.022727 -26.483055 1.277965 1.134012 -2.557232
38 38.227757 0.000003 0.000002 0.661826 -0.371905 -0.045696
39 89.093903 0.000000 -0.000005 0.000000 0.000000 -0.535971
40 59.561508 0.000004 0.000016 -0.141630 0.404241 -0.282014
41 31.086218 -3.122442 -0.002492 -0.028791 -0.203054 0.133228
42 11.272793 -0.349162 24.738407 -2.983721 -0.794519 1.740221
43 -5.014314 6.355738 34.717896 -3.047233 -1.255977 -0.856443
44 38.227753 0.000000 -0.000004 -0.750083 0.145903 -0.258221
45 89.093910 0.000000 -0.000016 0.000000 0.000000 -0.590234
46 59.561558 -0.000009 -0.000003 -0.702031 -0.082856 -0.317493
47 31.086216 -3.122429 0.002500 -0.071788 0.183113 0.010975
48 11.272788 -0.349162 -24.738400 3.059406 0.805017 1.808865
49 15.788317 -0.000016 -0.000000 -0.286651 0.405984 -0.015954
time 15
0 0.000000 0.000000 0.000000 1.570796 -0.000000 0.000000
1 0.000000 0.000000 0.000001 0.000000 -0.000000 0.000000
2 -3.250923 160.335312 62.436127 0.832590 -0.978178 -2.320006
3 -27.514357 17.090467 22.904945 -1.559359 0.549635 2.882990
4 38.339050 0.036428 0.000000 -0.183015 -0.350277 0.535258
5 40.888329 0.025433 -0.000004 -0.196722 -0.379843 -0.056441
6 37.840912 0.015298 0.000006 -0.187658 -0.165309 -0.116739
7 48.571716 0.685623 -0.000028 -0.321021 0.025323 -0.414782
8 44.262012 0.465012 0.000044 -0.344571 0.145963 -0.096495
9 47.723766 0.024170 -0.000027 -0.151134 0.363188 0.151230
10 -26.517460 -15.956991 21.321764 -1.679732 0.102783 -2.389716
11 37.914185 -0.000000 0.000003 -0.252343 -0.317527 0.651919
12 41.189339 0.000000 0.000001 -0.155973 -0.257139 0.113332
13 38.203533 0.000000 0.000003 -0.060278 -0.120895 -0.024665
14 50.162155 0.000231 0.000012 -0.063203 -0.004045 -0.402791
15 45.618233 -0.000011 -0.000015 -0.029770 0.114354 -0.222639
16 48.074070 -0.000020 0.000011 0.040334 0.209270 -0.146366
17 -20.210398 11.855524 -14.683262 -1.462959 0.389193 -2.791759
18 43.390301 0.000001 0.000004 -0.133389 -0.269379 0.381163
19 47.998001 0.000001 -0.000000 -0.095319 -0.263584 0.075473
20 50.215256 0.000000 0.000006 -0.079334 -0.166718 0.057290
21 41.153103 0.000001 0.000003 -0.038976 0.073811 -0.167312
22 66.351707 0.000007 0.000016 -0.017582 0.195566 -0.125974
23 0.000000 0.000000 0.000000 -1.510698 -1.533483 0.110435
24 28.849089 1.010444 -0.297456 -0.045408 -0.074353 0.176582
25 -29.609198 4.648997 -12.582949 -2.539570 0.352995 -3.093668
26 85.581314 -0.000007 0.000000 -0.000000 -0.000000 -0.001145
27 53.650108 -0.000002 -0.000009 0.000000 -0.000000 0.284335
28 33.201393 -0.000005 0.000010 -0.076778 0.242383 -0.411862
29 21.348543 28.691189 0.000009 0.323810 -0.377093 2.043519
30 -27.344629 3.269058 17.786816 3.123006 -0.377999 2.322191
31 85.581291 -0.000009 0.000009 0.000000 0.000000 -1.160293
32 53.650097 0.000004 0.000000 -0.000000 0.000000 1.004096
33 33.201397 -0.000003 -0.000001 -0.251227 -0.342870 -0.052469
34 21.348545 28.691175 0.000003 -0.003844 0.023556 1.664639
35 32.395603 -0.057270 -0.004032 0.069266 -0.167629 0.219613
36 67.584587 6.189994 -0.000331 0.024332 -0.200723 0.803360
37 -20.707634 5.409029 -28.505543 1.458452 0.494036 -2.389513
38 38.227757 0.000001 0.000000 -0.061517 -0.721785 0.187671
39 89.093887 0.000001 0.000000 0.000000 0.000000 -0.335546
40 59.561531 -0.000009 0.000000 -0.006820 0.370726 -0.399422
41 31.086214 -3.122442 -0.002490 -0.028628 -0.203332 0.131810
42 11.272793 -0.349162 24.738407 -2.983559 -0.794496 1.739975
43 -7.636262 7.047614 34.098289 -1.463640 -1.046952 -2.578105
44 38.227760 0.000008 -0.000019 -0.234923 0.179714 -0.123337
45 89.093887 0.000001 0.000018 -0.000000 -0.000000 -0.407342
46 59.561508 0.000000 0.000000 -0.904908 0.113249 -0.238424
47 31.086210 -3.122421 0.002492 -0.072061 0.184462 0.010310
48 11.272788 -0.349162 -24.738400 3.059809 0.804863 1.809380
49 15.788344 -0.000000 0.000000 -0.103434 0.151454 0.144530
time 16
0 0.000000 0.000000 0.000000 1.570796 -0.000000 0.000000
1 0.000000 0.000000 0.000001 0.000000 -0.000000 0.000000
2 1.834045 168.814423 53.646156 0.878215 -0.998588 -2.400703
3 -27.514357 17.090467 22.904945 -1.643076 0.522204 2.882560
4 38.339050 0.036428 0.000000 -0.074623 -0.231047 0.466255
5 40.888329 0.025433 -0.000004 -0.160469 -0.488829 -0.021901
6 37.840912 0.015298 0.000006 -0.163801 -0.363626 -0.104884
7 48.571712 0.685623 -0.000028 -0.259923 -0.145633 -0.500198
8 44.262012 0.465012 0.000044 -0.312524 0.121039 -0.057220
9 47.723766 0.024170 -0.000027 -0.189598 0.331759 0.360237
10 -26.517460 -15.956991 21.321764 -1.668422 0.062413 -2.368148
11 37.914185 -0.000000 0.000003 -0.192859 -0.341352 0.522478
12 41.189339 0.000000 0.000001 -0.175632 -0.369099 0.190328
13 38.203533 0.000000 0.000003 -0.076385 -0.230296 0.085369
14 50.162155 0.000231 0.000012 -0.084623 -0.003081 -0.395656
15 45.618233 -0.000011 -0.000015 -0.049835 0.195612 -0.157392
16 48.074070 -0.000020 0.000011 0.010471 0.294465 0.063915
17 -20.210398 11.855524 -14.683262 -1.548100 0.362181 -2.845563
18 43.390297 0.000000 0.000004 -0.054469 -0.261411 0.200098
19 47.998001 0.000001 -0.000000 -0.086263 -0.369134 0.132164
20 50.215260 0.000000 0.000006 -0.104326 -0.326676 0.229570
21 41.153103 0.000001 0.000003 0.004022 0.035466 -0.051929
22 66.351707 0.000007 0.000016 0.008403 0.277982 -0.016102
23 0.000000 0.000000 0.000000 -1.502057 -1.533252 0.108195
24 28.848030 0.989457 -0.135072 -0.125965 -0.079720 0.056392
25 -29.859804 2.606360 -12.726757 -2.600290 0.382928 -3.064387
26 85.581306 -0.000002 -0.000005 0.000000 0.000000 -0.001145
27 53.650105 0.000002 -0.000007 -0.000000 -0.000000 0.221267
28 33.201397 0.000001 -0.000003 -0.190724 0.225783 -0.646925
29 21.348549 28.691179 -0.000002 0.272468 -0.380516 2.235368
30 -27.572887 -1.719049 17.476950 3.079982 -0.404635 2.482372
31 85.581299 -0.000001 -0.000000 0.000000 0.000000 -1.021149
32 53.650108 -0.000006 -0.000002 0.000000 0.000000 0.912300
33 33.201424 -0.000005 0.000002 -0.207774 -0.313528 -0.143147
34 21.348545 28.691175 0.000002 -0.010216 0.051353 1.664001
35 32.407116 -0.053357 0.001513 -0.021329 -0.118618 0.428534
36 67.584732 6.190150 -0.000281 0.022541 -0.198778 0.813932
37 -20.487349 5.749183 -28.600208 1.462876 0.538825 -2.405120
38 38.227757 0.000005 -0.000020 0.014645 -0.635766 0.044298
39 89.093887 -0.000006 0.000000 0.000000 0.000000 -0.144384
40 59.561539 0.000009 -0.000002 0.036604 0.360629 -0.339249
41 31.086205 -3.122438 -0.002484 -0.028401 -0.203574 0.130180
42 11.272793 -0.349162 24.738407 -2.983242 -0.794446 1.739514
43 -7.700770 7.137783 34.065269 -1.455306 -1.028826 -2.604717
44 38.227753 -0.000009 -0.000003 -0.374835 0.149457 -0.003336
45 89.093895 0.000006 -0.000000 -0.000000 -0.000000 -0.206330
46 59.561543 0.000003 -0.000004 -0.946757 0.172764 -0.235021
47 31.086197 -3.122449 0.002477 -0.072343 0.185732 0.009519
48 11.272788 -0.349162 -24.738400 3.060276 0.804685 1.809975
49 15.788316 -0.000004 -0.000000 -0.102671 -0.011548 -0.147722
time 17
0 0.000000 0.000000 0.000000 1.570796 -0.000000 0.000000
1 0.000000 0.000000 0.000001 0.000000 -0.000000 0.000000
2 2.216303 166.487167 45.023720 0.873127 -1.001393 -2.413415
3 -27.514357 17.090467 22.904945 -1.732008 0.545087 2.786666
4 38.339050 0.036428 0.000000 -0.037928 -0.172718 0.232268
5 40.888329 0.025433 -0.000004 -0.105142 -0.567736 -0.009342
6 37.840912 0.015298 0.000006 -0.093336 -0.538146 -0.062644
7 48.571709 0.685623 -0.000028 -0.170487 -0.327870 -0.514616
8 44.262012 0.465012 0.000044 -0.257403 0.070085 -0.093993
9 47.723766 0.024170 -0.000027 -0.153137 0.355109 0.496359
10 -26.517460 -15.956991 21.321764 -1.694383 0.127274 -2.423012
11 37.914185 -0.000000 0.000003 -0.098162 -0.320425 0.238587
12 41.189339 0.000000 0.000001 -0.152006 -0.507886 0.183169
13 38.203533 0.000000 0.000003 -0.069004 -0.360473 0.177318
14 50.162155 0.000231 0.000012 -0.082235 -0.084419 -0.325605
15 45.618233 -0.000011 -0.000015 -0.041815 0.279526 -0.113613
16 48.074070 -0.000020 0.000011 0.020765 0.401369 0.206917
17 -20.210398 11.855524 -14.683262 -1.648597 0.420657 -2.980693
18 43.390297 0.000000 0.000004 0.022776 -0.273075 -0.102074
19 47.998001 0.000001 -0.000000 -0.023372 -0.464244 0.078414
20 50.215260 0.000000 0.000006 -0.074999 -0.491736 0.328707
21 41.153103 0.000001 0.000003 0.064798 -0.057449 0.088524
22 66.351707 0.000007 0.000016 0.062216 0.274717 0.138968
23 0.000000 0.000000 0.000000 -1.496393 -1.532893 0.111343
24 28.847595 0.970097 -0.019654 -0.180125 -0.069697 0.019799
25 -29.898199 1.759372 -12.964098 -2.708005 0.486450 3.008555
26 85.581322 -0.000002 -0.000000 -0.000000 -0.000000 -0.523792
27 53.650120 0.000002 0.000001 0.000000 -0.000000 0.501004
28 33.201393 -0.000001 0.000004 -0.249357 0.258710 -0.708133
29 21.348543 28.691179 -0.000004 0.213265 -0.377111 2.296057
30 -27.670479 -3.731204 16.932766 3.100178 -0.444136 2.494766
31 85.581322 -0.000004 -0.000004 0.000000 0.000000 -1.032107
32 53.650105 0.000006 -0.000001 0.000000 -0.000000 1.045409
33 33.201397 -0.000004 -0.000001 -0.191969 -0.335253 -0.245391
34 21.348545 28.691175 0.000001 -0.018238 0.085813 1.663191
35 32.409370 -0.052190 0.004240 -0.070628 -0.076579 0.472293
36 67.584808 6.190234 -0.000245 0.019331 -0.199414 0.821712
37 -20.499769 5.944411 -28.549068 1.466347 0.612145 -2.415577
38 38.227749 0.000001 -0.000009 0.023612 -0.537995 0.004918
39 89.093887 0.000007 -0.000010 0.000000 0.000000 -0.033986
40 59.561527 -0.000001 0.000031 0.161941 0.364684 -0.274040
41 31.086195 -3.122435 -0.002477 -0.028020 -0.203781 0.127923
42 11.272793 -0.349162 24.738407 -2.982765 -0.794367 1.738827
43 -7.621105 7.166146 34.077187 -1.471649 -1.029930 -2.595982
44 38.227749 0.000005 -0.000010 -0.340968 0.098029 0.105028
45 89.093895 -0.000001 0.000001 -0.000000 -0.000000 -0.075986
46 59.561520 -0.000014 0.000000 -1.069017 0.161355 -0.175151
47 31.086199 -3.122453 0.002483 -0.072625 0.186817 0.008560
48 11.272788 -0.349162 -24.738400 3.060782 0.804492 1.810617
49 15.788313 -0.000009 0.000001 -0.081121 -0.062825 -0.314981
time 18
0 0.000000 0.000000 0.000000 1.570796 -0.000000 0.000000
1 0.000000 0.000000 0.000001 0.000000 -0.000000 0.000000
2 -2.094656 153.164886 36.438507 0.821395 -0.966094 -2.365262
3 -27.514357 17.090467 22.904945 -1.828425 0.613856 2.594481
4 38.339050 0.036428 0.000000 -0.042539 -0.139626 -0.095754
5 40.888329 0.025433 -0.000004 0.008528 -0.575012 -0.140270
6 37.840912 0.015298 0.000006 0.044071 -0.669353 0.011292
7 48.571709 0.685623 -0.000028 -0.038691 -0.508538 -0.423189
8 44.262012 0.465012 0.000044 -0.165172 -0.059020 -0.110530
9 47.723766 0.024170 -0.000027 -0.079409 0.321555 0.484433
10 -26.517460 -15.956991 21.321764 -1.742315 0.244345 -2.524121
11 37.914185 -0.000000 0.000003 -0.014893 -0.211188 -0.100119
12 41.189339 0.000000 0.000001 -0.027275 -0.634092 -0.024324
13 38.203533 0.000000 0.000003 0.027857 -0.560259 0.161005
14 50.162155 0.000231 0.000012 -0.046295 -0.282714 -0.172636
15 45.618233 -0.000011 -0.000015 0.014309 0.259286 0.026283
16 48.074070 -0.000020 0.000011 0.124251 0.470171 0.345823
17 -20.210396 11.855524 -14.683262 -1.755665 0.511539 3.130814
18 43.390297 0.000000 0.000004 0.074784 -0.266509 -0.387494
19 47.998001 0.000001 -0.000000 0.113892 -0.546415 -0.138560
20 50.215260 0.000000 0.000006 0.040602 -0.657373 0.300906
21 41.153103 0.000001 0.000003 0.147653 -0.220802 0.251130
22 66.351707 0.000007 0.000016 0.153963 0.137106 0.359646
23 0.000000 0.000000 0.000000 -1.494849 -1.532472 0.119392
24 28.849442 0.952100 -0.005607 -0.205652 -0.040353 0.066003
25 -29.523422 3.645275 -13.408862 -2.817605 0.565012 2.720209
26 85.581291 0.000002 0.000009 0.000000 -0.000000 -1.062103
27 53.650108 0.000003 0.000000 -0.000000 0.000000 0.816799
28 33.201393 -0.000006 0.000015 -0.233472 0.355518 -0.518252
29 21.348551 28.691179 -0.000005 0.156564 -0.375158 2.163016
30 -28.103724 -2.666838 16.383678 -3.069271 -0.504847 2.286750
31 85.581306 0.000005 -0.000005 0.000000 -0.000000 -1.275087
32 53.650120 0.000003 0.000007 0.000000 -0.000000 1.273621
33 33.201397 0.000001 -0.000000 -0.214522 -0.420783 -0.349982
34 21.348545 28.691175 0.000001 -0.026808 0.122336 1.662312
35 32.399204 -0.055502 0.004194 -0.072501 -0.058455 0.296610
36 67.584839 6.190265 -0.000209 0.015585 -0.201194 0.828838
37 -20.529562 6.097378 -28.494940 1.467892 0.690775 -2.425894
38 38.227745 -0.000006 0.000001 -0.101981 -0.453106 0.083561
39 89.093872 -0.000003 0.000001 0.000000 0.000000 0.018375
40 59.561562 0.000007 -0.000016 0.403444 0.389016 -0.216323
41 31.086182 -3.122435 -0.002476 -0.026959 -0.204011 0.122488
42 11.272793 -0.349162 24.738407 -2.982114 -0.794257 1.737895
43 -7.507417 7.177186 34.100216 -1.488875 -1.036918 -2.583059
44 38.227757 0.000003 0.000002 -0.114532 -0.026650 0.195444
45 89.093887 -0.000002 -0.000004 -0.000000 0.000000 -0.035698
46 59.561523 -0.000004 -0.000000 -1.293510 0.113754 -0.032159
47 31.086195 -3.122434 0.002490 -0.072902 0.187614 0.007384
48 11.272788 -0.349162 -24.738400 3.061308 0.804291 1.811282
49 15.788317 -0.000014 0.000004 -0.077072 -0.015847 -0.354359
time 19
0 0.000000 0.000000 0.000000 1.570796 -0.000000 0.000000
1 0.000000 0.000000 0.000001 0.000000 -0.000000 0.000000
2 -8.088134 136.209106 28.033752 0.754317 -0.924732 -2.296665
3 -27.514357 17.090467 22.904945 -1.927320 0.705382 2.355662
4 38.339050 0.036428 0.000000 -0.062568 -0.118176 -0.348733
5 40.888329 0.025433 -0.000004 0.113910 -0.457565 -0.400132
6 37.840912 0.015298 0.000006 0.196437 -0.688028 -0.059759
7 48.571709 0.685623 -0.000028 0.163197 -0.641734 -0.359000
8 44.262009 0.465012 0.000044 -0.007874 -0.205362 -0.068823
9 47.723766 0.024170 -0.000027 -0.001637 0.180409 0.397786
10 -26.517460 -15.956991 21.321764 -1.804933 0.393548 -2.654881
11 37.914185 -0.000000 0.000003 0.008070 -0.073042 -0.331470
12 41.189339 0.000000 0.000001 0.172553 -0.552297 -0.403464
13 38.203533 0.000000 0.000003 0.193133 -0.742074 0.016675
14 50.162155 0.000231 0.000012 0.096574 -0.535857 -0.157234
15 45.618233 -0.000011 -0.000015 0.102333 0.065258 0.175636
16 48.074070 -0.000020 0.000011 0.237996 0.390678 0.462338
17 -20.210398 11.855524 -14.683262 -1.864371 0.610931 2.935740
18 43.390297 0.000000 0.000004 0.080034 -0.215365 -0.588000
19 47.998001 0.000001 -0.000000 0.227862 -0.523268 -0.397440
20 50.215260 0.000000 0.000006 0.217187 -0.710593 0.091869
21 41.153103 0.000001 0.000003 0.255257 -0.380959 0.278011
22 66.351707 0.000007 0.000016 0.228842 -0.039447 0.490738
23 0.000000 0.000000 0.000000 -1.498567 -1.532053 0.131852
24 28.852293 0.932251 -0.049949 -0.219115 -0.007285 0.136627
25 -28.861883 6.144162 -13.877129 -2.865774 0.606072 2.534714
26 85.581291 -0.000004 -0.000000 0.000000 0.000000 -1.431572
27 53.650093 -0.000008 0.000000 -0.000000 0.000000 1.057824
28 33.201397 0.000000 0.000009 -0.170467 0.453367 -0.269028
29 21.348549 28.691181 0.000009 0.098199 -0.380767 1.995115
30 -28.540255 -0.615309 15.880151 -2.932589 -0.570000 2.057479
31 85.581306 -0.000004 0.000009 0.000000 -0.000000 -1.504106
32 53.650108 -0.000003 0.000009 0.000000 -0.000000 1.556254
33 33.201397 -0.000000 -0.000010 -0.238326 -0.517527 -0.442588
34 21.348547 28.691181 -0.000004 -0.034822 0.156326 1.661484
35 32.386967 -0.058653 0.003783 -0.066818 -0.044985 0.101308
36 67.584877 6.190300 -0.000187 0.011804 -0.204001 0.835141
37 -20.573845 6.243388 -28.431427 1.462657 0.776644 -2.443093
38 38.227757 -0.000004 -0.000017 -0.238324 -0.384108 0.179614
39 89.093903 -0.000001 0.000018 -0.000000 0.000000 0.047761
40 59.561535 0.000018 0.000000 0.645355 0.396910 -0.153207
41 31.086166 -3.122447 -0.002492 -0.025362 -0.204251 0.114561
42 11.272793 -0.349162 24.738407 -2.981272 -0.794112 1.736697
43 -7.367559 7.173552 34.130905 -1.498982 -1.056981 -2.574005
44 38.227749 0.000000 0.000000 0.155314 -0.172641 0.240244
45 89.093903 -0.000007 -0.000018 0.000000 0.000000 -0.047464
46 59.561543 -0.000000 0.000018 -1.537071 0.079860 0.128566
47 31.086184 -3.122403 0.002474 -0.073167 0.188020 0.005946
48 11.272788 -0.349162 -24.738400 3.061835 0.804091 1.811948
49 15.788318 -0.000018 -0.000000 -0.084808 0.070764 -0.348990
end
