version 1
nodes
0 "b_046" -1
1 "S_GC" 0
2 "Bip001" 1
3 "Bone007(mirrored)" 2
4 "Bone008(mirrored)" 3
5 "Bone009(mirrored)" 4
6 "Bone010(mirrored)" 5
7 "Bone011(mirrored)" 6
8 "Bone012(mirrored)" 7
9 "Bone013(mirrored)" 8
10 "Bone007" 2
11 "Bone008" 10
12 "Bone009" 11
13 "Bone010" 12
14 "Bone011" 13
15 "Bone012" 14
16 "Bone013" 15
17 "Bone001" 2
18 "Bone002" 17
19 "Bone003" 18
20 "Bone004" 19
21 "Bone005" 20
22 "Bone006" 21
23 "Bip001 Pelvis" 2
24 "Bip001 Spine" 23
25 "Bip001 R Thigh" 24
26 "Bip001 R Calf" 25
27 "Bip001 R HorseLink" 26
28 "Bip001 R Foot" 27
29 "Bip001 R Toe0" 28
30 "Bip001 L Thigh" 24
31 "Bip001 L Calf" 30
32 "Bip001 L HorseLink" 31
33 "Bip001 L Foot" 32
34 "Bip001 L Toe0" 33
35 "Bip001 Spine1" 24
36 "Bip001 Neck" 35
37 "Bip001 R Clavicle" 36
38 "Bip001 R UpperArm" 37
39 "Bip001 R Forearm" 38
40 "Bip001 R Hand" 39
41 "Bip001 R Finger1" 40
42 "Bip001 R Finger0" 40
43 "Bip001 L Clavicle" 36
44 "Bip001 L UpperArm" 43
45 "Bip001 L Forearm" 44
46 "Bip001 L Hand" 45
47 "Bip001 L Finger1" 46
48 "Bip001 L Finger0" 46
49 "Bip001 Head" 36
end
skeleton
time 0
0 0.000000 0.000000 0.000000 1.570796 -0.000000 0.000000
1 0.000000 0.000000 0.000001 0.000000 -0.000000 0.000000
2 -4.835229 127.453560 -16.400871 -2.038774 -1.550582 0.467960
3 -27.514357 17.090467 22.904945 -1.948555 0.836353 1.727511
4 38.339050 0.036428 0.000000 -0.007891 0.278455 0.045314
5 40.888332 0.025434 -0.000004 0.064039 -0.064938 -0.407696
6 37.840912 0.015298 0.000006 0.135656 -0.304585 -0.386370
7 48.571712 0.685621 -0.000027 0.188549 -0.294327 -0.887151
8 44.262009 0.465012 0.000043 0.113401 -0.179418 -0.564539
9 47.723766 0.024173 -0.000024 0.044954 -0.031966 0.001010
10 -26.517460 -15.956991 21.321764 -1.853116 0.739066 -2.935302
11 37.914181 -0.000000 0.000003 -0.010348 0.045964 0.248712
12 41.189339 0.000000 0.000001 0.007316 -0.109342 -0.454561
13 38.203533 0.000001 0.000003 0.053858 -0.257115 -0.428296
14 50.162155 0.000231 0.000012 0.112193 -0.269906 -0.964668
15 45.618233 -0.000011 -0.000014 0.045731 -0.169030 -0.571064
16 48.074070 -0.000019 0.000010 -0.011873 0.002565 0.019920
17 -20.210398 11.855524 -14.683262 -1.948307 0.859607 2.291146
18 43.390297 -0.000000 0.000004 0.018166 0.183097 -0.203362
19 47.998001 0.000001 -0.000000 0.105093 -0.161298 -0.477453
20 50.215256 -0.000000 0.000006 0.187496 -0.444886 -0.420113
21 41.153103 0.000001 0.000003 0.133263 -0.285092 -0.215664
22 66.351707 0.000006 0.000013 0.071930 -0.241595 0.237149
23 0.000000 0.000000 0.000000 2.867634 -1.543064 1.199378
24 28.807007 1.833900 0.546872 0.135580 -0.017923 0.288318
25 -28.488066 4.652701 -15.692724 -3.086006 0.644889 2.440681
26 85.581291 0.000002 0.000000 -0.000000 0.000000 -1.834418
27 53.650097 0.000003 -0.000003 -0.000000 0.000000 1.435775
28 33.201393 -0.000008 -0.000001 0.016522 0.506348 -0.237461
29 21.348547 28.691187 0.000006 -0.077587 -0.274556 1.697981
30 -27.550734 8.832066 14.561230 2.825833 -0.835049 2.147314
31 85.581299 0.000011 0.000000 -0.000000 -0.000000 -1.504436
32 53.650116 0.000001 -0.000004 0.000000 0.000000 1.468812
33 33.201397 -0.000001 -0.000002 0.209724 -0.319027 -0.992149
34 21.348547 28.691172 -0.000002 -0.002335 0.010938 1.664775
35 32.418339 -0.044589 0.013239 -0.226964 -0.085267 0.696562
36 67.584427 6.190042 -0.002036 0.189800 -0.444376 0.716339
37 -26.837395 0.922174 -23.365002 0.602783 0.915678 2.904690
38 38.227760 -0.000000 0.000003 0.982989 -0.740980 -0.525428
39 89.093887 0.000001 -0.000002 -0.000000 -0.000000 -1.191512
40 59.561516 0.000000 0.000002 1.567709 -0.128606 -0.072529
41 31.086206 -3.122448 -0.002489 -0.113734 -0.171693 0.579533
42 11.272802 -0.349162 24.738401 -2.714998 -0.701504 1.346595
43 -0.233709 11.197424 33.845631 -0.270404 -1.554440 2.627205
44 38.227753 -0.000004 0.000004 -1.026195 0.795482 -0.300367
45 89.093910 0.000001 0.000004 0.000000 -0.000000 -1.094956
46 59.561527 0.000006 -0.000001 -1.452179 0.101833 -0.172680
47 31.086199 -3.122461 0.002487 -0.012051 0.093021 0.356494
48 11.272789 -0.349162 -24.738411 2.859406 0.758243 1.524025
49 15.788319 0.000005 0.000002 -0.235686 -0.123606 0.026138
time 1
0 0.000000 0.000000 0.000000 1.570796 -0.000000 0.000000
1 0.000000 0.000000 0.000001 0.000000 -0.000000 0.000000
2 -9.836965 122.590981 -34.222256 -2.388875 -1.525652 0.818123
3 -27.514357 17.090467 22.904945 -1.914572 0.936076 1.760099
4 38.339050 0.036428 0.000000 -0.010750 0.458943 -0.016373
5 40.888332 0.025435 -0.000004 0.082816 0.091864 -0.429107
6 37.840912 0.015298 0.000006 0.191189 -0.321754 -0.399666
7 48.571712 0.685621 -0.000026 0.303753 -0.349298 -0.879803
8 44.262009 0.465012 0.000043 0.159437 -0.188160 -0.572839
9 47.723766 0.024172 -0.000023 0.066357 -0.027350 -0.034693
10 -26.517460 -15.956991 21.321764 -1.815262 0.836512 -2.893750
11 37.914181 -0.000000 0.000003 -0.003820 0.105713 0.295514
12 41.189339 0.000000 0.000001 0.008583 -0.084712 -0.566046
13 38.203533 0.000001 0.000003 0.077484 -0.275252 -0.566681
14 50.162159 0.000233 0.000011 0.136409 -0.280152 -1.037783
15 45.618233 -0.000011 -0.000013 0.045260 -0.165649 -0.528586
16 48.074070 -0.000019 0.000010 -0.010862 0.021452 0.089937
17 -20.210398 11.855524 -14.683262 -1.912742 0.959356 2.325078
18 43.390297 -0.000000 0.000004 0.013422 0.350215 -0.253746
19 47.998001 0.000001 0.000000 0.115355 -0.041009 -0.542072
20 50.215256 -0.000001 0.000006 0.284928 -0.475129 -0.532379
21 41.153103 0.000001 0.000003 0.220223 -0.394982 -0.255439
22 66.351707 0.000006 0.000013 0.101654 -0.432092 0.228481
23 0.000000 0.000000 0.000000 2.751598 -1.538836 1.248706
24 28.810255 1.766355 0.618016 0.077039 -0.039278 0.305194
25 -28.753325 6.558654 -14.476967 3.073128 0.577861 2.305022
26 85.581314 0.000005 0.000000 0.000000 0.000000 -2.025503
27 53.650101 0.000002 0.000005 0.000000 -0.000000 1.645437
28 33.201405 0.000002 -0.000009 -0.023671 0.428551 -0.380239
29 21.348547 28.691189 0.000002 -0.019074 -0.294173 1.671663
30 -26.943697 8.671820 15.705025 2.747933 -0.965140 2.152536
31 85.581314 0.000005 -0.000002 -0.000000 -0.000000 -1.337246
32 53.650101 0.000000 -0.000002 -0.000000 0.000000 1.354831
33 33.201401 -0.000011 0.000007 0.245573 -0.307403 -1.126150
34 21.348549 28.691177 -0.000000 -0.003545 0.016967 1.664694
35 32.419369 -0.042851 0.016017 -0.277137 0.032559 0.705994
36 67.584488 6.190231 -0.002476 0.240147 -0.560413 0.682170
37 -29.661407 -0.137764 -19.771587 0.674018 0.790531 2.958519
38 38.227749 -0.000001 0.000001 0.798843 -0.616314 -0.316382
39 89.093903 -0.000002 -0.000001 -0.000000 -0.000000 -1.290539
40 59.561531 -0.000001 -0.000009 1.683607 -0.111266 -0.145032
41 31.086201 -3.122440 -0.002490 -0.158048 -0.131495 0.872857
42 11.272802 -0.349162 24.738401 -2.584023 -0.621254 1.139515
43 4.009377 12.532827 33.106667 1.794976 -1.410617 0.576993
44 38.227757 -0.000009 -0.000001 -1.012107 0.694635 -0.150480
45 89.093887 0.000001 0.000010 0.000000 0.000000 -0.960888
46 59.561543 -0.000001 0.000000 -1.421335 0.129187 -0.070715
47 31.086197 -3.122448 0.002490 0.014422 0.131847 0.513555
48 11.272789 -0.349162 -24.738411 2.693321 0.692903 1.275601
49 15.788305 -0.000021 0.000002 -0.203106 -0.191880 0.072827
time 2
0 0.000000 0.000000 0.000000 1.570796 -0.000000 0.000000
1 0.000000 0.000000 0.000001 0.000000 -0.000000 0.000000
2 -14.594564 118.683281 -49.964134 -2.719519 -1.505373 1.148750
3 -27.514357 17.090467 22.904945 -1.877635 1.025540 1.803299
4 38.339050 0.036428 0.000000 0.003219 0.499832 0.006863
5 40.888332 0.025436 -0.000004 0.065896 0.226134 -0.428696
6 37.840912 0.015298 0.000006 0.189019 -0.176694 -0.407352
7 48.571712 0.685621 -0.000026 0.380023 -0.335917 -0.876959
8 44.262009 0.465014 0.000042 0.265536 -0.224667 -0.571415
9 47.723766 0.024173 -0.000023 0.124898 -0.070835 -0.068153
10 -26.517460 -15.956991 21.321764 -1.775558 0.923499 -2.843743
11 37.914181 -0.000000 0.000004 0.005373 0.106409 0.363582
12 41.189339 0.000000 0.000001 -0.005814 -0.010266 -0.543385
13 38.203533 0.000001 0.000003 0.093804 -0.255387 -0.724954
14 50.162159 0.000233 0.000011 0.172296 -0.278745 -1.122907
15 45.618233 -0.000011 -0.000012 0.054501 -0.168145 -0.546745
16 48.074070 -0.000018 0.000009 -0.001598 0.002755 0.070060
17 -20.210398 11.855524 -14.683262 -1.874003 1.048801 2.369713
18 43.390297 -0.000000 0.000004 0.027091 0.398919 -0.214105
19 47.998001 0.000001 0.000000 0.108570 0.083665 -0.565443
20 50.215256 -0.000001 0.000006 0.295191 -0.343385 -0.615997
21 41.153103 0.000001 0.000003 0.301572 -0.468775 -0.341207
22 66.351707 0.000006 0.000013 0.225920 -0.633889 0.053944
23 0.000000 0.000000 0.000000 2.689424 -1.538085 1.257002
24 28.812765 1.706477 0.694904 0.019413 -0.057404 0.316917
25 -28.970667 7.874932 -13.648035 3.030241 0.504960 2.260311
26 85.581284 0.000002 -0.000002 0.000000 -0.000000 -2.118998
27 53.650097 0.000002 -0.000001 0.000000 -0.000000 1.848896
28 33.201405 0.000005 -0.000006 -0.039596 0.397704 -0.485802
29 21.348547 28.691175 -0.000010 -0.014776 -0.296425 1.629896
30 -26.441240 8.161076 16.724052 2.609195 -1.063301 2.246094
31 85.581314 0.000001 -0.000001 -0.000000 -0.000000 -1.104257
32 53.650097 0.000011 0.000000 -0.000000 0.000000 1.219327
33 33.201397 -0.000004 -0.000001 0.261836 -0.310834 -1.205139
34 21.348545 28.691175 0.000002 -0.004760 0.023020 1.664614
35 32.420418 -0.040973 0.018217 -0.319198 0.143327 0.706049
36 67.584526 6.190406 -0.002863 0.272935 -0.634087 0.647644
37 -31.566116 -0.910689 -16.477859 0.724854 0.688300 3.001423
38 38.227749 0.000016 -0.000019 0.709170 -0.454942 -0.162370
39 89.093910 -0.000003 -0.000001 -0.000000 -0.000000 -1.347382
40 59.561543 0.000009 -0.000014 1.810933 -0.096462 -0.208867
41 31.086199 -3.122438 -0.002496 -0.173770 -0.112815 0.991623
42 11.272802 -0.349162 24.738401 -2.577578 -0.617211 1.129233
43 7.546358 13.608110 32.072788 1.483635 -1.275088 0.912820
44 38.227757 0.000000 0.000007 -0.953928 0.600949 -0.007304
45 89.093895 -0.000000 -0.000005 0.000000 -0.000000 -0.871268
46 59.561543 -0.000001 0.000004 -1.404584 0.138036 0.012283
47 31.086197 -3.122437 0.002492 0.038136 0.154545 0.634089
48 11.272789 -0.349162 -24.738411 2.572712 0.597572 1.072286
49 15.788319 0.000012 0.000004 -0.175853 -0.250043 0.139241
time 3
0 0.000000 0.000000 0.000000 1.570796 -0.000000 0.000000
1 0.000000 0.000000 0.000001 0.000000 -0.000000 0.000000
2 -18.622433 117.745514 -59.330097 -3.009954 -1.499480 1.438929
3 -27.514357 17.090467 22.904945 -1.855506 1.006686 1.854120
4 38.339050 0.036428 0.000000 0.020597 0.424652 0.097567
5 40.888332 0.025437 -0.000004 0.026609 0.338586 -0.409644
6 37.840912 0.015298 0.000006 0.139004 -0.004328 -0.407712
7 48.571709 0.685618 -0.000026 0.345289 -0.199313 -0.891019
8 44.262009 0.465014 0.000042 0.347200 -0.230805 -0.581527
9 47.723766 0.024173 -0.000022 0.184973 -0.125546 -0.083652
10 -26.517460 -15.956991 21.321764 -1.754741 0.902183 -2.796666
11 37.914181 -0.000000 0.000004 0.015686 0.072187 0.445808
12 41.189339 0.000000 0.000001 -0.010034 0.031556 -0.358269
13 38.203533 0.000001 0.000003 0.071289 -0.205347 -0.781903
14 50.162159 0.000233 0.000010 0.176900 -0.259275 -1.240177
15 45.618233 -0.000011 -0.000011 0.083307 -0.181430 -0.667854
16 48.074070 -0.000018 0.000009 0.013893 -0.042147 -0.008586
17 -20.210398 11.855524 -14.683262 -1.850738 1.029657 2.421236
18 43.390297 -0.000000 0.000004 0.046398 0.349632 -0.100186
19 47.998001 0.000001 0.000001 0.071686 0.201120 -0.512177
20 50.215256 -0.000001 0.000006 0.240894 -0.138883 -0.649720
21 41.153103 0.000001 0.000003 0.329926 -0.417386 -0.471954
22 66.351707 0.000005 0.000012 0.397678 -0.756271 -0.223479
23 0.000000 0.000000 0.000000 2.757012 -1.545796 1.166697
24 28.805546 1.754013 0.852099 -0.035399 -0.066012 0.313043
25 -29.148571 8.065903 -13.533243 3.078103 0.418914 2.306077
26 85.581314 0.000007 0.000000 0.000000 0.000000 -2.088118
27 53.650116 0.000004 0.000009 0.000000 -0.000000 1.972652
28 33.201408 0.000001 -0.000008 -0.018437 0.437776 -0.479345
29 21.348551 28.691187 0.000009 -0.104565 -0.296191 1.562049
30 -26.602837 6.881372 16.907658 2.512652 -1.117800 2.359002
31 85.581299 -0.000000 0.000009 -0.000000 -0.000000 -0.925240
32 53.650097 -0.000000 0.000000 -0.000000 -0.000000 1.046615
33 33.201389 0.000003 -0.000004 0.259816 -0.329661 -1.231684
34 21.348547 28.691181 0.000004 -0.006017 0.029331 1.664536
35 32.421070 -0.039798 0.019486 -0.350173 0.245187 0.691803
36 67.584389 6.190297 -0.002966 0.294947 -0.680601 0.612398
37 -32.508717 -1.376693 -14.617321 0.759375 0.610042 3.038548
38 38.227764 0.000008 0.000001 0.643039 -0.348652 -0.040907
39 89.093910 -0.000003 0.000035 -0.000000 -0.000000 -1.349400
40 59.561550 0.000018 -0.000018 1.960442 -0.085038 -0.251537
41 31.086203 -3.122443 -0.002475 -0.172425 -0.112614 0.987962
42 11.272802 -0.349162 24.738401 -2.628679 -0.644401 1.208105
43 8.632891 13.496181 31.879072 1.480227 -1.200049 0.954226
44 38.227760 0.000000 -0.000000 -0.863031 0.513877 0.121199
45 89.093887 0.000001 0.000000 0.000000 -0.000000 -0.825406
46 59.561531 0.000004 0.000000 -1.417714 0.109232 0.057749
47 31.086203 -3.122431 0.002490 0.060993 0.168079 0.736519
48 11.272789 -0.349162 -24.738411 2.495140 0.520935 0.933838
49 15.788311 -0.000000 0.000004 -0.161781 -0.281186 0.265135
time 4
0 0.000000 0.000000 0.000000 1.570796 -0.000000 0.000000
1 0.000000 0.000000 0.000001 0.000000 -0.000000 0.000000
2 -21.839575 120.106941 -61.612988 3.094998 -1.525376 1.616392
3 -27.514357 17.090467 22.904945 -1.846391 0.896043 1.910621
4 38.339050 0.036428 0.000000 0.008974 0.268210 0.227097
5 40.888332 0.025438 -0.000005 -0.005146 0.364817 -0.314990
6 37.840912 0.015298 0.000006 0.053974 0.174168 -0.401848
7 48.571712 0.685616 -0.000026 0.259494 -0.021097 -0.900439
8 44.262009 0.465013 0.000041 0.337455 -0.151609 -0.627276
9 47.723766 0.024174 -0.000021 0.242407 -0.185038 -0.083371
10 -26.517460 -15.956991 21.321764 -1.749434 0.789071 -2.752824
11 37.914181 -0.000000 0.000004 0.026963 0.041099 0.514122
12 41.189339 0.000000 0.000001 -0.007283 0.007203 -0.081221
13 38.203541 0.000000 0.000003 0.020403 -0.148352 -0.595043
14 50.162159 0.000233 0.000010 0.145778 -0.225278 -1.348788
15 45.618233 -0.000011 -0.000010 0.114106 -0.198074 -0.850806
16 48.074070 -0.000017 0.000008 0.026610 -0.087732 -0.149007
17 -20.210398 11.855524 -14.683262 -1.841091 0.918496 2.477842
18 43.390297 -0.000000 0.000004 0.040955 0.232866 0.071938
19 47.998001 0.000001 0.000001 0.041632 0.251033 -0.352854
20 50.215256 -0.000002 0.000006 0.141975 0.054604 -0.580379
21 41.153103 0.000001 0.000003 0.322381 -0.309040 -0.602835
22 66.351700 0.000005 0.000012 0.541029 -0.598581 -0.623266
23 0.000000 0.000000 0.000000 -2.328345 -1.569913 0.000000
24 28.738125 2.328655 1.305170 -0.084239 -0.052604 0.274546
25 -28.868931 6.688828 -14.790522 3.090402 0.421288 2.399696
26 85.581306 0.000001 0.000008 0.000000 0.000000 -2.001220
27 53.650116 0.000001 0.000009 0.000000 -0.000000 1.929907
28 33.201397 -0.000000 -0.000003 -0.004139 0.437446 -0.425962
29 21.348547 28.691175 -0.000005 -0.126326 -0.285087 1.564155
30 -27.711037 4.136584 15.431937 2.548466 -1.093429 2.466051
31 85.581291 -0.000003 -0.000001 0.000000 -0.000000 -0.799269
32 53.650097 -0.000002 0.000001 -0.000000 -0.000000 0.853739
33 33.201397 -0.000005 -0.000001 0.223752 -0.392619 -1.145578
34 21.348547 28.691181 0.000005 -0.007365 0.036200 1.664465
35 32.421185 -0.039605 0.019638 -0.366172 0.331613 0.664620
36 67.584076 6.189941 -0.002813 0.293186 -0.690709 0.585748
37 -32.205791 -1.363997 -15.132950 0.786316 0.591932 3.100124
38 38.227768 -0.000001 0.000000 0.587303 -0.323626 0.105978
39 89.093933 -0.000005 -0.000015 -0.000000 -0.000000 -1.311263
40 59.561550 0.000006 -0.000008 2.157234 -0.105952 -0.306071
41 31.086195 -3.122450 -0.002483 -0.150802 -0.139571 0.821486
42 11.272802 -0.349162 24.738401 -2.705243 -0.687025 1.327114
43 8.313009 12.676818 32.333469 1.649133 -1.164012 0.830966
44 38.227757 0.000001 0.000015 -0.789628 0.445462 0.141103
45 89.093887 0.000001 -0.000001 -0.000000 -0.000000 -0.877040
46 59.561527 0.000009 0.000015 -1.463107 0.040771 0.066458
47 31.086208 -3.122425 0.002486 0.080382 0.176664 0.819029
48 11.272789 -0.349162 -24.738411 2.466217 0.491883 0.881243
49 15.788314 0.000016 -0.000006 -0.176842 -0.259809 0.483882
time 5
0 0.000000 0.000000 0.000000 1.570796 -0.000000 0.000000
1 0.000000 0.000000 0.000001 0.000000 -0.000000 0.000000
2 -24.432781 124.028099 -59.800388 -0.059361 -1.542341 -1.513979
3 -27.514357 17.090467 22.904945 -1.834704 0.768123 1.975626
4 38.339050 0.036428 0.000000 -0.015590 0.106295 0.345865
5 40.888329 0.025439 -0.000005 -0.026722 0.286464 -0.137981
6 37.840912 0.015298 0.000006 -0.004597 0.271021 -0.324065
7 48.571712 0.685616 -0.000025 0.125378 0.159198 -0.887538
8 44.262005 0.465016 0.000040 0.281044 -0.029669 -0.683245
9 47.723766 0.024174 -0.000021 0.265065 -0.189822 -0.136272
10 -26.517460 -15.956991 21.321764 -1.746625 0.658663 -2.702794
11 37.914181 -0.000000 0.000004 0.038575 0.030350 0.553502
12 41.189339 0.000000 0.000001 -0.008392 -0.041517 0.127834
13 38.203541 0.000000 0.000003 -0.009030 -0.129699 -0.259844
14 50.162159 0.000233 0.000009 0.085788 -0.202548 -1.214186
15 45.618233 -0.000011 -0.000009 0.116868 -0.206366 -1.090340
16 48.074070 -0.000017 0.000008 0.029217 -0.118894 -0.380588
17 -20.210398 11.855524 -14.683262 -1.828624 0.790017 2.542894
18 43.390297 -0.000000 0.000004 0.024213 0.117248 0.212510
19 47.998001 0.000001 0.000001 0.029859 0.200459 -0.133015
20 50.215256 -0.000002 0.000006 0.058357 0.186549 -0.394049
21 41.153103 0.000001 0.000003 0.221546 -0.118675 -0.670097
22 66.351700 0.000004 0.000012 0.409711 -0.224488 -0.849250
23 0.000000 0.000000 0.000000 0.457200 -1.536646 -2.717010
24 28.622000 3.198532 1.888774 -0.124076 -0.003901 0.182027
25 -28.156979 4.042719 -17.246315 3.105698 0.434461 2.505646
26 85.581291 0.000006 -0.000001 0.000000 0.000000 -1.900822
27 53.650108 -0.000003 -0.000001 0.000000 0.000000 1.824808
28 33.201397 -0.000007 -0.000010 0.010596 0.440868 -0.369463
29 21.348549 28.691179 -0.000015 -0.147266 -0.273371 1.567829
30 -29.086432 0.261922 12.735240 2.654099 -1.031788 2.556754
31 85.581299 -0.000004 -0.000003 0.000000 -0.000000 -0.723462
32 53.650105 -0.000001 0.000001 -0.000000 -0.000000 0.651338
33 33.201401 -0.000001 -0.000002 0.144841 -0.505381 -0.925005
34 21.348545 28.691179 0.000005 -0.009045 0.044944 1.664399
35 32.421200 -0.039643 0.019547 -0.366051 0.398656 0.626402
36 67.583717 6.189508 -0.002472 0.248777 -0.642531 0.576592
37 -31.264145 -1.077449 -16.968712 0.805562 0.621153 -3.102216
38 38.227764 0.000000 0.000010 0.532134 -0.323750 0.299841
39 89.093903 -0.000011 0.000003 -0.000000 -0.000000 -1.242905
40 59.561516 -0.000016 -0.000009 2.393362 -0.153629 -0.373826
41 31.086191 -3.122455 -0.002491 -0.115881 -0.169201 0.594095
42 11.272802 -0.349162 24.738401 -2.792135 -0.733154 1.461251
43 6.834455 11.260199 33.073410 1.726269 -1.143394 0.799791
44 38.227757 -0.000004 -0.000012 -0.739387 0.399829 0.030730
45 89.093903 -0.000000 0.000009 -0.000000 -0.000000 -1.025517
46 59.561531 0.000002 0.000009 -1.517163 -0.041105 0.056793
47 31.086208 -3.122421 0.002484 0.091939 0.181869 0.870591
48 11.272789 -0.349162 -24.738411 2.460629 0.480278 0.867270
49 15.788312 -0.000001 0.000005 -0.229917 -0.191246 0.716128
time 6
0 0.000000 0.000000 0.000000 1.570796 -0.000000 0.000000
1 0.000000 0.000000 0.000001 0.000000 -0.000000 0.000000
2 -26.115604 130.103867 -52.179813 -0.019470 -1.445326 -1.555808
3 -27.514357 17.090467 22.904945 -1.818480 0.650477 2.047996
4 38.339050 0.036428 0.000000 -0.046005 -0.014193 0.415936
5 40.888329 0.025440 -0.000005 -0.041239 0.177465 -0.000427
6 37.840912 0.015298 0.000006 -0.025766 0.265276 -0.150154
7 48.571712 0.685616 -0.000025 -0.024615 0.328259 -0.830363
8 44.262005 0.465018 0.000040 0.164845 0.133921 -0.726183
9 47.723766 0.024175 -0.000020 0.233720 -0.108414 -0.271908
10 -26.517460 -15.956991 21.321764 -1.747162 0.538105 -2.645008
11 37.914181 -0.000000 0.000004 0.051555 0.035240 0.564222
12 41.189339 0.000000 0.000001 -0.001934 -0.060006 0.222942
13 38.203545 0.000000 0.000003 -0.013682 -0.142305 0.015073
14 50.162159 0.000233 0.000009 0.027447 -0.180944 -0.815010
15 45.618233 -0.000011 -0.000008 0.099302 -0.209507 -1.216976
16 48.074070 -0.000017 0.000008 0.027962 -0.144480 -0.688673
17 -20.210398 11.855524 -14.683262 -1.810912 0.671984 2.615440
18 43.390297 -0.000000 0.000004 0.001505 0.035540 0.279613
19 47.998001 0.000001 0.000001 0.018168 0.112531 0.038638
20 50.215256 -0.000003 0.000006 0.029159 0.188016 -0.071819
21 41.153103 0.000001 0.000003 0.103307 0.086689 -0.540131
22 66.351700 0.000004 0.000011 0.118315 0.246960 -0.782986
23 0.000000 0.000000 0.000000 0.903022 -1.502434 -3.081673
24 28.535929 3.734015 2.237679 -0.159116 0.053423 0.069137
25 -27.436453 1.304489 -19.515789 3.137343 0.453638 2.620000
26 85.581306 -0.000003 0.000002 0.000000 0.000000 -1.792248
27 53.650116 0.000008 -0.000000 -0.000000 0.000000 1.700811
28 33.201393 0.000002 0.000008 0.024303 0.444229 -0.312590
29 21.348549 28.691181 0.000007 -0.162600 -0.263409 1.574456
30 -29.483126 -3.522220 10.657324 2.847735 -0.960135 2.556393
31 85.581314 -0.000002 -0.000004 0.000000 -0.000000 -0.720390
32 53.650108 0.000006 -0.000007 0.000000 -0.000000 0.466537
33 33.201397 -0.000013 0.000004 0.033325 -0.599695 -0.673450
34 21.348545 28.691179 0.000004 -0.011903 0.060152 1.664323
35 32.420479 -0.040621 0.018866 -0.350223 0.447159 0.577998
36 67.583282 6.188981 -0.001852 0.172820 -0.547586 0.580301
37 -30.000713 -0.561582 -19.237829 0.825995 0.672113 -3.012593
38 38.227760 -0.000003 -0.000001 0.496411 -0.357148 0.447493
39 89.093887 0.000014 -0.000032 0.000000 -0.000000 -1.115072
40 59.561550 0.000015 -0.000018 2.604451 -0.158465 -0.390119
41 31.086191 -3.122455 -0.002493 -0.070538 -0.191377 0.345950
42 11.272802 -0.349162 24.738401 -2.882064 -0.772904 1.596730
43 3.566387 8.911863 34.241257 1.676842 -1.157350 0.896494
44 38.227757 0.000002 0.000016 -0.712705 0.368410 -0.107265
45 89.093910 -0.000006 0.000015 -0.000000 0.000000 -1.191101
46 59.561546 0.000000 -0.000005 -1.560072 -0.115802 0.040513
47 31.086208 -3.122424 0.002482 0.086974 0.178000 0.852535
48 11.272789 -0.349162 -24.738411 2.463849 0.477726 0.869446
49 15.788326 0.000002 -0.000002 -0.288142 -0.115875 0.928256
time 7
0 0.000000 0.000000 0.000000 1.570796 -0.000000 0.000000
1 0.000000 0.000000 0.000001 0.000000 -0.000000 0.000000
2 -26.716953 136.483017 -40.782848 -0.009175 -1.343979 -1.568181
3 -27.514357 17.090467 22.904945 -1.801100 0.528711 2.126838
4 38.339050 0.036428 0.000000 -0.072982 -0.148688 0.410750
5 40.888329 0.025441 -0.000005 -0.049586 0.051788 0.087719
6 37.840912 0.015298 0.000006 -0.032542 0.216724 0.033530
7 48.571712 0.685616 -0.000025 -0.106672 0.409851 -0.579509
8 44.262005 0.465018 0.000039 0.003260 0.349134 -0.664730
9 47.723763 0.024175 -0.000019 0.156929 0.089301 -0.426566
10 -26.517460 -15.956991 21.321764 -1.753522 0.413042 -2.581495
11 37.914181 -0.000000 0.000004 0.070365 0.075884 0.519181
12 41.189339 0.000000 0.000001 0.012408 -0.049599 0.225547
13 38.203545 0.000000 0.000003 -0.001724 -0.146553 0.146288
14 50.162159 0.000233 0.000008 0.012419 -0.175169 -0.372104
15 45.618233 -0.000011 -0.000007 0.043834 -0.177258 -0.836103
16 48.074070 -0.000016 0.000007 0.051091 -0.174273 -1.039133
17 -20.210398 11.855524 -14.683262 -1.791520 0.549963 2.694476
18 43.390297 -0.000000 0.000004 -0.022179 -0.051146 0.261405
19 47.998001 0.000001 0.000001 0.009300 0.022188 0.169245
20 50.215256 -0.000003 0.000006 0.019911 0.095760 0.183368
21 41.153103 0.000001 0.000003 0.051549 0.207574 -0.199675
22 66.351700 0.000004 0.000011 0.094183 0.500004 -0.150819
23 0.000000 0.000000 0.000000 0.941651 -1.502213 -3.015265
24 28.571926 3.440871 2.193902 -0.182451 0.057642 -0.020401
25 -27.443901 -0.499947 -19.463022 -3.036462 0.474262 2.755239
26 85.581306 0.000007 0.000000 0.000000 0.000000 -1.641200
27 53.650108 -0.000000 -0.000000 -0.000000 0.000000 1.529586
28 33.201397 -0.000004 0.000017 0.027114 0.437716 -0.260162
29 21.348545 28.691172 -0.000018 -0.127619 -0.271436 1.604807
30 -29.200222 -6.022000 10.466522 3.120227 -0.884317 2.434298
31 85.581314 -0.000001 -0.000004 0.000000 0.000000 -0.779393
32 53.650097 -0.000000 -0.000009 -0.000000 0.000000 0.416305
33 33.201389 0.000003 -0.000001 -0.092258 -0.650089 -0.446420
34 21.348547 28.691181 0.000004 -0.014198 0.072608 1.664289
35 32.415344 -0.046496 0.014665 -0.276216 0.424687 0.503944
36 67.582993 6.188631 -0.001068 0.093110 -0.432210 0.596822
37 -27.394867 1.017333 -22.781712 0.883288 0.765779 -2.902064
38 38.227760 -0.000000 0.000019 0.456414 -0.411795 0.495594
39 89.093887 0.000016 0.000000 -0.000000 0.000000 -0.926421
40 59.561531 0.000004 0.000000 2.751801 -0.101843 -0.294581
41 31.086195 -3.122451 -0.002494 -0.028289 -0.203709 0.129176
42 11.272802 -0.349162 24.738401 -2.979790 -0.793723 1.734978
43 -0.597285 6.418359 35.058628 1.545732 -1.201873 1.048014
44 38.227749 0.000008 0.000017 -0.658364 0.338810 -0.208754
45 89.093918 0.000005 0.000018 0.000000 0.000000 -1.346861
46 59.561523 -0.000013 0.000000 -1.582151 -0.179826 0.003472
47 31.086203 -3.122432 0.002482 0.071338 0.179536 0.771839
48 11.272789 -0.349162 -24.738411 2.491171 0.515661 0.925826
49 15.788319 -0.000000 -0.000004 -0.283597 -0.142969 1.000109
time 8
0 0.000000 0.000000 0.000000 1.570796 -0.000000 0.000000
1 0.000000 0.000000 0.000001 0.000000 -0.000000 0.000000
2 -20.686722 149.931931 5.892246 -0.009441 -1.216667 -1.570533
3 -27.514357 17.090467 22.904945 -1.747194 0.441637 2.233162
4 38.339050 0.036428 0.000000 -0.086150 -0.272077 0.345929
5 40.888329 0.025442 -0.000005 -0.052341 -0.062316 0.062899
6 37.840912 0.015298 0.000006 -0.016896 0.119194 0.126134
7 48.571709 0.685614 -0.000024 -0.131597 0.375738 -0.284073
8 44.262005 0.465019 0.000039 -0.083028 0.467518 -0.290591
9 47.723763 0.024176 -0.000018 0.059306 0.424917 -0.294948
10 -26.517460 -15.956991 21.321764 -1.727721 0.324421 -2.490607
11 37.914181 -0.000000 0.000004 0.083571 0.135949 0.390283
12 41.189339 0.000000 0.000001 0.039409 0.002666 0.145160
13 38.203545 -0.000000 0.000003 0.022863 -0.125267 0.195320
14 50.162159 0.000233 0.000008 0.032170 -0.159675 -0.111084
15 45.618233 -0.000011 -0.000006 0.018451 -0.099588 -0.157810
16 48.074070 -0.000016 0.000007 0.039860 -0.139758 -0.664384
17 -20.210398 11.855524 -14.683262 -1.734991 0.462096 2.801491
18 43.390297 -0.000000 0.000004 -0.035034 -0.115548 0.146484
19 47.997997 -0.000000 0.000002 0.013444 -0.041176 0.143459
20 50.215256 -0.000004 0.000006 0.038530 0.012374 0.269257
21 41.153103 0.000001 0.000003 0.077117 0.181935 0.093767
22 66.351700 0.000003 0.000011 0.169384 0.370256 0.289470
23 0.000000 0.000000 0.000000 -1.430137 -1.390539 -0.289065
24 28.660879 -3.071045 1.146145 -0.134113 -0.205255 0.060137
25 -31.175718 6.186485 -9.108252 -2.616354 0.218953 2.916754
26 85.581284 -0.000006 0.000001 0.000000 0.000000 -0.995535
27 53.650101 0.000003 0.000011 0.000000 -0.000000 0.822699
28 33.201389 0.000002 -0.000001 -0.022630 0.227750 -0.247710
29 21.348543 28.691193 0.000008 0.173903 -0.323919 1.839203
30 -24.930574 1.349743 20.537697 -2.665862 -0.673956 1.815987
31 85.581306 0.000008 0.000000 0.000000 -0.000000 -1.126639
32 53.650101 0.000002 0.000005 -0.000000 0.000000 1.038747
33 33.201412 0.000002 0.000011 -0.141284 -0.522970 -0.508554
34 21.348547 28.691181 0.000004 -0.009362 0.047829 1.664536
35 32.385040 -0.053285 -0.022922 0.366318 -0.059157 0.051855
36 67.584305 6.189601 0.000481 -0.051222 -0.055662 0.737774
37 -16.616735 6.964274 -30.713898 1.511550 1.109935 -2.341662
38 38.227757 -0.000009 0.000003 0.770040 -0.586770 -0.044110
39 89.093887 -0.000018 0.000000 -0.000000 0.000000 -0.225689
40 59.561531 -0.000001 0.000009 2.699093 0.422497 0.594610
41 31.086201 -3.122446 -0.002494 -0.027834 -0.203770 0.126928
42 11.272802 -0.349162 24.738401 -2.979034 -0.793602 1.733918
43 -12.846044 4.479407 33.223812 0.117345 -1.316081 2.293614
44 38.227757 0.000023 -0.000005 -0.420014 0.134967 -0.192060
45 89.093910 0.000001 -0.000010 -0.000000 -0.000000 -1.460667
46 59.561535 -0.000012 0.000004 -1.528320 -0.195579 -0.091574
47 31.086199 -3.122438 0.002483 -0.045277 0.187727 0.153020
48 11.272789 -0.349162 -24.738411 2.927395 0.783375 1.622571
49 15.788320 -0.000002 0.000003 -0.111772 -0.329402 0.158023
time 9
0 0.000000 0.000000 0.000000 1.570796 -0.000000 0.000000
1 0.000000 0.000000 0.000001 0.000000 -0.000000 0.000000
2 19.859976 127.692146 39.100616 -0.009480 -1.200843 -1.570734
3 -27.514357 17.090467 22.904945 -1.625634 0.429485 2.388652
4 38.339050 0.036428 0.000000 -0.069054 -0.368363 0.178044
5 40.888325 0.025444 -0.000005 -0.051247 -0.117575 0.020498
6 37.840912 0.015298 0.000006 0.014957 0.089017 0.201677
7 48.571709 0.685612 -0.000024 -0.063142 0.398169 -0.173698
8 44.262005 0.465019 0.000038 -0.093877 0.482144 -0.064786
9 47.723763 0.024176 -0.000018 0.032231 0.492839 0.041818
10 -26.517460 -15.956991 21.321764 -1.639968 0.314487 -2.349250
11 37.914181 -0.000000 0.000004 0.034446 0.153411 0.096353
12 41.189339 0.000000 0.000001 0.039051 0.075062 0.041532
13 38.203545 -0.000000 0.000003 0.045759 -0.050791 0.234002
14 50.162159 0.000233 0.000007 0.060429 -0.106974 -0.019257
15 45.618233 -0.000011 -0.000005 0.040316 -0.037431 0.132064
16 48.074074 -0.000015 0.000006 0.013420 -0.036941 0.000226
17 -20.210398 11.855525 -14.683262 -1.609811 0.448123 2.958549
18 43.390297 -0.000000 0.000004 -0.042604 -0.170076 -0.103907
19 47.997997 -0.000000 0.000002 0.012768 -0.055964 0.082809
20 50.215256 -0.000004 0.000006 0.062453 -0.013316 0.363917
21 41.153103 0.000001 0.000003 0.114867 0.137890 0.252173
22 66.351692 0.000003 0.000010 0.217918 0.379435 0.520573
23 0.000000 0.000000 0.000000 -1.520460 -1.204049 -0.101270
24 27.595785 -8.563627 0.577744 0.346333 -0.413751 0.242507
25 -29.008484 12.521652 -9.351751 -2.299182 0.371888 2.853573
26 85.581306 0.000001 -0.000006 -0.000000 0.000000 -0.886033
27 53.650101 -0.000003 0.000004 0.000000 0.000000 0.430316
28 33.201401 -0.000006 0.000001 -0.063444 0.158823 -0.428340
29 21.348545 28.691181 -0.000000 0.641505 -0.491599 1.970589
30 -16.476364 22.856733 16.705530 -2.650770 0.112802 1.411906
31 85.581314 -0.000003 -0.000000 -0.000000 -0.000000 -1.977890
32 53.650105 -0.000000 0.000002 0.000000 0.000000 1.772640
33 33.201397 0.000001 0.000001 -0.086322 -0.280129 -0.435905
34 21.348547 28.691179 0.000004 -0.000420 0.000867 1.664879
35 32.395084 -0.052564 -0.023612 0.419194 -0.102655 0.190245
36 67.579254 6.187387 0.004249 -0.346994 0.323759 0.228158
37 -3.916987 9.626412 -34.198715 -1.801319 0.027928 0.969643
38 38.227753 -0.000006 0.000000 0.696562 0.456917 0.075546
39 89.093887 0.000005 -0.000001 0.000000 -0.000000 -0.355152
40 59.561523 0.000002 -0.000009 2.346271 -0.113010 0.397040
41 31.086206 -3.122440 -0.002493 0.006960 -0.205521 -0.043884
42 11.272802 -0.349162 24.738401 3.128744 -0.806410 1.977843
43 -25.461641 -12.027901 22.408909 -0.777113 -0.834337 -2.726953
44 38.227760 -0.000003 -0.000010 -0.792149 0.574699 0.002703
45 89.093887 0.000009 0.000001 -0.000000 -0.000000 -1.161234
46 59.561539 0.000003 -0.000001 -1.354398 -0.151667 -0.247596
47 31.086199 -3.122440 0.002484 0.028532 0.190954 0.540441
48 11.272789 -0.349162 -24.738411 2.615674 0.642627 1.152174
49 15.788309 0.000010 0.000004 0.127787 -0.494089 0.543889
time 10
0 0.000000 0.000000 0.000000 1.570796 -0.000000 0.000000
1 0.000000 0.000000 0.000001 0.000000 -0.000000 0.000000
2 19.258204 126.142105 40.276169 -0.009107 -1.215199 -1.570602
3 -27.514357 17.090467 22.904945 -1.448585 0.469622 2.582474
4 38.339050 0.036428 0.000000 -0.071401 -0.288209 0.010188
5 40.888317 0.025445 -0.000005 -0.049909 -0.218139 -0.119362
6 37.840912 0.015298 0.000006 0.008289 -0.014612 0.217209
7 48.571724 0.685611 -0.000024 -0.016285 0.367966 -0.072712
8 44.261997 0.465017 0.000038 -0.053301 0.504563 0.104874
9 47.723759 0.024177 -0.000017 0.049048 0.498949 0.312551
10 -26.517460 -15.956991 21.321764 -1.499385 0.360239 -2.168964
11 37.914181 -0.000000 0.000004 -0.065238 0.226730 -0.094161
12 41.189339 0.000000 0.000001 0.000129 0.128835 -0.166819
13 38.203545 -0.000000 0.000003 0.037312 -0.016752 0.152446
14 50.162155 0.000233 0.000007 0.070599 -0.049574 0.011927
15 45.618233 -0.000008 -0.000004 0.064528 0.024733 0.292511
16 48.074074 -0.000015 0.000006 0.023392 0.057536 0.397006
17 -20.210398 11.855524 -14.683262 -1.428551 0.485449 -3.128559
18 43.390297 0.000000 0.000004 -0.082237 -0.109932 -0.295818
19 47.998001 -0.000000 0.000002 -0.007877 -0.100255 -0.089978
20 50.215252 -0.000005 0.000006 0.039362 -0.095244 0.334149
21 41.153099 0.000001 0.000003 0.139106 0.092216 0.378405
22 66.351685 0.000003 0.000010 0.264005 0.356303 0.687871
23 0.000000 0.000000 0.000000 -1.476710 -1.188097 -0.092543
24 27.480457 -8.805025 1.120613 0.304810 -0.423614 0.276273
25 -28.644777 13.717257 -9.462931 -2.288568 0.345899 2.875285
26 85.581306 0.000007 0.000010 -0.000000 0.000000 -0.866303
27 53.650097 -0.000005 0.000006 -0.000000 0.000000 0.414594
28 33.201401 0.000001 -0.000008 -0.071998 0.128394 -0.442076
29 21.348537 28.691179 -0.000008 0.684352 -0.526656 1.971582
30 -16.068434 22.055157 16.934683 -2.651914 0.121327 1.427378
31 85.581322 -0.000015 0.000001 -0.000000 0.000000 -2.010348
32 53.650105 -0.000003 -0.000000 -0.000000 0.000000 1.873711
33 33.201389 0.000001 -0.000009 -0.066072 -0.270681 -0.480391
34 21.348545 28.691177 0.000004 0.000157 -0.003649 1.664890
35 32.401531 -0.049710 -0.024329 0.432278 -0.167014 0.291308
36 67.579865 6.187628 0.003909 -0.333809 0.326582 0.259395
37 -4.408270 9.578187 -34.049217 -1.774379 -0.117985 1.018685
38 38.227764 0.000001 -0.000000 0.168429 0.365497 -0.405797
39 89.093910 -0.000002 0.000016 0.000000 -0.000000 -0.642484
40 59.561539 0.000004 -0.000019 2.454527 -0.323718 0.007109
41 31.086208 -3.122439 -0.002491 -0.007513 -0.205640 0.026468
42 11.272802 -0.349162 24.738401 -3.081361 -0.805247 1.877192
43 -25.011456 -10.371003 23.098642 -0.809816 -0.819884 -2.725472
44 38.227757 0.000017 0.000002 -0.920777 0.565777 0.016006
45 89.093918 0.000002 -0.000010 -0.000000 0.000000 -0.974464
46 59.561531 -0.000003 0.000012 -1.351532 -0.166969 -0.230637
47 31.086193 -3.122439 0.002487 0.030640 0.190784 0.551588
48 11.272789 -0.349162 -24.738411 2.607922 0.637695 1.139729
49 15.788317 -0.000004 -0.000003 0.392258 -0.475362 0.410261
time 11
0 0.000000 0.000000 0.000000 1.570796 -0.000000 0.000000
1 0.000000 0.000000 0.000001 0.000000 -0.000000 0.000000
2 17.979820 124.965637 40.997513 -0.008698 -1.228071 -1.570513
3 -27.514357 17.090467 22.904945 -1.244036 0.511808 2.786417
4 38.339050 0.036428 0.000000 -0.119725 -0.043183 -0.112685
5 40.888317 0.025446 -0.000005 -0.049207 -0.220398 -0.304605
6 37.840912 0.015298 0.000006 -0.025737 -0.239131 0.113211
7 48.571720 0.685611 -0.000024 -0.032522 0.150803 -0.010933
8 44.262001 0.465017 0.000037 0.004125 0.499911 0.259196
9 47.723759 0.024177 -0.000016 0.094012 0.482453 0.523652
10 -26.517460 -15.956991 21.321764 -1.321180 0.409843 -1.978276
11 37.914181 -0.000000 0.000005 -0.141877 0.285855 -0.174966
12 41.189339 0.000000 0.000001 -0.058508 0.184012 -0.351486
13 38.203545 -0.000000 0.000003 0.008495 -0.005240 -0.011745
14 50.162155 0.000233 0.000006 0.065083 -0.052788 -0.096293
15 45.618233 -0.000008 -0.000003 0.058652 0.041498 0.347023
16 48.074074 -0.000014 0.000005 0.044102 0.117131 0.591633
17 -20.210398 11.855524 -14.683262 -1.220570 0.523801 -2.922202
18 43.390301 0.000000 0.000004 -0.141546 0.037745 -0.403570
19 47.998005 0.000000 0.000002 -0.038245 -0.101371 -0.289530
20 50.215252 -0.000005 0.000006 -0.001405 -0.200385 0.205796
21 41.153099 0.000001 0.000003 0.116068 -0.000900 0.412918
22 66.351685 0.000002 0.000009 0.276282 0.280549 0.847232
23 0.000000 0.000000 0.000000 -1.425989 -1.180682 -0.088236
24 27.412205 -8.941454 1.655004 0.222897 -0.416461 0.305370
25 -28.308821 15.030198 -9.396743 -2.303629 0.318093 2.889701
26 85.581291 -0.000001 0.000000 0.000000 0.000000 -0.886263
27 53.650085 -0.000000 -0.000009 -0.000000 0.000000 0.443086
28 33.201401 -0.000009 0.000009 -0.073300 0.098230 -0.445911
29 21.348543 28.691185 -0.000000 0.703142 -0.539800 1.951372
30 -15.968337 21.131470 17.682695 -2.643132 0.079393 1.450186
31 85.581322 0.000001 -0.000004 -0.000000 0.000000 -1.997169
32 53.650097 -0.000009 0.000000 -0.000000 0.000000 1.936397
33 33.201389 0.000003 0.000002 -0.047455 -0.280699 -0.540382
34 21.348545 28.691175 0.000004 -0.000570 -0.000847 1.664854
35 32.407730 -0.046606 -0.024884 0.445956 -0.239532 0.386284
36 67.580566 6.187786 0.003440 -0.292921 0.312622 0.334608
37 -5.082675 9.311605 -34.031162 -1.761961 -0.018351 0.986640
38 38.227757 0.000001 0.000000 -0.043578 0.224936 -0.664628
39 89.093903 -0.000004 -0.000018 -0.000000 0.000000 -0.858445
40 59.561523 0.000004 0.000000 2.521620 -0.403496 -0.274874
41 31.086210 -3.122443 -0.002485 -0.028289 -0.203709 0.129175
42 11.272802 -0.349162 24.738401 -2.979790 -0.793723 1.734978
43 -24.751083 -8.340867 24.210234 -0.836882 -0.842167 -2.762548
44 38.227749 0.000000 0.000000 -1.045301 0.518915 0.020807
45 89.093910 0.000000 0.000000 -0.000000 0.000000 -0.793272
46 59.561535 -0.000002 -0.000018 -1.359667 -0.187727 -0.203508
47 31.086197 -3.122438 0.002487 0.026518 0.191799 0.529872
48 11.272789 -0.349162 -24.738411 2.619833 0.649892 1.161038
49 15.788301 -0.000000 0.000001 0.621114 -0.435094 0.241920
time 12
0 0.000000 0.000000 0.000000 1.570796 -0.000000 0.000000
1 0.000000 0.000000 0.000001 0.000000 -0.000000 0.000000
2 16.923397 123.666298 42.012032 -0.008242 -1.240421 -1.570451
3 -27.514357 17.090467 22.904945 -1.009786 0.563711 3.001440
4 38.339050 0.036428 0.000000 -0.160675 0.120821 -0.231520
5 40.888317 0.025447 -0.000005 -0.054838 -0.108358 -0.470287
6 37.840912 0.015298 0.000006 -0.001325 -0.345296 -0.056939
7 48.571720 0.685611 -0.000023 -0.038992 -0.189542 -0.069587
8 44.262001 0.465019 0.000037 0.012096 0.299779 0.370946
9 47.723759 0.024178 -0.000016 0.174457 0.396485 0.697140
10 -26.517460 -15.956991 21.321764 -1.103366 0.470853 -1.776015
11 37.914181 -0.000000 0.000005 -0.192978 0.306310 -0.232936
12 41.189339 0.000000 0.000001 -0.131825 0.242608 -0.510351
13 38.203548 -0.000001 0.000003 -0.030290 0.039253 -0.187137
14 50.162159 0.000233 0.000006 0.050996 -0.056613 -0.249243
15 45.618233 -0.000008 -0.000002 0.027016 0.019044 0.315860
16 48.074074 -0.000014 0.000005 0.008840 0.120413 0.652208
17 -20.210398 11.855524 -14.683262 -0.983528 0.570851 -2.704474
18 43.390297 -0.000000 0.000004 -0.178236 0.120336 -0.504213
19 47.998005 0.000000 0.000003 -0.069132 -0.046852 -0.461606
20 50.215256 -0.000006 0.000006 0.001078 -0.220896 -0.003326
21 41.153099 0.000001 0.000003 0.053385 -0.134919 0.372197
22 66.351685 0.000002 0.000009 0.187886 0.127349 0.925228
23 0.000000 0.000000 0.000000 -1.388997 -1.177640 -0.086342
24 27.423130 -8.846606 1.959268 0.163091 -0.402738 0.320132
25 -28.114876 15.745420 -9.355426 -2.329942 0.302941 2.894455
26 85.581291 -0.000002 -0.000007 0.000000 0.000000 -0.908517
27 53.650105 0.000007 -0.000002 -0.000000 0.000000 0.470165
28 33.201401 -0.000008 0.000003 -0.072437 0.071161 -0.446440
29 21.348551 28.691175 0.000009 0.713993 -0.535791 1.930195
30 -16.111345 20.402344 18.269892 -2.646345 0.026925 1.458497
31 85.581314 -0.000002 -0.000006 -0.000000 -0.000000 -1.997964
32 53.650108 -0.000006 0.000003 -0.000000 0.000000 1.959104
33 33.201401 0.000009 -0.000000 -0.027459 -0.292621 -0.560014
34 21.348545 28.691175 0.000004 -0.000576 -0.000787 1.664854
35 32.411621 -0.044263 -0.025858 0.473471 -0.292477 0.434809
36 67.581383 6.187968 0.002918 -0.243047 0.284781 0.428298
37 -6.001935 8.965722 -33.986736 -1.731899 0.066184 0.938845
38 38.227764 -0.000002 -0.000004 -0.037589 0.186414 -0.729344
39 89.093887 -0.000001 0.000016 0.000000 -0.000000 -0.924268
40 59.561520 0.000001 0.000019 2.406090 -0.397641 -0.343219
41 31.086203 -3.122452 -0.002478 -0.054399 -0.196216 0.263167
42 11.272802 -0.349162 24.738401 -2.861562 -0.755833 1.562645
43 -24.114227 -5.914664 25.562565 -0.857666 -0.877665 -2.821981
44 38.227760 0.000000 0.000004 -1.087325 0.501470 0.033909
45 89.093887 0.000007 -0.000015 -0.000000 -0.000000 -0.637212
46 59.561550 0.000002 0.000020 -1.369461 -0.204998 -0.171276
47 31.086212 -3.122439 0.002485 0.016890 0.192435 0.479350
48 11.272789 -0.349162 -24.738411 2.655630 0.672153 1.217955
49 15.788313 0.000016 -0.000002 0.712178 -0.368739 0.129619
time 13
0 0.000000 0.000000 0.000000 1.570796 -0.000000 0.000000
1 0.000000 0.000000 0.000001 0.000000 -0.000000 0.000000
2 16.072260 122.296112 43.258644 -0.007709 -1.250060 -1.570458
3 -27.514357 17.090467 22.904945 -0.837297 0.606753 -3.124759
4 38.339050 0.036428 0.000000 -0.156635 0.144759 -0.256531
5 40.888317 0.025447 -0.000005 -0.092187 -0.015733 -0.587981
6 37.840912 0.015298 0.000006 0.001859 -0.278910 -0.235266
7 48.571720 0.685610 -0.000023 0.014186 -0.378862 -0.241100
8 44.262001 0.465019 0.000036 -0.016355 -0.003001 0.361734
9 47.723759 0.024178 -0.000015 0.197215 0.260467 0.785980
10 -26.517460 -15.956991 21.321764 -0.941678 0.521151 -1.628162
11 37.914181 -0.000000 0.000005 -0.193289 0.281061 -0.228443
12 41.189339 0.000000 0.000001 -0.169601 0.256424 -0.613159
13 38.203548 -0.000001 0.000003 -0.070716 0.081635 -0.356412
14 50.162159 0.000233 0.000006 0.027598 -0.019786 -0.434959
15 45.618233 -0.000008 -0.000001 -0.002062 0.010665 0.216774
16 48.074074 -0.000013 0.000005 -0.037107 0.112034 0.674864
17 -20.210398 11.855524 -14.683262 -0.809152 0.610319 -2.545572
18 43.390297 -0.000000 0.000004 -0.158376 0.113425 -0.517195
19 47.998005 0.000000 0.000003 -0.079469 -0.021363 -0.573046
20 50.215256 -0.000006 0.000006 0.006345 -0.207287 -0.208272
21 41.153099 0.000001 0.000003 0.013009 -0.210651 0.274126
22 66.351685 0.000002 0.000009 0.105640 0.030268 0.921412
23 0.000000 0.000000 0.000000 -1.382462 -1.181044 -0.092839
24 27.454844 -8.790202 1.702835 0.143133 -0.383953 0.313086
25 -28.131212 15.596382 -9.324745 -2.371894 0.310648 2.881820
26 85.581299 0.000000 0.000002 0.000000 0.000000 -0.925788
27 53.650108 -0.000001 0.000000 -0.000000 0.000000 0.482642
28 33.201405 -0.000009 0.000008 -0.068410 0.052971 -0.441634
29 21.348545 28.691183 0.000005 0.723663 -0.506978 1.914912
30 -16.479641 19.895247 18.730221 -2.668378 -0.031781 1.430447
31 85.581314 0.000004 -0.000009 -0.000000 0.000000 -2.042658
32 53.650108 -0.000001 -0.000003 -0.000000 -0.000000 1.902818
33 33.201408 0.000000 -0.000005 -0.003402 -0.303746 -0.481359
34 21.348545 28.691175 0.000004 -0.000591 -0.000624 1.664854
35 32.409710 -0.043644 -0.028240 0.537463 -0.301333 0.378303
36 67.582474 6.188447 0.002160 -0.176408 0.229620 0.561531
37 -7.615320 8.582481 -33.731041 -1.692034 0.178885 0.871981
38 38.227753 0.000008 -0.000001 0.031756 0.166660 -0.752835
39 89.093887 -0.000004 0.000009 0.000000 -0.000000 -0.959742
40 59.561535 -0.000005 -0.000011 2.210171 -0.373386 -0.331194
41 31.086203 -3.122458 -0.002475 -0.081239 -0.187067 0.402453
42 11.272802 -0.349162 24.738401 -2.742835 -0.710316 1.387349
43 -22.632446 -2.551382 27.415359 -0.875897 -0.933567 -2.920338
44 38.227760 0.000002 -0.000003 -0.954266 0.523940 0.068870
45 89.093903 0.000004 0.000001 0.000000 -0.000000 -0.535227
46 59.561531 -0.000004 0.000000 -1.379254 -0.212640 -0.130142
47 31.086226 -3.122438 0.002480 -0.007314 0.192194 0.353105
48 11.272789 -0.349162 -24.738411 2.754043 0.721826 1.368234
49 15.788308 -0.000011 0.000005 0.684864 -0.260250 0.081984
time 14
0 0.000000 0.000000 0.000000 1.570796 -0.000000 0.000000
1 0.000000 0.000000 0.000001 0.000000 -0.000000 0.000000
2 15.082244 121.253807 43.912827 -0.024735 -1.250357 -1.552910
3 -27.514357 17.090467 22.904945 -0.734394 0.640746 -3.028850
4 38.339050 0.036428 0.000000 -0.124030 0.096309 -0.207728
5 40.888317 0.025448 -0.000005 -0.121171 0.040038 -0.657176
6 37.840912 0.015298 0.000006 -0.008576 -0.185060 -0.381901
7 48.571720 0.685608 -0.000023 0.081335 -0.361838 -0.460387
8 44.262001 0.465019 0.000036 0.004840 -0.197340 0.238494
9 47.723759 0.024179 -0.000015 0.134266 0.079205 0.793858
10 -26.517460 -15.956991 21.321764 -0.845185 0.559992 -1.537988
11 37.914181 -0.000000 0.000005 -0.127281 0.203508 -0.148683
12 41.189339 0.000000 0.000001 -0.160127 0.216724 -0.651206
13 38.203548 -0.000001 0.000003 -0.103139 0.096048 -0.486933
14 50.162159 0.000233 0.000005 -0.005616 0.028553 -0.637110
15 45.618233 -0.000008 -0.000000 -0.024162 0.026681 0.037528
16 48.074074 -0.000013 0.000004 -0.078447 0.103518 0.636657
17 -20.210396 11.855524 -14.683262 -0.705079 0.642273 -2.448500
18 43.390297 -0.000000 0.000004 -0.106671 0.062263 -0.464077
19 47.998005 0.000000 0.000003 -0.068767 -0.025174 -0.628688
20 50.215260 -0.000007 0.000005 0.000523 -0.171900 -0.384092
21 41.153099 0.000001 0.000003 0.005824 -0.207803 0.106709
22 66.351685 0.000001 0.000008 0.055422 0.017127 0.838190
23 0.000000 0.000000 0.000000 -1.391811 -1.189600 -0.128674
24 27.493626 -8.745211 1.262159 0.143730 -0.361997 0.292585
25 -28.277769 14.993762 -9.247242 -2.425534 0.333977 2.857645
26 85.581322 0.000001 -0.000016 -0.000000 -0.000000 -0.942135
27 53.650112 0.000003 -0.000003 0.000000 0.000000 0.488852
28 33.201401 -0.000002 0.000016 -0.058167 0.042167 -0.432420
29 21.348555 28.691185 -0.000008 0.727236 -0.459307 1.901021
30 -17.221544 19.247063 18.908792 -2.701402 -0.097341 1.379171
31 85.581322 0.000008 0.000001 -0.000000 0.000000 -2.110389
32 53.650120 0.000001 0.000001 -0.000000 -0.000000 1.793612
33 33.201405 -0.000002 -0.000001 0.022396 -0.315522 -0.347215
34 21.348545 28.691175 0.000004 -0.000615 -0.000372 1.664854
35 32.403870 -0.043862 -0.032180 0.615697 -0.280216 0.258792
36 67.583771 6.189289 0.001314 -0.103824 0.155844 0.708284
37 -9.737783 8.349216 -33.223583 -1.643652 0.336078 0.783329
38 38.227776 -0.000003 0.000016 0.148398 0.107987 -0.750039
39 89.093895 -0.000007 -0.000005 0.000000 -0.000000 -1.001162
40 59.561527 -0.000004 0.000001 2.022171 -0.346163 -0.313054
41 31.086205 -3.122456 -0.002484 -0.102289 -0.178984 0.513401
42 11.272802 -0.349162 24.738401 -2.651766 -0.670905 1.250859
43 -19.983797 1.568700 29.473133 -0.877770 -1.004371 -3.047186
44 38.227749 -0.000019 0.000011 -0.704081 0.550738 0.131569
45 89.093887 -0.000004 0.000000 -0.000000 -0.000000 -0.482073
46 59.561527 0.000003 -0.000015 -1.389930 -0.212059 -0.075288
47 31.086231 -3.122438 0.002479 -0.037860 0.189253 0.192475
48 11.272789 -0.349162 -24.738411 2.890065 0.774247 1.569524
49 15.788312 0.000000 -0.000003 0.539408 -0.103050 0.107166
time 15
0 0.000000 0.000000 0.000000 1.570796 -0.000000 0.000000
1 0.000000 0.000000 0.000001 0.000000 -0.000000 0.000000
2 13.999183 120.478790 44.040062 -0.059073 -1.240773 -1.518043
3 -27.514357 17.090467 22.904945 -0.720327 0.667543 -3.027321
4 38.339050 0.036428 0.000000 -0.074839 0.037442 -0.095602
5 40.888317 0.025449 -0.000005 -0.100949 0.031041 -0.671363
6 37.840912 0.015298 0.000006 -0.023061 -0.142076 -0.484091
7 48.571720 0.685606 -0.000023 0.120840 -0.309691 -0.654238
8 44.261993 0.465023 0.000036 0.056855 -0.309431 0.068860
9 47.723759 0.024179 -0.000015 0.067717 -0.071934 0.755356
10 -26.517460 -15.956991 21.321764 -0.827753 0.589119 -1.535673
11 37.914181 -0.000000 0.000005 -0.059818 0.095665 -0.037538
12 41.189339 0.000000 0.000001 -0.133840 0.148204 -0.645285
13 38.203552 -0.000001 0.000003 -0.128481 0.087178 -0.583777
14 50.162159 0.000233 0.000005 -0.049164 0.041706 -0.804994
15 45.618233 -0.000008 0.000001 -0.051456 0.035942 -0.153857
16 48.074078 -0.000012 0.000004 -0.112627 0.098256 0.536475
17 -20.210398 11.855524 -14.683262 -0.691349 0.668752 -2.446911
18 43.390297 -0.000000 0.000004 -0.039535 0.007452 -0.347277
19 47.998005 0.000000 0.000003 -0.046135 -0.049318 -0.647069
20 50.215260 -0.000007 0.000005 0.000001 -0.154658 -0.516844
21 41.153099 0.000001 0.000003 0.003032 -0.183656 -0.065751
22 66.351677 0.000001 0.000008 0.018634 0.043733 0.712458
23 0.000000 0.000000 0.000000 -1.429464 -1.204069 -0.162024
24 27.601894 -8.459698 0.768858 0.153783 -0.336661 0.269199
25 -28.457394 14.106422 -9.276464 -2.476018 0.359831 2.838464
26 85.581291 0.000002 -0.000009 -0.000000 -0.000000 -0.958920
27 53.650116 -0.000002 -0.000000 0.000000 -0.000000 0.501599
28 33.201401 0.000002 0.000009 -0.038903 0.054891 -0.408774
29 21.348539 28.691179 0.000000 0.704425 -0.406191 1.877578
30 -18.256121 18.439720 18.906263 -2.743276 -0.164674 1.346917
31 85.581322 -0.000001 -0.000002 0.000000 0.000000 -2.151277
32 53.650105 -0.000000 0.000004 0.000000 0.000000 1.702754
33 33.201405 -0.000002 0.000003 0.044864 -0.326837 -0.262305
34 21.348545 28.691175 0.000004 -0.000646 -0.000041 1.664854
35 32.398937 -0.044500 -0.034868 0.650225 -0.265633 0.182450
36 67.584686 6.190096 0.000646 -0.055048 0.090621 0.798777
37 -11.736310 8.062355 -32.679577 -1.605866 0.473660 0.738165
38 38.227760 -0.000005 -0.000016 0.291945 0.022815 -0.728112
39 89.093887 0.000001 -0.000018 0.000000 -0.000000 -1.056106
40 59.561558 0.000013 0.000000 1.857906 -0.316859 -0.305727
41 31.086195 -3.122447 -0.002486 -0.115483 -0.171957 0.586955
42 11.272802 -0.349162 24.738401 -2.599232 -0.638443 1.167379
43 -16.896648 4.868513 31.006807 -0.834659 -1.068636 3.117162
44 38.227757 -0.000017 0.000018 -0.472539 0.573074 0.216466
45 89.093910 -0.000003 0.000000 -0.000000 -0.000000 -0.460838
46 59.561531 -0.000009 -0.000018 -1.400896 -0.204087 -0.015275
47 31.086197 -3.122438 0.002484 -0.064785 0.181369 0.046740
48 11.272789 -0.349162 -24.738411 3.032191 0.800075 1.770014
49 15.788310 -0.000000 -0.000004 0.406403 0.032377 0.133952
time 16
0 0.000000 0.000000 0.000000 1.570796 -0.000000 0.000000
1 0.000000 0.000000 0.000001 0.000000 -0.000000 0.000000
2 12.762898 120.574570 42.047920 -0.017307 -1.247325 -1.559227
3 -27.514357 17.090467 22.904945 -0.801562 0.687962 -3.132593
4 38.339050 0.036428 0.000000 -0.030750 -0.032566 0.016483
5 40.888317 0.025449 -0.000005 -0.063439 -0.038432 -0.635473
6 37.840912 0.015298 0.000006 -0.035987 -0.120319 -0.561002
7 48.571720 0.685606 -0.000023 0.102061 -0.273512 -0.793849
8 44.261993 0.465023 0.000035 0.074666 -0.333982 -0.092927
9 47.723759 0.024180 -0.000015 0.044878 -0.138081 0.682646
10 -26.517460 -15.956991 21.321764 -0.894425 0.609331 -1.632463
11 37.914181 -0.000000 0.000005 -0.041152 -0.046280 0.099772
12 41.189339 0.000000 0.000001 -0.100262 0.052701 -0.580689
13 38.203552 -0.000001 0.000003 -0.142302 0.052220 -0.639671
14 50.162159 0.000233 0.000004 -0.103848 0.029950 -0.952178
15 45.618233 -0.000008 0.000001 -0.092579 0.024224 -0.315413
16 48.074078 -0.000012 0.000003 -0.144683 0.093055 0.398349
17 -20.210398 11.855524 -14.683262 -0.774702 0.690634 -2.553367
18 43.390297 -0.000000 0.000004 0.004228 -0.072200 -0.260161
19 47.998005 0.000000 0.000003 -0.014461 -0.105231 -0.626994
20 50.215260 -0.000008 0.000005 0.014027 -0.187864 -0.589062
21 41.153099 0.000001 0.000003 -0.013324 -0.166972 -0.201229
22 66.351677 0.000001 0.000007 0.016142 0.157648 0.498938
23 0.000000 0.000000 0.000000 -1.535368 -1.228036 -0.126015
24 27.826639 -7.713292 0.402568 0.162397 -0.307288 0.255117
25 -28.570850 13.090882 -9.579920 -2.474422 0.410993 2.855677
26 85.581306 0.000001 -0.000002 -0.000000 -0.000000 -1.042721
27 53.650101 -0.000005 -0.000000 0.000000 0.000000 0.620399
28 33.201416 -0.000014 -0.000003 -0.015738 0.176030 -0.324931
29 21.348553 28.691185 -0.000001 0.561800 -0.339416 1.806177
30 -19.405262 17.600988 18.870771 -2.792186 -0.228597 1.376528
31 85.581322 0.000000 -0.000005 0.000000 -0.000000 -2.147677
32 53.650108 -0.000000 -0.000002 0.000000 0.000000 1.642510
33 33.201405 -0.000004 0.000005 0.062343 -0.335487 -0.249169
34 21.348545 28.691179 0.000005 -0.000683 0.000360 1.664854
35 32.398396 -0.046011 -0.033656 0.620443 -0.257866 0.167715
36 67.585052 6.190527 0.000260 -0.024610 0.030101 0.847657
37 -13.351030 7.671007 -32.177406 -1.582561 0.592668 0.717689
38 38.227764 -0.000008 -0.000000 0.397880 -0.069755 -0.655609
39 89.093903 0.000000 -0.000005 -0.000000 -0.000000 -1.116020
40 59.561543 -0.000008 0.000003 1.739772 -0.301450 -0.309772
41 31.086187 -3.122438 -0.002487 -0.117250 -0.169566 0.599732
42 11.272802 -0.349162 24.738401 -2.595476 -0.628333 1.157673
43 -14.826345 6.324599 31.803299 -0.758507 -1.130384 3.005884
44 38.227757 0.000009 0.000007 -0.366769 0.605011 0.287776
45 89.093887 0.000004 0.000000 -0.000000 -0.000000 -0.460819
46 59.561558 -0.000004 -0.000002 -1.410061 -0.186315 0.033780
47 31.086182 -3.122438 0.002490 -0.067241 0.182260 0.032379
48 11.272789 -0.349162 -24.738411 3.045938 0.799245 1.788328
49 15.788314 0.000004 -0.000003 0.328156 0.090727 0.147097
time 17
0 0.000000 0.000000 0.000000 1.570796 -0.000000 0.000000
1 0.000000 0.000000 0.000001 0.000000 -0.000000 0.000000
2 11.400961 121.402832 38.268425 0.112147 -1.275453 -1.688048
3 -27.514357 17.090467 22.904945 -0.921853 0.705603 3.002659
4 38.339050 0.036428 0.000000 -0.011224 -0.115035 0.083329
5 40.888317 0.025450 -0.000005 -0.019415 -0.143334 -0.571523
6 37.840912 0.015298 0.000006 -0.033536 -0.131404 -0.603423
7 48.571720 0.685606 -0.000023 0.060955 -0.234782 -0.911906
8 44.261993 0.465023 0.000035 0.065347 -0.282896 -0.255029
9 47.723759 0.024179 -0.000015 0.034084 -0.165741 0.584215
10 -26.517460 -15.956991 21.321764 -0.995737 0.625713 -1.768896
11 37.914181 -0.000000 0.000005 -0.041828 -0.186356 0.224866
12 41.189339 0.000000 0.000001 -0.069683 -0.078966 -0.468064
13 38.203552 -0.000001 0.000003 -0.145378 -0.007198 -0.658551
14 50.162159 0.000233 0.000004 -0.152566 -0.002079 -1.064259
15 45.618237 -0.000009 0.000002 -0.138553 0.004689 -0.470478
16 48.074078 -0.000012 0.000003 -0.174852 0.086082 0.250055
17 -20.210398 11.855524 -14.683262 -0.897808 0.710481 -2.702981
18 43.390297 -0.000000 0.000004 0.029936 -0.174183 -0.198219
19 47.998005 0.000000 0.000004 0.029090 -0.196217 -0.561494
20 50.215260 -0.000008 0.000005 0.034443 -0.243267 -0.624405
21 41.153099 0.000001 0.000003 -0.031244 -0.150880 -0.319873
22 66.351677 0.000000 0.000007 -0.015467 0.260023 0.144157
23 0.000000 0.000000 0.000000 -1.700272 -1.259377 -0.019277
24 28.071098 -6.783576 0.141093 0.165866 -0.274955 0.251895
25 -28.595203 12.034555 -10.163651 -2.436735 0.482184 2.835690
26 85.581314 0.000002 0.000001 0.000000 -0.000000 -1.159932
27 53.650116 0.000002 0.000001 -0.000000 0.000000 0.793259
28 33.201397 -0.000003 -0.000005 0.015937 0.424774 -0.168920
29 21.348551 28.691177 -0.000005 0.302471 -0.325921 1.792757
30 -20.603535 16.725281 18.752678 -2.842819 -0.292702 1.432462
31 85.581299 0.000005 0.000005 0.000000 -0.000000 -2.127104
32 53.650101 -0.000003 -0.000005 0.000000 -0.000000 1.624261
33 33.201408 0.000005 0.000001 0.075944 -0.338448 -0.295687
34 21.348545 28.691183 0.000005 -0.000726 0.000813 1.664854
35 32.400124 -0.047305 -0.029782 0.546280 -0.258562 0.207395
36 67.585144 6.190609 0.000008 -0.001957 -0.022764 0.868182
37 -14.789403 7.214911 -31.666748 -1.538608 0.707371 0.738381
38 38.227764 -0.000008 0.000008 0.456385 -0.172030 -0.518949
39 89.093903 0.000001 -0.000039 -0.000000 -0.000000 -1.185615
40 59.561539 -0.000009 0.000009 1.688109 -0.318021 -0.341737
41 31.086187 -3.122436 -0.002488 -0.102004 -0.177520 0.515577
42 11.272802 -0.349162 24.738401 -2.656487 -0.665513 1.253919
43 -13.484404 6.884809 32.154221 -0.658260 -1.183859 2.892085
44 38.227757 -0.000005 0.000001 -0.368924 0.644912 0.347089
45 89.093895 -0.000000 -0.000010 -0.000000 -0.000000 -0.468953
46 59.561535 -0.000002 -0.000010 -1.416334 -0.158045 0.073948
47 31.086193 -3.122438 0.002496 -0.051089 0.191755 0.118455
48 11.272789 -0.349162 -24.738411 2.956852 0.782045 1.662457
49 15.788321 -0.000000 -0.000005 0.275285 0.107285 0.154685
time 18
0 0.000000 0.000000 0.000000 1.570796 -0.000000 0.000000
1 0.000000 0.000000 0.000001 0.000000 -0.000000 0.000000
2 9.969371 122.581192 33.650803 0.264922 -1.308538 -1.840176
3 -27.514357 17.090467 22.904945 -1.064288 0.720614 2.829709
4 38.339050 0.036428 0.000000 -0.002944 -0.207350 0.132335
5 40.888317 0.025451 -0.000005 0.022735 -0.254840 -0.502710
6 37.840912 0.015298 0.000006 -0.008924 -0.191123 -0.597080
7 48.571720 0.685606 -0.000022 0.021659 -0.208499 -0.997115
8 44.261990 0.465024 0.000035 0.044485 -0.216298 -0.397697
9 47.723759 0.024180 -0.000015 0.017457 -0.167007 0.462029
10 -26.517460 -15.956991 21.321764 -1.116389 0.638937 -1.928493
11 37.914177 0.000000 0.000005 -0.049427 -0.284355 0.282620
12 41.189339 0.000000 0.000001 -0.052288 -0.243622 -0.321050
13 38.203552 -0.000001 0.000003 -0.134981 -0.091639 -0.624192
14 50.162159 0.000233 0.000004 -0.184536 -0.068255 -1.115177
15 45.618237 -0.000009 0.000002 -0.180120 -0.023680 -0.602154
16 48.074078 -0.000011 0.000003 -0.203861 0.075939 0.111397
17 -20.210396 11.855524 -14.683262 -1.043513 0.728079 -2.877929
18 43.390297 -0.000001 0.000004 0.048484 -0.274079 -0.150707
19 47.998009 -0.000001 0.000004 0.073944 -0.296244 -0.485354
20 50.215260 -0.000008 0.000005 0.058084 -0.312534 -0.616461
21 41.153099 0.000001 0.000003 -0.039955 -0.152508 -0.404541
22 66.351677 0.000000 0.000006 -0.056380 0.245265 -0.181822
23 0.000000 0.000000 0.000000 -1.886279 -1.293207 0.109898
24 28.290138 -5.775991 -0.047581 0.169089 -0.241165 0.251754
25 -28.600956 10.911382 -10.851772 -2.366876 0.522939 2.814255
26 85.581314 -0.000001 -0.000000 0.000000 -0.000000 -1.239561
27 53.650105 0.000000 -0.000009 -0.000000 0.000000 0.898475
28 33.201397 -0.000007 0.000000 0.125565 0.686933 0.033779
29 21.348541 28.691172 0.000002 -0.000795 -0.301636 1.771369
30 -21.782915 15.811090 18.508568 -2.894936 -0.357410 1.500930
31 85.581299 -0.000020 0.000003 0.000000 -0.000000 -2.091748
32 53.650105 0.000005 0.000005 0.000000 -0.000000 1.613228
33 33.201401 -0.000006 -0.000004 0.088679 -0.340240 -0.355864
34 21.348545 28.691187 0.000005 -0.000772 0.001306 1.664853
35 32.402294 -0.048227 -0.025179 0.460728 -0.262378 0.260826
36 67.585167 6.190616 -0.000207 0.018199 -0.065945 0.867517
37 -16.101503 6.647967 -31.087015 -1.470441 0.827710 0.800549
38 38.227741 -0.000004 0.000018 0.483965 -0.279917 -0.324252
39 89.093910 0.000001 0.000005 -0.000000 -0.000000 -1.277772
40 59.561543 -0.000005 0.000015 1.668905 -0.351868 -0.391260
41 31.086197 -3.122437 -0.002490 -0.076372 -0.190444 0.374771
42 11.272802 -0.349162 24.738401 -2.760054 -0.726075 1.416302
43 -12.224660 7.347193 32.459198 -0.529002 -1.225076 2.765285
44 38.227757 0.000004 0.000000 -0.404150 0.689919 0.376980
45 89.093903 -0.000005 0.000001 -0.000000 -0.000000 -0.485097
46 59.561539 -0.000004 -0.000004 -1.420681 -0.121577 0.114486
47 31.086206 -3.122439 0.002485 -0.030799 0.200393 0.226821
48 11.272789 -0.349162 -24.738411 2.849386 0.759204 1.509955
49 15.788319 -0.000000 0.000000 0.216721 0.101497 0.147117
time 19
0 0.000000 0.000000 0.000000 1.570796 -0.000000 0.000000
1 0.000000 0.000000 0.000001 0.000000 -0.000000 0.000000
2 8.510509 123.833794 28.871094 0.432510 -1.344470 -2.007108
3 -27.514357 17.090467 22.904945 -1.211882 0.733672 2.649456
4 38.339050 0.036428 0.000000 0.000012 -0.278931 0.162528
5 40.888317 0.025451 -0.000004 0.053998 -0.358120 -0.447057
6 37.840912 0.015298 0.000006 0.023137 -0.267690 -0.559157
7 48.571720 0.685606 -0.000022 0.004053 -0.212745 -1.030560
8 44.261993 0.465025 0.000035 0.019190 -0.187489 -0.497571
9 47.723759 0.024180 -0.000015 -0.015745 -0.124624 0.290535
10 -26.517460 -15.956991 21.321764 -1.241036 0.650128 -2.094731
11 37.914177 0.000000 0.000006 -0.064129 -0.367087 0.303726
12 41.189339 0.000000 0.000001 -0.048722 -0.372753 -0.217603
13 38.203556 -0.000001 0.000003 -0.102335 -0.223533 -0.493468
14 50.162159 0.000233 0.000004 -0.199148 -0.166677 -1.100235
15 45.618237 -0.000009 0.000003 -0.212848 -0.066718 -0.693463
16 48.074074 -0.000010 0.000002 -0.237918 0.061151 -0.030019
17 -20.210398 11.855524 -14.683262 -1.194569 0.743768 -3.060291
18 43.390297 -0.000001 0.000004 0.062900 -0.345238 -0.125792
19 47.998009 -0.000001 0.000004 0.111378 -0.386539 -0.435906
20 50.215260 -0.000009 0.000004 0.089574 -0.418356 -0.529744
21 41.153103 0.000001 0.000003 -0.032944 -0.189401 -0.438673
22 66.351677 0.000000 0.000005 -0.083243 0.157535 -0.406246
23 0.000000 0.000000 0.000000 -2.087490 -1.328766 0.254508
24 28.475115 -4.674640 -0.143797 0.172498 -0.206283 0.253555
25 -28.593523 9.735013 -11.616533 -2.389189 0.553736 2.787051
26 85.581291 -0.000004 0.000000 0.000000 0.000000 -1.285428
27 53.650120 0.000002 -0.000009 -0.000000 0.000000 0.970798
28 33.201393 -0.000007 0.000001 0.187489 0.765563 0.112716
29 21.348547 28.691175 -0.000000 -0.142107 -0.253837 1.715632
30 -22.875402 14.856897 18.095034 -2.949340 -0.421643 1.579532
31 85.581322 -0.000017 -0.000000 0.000000 -0.000000 -2.043801
32 53.650112 0.000002 -0.000004 0.000000 -0.000000 1.605322
33 33.201401 0.000001 0.000002 0.100944 -0.341424 -0.423196
34 21.348545 28.691189 0.000005 -0.000820 0.001826 1.664853
35 32.404720 -0.049138 -0.020276 0.368962 -0.267068 0.321430
36 67.585114 6.190561 -0.000415 0.037005 -0.105653 0.858301
37 -17.342749 5.995951 -30.452892 -1.407216 0.957573 0.872137
38 38.227753 0.000000 0.000017 0.501695 -0.382908 -0.123548
39 89.093910 0.000004 0.000018 0.000000 -0.000000 -1.376217
40 59.561543 0.000009 0.000000 1.661454 -0.384912 -0.434410
41 31.086199 -3.122437 -0.002491 -0.053494 -0.198644 0.254633
42 11.272802 -0.349162 24.738401 -2.860195 -0.766113 1.565538
43 -11.000186 7.766020 32.744396 -0.367910 -1.258792 2.621019
44 38.227749 0.000000 0.000000 -0.444824 0.742031 0.386108
45 89.093903 0.000006 0.000000 -0.000000 -0.000000 -0.515749
46 59.561523 0.000004 -0.000018 -1.424435 -0.081377 0.146039
47 31.086216 -3.122445 0.002477 -0.014626 0.201695 0.314603
48 11.272789 -0.349162 -24.738411 2.772087 0.736649 1.398149
49 15.788317 -0.000000 -0.000002 0.147321 0.084037 0.126733
end
