version 1
nodes
0 "b_046" -1
1 "S_GC" 0
2 "Bip001" 1
3 "Bone007(mirrored)" 2
4 "Bone008(mirrored)" 3
5 "Bone009(mirrored)" 4
6 "Bone010(mirrored)" 5
7 "Bone011(mirrored)" 6
8 "Bone012(mirrored)" 7
9 "Bone013(mirrored)" 8
10 "Bone007" 2
11 "Bone008" 10
12 "Bone009" 11
13 "Bone010" 12
14 "Bone011" 13
15 "Bone012" 14
16 "Bone013" 15
17 "Bone001" 2
18 "Bone002" 17
19 "Bone003" 18
20 "Bone004" 19
21 "Bone005" 20
22 "Bone006" 21
23 "Bip001 Pelvis" 2
24 "Bip001 Spine" 23
25 "Bip001 R Thigh" 24
26 "Bip001 R Calf" 25
27 "Bip001 R HorseLink" 26
28 "Bip001 R Foot" 27
29 "Bip001 R Toe0" 28
30 "Bip001 L Thigh" 24
31 "Bip001 L Calf" 30
32 "Bip001 L HorseLink" 31
33 "Bip001 L Foot" 32
34 "Bip001 L Toe0" 33
35 "Bip001 Spine1" 24
36 "Bip001 Neck" 35
37 "Bip001 R Clavicle" 36
38 "Bip001 R UpperArm" 37
39 "Bip001 R Forearm" 38
40 "Bip001 R Hand" 39
41 "Bip001 R Finger1" 40
42 "Bip001 R Finger0" 40
43 "Bip001 L Clavicle" 36
44 "Bip001 L UpperArm" 43
45 "Bip001 L Forearm" 44
46 "Bip001 L Hand" 45
47 "Bip001 L Finger1" 46
48 "Bip001 L Finger0" 46
49 "Bip001 Head" 36
end
skeleton
time 0
0 0.000000 0.000000 0.000000 1.570796 -0.000000 0.000000
1 0.000000 0.000000 0.000001 0.000000 -0.000000 0.000000
2 -0.429296 132.983902 -1.107502 -1.570796 -1.570794 0.000000
3 -27.514357 17.090467 22.904945 -1.941635 0.745209 1.774608
4 38.339050 0.036428 0.000000 -0.003895 0.030161 0.121624
5 40.888317 0.025451 -0.000004 0.002861 -0.032247 -0.291669
6 37.840919 0.015299 0.000006 0.029567 -0.135136 -0.384934
7 48.571720 0.685606 -0.000022 0.120138 -0.195945 -0.928802
8 44.261993 0.465025 0.000035 0.112131 -0.166876 -0.629236
9 47.723759 0.024180 -0.000015 0.075353 -0.100874 -0.035124
10 -26.517460 -15.956991 21.321764 -1.852606 0.662223 -2.896230
11 37.914181 -0.000000 0.000003 -0.002409 0.016331 0.177806
12 41.189346 0.000000 0.000003 0.001281 -0.065259 -0.203598
13 38.203541 0.000000 0.000003 0.017090 -0.163997 -0.304677
14 50.162155 0.000231 0.000003 0.088202 -0.217642 -0.924909
15 45.618237 -0.000009 0.000003 0.074146 -0.177653 -0.671005
16 48.074074 -0.000010 0.000002 0.022466 -0.071504 -0.122946
17 -20.379938 11.336824 -14.731089 -1.957028 0.799172 2.345166
18 43.390297 -0.000000 0.000004 0.027558 0.015390 -0.148958
19 47.998016 0.000000 0.000004 0.048152 -0.078961 -0.351460
20 50.215260 -0.000009 0.000004 0.087993 -0.244233 -0.354442
21 41.153103 0.000001 0.000003 0.114335 -0.251199 -0.295664
22 66.351677 0.000000 0.000005 0.092759 -0.284344 0.061051
23 0.000000 0.000000 0.000000 2.949260 -1.544502 1.208759
24 28.803448 1.926018 0.317545 0.178384 0.005937 0.262948
25 -28.170425 2.629114 -16.578531 -2.921548 0.699922 2.628493
26 85.581322 -0.000000 -0.000001 0.000000 0.000000 -1.588873
27 53.650108 0.000000 -0.000000 0.000000 -0.000000 1.195834
28 33.201389 0.000003 -0.000004 0.055534 0.578809 -0.102501
29 21.348549 28.691181 -0.000004 -0.142107 -0.253836 1.715631
30 -28.443922 8.350790 13.352247 2.874894 -0.656180 2.228161
31 85.581306 0.000016 -0.000005 -0.000000 -0.000000 -1.570132
32 53.650124 0.000006 0.000011 0.000000 -0.000000 1.511265
33 33.201401 0.000005 -0.000008 0.163638 -0.325565 -0.826354
34 21.348547 28.691181 -0.000005 -0.001089 0.004698 1.664852
35 32.417919 -0.045702 0.010450 -0.180753 -0.175298 0.691227
36 67.584396 6.189940 -0.001608 0.134774 -0.312518 0.744610
37 -23.900705 1.912460 -26.375368 0.552283 1.039956 2.881351
38 38.227745 -0.000007 -0.000001 1.167413 -0.841202 -0.724331
39 89.093887 0.000000 -0.000008 -0.000000 -0.000000 -1.149692
40 59.561543 0.000004 0.000000 1.428389 -0.153443 -0.020317
41 31.086212 -3.122431 -0.002491 -0.034476 -0.202253 0.160344
42 11.272802 -0.349144 24.738409 -2.931380 -0.778681 1.664845
43 -4.253403 10.009336 33.947514 -0.013742 -1.389544 2.365968
44 38.227757 0.000001 -0.000001 -1.015499 0.873051 -0.443137
45 89.093895 -0.000012 0.000001 0.000000 -0.000000 -1.164383
46 59.561523 0.000007 -0.000002 -1.472095 0.101510 -0.229622
47 31.086197 -3.122438 0.002494 -0.040760 0.073639 0.176041
48 11.272788 -0.349162 -24.738400 3.043238 0.807052 1.785133
49 15.788321 0.000012 -0.000001 -0.293077 -0.047716 0.032651
time 1
0 0.000000 0.000000 0.000000 1.570796 -0.000000 0.000000
1 0.000000 0.000000 0.000001 0.000000 -0.000000 0.000000
2 -0.437300 135.845779 -2.448009 -1.570796 -1.570794 0.000000
3 -27.514357 17.090467 22.904945 -1.914474 0.718010 1.833044
4 38.339050 0.036428 0.000000 0.004879 0.052278 0.163431
5 40.888317 0.025451 -0.000004 0.005118 0.000572 -0.203304
6 37.840919 0.015299 0.000006 0.016663 -0.089253 -0.388846
7 48.571720 0.685606 -0.000022 0.105356 -0.159244 -0.979575
8 44.261993 0.465025 0.000035 0.117736 -0.148319 -0.711778
9 47.723763 0.024180 -0.000015 0.103253 -0.133626 -0.108308
10 -26.517460 -15.956991 21.321764 -1.826558 0.646489 -2.834491
11 37.914181 -0.000000 0.000003 0.006619 0.034576 0.204984
12 41.189346 0.000000 0.000003 0.006839 -0.029320 -0.145477
13 38.203541 -0.000001 0.000003 0.007687 -0.113347 -0.304562
14 50.162155 0.000231 0.000003 0.080046 -0.183236 -0.956148
15 45.618237 -0.000009 0.000003 0.101273 -0.182281 -0.723003
16 48.074074 -0.000010 0.000002 0.056651 -0.117922 -0.165101
17 -20.551920 10.810650 -14.779602 -1.945522 0.802048 2.411626
18 43.390297 -0.000000 0.000004 0.039192 0.060880 -0.103612
19 47.998016 0.000000 0.000004 0.039528 -0.014562 -0.316070
20 50.215260 -0.000009 0.000004 0.074733 -0.181847 -0.379747
21 41.153103 0.000001 0.000002 0.119551 -0.238896 -0.362857
22 66.351677 0.000000 0.000005 0.108727 -0.330690 -0.004342
23 0.000000 0.000000 0.000000 2.943609 -1.542941 1.245641
24 28.799515 1.981594 0.236053 0.163051 0.012022 0.246398
25 -28.161207 2.196717 -16.572559 -2.884089 0.686581 2.679839
26 85.581306 0.000001 0.000002 0.000000 0.000000 -1.544807
27 53.650116 0.000000 -0.000008 0.000000 -0.000000 1.166111
28 33.201401 -0.000002 0.000010 0.052228 0.570563 -0.113362
29 21.348545 28.691179 0.000009 -0.142107 -0.253836 1.715631
30 -28.645826 7.497604 13.424326 2.880153 -0.636326 2.253603
31 85.581299 0.000008 0.000001 -0.000000 -0.000000 -1.510306
32 53.650116 -0.000000 0.000003 0.000000 -0.000000 1.438896
33 33.201401 0.000011 -0.000002 0.160029 -0.315033 -0.811896
34 21.348545 28.691185 -0.000005 -0.001089 0.004698 1.664852
35 32.418751 -0.044994 0.010823 -0.185947 -0.145530 0.699908
36 67.584351 6.189892 -0.001631 0.136791 -0.311629 0.738036
37 -23.912474 1.733206 -26.374720 0.584714 1.028931 2.919894
38 38.227749 0.000002 0.000001 1.106791 -0.844532 -0.680436
39 89.093903 -0.000001 0.000001 -0.000000 -0.000000 -1.216278
40 59.561535 -0.000002 0.000000 1.401690 -0.161440 -0.043254
41 31.086205 -3.122424 -0.002494 -0.040900 -0.200766 0.192661
42 11.272802 -0.349144 24.738409 -2.880652 -0.763017 1.591409
43 -4.335221 9.973416 33.947372 0.107519 -1.407291 2.254777
44 38.227757 -0.000004 0.000001 -1.002534 0.849226 -0.431110
45 89.093887 0.000004 0.000003 0.000000 -0.000000 -1.079338
46 59.561535 0.000012 0.000013 -1.461231 0.130164 -0.184249
47 31.086203 -3.122439 0.002496 -0.041811 0.101299 0.166232
48 11.272788 -0.349162 -24.738400 3.018813 0.810701 1.751369
49 15.788313 -0.000002 0.000000 -0.321174 -0.039732 0.091406
time 2
0 0.000000 0.000000 0.000000 1.570796 -0.000000 0.000000
1 0.000000 0.000000 0.000001 0.000000 -0.000000 0.000000
2 -0.378001 138.821106 -3.791332 -1.570796 -1.570794 0.000000
3 -27.514357 17.090467 22.904945 -1.887187 0.690754 1.891686
4 38.339050 0.036428 0.000000 0.014036 0.075609 0.206890
5 40.888317 0.025451 -0.000004 0.008014 0.033996 -0.123078
6 37.840919 0.015299 0.000006 0.012086 -0.047448 -0.342603
7 48.571720 0.685604 -0.000022 0.091085 -0.121600 -1.020261
8 44.261993 0.465025 0.000035 0.122576 -0.128821 -0.788849
9 47.723763 0.024180 -0.000015 0.123312 -0.150747 -0.179283
10 -26.517460 -15.956991 21.321764 -1.800230 0.630616 -2.772120
11 37.914181 -0.000000 0.000003 0.015864 0.053177 0.233083
12 41.189346 0.000000 0.000003 0.012202 0.006365 -0.089373
13 38.203541 -0.000002 0.000003 0.002250 -0.067298 -0.285884
14 50.162155 0.000231 0.000003 0.071973 -0.148229 -0.980162
15 45.618237 -0.000009 0.000003 0.118054 -0.176330 -0.763481
16 48.074074 -0.000010 0.000003 0.086225 -0.155335 -0.207744
17 -20.724125 10.283802 -14.828179 -1.927516 0.805153 2.483008
18 43.390297 -0.000000 0.000004 0.049910 0.105251 -0.060369
19 47.998016 0.000000 0.000005 0.032319 0.046084 -0.282856
20 50.215260 -0.000008 0.000004 0.062322 -0.110459 -0.381087
21 41.153103 0.000001 0.000001 0.122771 -0.222580 -0.421671
22 66.351677 0.000000 0.000005 0.119569 -0.346631 -0.070022
23 0.000000 0.000000 0.000000 2.939714 -1.541306 1.281168
24 28.795366 2.038447 0.159602 0.147511 0.018277 0.228736
25 -28.153662 1.753534 -16.566971 -2.846940 0.673517 2.730509
26 85.581306 0.000000 0.000001 0.000000 0.000000 -1.502327
27 53.650108 0.000007 0.000000 0.000000 -0.000000 1.137680
28 33.201393 -0.000004 0.000002 0.048766 0.561663 -0.124572
29 21.348547 28.691185 0.000001 -0.142107 -0.253836 1.715631
30 -28.880133 6.354264 13.514888 2.885663 -0.616679 2.277147
31 85.581299 0.000000 -0.000003 -0.000000 -0.000000 -1.453764
32 53.650120 -0.000002 0.000007 0.000000 -0.000000 1.370234
33 33.201401 0.000002 -0.000009 0.156380 -0.304416 -0.796832
34 21.348545 28.691185 -0.000004 -0.001089 0.004698 1.664852
35 32.419609 -0.044272 0.011200 -0.191248 -0.115396 0.709584
36 67.584259 6.189801 -0.001670 0.138951 -0.310677 0.730991
37 -23.926472 1.515574 -26.373928 0.619549 1.017177 2.960914
38 38.227760 -0.000017 0.000001 1.046296 -0.848029 -0.636862
39 89.093895 -0.000005 -0.000001 -0.000000 0.000000 -1.280011
40 59.561527 0.000007 -0.000001 1.374357 -0.169596 -0.066724
41 31.086199 -3.122420 -0.002496 -0.047390 -0.199277 0.225298
42 11.272802 -0.349144 24.738409 -2.830198 -0.747442 1.518372
43 -4.418169 9.937015 33.947224 0.232327 -1.425951 2.140166
44 38.227757 0.000003 0.000000 -0.989662 0.825657 -0.419169
45 89.093887 0.000000 0.000002 0.000000 -0.000000 -1.000539
46 59.561543 0.000004 -0.000003 -1.450571 0.158375 -0.139188
47 31.086208 -3.122438 0.002497 -0.042786 0.129685 0.156507
48 11.272788 -0.349162 -24.738400 2.993153 0.814286 1.715946
49 15.788312 -0.000002 0.000001 -0.347814 -0.031300 0.148419
time 3
0 0.000000 0.000000 0.000000 1.570796 -0.000000 0.000000
1 0.000000 0.000000 0.000001 0.000000 -0.000000 0.000000
2 -0.144793 141.762512 -5.057268 -1.570796 -1.570794 0.000000
3 -27.514357 17.090467 22.904945 -1.858945 0.662623 1.952313
4 38.339050 0.036428 0.000000 0.023012 0.098418 0.249626
5 40.888317 0.025451 -0.000004 0.012630 0.069510 -0.060589
6 37.840919 0.015300 0.000006 0.012901 -0.008100 -0.259031
7 48.571720 0.685601 -0.000022 0.078268 -0.081105 -1.030055
8 44.261993 0.465025 0.000035 0.125011 -0.106428 -0.849149
9 47.723763 0.024180 -0.000014 0.133088 -0.146654 -0.251465
10 -26.517460 -15.956991 21.321764 -1.774140 0.614918 -2.710346
11 37.914181 -0.000000 0.000003 0.024595 0.070964 0.259058
12 41.189346 0.000000 0.000003 0.016804 0.040894 -0.042284
13 38.203541 -0.000002 0.000003 0.002674 -0.026693 -0.237239
14 50.162155 0.000231 0.000003 0.064090 -0.111400 -0.982051
15 45.618237 -0.000009 0.000003 0.121444 -0.156535 -0.794834
16 48.074074 -0.000010 0.000003 0.105353 -0.171835 -0.252458
17 -20.894215 9.763420 -14.876161 -1.894377 0.808872 2.566730
18 43.390297 -0.000000 0.000004 0.056630 0.144594 -0.026520
19 47.998016 0.000000 0.000005 0.028856 0.106752 -0.246557
20 50.215256 -0.000008 0.000005 0.052654 -0.016325 -0.331888
21 41.153103 0.000001 0.000001 0.119816 -0.193972 -0.454793
22 66.351677 0.000000 0.000005 0.129741 -0.346278 -0.146348
23 0.000000 0.000000 0.000000 2.931644 -1.539842 1.319952
24 28.791151 2.095333 0.087548 0.132179 0.024367 0.212187
25 -28.147640 1.318372 -16.560650 -2.813633 0.663619 2.772942
26 85.581291 0.000005 -0.000003 0.000000 0.000000 -1.464705
27 53.650108 0.000003 -0.000004 0.000000 -0.000000 1.115030
28 33.201393 -0.000004 0.000005 0.045369 0.553047 -0.135632
29 21.348547 28.691181 0.000007 -0.142107 -0.253836 1.715631
30 -29.106527 5.203308 13.609396 2.892324 -0.597968 2.292178
31 85.581306 0.000005 -0.000006 -0.000000 -0.000000 -1.407281
32 53.650112 0.000004 0.000005 0.000000 -0.000000 1.312928
33 33.201397 0.000004 -0.000002 0.152766 -0.293885 -0.782371
34 21.348547 28.691189 -0.000001 -0.001089 0.004698 1.664852
35 32.420269 -0.043688 0.011549 -0.196302 -0.086103 0.716978
36 67.584183 6.189703 -0.001711 0.141198 -0.309687 0.723667
37 -23.940811 1.288421 -26.373106 0.653354 1.005748 3.000874
38 38.227753 0.000003 -0.000001 0.984732 -0.850436 -0.590582
39 89.093887 -0.000002 0.000008 -0.000000 0.000000 -1.330982
40 59.561535 -0.000004 0.000006 1.348478 -0.177368 -0.088974
41 31.086199 -3.122427 -0.002495 -0.053729 -0.197802 0.257200
42 11.272802 -0.349144 24.738409 -2.783425 -0.732588 1.450480
43 -4.498447 9.901751 33.947090 0.353058 -1.443740 2.029504
44 38.227753 -0.000008 -0.000000 -0.975837 0.799952 -0.406329
45 89.093887 0.000002 0.000012 0.000000 -0.000000 -0.940874
46 59.561543 0.000001 0.000003 -1.442222 0.181192 -0.097847
47 31.086208 -3.122438 0.002493 -0.043925 0.156401 0.146593
48 11.272788 -0.349162 -24.738400 2.968735 0.817944 1.682188
49 15.788313 -0.000001 0.000001 -0.367906 -0.020782 0.197617
time 4
0 0.000000 0.000000 0.000000 1.570796 -0.000000 0.000000
1 0.000000 0.000000 0.000001 0.000000 -0.000000 0.000000
2 0.567739 144.599579 -6.107063 -1.570796 -1.570794 0.000000
3 -27.514357 17.090467 22.904945 -1.829387 0.632895 2.016015
4 38.339050 0.036428 0.000000 0.031432 0.119313 0.289790
5 40.888317 0.025451 -0.000004 0.019823 0.110868 -0.006254
6 37.840919 0.015300 0.000005 0.016200 0.030104 -0.162421
7 48.571720 0.685601 -0.000022 0.067867 -0.037203 -0.997140
8 44.261993 0.465025 0.000035 0.124382 -0.080491 -0.889207
9 47.723763 0.024180 -0.000013 0.138062 -0.132434 -0.327474
10 -26.517460 -15.956991 21.321764 -1.748797 0.599539 -2.650203
11 37.914181 -0.000000 0.000003 0.032282 0.087040 0.280613
12 41.189346 0.000000 0.000003 0.020304 0.073625 -0.009184
13 38.203541 -0.000003 0.000003 0.006529 0.011905 -0.170502
14 50.162155 0.000231 0.000003 0.056868 -0.072057 -0.951301
15 45.618237 -0.000009 0.000003 0.118853 -0.130554 -0.826915
16 48.074074 -0.000010 0.000004 0.116499 -0.170654 -0.303949
17 -21.059971 9.256299 -14.922918 -1.847456 0.813052 2.666188
18 43.390297 -0.000000 0.000005 0.057164 0.176141 -0.007262
19 47.998016 0.000000 0.000005 0.028303 0.168995 -0.206616
20 50.215256 -0.000008 0.000005 0.045514 0.092109 -0.249833
21 41.153103 0.000001 0.000000 0.107625 -0.144804 -0.446185
22 66.351677 0.000000 0.000005 0.136495 -0.333301 -0.216199
23 0.000000 0.000000 0.000000 2.915106 -1.538731 1.365292
24 28.786787 2.151496 0.032415 0.117371 0.030018 0.198467
25 -28.141474 0.913483 -16.552521 -2.786728 0.658961 2.801650
26 85.581314 -0.000003 -0.000009 -0.000000 0.000000 -1.432916
27 53.650097 0.000002 -0.000000 0.000000 -0.000000 1.101357
28 33.201389 -0.000008 -0.000001 0.042225 0.545457 -0.146139
29 21.348547 28.691175 -0.000009 -0.142107 -0.253836 1.715631
30 -29.278893 4.291372 13.699489 2.900758 -0.580710 2.294012
31 85.581314 0.000008 -0.000009 -0.000000 -0.000000 -1.373691
32 53.650108 0.000004 0.000001 0.000000 -0.000000 1.270391
33 33.201405 0.000002 -0.000010 0.149259 -0.283570 -0.769451
34 21.348549 28.691189 0.000000 -0.001089 0.004698 1.664852
35 32.420525 -0.043385 0.011843 -0.200835 -0.058562 0.719595
36 67.584099 6.189635 -0.001743 0.143476 -0.308682 0.716239
37 -23.954308 1.066529 -26.372303 0.683339 0.995425 3.036897
38 38.227753 -0.000018 0.000017 0.921210 -0.850645 -0.539347
39 89.093887 -0.000006 0.000000 -0.000000 0.000000 -1.362131
40 59.561531 -0.000009 -0.000018 1.325647 -0.184379 -0.108666
41 31.086199 -3.122442 -0.002492 -0.059745 -0.196341 0.287569
42 11.272802 -0.349144 24.738409 -2.742906 -0.718794 1.391273
43 -4.572443 9.869158 33.946957 0.466058 -1.459211 1.926248
44 38.227760 0.000019 -0.000000 -0.960371 0.770322 -0.391948
45 89.093903 -0.000004 0.000000 0.000000 -0.000000 -0.903973
46 59.561535 0.000004 -0.000018 -1.437700 0.195018 -0.062698
47 31.086216 -3.122439 0.002479 -0.045432 0.179628 0.136278
48 11.272788 -0.349162 -24.738400 2.947450 0.821747 1.652647
49 15.788313 -0.000001 0.000001 -0.377783 -0.007023 0.234669
time 5
0 0.000000 0.000000 0.000000 1.570796 -0.000000 0.000000
1 0.000000 0.000000 0.000001 0.000000 -0.000000 0.000000
2 1.423479 146.049133 -6.752857 -1.570796 -1.570794 0.000000
3 -27.514357 17.090467 22.904945 -1.795613 0.599478 2.088321
4 38.339050 0.036428 0.000000 0.038477 0.136183 0.324395
5 40.888317 0.025451 -0.000004 0.028542 0.156665 0.043818
6 37.840919 0.015301 0.000005 0.019414 0.067756 -0.073557
7 48.571720 0.685601 -0.000022 0.060101 0.008775 -0.920892
8 44.261993 0.465025 0.000035 0.121361 -0.051712 -0.913836
9 47.723763 0.024180 -0.000012 0.139813 -0.111769 -0.400899
10 -26.517460 -15.956991 21.321764 -1.724649 0.585064 -2.593085
11 37.914181 -0.000000 0.000003 0.037921 0.099902 0.293760
12 41.189346 0.000000 0.000003 0.022385 0.107908 0.005051
13 38.203541 -0.000004 0.000003 0.011573 0.048310 -0.098075
14 50.162155 0.000231 0.000003 0.050571 -0.030211 -0.882635
15 45.618237 -0.000009 0.000003 0.111813 -0.099975 -0.851606
16 48.074074 -0.000010 0.000004 0.122301 -0.157714 -0.359643
17 -21.218338 8.771784 -14.967592 -1.788475 0.817977 2.774768
18 43.390297 -0.000000 0.000005 0.039790 0.191818 -0.027140
19 47.998016 0.000000 0.000005 0.025499 0.218974 -0.179353
20 50.215256 -0.000008 0.000005 0.033314 0.182509 -0.184209
21 41.153103 0.000001 -0.000000 0.083840 -0.067689 -0.381947
22 66.351677 0.000000 0.000005 0.132954 -0.300779 -0.249373
23 0.000000 0.000000 0.000000 2.882113 -1.538298 1.423460
24 28.782799 2.201140 -0.010171 0.103627 0.034831 0.190419
25 -28.134357 0.742482 -16.529778 -2.770893 0.663825 2.805686
26 85.581299 -0.000000 -0.000003 -0.000000 0.000000 -1.408416
27 53.650097 0.000007 -0.000006 0.000000 -0.000000 1.098930
28 33.201401 -0.000011 0.000004 0.039593 0.540065 -0.155487
29 21.348547 28.691181 0.000001 -0.142107 -0.253836 1.715631
30 -29.349037 3.874823 13.776102 2.913884 -0.565938 2.269112
31 85.581306 0.000007 -0.000003 0.000000 0.000000 -1.356745
32 53.650120 0.000005 0.000008 -0.000000 0.000000 1.247049
33 33.201397 0.000001 -0.000008 0.145935 -0.273697 -0.759594
34 21.348549 28.691189 -0.000001 -0.001089 0.004698 1.664852
35 32.420185 -0.043505 0.012052 -0.204388 -0.034346 0.713184
36 67.584007 6.189574 -0.001775 0.145730 -0.307689 0.708892
37 -23.965319 0.865896 -26.371567 0.705397 0.987593 3.064744
38 38.227753 -0.000001 0.000019 0.854111 -0.847337 -0.479099
39 89.093880 -0.000005 0.000007 -0.000000 0.000000 -1.372576
40 59.561535 0.000006 0.000012 1.308571 -0.189858 -0.123536
41 31.086201 -3.122454 -0.002488 -0.065160 -0.194941 0.315032
42 11.272802 -0.349144 24.738409 -2.711846 -0.706688 1.345213
43 -4.636426 9.840825 33.946846 0.557928 -1.470308 1.843472
44 38.227753 -0.000001 0.000004 -0.941683 0.733607 -0.374522
45 89.093910 -0.000004 -0.000020 0.000000 0.000000 -0.880883
46 59.561523 -0.000006 -0.000011 -1.439831 0.193858 -0.037349
47 31.086210 -3.122438 0.002481 -0.047585 0.196245 0.125218
48 11.272788 -0.349162 -24.738400 2.932482 0.825927 1.631586
49 15.788312 -0.000002 0.000001 -0.371846 0.013527 0.256884
time 6
0 0.000000 0.000000 0.000000 1.570796 -0.000000 0.000000
1 0.000000 0.000000 0.000001 0.000000 -0.000000 0.000000
2 2.665930 145.467041 -6.776316 -1.570796 -1.570794 0.000000
3 -27.514357 17.090467 22.904945 -1.753425 0.557363 2.178972
4 38.339050 0.036428 0.000000 0.043932 0.147987 0.352109
5 40.888317 0.025451 -0.000004 0.037246 0.200625 0.086699
6 37.840919 0.015301 0.000005 0.021206 0.105908 -0.009340
7 48.571720 0.685601 -0.000022 0.053549 0.056667 -0.824405
8 44.261993 0.465025 0.000035 0.116169 -0.020376 -0.923307
9 47.723763 0.024181 -0.000011 0.140070 -0.089464 -0.465358
10 -26.517460 -15.956991 21.321764 -1.702183 0.571481 -2.539822
11 37.914181 -0.000000 0.000003 0.041089 0.108981 0.296257
12 41.189346 0.000000 0.000003 0.023678 0.143940 0.007095
13 38.203541 -0.000005 0.000003 0.016089 0.082571 -0.033774
14 50.162155 0.000231 0.000003 0.044432 0.013084 -0.798782
15 45.618233 -0.000008 0.000003 0.102377 -0.067236 -0.861581
16 48.074074 -0.000010 0.000004 0.124638 -0.139618 -0.411062
17 -21.384289 8.264067 -15.014407 -1.720447 0.822449 2.879627
18 43.390301 0.000000 0.000005 0.010791 0.192933 -0.074231
19 47.998016 0.000000 0.000005 0.016391 0.246606 -0.177780
20 50.215256 -0.000007 0.000005 0.013205 0.244922 -0.156941
21 41.153103 0.000001 -0.000001 0.055282 0.015766 -0.302550
22 66.351677 0.000000 0.000004 0.112591 -0.239841 -0.220237
23 0.000000 0.000000 0.000000 2.828897 -1.538624 1.497756
24 28.780212 2.237029 -0.092643 0.091163 0.038601 0.189248
25 -28.087412 1.373218 -16.478483 -2.765323 0.678810 2.783309
26 85.581291 -0.000001 0.000000 -0.000000 0.000000 -1.396200
27 53.650108 0.000007 0.000001 0.000000 -0.000000 1.102793
28 33.201397 -0.000008 0.000002 0.037616 0.537410 -0.163375
29 21.348547 28.691175 -0.000009 -0.142107 -0.253836 1.715631
30 -29.286324 4.145885 13.840841 2.930089 -0.553141 2.224338
31 85.581306 0.000019 -0.000001 0.000000 0.000000 -1.362307
32 53.650116 0.000003 0.000003 -0.000000 0.000000 1.248347
33 33.201393 0.000005 -0.000005 0.142854 -0.264353 -0.753472
34 21.348543 28.691191 -0.000002 -0.001089 0.004698 1.664852
35 32.418709 -0.044408 0.012130 -0.206700 -0.014168 0.694693
36 67.583923 6.189517 -0.001806 0.147909 -0.306729 0.701787
37 -23.970993 0.704744 -26.370962 0.717421 0.982789 3.082248
38 38.227757 0.000018 0.000016 0.775092 -0.837127 -0.399649
39 89.093903 0.000005 0.000003 -0.000000 0.000000 -1.374128
40 59.561550 0.000009 0.000015 1.298231 -0.193607 -0.132864
41 31.086205 -3.122459 -0.002484 -0.069906 -0.193571 0.339311
42 11.272802 -0.349144 24.738409 -2.685112 -0.693933 1.304567
43 -4.686998 9.818188 33.946762 0.627952 -1.475914 1.781754
44 38.227757 0.000001 0.000018 -0.917396 0.683240 -0.351588
45 89.093910 -0.000006 0.000001 0.000000 0.000000 -0.867655
46 59.561527 -0.000012 -0.000002 -1.447791 0.181493 -0.016761
47 31.086201 -3.122439 0.002488 -0.050541 0.205037 0.113396
48 11.272788 -0.349162 -24.738400 2.925152 0.830515 1.620790
49 15.788318 0.000019 -0.000001 -0.355202 0.038939 0.269791
time 7
0 0.000000 0.000000 0.000000 1.570796 -0.000000 0.000000
1 0.000000 0.000000 0.000001 0.000000 -0.000000 0.000000
2 4.520934 142.882202 -6.124533 -1.570796 -1.570794 0.000000
3 -27.514357 17.090467 22.904945 -1.705857 0.509853 2.281194
4 38.339050 0.036428 0.000000 0.047114 0.152800 0.370251
5 40.888317 0.025451 -0.000004 0.044098 0.237240 0.118207
6 37.840923 0.015302 0.000005 0.021837 0.149668 0.034012
7 48.571720 0.685601 -0.000022 0.046474 0.107023 -0.722420
8 44.261993 0.465025 0.000035 0.108489 0.014155 -0.912561
9 47.723763 0.024181 -0.000010 0.140282 -0.069173 -0.513627
10 -26.517460 -15.956991 21.321764 -1.681024 0.558726 -2.489699
11 37.914181 -0.000000 0.000003 0.040068 0.113682 0.276977
12 41.189346 0.000000 0.000003 0.024019 0.176949 -0.000829
13 38.203541 -0.000006 0.000003 0.017920 0.114350 0.009094
14 50.162155 0.000231 0.000003 0.037089 0.057218 -0.716549
15 45.618233 -0.000008 0.000003 0.091914 -0.033833 -0.847495
16 48.074074 -0.000010 0.000005 0.124455 -0.120781 -0.450273
17 -21.579737 7.666110 -15.069541 -1.640164 0.826658 2.976202
18 43.390301 0.000000 0.000005 -0.013686 0.182497 -0.118215
19 47.998013 0.000001 0.000006 -0.001230 0.255407 -0.206513
20 50.215252 -0.000007 0.000006 -0.013576 0.294771 -0.148009
21 41.153103 0.000001 -0.000002 0.025805 0.086343 -0.241828
22 66.351677 0.000000 0.000004 0.074844 -0.145767 -0.127610
23 0.000000 0.000000 0.000000 2.737132 -1.539424 1.607977
24 28.777792 2.267042 -0.220407 0.080289 0.041073 0.200140
25 -27.859657 2.789864 -16.433035 -2.767949 0.701449 2.740942
26 85.581291 -0.000001 -0.000001 -0.000000 -0.000000 -1.403266
27 53.650101 0.000005 -0.000008 0.000000 0.000000 1.111235
28 33.201393 -0.000009 0.000009 0.036538 0.538549 -0.169248
29 21.348549 28.691181 -0.000009 -0.142107 -0.253836 1.715631
30 -29.119789 4.987031 13.906776 2.945706 -0.541933 2.171666
31 85.581291 0.000009 -0.000005 0.000000 0.000000 -1.404523
32 53.650105 0.000008 0.000004 -0.000000 0.000000 1.288490
33 33.201401 -0.000002 -0.000007 0.140037 -0.255539 -0.753242
34 21.348545 28.691189 -0.000004 -0.001089 0.004698 1.664852
35 32.415771 -0.046301 0.012056 -0.206413 -0.000389 0.645214
36 67.583855 6.189469 -0.001831 0.149957 -0.305826 0.695111
37 -23.974129 0.578917 -26.370487 0.715628 0.982223 3.085505
38 38.227749 0.000001 -0.000016 0.676681 -0.817325 -0.291979
39 89.093903 -0.000003 0.000003 -0.000000 0.000000 -1.367762
40 59.561543 -0.000007 -0.000000 1.295087 -0.195543 -0.137633
41 31.086210 -3.122458 -0.002481 -0.074439 -0.192049 0.362815
42 11.272802 -0.349144 24.738409 -2.662241 -0.680996 1.268918
43 -4.730028 9.798553 33.946690 0.664139 -1.473122 1.753087
44 38.227757 0.000017 0.000018 -0.885340 0.613730 -0.320931
45 89.093887 0.000003 -0.000016 0.000000 0.000000 -0.865392
46 59.561516 -0.000003 -0.000002 -1.460267 0.160561 0.000365
47 31.086197 -3.122438 0.002494 -0.054462 0.204166 0.102230
48 11.272788 -0.349162 -24.738400 2.930164 0.836103 1.626513
49 15.788313 -0.000014 0.000001 -0.332271 0.065559 0.273398
time 8
0 0.000000 0.000000 0.000000 1.570796 -0.000000 0.000000
1 0.000000 0.000000 0.000001 0.000000 -0.000000 0.000000
2 6.471253 139.991486 -5.396391 -1.570796 -1.570794 0.000000
3 -27.514357 17.090467 22.904945 -1.660732 0.464811 2.378152
4 38.339050 0.036428 0.000000 0.045712 0.144390 0.369009
5 40.888317 0.025451 -0.000004 0.047317 0.260360 0.134359
6 37.840923 0.015302 0.000005 0.022417 0.198024 0.068525
7 48.571720 0.685601 -0.000022 0.037099 0.160322 -0.633670
8 44.261993 0.465025 0.000035 0.097507 0.052917 -0.870091
9 47.723766 0.024181 -0.000008 0.142680 -0.053592 -0.537584
10 -26.517460 -15.956991 21.321764 -1.658641 0.545264 -2.436708
11 37.914181 -0.000000 0.000003 0.035162 0.113858 0.238438
12 41.189346 0.000000 0.000003 0.023374 0.201335 -0.015017
13 38.203541 -0.000006 0.000003 0.015674 0.146117 0.021570
14 50.162155 0.000231 0.000003 0.027234 0.102615 -0.653191
15 45.618233 -0.000008 0.000003 0.078917 0.001273 -0.774648
16 48.074074 -0.000010 0.000005 0.122311 -0.106440 -0.466065
17 -21.783529 7.042623 -15.127033 -1.538237 0.831418 3.081513
18 43.390305 0.000000 0.000005 -0.025974 0.164394 -0.147363
19 47.998009 0.000001 0.000006 -0.023875 0.255201 -0.253096
20 50.215252 -0.000006 0.000006 -0.041495 0.331476 -0.151795
21 41.153103 0.000001 -0.000002 -0.004915 0.138896 -0.211422
22 66.351677 0.000000 0.000004 0.035196 -0.049088 -0.030761
23 0.000000 0.000000 0.000000 2.609829 -1.540458 1.752442
24 28.775429 2.296379 -0.347939 0.070689 0.042426 0.232097
25 -27.619539 4.261681 -16.386906 -2.774838 0.726727 2.691825
26 85.581299 -0.000000 0.000010 -0.000000 -0.000000 -1.427749
27 53.650116 0.000003 -0.000007 0.000000 0.000000 1.121718
28 33.201393 -0.000003 0.000006 0.037179 0.547660 -0.172427
29 21.348549 28.691181 -0.000003 -0.142107 -0.253836 1.715631
30 -28.888937 6.152349 13.968704 2.957106 -0.531696 2.123207
31 85.581299 0.000011 -0.000006 0.000000 0.000000 -1.489010
32 53.650127 0.000003 -0.000005 -0.000000 0.000000 1.372749
33 33.201397 -0.000006 0.000010 0.137331 -0.246676 -0.761810
34 21.348547 28.691183 -0.000006 -0.001089 0.004698 1.664852
35 32.412243 -0.048619 0.011893 -0.203775 0.006605 0.570323
36 67.583801 6.189437 -0.001849 0.151814 -0.305008 0.689055
37 -23.977150 0.442784 -26.369974 0.695471 0.987437 3.070234
38 38.227757 -0.000008 -0.000007 0.576778 -0.794479 -0.177618
39 89.093910 -0.000001 0.000007 -0.000000 0.000000 -1.355434
40 59.561546 0.000002 0.000007 1.297409 -0.196130 -0.139483
41 31.086203 -3.122439 -0.002505 -0.079010 -0.190333 0.386784
42 11.272802 -0.349144 24.738409 -2.644664 -0.669473 1.240834
43 -4.770059 9.779953 33.946625 0.658844 -1.458245 1.765966
44 38.227757 0.000012 0.000017 -0.850975 0.539651 -0.288309
45 89.093903 -0.000006 0.000001 -0.000000 0.000000 -0.874409
46 59.561531 -0.000004 -0.000005 -1.475055 0.134396 0.014078
47 31.086205 -3.122440 0.002493 -0.059186 0.195330 0.092014
48 11.272788 -0.349162 -24.738400 2.954302 0.844028 1.657692
49 15.788318 0.000002 0.000000 -0.309029 0.088741 0.268595
time 9
0 0.000000 0.000000 0.000000 1.570796 -0.000000 0.000000
1 0.000000 0.000000 0.000001 0.000000 -0.000000 0.000000
2 8.444882 137.000595 -4.606970 -1.570796 -1.570794 0.000000
3 -27.514357 17.090467 22.904945 -1.624473 0.428207 2.456398
4 38.339050 0.036428 0.000000 0.039062 0.120799 0.345402
5 40.888317 0.025451 -0.000004 0.044863 0.265518 0.128478
6 37.840923 0.015302 0.000005 0.022608 0.244967 0.094120
7 48.571720 0.685601 -0.000022 0.024473 0.222212 -0.564991
8 44.261993 0.465025 0.000035 0.080819 0.099866 -0.759015
9 47.723770 0.024181 -0.000007 0.144463 -0.039032 -0.532905
10 -26.517460 -15.956991 21.321764 -1.636487 0.531830 -2.384147
11 37.914181 -0.000000 0.000003 0.028149 0.109396 0.193475
12 41.189346 0.000000 0.000003 0.021760 0.213217 -0.031991
13 38.203541 -0.000008 0.000002 0.010418 0.178151 0.011151
14 50.162155 0.000231 0.000003 0.014488 0.155168 -0.599359
15 45.618233 -0.000008 0.000003 0.061887 0.040327 -0.646240
16 48.074074 -0.000010 0.000006 0.114062 -0.096355 -0.438801
17 -21.972950 6.463092 -15.180472 -1.427701 0.835603 -3.096330
18 43.390301 0.000000 0.000006 -0.033820 0.140442 -0.175315
19 47.998009 0.000001 0.000006 -0.047802 0.246816 -0.306441
20 50.215252 -0.000005 0.000006 -0.066095 0.352742 -0.166081
21 41.153103 0.000001 -0.000003 -0.039048 0.184932 -0.191913
22 66.351685 0.000000 0.000004 0.003410 0.031916 0.036722
23 0.000000 0.000000 0.000000 2.464495 -1.541789 1.913043
24 28.773539 2.322760 -0.443967 0.062519 0.042627 0.277038
25 -27.396177 5.629385 -16.349777 -2.782644 0.750345 2.647089
26 85.581291 -0.000004 0.000000 -0.000000 -0.000000 -1.460528
27 53.650124 0.000004 0.000009 0.000000 0.000000 1.132021
28 33.201389 0.000010 0.000001 0.039755 0.565917 -0.172863
29 21.348547 28.691185 -0.000000 -0.142107 -0.253836 1.715631
30 -28.630201 7.409678 14.020333 2.967327 -0.522098 2.067528
31 85.581314 0.000008 0.000000 0.000000 -0.000000 -1.584010
32 53.650120 -0.000001 -0.000002 -0.000000 0.000000 1.468911
33 33.201401 -0.000003 -0.000006 0.134776 -0.238039 -0.776319
34 21.348547 28.691181 0.000001 -0.001089 0.004698 1.664852
35 32.408985 -0.050785 0.011707 -0.200282 0.008287 0.494165
36 67.583786 6.189420 -0.001858 0.153449 -0.304287 0.683726
37 -23.979828 0.308521 -26.369469 0.658018 0.998087 3.037774
38 38.227757 0.000001 0.000018 0.492659 -0.774354 -0.077547
39 89.093887 0.000004 0.000000 -0.000000 0.000000 -1.339185
40 59.561535 0.000000 0.000000 1.303718 -0.195701 -0.138466
41 31.086199 -3.122451 -0.002489 -0.083334 -0.188574 0.409660
42 11.272802 -0.349144 24.738409 -2.633139 -0.660557 1.221816
43 -4.805109 9.763380 33.946568 0.624312 -1.435048 1.807749
44 38.227749 0.000000 0.000018 -0.819844 0.474775 -0.259522
45 89.093903 -0.000001 0.000001 -0.000000 0.000000 -0.894096
46 59.561516 -0.000004 0.000000 -1.490212 0.106121 0.024720
47 31.086208 -3.122434 0.002492 -0.064427 0.181226 0.081522
48 11.272788 -0.349162 -24.738400 2.991352 0.853041 1.706094
49 15.788313 -0.000018 0.000001 -0.290379 0.105011 0.256770
time 10
0 0.000000 0.000000 0.000000 1.570796 -0.000000 0.000000
1 0.000000 0.000000 0.000001 0.000000 -0.000000 0.000000
2 10.351832 134.173615 -3.792143 -1.570796 -1.570794 0.000000
3 -27.514357 17.090467 22.904945 -1.606348 0.410123 2.495334
4 38.339050 0.036428 0.000000 0.028827 0.086029 0.306967
5 40.888317 0.025451 -0.000004 0.033971 0.247281 0.086038
6 37.840927 0.015303 0.000005 0.021612 0.282867 0.108250
7 48.571720 0.685601 -0.000021 0.007305 0.302211 -0.507809
8 44.261993 0.465025 0.000035 0.055661 0.156383 -0.616901
9 47.723770 0.024182 -0.000006 0.135962 -0.018286 -0.488461
10 -26.517460 -15.956991 21.321764 -1.617294 0.520306 -2.338727
11 37.914181 -0.000000 0.000003 0.020541 0.099011 0.155843
12 41.189346 0.000000 0.000003 0.018157 0.205148 -0.059072
13 38.203541 -0.000010 0.000002 0.003755 0.204119 -0.015380
14 50.162155 0.000231 0.000003 -0.000755 0.208546 -0.557026
15 45.618233 -0.000009 0.000003 0.040644 0.082286 -0.526022
16 48.074074 -0.000010 0.000006 0.095512 -0.080507 -0.361554
17 -22.124615 5.999085 -15.223256 -1.328445 0.839519 -3.010826
18 43.390301 0.000000 0.000006 -0.038649 0.110972 -0.196483
19 47.998009 0.000001 0.000006 -0.069016 0.229419 -0.355082
20 50.215252 -0.000004 0.000007 -0.081980 0.351745 -0.194289
21 41.153103 0.000001 -0.000004 -0.071955 0.220799 -0.185143
22 66.351685 0.000000 0.000004 -0.025894 0.106980 0.096306
23 0.000000 0.000000 0.000000 2.321739 -1.543768 2.067937
24 28.772869 2.341332 -0.460379 0.056556 0.041079 0.324440
25 -27.209736 6.739424 -16.331224 -2.787147 0.766745 2.621661
26 85.581291 -0.000003 -0.000001 -0.000000 -0.000000 -1.492325
27 53.650112 0.000005 0.000002 -0.000000 0.000000 1.139425
28 33.201389 -0.000004 -0.000011 0.043609 0.589589 -0.170430
29 21.348547 28.691185 0.000002 -0.142107 -0.253836 1.715631
30 -28.381111 8.519917 14.055184 2.976176 -0.513493 2.007525
31 85.581299 -0.000007 0.000002 0.000000 -0.000000 -1.646258
32 53.650108 0.000001 0.000000 -0.000000 0.000000 1.533553
33 33.201401 -0.000004 0.000004 0.132574 -0.230277 -0.793578
34 21.348547 28.691181 0.000001 -0.001089 0.004698 1.664852
35 32.406925 -0.052194 0.011565 -0.197503 0.004937 0.445544
36 67.583771 6.189410 -0.001862 0.154762 -0.303709 0.679446
37 -23.981785 0.200946 -26.369057 0.606143 1.013393 2.990741
38 38.227753 0.000020 -0.000008 0.448283 -0.766150 -0.019833
39 89.093918 -0.000002 -0.000012 -0.000000 0.000000 -1.320436
40 59.561531 0.000003 0.000005 1.313295 -0.194382 -0.133876
41 31.086199 -3.122457 -0.002482 -0.087012 -0.186970 0.429280
42 11.272802 -0.349144 24.738409 -2.630140 -0.656416 1.216054
43 -4.833331 9.749775 33.946522 0.566023 -1.407606 1.871988
44 38.227753 -0.000005 0.000007 -0.797742 0.435878 -0.240883
45 89.093910 -0.000002 0.000002 -0.000000 0.000000 -0.933850
46 59.561535 -0.000004 0.000007 -1.503428 0.078901 0.031775
47 31.086216 -3.122425 0.002492 -0.070034 0.163719 0.069167
48 11.272788 -0.349162 -24.738400 3.033844 0.861658 1.762008
49 15.788311 -0.000015 0.000000 -0.276536 0.113089 0.233813
time 11
0 0.000000 0.000000 0.000000 1.570796 -0.000000 0.000000
1 0.000000 0.000000 0.000001 0.000000 -0.000000 0.000000
2 12.063667 131.860718 -2.980246 -1.570796 -1.570794 0.000000
3 -27.514357 17.090467 22.904945 -1.606048 0.409814 2.495986
4 38.339050 0.036428 0.000000 0.018201 0.047782 0.266549
5 40.888317 0.025451 -0.000004 0.019895 0.214344 0.026788
6 37.840927 0.015303 0.000005 0.019223 0.306679 0.111698
7 48.571720 0.685601 -0.000021 -0.011808 0.377002 -0.467066
8 44.261993 0.465025 0.000035 0.023045 0.228301 -0.489722
9 47.723770 0.024182 -0.000004 0.102660 0.015130 -0.364307
10 -26.517460 -15.956991 21.321764 -1.603204 0.511773 -2.305309
11 37.914181 -0.000000 0.000003 0.013943 0.082481 0.137098
12 41.189346 0.000000 0.000003 0.012889 0.182331 -0.096456
13 38.203545 -0.000012 0.000002 -0.002459 0.219013 -0.046707
14 50.162155 0.000231 0.000003 -0.016196 0.249341 -0.537359
15 45.618233 -0.000010 0.000003 0.015719 0.131505 -0.447132
16 48.074074 -0.000010 0.000006 0.062026 -0.049537 -0.217074
17 -22.215128 5.722170 -15.248792 -1.256815 0.841565 -2.959036
18 43.390301 0.000000 0.000006 -0.041915 0.077871 -0.205469
19 47.998009 0.000001 0.000006 -0.084073 0.204421 -0.388762
20 50.215252 -0.000004 0.000007 -0.092355 0.330228 -0.246277
21 41.153103 0.000001 -0.000004 -0.098769 0.244682 -0.191494
22 66.351685 0.000000 0.000004 -0.052431 0.175308 0.139918
23 0.000000 0.000000 0.000000 2.196343 -1.546366 2.202003
24 28.773094 2.355671 -0.411454 0.052935 0.037784 0.363080
25 -27.036602 7.574076 -16.339317 -2.787077 0.774282 2.620811
26 85.581291 0.000002 0.000008 -0.000000 -0.000000 -1.514144
27 53.650116 0.000004 0.000001 -0.000000 0.000000 1.142031
28 33.201401 0.000003 0.000001 0.047662 0.612974 -0.165826
29 21.348545 28.691181 0.000001 -0.142107 -0.253836 1.715631
30 -28.179363 9.243580 14.066814 2.980185 -0.505881 1.961870
31 85.581322 0.000002 -0.000005 0.000000 -0.000000 -1.660948
32 53.650116 0.000006 0.000000 0.000000 0.000000 1.552904
33 33.201397 -0.000001 0.000002 0.130785 -0.223800 -0.809607
34 21.348547 28.691183 0.000001 -0.001089 0.004698 1.664852
35 32.406525 -0.052549 0.011496 -0.195982 -0.002617 0.433242
36 67.583778 6.189406 -0.001863 0.155746 -0.303275 0.676237
37 -23.982628 0.144690 -26.368847 0.546577 1.030856 2.935610
38 38.227741 0.000007 0.000001 0.442194 -0.770545 -0.003584
39 89.093910 -0.000004 0.000001 -0.000000 -0.000000 -1.301320
40 59.561516 -0.000005 -0.000001 1.324484 -0.192564 -0.126032
41 31.086199 -3.122458 -0.002483 -0.089820 -0.185647 0.444405
42 11.272802 -0.349144 24.738409 -2.636074 -0.657980 1.224472
43 -4.852880 9.740076 33.946491 0.501448 -1.381100 1.940617
44 38.227760 0.000002 -0.000003 -0.782577 0.416351 -0.230536
45 89.093910 -0.000003 -0.000003 -0.000000 0.000000 -0.991862
46 59.561531 -0.000004 0.000003 -1.513010 0.055635 0.035860
47 31.086216 -3.122421 0.002492 -0.075692 0.145630 0.053930
48 11.272788 -0.349162 -24.738400 3.073076 0.868107 1.813886
49 15.788308 0.000002 0.000000 -0.263506 0.116779 0.200898
time 12
0 0.000000 0.000000 0.000000 1.570796 -0.000000 0.000000
1 0.000000 0.000000 0.000001 0.000000 -0.000000 0.000000
2 12.864063 131.883698 -2.010534 -1.570796 -1.570794 0.000000
3 -27.514357 17.090467 22.904945 -1.617808 0.421582 2.470696
4 38.339050 0.036428 0.000000 0.009443 0.011758 0.234242
5 40.888317 0.025451 -0.000004 0.006795 0.171500 -0.033535
6 37.840927 0.015303 0.000005 0.013573 0.305700 0.096414
7 48.571712 0.685599 -0.000021 -0.032195 0.422157 -0.453869
8 44.261993 0.465025 0.000035 -0.016680 0.309759 -0.372635
9 47.723770 0.024182 -0.000003 0.047322 0.068248 -0.175549
10 -26.517460 -15.956991 21.321764 -1.596929 0.507983 -2.290437
11 37.914181 -0.000000 0.000003 0.007489 0.052704 0.145700
12 41.189346 0.000000 0.000003 0.006953 0.149345 -0.135240
13 38.203541 -0.000014 0.000002 -0.006968 0.215683 -0.079767
14 50.162155 0.000231 0.000003 -0.032438 0.266387 -0.557752
15 45.618233 -0.000010 0.000003 -0.013911 0.188423 -0.391252
16 48.074074 -0.000010 0.000007 0.019197 -0.001500 -0.043760
17 -22.220869 5.704606 -15.250410 -1.229870 0.841545 -2.959034
18 43.390301 0.000000 0.000006 -0.044414 0.040058 -0.193461
19 47.998005 0.000001 0.000007 -0.088613 0.167608 -0.394501
20 50.215252 -0.000003 0.000008 -0.097980 0.290622 -0.311707
21 41.153103 0.000001 -0.000005 -0.115419 0.252832 -0.217974
22 66.351700 0.000000 0.000004 -0.074966 0.230699 0.150109
23 0.000000 0.000000 0.000000 2.108725 -1.549852 2.293772
24 28.774599 2.367318 -0.189309 0.052304 0.032283 0.381716
25 -27.060095 7.750656 -16.376667 -2.784248 0.774648 2.641196
26 85.581306 0.000002 0.000007 -0.000000 -0.000000 -1.516324
27 53.650105 -0.000003 0.000001 -0.000000 0.000000 1.137209
28 33.201412 0.000004 0.000002 0.051041 0.631283 -0.159179
29 21.348547 28.691177 -0.000008 -0.142107 -0.253836 1.715631
30 -28.054008 9.360058 14.047005 2.975564 -0.499601 1.949116
31 85.581299 0.000000 -0.000004 0.000000 -0.000000 -1.646050
32 53.650097 0.000006 -0.000001 -0.000000 0.000000 1.546859
33 33.201401 0.000001 0.000000 0.129585 -0.219225 -0.820838
34 21.348547 28.691183 0.000001 -0.001089 0.004698 1.664852
35 32.407181 -0.052251 0.011453 -0.194968 -0.015263 0.445777
36 67.583786 6.189409 -0.001860 0.156322 -0.303021 0.674358
37 -23.982071 0.160376 -26.368902 0.483697 1.049148 2.876459
38 38.227749 0.000007 0.000001 0.457124 -0.783351 -0.008534
39 89.093903 -0.000005 0.000015 -0.000000 0.000000 -1.282037
40 59.561543 -0.000004 -0.000000 1.336276 -0.190447 -0.114472
41 31.086199 -3.122458 -0.002484 -0.091385 -0.184795 0.453018
42 11.272802 -0.349144 24.738409 -2.656557 -0.668499 1.255830
43 -4.861965 9.735191 33.946480 0.438858 -1.360134 2.004451
44 38.227757 0.000019 -0.000004 -0.773476 0.414982 -0.227135
45 89.093910 -0.000003 -0.000002 -0.000000 -0.000000 -1.061524
46 59.561531 -0.000016 0.000004 -1.516706 0.039578 0.036741
47 31.086216 -3.122424 0.002488 -0.081197 0.129177 0.034300
48 11.272788 -0.349162 -24.738400 3.100836 0.870806 1.850996
49 15.788321 -0.000002 0.000000 -0.252161 0.115703 0.161111
time 13
0 0.000000 0.000000 0.000000 1.570796 -0.000000 0.000000
1 0.000000 0.000000 0.000001 0.000000 -0.000000 0.000000
2 13.235695 133.764420 -0.780943 -1.570796 -1.570794 0.000000
3 -27.514357 17.090467 22.904945 -1.638219 0.442070 2.426746
4 38.339050 0.036428 0.000000 0.002796 -0.024971 0.212505
5 40.888317 0.025451 -0.000004 -0.000898 0.123718 -0.077694
6 37.840927 0.015304 0.000005 0.001388 0.267662 0.044036
7 48.571716 0.685596 -0.000021 -0.058145 0.425580 -0.484239
8 44.261993 0.465025 0.000035 -0.054646 0.355812 -0.331456
9 47.723770 0.024183 -0.000001 -0.005664 0.146736 -0.028815
10 -26.517460 -15.956991 21.321764 -1.601286 0.510628 -2.300778
11 37.914181 -0.000000 0.000003 0.000530 0.012311 0.171304
12 41.189346 0.000000 0.000003 0.001633 0.112791 -0.164323
13 38.203541 -0.000015 0.000002 -0.010835 0.190934 -0.125922
14 50.162155 0.000231 0.000003 -0.053221 0.263931 -0.626767
15 45.618233 -0.000010 0.000003 -0.041774 0.230663 -0.369150
16 48.074074 -0.000010 0.000007 -0.013432 0.063100 0.043448
17 -22.149439 5.923140 -15.230262 -1.243078 0.839378 -3.010813
18 43.390301 0.000000 0.000006 -0.045695 -0.006953 -0.155155
19 47.998005 0.000001 0.000007 -0.080498 0.107422 -0.366331
20 50.215252 -0.000002 0.000008 -0.098807 0.238579 -0.367546
21 41.153103 0.000001 -0.000005 -0.124326 0.245896 -0.275153
22 66.351700 0.000000 0.000004 -0.094124 0.273897 0.103480
23 0.000000 0.000000 0.000000 2.077286 -1.554387 2.323977
24 28.771015 2.372948 0.261157 0.054806 0.023084 0.374469
25 -27.379223 7.121098 -16.439508 -2.780759 0.770531 2.673314
26 85.581291 -0.000001 0.000005 -0.000000 -0.000000 -1.482366
27 53.650120 0.000000 0.000002 -0.000000 0.000000 1.118885
28 33.201408 0.000002 -0.000004 0.052855 0.639691 -0.150495
29 21.348549 28.691179 0.000004 -0.142107 -0.253836 1.715631
30 -27.983038 8.877737 13.987243 2.956830 -0.492985 1.989368
31 85.581306 -0.000006 -0.000009 0.000000 0.000000 -1.615198
32 53.650108 -0.000002 0.000008 -0.000000 -0.000000 1.527042
33 33.201397 -0.000003 -0.000009 0.129084 -0.217007 -0.823454
34 21.348547 28.691185 0.000001 -0.001089 0.004698 1.664852
35 32.408516 -0.051535 0.011423 -0.194198 -0.031457 0.472846
36 67.583809 6.189424 -0.001854 0.156416 -0.302979 0.674052
37 -23.980360 0.238545 -26.369198 0.423000 1.066431 2.818485
38 38.227757 0.000005 -0.000002 0.487059 -0.801388 -0.028550
39 89.093910 -0.000006 0.000011 -0.000000 0.000000 -1.257922
40 59.561543 -0.000005 0.000000 1.347365 -0.188312 -0.098986
41 31.086199 -3.122458 -0.002486 -0.091365 -0.184589 0.453245
42 11.272802 -0.349144 24.738409 -2.690662 -0.686881 1.308448
43 -4.858702 9.736078 33.946487 0.388896 -1.349005 2.052094
44 38.227760 -0.000007 0.000006 -0.770220 0.432153 -0.229548
45 89.093910 -0.000001 -0.000012 -0.000000 -0.000000 -1.133584
46 59.561531 -0.000008 -0.000014 -1.512194 0.031588 0.034015
47 31.086208 -3.122430 0.002485 -0.086531 0.116491 0.007394
48 11.272788 -0.349162 -24.738400 3.117343 0.869696 1.873647
49 15.788319 0.000007 0.000000 -0.243452 0.109878 0.118924
time 14
0 0.000000 0.000000 0.000000 1.570796 -0.000000 0.000000
1 0.000000 0.000000 0.000001 0.000000 -0.000000 0.000000
2 13.301076 136.731201 0.597042 -1.570796 -1.570794 0.000000
3 -27.514357 17.090467 22.904945 -1.664768 0.468458 2.369800
4 38.339050 0.036428 0.000000 -0.003564 -0.068049 0.193822
5 40.888317 0.025451 -0.000004 -0.004680 0.064443 -0.110497
6 37.840927 0.015304 0.000004 -0.011856 0.207281 -0.026120
7 48.571716 0.685596 -0.000021 -0.089355 0.400595 -0.549915
8 44.261993 0.465025 0.000035 -0.095841 0.378451 -0.356197
9 47.723766 0.024183 0.000000 -0.055935 0.234336 0.092544
10 -26.517460 -15.956991 21.321764 -1.617507 0.520388 -2.339186
11 37.914181 -0.000000 0.000003 -0.006174 -0.028662 0.199927
12 41.189346 0.000000 0.000003 -0.002604 0.074724 -0.178024
13 38.203541 -0.000017 0.000001 -0.013703 0.152906 -0.175376
14 50.162155 0.000231 0.000003 -0.072108 0.246299 -0.713488
15 45.618233 -0.000010 0.000003 -0.065749 0.245719 -0.393628
16 48.074074 -0.000010 0.000007 -0.042468 0.136228 0.097994
17 -22.038012 6.264050 -15.198828 -1.282537 0.835603 -3.096330
18 43.390301 0.000000 0.000007 -0.045669 -0.057589 -0.104679
19 47.998005 0.000001 0.000007 -0.065057 0.034556 -0.320798
20 50.215252 -0.000001 0.000008 -0.094997 0.179669 -0.395842
21 41.153103 0.000001 -0.000006 -0.127033 0.226944 -0.345338
22 66.351700 0.000000 0.000004 -0.111112 0.307852 0.012040
23 0.000000 0.000000 0.000000 -1.889885 -1.560817 0.000000
24 28.754452 2.364184 0.879932 0.059816 0.010014 0.349416
25 -27.837921 6.099866 -16.516741 -2.778224 0.764300 2.708636
26 85.581306 0.000002 -0.000000 0.000000 -0.000000 -1.415478
27 53.650108 -0.000004 -0.000000 -0.000000 0.000000 1.066467
28 33.201401 0.000003 -0.000000 0.053407 0.639928 -0.138173
29 21.348547 28.691187 0.000009 -0.142107 -0.253836 1.715631
30 -27.948040 8.007162 13.898185 2.926219 -0.485404 2.071789
31 85.581314 0.000008 -0.000009 -0.000000 0.000000 -1.578445
32 53.650116 0.000011 0.000004 -0.000000 -0.000000 1.501329
33 33.201405 -0.000002 -0.000003 0.129111 -0.216479 -0.816998
34 21.348545 28.691185 0.000000 -0.001089 0.004698 1.664852
35 32.410187 -0.050599 0.011398 -0.193622 -0.049461 0.506339
36 67.583839 6.189441 -0.001844 0.155924 -0.303196 0.675657
37 -23.977747 0.360473 -26.369659 0.368536 1.081196 2.765568
38 38.227749 -0.000018 0.000018 0.528439 -0.822101 -0.060428
39 89.093910 -0.000003 0.000000 -0.000000 0.000000 -1.229708
40 59.561543 -0.000006 0.000000 1.358116 -0.186075 -0.075423
41 31.086199 -3.122457 -0.002489 -0.089550 -0.185131 0.443961
42 11.272802 -0.349144 24.738409 -2.732557 -0.709057 1.372920
43 -4.841302 9.743647 33.946518 0.343944 -1.344449 2.091721
44 38.227760 0.000008 -0.000019 -0.771622 0.469449 -0.236690
45 89.093910 -0.000003 0.000000 -0.000000 -0.000000 -1.200351
46 59.561523 0.000004 0.000035 -1.500472 0.028794 0.027506
47 31.086208 -3.122436 0.002482 -0.092913 0.105765 -0.035449
48 11.272788 -0.349162 -24.738400 3.130752 0.866610 1.892519
49 15.788319 -0.000000 0.000000 -0.237897 0.099697 0.078144
time 15
0 0.000000 0.000000 0.000000 1.570796 -0.000000 0.000000
1 0.000000 0.000000 0.000001 0.000000 -0.000000 0.000000
2 12.871328 139.711548 1.759314 -1.570796 -1.570794 0.000000
3 -27.514357 17.090467 22.904945 -1.695442 0.499329 2.303683
4 38.339050 0.036428 0.000000 -0.009525 -0.112023 0.177189
5 40.888317 0.025451 -0.000004 -0.006682 -0.006493 -0.138975
6 37.840931 0.015304 0.000004 -0.019199 0.142757 -0.086279
7 48.571716 0.685596 -0.000021 -0.113544 0.350950 -0.622801
8 44.261993 0.465025 0.000035 -0.138347 0.389818 -0.412712
9 47.723766 0.024183 0.000001 -0.089597 0.290322 0.133500
10 -26.517460 -15.956991 21.321764 -1.644790 0.536977 -2.403956
11 37.914181 -0.000000 0.000003 -0.011288 -0.058310 0.215423
12 41.189346 0.000000 0.000003 -0.006804 0.028041 -0.179389
13 38.203541 -0.000019 0.000001 -0.014873 0.109825 -0.210350
14 50.162155 0.000231 0.000003 -0.078442 0.212852 -0.777660
15 45.618233 -0.000011 0.000003 -0.090020 0.240576 -0.469683
16 48.074074 -0.000010 0.000008 -0.065269 0.189388 0.114828
17 -21.893959 6.704776 -15.158190 -1.339754 0.831250 3.081530
18 43.390301 0.000000 0.000007 -0.043269 -0.103289 -0.059768
19 47.998005 0.000001 0.000007 -0.046865 -0.035269 -0.276737
20 50.215252 -0.000001 0.000009 -0.082685 0.100824 -0.368142
21 41.153103 0.000001 -0.000007 -0.123046 0.196365 -0.403819
22 66.351700 0.000000 0.000004 -0.121134 0.323478 -0.083484
23 0.000000 0.000000 0.000000 -1.908880 -1.570098 0.000000
24 28.736275 2.345369 1.460808 0.067190 -0.005299 0.312322
25 -28.350895 4.899175 -16.600397 -2.778748 0.758266 2.737795
26 85.581314 0.000003 0.000003 0.000000 -0.000000 -1.337312
27 53.650108 -0.000003 0.000006 -0.000000 0.000000 0.986759
28 33.201401 0.000004 0.000001 0.053150 0.634347 -0.122125
29 21.348547 28.691174 -0.000003 -0.142107 -0.253836 1.715631
30 -27.935884 6.970715 13.793609 2.891696 -0.481103 2.169374
31 85.581291 0.000008 -0.000003 -0.000000 0.000000 -1.546343
32 53.650124 -0.000000 0.000000 -0.000000 -0.000000 1.477648
33 33.201408 0.000001 0.000001 0.129680 -0.217628 -0.803293
34 21.348545 28.691185 -0.000000 -0.001089 0.004698 1.664852
35 32.411869 -0.049638 0.011369 -0.193058 -0.067661 0.538177
36 67.583878 6.189466 -0.001831 0.154754 -0.303712 0.679473
37 -23.974445 0.508646 -26.370216 0.325156 1.091688 2.721823
38 38.227753 -0.000008 0.000011 0.579454 -0.843412 -0.102878
39 89.093903 0.000001 0.000012 -0.000000 0.000000 -1.198994
40 59.561523 -0.000017 0.000000 1.371953 -0.182770 -0.032107
41 31.086199 -3.122457 -0.002491 -0.085490 -0.186580 0.422829
42 11.272802 -0.349144 24.738409 -2.776491 -0.731749 1.440338
43 -4.803304 9.760892 33.946583 0.297648 -1.343914 2.130104
44 38.227760 -0.000013 0.000001 -0.776732 0.533043 -0.249137
45 89.093910 0.000001 -0.000008 -0.000000 -0.000000 -1.270796
46 59.561527 -0.000006 -0.000002 -1.483484 0.030389 0.016731
47 31.086205 -3.122440 0.002489 -0.100270 0.095705 -0.092482
48 11.272788 -0.349162 -24.738400 3.141357 0.861835 1.907943
49 15.788306 0.000001 0.000000 -0.238449 0.079255 0.032519
time 16
0 0.000000 0.000000 0.000000 1.570796 -0.000000 0.000000
1 0.000000 0.000000 0.000001 0.000000 -0.000000 0.000000
2 12.447166 142.859024 2.952602 -1.570796 -1.570794 0.000000
3 -27.514357 17.090467 22.904945 -1.727748 0.531527 2.234313
4 38.339050 0.036428 0.000000 -0.014700 -0.150326 0.161661
5 40.888317 0.025451 -0.000004 -0.007349 -0.078060 -0.165426
6 37.840931 0.015305 0.000004 -0.017862 0.081788 -0.124514
7 48.571716 0.685596 -0.000021 -0.119306 0.285137 -0.672121
8 44.261993 0.465025 0.000035 -0.172826 0.385408 -0.472983
9 47.723766 0.024183 0.000003 -0.117064 0.335561 0.122822
10 -26.517460 -15.956991 21.321764 -1.677920 0.556937 -2.482430
11 37.914181 -0.000000 0.000003 -0.014910 -0.074950 0.213134
12 41.189346 0.000000 0.000003 -0.010814 -0.022163 -0.175129
13 38.203537 -0.000021 0.000001 -0.014303 0.066113 -0.224812
14 50.162155 0.000231 0.000003 -0.071264 0.168571 -0.807000
15 45.618233 -0.000013 0.000003 -0.108922 0.221982 -0.555333
16 48.074074 -0.000009 0.000009 -0.082734 0.213780 0.093419
17 -21.723351 7.226735 -15.110065 -1.400917 0.826601 2.976206
18 43.390301 0.000000 0.000007 -0.038614 -0.137341 -0.036159
19 47.998005 0.000001 0.000007 -0.031845 -0.088504 -0.251708
20 50.215252 -0.000000 0.000009 -0.063583 0.005344 -0.307452
21 41.153103 0.000001 -0.000007 -0.112919 0.156947 -0.429102
22 66.351700 0.000000 0.000004 -0.121841 0.315803 -0.141823
23 0.000000 0.000000 0.000000 -1.934940 -1.557548 0.000000
24 28.710135 2.300908 1.980963 0.076252 -0.020366 0.272231
25 -28.838467 3.719495 -16.682676 -2.782702 0.752463 2.761192
26 85.581306 0.000007 0.000009 0.000000 -0.000000 -1.274095
27 53.650101 -0.000005 -0.000001 0.000000 0.000000 0.913923
28 33.201393 0.000005 0.000001 0.052514 0.625731 -0.104940
29 21.348547 28.691177 0.000001 -0.142107 -0.253836 1.715631
30 -27.933329 5.990551 13.687228 2.862960 -0.482891 2.249518
31 85.581306 0.000008 0.000000 -0.000000 0.000000 -1.517633
32 53.650116 -0.000007 -0.000009 -0.000000 -0.000000 1.462666
33 33.201408 0.000000 0.000004 0.130761 -0.220419 -0.786916
34 21.348545 28.691185 -0.000000 -0.001089 0.004698 1.664852
35 32.413219 -0.048841 0.011328 -0.192768 -0.086339 0.568210
36 67.583923 6.189503 -0.001813 0.153099 -0.304442 0.684867
37 -23.970655 0.665524 -26.370808 0.282942 1.099320 2.676476
38 38.227757 0.000001 0.000002 0.636182 -0.862730 -0.152253
39 89.093910 -0.000000 0.000002 -0.000000 0.000000 -1.168092
40 59.561527 -0.000007 -0.000000 1.387295 -0.178837 0.018883
41 31.086199 -3.122456 -0.002492 -0.079925 -0.188608 0.393791
42 11.272802 -0.349144 24.738409 -2.816952 -0.750895 1.501705
43 -4.743514 9.788284 33.946678 0.250589 -1.345918 2.167616
44 38.227749 0.000002 -0.000000 -0.786130 0.606237 -0.265285
45 89.093903 0.000002 0.000002 -0.000000 -0.000000 -1.347613
46 59.561531 -0.000008 -0.000003 -1.464799 0.034473 0.002469
47 31.086197 -3.122438 0.002505 -0.106986 0.086140 -0.149900
48 11.272788 -0.349162 -24.738400 -3.133605 0.855995 1.920357
49 15.788318 -0.000016 -0.000000 -0.243641 0.050177 -0.018685
time 17
0 0.000000 0.000000 0.000000 1.570796 -0.000000 0.000000
1 0.000000 0.000000 0.000001 0.000000 -0.000000 0.000000
2 11.825854 145.299057 3.929390 -1.570796 -1.570794 0.000000
3 -27.514357 17.090467 22.904945 -1.759389 0.563124 2.166321
4 38.339050 0.036428 0.000000 -0.018761 -0.176235 0.146651
5 40.888317 0.025451 -0.000004 -0.007204 -0.141242 -0.191363
6 37.840931 0.015305 0.000004 -0.011747 0.014637 -0.152898
7 48.571716 0.685596 -0.000021 -0.104013 0.193721 -0.691217
8 44.261993 0.465025 0.000035 -0.189498 0.358525 -0.514386
9 47.723766 0.024183 0.000004 -0.139918 0.372846 0.086524
10 -26.517460 -15.956991 21.321764 -1.713594 0.578446 -2.566942
11 37.914181 -0.000000 0.000003 -0.017814 -0.085912 0.200649
12 41.189346 0.000000 0.000003 -0.014262 -0.070678 -0.168914
13 38.203537 -0.000023 0.000001 -0.012888 0.017636 -0.226279
14 50.162155 0.000231 0.000003 -0.058219 0.116806 -0.822852
15 45.618233 -0.000013 0.000003 -0.114927 0.190741 -0.614853
16 48.074074 -0.000009 0.000010 -0.098088 0.222597 0.038269
17 -21.532091 7.811885 -15.056110 -1.461799 0.822426 2.879629
18 43.390301 0.000000 0.000007 -0.029132 -0.158013 -0.042513
19 47.998005 0.000001 0.000008 -0.019219 -0.126215 -0.245383
20 50.215252 0.000000 0.000010 -0.041377 -0.086678 -0.244874
21 41.153103 0.000001 -0.000008 -0.092261 0.098665 -0.402989
22 66.351700 0.000000 0.000004 -0.110130 0.277006 -0.154988
23 0.000000 0.000000 0.000000 -0.374065 -1.544826 -1.591758
24 28.679848 2.236625 2.430213 0.086692 -0.033126 0.235993
25 -29.184557 2.724235 -16.757637 -2.789983 0.744708 2.784638
26 85.581306 0.000001 0.000001 0.000000 -0.000000 -1.248307
27 53.650108 -0.000003 0.000016 0.000000 -0.000000 0.877787
28 33.201385 -0.000003 -0.000008 0.051792 0.615709 -0.088501
29 21.348549 28.691179 0.000002 -0.142107 -0.253836 1.715631
30 -27.926632 5.279542 13.592795 2.846897 -0.494658 2.288722
31 85.581299 0.000001 0.000000 0.000000 0.000000 -1.484024
32 53.650108 0.000004 -0.000001 0.000000 -0.000000 1.454416
33 33.201397 -0.000001 -0.000006 0.132443 -0.225186 -0.771067
34 21.348545 28.691185 -0.000001 -0.001089 0.004698 1.664852
35 32.414478 -0.048016 0.011291 -0.192968 -0.107399 0.603712
36 67.583977 6.189561 -0.001786 0.151014 -0.305361 0.691666
37 -23.966644 0.812900 -26.371359 0.244345 1.104344 2.632115
38 38.227757 0.000002 -0.000013 0.696089 -0.877764 -0.206497
39 89.093903 0.000001 0.000003 -0.000000 0.000000 -1.138878
40 59.561520 -0.000004 0.000001 1.402432 -0.174541 0.066605
41 31.086199 -3.122456 -0.002491 -0.073196 -0.191067 0.358667
42 11.272802 -0.349144 24.738409 -2.849945 -0.763908 1.550708
43 -4.667737 9.823095 33.946812 0.202944 -1.349882 2.204509
44 38.227749 0.000000 0.000016 -0.801401 0.675357 -0.284352
45 89.093887 0.000001 0.000000 -0.000000 -0.000000 -1.415158
46 59.561539 -0.000004 -0.000003 -1.446997 0.039991 -0.015411
47 31.086201 -3.122439 0.002488 -0.111707 0.077134 -0.196381
48 11.272788 -0.349162 -24.738400 -3.127911 0.849400 1.929482
49 15.788315 0.000000 0.000001 -0.250994 0.018784 -0.065686
time 18
0 0.000000 0.000000 0.000000 1.570796 -0.000000 0.000000
1 0.000000 0.000000 0.000001 0.000000 -0.000000 0.000000
2 10.782063 146.073990 4.422695 -1.570796 -1.570794 0.000000
3 -27.514357 17.090467 22.904945 -1.788617 0.592369 2.103462
4 38.339050 0.036428 0.000000 -0.021313 -0.182930 0.131434
5 40.888317 0.025451 -0.000004 -0.006741 -0.185726 -0.218668
6 37.840931 0.015306 0.000003 -0.002939 -0.054813 -0.176797
7 48.571716 0.685596 -0.000021 -0.075896 0.082192 -0.696835
8 44.261993 0.465025 0.000035 -0.178404 0.293015 -0.520982
9 47.723770 0.024184 0.000005 -0.153238 0.390850 0.046845
10 -26.517460 -15.956991 21.321764 -1.747610 0.598977 -2.647552
11 37.914181 -0.000000 0.000003 -0.020132 -0.092744 0.182696
12 41.189346 0.000000 0.000003 -0.016735 -0.111242 -0.165427
13 38.203537 -0.000024 0.000001 -0.010712 -0.033242 -0.221262
14 50.162155 0.000231 0.000003 -0.041523 0.059943 -0.831620
15 45.618233 -0.000014 0.000003 -0.106602 0.148376 -0.635082
16 48.074074 -0.000009 0.000011 -0.109150 0.219301 -0.028468
17 -21.326368 8.441283 -14.998076 -1.537353 0.818045 2.774762
18 43.390301 0.000000 0.000008 -0.016269 -0.167843 -0.067244
19 47.998005 0.000001 0.000008 -0.006499 -0.156719 -0.247365
20 50.215252 0.000000 0.000010 -0.020584 -0.153547 -0.214777
21 41.153103 0.000001 -0.000008 -0.062418 0.025326 -0.345359
22 66.351700 0.000000 0.000004 -0.089245 0.215053 -0.143198
23 0.000000 0.000000 0.000000 -0.137451 -1.534369 -1.860690
24 28.675791 2.169286 2.512268 0.098068 -0.041226 0.211677
25 -29.252886 2.154732 -16.806940 -2.801687 0.736584 2.798658
26 85.581314 -0.000002 0.000010 0.000000 -0.000000 -1.260812
27 53.650093 -0.000006 0.000003 0.000000 -0.000000 0.891796
28 33.201401 -0.000004 0.000001 0.051338 0.606423 -0.075066
29 21.348549 28.691181 0.000001 -0.142107 -0.253836 1.715631
30 -27.931622 5.138473 13.509803 2.839043 -0.515315 2.300966
31 85.581322 0.000006 0.000002 0.000000 0.000000 -1.458233
32 53.650101 0.000000 -0.000004 0.000000 -0.000000 1.450086
33 33.201405 -0.000002 0.000007 0.134781 -0.232151 -0.759640
34 21.348545 28.691185 -0.000001 -0.001089 0.004698 1.664852
35 32.415787 -0.047105 0.011248 -0.193095 -0.128875 0.639542
36 67.584053 6.189625 -0.001755 0.148604 -0.306423 0.699523
37 -23.960917 0.971082 -26.371948 0.217160 1.106557 2.597527
38 38.227745 -0.000004 -0.000006 0.758326 -0.885867 -0.265437
39 89.093910 0.000004 0.000007 -0.000000 0.000000 -1.113502
40 59.561527 -0.000006 -0.000008 1.415286 -0.170318 0.097882
41 31.086201 -3.122457 -0.002489 -0.065836 -0.193733 0.320275
42 11.272802 -0.349144 24.738409 -2.880528 -0.773095 1.594986
43 -4.582071 9.862457 33.946953 0.155078 -1.354870 2.241064
44 38.227760 0.000001 0.000006 -0.823802 0.725980 -0.305261
45 89.093887 -0.000001 0.000015 -0.000000 -0.000000 -1.455027
46 59.561527 0.000003 0.000001 -1.433173 0.045518 -0.036726
47 31.086214 -3.122446 0.002487 -0.112881 0.068657 -0.218985
48 11.272788 -0.349162 -24.738400 -3.124707 0.842491 1.935273
49 15.788322 0.000007 0.000000 -0.257142 -0.006904 -0.096817
time 19
0 0.000000 0.000000 0.000000 1.570796 -0.000000 0.000000
1 0.000000 0.000000 0.000001 0.000000 -0.000000 0.000000
2 9.117641 144.458694 4.256714 -1.570796 -1.570794 0.000000
3 -27.514357 17.090467 22.904945 -1.819286 0.622805 2.037723
4 38.339050 0.036428 0.000000 -0.022306 -0.170168 0.115800
5 40.888317 0.025451 -0.000004 -0.005957 -0.205135 -0.248492
6 37.840935 0.015307 0.000003 0.007195 -0.121317 -0.199292
7 48.571716 0.685596 -0.000021 -0.041435 -0.030312 -0.700346
8 44.261993 0.465025 0.000035 -0.144389 0.191716 -0.506452
9 47.723770 0.024184 0.000006 -0.153703 0.381876 0.022157
10 -26.517460 -15.956991 21.321764 -1.776830 0.616439 -2.716614
11 37.914181 -0.000000 0.000003 -0.021887 -0.095954 0.162557
12 41.189346 0.000000 0.000003 -0.017957 -0.139387 -0.168264
13 38.203537 -0.000025 0.000001 -0.007859 -0.083556 -0.214693
14 50.162155 0.000231 0.000003 -0.022289 0.000053 -0.836110
15 45.618233 -0.000014 0.000003 -0.090779 0.097558 -0.639213
16 48.074070 -0.000008 0.000011 -0.113705 0.205509 -0.087046
17 -21.112080 9.096888 -14.937626 -1.621610 0.813052 2.666188
18 43.390301 0.000000 0.000008 -0.003816 -0.167524 -0.096836
19 47.998005 0.000001 0.000008 0.006099 -0.180645 -0.255467
20 50.215252 0.000001 0.000010 -0.000418 -0.201011 -0.209379
21 41.153103 0.000001 -0.000009 -0.030275 -0.047833 -0.286066
22 66.351700 0.000000 0.000004 -0.064316 0.143278 -0.116408
23 0.000000 0.000000 0.000000 0.049213 -1.527715 -2.078318
24 28.695105 2.099431 2.296384 0.110440 -0.043323 0.203162
25 -29.183290 2.028044 -16.830330 -2.818513 0.729837 2.794615
26 85.581291 0.000002 0.000000 0.000000 -0.000000 -1.297794
27 53.650108 -0.000004 -0.000009 0.000000 -0.000000 0.935620
28 33.201408 0.000007 0.000009 0.051424 0.599560 -0.066231
29 21.348549 28.691181 -0.000009 -0.142107 -0.253836 1.715631
30 -27.966623 5.531523 13.435797 2.835912 -0.541423 2.298579
31 85.581322 0.000019 0.000000 0.000000 0.000000 -1.452244
32 53.650120 -0.000002 0.000000 0.000000 -0.000000 1.452292
33 33.201393 0.000002 0.000004 0.137763 -0.241330 -0.755458
34 21.348545 28.691185 -0.000002 -0.001089 0.004698 1.664852
35 32.416870 -0.046342 0.011171 -0.192666 -0.148726 0.670052
36 67.584129 6.189703 -0.001721 0.145980 -0.307579 0.708075
37 -23.951498 1.155083 -26.372627 0.206892 1.106034 2.579140
38 38.227753 -0.000018 -0.000000 0.835052 -0.885194 -0.342744
39 89.093887 -0.000003 0.000000 -0.000000 0.000000 -1.093415
40 59.561531 -0.000004 0.000000 1.424897 -0.166346 0.106603
41 31.086206 -3.122458 -0.002486 -0.058315 -0.196379 0.281151
42 11.272802 -0.349144 24.738409 -2.909962 -0.780014 1.636845
43 -4.492320 9.903643 33.947102 0.107098 -1.360014 2.277739
44 38.227757 0.000009 0.000018 -0.852144 0.763437 -0.328057
45 89.093910 -0.000018 0.000000 -0.000000 -0.000000 -1.459292
46 59.561531 -0.000009 0.000000 -1.425543 0.049915 -0.061062
47 31.086208 -3.122452 0.002470 -0.108345 0.060754 -0.202989
48 11.272788 -0.349162 -24.738400 -3.123768 0.835650 1.937951
49 15.788319 -0.000000 -0.000000 -0.260476 -0.023113 -0.106972
time 20
0 0.000000 0.000000 0.000000 1.570796 -0.000000 0.000000
1 0.000000 0.000000 0.000001 0.000000 -0.000000 0.000000
2 7.094699 141.455368 3.655853 -1.570796 -1.570794 0.000000
3 -27.514357 17.090467 22.904945 -1.852753 0.656522 1.965545
4 38.339050 0.036428 0.000000 -0.021784 -0.140564 0.100312
5 40.888317 0.025451 -0.000004 -0.003905 -0.196038 -0.280533
6 37.840931 0.015307 0.000003 0.016964 -0.177816 -0.223496
7 48.571716 0.685596 -0.000022 -0.006763 -0.120984 -0.713780
8 44.261993 0.465025 0.000035 -0.097172 0.080218 -0.487468
9 47.723774 0.024184 0.000007 -0.130484 0.322569 0.024380
10 -26.517460 -15.956991 21.321764 -1.799855 0.630393 -2.771235
11 37.914181 -0.000000 0.000003 -0.022964 -0.095182 0.143614
12 41.189346 0.000000 0.000003 -0.017084 -0.147935 -0.180159
13 38.203537 -0.000026 0.000001 -0.004159 -0.129573 -0.212077
14 50.162155 0.000231 0.000003 -0.001222 -0.061190 -0.838237
15 45.618233 -0.000014 0.000003 -0.069140 0.040586 -0.632561
16 48.074074 -0.000008 0.000012 -0.107404 0.179159 -0.114412
17 -20.895300 9.760116 -14.876471 -1.702611 0.808977 2.566720
18 43.390305 0.000000 0.000008 0.004154 -0.154849 -0.118635
19 47.998005 0.000001 0.000008 0.018202 -0.197032 -0.268602
20 50.215252 0.000001 0.000010 0.020260 -0.237470 -0.216114
21 41.153107 0.000001 -0.000010 -0.001133 -0.104295 -0.255161
22 66.351700 0.000000 0.000004 -0.038571 0.072543 -0.078801
23 0.000000 0.000000 0.000000 0.137993 -1.528740 -2.193735
24 28.723457 2.027014 1.953753 0.125248 -0.038806 0.209085
25 -29.025475 2.123302 -16.809050 -2.841624 0.725202 2.766887
26 85.581314 0.000002 0.000004 0.000000 -0.000000 -1.352046
27 53.650108 0.000000 -0.000003 0.000000 -0.000000 0.998939
28 33.201389 -0.000011 0.000006 0.052294 0.595581 -0.064940
29 21.348545 28.691179 0.000000 -0.142107 -0.253836 1.715631
30 -28.006424 6.109798 13.388644 2.836386 -0.570390 2.286748
31 85.581306 0.000007 -0.000000 0.000000 0.000000 -1.476482
32 53.650101 0.000003 -0.000004 0.000000 -0.000000 1.465723
33 33.201397 -0.000001 -0.000001 0.142101 -0.255110 -0.762758
34 21.348547 28.691181 -0.000002 -0.001089 0.004698 1.664852
35 32.417473 -0.045942 0.011031 -0.190847 -0.164281 0.687542
36 67.584206 6.189771 -0.001688 0.143222 -0.308795 0.717069
37 -23.939533 1.340393 -26.373297 0.226092 1.101697 2.590109
38 38.227749 0.000006 0.000000 0.929432 -0.877160 -0.441836
39 89.093887 0.000003 -0.000003 -0.000000 0.000000 -1.083048
40 59.561539 -0.000000 0.000006 1.431959 -0.162351 0.096524
41 31.086210 -3.122458 -0.002483 -0.051188 -0.198807 0.244169
42 11.272802 -0.349144 24.738409 -2.937244 -0.785289 1.675180
43 -4.404466 9.943836 33.947247 0.059653 -1.364407 2.314569
44 38.227760 0.000007 0.000000 -0.884963 0.794244 -0.352537
45 89.093895 -0.000001 0.000001 -0.000000 -0.000000 -1.433939
46 59.561531 0.000003 -0.000001 -1.428015 0.053964 -0.093383
47 31.086212 -3.122440 0.002477 -0.094370 0.054036 -0.127851
48 11.272788 -0.349162 -24.738400 -3.125425 0.829358 1.936951
49 15.788319 -0.000013 -0.000001 -0.262489 -0.033104 -0.100124
time 21
0 0.000000 0.000000 0.000000 1.570796 -0.000000 0.000000
1 0.000000 0.000000 0.000001 0.000000 -0.000000 0.000000
2 5.116117 138.549713 2.940266 -1.570796 -1.570794 0.000000
3 -27.514357 17.090467 22.904945 -1.887631 0.691274 1.890663
4 38.339050 0.036428 0.000000 -0.020463 -0.102513 0.085653
5 40.888317 0.025451 -0.000004 -0.001196 -0.171116 -0.313064
6 37.840931 0.015308 0.000003 0.025308 -0.218788 -0.252331
7 48.571716 0.685596 -0.000022 0.026320 -0.177531 -0.744055
8 44.261993 0.465025 0.000035 -0.050447 -0.012595 -0.482768
9 47.723774 0.024182 0.000009 -0.089927 0.226900 0.037994
10 -26.517460 -15.956991 21.321764 -1.820579 0.642852 -2.820292
11 37.914181 -0.000000 0.000003 -0.023437 -0.091211 0.128905
12 41.189346 0.000000 0.000003 -0.014560 -0.142796 -0.197128
13 38.203537 -0.000026 0.000001 0.000394 -0.168312 -0.218099
14 50.162155 0.000231 0.000003 0.020499 -0.121709 -0.840945
15 45.618233 -0.000015 0.000003 -0.044716 -0.018417 -0.622224
16 48.074074 -0.000008 0.000012 -0.090053 0.137791 -0.118253
17 -20.682102 10.412385 -14.816328 -1.774125 0.805226 2.483002
18 43.390305 0.000000 0.000009 0.009013 -0.130557 -0.136960
19 47.998005 0.000001 0.000008 0.029610 -0.206057 -0.285062
20 50.215252 0.000001 0.000011 0.041131 -0.267689 -0.229837
21 41.153103 0.000002 -0.000011 0.026699 -0.149783 -0.242503
22 66.351700 0.000000 0.000004 -0.010426 -0.002336 -0.024926
23 0.000000 0.000000 0.000000 0.125788 -1.539215 -2.206630
24 28.754749 1.957467 1.554558 0.141635 -0.030468 0.222987
25 -28.819317 2.340211 -16.756516 -2.868505 0.721306 2.726822
26 85.581291 -0.000004 -0.000008 0.000000 -0.000000 -1.424012
27 53.650112 0.000001 0.000002 0.000000 -0.000000 1.066700
28 33.201401 0.000003 0.000001 0.053625 0.592614 -0.069129
29 21.348545 28.691179 0.000001 -0.142107 -0.253836 1.715631
30 -28.047291 6.838861 13.361814 2.838389 -0.598812 2.273333
31 85.581299 0.000007 0.000001 -0.000000 -0.000000 -1.517348
32 53.650101 0.000003 -0.000002 0.000000 -0.000000 1.488777
33 33.201401 -0.000002 -0.000007 0.147732 -0.273203 -0.778015
34 21.348547 28.691183 -0.000003 -0.001089 0.004698 1.664852
35 32.417652 -0.045862 0.010831 -0.187836 -0.176212 0.693732
36 67.584274 6.189831 -0.001659 0.140444 -0.310019 0.726126
37 -23.926521 1.530438 -26.373987 0.278908 1.092238 2.633626
38 38.227741 -0.000002 0.000001 1.029002 -0.865454 -0.548042
39 89.093887 0.000001 0.000016 -0.000000 0.000000 -1.080573
40 59.561550 0.000001 -0.000014 1.437677 -0.158301 0.076357
41 31.086218 -3.122457 -0.002480 -0.044828 -0.200792 0.211419
42 11.272802 -0.349144 24.738409 -2.962132 -0.789780 1.710029
43 -4.324451 9.980253 33.947380 0.012686 -1.367359 2.352085
44 38.227760 -0.000003 -0.000016 -0.920486 0.821323 -0.378194
45 89.093910 -0.000002 -0.000013 -0.000000 -0.000000 -1.392625
46 59.561516 0.000006 0.000016 -1.437792 0.059073 -0.134081
47 31.086212 -3.122437 0.002481 -0.076823 0.048445 -0.029611
48 11.272788 -0.349162 -24.738400 -3.134794 0.823338 1.925343
49 15.788310 0.000001 0.000002 -0.263993 -0.040080 -0.084200
time 22
0 0.000000 0.000000 0.000000 1.570796 -0.000000 0.000000
1 0.000000 0.000000 0.000001 0.000000 -0.000000 0.000000
2 3.191934 135.780472 2.034172 -1.570796 -1.570794 0.000000
3 -27.514357 17.090467 22.904945 -1.922254 0.725856 1.816257
4 38.339050 0.036428 0.000000 -0.018664 -0.061098 0.072552
5 40.888317 0.025451 -0.000004 0.001624 -0.137881 -0.344781
6 37.840931 0.015308 0.000003 0.031983 -0.224441 -0.288742
7 48.571720 0.685596 -0.000022 0.061632 -0.203450 -0.788026
8 44.261993 0.465025 0.000035 -0.001445 -0.078270 -0.498661
9 47.723774 0.024182 0.000009 -0.042040 0.117187 0.053654
10 -26.517460 -15.956991 21.321764 -1.839753 0.654410 -2.865713
11 37.914181 -0.000000 0.000003 -0.022264 -0.078391 0.124533
12 41.189346 0.000000 0.000003 -0.010987 -0.128844 -0.217361
13 38.203537 -0.000026 0.000001 0.007589 -0.191453 -0.239908
14 50.162155 0.000231 0.000003 0.042012 -0.179632 -0.846516
15 45.618233 -0.000016 0.000003 -0.019315 -0.076459 -0.613007
16 48.074074 -0.000009 0.000012 -0.064581 0.084373 -0.107698
17 -20.478382 11.035653 -14.758861 -1.840543 0.802124 2.411618
18 43.390305 0.000000 0.000009 0.012163 -0.097558 -0.154805
19 47.998005 0.000001 0.000008 0.039493 -0.195801 -0.312445
20 50.215252 0.000001 0.000011 0.061907 -0.294254 -0.247643
21 41.153103 0.000002 -0.000011 0.054642 -0.189474 -0.238697
22 66.351700 0.000000 0.000005 0.020037 -0.081719 0.040316
23 0.000000 0.000000 0.000000 -2.105639 -1.557075 0.000000
24 28.782812 1.894646 1.174949 0.158973 -0.019837 0.241673
25 -28.593340 2.607533 -16.693050 -2.897828 0.717904 2.678796
26 85.581299 -0.000001 0.000008 -0.000000 -0.000000 -1.507638
27 53.650124 0.000002 -0.000007 0.000000 -0.000000 1.127413
28 33.201389 -0.000000 0.000010 0.055255 0.590298 -0.076846
29 21.348547 28.691185 0.000002 -0.142107 -0.253836 1.715631
30 -28.092369 7.661886 13.344959 2.842736 -0.624706 2.259717
31 85.581322 0.000008 0.000005 -0.000000 -0.000000 -1.566194
32 53.650105 0.000008 -0.000001 0.000000 -0.000000 1.518554
33 33.201401 0.000003 -0.000006 0.154195 -0.294074 -0.798394
34 21.348547 28.691181 -0.000003 -0.001089 0.004698 1.664852
35 32.417568 -0.045969 0.010595 -0.183982 -0.185721 0.692237
36 67.584335 6.189878 -0.001637 0.137739 -0.311212 0.734946
37 -23.913296 1.718216 -26.374664 0.357431 1.078581 2.701762
38 38.227753 -0.000000 0.000001 1.125048 -0.853565 -0.651242
39 89.093910 0.000001 -0.000002 -0.000000 0.000000 -1.083179
40 59.561516 0.000002 0.000003 1.442591 -0.154220 0.050135
41 31.086216 -3.122456 -0.002479 -0.039168 -0.202074 0.182907
42 11.272802 -0.349144 24.738409 -2.983792 -0.794204 1.740557
43 -4.259990 10.009050 33.947491 -0.033352 -1.369501 2.390159
44 38.227760 -0.000001 0.000000 -0.957380 0.846394 -0.404383
45 89.093910 -0.000015 0.000003 -0.000000 -0.000000 -1.341735
46 59.561531 0.000003 -0.000000 -1.452269 0.064860 -0.180174
47 31.086206 -3.122437 0.002485 -0.060542 0.044373 0.062152
48 11.272788 -0.349162 -24.738400 3.124281 0.816796 1.893687
49 15.788319 0.000001 0.000004 -0.265184 -0.045246 -0.062829
time 23
0 0.000000 0.000000 0.000000 1.570796 -0.000000 0.000000
1 0.000000 0.000000 0.000001 0.000000 -0.000000 0.000000
2 1.280301 132.950317 0.967802 -1.570796 -1.570794 0.000000
3 -27.514357 17.090467 22.904945 -1.954971 0.758589 1.745893
4 38.339050 0.036428 0.000000 -0.016879 -0.022905 0.061769
5 40.888317 0.025451 -0.000004 0.003854 -0.106373 -0.374153
6 37.840931 0.015307 0.000003 0.038071 -0.203183 -0.329933
7 48.571720 0.685596 -0.000022 0.098184 -0.216801 -0.837540
8 44.261993 0.465025 0.000035 0.052724 -0.132246 -0.524624
9 47.723774 0.024182 0.000011 0.002294 0.019594 0.057267
10 -26.517460 -15.956991 21.321764 -1.858570 0.665773 -2.910311
11 37.914181 -0.000000 0.000003 -0.016935 -0.042114 0.137431
12 41.189346 0.000000 0.000003 -0.007176 -0.112922 -0.238324
13 38.203537 -0.000028 0.000001 0.017020 -0.203065 -0.272363
14 50.162155 0.000231 0.000003 0.064490 -0.228481 -0.861440
15 45.618233 -0.000017 0.000003 0.007712 -0.129075 -0.611274
16 48.074074 -0.000009 0.000012 -0.036446 0.027026 -0.092420
17 -20.286694 11.622106 -14.704786 -1.905170 0.799288 2.345157
18 43.390305 0.000000 0.000009 0.014763 -0.061715 -0.172495
19 47.998005 0.000001 0.000009 0.048258 -0.169581 -0.349691
20 50.215252 0.000001 0.000011 0.082127 -0.314429 -0.272728
21 41.153103 0.000001 -0.000011 0.082610 -0.227274 -0.237772
22 66.351700 0.000000 0.000004 0.050316 -0.160718 0.102752
23 0.000000 0.000000 0.000000 -2.130247 -1.564258 0.000000
24 28.798512 1.876964 0.778870 0.176389 -0.009012 0.260757
25 -28.369879 2.867296 -16.629581 -2.927700 0.714626 2.628988
26 85.581291 0.000003 -0.000001 -0.000000 0.000000 -1.588522
27 53.650112 0.000006 0.000001 0.000000 0.000000 1.176572
28 33.201397 0.000000 -0.000006 0.056950 0.588128 -0.085353
29 21.348549 28.691177 -0.000010 -0.142107 -0.253836 1.715631
30 -28.140564 8.463486 13.330348 2.855003 -0.650163 2.234489
31 85.581284 0.000008 -0.000005 -0.000000 -0.000000 -1.611603
32 53.650112 0.000011 0.000010 0.000000 -0.000000 1.550528
33 33.201397 0.000003 -0.000008 0.160838 -0.315567 -0.819914
34 21.348547 28.691181 -0.000004 -0.001089 0.004698 1.664852
35 32.417400 -0.046136 0.010346 -0.179856 -0.194439 0.688233
36 67.584389 6.189918 -0.001617 0.135212 -0.312325 0.743182
37 -23.900494 1.900275 -26.375322 0.444401 1.063596 2.777990
38 38.227753 0.000001 -0.000013 1.200028 -0.844820 -0.732936
39 89.093903 -0.000005 -0.000001 -0.000000 -0.000000 -1.086921
40 59.561531 -0.000006 0.000000 1.447438 -0.150139 0.023407
41 31.086216 -3.122449 -0.002481 -0.033729 -0.202896 0.156042
42 11.272802 -0.349144 24.738409 -2.988384 -0.795451 1.747127
43 -4.216335 10.027086 33.947567 -0.078844 -1.371708 2.428488
44 38.227760 -0.000012 -0.000001 -0.994070 0.871711 -0.430465
45 89.093895 -0.000011 -0.000007 -0.000000 -0.000000 -1.290047
46 59.561527 -0.000005 0.000000 -1.467793 0.070807 -0.227472
47 31.086201 -3.122438 0.002488 -0.049115 0.044882 0.128269
48 11.272788 -0.349162 -24.738400 3.093477 0.809993 1.852937
49 15.788315 0.000001 0.000003 -0.266348 -0.050263 -0.041005
time 24
0 0.000000 0.000000 0.000000 1.570796 -0.000000 0.000000
1 0.000000 0.000000 0.000001 0.000000 -0.000000 0.000000
2 0.000004 131.663269 -0.000017 -1.570796 -1.570794 0.000000
3 -27.514357 17.090467 22.904945 -1.969585 0.772937 1.714715
4 38.339050 0.036428 0.000000 -0.011807 0.010549 0.083281
5 40.888317 0.025451 -0.000004 0.000609 -0.065238 -0.377869
6 37.840919 0.015298 0.000010 0.044061 -0.181909 -0.371092
7 48.571735 0.685606 -0.000031 0.134437 -0.233395 -0.885601
8 44.261993 0.465025 0.000035 0.107019 -0.186113 -0.550777
9 47.723759 0.024163 0.000002 0.047649 -0.067973 0.037965
10 -26.517460 -15.956991 21.321764 -1.878088 0.677484 -2.956486
11 37.914181 -0.000000 0.000003 -0.010610 -0.000650 0.153959
12 41.189346 0.000000 0.000003 -0.003831 -0.100728 -0.257898
13 38.203545 0.000009 0.000008 0.026469 -0.214653 -0.304826
14 50.162155 0.000231 0.000003 0.096237 -0.252513 -0.899090
15 45.618214 0.000006 0.000003 0.047057 -0.172912 -0.619031
16 48.074104 -0.000019 -0.000007 -0.010360 -0.027399 -0.080772
17 -20.199608 11.888518 -14.680220 -1.970250 0.796213 2.277407
18 43.390297 -0.000000 0.000001 0.017741 -0.028003 -0.190295
19 47.998005 0.000001 0.000006 0.056931 -0.143339 -0.386905
20 50.215252 -0.000017 0.000004 0.101122 -0.306651 -0.329151
21 41.153091 -0.000003 0.000003 0.110574 -0.266491 -0.234740
22 66.351707 0.000000 0.000014 0.075863 -0.231307 0.127086
23 0.000000 0.000000 0.000000 2.961544 -1.545796 1.166676
24 28.804283 1.889881 0.467213 0.193183 0.000264 0.276661
25 -28.220982 2.919699 -16.586405 -2.956521 0.711071 2.582567
26 85.581306 0.000002 0.000000 0.000000 -0.000000 -1.631749
27 53.650105 0.000009 -0.000000 -0.000000 0.000000 1.223108
28 33.201401 -0.000005 0.000009 0.058522 0.585684 -0.092362
29 21.348547 28.691187 -0.000000 -0.142107 -0.253836 1.715631
30 -28.229073 8.772432 13.331829 2.869183 -0.675644 2.206305
31 85.581299 0.000008 -0.000004 -0.000000 -0.000000 -1.627495
32 53.650105 0.000010 0.000004 0.000000 -0.000000 1.580854
33 33.201397 0.000005 -0.000005 0.167161 -0.335876 -0.839283
34 21.348547 28.691181 -0.000004 -0.001089 0.004698 1.664852
35 32.417313 -0.046251 0.010108 -0.175933 -0.203750 0.686110
36 67.584435 6.189957 -0.001597 0.132938 -0.313327 0.750597
37 -23.894894 1.976523 -26.375599 0.524778 1.049428 2.847890
38 38.227745 0.000001 0.000017 1.229100 -0.838901 -0.770954
39 89.093887 -0.000011 0.000000 -0.000000 -0.000000 -1.088510
40 59.561531 0.000000 0.000000 1.452816 -0.146071 0.000718
41 31.086216 -3.122438 -0.002487 -0.028289 -0.203709 0.129176
42 11.272802 -0.349144 24.738409 -2.979790 -0.793723 1.734978
43 -4.176327 10.043220 33.947643 -0.124398 -1.373893 2.466880
44 38.227749 0.000000 0.000018 -1.029470 0.899044 -0.456116
45 89.093887 -0.000006 -0.000018 -0.000000 0.000000 -1.244743
46 59.561535 0.000000 0.000000 -1.481344 0.076421 -0.272492
47 31.086197 -3.122438 0.002492 -0.039461 0.048594 0.186144
48 11.272788 -0.349162 -24.738400 3.064497 0.803201 1.814651
49 15.788318 -0.000018 -0.000000 -0.267726 -0.056484 -0.022810
end
