version 1
nodes
0 "models/heroes/dragon_knight_per" -1
1 "pelvis" 0
2 "Tail_0" 1
3 "Tail_1" 2
4 "Tail_2" 3
5 "Tail_3" 4
6 "Tail_4" 5
7 "Tail_5" 6
8 "Tail_end" 7
9 "Hind_leg_upper_R" 1
10 "Hind_leg_lower_R" 9
11 "Hind_ankle_R" 10
12 "Hind_Toe_D_0_R" 11
13 "Hind_ball_R" 11
14 "Hind_Toe_B_0_R" 13
15 "Hind_Toe_B_1_R" 14
16 "Hind_Toe_C_0_R" 13
17 "Hind_Toe_C_1_R" 16
18 "Hind_Toe_A_0_R" 13
19 "Hind_Toe_A_1_R" 18
20 "Hind_leg_upper_L" 1
21 "Hind_leg_lower_L" 20
22 "Hind_ankle_L" 21
23 "Hind_ball_L" 22
24 "Hind_Toe_A_0_L" 23
25 "Hind_Toe_A_1_L" 24
26 "Hind_Toe_C_0_L" 23
27 "Hind_Toe_C_1_L" 26
28 "Hind_Toe_B_0_L" 23
29 "Hind_Toe_B_1_L" 28
30 "Hind_Toe_D_0_L" 22
31 "spine_0" 1
32 "spine_1" 31
33 "spine_2" 32
34 "spine_3" 33
35 "Front_leg_upper_R" 34
36 "Front_leg_lower_R" 35
37 "Front_ankle_R" 36
38 "Front_toe_D_0_R" 37
39 "Front_ball_R" 37
40 "Front_toe_B_0_R" 39
41 "Front_toe_B_1_R" 40
42 "Front_toe_A_0_R" 39
43 "Front_toe_A_1_R" 42
44 "Front_toe_C_0_R" 39
45 "Front_toe_C_1_R" 44
46 "Front_leg_upper_L" 34
47 "Front_leg_lower_L" 46
48 "Front_ankle_L" 47
49 "Front_ball_L" 48
50 "Front_toe_B_0_L" 49
51 "Front_toe_B_1_L" 50
52 "Front_toe_C_0_L" 49
53 "Front_toe_C_1_L" 52
54 "Front_toe_A_0_L" 49
55 "Front_toe_A_1_L" 54
56 "Front_toe_D_0_L" 48
57 "Wing_arm_upper_L" 34
58 "Wing_arm_lower_L" 57
59 "Wing_hand_L" 58
60 "finger_ring_0_L" 59
61 "finger_ring_1_L" 60
62 "finger_ring_2_L" 61
63 "finger_ring_end_L" 62
64 "finger_index_0_L" 59
65 "finger_index_1_L" 64
66 "finger_index_2_L" 65
67 "finger_index_end_L" 66
68 "finger_middle_0_L" 59
69 "finger_middle_1_L" 68
70 "finger_middle_2_L" 69
71 "finger_middle_end_L" 70
72 "finger_pinky_0_L" 59
73 "finger_pinky_1_L" 72
74 "finger_pinky_2_L" 73
75 "finger_pinky_end_L" 74
76 "ElbowSpike_0_L" 58
77 "ElbowSpike_1_L" 76
78 "ElbowSpike_end_L" 77
79 "Wing_arm_upper_R" 34
80 "Wing_arm_lower_R" 79
81 "Wing_hand_R" 80
82 "finger_pinky_0_R" 81
83 "finger_pinky_1_R" 82
84 "finger_pinky_2_R" 83
85 "finger_pinky_end_R" 84
86 "finger_middle_0_R" 81
87 "finger_middle_1_R" 86
88 "finger_middle_2_R" 87
89 "finger_middle_end_R" 88
90 "finger_index_0_R" 81
91 "finger_index_1_R" 90
92 "finger_index_2_R" 91
93 "finger_index_end_R" 92
94 "finger_ring_0_R" 81
95 "finger_ring_1_R" 94
96 "finger_ring_2_R" 95
97 "finger_ring_end_R" 96
98 "ElbowSpike_0_R" 80
99 "ElbowSpike_1_R" 98
100 "ElbowSpike_end_R" 99
101 "neck_0" 34
102 "neck_1" 101
103 "neck_2" 102
104 "head" 103
105 "Eyebrow_0_R" 104
106 "Eyebrow_1_R" 105
107 "Eyebrow_end_R" 106
108 "jaw" 104
109 "Whisker_0_R" 108
110 "Whisker_1_R" 109
111 "Whisker_2_R" 110
112 "Whisker_end_R" 111
113 "Whisker_0_L" 108
114 "Whisker_1_L" 113
115 "Whisker_2_L" 114
116 "Whisker_end_L" 115
117 "Tongue_0" 108
118 "Tongue_1" 117
119 "Tongue_2" 118
120 "Tongue_3" 119
121 "Eyebrow_0_L" 104
122 "Eyebrow_1_L" 121
123 "Eyebrow_end_L" 122
124 "upper_back_helper_L" 33
125 "upper_back_helper_R" 33
126 "Null 126" -1
127 "Null 127" -1
128 "Null 128" -1
129 "Null 129" -1
130 "Null 130" -1
end
skeleton
time 0
0 0.000000 0.000000 0.000000 -0.000000 -0.000000 -0.000000
1 0.434921 1.547287 185.070099 1.676114 -1.185824 1.473533
2 -6.922300 -22.143457 0.000000 -3.096031 -0.007974 -1.781773
3 26.628101 0.000000 0.000000 -0.023182 -0.011120 -0.304870
4 26.630899 0.000000 0.000000 -0.018579 -0.021892 -0.451201
5 26.630699 0.000000 0.000000 -0.014327 -0.030561 -0.471197
6 26.628801 0.000000 0.000000 -0.009980 -0.029995 -0.222636
7 26.628847 0.000000 0.000000 -0.005576 -0.023459 -0.117970
8 26.629311 -0.000100 0.000000 0.000000 -0.000000 0.000000
9 -0.943900 -2.280900 -22.926062 -0.231565 0.235290 -0.327736
10 -40.495659 0.000000 0.000000 0.000617 0.015062 1.984082
11 -20.836300 0.000000 0.000000 3.073572 0.088033 -1.948541
12 -15.965199 -0.178700 -5.285300 -1.705438 -1.126822 0.208685
13 -22.902399 0.000000 0.000000 0.145490 -0.055442 -0.048127
14 -4.707000 -0.421400 0.147200 -3.076464 0.202412 0.118220
15 -10.188800 0.000000 0.000000 0.066129 0.027850 0.980079
16 -3.984100 -1.091600 6.378000 2.934927 0.087610 0.090668
17 -8.776100 0.000000 0.000000 0.114986 0.030373 1.033229
18 -3.787000 0.101300 -5.082900 -2.810318 -0.024407 0.168726
19 -10.247900 0.000000 0.000000 -0.013920 -0.026312 1.112502
20 -0.943900 -2.280900 22.926052 -0.235999 0.172668 -2.948654
21 40.495602 0.000000 0.000000 0.010496 0.046031 1.992470
22 20.836300 0.000000 0.000000 3.130929 0.123875 -2.364564
23 22.902399 0.000000 0.000000 0.150198 -0.144043 0.468506
24 3.787000 -0.101300 5.082900 -2.755140 0.036316 -0.060113
25 10.247952 -0.000000 -0.000000 -0.013920 -0.026312 1.112502
26 3.983988 1.091600 -6.377952 3.010345 0.066718 -0.148965
27 8.776100 0.000000 0.000000 0.114986 0.030373 1.033229
28 4.707000 0.421400 -0.147100 3.127126 0.222627 -0.307062
29 10.188800 0.000000 0.000000 0.066129 0.027850 0.980079
30 15.965199 0.178700 5.285300 -1.705438 -1.126822 0.208685
31 1.448206 11.235700 0.000000 -0.000281 0.031545 1.616925
32 13.694661 -1.034881 -0.176709 0.051771 -0.010748 -0.033519
33 13.366156 -1.704075 -0.097705 0.018710 -0.011097 0.145245
34 29.663399 -0.901954 -0.040583 -0.031131 0.002547 0.412518
35 18.809500 -0.101687 -26.364401 -2.813965 0.039711 -1.025134
36 -48.046700 0.000000 0.000000 0.022626 -0.009134 1.495110
37 -32.732506 -0.000000 0.000000 -0.115096 0.119390 -0.081128
38 -5.577508 3.896500 -9.552660 -1.631493 -0.368079 -0.300516
39 -13.046900 0.000000 0.000000 0.078211 0.094885 0.406943
40 -4.538900 1.838200 1.085052 3.114985 -0.042830 -1.179217
41 -9.326100 0.000000 0.000000 0.006278 0.026797 1.151348
42 -2.654400 1.236000 -5.967800 -2.969668 -0.038372 -0.830949
43 -10.456658 -0.000000 0.000000 0.011291 0.025144 0.931814
44 -3.968400 2.196200 7.058900 2.972507 -0.019114 -1.494740
45 -8.804501 0.000000 0.000000 -0.015928 0.022687 0.881416
46 18.809500 -0.101754 26.364403 -2.908015 0.036351 1.717118
47 48.046757 0.000000 0.000000 -0.022028 -0.024910 1.538110
48 32.732506 0.000000 0.000000 -0.181213 -0.359367 -0.612278
49 13.046900 0.000000 0.000000 0.057558 0.074138 0.330118
50 4.529258 -1.758800 -0.050100 3.095466 -0.097448 -0.672358
51 9.326100 0.000000 0.000000 0.045916 0.032701 0.812069
52 4.229000 -2.047300 -5.390500 -3.085586 -0.041978 -0.973260
53 8.804501 0.000000 0.000000 0.064079 0.023042 0.828598
54 2.654400 -1.236000 5.967800 -2.969668 -0.038372 -0.830949
55 10.456600 0.000000 0.000000 0.056577 0.017271 0.976297
56 5.577442 -3.896500 9.552600 -1.631493 -0.368079 -0.300516
57 11.867007 -17.024958 22.270418 1.489393 -0.531034 2.581831
58 37.458698 0.000000 -0.000100 0.323551 -0.455343 0.922417
59 83.706451 0.000001 0.000108 1.994588 -0.793671 1.196266
60 -22.525246 -0.395100 18.987600 -2.937255 -0.705431 3.005020
61 67.425552 -0.000058 0.000111 -0.101059 -0.164721 -0.048356
62 63.648659 0.000000 0.000056 0.033684 -0.160480 -0.165271
63 23.821501 -0.002200 -0.003288 0.000000 -0.000000 0.000000
64 9.637900 -0.153500 24.446049 0.249416 -1.271052 -0.063620
65 65.739967 -0.000000 0.000008 -0.154082 -0.308948 -0.049216
66 55.100952 0.000000 0.000000 0.011133 -0.112939 -0.100321
67 40.392952 -0.002394 -0.004600 0.000000 -0.000000 0.000000
68 -6.972700 -0.585700 25.377100 -2.808260 -1.335551 2.935948
69 64.545044 -0.000000 -0.000001 -0.088978 -0.248008 -0.164303
70 51.973598 -0.000001 0.000106 0.023048 -0.107024 -0.213850
71 33.419098 -0.001900 -0.003600 0.000000 -0.000000 0.000000
72 -26.481199 -0.424300 7.812645 -3.059238 -0.260615 3.050175
73 64.186653 0.000000 0.000000 -0.054664 -0.099960 -0.045474
74 55.590500 -0.000000 -0.000100 0.002656 -0.062696 -0.123139
75 25.390699 -0.002458 -0.002400 0.000000 -0.000000 0.000000
76 -2.687500 -4.314000 0.575648 1.215768 0.225908 -1.489160
77 43.191101 -0.000006 -0.000000 -0.018259 -0.044080 0.054267
78 46.987953 -0.001600 -0.000800 0.000000 -0.000000 0.000000
79 11.867005 -17.024805 -22.270424 1.495541 -0.712608 -0.529147
80 -37.458698 0.000000 0.000055 0.475251 -0.451504 0.702909
81 -83.706451 -0.000001 -0.000004 1.947990 -0.632452 1.264958
82 26.481199 0.424400 -7.812700 -3.059265 -0.260578 3.050356
83 -64.186653 0.000000 -0.000006 -0.054752 -0.099938 -0.044604
84 -55.590351 0.000000 -0.000000 0.002648 -0.046141 -0.122355
85 -25.391001 0.002912 0.002800 0.000000 -0.000000 0.000000
86 6.972600 0.585700 -25.377151 -2.809211 -1.335665 2.936897
87 -64.545052 0.000000 0.000001 -0.088972 -0.248010 -0.164348
88 -51.973701 0.000000 0.000000 0.022916 -0.107044 -0.212973
89 -33.420601 0.002700 0.005200 0.000000 -0.000000 0.000000
90 -9.637899 0.153606 -24.446157 0.249444 -1.271105 -0.063649
91 -65.739960 0.000000 0.000001 -0.154276 -0.308855 -0.048536
92 -55.101063 -0.000000 -0.000000 0.011047 -0.112989 -0.099538
93 -40.394157 0.002806 0.005300 0.000000 -0.000000 0.000000
94 22.525200 0.395152 -18.987700 -2.938099 -0.705608 3.006334
95 -67.425499 0.000000 -0.000006 -0.101052 -0.164725 -0.048443
96 -63.648506 -0.000000 -0.000106 0.028167 -0.160716 -0.165171
97 -23.822102 0.002800 0.004306 0.000000 -0.000000 0.000000
98 2.687500 4.314000 -0.575600 1.176856 0.064821 -1.460642
99 -43.191101 0.000000 0.000000 -0.036779 0.007221 0.206888
100 -46.988201 0.002000 0.001000 0.000000 -0.000000 0.000000
101 34.245800 0.000000 0.000000 -0.007227 0.031159 -0.596022
102 18.195805 -0.147778 0.547705 -0.227574 0.007031 -0.061245
103 19.237070 0.088989 0.487284 -0.212415 -0.019397 -0.070300
104 24.127502 -0.432691 0.000000 0.391547 -0.241709 0.534729
105 22.713200 -10.955148 -4.711800 -0.065497 -0.343133 0.980447
106 -5.667200 0.000000 0.000000 0.036125 -0.136201 -0.580368
107 -5.935400 -0.005200 0.000200 0.000000 -0.000000 0.000000
108 6.464000 -3.692600 0.000000 -1.570554 -0.000062 0.497540
109 19.717199 4.859002 7.932058 -2.037191 1.183303 -0.865244
110 -5.371100 0.000000 0.000000 -0.186114 -0.167466 -0.227910
111 -4.278900 0.000000 0.000000 0.009547 0.047203 -0.269372
112 2.284300 0.000000 0.000000 0.000000 -0.000000 0.000000
113 19.717199 -4.858900 7.932000 1.104403 -1.183303 -2.276349
114 5.371106 0.000000 -0.000000 -0.186114 -0.167466 -0.227910
115 4.278906 -0.000000 -0.000000 0.009547 0.047203 -0.269372
116 2.284300 0.000000 0.000000 0.000000 -0.000000 0.000000
117 6.994206 0.000000 1.816300 -1.571108 -0.200777 0.000031
118 6.701500 0.000000 0.000000 0.000000 -0.000000 0.143668
119 4.978200 0.000000 0.000000 0.000000 -0.000000 0.180994
120 4.007800 0.000000 0.000000 0.000000 -0.000000 0.167997
121 22.713200 -10.955200 4.711857 -0.065497 -0.343133 -2.161146
122 5.667200 0.000000 0.000000 0.036125 -0.136201 -0.580368
123 5.935300 0.005255 -0.000100 0.000000 -0.000000 0.000000
124 23.416595 10.888371 -7.042881 -1.571387 -0.952005 -1.450244
125 23.336109 11.556564 7.987723 -1.571388 -0.952005 1.691349
126 0.0 0.0 0.0 0.0 0.0 0.0
127 0.0 0.0 0.0 0.0 0.0 0.0
128 0.0 0.0 0.0 0.0 0.0 0.0
129 0.0 0.0 0.0 0.0 0.0 0.0
130 0.0 0.0 0.0 0.0 0.0 0.0
time 1
0 0.000000 0.000000 0.000000 -0.000000 -0.000000 -0.000000
1 0.175743 1.535157 180.709885 1.657499 -1.110053 1.491237
2 -6.922300 -22.143444 0.000000 -3.096086 -0.008125 -1.779440
3 26.628101 0.000000 0.000000 -0.022730 -0.012072 -0.324745
4 26.630877 0.000000 0.000000 -0.017807 -0.022400 -0.476427
5 26.630699 0.000000 0.000000 -0.014140 -0.030407 -0.479938
6 26.628801 0.000000 0.000000 -0.009715 -0.029947 -0.248477
7 26.628859 0.000000 0.000000 -0.006171 -0.023254 -0.145500
8 26.629286 -0.000100 0.000000 0.000000 -0.000000 0.000000
9 -0.943900 -2.280900 -22.926048 -0.227514 0.233760 -0.244696
10 -40.495647 0.000000 0.000000 -0.000329 0.010902 1.937560
11 -20.836300 0.000000 0.000000 3.069534 0.090193 -1.898078
12 -15.965199 -0.178700 -5.285300 -1.705438 -1.126822 0.208685
13 -22.902399 0.000000 0.000000 0.114565 -0.056931 -0.148572
14 -4.707000 -0.421400 0.147200 -3.076464 0.202412 0.118220
15 -10.188800 0.000000 0.000000 0.066129 0.027850 0.980079
16 -3.984100 -1.091600 6.378000 2.934927 0.087610 0.090668
17 -8.776100 0.000000 0.000000 0.114986 0.030373 1.033229
18 -3.787000 0.101300 -5.082900 -2.810318 -0.024407 0.168726
19 -10.247899 -0.000000 0.000000 -0.013920 -0.026312 1.112502
20 -0.943900 -2.280900 22.926064 -0.232870 0.164270 -2.872136
21 40.495602 0.000000 0.000000 0.011517 0.040670 1.943205
22 20.836300 0.000000 0.000000 3.108965 0.132011 -2.278451
23 22.902401 -0.000000 -0.000000 0.108154 -0.139378 0.354074
24 3.787000 -0.101300 5.082900 -2.755140 0.036316 -0.060113
25 10.247964 -0.000000 -0.000000 -0.013920 -0.026312 1.112502
26 3.984013 1.091600 -6.377964 3.010345 0.066718 -0.148965
27 8.776100 0.000000 0.000000 0.114986 0.030373 1.033229
28 4.707000 0.421400 -0.147100 3.127129 0.222610 -0.307061
29 10.188800 0.000000 -0.000000 0.066129 0.027850 0.980079
30 15.965199 0.178700 5.285300 -1.705438 -1.126822 0.208685
31 1.448205 11.235700 0.000000 -0.000177 0.031868 1.620323
32 13.786891 -1.022710 -0.178615 0.052027 -0.011005 -0.021142
33 13.445063 -1.779651 -0.093919 0.019520 -0.010513 0.157726
34 29.335106 -0.933477 -0.035483 -0.032738 0.004166 0.441632
35 18.809500 -0.101690 -26.364403 -2.813013 0.039301 -1.073686
36 -48.046700 -0.000000 -0.000000 -0.010292 -0.029247 1.361163
37 -32.732506 -0.000000 0.000000 -0.129006 0.100356 -0.092198
38 -5.577506 3.896500 -9.552647 -1.631493 -0.368079 -0.300516
39 -13.046900 0.000000 0.000000 0.095343 0.106268 0.520125
40 -4.538900 1.838200 1.085063 3.114985 -0.042830 -1.179217
41 -9.326100 0.000000 0.000000 0.006278 0.026797 1.151348
42 -2.654400 1.236000 -5.967800 -2.969668 -0.038372 -0.830949
43 -10.456645 -0.000000 -0.000000 0.011291 0.025144 0.931805
44 -3.968400 2.196200 7.058900 2.972507 -0.019114 -1.494740
45 -8.804501 0.000000 0.000000 -0.015928 0.022687 0.881416
46 18.809500 -0.101740 26.364401 -2.907972 0.035952 1.703605
47 48.046745 0.000000 0.000000 -0.024461 -0.020484 1.492436
48 32.732483 0.000000 -0.000000 -0.173605 -0.361727 -0.645897
49 13.046900 0.000000 0.000000 0.051348 0.062811 0.323884
50 4.529268 -1.758800 -0.050100 3.095466 -0.097448 -0.672358
51 9.326100 0.000000 0.000000 0.045916 0.032701 0.812069
52 4.229000 -2.047300 -5.390500 -3.085586 -0.041978 -0.973260
53 8.804501 0.000000 0.000000 0.064079 0.023042 0.828598
54 2.654400 -1.236000 5.967800 -2.969668 -0.038372 -0.830949
55 10.456600 0.000000 0.000000 0.056577 0.017271 0.976297
56 5.577456 -3.896500 9.552600 -1.631493 -0.368079 -0.300516
57 11.910011 -16.892889 22.439529 1.645347 -0.551036 2.499070
58 37.458698 0.000000 -0.000101 0.326718 -0.495546 0.949558
59 83.706459 0.000001 0.000109 1.934474 -0.651688 1.147758
60 -22.525236 -0.395100 18.987600 -2.947616 -0.712102 3.021118
61 67.425568 -0.000044 0.000087 -0.101343 -0.164535 -0.046634
62 63.648670 0.000000 0.000044 0.035355 -0.176675 -0.164293
63 23.821501 -0.002200 -0.003312 0.000000 -0.000000 0.000000
64 9.637900 -0.153500 24.446062 0.217777 -1.272282 -0.030543
65 65.739975 -0.000000 -0.000017 -0.153156 -0.309387 -0.052237
66 55.100964 0.000000 0.000000 0.011755 -0.112884 -0.105847
67 40.392963 -0.002395 -0.004600 0.000000 -0.000000 0.000000
68 -6.972700 -0.585700 25.377100 -2.820523 -1.335474 2.948540
69 64.545059 -0.000000 -0.000000 -0.090766 -0.247374 -0.157019
70 51.973598 -0.000001 0.000083 0.020745 -0.107477 -0.192433
71 33.419098 -0.001900 -0.003600 0.000000 -0.000000 0.000000
72 -26.481199 -0.424300 7.812657 -3.060904 -0.266789 3.056930
73 64.186638 -0.000000 0.000000 -0.055485 -0.099513 -0.037246
74 55.590500 -0.000000 -0.000100 0.002545 -0.067936 -0.112923
75 25.390699 -0.002445 -0.002400 0.000000 -0.000000 0.000000
76 -2.687500 -4.314000 0.575638 1.048108 0.186325 -1.604535
77 43.191101 0.000018 -0.000000 -0.019992 -0.059806 0.073528
78 46.987965 -0.001600 -0.000800 0.000000 -0.000000 0.000000
79 11.910009 -16.892889 -22.439507 1.654209 -0.715483 -0.630100
80 -37.458698 0.000000 0.000043 0.470842 -0.504530 0.752615
81 -83.706459 -0.000001 -0.000003 1.888924 -0.502454 1.207278
82 26.481199 0.424400 -7.812700 -3.060851 -0.267271 3.056832
83 -64.186661 0.000000 -0.000005 -0.055340 -0.099622 -0.038748
84 -55.590359 0.000000 -0.000000 0.002614 -0.054415 -0.114538
85 -25.391001 0.002888 0.002800 0.000000 -0.000000 0.000000
86 6.972600 0.585700 -25.377163 -2.821975 -1.335514 2.950016
87 -64.545036 0.000000 0.000001 -0.090809 -0.247350 -0.156823
88 -51.973701 0.000000 0.000000 0.020906 -0.107447 -0.194162
89 -33.420601 0.002700 0.005200 0.000000 -0.000000 0.000000
90 -9.637899 0.153581 -24.446146 0.217996 -1.272209 -0.030763
91 -65.739967 0.000000 0.000001 -0.152555 -0.309681 -0.054195
92 -55.101048 -0.000000 -0.000000 0.011996 -0.112885 -0.107966
93 -40.394169 0.002783 0.005300 0.000000 -0.000000 0.000000
94 22.525200 0.395140 -18.987700 -2.948316 -0.712649 3.022226
95 -67.425499 0.000000 -0.000004 -0.101409 -0.164498 -0.046250
96 -63.648506 -0.000000 -0.000106 0.030953 -0.176259 -0.165343
97 -23.822102 0.002800 0.004281 0.000000 -0.000000 0.000000
98 2.687500 4.314000 -0.575600 1.027613 0.033976 -1.571777
99 -43.191101 0.000000 -0.000000 -0.037013 -0.012673 0.210157
100 -46.988201 0.002000 0.001000 0.000000 -0.000000 0.000000
101 34.245796 -0.000000 0.000000 -0.007146 0.031328 -0.603191
102 18.652210 -0.088957 0.552507 -0.229461 0.007655 -0.066580
103 19.063059 0.103047 0.505259 -0.219026 -0.015320 -0.088156
104 24.136288 -0.433701 0.000000 0.394623 -0.254203 0.552018
105 22.713200 -10.955159 -4.711800 -0.065497 -0.343133 0.980447
106 -5.667200 0.000000 0.000000 0.036125 -0.136201 -0.580368
107 -5.935400 -0.005199 0.000200 0.000000 -0.000000 0.000000
108 6.464000 -3.692600 0.000000 -1.570540 -0.000067 0.512929
109 19.717199 4.859002 7.932045 -2.037191 1.183303 -0.865244
110 -5.371100 0.000000 0.000000 -0.186114 -0.167466 -0.227910
111 -4.278900 0.000000 0.000000 0.009547 0.047203 -0.269372
112 2.284300 0.000000 0.000000 0.000000 -0.000000 0.000000
113 19.717199 -4.858900 7.932000 1.104403 -1.183303 -2.276349
114 5.371105 0.000000 -0.000000 -0.186114 -0.167466 -0.227910
115 4.278905 -0.000000 -0.000000 0.009547 0.047203 -0.269372
116 2.284300 0.000000 0.000000 0.000000 -0.000000 0.000000
117 6.994205 0.000000 1.816300 -1.571108 -0.200777 0.000031
118 6.701500 -0.000000 0.000000 0.000000 -0.000000 0.143668
119 4.978200 0.000000 0.000000 0.000000 -0.000000 0.180994
120 4.007800 0.000000 0.000000 0.000000 -0.000000 0.167997
121 22.713200 -10.955200 4.711845 -0.065497 -0.343133 -2.161146
122 5.667200 0.000000 0.000000 0.036125 -0.136201 -0.580368
123 5.935300 0.005243 -0.000100 0.000000 -0.000000 0.000000
124 23.631849 9.103114 -4.518497 -1.571387 -0.952005 -1.450244
125 23.390718 11.103596 7.347207 -1.571388 -0.952005 1.691349
126 0.0 0.0 0.0 0.0 0.0 0.0
127 0.0 0.0 0.0 0.0 0.0 0.0
128 0.0 0.0 0.0 0.0 0.0 0.0
129 0.0 0.0 0.0 0.0 0.0 0.0
130 0.0 0.0 0.0 0.0 0.0 0.0
time 2
0 0.000000 0.000000 0.000000 -0.000000 -0.000000 -0.000000
1 -0.601803 1.498768 167.629227 1.625254 -0.882247 1.520636
2 -6.922300 -22.143406 0.000000 -3.096252 -0.008577 -1.772442
3 26.628101 0.000000 0.000000 -0.021262 -0.014872 -0.384374
4 26.630806 0.000001 0.000000 -0.015417 -0.023804 -0.552110
5 26.630699 0.000000 0.000000 -0.013587 -0.029934 -0.506162
6 26.628801 0.000000 0.000000 -0.008927 -0.029762 -0.326002
7 26.628895 0.000000 0.000000 -0.007985 -0.022738 -0.228088
8 26.629213 -0.000100 0.000000 0.000000 -0.000000 0.000000
9 -0.943900 -2.280900 -22.926010 -0.216343 0.227295 0.004153
10 -40.495609 0.000000 0.000000 -0.001993 -0.001780 1.798022
11 -20.836300 0.000000 0.000000 3.058140 0.097849 -1.746680
12 -15.965199 -0.178700 -5.285300 -1.705438 -1.126822 0.208685
13 -22.902399 0.000000 0.000000 0.024788 -0.079695 -0.449178
14 -4.707000 -0.421400 0.147200 -3.076464 0.202412 0.118220
15 -10.188800 0.000000 0.000000 0.066129 0.027850 0.980079
16 -3.984100 -1.091600 6.378000 2.934927 0.087610 0.090668
17 -8.776100 0.000000 0.000000 0.114986 0.030373 1.033229
18 -3.787000 0.101300 -5.082900 -2.810318 -0.024407 0.168726
19 -10.247896 -0.000000 0.000000 -0.013920 -0.026312 1.112503
20 -0.943900 -2.280900 22.926102 -0.227505 0.138013 -2.643335
21 40.495602 0.000000 0.000000 0.016143 0.024977 1.795427
22 20.836300 0.000000 0.000000 3.048236 0.167158 -2.020664
23 22.902403 -0.000000 -0.000000 -0.017380 -0.154018 0.010915
24 3.787000 -0.101300 5.082900 -2.755140 0.036316 -0.060113
25 10.248001 -0.000000 -0.000000 -0.013920 -0.026312 1.112503
26 3.984089 1.091600 -6.378003 3.010345 0.066718 -0.148965
27 8.776100 0.000000 0.000000 0.114986 0.030373 1.033229
28 4.707000 0.421400 -0.147100 3.127136 0.222559 -0.307059
29 10.188800 0.000000 -0.000000 0.066129 0.027850 0.980079
30 15.965199 0.178700 5.285300 -1.705438 -1.126822 0.208685
31 1.448201 11.235700 -0.000000 0.000143 0.032833 1.630517
32 14.063581 -0.986197 -0.184333 0.052775 -0.011796 0.015988
33 13.681783 -2.006379 -0.082562 0.021994 -0.008822 0.195172
34 28.350227 -1.028046 -0.020182 -0.037267 0.009293 0.528958
35 18.809500 -0.101700 -26.364403 -2.810052 0.038355 -1.219340
36 -48.046696 -0.000000 -0.000000 -0.089377 -0.112969 0.962655
37 -32.732498 -0.000000 0.000000 -0.169354 0.042379 -0.123721
38 -5.577501 3.896500 -9.552608 -1.631493 -0.368079 -0.300516
39 -13.046900 0.000000 0.000000 0.153011 0.127935 0.861342
40 -4.538900 1.838200 1.085094 3.114985 -0.042830 -1.179217
41 -9.326100 0.000000 0.000000 0.006278 0.026797 1.151348
42 -2.654400 1.236000 -5.967800 -2.969668 -0.038372 -0.830949
43 -10.456604 -0.000000 -0.000000 0.011290 0.025144 0.931778
44 -3.968400 2.196200 7.058900 2.972508 -0.019114 -1.494740
45 -8.804501 0.000000 0.000000 -0.015928 0.022687 0.881416
46 18.809502 -0.101699 26.364401 -2.907811 0.034759 1.663069
47 48.046707 0.000000 0.000000 -0.032935 -0.007938 1.355365
48 32.732410 0.000000 -0.000000 -0.150294 -0.367353 -0.747016
49 13.046900 0.000000 0.000000 0.033163 0.028604 0.305624
50 4.529298 -1.758800 -0.050100 3.095467 -0.097448 -0.672358
51 9.326100 0.000000 0.000000 0.045916 0.032701 0.812069
52 4.229000 -2.047300 -5.390500 -3.085586 -0.041978 -0.973260
53 8.804501 0.000000 0.000000 0.064079 0.023042 0.828598
54 2.654400 -1.236000 5.967800 -2.969668 -0.038372 -0.830949
55 10.456600 0.000000 0.000000 0.056577 0.017271 0.976297
56 5.577496 -3.896500 9.552600 -1.631493 -0.368079 -0.300516
57 12.039025 -16.496683 22.946861 2.120951 -0.541929 2.241420
58 37.458698 0.000001 -0.000106 0.328704 -0.616406 1.034374
59 83.706490 0.000001 0.000110 1.733319 -0.243665 0.967808
60 -22.525208 -0.395100 18.987602 -2.979908 -0.731332 3.070519
61 67.425606 -0.000002 0.000015 -0.102192 -0.163972 -0.041468
62 63.648701 -0.000000 0.000008 0.040306 -0.225267 -0.161504
63 23.821503 -0.002200 -0.003386 0.000000 -0.000000 0.000000
64 9.637901 -0.153500 24.446096 0.121731 -1.274099 0.069813
65 65.739998 0.000000 -0.000091 -0.150370 -0.310689 -0.061303
66 55.100998 0.000000 -0.000000 0.013618 -0.112699 -0.122424
67 40.392994 -0.002399 -0.004600 0.000000 -0.000000 0.000000
68 -6.972700 -0.585700 25.377100 -2.857237 -1.335029 2.986244
69 64.545097 0.000000 0.000001 -0.096100 -0.245396 -0.135180
70 51.973598 -0.000000 0.000014 0.013785 -0.108539 -0.128170
71 33.419098 -0.001900 -0.003600 0.000000 -0.000000 0.000000
72 -26.481201 -0.424300 7.812693 -3.066180 -0.285245 3.077329
73 64.186600 -0.000001 0.000000 -0.057927 -0.098132 -0.012568
74 55.590504 -0.000000 -0.000100 0.001889 -0.083647 -0.082245
75 25.390699 -0.002408 -0.002400 0.000000 -0.000000 0.000000
76 -2.687500 -4.314000 0.575607 0.589566 -0.030833 -1.888654
77 43.191101 0.000089 -0.000000 -0.027029 -0.106741 0.131636
78 46.987999 -0.001600 -0.000800 0.000000 -0.000000 0.000000
79 12.039021 -16.497145 -22.946758 2.113472 -0.653784 -0.914423
80 -37.458698 0.000000 0.000007 0.436768 -0.661373 0.914731
81 -83.706497 -0.000000 -0.000000 1.680676 -0.135164 1.001864
82 26.481199 0.424400 -7.812700 -3.065900 -0.287287 3.076401
83 -64.186691 0.000000 -0.000004 -0.057094 -0.098652 -0.021184
84 -55.590389 0.000000 -0.000000 0.002125 -0.079232 -0.091057
85 -25.391001 0.002817 0.002800 0.000000 -0.000000 0.000000
86 6.972600 0.585700 -25.377197 -2.860139 -1.334828 2.989245
87 -64.544998 -0.000000 0.000001 -0.096287 -0.245289 -0.134265
88 -51.973701 0.000001 0.000000 0.014834 -0.108428 -0.137722
89 -33.420601 0.002700 0.005200 0.000000 -0.000000 0.000000
90 -9.637900 0.153508 -24.446108 0.122690 -1.273674 0.068856
91 -65.739998 0.000000 0.000000 -0.147362 -0.312105 -0.071189
92 -55.101006 -0.000000 -0.000000 0.014836 -0.112526 -0.133251
93 -40.394196 0.002715 0.005300 0.000000 -0.000000 0.000000
94 22.525200 0.395105 -18.987700 -2.980228 -0.733008 3.071056
95 -67.425499 0.000000 0.000001 -0.102477 -0.163813 -0.039672
96 -63.648506 -0.000001 -0.000107 0.039382 -0.222882 -0.166128
97 -23.822102 0.002800 0.004208 0.000000 -0.000000 0.000000
98 2.687500 4.314000 -0.575601 0.609362 -0.148029 -1.863629
99 -43.191101 0.000001 -0.000000 -0.038109 -0.072350 0.220010
100 -46.988201 0.002000 0.001000 0.000000 -0.000000 0.000000
101 34.245792 -0.000000 0.000000 -0.006909 0.031837 -0.624699
102 20.021423 0.087505 0.566913 -0.235143 0.009466 -0.082594
103 18.541021 0.145219 0.559185 -0.239278 -0.003807 -0.141879
104 24.162645 -0.436729 0.000000 0.402558 -0.291970 0.604016
105 22.713200 -10.955193 -4.711800 -0.065497 -0.343133 0.980447
106 -5.667200 0.000000 0.000000 0.036125 -0.136201 -0.580368
107 -5.935400 -0.005197 0.000200 0.000000 -0.000000 0.000000
108 6.464000 -3.692600 0.000000 -1.570500 -0.000085 0.559097
109 19.717199 4.859004 7.932008 -2.037191 1.183303 -0.865245
110 -5.371100 0.000000 0.000000 -0.186114 -0.167466 -0.227910
111 -4.278900 0.000000 0.000000 0.009547 0.047203 -0.269372
112 2.284300 0.000000 0.000000 0.000000 -0.000000 0.000000
113 19.717199 -4.858900 7.932000 1.104403 -1.183303 -2.276350
114 5.371101 0.000000 -0.000000 -0.186114 -0.167466 -0.227910
115 4.278901 -0.000000 -0.000000 0.009547 0.047203 -0.269372
116 2.284300 0.000000 0.000000 0.000000 -0.000000 0.000000
117 6.994201 0.000000 1.816300 -1.571108 -0.200777 0.000031
118 6.701501 -0.000000 0.000000 0.000000 -0.000000 0.143668
119 4.978200 0.000000 0.000000 0.000000 -0.000000 0.180994
120 4.007800 0.000000 0.000000 0.000000 -0.000000 0.167997
121 22.713200 -10.955200 4.711808 -0.065497 -0.343133 -2.161145
122 5.667200 0.000000 0.000000 0.036125 -0.136201 -0.580368
123 5.935300 0.005206 -0.000100 0.000000 -0.000000 0.000000
124 24.277609 3.747344 3.054651 -1.571388 -0.952005 -1.450244
125 23.554546 9.744687 5.425653 -1.571388 -0.952005 1.691349
126 0.0 0.0 0.0 0.0 0.0 0.0
127 0.0 0.0 0.0 0.0 0.0 0.0
128 0.0 0.0 0.0 0.0 0.0 0.0
129 0.0 0.0 0.0 0.0 0.0 0.0
130 0.0 0.0 0.0 0.0 0.0 0.0
time 3
0 0.000000 0.000000 0.000000 -0.000000 -0.000000 -0.000000
1 -1.483971 1.560531 166.774475 1.611224 -0.716875 1.531526
2 -6.922299 -22.143415 0.000000 -3.096222 -0.009283 -1.791124
3 26.628101 0.000000 0.000000 -0.021728 -0.013317 -0.361364
4 26.630838 0.000000 0.000000 -0.015883 -0.022633 -0.523427
5 26.630699 0.000000 0.000000 -0.014281 -0.029479 -0.482662
6 26.628801 0.000000 0.000000 -0.009575 -0.030678 -0.421587
7 26.628887 0.000000 -0.000000 -0.013191 -0.022957 -0.369344
8 26.629213 -0.000100 0.000000 0.000000 -0.000000 0.000000
9 -0.943900 -2.280900 -22.925997 -0.212384 0.221627 0.133671
10 -40.495598 -0.000000 -0.000000 -0.005962 -0.011946 1.702161
11 -20.836300 0.000000 0.000000 3.065097 0.084607 -1.607290
12 -15.965199 -0.178700 -5.285300 -1.705438 -1.126822 0.208685
13 -22.902399 0.000000 0.000000 -0.012915 -0.078212 -0.594956
14 -4.707000 -0.421400 0.147200 -3.076464 0.202412 0.118220
15 -10.188800 0.000000 0.000000 0.066129 0.027850 0.980079
16 -3.984100 -1.091600 6.378000 2.934927 0.087610 0.090668
17 -8.776100 0.000000 0.000000 0.114986 0.030373 1.033229
18 -3.787000 0.101300 -5.082900 -2.810318 -0.024407 0.168726
19 -10.247921 0.000001 0.000000 -0.013920 -0.026312 1.112503
20 -0.943900 -2.280900 22.926058 -0.228437 0.122170 -2.537879
21 40.495602 0.000000 0.000000 0.007459 0.005360 1.678730
22 20.836300 0.000000 0.000000 3.056972 0.143080 -1.835318
23 22.902372 0.000000 0.000000 -0.082925 -0.133800 -0.196484
24 3.787000 -0.101300 5.082900 -2.755141 0.036316 -0.060113
25 10.247964 -0.000000 -0.000000 -0.013920 -0.026312 1.112503
26 3.984090 1.091600 -6.377956 3.010345 0.066718 -0.148965
27 8.776100 0.000000 0.000000 0.114986 0.030373 1.033229
28 4.707000 0.421400 -0.147100 3.127134 0.222576 -0.307060
29 10.188797 -0.000000 0.000000 0.066129 0.027850 0.980079
30 15.965199 0.178700 5.285300 -1.705438 -1.126822 0.208685
31 1.448207 11.235700 0.000000 0.000990 0.033175 1.656188
32 14.477407 -0.852352 -0.187612 0.053066 -0.012694 0.038321
33 14.076587 -2.092580 -0.078641 0.024100 -0.007904 0.212851
34 27.693628 -1.013671 -0.016211 -0.040716 0.013692 0.598073
35 18.809500 -0.101690 -26.364405 -2.808405 0.038345 -1.256562
36 -48.046722 0.000000 0.000000 -0.075051 -0.077987 0.858479
37 -32.732498 0.000000 -0.000000 -0.182073 -0.044489 -0.326647
38 -5.577499 3.896500 -9.552595 -1.631493 -0.368079 -0.300516
39 -13.046900 0.000000 0.000000 0.094192 0.099993 0.711546
40 -4.538900 1.838200 1.085109 3.114985 -0.042830 -1.179217
41 -9.326100 0.000000 0.000000 0.006278 0.026797 1.151348
42 -2.654400 1.236000 -5.967800 -2.969668 -0.038372 -0.830949
43 -10.456616 0.000000 -0.000000 0.011291 0.025144 0.931806
44 -3.968400 2.196200 7.058900 2.972507 -0.019114 -1.494740
45 -8.804501 0.000000 0.000000 -0.015928 0.022687 0.881416
46 18.809500 -0.101741 26.364401 -2.906660 0.033097 1.668998
47 48.046696 -0.000000 -0.000000 -0.031527 0.000467 1.240478
48 32.732418 0.000000 -0.000000 -0.141572 -0.322286 -0.745975
49 13.046900 0.000000 0.000000 0.036664 0.050768 0.256843
50 4.529284 -1.758800 -0.050100 3.095467 -0.097448 -0.672358
51 9.326100 0.000000 0.000000 0.045916 0.032701 0.812069
52 4.229000 -2.047300 -5.390500 -3.085586 -0.041978 -0.973260
53 8.804501 0.000000 0.000000 0.064079 0.023042 0.828598
54 2.654400 -1.236000 5.967800 -2.969668 -0.038372 -0.830949
55 10.456600 0.000000 0.000000 0.056577 0.017271 0.976297
56 5.577477 -3.896500 9.552600 -1.631493 -0.368079 -0.300516
57 12.102142 -14.739012 23.539381 2.638598 -0.630459 1.776427
58 37.458698 0.000001 -0.000059 0.364111 -0.549021 0.927137
59 83.706482 0.000001 0.000061 1.410383 0.041655 0.861120
60 -22.525194 -0.395100 18.987602 -2.949822 -0.759099 3.023152
61 67.425575 -0.000033 -0.000007 -0.105710 -0.161737 -0.019819
62 63.648666 0.000005 -0.000004 0.036637 -0.220583 -0.148484
63 23.821503 -0.002195 -0.003409 0.000000 -0.000000 0.000000
64 9.637900 -0.153500 24.446106 -0.021256 -1.268463 0.218900
65 65.739960 0.000000 -0.000070 -0.148287 -0.311671 -0.068094
66 55.100983 -0.000000 0.000000 0.013996 -0.112655 -0.125715
67 40.393005 -0.002400 -0.004600 0.000000 -0.000000 0.000000
68 -6.972707 -0.585700 25.377100 -2.767786 -1.318617 2.894491
69 64.545082 0.000000 0.000001 -0.106073 -0.241311 -0.093786
70 51.973598 0.000000 -0.000008 0.011991 -0.108751 -0.111568
71 33.419098 -0.001895 -0.003600 0.000000 -0.000000 0.000000
72 -26.481201 -0.424300 7.812712 -3.055513 -0.327284 3.030733
73 64.186615 -0.000001 0.000000 -0.057972 -0.098111 -0.012069
74 55.590485 0.000005 -0.000100 0.001633 -0.077734 -0.073957
75 25.390699 -0.002391 -0.002400 0.000000 -0.000000 0.000000
76 -2.687500 -4.314000 0.575591 0.393727 -0.309407 -2.041663
77 43.191101 0.000089 -0.000000 -0.031670 -0.129634 0.165866
78 46.987995 -0.001597 -0.000800 0.000000 -0.000000 0.000000
79 12.102169 -14.739287 -23.539360 2.648175 -0.686753 -1.395222
80 -37.458698 -0.000000 -0.000004 0.414453 -0.579106 0.878031
81 -83.706482 -0.000000 -0.000001 1.375959 0.097962 0.867593
82 26.481199 0.424400 -7.812700 -3.055245 -0.328786 3.029995
83 -64.186707 -0.000003 0.000020 -0.057372 -0.098476 -0.018253
84 -55.590405 -0.000005 0.000000 0.001751 -0.076921 -0.080509
85 -25.391003 0.002783 0.002800 0.000000 -0.000000 0.000000
86 6.972600 0.585700 -25.377186 -2.769699 -1.318491 2.896467
87 -64.545013 -0.000003 0.000001 -0.106210 -0.241224 -0.093109
88 -51.973701 0.000001 0.000000 0.012739 -0.108685 -0.118350
89 -33.420601 0.002700 0.005200 0.000000 -0.000000 0.000000
90 -9.637900 0.153530 -24.446096 -0.020480 -1.268166 0.218126
91 -65.739983 -0.000003 -0.000001 -0.146015 -0.312734 -0.075568
92 -55.101025 -0.000000 -0.000000 0.014926 -0.112515 -0.133983
93 -40.394188 0.002685 0.005300 0.000000 -0.000000 0.000000
94 22.525200 0.395108 -18.987700 -2.949889 -0.760308 3.023329
95 -67.425484 -0.000003 -0.000001 -0.105918 -0.161615 -0.018505
96 -63.648464 -0.000001 -0.000058 0.036801 -0.218791 -0.151984
97 -23.822102 0.002800 0.004233 0.000000 -0.000000 0.000000
98 2.687500 4.314000 -0.575597 0.413413 -0.371086 -2.032092
99 -43.191101 0.000001 -0.000000 -0.037135 -0.111588 0.209276
100 -46.988201 0.002000 0.001000 0.000000 -0.000000 0.000000
101 34.245785 -0.000008 -0.000000 -0.007297 0.032656 -0.605711
102 20.350481 0.134367 0.572817 -0.237436 0.009940 -0.089250
103 18.291357 0.153878 0.570196 -0.242494 -0.003361 -0.149707
104 24.346455 -0.458005 0.000000 0.408765 -0.294149 0.600929
105 22.713200 -10.955204 -4.711800 -0.065497 -0.343133 0.980447
106 -5.667200 0.000000 0.000000 0.036125 -0.136201 -0.580368
107 -5.935400 -0.005224 0.000200 0.000000 -0.000000 0.000000
108 6.464000 -3.692600 0.000000 -1.570487 -0.000094 0.590819
109 19.717199 4.858982 7.931996 -2.037191 1.183303 -0.865245
110 -5.371100 0.000000 0.000000 -0.186114 -0.167466 -0.227910
111 -4.278900 0.000000 0.000000 0.009547 0.047203 -0.269372
112 2.284300 0.000000 0.000000 0.000000 -0.000000 0.000000
113 19.717199 -4.858900 7.932000 1.104403 -1.183303 -2.276350
114 5.371099 -0.000000 0.000000 -0.186114 -0.167466 -0.227910
115 4.278902 -0.000000 -0.000000 0.009547 0.047203 -0.269372
116 2.284300 0.000000 0.000000 0.000000 -0.000000 0.000000
117 6.994205 -0.000000 1.816300 -1.570979 -0.200777 0.000018
118 6.701500 -0.000000 0.000000 0.000000 -0.000000 0.143668
119 4.978200 0.000000 0.000000 0.000000 -0.000000 0.180994
120 4.007800 0.000000 0.000000 0.000000 -0.000000 0.167997
121 22.713200 -10.955200 4.711796 -0.065497 -0.343133 -2.161145
122 5.667200 0.000000 0.000000 0.036125 -0.136201 -0.580368
123 5.935300 0.005208 -0.000100 0.000000 -0.000000 0.000000
124 24.222025 4.208432 2.402683 -1.571388 -0.952005 -1.450244
125 23.640335 9.032905 4.419232 -1.571388 -0.952005 1.691349
126 0.0 0.0 0.0 0.0 0.0 0.0
127 0.0 0.0 0.0 0.0 0.0 0.0
128 0.0 0.0 0.0 0.0 0.0 0.0
129 0.0 0.0 0.0 0.0 0.0 0.0
130 0.0 0.0 0.0 0.0 0.0 0.0
time 4
0 0.000000 0.000000 0.000000 -0.000000 -0.000000 -0.000000
1 -2.102463 1.638817 175.007904 1.602264 -0.582803 1.537099
2 -6.922298 -22.143444 0.000000 -3.096072 -0.010113 -1.822646
3 26.628101 0.000000 0.000000 -0.023016 -0.009541 -0.297039
4 26.630905 -0.000000 0.000000 -0.017644 -0.020113 -0.442567
5 26.630699 0.000000 0.000000 -0.015574 -0.028986 -0.434302
6 26.628801 0.000000 0.000000 -0.010800 -0.032277 -0.526206
7 26.628851 0.000000 -0.000000 -0.019929 -0.024462 -0.539929
8 26.629246 -0.000100 0.000000 0.000000 -0.000000 0.000000
9 -0.943900 -2.280900 -22.926001 -0.211678 0.217172 0.203626
10 -40.495602 0.000000 0.000000 -0.011119 -0.021134 1.628166
11 -20.836300 0.000000 0.000000 3.078001 0.058787 -1.474439
12 -15.965199 -0.178700 -5.285300 -1.705438 -1.126822 0.208685
13 -22.902399 0.000000 0.000000 -0.028782 -0.056742 -0.664153
14 -4.707000 -0.421400 0.147200 -3.076464 0.202412 0.118220
15 -10.188800 0.000000 0.000000 0.066129 0.027850 0.980079
16 -3.984100 -1.091600 6.378000 2.934927 0.087610 0.090668
17 -8.776100 0.000000 0.000000 0.114986 0.030373 1.033229
18 -3.787000 0.101300 -5.082900 -2.810318 -0.024407 0.168726
19 -10.247951 0.000001 0.000000 -0.013920 -0.026312 1.112503
20 -0.943900 -2.280900 22.925993 -0.230849 0.111892 -2.493797
21 40.495602 0.000000 0.000000 -0.006746 -0.017750 1.577866
22 20.836300 0.000000 0.000000 3.089299 0.080069 -1.688840
23 22.902338 0.000000 0.000000 -0.126946 -0.086998 -0.337593
24 3.787000 -0.101300 5.082900 -2.755141 0.036316 -0.060113
25 10.247894 -0.000000 -0.000000 -0.013920 -0.026312 1.112503
26 3.984045 1.091600 -6.377887 3.010345 0.066718 -0.148965
27 8.776100 0.000000 0.000000 0.114986 0.030373 1.033229
28 4.707000 0.421400 -0.147100 3.127126 0.222627 -0.307062
29 10.188794 -0.000000 0.000000 0.066129 0.027850 0.980079
30 15.965199 0.178700 5.285300 -1.705438 -1.126822 0.208685
31 1.448206 11.235700 0.000000 0.002097 0.033176 1.689597
32 14.590917 -0.666589 -0.186399 0.053126 -0.013636 0.053255
33 14.272008 -2.078040 -0.079911 0.026005 -0.007353 0.220645
34 27.381224 -0.945740 -0.019107 -0.043579 0.017747 0.658081
35 18.809500 -0.101675 -26.364405 -2.807452 0.038644 -1.239568
36 -48.046753 0.000000 0.000000 -0.022570 0.023648 0.904622
37 -32.732498 0.000000 0.000000 -0.157362 -0.142150 -0.618519
38 -5.577500 3.896500 -9.552600 -1.631494 -0.368079 -0.300516
39 -13.046900 0.000000 0.000000 -0.002834 0.018786 0.323345
40 -4.538900 1.838200 1.085112 3.114985 -0.042830 -1.179217
41 -9.326100 0.000000 0.000000 0.006278 0.026797 1.151348
42 -2.654400 1.236000 -5.967800 -2.969668 -0.038372 -0.830949
43 -10.456651 0.000000 -0.000000 0.011292 0.025144 0.931862
44 -3.968400 2.196200 7.058900 2.972507 -0.019114 -1.494740
45 -8.804501 0.000000 0.000000 -0.015928 0.022687 0.881416
46 18.809500 -0.101818 26.364401 -2.905077 0.031160 1.698155
47 48.046700 0.000000 0.000000 -0.025230 0.007779 1.136750
48 32.732460 0.000000 0.000000 -0.137233 -0.252733 -0.694550
49 13.046900 0.000000 0.000000 0.048107 0.101902 0.192973
50 4.529254 -1.758800 -0.050100 3.095466 -0.097448 -0.672358
51 9.326100 0.000000 0.000000 0.045916 0.032701 0.812069
52 4.229000 -2.047300 -5.390500 -3.085586 -0.041978 -0.973260
53 8.804501 0.000000 0.000000 0.064079 0.023042 0.828598
54 2.654400 -1.236000 5.967800 -2.969668 -0.038372 -0.830949
55 10.456600 0.000000 0.000000 0.056577 0.017271 0.976297
56 5.577437 -3.896500 9.552600 -1.631494 -0.368079 -0.300516
57 12.096272 -12.645653 24.046309 -3.060290 -0.556929 1.161159
58 37.458698 0.000000 0.000006 0.386507 -0.382328 0.743150
59 83.706451 0.000001 0.000004 1.023830 0.251741 0.740484
60 -22.525194 -0.395099 18.987600 -2.882925 -0.787695 2.922198
61 67.425507 -0.000100 0.000002 -0.110482 -0.158549 0.010046
62 63.648598 0.000000 0.000000 0.029214 -0.189142 -0.130586
63 23.821501 -0.002200 -0.003400 0.000000 -0.000000 0.000000
64 9.637898 -0.153500 24.446100 -0.176781 -1.253300 0.381430
65 65.739899 0.000000 0.000000 -0.146557 -0.312494 -0.073748
66 55.100945 -0.000000 0.000000 0.013633 -0.112689 -0.122364
67 40.393002 -0.002400 -0.004600 0.000000 -0.000000 0.000000
68 -6.972706 -0.585700 25.377100 -2.639645 -1.290129 2.762392
69 64.545052 -0.000000 -0.000001 -0.118133 -0.235705 -0.042720
70 51.973598 0.000000 0.000000 0.012800 -0.108682 -0.118800
71 33.419098 -0.001900 -0.003600 0.000000 -0.000000 0.000000
72 -26.481199 -0.424300 7.812706 -3.032598 -0.379807 2.948337
73 64.186653 0.000000 0.000000 -0.056825 -0.098777 -0.023659
74 55.590454 0.000000 -0.000100 0.001698 -0.061018 -0.076877
75 25.390699 -0.002400 -0.002400 0.000000 -0.000000 0.000000
76 -2.687500 -4.314000 0.575588 0.331083 -0.588299 -2.158088
77 43.191101 0.000045 -0.000000 -0.034395 -0.140608 0.187998
78 46.987965 -0.001593 -0.000800 0.000000 -0.000000 0.000000
79 12.096334 -12.645449 -24.046431 -3.059427 -0.556481 -1.980051
80 -37.458698 0.000000 0.000000 0.385039 -0.381074 0.743734
81 -83.706451 -0.000001 -0.000004 1.024362 0.250909 0.740626
82 26.481199 0.424400 -7.812700 -3.032614 -0.379741 2.948380
83 -64.186707 -0.000007 0.000045 -0.056917 -0.098706 -0.022637
84 -55.590408 0.000000 0.000000 0.001685 -0.061051 -0.076452
85 -25.391006 0.002788 0.002800 0.000000 -0.000000 0.000000
86 6.972600 0.585700 -25.377155 -2.639574 -1.290113 2.762291
87 -64.545052 -0.000005 0.000001 -0.118130 -0.235706 -0.042755
88 -51.973701 0.000000 0.000000 0.012648 -0.108693 -0.117517
89 -33.420601 0.002700 0.005200 0.000000 -0.000000 0.000000
90 -9.637899 0.153600 -24.446100 -0.176964 -1.253282 0.381613
91 -65.739952 -0.000007 -0.000001 -0.146608 -0.312493 -0.073633
92 -55.101063 -0.000000 -0.000000 0.013644 -0.112688 -0.122441
93 -40.394157 0.002693 0.005300 0.000000 -0.000000 0.000000
94 22.525200 0.395139 -18.987700 -2.882969 -0.787620 2.922273
95 -67.425453 -0.000007 -0.000006 -0.110473 -0.158555 0.009933
96 -63.648411 0.000000 0.000007 0.029259 -0.189207 -0.130552
97 -23.822102 0.002800 0.004307 0.000000 -0.000000 0.000000
98 2.687500 4.314000 -0.575593 0.330679 -0.587382 -2.157882
99 -43.191101 0.000000 0.000000 -0.034406 -0.140567 0.188092
100 -46.988201 0.002000 0.001000 0.000000 -0.000000 0.000000
101 34.245945 0.000001 -0.000000 -0.007963 0.033651 -0.566474
102 19.850241 0.072516 0.572496 -0.238025 0.009774 -0.091223
103 18.318695 0.135098 0.546663 -0.237051 -0.008151 -0.134535
104 24.661127 -0.494457 0.000001 0.414323 -0.278271 0.570406
105 22.713200 -10.955200 -4.711800 -0.065497 -0.343133 0.980447
106 -5.667200 0.000000 0.000000 0.036125 -0.136201 -0.580368
107 -5.935400 -0.005255 0.000200 0.000000 -0.000000 0.000000
108 6.464000 -3.692600 0.000000 -1.570487 -0.000098 0.615318
109 19.717197 4.858946 7.932000 -2.037191 1.183303 -0.865244
110 -5.371100 0.000000 0.000000 -0.186114 -0.167466 -0.227910
111 -4.278900 0.000000 0.000000 0.009547 0.047203 -0.269372
112 2.284300 0.000000 0.000000 0.000000 -0.000000 0.000000
113 19.717199 -4.858900 7.932000 1.104403 -1.183303 -2.276350
114 5.371100 0.000000 0.000000 -0.186114 -0.167466 -0.227910
115 4.278906 -0.000000 -0.000000 0.009547 0.047203 -0.269372
116 2.284300 0.000000 0.000000 0.000000 -0.000000 0.000000
117 6.994200 0.000000 1.816300 -1.570785 -0.200776 -0.000001
118 6.701500 0.000000 0.000000 0.000000 -0.000000 0.143668
119 4.978200 0.000000 0.000000 0.000000 -0.000000 0.180994
120 4.007800 0.000000 0.000000 0.000000 -0.000000 0.167997
121 22.713200 -10.955200 4.711800 -0.065497 -0.343133 -2.161145
122 5.667200 0.000000 0.000000 0.036125 -0.136201 -0.580368
123 5.935300 0.005239 -0.000100 0.000000 -0.000000 0.000000
124 23.804428 7.671957 -2.494777 -1.571388 -0.952005 -1.450244
125 23.686810 8.647202 3.873921 -1.571388 -0.952005 1.691349
126 0.0 0.0 0.0 0.0 0.0 0.0
127 0.0 0.0 0.0 0.0 0.0 0.0
128 0.0 0.0 0.0 0.0 0.0 0.0
129 0.0 0.0 0.0 0.0 0.0 0.0
130 0.0 0.0 0.0 0.0 0.0 0.0
time 5
0 0.000000 0.000000 0.000000 -0.000000 -0.000000 -0.000000
1 -1.232418 1.485785 186.823135 1.597863 -0.537833 1.538413
2 -6.922299 -22.143417 0.000000 -3.095227 -0.012088 -1.888754
3 26.628101 0.000000 0.000000 -0.024270 -0.002985 -0.208244
4 26.630836 0.000000 0.000000 -0.019489 -0.017279 -0.369907
5 26.630699 0.000000 0.000000 -0.016266 -0.029398 -0.400890
6 26.628801 0.000000 0.000000 -0.010955 -0.034672 -0.512673
7 26.628811 0.000000 -0.000000 -0.017361 -0.026213 -0.484456
8 26.629219 -0.000100 0.000000 0.000000 -0.000000 0.000000
9 -0.943900 -2.280900 -22.926001 -0.209018 0.218056 0.232966
10 -40.495602 0.000000 0.000000 -0.011490 -0.021933 1.590927
11 -20.836300 0.000000 0.000000 3.082311 0.054049 -1.532443
12 -15.965199 -0.178700 -5.285300 -1.705438 -1.126822 0.208685
13 -22.902399 0.000000 0.000000 -0.031182 -0.038752 -0.687868
14 -4.707000 -0.421400 0.147200 -3.076464 0.202412 0.118220
15 -10.188800 0.000000 0.000000 0.066129 0.027850 0.980079
16 -3.984100 -1.091600 6.378000 2.934927 0.087610 0.090668
17 -8.776100 0.000000 0.000000 0.114986 0.030373 1.033229
18 -3.787000 0.101300 -5.082900 -2.810318 -0.024407 0.168726
19 -10.247918 0.000001 0.000000 -0.013920 -0.026312 1.112503
20 -0.943900 -2.280900 22.926056 -0.233893 0.110804 -2.469859
21 40.495609 -0.000000 -0.000000 -0.008501 -0.027504 1.532255
22 20.836300 0.000000 -0.000000 3.098734 0.070229 -1.768846
23 22.902372 0.000000 0.000000 -0.106340 -0.049397 -0.356395
24 3.787000 -0.101300 5.082900 -2.755141 0.036316 -0.060113
25 10.247895 -0.000000 -0.000000 -0.013920 -0.026312 1.112503
26 3.984012 1.091600 -6.377953 3.010345 0.066718 -0.148965
27 8.776100 0.000000 0.000000 0.114986 0.030373 1.033229
28 4.707003 0.421400 -0.147100 3.127126 0.222625 -0.307061
29 10.188797 -0.000000 0.000000 0.066129 0.027850 0.980079
30 15.965199 0.178700 5.285300 -1.705438 -1.126822 0.208685
31 1.448133 11.235700 0.000000 0.002239 0.030800 1.698350
32 12.859780 -0.540555 -0.172334 0.049959 -0.014804 0.061159
33 13.067865 -2.075435 -0.079583 0.023170 -0.008479 0.207192
34 27.371321 -0.975274 -0.015513 -0.039115 0.012229 0.573796
35 18.809500 -0.101690 -26.364403 -2.804927 0.038060 -1.182629
36 -48.046722 0.000000 0.000000 -0.042390 0.000181 0.874267
37 -32.732498 0.000000 0.000000 -0.170640 -0.056081 -0.654403
38 -5.577503 3.896500 -9.552600 -1.631494 -0.368079 -0.300516
39 -13.046900 0.000000 0.000000 0.009483 0.040624 0.268876
40 -4.538900 1.838200 1.085114 3.114985 -0.042830 -1.179217
41 -9.326100 0.000000 0.000000 0.006278 0.026797 1.151348
42 -2.654400 1.236000 -5.967800 -2.969668 -0.038372 -0.830949
43 -10.456622 0.000000 -0.000000 0.011292 0.025144 0.931863
44 -3.968400 2.196200 7.058900 2.972507 -0.019114 -1.494740
45 -8.804501 0.000000 0.000000 -0.015928 0.022687 0.881416
46 18.809500 -0.101811 26.364407 -2.904212 0.032162 1.771410
47 48.046700 0.000000 0.000000 -0.026800 0.007431 1.183954
48 32.732426 0.000000 -0.000000 -0.127208 -0.268507 -0.866208
49 13.046900 0.000000 0.000000 0.046822 0.148678 0.124934
50 4.529282 -1.758800 -0.050100 3.095467 -0.097448 -0.672358
51 9.326100 0.000000 0.000000 0.045916 0.032701 0.812069
52 4.229000 -2.047300 -5.390500 -3.085586 -0.041978 -0.973261
53 8.804501 0.000000 0.000000 0.064079 0.023042 0.828598
54 2.654400 -1.236000 5.967800 -2.969668 -0.038372 -0.830949
55 10.456600 0.000000 0.000000 0.056577 0.017271 0.976297
56 5.577475 -3.896500 9.552600 -1.631494 -0.368079 -0.300516
57 12.005929 -12.805042 24.005075 -3.044957 -0.599435 1.251395
58 37.458698 0.000001 0.000009 0.094015 -0.100493 1.014960
59 83.706482 -0.000000 0.000061 1.039144 0.141371 0.553341
60 -22.525198 -0.395100 18.987597 -2.873703 -0.837925 2.910576
61 67.425499 -0.000105 0.000002 -0.131516 -0.141633 0.150616
62 63.648590 -0.000068 -0.000000 0.002403 -0.153017 0.029687
63 23.821501 -0.002267 -0.003400 0.000000 -0.000000 0.000000
64 9.637901 -0.153500 24.446100 -0.181437 -1.250658 0.386265
65 65.739960 -0.000000 0.000005 -0.192189 -0.287233 0.080473
66 55.100979 -0.000000 0.000000 -0.002526 -0.113483 0.021179
67 40.393002 -0.002400 -0.004600 0.000000 -0.000000 0.000000
68 -6.972640 -0.585700 25.377100 -2.651171 -1.277640 2.774498
69 64.545082 -0.000002 0.000001 -0.156149 -0.212693 0.127842
70 51.973598 0.000000 0.000000 -0.002337 -0.109406 0.020457
71 33.419098 -0.001968 -0.003601 0.000000 -0.000000 0.000000
72 -26.481201 -0.424300 7.812632 -3.032890 -0.449756 2.955971
73 64.186623 0.000000 0.000000 -0.068215 -0.091303 0.096379
74 55.590420 -0.000072 -0.000100 -0.001829 -0.041112 0.051131
75 25.390699 -0.002462 -0.002400 0.000000 -0.000000 0.000000
76 -2.687500 -4.314001 0.575591 0.424415 -0.327496 -2.315385
77 43.191101 0.000015 -0.000000 -0.034260 -0.155342 0.186731
78 46.987923 -0.001597 -0.000800 0.000000 -0.000000 0.000000
79 12.005954 -12.804939 -24.005131 -3.044021 -0.599232 -1.890079
80 -37.458698 0.000000 0.000000 0.093259 -0.099382 1.015065
81 -83.706474 -0.000000 0.000003 1.039384 0.141061 0.553389
82 26.481199 0.424400 -7.812700 -3.032929 -0.449467 2.956017
83 -64.186707 -0.000001 0.000016 -0.068248 -0.091270 0.096782
84 -55.590408 0.000072 -0.000004 -0.001833 -0.041125 0.051296
85 -25.391003 0.002857 0.002800 0.000000 -0.000000 0.000000
86 6.972600 0.585700 -25.377186 -2.651057 -1.277690 2.774370
87 -64.545013 -0.000001 -0.000004 -0.155722 -0.213006 0.125743
88 -51.973701 0.000005 -0.000000 -0.002400 -0.109402 0.021008
89 -33.420601 0.002700 0.005200 0.000000 -0.000000 0.000000
90 -9.637899 0.153612 -24.446098 -0.181390 -1.250662 0.386249
91 -65.739983 -0.000003 -0.000000 -0.192216 -0.287227 0.080564
92 -55.101028 -0.000000 -0.000000 -0.002589 -0.113483 0.021510
93 -40.394115 0.002759 0.005300 0.000000 -0.000000 0.000000
94 22.525202 0.395182 -18.987701 -2.873794 -0.837680 2.910681
95 -67.425415 -0.000003 -0.000007 -0.131205 -0.141938 0.148310
96 -63.648403 0.000000 0.000006 0.002263 -0.153035 0.031039
97 -23.822102 0.002800 0.004305 0.000000 -0.000000 0.000000
98 2.687500 4.314000 -0.575597 0.424085 -0.327389 -2.314761
99 -43.191101 0.000002 -0.000000 -0.034269 -0.155395 0.186770
100 -46.988205 0.002000 0.001000 0.000000 -0.000000 0.000000
101 34.232887 -0.001745 0.000000 -0.011600 0.034794 -0.461334
102 18.753193 -0.085946 0.570709 -0.237000 0.007009 -0.029780
103 18.631130 0.094786 0.498302 -0.217663 -0.024443 -0.064315
104 25.224289 -0.559744 0.000005 0.420717 -0.226356 0.475356
105 22.713198 -10.955200 -4.711800 -0.065497 -0.343133 0.980447
106 -5.667200 0.000000 0.000000 0.036125 -0.136201 -0.580368
107 -5.935400 -0.005226 0.000204 0.000000 -0.000000 0.000000
108 6.464000 -3.692600 0.000000 -1.570488 -0.000098 0.617246
109 19.717197 4.858908 7.931990 -2.037191 1.183303 -0.865244
110 -5.371100 0.000000 0.000000 -0.186114 -0.167466 -0.227910
111 -4.278900 0.000000 0.000000 0.009547 0.047203 -0.269372
112 2.284300 0.000000 0.000000 0.000000 -0.000000 0.000000
113 19.717199 -4.858900 7.932000 1.104403 -1.183303 -2.276350
114 5.371102 0.000000 -0.000000 -0.186114 -0.167466 -0.227911
115 4.278903 -0.000000 -0.000000 0.009547 0.047203 -0.269372
116 2.284300 0.000000 0.000000 0.000000 -0.000000 0.000000
117 6.994136 0.000000 1.816300 -1.570979 -0.200777 0.000018
118 6.701500 0.000000 0.000000 0.000000 -0.000000 0.143668
119 4.978200 0.000000 0.000000 0.000000 -0.000000 0.180994
120 4.007800 0.000000 0.000000 0.000000 -0.000000 0.167997
121 22.713202 -10.955200 4.711797 -0.065497 -0.343133 -2.161145
122 5.667200 0.000000 0.000000 0.036125 -0.136201 -0.580368
123 5.935300 0.005280 -0.000100 0.000000 -0.000000 0.000000
124 23.824934 7.501806 -2.254200 -1.571388 -0.952005 -1.450244
125 23.782656 7.852423 2.750058 -1.571388 -0.952006 1.691349
126 0.0 0.0 0.0 0.0 0.0 0.0
127 0.0 0.0 0.0 0.0 0.0 0.0
128 0.0 0.0 0.0 0.0 0.0 0.0
129 0.0 0.0 0.0 0.0 0.0 0.0
130 0.0 0.0 0.0 0.0 0.0 0.0
time 6
0 0.000000 0.000000 0.000000 -0.000000 -0.000000 -0.000000
1 -0.860271 1.439842 197.841385 1.597070 -0.543465 1.538114
2 -6.922300 -22.143396 0.000000 -3.094347 -0.014158 -1.947073
3 26.628101 0.000000 0.000000 -0.024804 0.002456 -0.139969
4 26.630808 0.000001 0.000000 -0.020890 -0.014557 -0.311373
5 26.630699 0.000000 0.000000 -0.017104 -0.029252 -0.362605
6 26.628801 0.000000 0.000000 -0.011155 -0.036413 -0.470024
7 26.628817 -0.000000 0.000000 -0.014447 -0.027602 -0.406604
8 26.629196 -0.000100 0.000000 0.000000 -0.000000 0.000000
9 -0.943900 -2.280900 -22.926012 -0.210632 0.220446 0.199271
10 -40.495602 0.000000 0.000000 -0.011124 -0.020129 1.553937
11 -20.836300 0.000000 0.000000 3.085868 0.050727 -1.580268
12 -15.965199 -0.178700 -5.285300 -1.705438 -1.126822 0.208685
13 -22.902399 0.000000 0.000000 -0.029527 -0.025535 -0.695184
14 -4.707000 -0.421400 0.147200 -3.076464 0.202412 0.118220
15 -10.188800 0.000000 0.000000 0.066129 0.027850 0.980079
16 -3.984100 -1.091600 6.378000 2.934927 0.087610 0.090668
17 -8.776100 0.000000 0.000000 0.114986 0.030373 1.033229
18 -3.787000 0.101300 -5.082900 -2.810318 -0.024407 0.168726
19 -10.247905 -0.000000 -0.000000 -0.013920 -0.026312 1.112503
20 -0.943900 -2.280900 22.926111 -0.236860 0.111717 -2.514389
21 40.495598 -0.000000 -0.000000 -0.009009 -0.030059 1.491614
22 20.836302 -0.000000 0.000000 3.109567 0.063149 -1.828479
23 22.902403 -0.000000 -0.000000 -0.085879 -0.023701 -0.358309
24 3.787000 -0.101300 5.082900 -2.755140 0.036316 -0.060113
25 10.247902 -0.000000 -0.000000 -0.013920 -0.026312 1.112503
26 3.984004 1.091600 -6.378014 3.010346 0.066718 -0.148965
27 8.776100 0.000000 0.000000 0.114986 0.030373 1.033229
28 4.707004 0.421400 -0.147100 3.127126 0.222624 -0.307061
29 10.188800 0.000000 -0.000000 0.066129 0.027850 0.980079
30 15.965199 0.178700 5.285300 -1.705438 -1.126822 0.208685
31 1.448111 11.235701 0.000000 0.002684 0.029244 1.716670
32 12.035570 -0.398208 -0.162861 0.047091 -0.014889 0.051680
33 12.418348 -1.925200 -0.088677 0.020493 -0.010073 0.180991
34 28.184105 -0.941832 -0.025284 -0.034465 0.006752 0.485539
35 18.809500 -0.101699 -26.364403 -2.802443 0.037349 -1.140581
36 -48.046696 -0.000000 -0.000000 -0.049829 -0.010446 0.905205
37 -32.732498 0.000000 -0.000000 -0.180407 -0.009222 -0.707757
38 -5.577487 3.896500 -9.552600 -1.631494 -0.368079 -0.300516
39 -13.046900 0.000000 0.000000 0.021766 0.074791 0.184900
40 -4.538900 1.838200 1.085085 3.114985 -0.042830 -1.179217
41 -9.326100 0.000000 0.000000 0.006278 0.026797 1.151348
42 -2.654400 1.236000 -5.967800 -2.969668 -0.038372 -0.830949
43 -10.456595 -0.000000 0.000000 0.011292 0.025144 0.931863
44 -3.968400 2.196200 7.058900 2.972508 -0.019114 -1.494740
45 -8.804501 0.000000 0.000000 -0.015928 0.022687 0.881416
46 18.809500 -0.101800 26.364391 -2.902955 0.033065 1.830756
47 48.046700 0.000000 0.000000 -0.024752 0.007853 1.247144
48 32.732395 0.000000 -0.000000 -0.123346 -0.280694 -0.957644
49 13.046900 0.000000 0.000000 0.036850 0.179686 0.054736
50 4.529309 -1.758800 -0.050100 3.095467 -0.097448 -0.672358
51 9.326100 0.000000 0.000000 0.045916 0.032701 0.812069
52 4.229000 -2.047300 -5.390500 -3.085586 -0.041978 -0.973261
53 8.804501 0.000000 0.000000 0.064079 0.023042 0.828598
54 2.654400 -1.236000 5.967800 -2.969668 -0.038372 -0.830949
55 10.456600 0.000000 0.000000 0.056577 0.017271 0.976297
56 5.577507 -3.896500 9.552600 -1.631494 -0.368079 -0.300516
57 11.852409 -13.559050 23.805389 -2.946591 -0.707267 1.236003
58 37.458698 0.000001 0.000007 -0.143102 0.194041 1.030485
59 83.706482 -0.000000 0.000113 1.162415 0.013739 0.414757
60 -22.525200 -0.395100 18.987608 -2.864055 -0.881998 2.898781
61 67.425499 -0.000100 0.000001 -0.146960 -0.125526 0.266479
62 63.648598 -0.000101 -0.000000 -0.017078 -0.123497 0.174522
63 23.821501 -0.002296 -0.003400 0.000000 -0.000000 0.000000
64 9.637901 -0.153500 24.446106 -0.198400 -1.249124 0.404009
65 65.739990 -0.000000 0.000001 -0.231157 -0.257226 0.225119
66 55.101006 0.000000 -0.000000 -0.017843 -0.112102 0.157398
67 40.393002 -0.002400 -0.004600 0.000000 -0.000000 0.000000
68 -6.972589 -0.585700 25.377100 -2.648018 -1.264572 2.771519
69 64.545097 -0.000002 0.000002 -0.183914 -0.189293 0.266696
70 51.973598 -0.000000 -0.000000 -0.016928 -0.108111 0.154913
71 33.419098 -0.002001 -0.003599 0.000000 -0.000000 0.000000
72 -26.481201 -0.424299 7.812611 -3.033523 -0.511399 2.963601
73 64.186592 0.000000 0.000000 -0.078139 -0.082983 0.210301
74 55.590397 -0.000092 -0.000100 -0.003616 -0.026141 0.173613
75 25.390699 -0.002506 -0.002400 0.000000 -0.000000 0.000000
76 -2.687500 -4.313999 0.575607 0.520621 -0.082383 -2.378513
77 43.191101 -0.000004 0.000000 -0.035044 -0.157447 0.192464
78 46.987896 -0.001600 -0.000800 0.000000 -0.000000 0.000000
79 11.852404 -13.559060 -23.805376 -2.945698 -0.707222 -1.905656
80 -37.458698 -0.000000 -0.000000 -0.143570 0.194798 1.030420
81 -83.706505 -0.000000 -0.000010 1.162416 0.013744 0.414757
82 26.481199 0.424400 -7.812700 -3.033569 -0.511049 2.963649
83 -64.186691 0.000003 0.000005 -0.078138 -0.082983 0.210295
84 -55.590393 0.000093 0.000008 -0.003616 -0.026142 0.173615
85 -25.391003 0.002907 0.002800 0.000000 -0.000000 0.000000
86 6.972600 0.585700 -25.377193 -2.647906 -1.264647 2.771406
87 -64.544998 0.000002 0.000007 -0.183422 -0.189783 0.263932
88 -51.973701 -0.000011 0.000000 -0.016931 -0.108110 0.154964
89 -33.420601 0.002700 0.005200 0.000000 -0.000000 0.000000
90 -9.637899 0.153585 -24.446098 -0.198242 -1.249140 0.403893
91 -65.740005 0.000000 0.000000 -0.231167 -0.257219 0.225189
92 -55.100998 -0.000000 0.000000 -0.017934 -0.112092 0.157899
93 -40.394119 0.002807 0.005300 0.000000 -0.000000 0.000000
94 22.525200 0.395198 -18.987701 -2.864163 -0.881702 2.898892
95 -67.425400 0.000000 0.000007 -0.146589 -0.125977 0.263449
96 -63.648407 0.000000 -0.000001 -0.017252 -0.123479 0.176326
97 -23.822102 0.002800 0.004298 0.000000 -0.000000 0.000000
98 2.687500 4.314000 -0.575601 0.520523 -0.082757 -2.377856
99 -43.191101 0.000001 -0.000000 -0.035021 -0.159877 0.192512
100 -46.988194 0.002000 0.001000 0.000000 -0.000000 0.000000
101 34.278992 0.004349 -0.000000 -0.014588 0.035542 -0.360739
102 17.954834 -0.207349 0.566617 -0.235681 0.004390 0.031394
103 19.344648 0.061507 0.457972 -0.202952 -0.039050 -0.007882
104 25.195362 -0.556411 -0.000011 0.425528 -0.174354 0.379158
105 22.713198 -10.955200 -4.711800 -0.065497 -0.343133 0.980447
106 -5.667200 0.000000 0.000000 0.036125 -0.136201 -0.580368
107 -5.935400 -0.005197 0.000190 0.000000 -0.000000 0.000000
108 6.464000 -3.692600 0.000000 -1.570554 -0.000072 0.582861
109 19.717197 4.858918 7.932014 -2.037191 1.183303 -0.865244
110 -5.371100 0.000000 0.000000 -0.186114 -0.167466 -0.227910
111 -4.278900 0.000000 0.000000 0.009547 0.047203 -0.269372
112 2.284300 0.000000 0.000000 0.000000 -0.000000 0.000000
113 19.717199 -4.858900 7.932000 1.104403 -1.183303 -2.276350
114 5.371088 0.000000 0.000000 -0.186114 -0.167466 -0.227911
115 4.278900 0.000000 0.000000 0.009547 0.047203 -0.269372
116 2.284300 0.000000 0.000000 0.000000 -0.000000 0.000000
117 6.994099 0.000000 1.816300 -1.571108 -0.200777 0.000031
118 6.701500 0.000000 0.000000 0.000000 -0.000000 0.143668
119 4.978200 0.000000 0.000000 0.000000 -0.000000 0.180994
120 4.007800 0.000000 0.000000 0.000000 -0.000000 0.167997
121 22.713203 -10.955200 4.711812 -0.065497 -0.343133 -2.161146
122 5.667200 0.000000 0.000000 0.036125 -0.136201 -0.580368
123 5.935300 0.005307 -0.000100 0.000000 -0.000000 0.000000
124 23.936758 6.574221 -0.942605 -1.571388 -0.952005 -1.450244
125 23.901669 6.865341 1.354297 -1.571388 -0.952006 1.691349
126 0.0 0.0 0.0 0.0 0.0 0.0
127 0.0 0.0 0.0 0.0 0.0 0.0
128 0.0 0.0 0.0 0.0 0.0 0.0
129 0.0 0.0 0.0 0.0 0.0 0.0
130 0.0 0.0 0.0 0.0 0.0 0.0
time 7
0 0.000000 0.000000 0.000000 -0.000000 -0.000000 -0.000000
1 -1.815918 1.636606 205.540939 1.603778 -0.650298 1.534314
2 -6.922300 -22.143398 0.000000 -3.093547 -0.016499 -1.989810
3 26.628101 0.000000 0.000000 -0.024816 0.005518 -0.112719
4 26.630890 -0.000000 0.000000 -0.021706 -0.012256 -0.281078
5 26.630699 0.000000 0.000000 -0.018172 -0.027997 -0.314578
6 26.628801 0.000000 0.000000 -0.011422 -0.036834 -0.369145
7 26.628899 0.000000 -0.000000 -0.010721 -0.028338 -0.283991
8 26.629194 -0.000100 0.000000 0.000000 -0.000000 0.000000
9 -0.943900 -2.280900 -22.926044 -0.221381 0.224884 0.039342
10 -40.495602 0.000000 0.000000 -0.009507 -0.013057 1.517459
11 -20.836300 0.000000 0.000000 3.087490 0.049842 -1.607725
12 -15.965199 -0.178700 -5.285300 -1.705438 -1.126822 0.208685
13 -22.902399 0.000000 0.000000 -0.018992 -0.021943 -0.669632
14 -4.707000 -0.421400 0.147200 -3.076464 0.202412 0.118220
15 -10.188800 0.000000 0.000000 0.066129 0.027850 0.980079
16 -3.984100 -1.091600 6.378000 2.934927 0.087610 0.090668
17 -8.776100 0.000000 0.000000 0.114986 0.030373 1.033229
18 -3.787000 0.101300 -5.082900 -2.810318 -0.024407 0.168726
19 -10.247943 0.000000 -0.000000 -0.013920 -0.026312 1.112503
20 -0.943900 -2.280900 22.926113 -0.240191 0.116136 -2.695925
21 40.495556 -0.000000 -0.000000 -0.008013 -0.018073 1.460919
22 20.836306 -0.000000 0.000000 3.121963 0.060449 -1.847323
23 22.902401 -0.000000 -0.000000 -0.064455 -0.022875 -0.327774
24 3.787000 -0.101300 5.082900 -2.755140 0.036316 -0.060113
25 10.247894 -0.000000 -0.000000 -0.013920 -0.026312 1.112503
26 3.984031 1.091600 -6.378020 3.010345 0.066718 -0.148965
27 8.776100 0.000000 0.000000 0.114986 0.030373 1.033229
28 4.707000 0.421400 -0.147100 3.127126 0.222626 -0.307062
29 10.188800 0.000000 -0.000000 0.066129 0.027850 0.980079
30 15.965199 0.178700 5.285300 -1.705438 -1.126822 0.208685
31 1.448190 11.235700 0.000000 0.003770 0.029299 1.754123
32 13.255923 -0.211765 -0.165263 0.044780 -0.012915 0.007424
33 13.117747 -1.556670 -0.112120 0.018190 -0.012622 0.129290
34 30.095314 -0.782197 -0.056945 -0.029819 0.000992 0.389353
35 18.809496 -0.101688 -26.364408 -2.799987 0.036605 -1.128314
36 -48.046700 -0.000000 -0.000000 -0.032166 0.003856 1.058114
37 -32.732506 0.000000 -0.000000 -0.176314 -0.039714 -0.794411
38 -5.577440 3.896500 -9.552601 -1.631494 -0.368079 -0.300516
39 -13.046900 0.000000 0.000000 0.030398 0.133589 0.041485
40 -4.538900 1.838200 1.085009 3.114985 -0.042830 -1.179217
41 -9.326100 0.000000 0.000000 0.006278 0.026797 1.151348
42 -2.654400 1.236000 -5.967800 -2.969668 -0.038372 -0.830949
43 -10.456594 -0.000000 0.000000 0.011292 0.025144 0.931863
44 -3.968400 2.196200 7.058900 2.972507 -0.019114 -1.494740
45 -8.804501 0.000000 0.000000 -0.015928 0.022687 0.881416
46 18.809500 -0.101810 26.364344 -2.901017 0.033839 1.862283
47 48.046700 0.000000 0.000000 -0.015350 0.009097 1.342316
48 32.732399 0.000000 -0.000000 -0.136769 -0.288179 -0.886989
49 13.046900 0.000000 0.000000 0.014949 0.178386 -0.018792
50 4.529319 -1.758800 -0.050100 3.095467 -0.097448 -0.672358
51 9.326100 0.000000 0.000000 0.045916 0.032701 0.812069
52 4.229000 -2.047300 -5.390500 -3.085586 -0.041978 -0.973260
53 8.804501 0.000000 0.000000 0.064079 0.023042 0.828598
54 2.654400 -1.236000 5.967800 -2.969668 -0.038372 -0.830949
55 10.456600 0.000000 0.000000 0.056577 0.017271 0.976297
56 5.577507 -3.896500 9.552600 -1.631494 -0.368079 -0.300516
57 11.641850 -14.411242 23.577080 -2.576450 -0.898517 0.905124
58 37.458706 0.000001 0.000019 -0.462350 0.341029 0.636958
59 83.706413 0.000002 0.000119 1.475296 -0.142727 0.338539
60 -22.525200 -0.395100 18.987642 -2.855403 -0.913850 2.888426
61 67.425507 -0.000100 0.000001 -0.155102 -0.115305 0.334028
62 63.648605 -0.000060 -0.000001 -0.031442 -0.112459 0.291405
63 23.821501 -0.002248 -0.003400 0.000000 -0.000000 0.000000
64 9.637895 -0.153500 24.446115 -0.240186 -1.249437 0.447781
65 65.739914 -0.000000 0.000000 -0.261951 -0.225790 0.353507
66 55.101009 -0.000000 -0.000000 -0.031295 -0.109125 0.278931
67 40.393002 -0.002400 -0.004600 0.000000 -0.000000 0.000000
68 -6.972588 -0.585700 25.377100 -2.618970 -1.250224 2.741831
69 64.545052 -0.000001 -0.000000 -0.198068 -0.174406 0.344981
70 51.973598 -0.000000 -0.000000 -0.030240 -0.105164 0.279727
71 33.419098 -0.001961 -0.003594 0.000000 -0.000000 0.000000
72 -26.481203 -0.424294 7.812694 -3.034067 -0.556438 2.970867
73 64.186600 0.000000 -0.000000 -0.086188 -0.074603 0.312198
74 55.590389 -0.000007 -0.000100 -0.005859 -0.021404 0.285300
75 25.390699 -0.002502 -0.002400 0.000000 -0.000000 0.000000
76 -2.687500 -4.313995 0.575638 0.712002 0.105076 -2.288566
77 43.191101 -0.000007 0.000000 -0.037387 -0.134263 0.212123
78 46.987896 -0.001600 -0.000800 0.000000 -0.000000 0.000000
79 11.641851 -14.411203 -23.577059 -2.575861 -0.898491 -2.236500
80 -37.458706 -0.000000 -0.000000 -0.462811 0.341346 0.636808
81 -83.706512 -0.000000 -0.000058 1.475296 -0.142726 0.338539
82 26.481199 0.424400 -7.812700 -3.034087 -0.556351 2.970912
83 -64.186661 0.000001 0.000043 -0.086187 -0.074603 0.312198
84 -55.590347 0.000013 0.000044 -0.005859 -0.021404 0.285331
85 -25.391006 0.002902 0.002800 0.000000 -0.000000 0.000000
86 6.972600 0.585700 -25.377151 -2.618941 -1.250242 2.741802
87 -64.545036 0.000001 0.000044 -0.197984 -0.174538 0.344256
88 -51.973709 -0.000059 0.000000 -0.030240 -0.105164 0.279742
89 -33.420609 0.002700 0.005200 0.000000 -0.000000 0.000000
90 -9.637900 0.153515 -24.446098 -0.240146 -1.249442 0.447752
91 -65.740005 0.000000 -0.000000 -0.261957 -0.225783 0.353561
92 -55.100994 -0.000000 -0.000000 -0.031321 -0.109119 0.279123
93 -40.394199 0.002802 0.005300 0.000000 -0.000000 0.000000
94 22.525200 0.395165 -18.987700 -2.855443 -0.913744 2.888468
95 -67.425430 0.000000 0.000043 -0.154983 -0.115438 0.333165
96 -63.648411 0.000000 0.000005 -0.031468 -0.112543 0.291963
97 -23.822102 0.002800 0.004306 0.000000 -0.000000 0.000000
98 2.687500 4.314000 -0.575600 0.711973 0.104942 -2.288422
99 -43.191101 -0.000006 -0.000000 -0.037364 -0.143636 0.212331
100 -46.988163 0.002000 0.001000 0.000000 -0.000000 0.000000
101 34.419975 0.023017 -0.000000 -0.016542 0.034990 -0.269238
102 17.886696 -0.229763 0.560024 -0.233579 0.002075 0.092037
103 20.535679 0.048804 0.441619 -0.195822 -0.048217 0.021426
104 24.180777 -0.438830 -0.000059 0.432135 -0.122318 0.279185
105 22.713200 -10.955200 -4.711800 -0.065497 -0.343133 0.980447
106 -5.667200 0.000000 0.000000 0.036125 -0.136201 -0.580368
107 -5.935400 -0.005189 0.000146 0.000000 -0.000000 0.000000
108 6.464000 -3.692600 0.000000 -1.570755 -0.000010 0.475850
109 19.717199 4.859003 7.932095 -2.037191 1.183303 -0.865245
110 -5.371100 0.000000 0.000000 -0.186114 -0.167466 -0.227910
111 -4.278900 0.000000 0.000000 0.009547 0.047203 -0.269372
112 2.284300 0.000000 0.000000 0.000000 -0.000000 0.000000
113 19.717199 -4.858900 7.932000 1.104403 -1.183303 -2.276350
114 5.371046 0.000000 0.000000 -0.186114 -0.167466 -0.227910
115 4.278900 0.000000 0.000000 0.009547 0.047203 -0.269372
116 2.284300 0.000000 0.000000 0.000000 -0.000000 0.000000
117 6.994124 0.000000 1.816300 -1.571108 -0.200777 0.000031
118 6.701500 0.000000 0.000000 0.000000 -0.000000 0.143668
119 4.978200 0.000000 0.000000 0.000000 -0.000000 0.180994
120 4.007800 0.000000 0.000000 0.000000 -0.000000 0.167997
121 22.713205 -10.955201 4.711854 -0.065497 -0.343133 -2.161146
122 5.667200 0.000000 0.000000 0.036125 -0.136201 -0.580368
123 5.935300 0.005308 -0.000100 0.000000 -0.000000 0.000000
124 24.059391 5.557000 0.495740 -1.571387 -0.952006 -1.450244
125 24.040787 5.711123 -0.277724 -1.571388 -0.952006 1.691349
126 0.0 0.0 0.0 0.0 0.0 0.0
127 0.0 0.0 0.0 0.0 0.0 0.0
128 0.0 0.0 0.0 0.0 0.0 0.0
129 0.0 0.0 0.0 0.0 0.0 0.0
130 0.0 0.0 0.0 0.0 0.0 0.0
time 8
0 0.000000 0.000000 0.000000 -0.000000 -0.000000 -0.000000
1 -0.997746 1.674263 214.129364 1.614974 -0.805902 1.519888
2 -6.922300 -22.143398 0.000000 -3.093250 -0.017341 -2.004524
3 26.628101 0.000000 0.000000 -0.024909 0.008495 -0.083122
4 26.630915 -0.000000 -0.000000 -0.023109 -0.008686 -0.226570
5 26.630699 0.000000 0.000000 -0.020132 -0.025638 -0.243002
6 26.628801 0.000000 0.000000 -0.012697 -0.036600 -0.291655
7 26.628883 0.000000 0.000000 -0.009636 -0.028848 -0.225534
8 26.629198 -0.000100 0.000000 0.000000 -0.000000 0.000000
9 -0.943900 -2.280900 -22.926037 -0.225964 0.226652 -0.089209
10 -40.495602 0.000000 0.000000 -0.006944 -0.011256 1.485913
11 -20.836300 0.000000 0.000000 3.084354 0.052922 -1.663533
12 -15.965199 -0.178700 -5.285300 -1.705438 -1.126822 0.208685
13 -22.902399 0.000000 0.000000 -0.002584 -0.021549 -0.598217
14 -4.707000 -0.421400 0.147200 -3.076464 0.202412 0.118220
15 -10.188800 0.000000 0.000000 0.066129 0.027850 0.980079
16 -3.984100 -1.091600 6.378000 2.934927 0.087610 0.090668
17 -8.776100 0.000000 0.000000 0.114986 0.030373 1.033229
18 -3.787000 0.101300 -5.082900 -2.810318 -0.024407 0.168726
19 -10.247935 0.000000 -0.000000 -0.013920 -0.026312 1.112503
20 -0.943900 -2.280900 22.926071 -0.235008 0.113670 -2.835968
21 40.495564 0.000000 -0.000000 -0.003890 -0.016653 1.429947
22 20.836304 -0.000000 0.000000 3.116391 0.063807 -1.904608
23 22.902401 -0.000000 -0.000000 -0.044231 -0.026536 -0.247558
24 3.787000 -0.101300 5.082900 -2.755140 0.036316 -0.060113
25 10.247896 -0.000000 -0.000000 -0.013920 -0.026312 1.112503
26 3.984026 1.091600 -6.377977 3.010345 0.066718 -0.148965
27 8.776100 0.000000 0.000000 0.114986 0.030373 1.033229
28 4.706999 0.421400 -0.147100 3.127126 0.222627 -0.307062
29 10.188800 0.000000 0.000000 0.066129 0.027850 0.980079
30 15.965199 0.178700 5.285300 -1.705438 -1.126822 0.208685
31 1.448211 11.235700 0.000000 0.003854 0.029059 1.758399
32 13.678556 -0.201645 -0.164413 0.043978 -0.012126 -0.006231
33 13.346814 -1.465002 -0.117775 0.017122 -0.013355 0.112898
34 30.759459 -0.787583 -0.064839 -0.027463 -0.001075 0.349742
35 18.809498 -0.101727 -26.364370 -2.797808 0.036020 -1.187200
36 -48.046700 0.000000 0.000000 -0.004576 0.005346 1.207502
37 -32.732468 -0.000000 0.000000 -0.178755 -0.026365 -0.758428
38 -5.577452 3.896500 -9.552601 -1.631494 -0.368079 -0.300516
39 -13.046900 0.000000 0.000000 0.025358 0.149723 -0.021427
40 -4.538900 1.838200 1.084989 3.114985 -0.042830 -1.179217
41 -9.326100 0.000000 0.000000 0.006278 0.026797 1.151348
42 -2.654400 1.236000 -5.967800 -2.969668 -0.038372 -0.830949
43 -10.456633 0.000000 -0.000000 0.011292 0.025144 0.931863
44 -3.968400 2.196200 7.058900 2.972507 -0.019114 -1.494740
45 -8.804501 0.000000 0.000000 -0.015928 0.022687 0.881416
46 18.809500 -0.101809 26.364355 -2.899394 0.034293 1.810746
47 48.046700 -0.000000 -0.000000 -0.004518 -0.000188 1.435660
48 32.732399 0.000000 -0.000000 -0.141434 -0.299463 -0.837566
49 13.046900 0.000000 0.000000 0.016213 0.169426 0.010273
50 4.529277 -1.758800 -0.050100 3.095467 -0.097448 -0.672358
51 9.326100 0.000000 0.000000 0.045916 0.032701 0.812069
52 4.229000 -2.047300 -5.390500 -3.085586 -0.041978 -0.973260
53 8.804501 0.000000 0.000000 0.064079 0.023042 0.828598
54 2.654400 -1.236000 5.967800 -2.969668 -0.038372 -0.830949
55 10.456600 0.000000 0.000000 0.056577 0.017271 0.976297
56 5.577466 -3.896500 9.552600 -1.631494 -0.368079 -0.300516
57 11.453472 -15.386438 23.310757 -2.015521 -1.316890 0.260748
58 37.458664 0.000002 -0.000023 -0.348239 0.227865 0.550070
59 83.706390 0.000001 0.000073 1.344251 -0.148155 0.475146
60 -22.525200 -0.395100 18.987635 -2.816709 -0.910655 2.829334
61 67.425468 -0.000100 0.000003 -0.153179 -0.117875 0.317344
62 63.648567 -0.000026 0.000002 -0.033592 -0.104750 0.298446
63 23.821501 -0.002256 -0.003398 0.000000 -0.000000 0.000000
64 9.637931 -0.153500 24.446072 -0.361947 -1.241399 0.575506
65 65.739891 0.000000 -0.000000 -0.263077 -0.224477 0.358521
66 55.100967 0.000000 0.000000 -0.032297 -0.108844 0.288127
67 40.393002 -0.002400 -0.004598 0.000000 -0.000000 0.000000
68 -6.972594 -0.585700 25.377100 -2.517899 -1.225833 2.637358
69 64.545021 -0.000000 0.000001 -0.195782 -0.176963 0.331881
70 51.973598 0.000000 0.000002 -0.031266 -0.104873 0.289462
71 33.419098 -0.001927 -0.003595 0.000000 -0.000000 0.000000
72 -26.481203 -0.424294 7.812717 -3.023762 -0.563549 2.932996
73 64.186600 0.000000 0.000002 -0.085868 -0.074963 0.307703
74 55.590393 -0.000022 -0.000100 -0.005763 -0.016253 0.290957
75 25.390699 -0.002500 -0.002400 0.000000 -0.000000 0.000000
76 -2.687500 -4.313996 0.575670 1.199190 -0.041504 -2.078128
77 43.191101 -0.000005 0.000000 -0.037130 -0.095098 0.212125
78 46.987900 -0.001599 -0.000800 0.000000 -0.000000 0.000000
79 11.453440 -15.386024 -23.310860 -2.015022 -1.316816 -2.881307
80 -37.458664 0.000000 0.000002 -0.348253 0.227859 0.550073
81 -83.706474 0.000000 -0.000046 1.344252 -0.148155 0.475145
82 26.481199 0.424400 -7.812700 -3.023786 -0.563553 2.933090
83 -64.186630 -0.000000 0.000036 -0.085869 -0.074961 0.307747
84 -55.590321 -0.000012 0.000036 -0.005847 -0.019884 0.291024
85 -25.390968 0.002900 0.002800 0.000000 -0.000000 0.000000
86 6.972600 0.585700 -25.377123 -2.517924 -1.225848 2.637384
87 -64.545029 -0.000000 0.000036 -0.195804 -0.176963 0.331874
88 -51.973667 -0.000048 -0.000002 -0.031266 -0.104873 0.289463
89 -33.420567 0.002700 0.005200 0.000000 -0.000000 0.000000
90 -9.637900 0.153492 -24.446098 -0.361922 -1.241402 0.575481
91 -65.739967 -0.000000 0.000000 -0.263093 -0.224453 0.358591
92 -55.100998 -0.000000 -0.000000 -0.032322 -0.108842 0.288175
93 -40.394184 0.002798 0.005300 0.000000 -0.000000 0.000000
94 22.525200 0.395133 -18.987700 -2.816728 -0.910646 2.829365
95 -67.425430 -0.000000 0.000034 -0.153152 -0.117884 0.317282
96 -63.648411 0.000000 0.000004 -0.032417 -0.106598 0.298611
97 -23.822102 0.002800 0.004305 0.000000 -0.000000 0.000000
98 2.687500 4.314000 -0.575600 1.199203 -0.041540 -2.078136
99 -43.191101 0.000032 -0.000000 -0.036252 -0.115094 0.205657
100 -46.988132 0.001999 0.001000 0.000000 -0.000000 0.000000
101 34.416092 0.022419 -0.000000 -0.017006 0.034976 -0.303109
102 17.908819 -0.227743 0.563677 -0.235228 0.002083 0.094670
103 21.040514 0.040001 0.424646 -0.189189 -0.058639 0.049162
104 23.686445 -0.381559 -0.000048 0.432549 -0.097117 0.234617
105 22.713200 -10.955200 -4.711800 -0.065497 -0.343133 0.980447
106 -5.667200 0.000000 0.000000 0.036125 -0.136201 -0.580368
107 -5.935400 -0.005229 0.000157 0.000000 -0.000000 0.000000
108 6.464000 -3.692600 0.000000 -1.570720 -0.000016 0.399207
109 19.717199 4.858985 7.932078 -2.037191 1.183303 -0.865245
110 -5.371100 0.000000 0.000000 -0.186114 -0.167466 -0.227910
111 -4.278900 0.000000 0.000000 0.009547 0.047203 -0.269372
112 2.284300 0.000000 0.000000 0.000000 -0.000000 0.000000
113 19.717199 -4.858900 7.932000 1.104403 -1.183303 -2.276350
114 5.371056 -0.000000 0.000000 -0.186114 -0.167466 -0.227910
115 4.278900 0.000000 0.000000 0.009547 0.047203 -0.269372
116 2.284300 0.000000 0.000000 0.000000 -0.000000 0.000000
117 6.994159 0.000000 1.816300 -1.571108 -0.200777 0.000031
118 6.701500 0.000000 0.000000 0.000000 -0.000000 0.143668
119 4.978200 0.000000 0.000000 0.000000 -0.000000 0.180994
120 4.007800 0.000000 0.000000 0.000000 -0.000000 0.167997
121 22.713205 -10.955201 4.711880 -0.065497 -0.343133 -2.161146
122 5.667200 0.000000 0.000000 0.036125 -0.136201 -0.580368
123 5.935300 0.005266 -0.000100 0.000000 -0.000000 0.000000
124 24.193420 4.445322 2.067627 -1.571387 -0.952006 -1.450244
125 24.180851 4.549454 -1.920340 -1.571388 -0.952006 1.691349
126 0.0 0.0 0.0 0.0 0.0 0.0
127 0.0 0.0 0.0 0.0 0.0 0.0
128 0.0 0.0 0.0 0.0 0.0 0.0
129 0.0 0.0 0.0 0.0 0.0 0.0
130 0.0 0.0 0.0 0.0 0.0 0.0
time 9
0 0.000000 0.000000 0.000000 -0.000000 -0.000000 -0.000000
1 0.938519 1.612802 223.255951 1.636064 -0.985679 1.492908
2 -6.922300 -22.143398 0.000000 -3.093238 -0.017447 -2.005226
3 26.628101 0.000000 0.000000 -0.024996 0.011433 -0.052352
4 26.630903 -0.000000 -0.000000 -0.024595 -0.004403 -0.159962
5 26.630699 0.000000 0.000000 -0.022350 -0.022583 -0.159661
6 26.628801 0.000000 0.000000 -0.014429 -0.035953 -0.225861
7 26.628805 -0.000000 0.000000 -0.009840 -0.029090 -0.199156
8 26.629206 -0.000100 0.000000 0.000000 -0.000000 0.000000
9 -0.943900 -2.280900 -22.926001 -0.227334 0.227532 -0.202029
10 -40.495602 0.000000 0.000000 -0.003802 -0.012033 1.456826
11 -20.836300 0.000000 0.000000 3.078545 0.057640 -1.733555
12 -15.965199 -0.178700 -5.285300 -1.705438 -1.126822 0.208685
13 -22.902399 0.000000 0.000000 0.016580 -0.024176 -0.503910
14 -4.707000 -0.421400 0.147200 -3.076464 0.202412 0.118220
15 -10.188800 0.000000 0.000000 0.066129 0.027850 0.980079
16 -3.984100 -1.091600 6.378000 2.934927 0.087610 0.090668
17 -8.776100 0.000000 0.000000 0.114986 0.030373 1.033229
18 -3.787000 0.101300 -5.082900 -2.810318 -0.024407 0.168726
19 -10.247900 0.000000 0.000000 -0.013920 -0.026312 1.112503
20 -0.943900 -2.280900 22.926001 -0.224797 0.108959 -2.955214
21 40.495602 0.000000 0.000000 0.002019 -0.020372 1.398808
22 20.836300 0.000000 0.000000 3.101443 0.069176 -1.981199
23 22.902399 0.000000 0.000000 -0.025189 -0.033912 -0.142596
24 3.787000 -0.101300 5.082900 -2.755140 0.036316 -0.060113
25 10.247905 -0.000000 -0.000000 -0.013920 -0.026312 1.112503
26 3.984001 1.091600 -6.377903 3.010345 0.066718 -0.148965
27 8.776100 0.000000 0.000000 0.114986 0.030373 1.033229
28 4.707000 0.421400 -0.147100 3.127126 0.222627 -0.307062
29 10.188800 0.000000 0.000000 0.066129 0.027850 0.980079
30 15.965199 0.178700 5.285300 -1.705438 -1.126822 0.208685
31 1.448195 11.235700 -0.000000 0.003439 0.028679 1.746086
32 13.611892 -0.303455 -0.161599 0.043961 -0.011894 -0.004585
33 13.288553 -1.547499 -0.112242 0.016627 -0.013140 0.114158
34 30.640577 -0.896903 -0.057808 -0.026429 -0.001439 0.338428
35 18.809500 -0.101798 -26.364304 -2.795733 0.035687 -1.281661
36 -48.046700 0.000000 0.000000 0.026541 -0.002511 1.354884
37 -32.732403 -0.000000 0.000000 -0.182471 0.009175 -0.661262
38 -5.577500 3.896500 -9.552600 -1.631494 -0.368079 -0.300516
39 -13.046900 0.000000 0.000000 0.016430 0.144060 -0.043811
40 -4.538900 1.838200 1.085005 3.114985 -0.042830 -1.179217
41 -9.326100 0.000000 0.000000 0.006278 0.026797 1.151348
42 -2.654400 1.236000 -5.967800 -2.969668 -0.038372 -0.830949
43 -10.456698 0.000000 -0.000000 0.011292 0.025144 0.931863
44 -3.968400 2.196200 7.058900 2.972507 -0.019114 -1.494740
45 -8.804501 0.000000 0.000000 -0.015928 0.022687 0.881416
46 18.809500 -0.101800 26.364403 -2.897964 0.034718 1.717674
47 48.046703 -0.000000 -0.000000 0.005865 -0.015277 1.527955
48 32.732399 0.000000 -0.000000 -0.141990 -0.312944 -0.798703
49 13.046900 0.000000 0.000000 0.028130 0.156351 0.090338
50 4.529204 -1.758800 -0.050100 3.095466 -0.097448 -0.672358
51 9.326100 0.000000 0.000000 0.045916 0.032701 0.812069
52 4.229000 -2.047300 -5.390500 -3.085586 -0.041978 -0.973261
53 8.804501 0.000000 0.000000 0.064079 0.023042 0.828598
54 2.654400 -1.236000 5.967800 -2.969668 -0.038372 -0.830949
55 10.456600 0.000000 0.000000 0.056577 0.017271 0.976297
56 5.577399 -3.896500 9.552600 -1.631494 -0.368079 -0.300516
57 11.278553 -16.442987 23.019400 -0.002924 -1.109167 -1.891181
58 37.458599 0.000003 -0.000100 -0.018793 0.014587 0.572207
59 83.706406 -0.000001 -0.000004 1.008647 -0.017380 0.703352
60 -22.525202 -0.395099 18.987600 -2.766903 -0.887807 2.749590
61 67.425407 -0.000100 0.000005 -0.146013 -0.126680 0.258495
62 63.648502 0.000003 0.000006 -0.030315 -0.099113 0.250710
63 23.821501 -0.002300 -0.003395 0.000000 -0.000000 0.000000
64 9.637996 -0.153500 24.445997 -0.511256 -1.222487 0.732787
65 65.739899 0.000000 0.000000 -0.250126 -0.238876 0.302190
66 55.100899 0.000000 0.000000 -0.027155 -0.110250 0.241174
67 40.393005 -0.002400 -0.004595 0.000000 -0.000000 0.000000
68 -6.972607 -0.585700 25.377100 -2.399537 -1.191713 2.514191
69 64.544998 -0.000000 0.000005 -0.185109 -0.188095 0.273030
70 51.973598 0.000000 0.000005 -0.026233 -0.106258 0.241675
71 33.419102 -0.001897 -0.003600 0.000000 -0.000000 0.000000
72 -26.481201 -0.424299 7.812703 -3.008721 -0.551043 2.873050
73 64.186607 0.000000 0.000005 -0.081420 -0.079748 0.250022
74 55.590405 -0.000102 -0.000100 -0.004886 -0.010934 0.243613
75 25.390699 -0.002500 -0.002400 0.000000 -0.000000 0.000000
76 -2.687500 -4.314000 0.575703 1.797667 -0.431529 -2.000719
77 43.191101 0.000000 0.000000 -0.036118 -0.047948 0.202419
78 46.987904 -0.001597 -0.000800 0.000000 -0.000000 0.000000
79 11.278463 -16.441982 -23.019711 -0.003452 -1.109125 1.250343
80 -37.458595 0.000000 0.000005 -0.018278 0.014256 0.572225
81 -83.706406 0.000001 0.000004 1.008647 -0.017380 0.703351
82 26.481199 0.424400 -7.812700 -3.008762 -0.551055 2.873217
83 -64.186600 0.000000 0.000000 -0.081424 -0.079743 0.250130
84 -55.590302 -0.000003 -0.000000 -0.004880 -0.020013 0.243713
85 -25.390903 0.002900 0.002800 0.000000 -0.000000 0.000000
86 6.972600 0.585700 -25.377100 -2.399582 -1.191752 2.514239
87 -64.544991 -0.000001 -0.000000 -0.185104 -0.188096 0.273089
88 -51.973602 0.000001 -0.000005 -0.026233 -0.106258 0.241675
89 -33.420502 0.002700 0.005200 0.000000 -0.000000 0.000000
90 -9.637899 0.153497 -24.446098 -0.511205 -1.222499 0.732731
91 -65.739899 -0.000000 0.000001 -0.250160 -0.238828 0.302291
92 -55.101002 0.000000 0.000000 -0.027211 -0.110250 0.241158
93 -40.394100 0.002795 0.005300 0.000000 -0.000000 0.000000
94 22.525200 0.395101 -18.987700 -2.766919 -0.887852 2.749633
95 -67.425407 -0.000000 -0.000002 -0.146016 -0.126676 0.258552
96 -63.648411 0.000000 -0.000002 -0.027304 -0.103474 0.250895
97 -23.822102 0.002800 0.004298 0.000000 -0.000000 0.000000
98 2.687500 4.314000 -0.575600 1.797738 -0.431576 -2.000735
99 -43.191101 0.000099 -0.000000 -0.034109 -0.080377 0.185899
100 -46.988102 0.001997 0.001000 0.000000 -0.000000 0.000000
101 34.320862 0.009671 -0.000000 -0.016727 0.035195 -0.399665
102 17.995090 -0.209266 0.573828 -0.238731 0.003218 0.068296
103 21.113337 0.033866 0.407490 -0.182960 -0.069761 0.076086
104 23.513851 -0.361585 0.000001 0.431464 -0.085516 0.217433
105 22.713200 -10.955200 -4.711800 -0.065497 -0.343133 0.980447
106 -5.667200 0.000000 0.000000 0.036125 -0.136201 -0.580368
107 -5.935400 -0.005299 0.000203 0.000000 -0.000000 0.000000
108 6.464000 -3.692600 0.000000 -1.570562 -0.000040 0.337749
109 19.717199 4.858902 7.931999 -2.037191 1.183303 -0.865244
110 -5.371100 0.000000 0.000000 -0.186114 -0.167466 -0.227910
111 -4.278900 0.000000 0.000000 0.009547 0.047203 -0.269372
112 2.284300 0.000000 0.000000 0.000000 -0.000000 0.000000
113 19.717199 -4.858900 7.932000 1.104403 -1.183303 -2.276350
114 5.371100 0.000000 0.000000 -0.186114 -0.167466 -0.227911
115 4.278900 0.000000 0.000000 0.009547 0.047203 -0.269372
116 2.284300 0.000000 0.000000 0.000000 -0.000000 0.000000
117 6.994200 0.000000 1.816300 -1.571108 -0.200777 0.000031
118 6.701500 0.000000 0.000000 0.000000 -0.000000 0.143668
119 4.978200 0.000000 0.000000 0.000000 -0.000000 0.180994
120 4.007800 0.000000 0.000000 0.000000 -0.000000 0.167997
121 22.713200 -10.955200 4.711897 -0.065497 -0.343133 -2.161146
122 5.667200 0.000000 0.000000 0.036125 -0.136201 -0.580368
123 5.935300 0.005197 -0.000100 0.000000 -0.000000 0.000000
124 24.335138 3.269928 3.729595 -1.571388 -0.952005 -1.450244
125 24.321758 3.381047 -3.572520 -1.571388 -0.952005 1.691349
126 0.0 0.0 0.0 0.0 0.0 0.0
127 0.0 0.0 0.0 0.0 0.0 0.0
128 0.0 0.0 0.0 0.0 0.0 0.0
129 0.0 0.0 0.0 0.0 0.0 0.0
130 0.0 0.0 0.0 0.0 0.0 0.0
end
