version 1
nodes
0 "models/heroes/dragon_knight_per" -1
1 "pelvis" 0
2 "Tail_0" 1
3 "Tail_1" 2
4 "Tail_2" 3
5 "Tail_3" 4
6 "Tail_4" 5
7 "Tail_5" 6
8 "Tail_end" 7
9 "Hind_leg_upper_R" 1
10 "Hind_leg_lower_R" 9
11 "Hind_ankle_R" 10
12 "Hind_Toe_D_0_R" 11
13 "Hind_ball_R" 11
14 "Hind_Toe_B_0_R" 13
15 "Hind_Toe_B_1_R" 14
16 "Hind_Toe_C_0_R" 13
17 "Hind_Toe_C_1_R" 16
18 "Hind_Toe_A_0_R" 13
19 "Hind_Toe_A_1_R" 18
20 "Hind_leg_upper_L" 1
21 "Hind_leg_lower_L" 20
22 "Hind_ankle_L" 21
23 "Hind_ball_L" 22
24 "Hind_Toe_A_0_L" 23
25 "Hind_Toe_A_1_L" 24
26 "Hind_Toe_C_0_L" 23
27 "Hind_Toe_C_1_L" 26
28 "Hind_Toe_B_0_L" 23
29 "Hind_Toe_B_1_L" 28
30 "Hind_Toe_D_0_L" 22
31 "spine_0" 1
32 "spine_1" 31
33 "spine_2" 32
34 "spine_3" 33
35 "Front_leg_upper_R" 34
36 "Front_leg_lower_R" 35
37 "Front_ankle_R" 36
38 "Front_toe_D_0_R" 37
39 "Front_ball_R" 37
40 "Front_toe_B_0_R" 39
41 "Front_toe_B_1_R" 40
42 "Front_toe_A_0_R" 39
43 "Front_toe_A_1_R" 42
44 "Front_toe_C_0_R" 39
45 "Front_toe_C_1_R" 44
46 "Front_leg_upper_L" 34
47 "Front_leg_lower_L" 46
48 "Front_ankle_L" 47
49 "Front_ball_L" 48
50 "Front_toe_B_0_L" 49
51 "Front_toe_B_1_L" 50
52 "Front_toe_C_0_L" 49
53 "Front_toe_C_1_L" 52
54 "Front_toe_A_0_L" 49
55 "Front_toe_A_1_L" 54
56 "Front_toe_D_0_L" 48
57 "Wing_arm_upper_L" 34
58 "Wing_arm_lower_L" 57
59 "Wing_hand_L" 58
60 "finger_ring_0_L" 59
61 "finger_ring_1_L" 60
62 "finger_ring_2_L" 61
63 "finger_ring_end_L" 62
64 "finger_index_0_L" 59
65 "finger_index_1_L" 64
66 "finger_index_2_L" 65
67 "finger_index_end_L" 66
68 "finger_middle_0_L" 59
69 "finger_middle_1_L" 68
70 "finger_middle_2_L" 69
71 "finger_middle_end_L" 70
72 "finger_pinky_0_L" 59
73 "finger_pinky_1_L" 72
74 "finger_pinky_2_L" 73
75 "finger_pinky_end_L" 74
76 "ElbowSpike_0_L" 58
77 "ElbowSpike_1_L" 76
78 "ElbowSpike_end_L" 77
79 "Wing_arm_upper_R" 34
80 "Wing_arm_lower_R" 79
81 "Wing_hand_R" 80
82 "finger_pinky_0_R" 81
83 "finger_pinky_1_R" 82
84 "finger_pinky_2_R" 83
85 "finger_pinky_end_R" 84
86 "finger_middle_0_R" 81
87 "finger_middle_1_R" 86
88 "finger_middle_2_R" 87
89 "finger_middle_end_R" 88
90 "finger_index_0_R" 81
91 "finger_index_1_R" 90
92 "finger_index_2_R" 91
93 "finger_index_end_R" 92
94 "finger_ring_0_R" 81
95 "finger_ring_1_R" 94
96 "finger_ring_2_R" 95
97 "finger_ring_end_R" 96
98 "ElbowSpike_0_R" 80
99 "ElbowSpike_1_R" 98
100 "ElbowSpike_end_R" 99
101 "neck_0" 34
102 "neck_1" 101
103 "neck_2" 102
104 "head" 103
105 "Eyebrow_0_R" 104
106 "Eyebrow_1_R" 105
107 "Eyebrow_end_R" 106
108 "jaw" 104
109 "Whisker_0_R" 108
110 "Whisker_1_R" 109
111 "Whisker_2_R" 110
112 "Whisker_end_R" 111
113 "Whisker_0_L" 108
114 "Whisker_1_L" 113
115 "Whisker_2_L" 114
116 "Whisker_end_L" 115
117 "Tongue_0" 108
118 "Tongue_1" 117
119 "Tongue_2" 118
120 "Tongue_3" 119
121 "Eyebrow_0_L" 104
122 "Eyebrow_1_L" 121
123 "Eyebrow_end_L" 122
124 "upper_back_helper_L" 33
125 "upper_back_helper_R" 33
126 "Null 126" -1
127 "Null 127" -1
128 "Null 128" -1
129 "Null 129" -1
130 "Null 130" -1
end
skeleton
time 0
0 0.000000 0.000000 0.000000 -0.000000 -0.000000 -0.000000
1 -0.520279 -7.579682 201.728348 1.599410 -0.720420 1.556405
2 -6.922300 -22.143494 -0.000000 -3.093293 -0.024154 -1.472668
3 26.628101 0.000000 0.000000 -0.015630 0.016040 -0.282574
4 26.630800 0.000001 0.000000 -0.003744 0.002676 -0.469013
5 26.630699 0.000001 -0.000000 -0.000797 -0.007652 -0.623646
6 26.628901 -0.000000 0.000000 0.003321 -0.032391 -0.277068
7 26.628902 -0.000000 -0.000000 0.004821 -0.024501 -0.128767
8 26.629213 -0.000100 0.000000 0.000000 -0.000000 0.000000
9 -0.943900 -2.280900 -22.926012 -0.222939 0.189623 0.200466
10 -40.495602 0.000000 0.000000 0.001969 -0.013026 1.579298
11 -20.836300 0.000000 0.000000 3.042292 0.088000 -1.858673
12 -15.965199 -0.178700 -5.285300 -1.705438 -1.126822 0.208685
13 -22.902399 0.000000 0.000000 -0.013192 -0.051526 -0.415881
14 -4.707000 -0.421400 0.147200 -3.076464 0.202412 0.118220
15 -10.188794 0.000000 -0.000000 0.066129 0.027850 0.980078
16 -3.984100 -1.091600 6.378000 2.934927 0.087610 0.090668
17 -8.776100 0.000000 0.000000 0.114986 0.030374 1.033229
18 -3.787000 0.101300 -5.082900 -2.810318 -0.024407 0.168726
19 -10.247900 0.000000 0.000000 -0.013920 -0.026312 1.112503
20 -0.943900 -2.280900 22.926012 -0.209585 0.120467 -2.659642
21 40.495514 -0.000000 -0.000000 -0.017495 -0.026446 1.644467
22 20.836300 0.000000 0.000000 3.070473 0.039514 -2.043303
23 22.902399 0.000000 0.000000 -0.041230 0.022395 -0.151821
24 3.787000 -0.101300 5.082900 -2.755140 0.036316 -0.060113
25 10.247900 0.000000 0.000000 -0.013920 -0.026312 1.112503
26 3.984093 1.091600 -6.377900 3.010345 0.066718 -0.148965
27 8.776100 0.000000 0.000000 0.114986 0.030373 1.033229
28 4.707000 0.421400 -0.147100 3.127126 0.222627 -0.307062
29 10.188800 0.000000 0.000000 0.066129 0.027850 0.980079
30 15.965199 0.178700 5.285300 -1.705438 -1.126822 0.208685
31 1.448112 11.235700 0.000000 0.001528 0.030858 1.676831
32 13.311315 -0.672477 -0.172753 0.042862 -0.016704 0.137405
33 12.900349 -2.806785 -0.083430 0.024179 -0.009833 0.279601
34 27.774557 -2.255187 0.024903 -0.038349 0.008176 0.497600
35 20.858051 -0.426224 -26.406811 -2.889647 0.082710 -2.199526
36 -48.046700 0.000000 0.000000 0.000000 -0.000000 0.745686
37 -32.732498 0.000000 0.000000 -0.104249 -0.085452 0.086821
38 -5.577500 3.896500 -9.552599 -1.589092 -0.500772 -0.291334
39 -13.046900 0.000000 0.000000 0.113390 0.034591 0.921440
40 -4.538900 1.838200 1.085100 -3.131624 -0.039483 -1.046235
41 -9.326100 0.000000 0.000000 0.053770 0.025089 1.218007
42 -2.654413 1.236000 -5.967800 -2.948918 -0.046190 -0.699512
43 -10.456600 0.000000 0.000000 0.058185 0.024419 0.962515
44 -3.968400 2.196200 7.058900 3.010059 0.002727 -1.363778
45 -8.804501 0.000000 0.000000 0.031633 0.021028 0.944663
46 18.809500 -0.101700 26.364401 -2.960847 0.012510 0.867477
47 48.046700 0.000000 0.000000 0.000000 -0.000000 0.459275
48 32.732399 0.000000 -0.000000 -0.118563 -0.336746 -0.289261
49 13.046900 0.000000 0.000000 0.074152 0.071902 0.822606
50 4.529300 -1.758800 -0.050100 3.095467 -0.097448 -0.672358
51 9.326100 0.000000 0.000000 0.045916 0.032701 0.812069
52 4.229000 -2.047300 -5.390500 -3.085586 -0.041978 -0.973260
53 8.804501 0.000000 0.000000 0.064079 0.023042 0.828598
54 2.654400 -1.236000 5.967800 -2.969667 -0.038372 -0.830949
55 10.456600 0.000000 0.000000 0.056577 0.017271 0.976297
56 5.577400 -3.896500 9.552600 -1.631493 -0.368079 -0.300516
57 11.762716 -13.871082 23.723961 1.992429 -1.002837 1.996534
58 37.458698 -0.000000 -0.000012 -0.018323 -0.299710 1.515360
59 83.706398 0.000001 -0.000001 1.316176 -0.175006 0.108716
60 -22.525200 -0.395101 18.987700 -2.807696 -0.879506 2.811873
61 67.425507 0.000000 0.000106 -0.137562 -0.135758 0.194192
62 63.648598 -0.000000 0.000012 -0.008786 -0.129624 0.100096
63 23.821501 -0.002287 -0.003400 0.000000 -0.000000 0.000000
64 9.637900 -0.153494 24.446110 -0.376395 -1.233334 0.590518
65 65.739899 0.000013 -0.000000 -0.207530 -0.276489 0.135543
66 55.101002 -0.000000 -0.000001 -0.009014 -0.113114 0.078843
67 40.393002 -0.002400 -0.004600 0.000000 -0.000000 0.000000
68 -6.972701 -0.585700 25.377102 -2.499744 -1.229208 2.618329
69 64.544998 0.000000 0.000000 -0.169570 -0.202185 0.193127
70 51.973598 0.000000 0.000000 -0.008631 -0.109067 0.078212
71 33.419098 -0.001912 -0.003600 0.000000 -0.000000 0.000000
72 -26.481199 -0.424294 7.812700 -3.016306 -0.524351 2.898547
73 64.186615 -0.000013 -0.000000 -0.071384 -0.088911 0.130970
74 55.590412 -0.000000 0.000001 -0.002243 -0.027268 0.100339
75 25.390699 -0.002501 -0.002400 0.000000 -0.000000 0.000000
76 -2.687500 -4.314000 0.575694 1.018865 -0.339990 -2.442100
77 43.191101 0.000000 0.000000 -0.036327 -0.108763 0.204674
78 46.987995 -0.001600 -0.000800 0.000000 -0.000000 0.000000
79 11.762512 -13.868155 -23.725071 1.627325 -0.693229 -0.836559
80 -37.458698 0.000000 0.000000 -0.093710 -0.343352 1.797308
81 -83.706505 -0.000094 0.000002 1.262443 -0.242267 0.222932
82 26.481199 0.424406 -7.812699 -3.016306 -0.524351 2.898547
83 -64.186615 0.000000 0.000000 -0.071384 -0.088911 0.130970
84 -55.590313 0.000013 -0.000000 -0.002243 -0.027268 0.100339
85 -25.391006 0.002812 0.002800 0.000000 -0.000000 0.000000
86 6.972608 0.585688 -25.377100 -2.498260 -1.228823 2.616755
87 -64.544991 -0.000001 0.000000 -0.169570 -0.202185 0.193127
88 -51.973602 0.000001 -0.000013 -0.008631 -0.109067 0.078212
89 -33.420601 0.002700 0.005200 0.000000 -0.000000 0.000000
90 -9.637900 0.153500 -24.446100 -0.376394 -1.233334 0.590519
91 -65.739899 -0.000001 0.000001 -0.207530 -0.276489 0.135543
92 -55.101002 -0.000001 -0.000000 -0.009013 -0.113114 0.078831
93 -40.394100 0.002712 0.005300 0.000000 -0.000000 0.000000
94 22.525200 0.395194 -18.987701 -2.807613 -0.879481 2.811693
95 -67.425507 -0.000000 -0.000000 -0.137562 -0.135758 0.194193
96 -63.648502 0.000000 -0.000000 -0.008764 -0.130473 0.100102
97 -23.822102 0.002800 0.004301 0.000000 -0.000000 0.000000
98 2.687500 4.314000 -0.575600 1.057634 -0.326544 -2.414603
99 -43.191101 0.000000 0.000000 -0.036327 -0.108763 0.204674
100 -46.988106 0.002000 0.001000 0.000000 -0.000000 0.000000
101 34.245800 0.000000 0.000000 -0.069606 0.112541 -0.542365
102 14.379385 -0.311945 0.993511 -0.422400 -0.012991 -0.262247
103 20.691364 0.373103 1.026654 -0.454086 0.014495 -0.264780
104 24.123777 -0.432219 0.000000 0.693642 -0.756334 0.751015
105 22.713200 -10.955207 -4.711800 -0.065497 -0.343133 0.980447
106 -5.667200 0.000000 0.000000 0.036125 -0.136201 -0.580368
107 -5.935400 -0.005200 0.000201 0.000000 -0.000000 0.000000
108 6.464000 -3.692687 0.000000 -1.571065 0.000058 0.425705
109 19.717199 4.858907 7.932013 -2.037191 1.183303 -0.865244
110 -5.371100 0.000000 0.000000 -0.186114 -0.167466 -0.227911
111 -4.278900 0.000000 0.000000 0.009547 0.047203 -0.269372
112 2.284300 0.000000 0.000000 0.000000 -0.000000 0.000000
113 19.717199 -4.858900 7.932000 1.104403 -1.183302 -2.276349
114 5.371100 0.000000 0.000000 -0.186114 -0.167466 -0.227911
115 4.278900 0.000000 0.000000 0.009547 0.047203 -0.269372
116 2.284400 0.000000 0.000000 0.000000 -0.000000 0.000000
117 6.994200 0.000000 1.816306 -1.570572 -0.200777 -0.000022
118 6.701500 0.000000 0.000000 0.000000 -0.000000 0.143668
119 4.978200 0.000000 0.000000 0.000000 -0.000000 0.180994
120 4.007800 0.000000 0.000000 0.000000 -0.000000 0.167997
121 22.713200 -10.955213 4.711800 -0.065497 -0.343133 -2.161145
122 5.667094 -0.000000 0.000000 0.036125 -0.136201 -0.580368
123 5.935300 0.005199 -0.000100 0.000000 -0.000000 0.000000
124 24.204727 4.351802 2.199940 -1.571387 -0.952005 -1.450244
125 24.204725 4.351709 -2.199939 -1.571388 -0.952005 1.691349
126 0.0 0.0 0.0 0.0 0.0 0.0
127 0.0 0.0 0.0 0.0 0.0 0.0
128 0.0 0.0 0.0 0.0 0.0 0.0
129 0.0 0.0 0.0 0.0 0.0 0.0
130 0.0 0.0 0.0 0.0 0.0 0.0
time 1
0 0.000000 0.000000 0.000000 -0.000000 -0.000000 -0.000000
1 -0.738121 -6.857901 221.817780 1.596494 -0.797890 1.532840
2 -6.922300 -22.143511 0.000000 -3.089961 0.011073 -1.743773
3 26.628094 0.000000 -0.000000 -0.022021 -0.001562 -0.117113
4 26.630793 0.000001 0.000000 -0.024087 -0.000432 -0.225095
5 26.630699 0.000000 0.000000 -0.030103 -0.007139 -0.353303
6 26.628901 -0.000000 0.000000 -0.031548 -0.007924 -0.414044
7 26.628868 0.000000 -0.000000 -0.030451 0.008742 -0.251205
8 26.629234 -0.000100 0.000000 0.000000 -0.000000 0.000000
9 -0.943900 -2.280900 -22.926104 -0.248948 0.215478 0.139921
10 -40.495708 -0.000000 -0.000000 0.003715 0.026506 1.677019
11 -20.836300 0.000000 0.000000 3.062303 0.046308 -1.898038
12 -15.965199 -0.178700 -5.285300 -1.705438 -1.126822 0.208685
13 -22.902399 0.000000 0.000000 0.039878 -0.017393 -0.393061
14 -4.707000 -0.421400 0.147200 -3.076464 0.202412 0.118220
15 -10.188800 0.000000 0.000000 0.066129 0.027850 0.980079
16 -3.984100 -1.091600 6.378000 2.934927 0.087610 0.090668
17 -8.776100 0.000000 0.000000 0.114986 0.030373 1.033229
18 -3.787000 0.101300 -5.082900 -2.810318 -0.024407 0.168726
19 -10.247977 0.000000 0.000000 -0.013920 -0.026312 1.112503
20 -0.943900 -2.280900 22.926104 -0.184895 0.194161 -2.765097
21 40.495605 -0.000000 -0.000000 -0.024134 0.016411 1.621148
22 20.836300 0.000000 0.000000 3.130595 0.096160 -2.213365
23 22.902399 0.000000 0.000000 0.049976 -0.040605 -0.034026
24 3.787000 -0.101300 5.082900 -2.755140 0.036316 -0.060113
25 10.247900 0.000000 0.000000 -0.013920 -0.026312 1.112503
26 3.984033 1.091600 -6.378012 3.010345 0.066718 -0.148965
27 8.776100 0.000000 0.000000 0.114986 0.030373 1.033229
28 4.707000 0.421400 -0.147100 3.127126 0.222627 -0.307062
29 10.188800 0.000000 0.000000 0.066129 0.027850 0.980079
30 15.965199 0.178700 5.285300 -1.705438 -1.126822 0.208685
31 1.448200 11.235700 0.000000 0.002296 0.030128 1.702719
32 13.118241 -0.518319 -0.169293 0.043516 -0.017074 0.143942
33 12.754614 -2.767607 -0.078633 0.025224 -0.009052 0.280390
34 27.078249 -2.093280 0.029096 -0.040771 0.010609 0.529548
35 19.851768 -0.027900 -26.485870 -3.104512 0.097902 -2.011842
36 -48.046700 0.000000 0.000000 -0.000000 -0.000000 1.480641
37 -32.732498 0.000000 0.000000 0.090744 -0.253426 -0.344888
38 -5.577500 3.896500 -9.552592 -1.594294 -0.484234 -0.292553
39 -13.046900 0.000000 0.000000 0.113390 0.034591 0.921439
40 -4.538900 1.838200 1.085100 -3.136190 -0.039962 -1.062805
41 -9.326100 0.000000 0.000000 0.047854 0.025303 1.209690
42 -2.654400 1.236000 -5.967800 -2.951416 -0.045404 -0.715898
43 -10.456600 0.000000 0.000000 0.052341 0.024495 0.958725
44 -3.968400 2.196200 7.058900 3.005227 -0.000059 -1.380111
45 -8.804501 0.000000 0.000000 0.025663 0.021220 0.936788
46 18.809500 -0.101693 26.364401 -2.968671 -0.022057 1.022181
47 48.046700 0.000000 0.000000 0.000000 -0.000000 1.144274
48 32.732510 0.000000 -0.000000 -0.356461 -0.288431 -0.147943
49 13.046900 0.000000 0.000000 0.074152 0.071902 0.822606
50 4.529311 -1.758800 -0.050100 3.095467 -0.097448 -0.672359
51 9.326100 0.000000 0.000000 0.045916 0.032701 0.812069
52 4.229000 -2.047300 -5.390500 -3.085586 -0.041978 -0.973261
53 8.804501 0.000000 0.000000 0.064079 0.023042 0.828598
54 2.654400 -1.236000 5.967800 -2.969668 -0.038372 -0.830949
55 10.456600 0.000000 0.000000 0.056577 0.017271 0.976297
56 5.577400 -3.896500 9.552600 -1.631493 -0.368079 -0.300516
57 11.871738 -19.151852 22.264561 0.838354 -0.553715 2.687966
58 37.458595 0.000001 0.000008 0.663242 -0.840686 0.731304
59 83.706718 0.000101 0.000107 2.260590 -0.608000 1.032483
60 -22.525408 -0.395126 18.987700 -2.909269 -0.698443 2.961664
61 67.425613 0.000100 0.000033 -0.107007 -0.160901 -0.011516
62 63.648701 0.000100 0.000100 0.025224 -0.168993 -0.136031
63 23.821501 -0.002196 -0.003400 0.000000 -0.000000 0.000000
64 9.637795 -0.153604 24.446104 0.156625 -1.276794 0.033404
65 65.739899 0.000100 0.000001 -0.166451 -0.302605 -0.007938
66 55.101006 0.000100 -0.000000 0.007831 -0.113209 -0.070824
67 40.393002 -0.002400 -0.004600 0.000000 -0.000000 0.000000
68 -6.972805 -0.585700 25.377100 -2.717495 -1.326617 2.842502
69 64.545067 0.000100 0.000078 -0.098684 -0.244340 -0.124365
70 51.973701 0.000104 0.000111 0.018356 -0.107911 -0.170365
71 33.419098 -0.001900 -0.003600 0.000000 -0.000000 0.000000
72 -26.481379 -0.424404 7.812700 -3.051863 -0.258694 3.021553
73 64.186768 0.000104 0.000105 -0.059271 -0.097345 0.001301
74 55.590584 -0.000008 0.000000 0.001737 -0.048515 -0.083854
75 25.390703 -0.002470 -0.002400 0.000000 -0.000000 0.000000
76 -2.687500 -4.314000 0.575600 1.432756 0.305039 -1.442214
77 43.191204 -0.000000 0.000104 -0.018040 -0.037229 0.053830
78 46.988014 -0.001600 -0.000800 0.000000 -0.000000 0.000000
79 11.871758 -19.151510 -22.264732 0.966709 -0.726996 -0.356577
80 -37.458698 0.000000 0.000000 0.715095 -0.705641 0.620421
81 -83.706505 -0.000000 0.000001 2.187225 -0.419172 1.099420
82 26.481199 0.424374 -7.812699 -3.051985 -0.258715 3.021947
83 -64.186676 0.000000 0.000000 -0.059249 -0.097358 0.000840
84 -55.590397 0.000000 0.000000 0.001750 -0.058868 -0.084294
85 -25.391001 0.002878 0.002800 0.000000 -0.000000 0.000000
86 6.972678 0.585596 -25.377167 -2.717927 -1.326656 2.842935
87 -64.544991 -0.000001 -0.000069 -0.098689 -0.244338 -0.124313
88 -51.973625 0.000001 -0.000000 0.018377 -0.107907 -0.170775
89 -33.420601 0.002700 0.005200 0.000000 -0.000000 0.000000
90 -9.637900 0.153493 -24.446100 0.156631 -1.276794 0.033396
91 -65.739922 0.000000 0.000001 -0.166622 -0.302518 -0.007465
92 -55.101070 0.000000 -0.000000 0.007808 -0.113262 -0.070343
93 -40.394207 0.002811 0.005300 0.000000 -0.000000 0.000000
94 22.525200 0.395100 -18.987692 -2.910107 -0.698675 2.962971
95 -67.425499 0.000000 0.000000 -0.107062 -0.160899 -0.011461
96 -63.648502 -0.000029 -0.000000 0.028650 -0.169666 -0.136034
97 -23.822102 0.002800 0.004300 0.000000 -0.000000 0.000000
98 2.687500 4.314000 -0.575589 1.355617 0.076487 -1.568155
99 -43.191101 0.000000 0.000000 -0.027776 -0.010195 0.133113
100 -46.988201 0.002000 0.001000 0.000000 -0.000000 0.000000
101 34.245800 0.000000 0.000000 -0.078072 0.109711 -0.635622
102 14.956012 -0.282470 1.026622 -0.431033 -0.008892 -0.202614
103 19.809225 0.350563 0.979796 -0.428635 -0.001689 -0.250887
104 24.033497 -0.421773 0.000033 0.572720 -0.824440 0.916978
105 22.713198 -10.955192 -4.711800 -0.065497 -0.343133 0.980447
106 -5.667200 0.000000 0.000000 0.036125 -0.136201 -0.580368
107 -5.935400 -0.005193 0.000126 0.000000 -0.000000 0.000000
108 6.360684 -3.519564 -0.004874 -1.570068 0.000249 0.470641
109 19.717197 4.859007 7.932000 -2.037191 1.183303 -0.865244
110 -5.371100 0.000000 0.000000 -0.186114 -0.167466 -0.227910
111 -4.278900 0.000000 0.000000 0.009547 0.047203 -0.269372
112 2.284300 0.000000 0.000000 0.000000 -0.000000 0.000000
113 19.717199 -4.858900 7.932000 1.104403 -1.183303 -2.276349
114 5.371100 0.000000 0.000000 -0.186114 -0.167466 -0.227911
115 4.278900 0.000000 0.000000 0.009547 0.047203 -0.269372
116 2.284400 0.000000 0.000000 0.000000 -0.000000 0.000000
117 6.994200 -0.000000 1.816267 -1.570606 -0.200777 -0.000019
118 6.701500 0.000000 0.000000 0.000000 -0.000000 0.143668
119 4.978200 0.000000 0.000000 0.000000 -0.000000 0.180994
120 4.007800 0.000000 0.000000 0.000000 -0.000000 0.167997
121 22.713202 -10.955227 4.711878 -0.065497 -0.343133 -2.161146
122 5.667092 0.000000 -0.000000 0.036125 -0.136201 -0.580368
123 5.935300 0.005267 -0.000100 0.000000 -0.000000 0.000000
124 24.213976 4.274983 2.308513 -1.571387 -0.952005 -1.450244
125 24.210945 4.300394 -2.272613 -1.571388 -0.952006 1.691349
126 0.0 0.0 0.0 0.0 0.0 0.0
127 0.0 0.0 0.0 0.0 0.0 0.0
128 0.0 0.0 0.0 0.0 0.0 0.0
129 0.0 0.0 0.0 0.0 0.0 0.0
130 0.0 0.0 0.0 0.0 0.0 0.0
time 2
0 0.000000 0.000000 0.000000 -0.000000 -0.000000 -0.000000
1 -0.950333 8.958378 202.726105 1.745085 -1.385460 1.385008
2 -6.922307 -22.143398 0.000000 -3.097536 0.005493 -1.734945
3 26.628101 0.000000 0.000000 -0.027703 -0.002665 -0.093574
4 26.630850 -0.000000 -0.000000 -0.018773 -0.010355 -0.028139
5 26.630699 0.000000 0.000000 -0.006422 -0.034350 0.053325
6 26.628901 -0.000000 0.000000 -0.001143 -0.045728 -0.133562
7 26.628796 -0.000000 0.000000 0.008757 -0.031569 0.091841
8 26.629200 -0.000100 0.000000 0.000000 -0.000000 0.000000
9 -0.943900 -2.280900 -22.926001 -0.241485 0.221410 -0.250853
10 -40.495602 0.000000 0.000000 -0.015566 0.036505 1.693980
11 -20.836300 0.000000 0.000000 3.101373 0.033971 -1.858726
12 -15.965199 -0.178700 -5.285300 -1.705438 -1.126822 0.208685
13 -22.902399 0.000000 0.000000 0.060515 0.006243 -0.415642
14 -4.707000 -0.421400 0.147200 -3.076464 0.202412 0.118220
15 -10.188800 0.000000 0.000000 0.066129 0.027850 0.980079
16 -3.984100 -1.091600 6.378000 2.934927 0.087610 0.090668
17 -8.776100 0.000000 0.000000 0.114986 0.030373 1.033229
18 -3.787000 0.101300 -5.082900 -2.810318 -0.024407 0.168726
19 -10.247900 0.000000 0.000000 -0.013920 -0.026312 1.112502
20 -0.943900 -2.280900 22.925987 -0.141729 0.161570 -3.037396
21 40.495602 0.000000 0.000000 -0.019958 -0.005309 1.677424
22 20.836245 0.000001 0.000000 3.134780 0.103438 -2.174022
23 22.902287 -0.000000 -0.000000 0.025348 -0.088129 0.014859
24 3.787000 -0.101300 5.082900 -2.755140 0.036316 -0.060113
25 10.247893 -0.000000 -0.000000 -0.013920 -0.026312 1.112502
26 3.983994 1.091600 -6.377893 3.010345 0.066718 -0.148965
27 8.776100 0.000000 0.000000 0.114986 0.030373 1.033229
28 4.707000 0.421400 -0.147100 3.127126 0.222627 -0.307062
29 10.188793 0.000000 0.000000 0.066129 0.027850 0.980078
30 15.965199 0.178700 5.285300 -1.705438 -1.126822 0.208685
31 1.448087 11.235700 -0.000000 0.001393 0.031345 1.670873
32 15.121132 -0.816106 -0.176200 0.023218 -0.010900 0.036557
33 14.925761 -2.328387 -0.158381 0.010838 -0.017424 0.084253
34 37.633171 -3.654795 -0.126000 -0.000477 -0.010111 -0.040097
35 20.833860 -0.003200 -15.402548 2.865197 -0.074619 -0.342833
36 -48.046700 0.000000 0.000000 0.000000 0.000000 1.599669
37 -32.732498 0.000000 0.000000 -0.575882 -0.145006 0.565610
38 -5.577500 3.896500 -9.552593 -1.602219 -0.459356 -0.294290
39 -13.046900 0.000000 0.000000 0.113390 0.034591 0.921439
40 -4.538900 1.838200 1.085100 3.140091 -0.040650 -1.087703
41 -9.326100 0.000000 0.000000 0.038940 0.025624 1.197199
42 -2.654400 1.236000 -5.967800 -2.955268 -0.044091 -0.740585
43 -10.456594 -0.000000 -0.000000 0.043536 0.024618 0.952957
44 -3.968400 2.196200 7.058900 2.998014 -0.004209 -1.404648
45 -8.804501 0.000000 0.000000 0.016754 0.021592 0.924938
46 18.809500 -0.101756 26.364403 -3.016791 -0.097922 2.601923
47 48.046700 0.000000 0.000000 -0.000000 0.000000 1.805185
48 32.732449 0.000001 -0.000000 -0.111920 -0.307287 0.334197
49 13.046900 0.000000 0.000000 0.074152 0.071902 0.822606
50 4.529250 -1.758800 -0.050100 3.095467 -0.097448 -0.672358
51 9.326100 0.000000 0.000000 0.045916 0.032701 0.812068
52 4.229000 -2.047300 -5.390500 -3.085586 -0.041978 -0.973260
53 8.804501 0.000000 0.000000 0.064079 0.023042 0.828598
54 2.654400 -1.236000 5.967800 -2.969667 -0.038372 -0.830949
55 10.456600 0.000000 0.000000 0.056577 0.017271 0.976297
56 5.577400 -3.896500 9.552593 -1.631494 -0.368079 -0.300516
57 11.063193 -12.880088 23.951006 -2.863867 -0.704088 1.178650
58 37.488388 -0.003775 0.001099 0.067570 -0.123425 1.085890
59 84.491188 0.193179 0.141991 0.990646 0.537575 0.786977
60 -22.965448 -0.527332 18.978149 -2.857029 -0.828038 2.883830
61 67.666229 -0.000000 0.000057 -0.125908 -0.145259 0.120293
62 63.876705 -0.000000 0.000000 0.008465 -0.145809 -0.009563
63 23.821501 -0.002300 -0.003400 0.000000 -0.000000 0.000000
64 9.197643 -0.285731 24.436558 -0.222904 -1.252960 0.429656
65 65.589226 -0.000000 -0.000001 -0.175020 -0.299099 0.024140
66 55.053158 0.000000 0.000000 0.003006 -0.105025 -0.025712
67 40.392944 -0.002400 -0.004600 0.000000 -0.000000 0.000000
68 -7.412956 -0.717875 25.367657 -2.630058 -1.265786 2.752884
69 64.649742 0.000000 0.000000 -0.147544 -0.218783 0.094435
70 52.123882 0.000001 -0.000000 0.003464 -0.101559 -0.029060
71 33.419098 -0.001894 -0.003600 0.000000 -0.000000 0.000000
72 -26.921448 -0.556532 7.803150 -3.027599 -0.444942 2.932268
73 64.537689 0.000000 0.000001 -0.063038 -0.094423 0.047620
74 55.896122 -0.000001 0.000000 -0.000156 -0.036215 0.008929
75 25.390699 -0.002388 -0.002400 0.000000 -0.000000 0.000000
76 -3.113988 -4.469513 0.617931 0.356751 -0.579680 -2.143962
77 43.511108 0.000000 -0.000000 -0.034003 -0.116439 0.192021
78 46.987888 -0.001600 -0.000800 0.000000 -0.000000 0.000000
79 11.066517 -12.877162 -23.872351 -2.836070 -0.702920 -1.961706
80 -37.442673 0.008283 -0.001424 0.052855 -0.097037 1.087835
81 -84.534935 -0.168004 -0.108382 0.992532 0.535500 0.788094
82 26.931870 0.512226 -7.787282 -3.027283 -0.444451 2.931546
83 -64.544540 -0.000000 0.000000 -0.063108 -0.094451 0.048127
84 -55.916122 0.000000 -0.000000 -0.000146 -0.035878 0.008432
85 -25.390886 0.002900 0.002800 0.000000 -0.000000 0.000000
86 7.423319 0.673525 -25.351786 -2.628172 -1.265326 2.750936
87 -64.642204 0.000000 -0.000000 -0.147569 -0.218911 0.093836
88 -52.133247 0.000000 -0.000000 0.003408 -0.101245 -0.029383
89 -33.420601 0.002700 0.005200 0.000000 -0.000000 0.000000
90 -9.187287 0.241431 -24.420738 -0.225048 -1.252765 0.431933
91 -65.576469 0.000000 0.000001 -0.175294 -0.299096 0.024450
92 -55.054554 0.000000 0.000113 0.003019 -0.104844 -0.026427
93 -40.394089 0.002806 0.005300 0.000000 -0.000000 0.000000
94 22.975870 0.483031 -18.962280 -2.856371 -0.827563 2.882937
95 -67.666565 -0.000000 -0.000007 -0.125846 -0.145381 0.119398
96 -63.893105 -0.000000 -0.000006 0.008418 -0.144912 -0.009603
97 -23.822102 0.002800 0.004250 0.000000 -0.000000 0.000000
98 3.119231 4.438575 -0.652869 0.283192 -0.624808 -2.183099
99 -43.511028 0.000000 0.000000 -0.034003 -0.116439 0.192021
100 -46.988201 0.002000 0.001000 0.000000 -0.000000 0.000000
101 34.245800 0.000000 0.000000 0.008571 0.008175 -0.269228
102 19.501766 -0.026744 0.106875 -0.044164 -0.003690 -0.102858
103 18.679522 0.094431 0.110913 -0.047121 0.003985 -0.176190
104 22.858576 -0.285768 0.000000 0.090615 0.003445 -0.091688
105 22.713140 -10.955256 -4.711800 -0.065497 -0.343133 0.980447
106 -5.667200 0.000000 0.000000 0.036125 -0.136201 -0.580368
107 -5.935400 -0.005194 0.000200 0.000000 -0.000000 0.000000
108 5.416425 -1.963319 -0.046869 -1.564541 0.001311 1.247576
109 19.717199 4.858902 7.931999 -2.037191 1.183303 -0.865244
110 -5.371100 0.000000 0.000000 -0.186114 -0.167466 -0.227910
111 -4.278900 0.000000 0.000000 0.009547 0.047203 -0.269372
112 2.284300 0.000000 0.000000 0.000000 -0.000000 0.000000
113 19.717199 -4.858900 7.932000 1.104403 -1.183303 -2.276349
114 5.371100 0.000000 0.000000 -0.186114 -0.167466 -0.227910
115 4.278900 0.000000 0.000000 0.009547 0.047203 -0.269372
116 2.284344 0.000000 0.000000 0.000000 -0.000000 0.000000
117 6.994200 0.000000 1.816306 -1.570485 -0.200777 -0.000031
118 6.701500 0.000000 0.000000 0.000000 -0.000000 0.143668
119 4.978200 0.000000 0.000000 0.000000 -0.000000 0.180994
120 4.007800 0.000000 0.000000 0.000000 -0.000000 0.167997
121 22.713144 -10.955199 4.711800 -0.065497 -0.343133 -2.161145
122 5.667156 0.000000 -0.000000 0.036125 -0.136201 -0.580368
123 5.935300 0.005244 -0.000100 0.000000 -0.000000 0.000000
124 23.825943 7.492899 -2.241693 -1.571388 -0.952005 -1.450244
125 23.948523 6.476679 0.804823 -1.571388 -0.952005 1.691349
126 0.0 0.0 0.0 0.0 0.0 0.0
127 0.0 0.0 0.0 0.0 0.0 0.0
128 0.0 0.0 0.0 0.0 0.0 0.0
129 0.0 0.0 0.0 0.0 0.0 0.0
130 0.0 0.0 0.0 0.0 0.0 0.0
time 3
0 0.000000 0.000000 0.000000 -0.000000 -0.000000 -0.000000
1 -0.659088 7.134439 198.946091 1.678010 -1.123205 1.454187
2 -6.922300 -22.143398 0.000000 -3.096997 -0.008226 -1.708796
3 26.628101 0.000000 0.000000 -0.026553 -0.007613 -0.284588
4 26.630800 0.000001 0.000000 -0.017809 -0.026992 -0.469789
5 26.630699 -0.000030 0.000000 -0.009645 -0.042920 -0.498907
6 26.628901 -0.000000 0.000000 0.000958 -0.047567 -0.422703
7 26.628868 0.000000 -0.000000 0.000668 -0.039580 -0.187775
8 26.629200 -0.000100 0.000000 0.000000 -0.000000 0.000000
9 -0.943900 -2.280900 -22.926001 -0.253423 0.206651 -0.148637
10 -40.495602 0.000000 0.000000 -0.029775 -0.029870 1.764570
11 -20.836300 0.000000 0.000000 3.073461 0.052672 -1.757920
12 -15.965199 -0.178700 -5.285300 -1.705438 -1.126822 0.208685
13 -22.902399 0.000000 0.000000 0.016678 0.003808 -0.512969
14 -4.707000 -0.421400 0.147200 -3.076464 0.202412 0.118220
15 -10.188800 0.000000 0.000000 0.066129 0.027850 0.980079
16 -3.984100 -1.091600 6.378000 2.934927 0.087610 0.090668
17 -8.776100 0.000000 0.000000 0.114986 0.030373 1.033229
18 -3.787000 0.101300 -5.082900 -2.810318 -0.024407 0.168726
19 -10.247900 0.000000 0.000000 -0.013920 -0.026312 1.112502
20 -0.943900 -2.280900 22.925993 -0.193428 0.119879 -2.906816
21 40.495602 0.000000 0.000000 -0.037339 0.003372 1.784471
22 20.836300 0.000000 0.000000 3.106270 0.054165 -2.096299
23 22.902399 0.000000 0.000000 0.013107 -0.012994 -0.081927
24 3.787000 -0.101300 5.082900 -2.755140 0.036316 -0.060113
25 10.247900 0.000000 0.000000 -0.013920 -0.026312 1.112503
26 3.984100 1.091600 -6.377892 3.010345 0.066718 -0.148965
27 8.776100 0.000000 0.000000 0.114986 0.030373 1.033229
28 4.707000 0.421400 -0.147100 3.127129 0.222610 -0.307061
29 10.188796 -0.000000 0.000000 0.066129 0.027850 0.980079
30 15.965199 0.178700 5.285300 -1.705438 -1.126822 0.208685
31 1.448207 11.235700 0.000000 -0.002128 0.032726 1.560976
32 11.101093 -1.225452 -0.183589 0.030747 -0.017199 0.147498
33 11.162910 -3.107311 -0.124544 0.013663 -0.016291 0.201239
34 32.287895 -4.184012 -0.033526 -0.007506 -0.006299 0.023716
35 19.456364 -0.054148 -20.833128 -3.091817 -0.139302 -0.834455
36 -48.046700 0.000000 0.000000 -0.000000 0.000000 1.159106
37 -32.732502 -0.000001 0.000000 -0.507749 0.010435 -0.069035
38 -5.577501 3.896500 -9.552711 -1.611554 -0.429967 -0.296382
39 -13.046900 0.000000 0.000000 0.113390 0.034591 0.921439
40 -4.538900 1.838200 1.085111 3.131963 -0.041410 -1.117166
41 -9.326100 0.000000 0.000000 0.028406 0.026034 1.182435
42 -2.654400 1.236000 -5.967800 -2.959835 -0.042426 -0.769688
43 -10.456600 0.000000 0.000000 0.033099 0.024823 0.946148
44 -3.968400 2.196200 7.058900 2.989629 -0.009075 -1.433639
45 -8.804501 0.000000 0.000000 0.006306 0.021890 0.910906
46 18.809500 -0.101770 26.364403 -3.051662 -0.050639 2.273932
47 48.046734 0.000000 0.000000 0.000000 -0.000000 1.011043
48 32.732502 0.000000 0.000000 -0.047904 -0.032932 -0.130992
49 13.046904 0.000000 -0.000000 0.074152 0.071902 0.822606
50 4.529300 -1.758800 -0.050100 3.095467 -0.097448 -0.672358
51 9.326100 0.000000 0.000000 0.045916 0.032701 0.812069
52 4.229000 -2.047300 -5.390500 -3.085586 -0.041978 -0.973260
53 8.804501 0.000000 0.000000 0.064079 0.023042 0.828598
54 2.654400 -1.236000 5.967800 -2.969668 -0.038372 -0.830949
55 10.456600 0.000000 0.000000 0.056577 0.017271 0.976297
56 5.577400 -3.896500 9.552600 -1.631494 -0.368079 -0.300516
57 11.521300 -15.410664 23.305691 -2.511837 -1.276875 0.874165
58 37.463432 -0.000443 0.000331 -0.477249 0.421775 0.679181
59 83.679352 -0.006718 -0.004875 1.532210 -0.232713 0.298400
60 -22.509977 -0.390556 18.988026 -2.821428 -0.916427 2.837125
61 67.417168 -0.000156 -0.000006 -0.154528 -0.116101 0.328971
62 63.640766 -0.000111 -0.000000 -0.033820 -0.105887 0.310726
63 23.821501 -0.002300 -0.003400 0.000000 -0.000000 0.000000
64 9.653123 -0.148963 24.446434 -0.353764 -1.242273 0.566794
65 65.745148 -0.000077 0.000000 -0.266123 -0.220817 0.372439
66 55.102638 -0.000078 0.000000 -0.033654 -0.108414 0.300602
67 40.393002 -0.002400 -0.004600 0.000000 -0.000000 0.000000
68 -6.957478 -0.581085 25.377426 -2.525756 -1.226591 2.645540
69 64.541397 -0.000078 0.000000 -0.197956 -0.174514 0.344368
70 51.968403 -0.000078 -0.000111 -0.032552 -0.104458 0.301946
71 33.419098 -0.001974 -0.003596 0.000000 -0.000000 0.000000
72 -26.465979 -0.419789 7.812955 -3.025540 -0.569747 2.940305
73 64.174431 -0.000104 0.000000 -0.086812 -0.073829 0.320627
74 55.579792 -0.000078 0.000000 -0.006054 -0.019683 0.303068
75 25.390699 -0.002467 -0.002400 0.000000 -0.000000 0.000000
76 -2.674993 -4.309026 0.583959 1.133807 0.031110 -2.168334
77 43.180012 0.000000 -0.000111 -0.038215 -0.129582 0.220263
78 46.987892 -0.001678 -0.000800 0.000000 -0.000000 0.000000
79 11.521103 -15.411096 -23.314285 -2.491575 -1.277050 -2.269536
80 -37.465187 0.000594 -0.000455 -0.493113 0.432906 0.672730
81 -83.677887 0.005664 0.003685 1.532211 -0.232678 0.298432
82 26.465626 0.421307 -7.813570 -3.025541 -0.569746 2.940305
83 -64.174240 -0.000085 -0.000079 -0.086814 -0.073826 0.320697
84 -55.579105 -0.000078 0.000000 -0.006054 -0.019683 0.303116
85 -25.391005 0.002907 0.002800 0.000000 -0.000000 0.000000
86 6.957056 0.582574 -25.377968 -2.525754 -1.226591 2.645539
87 -64.541656 -0.000301 0.000001 -0.197974 -0.174509 0.344387
88 -51.968121 -0.000188 -0.000079 -0.032555 -0.104457 0.301995
89 -33.420601 0.002700 0.005200 0.000000 -0.000000 0.000000
90 -9.653479 0.150485 -24.446970 -0.353764 -1.242273 0.566794
91 -65.745613 -0.000299 0.000001 -0.266130 -0.220809 0.372506
92 -55.102589 -0.000222 -0.000004 -0.033655 -0.108413 0.300620
93 -40.394100 0.002774 0.005300 0.000000 -0.000000 0.000000
94 22.509655 0.392081 -18.988569 -2.821497 -0.916435 2.837158
95 -67.417145 -0.000189 -0.000080 -0.154523 -0.116049 0.329015
96 -63.640022 -0.000189 -0.000077 -0.033853 -0.106622 0.310765
97 -23.822102 0.002800 0.004307 0.000000 -0.000000 0.000000
98 2.674137 4.309744 -0.583085 1.093396 0.019656 -2.222790
99 -43.180008 -0.000078 -0.000078 -0.038216 -0.129582 0.220263
100 -46.988201 0.002000 0.001000 0.000000 -0.000000 0.000000
101 34.245800 0.000000 0.000000 0.009356 0.013246 0.108658
102 17.878248 -0.139548 0.145393 -0.060050 -0.003435 -0.208054
103 18.124849 0.118855 0.146622 -0.063020 -0.002333 -0.206016
104 24.074078 -0.426544 0.000000 0.124444 -0.014476 0.126345
105 22.713198 -10.955192 -4.711800 -0.065497 -0.343133 0.980447
106 -5.667200 0.000000 0.000000 0.036125 -0.136201 -0.580368
107 -5.935400 -0.005267 0.000200 0.000000 -0.000000 0.000000
108 6.378851 -3.597707 -0.000526 -1.568043 0.009017 0.998025
109 19.717199 4.858902 7.931999 -2.037191 1.183303 -0.865245
110 -5.371100 0.000000 0.000000 -0.186114 -0.167466 -0.227910
111 -4.278900 0.000000 0.000000 0.009547 0.047203 -0.269372
112 2.284300 0.000000 0.000000 0.000000 -0.000000 0.000000
113 19.717199 -4.858900 7.932000 1.104403 -1.183302 -2.276350
114 5.371100 0.000000 0.000000 -0.186114 -0.167466 -0.227910
115 4.278900 0.000000 0.000000 0.009547 0.047203 -0.269372
116 2.284407 0.000000 0.000000 0.000000 -0.000000 0.000000
117 6.994200 0.000000 1.816230 -1.570485 -0.200777 -0.000031
118 6.701500 0.000000 0.000000 0.000000 -0.000000 0.143668
119 4.978200 0.000000 0.000000 0.000000 -0.000000 0.180994
120 4.007800 0.000000 0.000000 0.000000 -0.000000 0.167997
121 22.713200 -10.955200 4.711800 -0.065497 -0.343133 -2.161146
122 5.667174 0.000000 -0.000000 0.036125 -0.136201 -0.580368
123 5.935300 0.005230 -0.000100 0.000000 -0.000000 0.000000
124 24.614500 0.952278 7.006793 -1.571387 -0.952005 -1.450244
125 24.614008 0.957211 -6.999863 -1.571388 -0.952005 1.691349
126 0.0 0.0 0.0 0.0 0.0 0.0
127 0.0 0.0 0.0 0.0 0.0 0.0
128 0.0 0.0 0.0 0.0 0.0 0.0
129 0.0 0.0 0.0 0.0 0.0 0.0
130 0.0 0.0 0.0 0.0 0.0 0.0
time 4
0 0.000000 0.000000 0.000000 -0.000000 -0.000000 -0.000000
1 -0.583199 2.007832 220.953888 1.668677 -1.132525 1.455449
2 -6.922287 -22.143507 0.000000 -3.094334 -0.009208 -1.938252
3 26.628101 0.000000 0.000000 -0.026947 0.007431 -0.062554
4 26.630905 -0.000000 0.000000 -0.024673 -0.007051 -0.207186
5 26.630699 0.000006 0.000000 -0.020281 -0.024647 -0.318950
6 26.628901 -0.000000 0.000000 -0.011535 -0.034807 -0.503715
7 26.628799 0.000000 0.000000 -0.012541 -0.025941 -0.417918
8 26.629208 -0.000100 0.000000 0.000000 -0.000000 0.000000
9 -0.943900 -2.280900 -22.926102 -0.249718 0.222036 -0.349332
10 -40.495602 0.000000 0.000000 -0.010668 -0.012686 1.626343
11 -20.836300 0.000000 0.000000 3.074639 0.062931 -1.867652
12 -15.965199 -0.178700 -5.285300 -1.705438 -1.126822 0.208685
13 -22.902399 0.000000 0.000000 0.039379 -0.020140 -0.415089
14 -4.707000 -0.421400 0.147200 -3.076464 0.202412 0.118220
15 -10.188800 0.000000 0.000000 0.066129 0.027850 0.980079
16 -3.984100 -1.091600 6.378000 2.934927 0.087610 0.090668
17 -8.776100 0.000000 0.000000 0.114986 0.030373 1.033229
18 -3.787000 0.101300 -5.082900 -2.810318 -0.024407 0.168726
19 -10.247900 0.000000 0.000000 -0.013920 -0.026312 1.112503
20 -0.943900 -2.280900 22.926102 -0.225771 0.128975 3.022408
21 40.495506 -0.000000 -0.000000 -0.020925 0.011644 1.616265
22 20.836300 0.000000 0.000000 3.124844 0.068944 -2.156195
23 22.902399 0.000000 0.000000 0.035426 -0.017550 -0.084012
24 3.787000 -0.101300 5.082900 -2.755140 0.036316 -0.060113
25 10.247913 -0.000000 -0.000000 -0.013920 -0.026312 1.112503
26 3.984013 1.091600 -6.378002 3.010345 0.066718 -0.148965
27 8.776100 0.000000 0.000000 0.114986 0.030373 1.033229
28 4.707000 0.421400 -0.147100 3.127128 0.222616 -0.307061
29 10.188800 0.000000 0.000000 0.066129 0.027850 0.980079
30 15.965199 0.178700 5.285300 -1.705438 -1.126822 0.208685
31 1.448106 11.235700 -0.000000 0.000861 0.030906 1.654755
32 12.973701 -0.777738 -0.172795 0.038758 -0.013181 0.042231
33 12.870667 -2.349183 -0.113173 0.015708 -0.014285 0.151049
34 32.358040 -2.672571 -0.028714 -0.018544 -0.005202 0.188745
35 18.809500 -0.101693 -26.364481 -2.998967 -0.094400 -1.328851
36 -48.046700 0.000000 0.000000 -0.000000 -0.000000 1.158091
37 -32.732498 0.000000 0.000000 -0.463642 -0.160336 -0.082849
38 -5.577502 3.896500 -9.552707 -1.621267 -0.399745 -0.298382
39 -13.046900 0.000000 0.000000 0.113390 0.034591 0.921440
40 -4.538900 1.838200 1.085100 3.123677 -0.042171 -1.147385
41 -9.326100 0.000000 0.000000 0.017595 0.026406 1.167261
42 -2.654400 1.236000 -5.967800 -2.964606 -0.040553 -0.799555
43 -10.456600 0.000000 0.000000 0.022468 0.024978 0.939162
44 -3.968400 2.196200 7.058900 2.981160 -0.014006 -1.463409
45 -8.804501 0.000000 0.000000 -0.004496 0.022261 0.896535
46 18.809500 -0.101700 26.364401 -3.127707 -0.016377 1.598999
47 48.046700 0.000000 0.000000 0.000000 0.000000 0.587378
48 32.732487 -0.000000 0.000000 0.001453 -0.161916 0.162136
49 13.046886 0.000000 -0.000000 0.074152 0.071902 0.822606
50 4.529301 -1.758800 -0.050100 3.095467 -0.097448 -0.672358
51 9.326100 0.000000 0.000000 0.045916 0.032701 0.812069
52 4.229000 -2.047300 -5.390500 -3.085586 -0.041978 -0.973260
53 8.804501 0.000000 0.000000 0.064079 0.023042 0.828598
54 2.654400 -1.236000 5.967800 -2.969668 -0.038372 -0.830949
55 10.456600 0.000000 0.000000 0.056577 0.017271 0.976297
56 5.577400 -3.896500 9.552600 -1.631494 -0.368079 -0.300516
57 11.242328 -17.501320 22.705555 0.111937 -0.796079 -2.056336
58 37.458698 0.000000 0.000001 0.253867 -0.139837 0.497349
59 83.706490 0.000001 0.000005 1.115035 -0.038384 1.063360
60 -22.525293 -0.395100 18.987700 -2.798217 -0.820201 2.791665
61 67.425400 0.000000 0.000088 -0.138058 -0.135249 0.197809
62 63.648598 -0.000000 0.000087 -0.015522 -0.098927 0.145409
63 23.821501 -0.002200 -0.003400 0.000000 -0.000000 0.000000
64 9.637900 -0.153499 24.446108 -0.444740 -1.240715 0.662536
65 65.739899 0.000000 0.000000 -0.222091 -0.265057 0.189890
66 55.101002 0.000000 0.000000 -0.014127 -0.112642 0.123870
67 40.393002 -0.002400 -0.004600 0.000000 -0.000000 0.000000
68 -6.972700 -0.585706 25.377100 -2.404585 -1.217864 2.518628
69 64.545006 0.000000 0.000086 -0.162696 -0.207785 0.159162
70 51.973690 0.000001 -0.000000 -0.016926 -0.108095 0.154706
71 33.419098 -0.001994 -0.003600 0.000000 -0.000000 0.000000
72 -26.481199 -0.424312 7.812706 -3.013791 -0.451657 2.879705
73 64.186699 0.000006 -0.000001 -0.075006 -0.085814 0.172969
74 55.590397 -0.000094 -0.000001 -0.002674 -0.020412 0.133820
75 25.390686 -0.002494 -0.002400 0.000000 -0.000000 0.000000
76 -2.687500 -4.314000 0.575600 2.278653 -0.082010 -1.547586
77 43.191101 0.000000 0.000000 -0.031028 -0.065982 0.160229
78 46.987991 -0.001600 -0.000800 0.000000 -0.000000 0.000000
79 11.244488 -17.520500 -22.698513 0.121457 -0.796887 1.084357
80 -37.458698 0.000001 -0.000006 0.244292 -0.134715 0.499194
81 -83.706497 0.000000 0.000000 1.116036 -0.040310 1.063047
82 26.481197 0.424300 -7.812687 -3.013765 -0.447591 2.879152
83 -64.186600 0.000013 0.000000 -0.074795 -0.086012 0.170216
84 -55.590397 0.000000 0.000000 -0.002433 -0.020448 0.124490
85 -25.391003 0.002906 0.002800 0.000000 -0.000000 0.000000
86 6.972607 0.585594 -25.377193 -2.408209 -1.220048 2.522410
87 -64.545097 0.000000 0.000000 -0.161485 -0.208715 0.153297
88 -51.973690 -0.000005 0.000007 -0.016931 -0.108094 0.154806
89 -33.420601 0.002701 0.005200 0.000000 -0.000000 0.000000
90 -9.637900 0.153494 -24.446089 -0.440726 -1.241505 0.658318
91 -65.739899 -0.000000 0.000001 -0.217123 -0.269161 0.171105
92 -55.101006 -0.000094 0.000000 -0.011445 -0.112946 0.100494
93 -40.394100 0.002713 0.005300 0.000000 -0.000000 0.000000
94 22.525200 0.395093 -18.987688 -2.800919 -0.818108 2.795677
95 -67.425499 0.000013 0.000000 -0.137881 -0.135511 0.196270
96 -63.648499 0.000000 -0.000000 -0.014957 -0.094786 0.140702
97 -23.822102 0.002800 0.004294 0.000000 -0.000000 0.000000
98 2.687500 4.314000 -0.575599 2.285063 -0.069775 -1.561493
99 -43.191101 0.000000 0.000000 -0.031028 -0.065982 0.160229
100 -46.988201 0.002000 0.001000 0.000000 -0.000000 0.000000
101 34.245800 0.000000 0.000000 0.000416 0.028487 -0.139972
102 17.189655 -0.316893 0.297247 -0.123310 -0.001350 -0.046629
103 20.442005 0.053906 0.254509 -0.112236 -0.032748 -0.085050
104 22.181091 -0.207363 0.000000 0.235384 -0.073474 0.372472
105 22.713200 -10.955194 -4.711800 -0.065497 -0.343133 0.980447
106 -5.667200 0.000000 0.000000 0.036125 -0.136201 -0.580368
107 -5.935400 -0.005287 0.000187 0.000000 -0.000000 0.000000
108 6.464100 -3.692700 0.000000 -1.571840 0.000989 0.405053
109 19.717199 4.859002 7.932007 -2.037191 1.183303 -0.865244
110 -5.371100 0.000000 0.000000 -0.186114 -0.167466 -0.227911
111 -4.278900 0.000000 0.000000 0.009547 0.047203 -0.269372
112 2.284300 0.000000 0.000000 0.000000 -0.000000 0.000000
113 19.717199 -4.858900 7.932000 1.104403 -1.183303 -2.276349
114 5.371100 0.000000 0.000000 -0.186114 -0.167466 -0.227910
115 4.278900 0.000000 0.000000 0.009547 0.047203 -0.269372
116 2.284387 0.000000 0.000000 0.000000 -0.000000 0.000000
117 6.994201 0.000000 1.816306 -1.570485 -0.200777 -0.000031
118 6.701500 0.000000 0.000000 0.000000 -0.000000 0.143668
119 4.978200 0.000000 0.000000 0.000000 -0.000000 0.180994
120 4.007800 0.000000 0.000000 0.000000 -0.000000 0.167997
121 22.713200 -10.955201 4.711813 -0.065497 -0.343133 -2.161146
122 5.667094 -0.000000 0.000000 0.036125 -0.136201 -0.580368
123 5.935300 0.005207 -0.000100 0.000000 -0.000000 0.000000
124 24.611799 0.974700 6.975093 -1.571388 -0.952005 -1.450244
125 24.611885 0.974700 -6.975099 -1.571388 -0.952006 1.691349
126 0.0 0.0 0.0 0.0 0.0 0.0
127 0.0 0.0 0.0 0.0 0.0 0.0
128 0.0 0.0 0.0 0.0 0.0 0.0
129 0.0 0.0 0.0 0.0 0.0 0.0
130 0.0 0.0 0.0 0.0 0.0 0.0
time 5
0 0.000000 0.000000 0.000000 -0.000000 -0.000000 -0.000000
1 -0.255283 1.579105 229.107315 1.672847 -1.169526 1.478022
2 -6.922201 -22.143499 0.000000 -3.093810 -0.013794 -1.926371
3 26.628101 0.000000 0.000000 -0.025006 0.009073 -0.081429
4 26.630899 0.000000 0.000000 -0.024344 -0.005558 -0.167822
5 26.630802 0.000001 -0.000000 -0.021390 -0.025794 -0.150059
6 26.628901 -0.000000 0.000000 -0.012340 -0.039670 -0.186346
7 26.628899 0.000000 -0.000000 -0.006095 -0.032407 -0.097129
8 26.629299 -0.000100 0.000000 0.000000 -0.000000 0.000000
9 -0.943900 -2.280900 -22.926001 -0.223846 0.233074 -0.232024
10 -40.495602 0.000000 0.000000 -0.006034 -0.001160 1.658022
11 -20.836300 0.000000 0.000000 3.075040 0.067734 -1.922994
12 -15.965199 -0.178700 -5.285300 -1.705438 -1.126822 0.208685
13 -22.902399 0.000000 0.000000 0.066041 -0.035240 -0.320773
14 -4.707000 -0.421400 0.147200 -3.076464 0.202412 0.118220
15 -10.188800 0.000000 0.000000 0.066129 0.027850 0.980079
16 -3.984100 -1.091600 6.378000 2.934927 0.087610 0.090668
17 -8.776100 0.000000 0.000000 0.114986 0.030373 1.033229
18 -3.787000 0.101300 -5.082900 -2.810318 -0.024407 0.168726
19 -10.247900 0.000000 0.000000 -0.013920 -0.026312 1.112503
20 -0.943900 -2.280900 22.926001 -0.223173 0.131737 -2.955522
21 40.495499 0.000000 -0.000000 -0.007327 0.002998 1.616891
22 20.836300 0.000000 0.000000 3.107202 0.090373 -2.268358
23 22.902399 0.000000 0.000000 0.046049 -0.071763 0.107610
24 3.787000 -0.101300 5.082900 -2.755140 0.036316 -0.060113
25 10.247900 0.000000 0.000000 -0.013920 -0.026312 1.112503
26 3.984100 1.091600 -6.377900 3.010345 0.066718 -0.148965
27 8.776100 0.000000 0.000000 0.114986 0.030373 1.033229
28 4.707000 0.421400 -0.147100 3.127126 0.222625 -0.307062
29 10.188800 0.000000 0.000000 0.066129 0.027850 0.980079
30 15.965199 0.178700 5.285300 -1.705438 -1.126822 0.208685
31 1.448200 11.235700 0.000000 0.002883 0.028121 1.727613
32 13.714601 -0.411400 -0.158300 0.044809 -0.011762 0.000884
33 13.363499 -1.650000 -0.105300 0.016959 -0.012308 0.125713
34 30.534801 -1.024698 -0.048000 -0.027127 -0.000641 0.349410
35 18.809498 -0.101800 -26.364403 -2.804092 -0.040668 -1.467479
36 -48.046700 0.000000 0.000000 -0.000000 0.000000 1.267204
37 -32.732498 0.000000 0.000000 -0.332460 -0.004448 0.091036
38 -5.577400 3.896500 -9.552600 -1.630017 -0.372631 -0.300231
39 -13.046900 0.000000 0.000000 0.113071 0.035664 0.920611
40 -4.538900 1.838200 1.085000 3.116208 -0.042793 -1.174610
41 -9.326100 0.000000 0.000000 0.007885 0.026761 1.153664
42 -2.654400 1.236000 -5.967800 -2.968887 -0.038663 -0.826353
43 -10.456600 0.000000 0.000000 0.012874 0.025096 0.932913
44 -3.968400 2.196200 7.058900 2.973727 -0.018368 -1.490257
45 -8.804501 0.000000 0.000000 -0.014259 0.022665 0.883554
46 18.809500 -0.101700 26.364401 -2.939001 0.024071 1.646785
47 48.046700 0.000000 0.000000 -0.000000 -0.000000 1.265455
48 32.732399 0.000000 -0.000000 -0.131316 -0.343788 -0.270609
49 13.046900 0.000000 0.000000 0.075219 0.071647 0.825237
50 4.529300 -1.758800 -0.050100 3.095467 -0.097448 -0.672359
51 9.326100 0.000000 0.000000 0.045916 0.032701 0.812069
52 4.229000 -2.047300 -5.390500 -3.085586 -0.041978 -0.973261
53 8.804501 0.000000 0.000000 0.064079 0.023042 0.828598
54 2.654400 -1.236000 5.967800 -2.969668 -0.038372 -0.830949
55 10.456600 0.000000 0.000000 0.056577 0.017271 0.976297
56 5.577400 -3.896500 9.552600 -1.631494 -0.368079 -0.300516
57 11.464798 -18.909700 22.438299 0.135547 -0.882110 -2.268355
58 37.458698 0.000001 0.000001 0.296902 -0.167213 0.498323
59 83.706398 0.000001 -0.000102 1.591311 -0.284070 1.248975
60 -22.525200 -0.395100 18.987600 -2.814822 -0.746582 2.813657
61 67.425499 0.000000 0.000101 -0.130270 -0.142780 0.141869
62 63.648598 0.000000 0.000100 -0.004308 -0.105017 0.046672
63 23.821501 -0.002300 -0.003400 0.000000 -0.000000 0.000000
64 9.637900 -0.153500 24.446100 -0.273826 -1.265592 0.483023
65 65.739899 0.000000 -0.000100 -0.206574 -0.277193 0.131945
66 55.101002 0.000000 0.000000 -0.007700 -0.113283 0.066881
67 40.393002 -0.002400 -0.004600 0.000000 -0.000000 0.000000
68 -6.972700 -0.585600 25.377098 -2.423960 -1.248532 2.538396
69 64.544998 0.000000 0.000099 -0.141572 -0.222539 0.060565
70 51.973598 -0.000001 0.000100 -0.002274 -0.109398 0.019669
71 33.419098 -0.001900 -0.003600 0.000000 -0.000000 0.000000
72 -26.481201 -0.424300 7.812600 -3.019884 -0.351272 2.896372
73 64.186600 0.000000 0.000000 -0.069936 -0.089984 0.115063
74 55.590393 -0.000000 0.000000 -0.000845 -0.020614 0.045442
75 25.390699 -0.002500 -0.002400 0.000000 -0.000000 0.000000
76 -2.687500 -4.314000 0.575600 2.251041 0.045752 -1.484384
77 43.191101 0.000100 -0.000000 -0.025026 -0.041387 0.109777
78 46.987900 -0.001600 -0.000800 0.000000 -0.000000 0.000000
79 11.467400 -18.925299 -22.433199 0.135387 -0.882082 0.872659
80 -37.458698 0.000000 0.000000 0.297359 -0.167554 0.498536
81 -83.706497 0.000000 0.000000 1.591489 -0.284109 1.248875
82 26.481201 0.424300 -7.812601 -3.019879 -0.348119 2.896002
83 -64.186600 0.000000 0.000000 -0.069763 -0.090146 0.113039
84 -55.590401 0.000100 -0.000000 -0.000686 -0.020618 0.038686
85 -25.391001 0.002900 0.002800 0.000000 -0.000000 0.000000
86 6.972600 0.585700 -25.377100 -2.427228 -1.250292 2.541833
87 -64.544991 0.000099 0.000001 -0.140643 -0.223212 0.056095
88 -51.973602 0.000000 -0.000100 -0.002278 -0.109398 0.019756
89 -33.420601 0.002700 0.005200 0.000000 -0.000000 0.000000
90 -9.637900 0.153500 -24.446100 -0.269625 -1.266136 0.478627
91 -65.739899 -0.000000 0.000001 -0.203316 -0.279639 0.120066
92 -55.101002 0.000100 -0.000100 -0.006104 -0.113358 0.052848
93 -40.394199 0.002800 0.005300 0.000000 -0.000000 0.000000
94 22.525202 0.395200 -18.987701 -2.816589 -0.744887 2.816307
95 -67.425606 0.000100 -0.000001 -0.130103 -0.142955 0.140638
96 -63.648499 0.000000 -0.000000 -0.003886 -0.102031 0.043051
97 -23.822102 0.002800 0.004300 0.000000 -0.000000 0.000000
98 2.687500 4.314000 -0.575700 2.250971 0.045970 -1.484904
99 -43.191101 0.000000 0.000000 -0.025026 -0.041387 0.109777
100 -46.988201 0.002000 0.001000 0.000000 -0.000000 0.000000
101 34.238895 -0.001199 0.000000 -0.017083 0.037954 -0.600577
102 17.859201 -0.220400 0.557000 -0.231740 -0.000597 0.030225
103 21.201199 0.030200 0.392700 -0.176893 -0.073033 0.086637
104 23.315802 -0.338699 0.000000 0.419726 -0.083786 0.226305
105 22.713198 -10.955298 -4.711800 -0.065497 -0.343133 0.980447
106 -5.667200 0.000000 0.000000 0.036125 -0.136201 -0.580368
107 -5.935400 -0.005200 0.000200 0.000000 -0.000000 0.000000
108 6.464000 -3.692700 0.000000 -1.571275 0.000223 0.419414
109 19.717199 4.859000 7.932000 -2.037191 1.183303 -0.865245
110 -5.371100 0.000000 0.000000 -0.186114 -0.167466 -0.227911
111 -4.278900 0.000000 0.000000 0.009547 0.047203 -0.269372
112 2.284300 0.000000 0.000000 0.000000 -0.000000 0.000000
113 19.717199 -4.858900 7.932000 1.104403 -1.183303 -2.276350
114 5.371100 0.000000 0.000000 -0.186114 -0.167466 -0.227911
115 4.278900 0.000000 0.000000 0.009547 0.047203 -0.269372
116 2.284400 0.000000 0.000000 0.000000 -0.000000 0.000000
117 6.994200 0.000000 1.816200 -1.571108 -0.200777 0.000031
118 6.701500 0.000000 0.000000 0.000000 -0.000000 0.143668
119 4.978200 0.000000 0.000000 0.000000 -0.000000 0.180994
120 4.007800 0.000000 0.000000 0.000000 -0.000000 0.167997
121 22.713200 -10.955200 4.711800 -0.065497 -0.343133 -2.161146
122 5.667100 -0.000000 -0.000000 0.036125 -0.136201 -0.580368
123 5.935300 0.005200 -0.000100 0.000000 -0.000000 0.000000
124 24.611799 0.974700 6.975100 -1.571387 -0.952005 -1.450244
125 24.611898 0.974700 -6.975200 -1.571388 -0.952006 1.691349
126 0.0 0.0 0.0 0.0 0.0 0.0
127 0.0 0.0 0.0 0.0 0.0 0.0
128 0.0 0.0 0.0 0.0 0.0 0.0
129 0.0 0.0 0.0 0.0 0.0 0.0
130 0.0 0.0 0.0 0.0 0.0 0.0
end
