version 1
nodes
0 "Object001" -1
1 "Null 1" -1
2 "Bone_Root" -1
3 "Bone_Chest" 2
4 "Bone_Arm1_L" 3
5 "Bone_Arm2_L" 4
6 "Bone_Hand_L" 5
7 "Hand Left Ref" 6
8 "Bone_Head" 3
9 "Head Ref" 8
10 "Bone_Arm1_R" 3
11 "Bone_Arm2_R" 10
12 "Bone_Hand_R" 11
13 "Bone_Runeblade" 12
14 "Weapon Ref" 13
15 "Hand Right Ref" 12
16 "Sprite Ref" 3
17 "Bone_Pelvis" 2
18 "Bone_Leg1_R" 17
19 "Bone_Leg2_R" 18
20 "Bone_Foot_R" 19
21 "Foot Right Ref" 20
22 "Bone_Leg1_L" 17
23 "Bone_Leg2_L" 22
24 "Bone_Foot_L" 23
25 "Foot Left Ref" 24
26 "Null 26" -1
27 "Null 27" -1
28 "Null 28" -1
end
skeleton
time 0
0 0.000000 0.000000 0.000000 0.000000 -0.000000 0.000000
1 0.0 0.0 0.0 0.0 0.0 0.0
2 -1.485613 0.000000 241.307755 0.000000 -0.000000 0.000000
3 0.000000 9.214025 15.229761 0.527650 -0.000000 0.000000
4 29.901533 -6.014023 19.027479 -0.857866 -0.000000 0.000000
5 16.515511 8.615006 -32.829456 -0.972874 0.179067 -0.542585
6 4.457188 -7.128715 -48.400082 -0.022531 -0.094430 -0.108588
7 -1.748648 -1.262035 -3.912317 0.000000 -0.000000 0.000000
8 0.000000 -20.059681 49.784966 -0.130718 -0.000000 0.000000
9 -2.218673 7.605820 22.730026 0.000000 -0.000000 0.000000
10 -29.901348 -6.014023 19.025002 -1.041492 0.037469 0.044663
11 -16.470600 8.774510 -32.827263 -1.166486 0.288610 0.452167
12 -3.609771 -7.798383 -47.026985 0.113138 0.203092 0.059146
13 0.834980 -4.016113 -5.162220 0.083753 0.004369 0.049392
14 0.005769 -197.773972 -0.033946 0.000000 -0.000000 0.000000
15 0.834969 -4.092313 -5.162241 0.000000 -0.000000 0.000000
16 0.000000 120.872215 42.351246 0.000000 -0.000000 0.000000
17 -0.095610 14.113424 -18.528481 -0.185265 0.000000 -0.000000
18 -19.739086 -11.325928 -11.240520 -0.367006 0.000000 -0.000000
19 2.586502 -9.846305 -63.433296 1.780467 -0.023804 -0.016663
20 -3.713730 12.550152 -70.151382 0.557604 -0.022200 -0.009989
21 -5.364250 -10.348140 -20.245996 0.000000 -0.000000 0.000000
22 19.739243 -11.325928 -11.241550 -0.497492 0.018004 0.006142
23 -2.618113 -9.826518 -63.432465 1.039934 -0.012214 0.014818
24 3.087353 12.512326 -70.151237 1.055758 -0.012555 0.008312
25 1.360178 -10.341130 -20.246525 0.000000 -0.000000 0.000000
26 0.0 0.0 0.0 0.0 0.0 0.0
27 0.0 0.0 0.0 0.0 0.0 0.0
28 0.0 0.0 0.0 0.0 0.0 0.0
time 1
0 0.000000 0.000000 0.000000 0.000000 -0.000000 0.000000
1 0.0 0.0 0.0 0.0 0.0 0.0
2 -1.485613 0.000000 241.307755 0.000000 -0.000000 0.000000
3 0.000000 9.214025 15.229761 0.211648 -0.000000 0.000000
4 29.901533 -6.014027 19.027477 0.166148 -0.465594 -0.054145
5 16.515512 8.614996 -32.829475 -0.425073 0.155736 -0.534897
6 4.457183 -7.128710 -48.400093 0.011065 -0.042037 0.053115
7 -1.748652 -1.262039 -3.912313 0.000000 -0.000000 0.000000
8 0.000000 -20.059681 49.784966 -0.384473 -0.000000 0.000000
9 -2.218673 7.605824 22.730026 0.000000 -0.000000 0.000000
10 -29.901348 -6.014021 19.025019 0.012317 0.503826 0.121468
11 -16.470587 8.774511 -32.827282 -0.609433 -0.176631 0.656397
12 -3.609767 -7.798391 -47.026974 -0.002949 0.046330 -0.045235
13 0.834989 -4.016117 -5.162206 0.085764 0.002311 0.047787
14 0.005764 -197.774002 -0.033949 0.000000 -0.000000 0.000000
15 0.834969 -4.092321 -5.162221 0.000000 -0.000000 0.000000
16 0.000000 120.872223 42.351250 0.000000 -0.000000 0.000000
17 -0.095610 14.113424 -18.528481 -0.166450 -0.000000 -0.000000
18 -19.739088 -11.325930 -11.240502 -0.074493 -0.000000 0.000000
19 2.586502 -9.846297 -63.433285 1.206489 -0.019275 -0.007321
20 -3.713729 12.550149 -70.151367 0.510161 -0.018017 -0.009235
21 -5.364246 -10.348109 -20.245987 0.000000 -0.000000 0.000000
22 19.739244 -11.325932 -11.241515 -0.040015 0.001809 0.001427
23 -2.618110 -9.826509 -63.432487 0.618939 -0.002581 0.014124
24 3.087353 12.512322 -70.151237 0.845751 -0.010598 0.006296
25 1.360180 -10.341121 -20.246529 0.000000 -0.000000 0.000000
26 0.0 0.0 0.0 0.0 0.0 0.0
27 0.0 0.0 0.0 0.0 0.0 0.0
28 0.0 0.0 0.0 0.0 0.0 0.0
time 2
0 0.000000 0.000000 0.000000 0.000000 -0.000000 0.000000
1 0.0 0.0 0.0 0.0 0.0 0.0
2 -1.485613 -0.000001 245.453888 0.000000 -0.000000 0.000000
3 0.000000 9.214025 15.229761 -0.356938 -0.000000 0.000000
4 29.901533 -6.014022 19.027494 0.723928 -0.571080 -0.241946
5 16.515518 8.614997 -32.829475 -0.382218 0.477353 0.558332
6 4.457195 -7.128719 -48.400063 -0.021663 -0.020388 0.023370
7 -1.748647 -1.262035 -3.912315 0.000000 -0.000000 0.000000
8 0.000000 -20.059681 49.784966 -0.349126 -0.000000 0.000000
9 -2.218673 7.605826 22.730024 0.000000 -0.000000 0.000000
10 -29.901350 -6.014022 19.025002 0.589358 0.593690 0.321550
11 -16.470570 8.774500 -32.827263 -0.185554 -0.357171 -0.776320
12 -3.609767 -7.798389 -47.026974 -0.020264 -0.055347 -0.020948
13 0.834982 -4.016098 -5.162206 0.087782 0.000254 0.046175
14 0.005721 -197.774002 -0.033934 0.000000 -0.000000 0.000000
15 0.834981 -4.092312 -5.162234 0.000000 -0.000000 0.000000
16 0.000000 120.872215 42.351280 0.000000 -0.000000 0.000000
17 -0.095610 14.113424 -18.528481 -0.146722 -0.000000 0.000000
18 -19.739088 -11.325928 -11.240496 0.343492 0.000000 0.000000
19 2.586503 -9.846296 -63.433277 0.295461 -0.005327 0.000494
20 -3.713727 12.550154 -70.151375 0.725097 -0.015826 -0.013217
21 -5.364247 -10.348123 -20.245989 0.000000 -0.000000 0.000000
22 19.739244 -11.325929 -11.241516 0.343027 -0.012823 -0.014883
23 -2.618113 -9.826509 -63.432499 0.221727 0.005053 0.008566
24 3.087353 12.512324 -70.151253 0.725155 -0.009708 0.004988
25 1.360175 -10.341122 -20.246529 0.000000 -0.000000 0.000000
26 0.0 0.0 0.0 0.0 0.0 0.0
27 0.0 0.0 0.0 0.0 0.0 0.0
28 0.0 0.0 0.0 0.0 0.0 0.0
time 3
0 0.000000 0.000000 0.000000 0.000000 -0.000000 0.000000
1 0.0 0.0 0.0 0.0 0.0 0.0
2 -1.485613 0.000001 255.192474 0.000000 -0.000000 0.000000
3 0.000000 9.214025 15.229761 -0.356938 -0.000000 0.000000
4 29.901533 -6.014034 19.027493 0.723928 -0.571080 -0.241946
5 16.515511 8.614999 -32.829475 -0.324741 0.364323 0.450906
6 4.457187 -7.128711 -48.400078 -0.017916 -0.026844 0.017493
7 -1.748648 -1.262025 -3.912338 0.000000 -0.000000 0.000000
8 0.000000 -20.059679 49.784966 -0.349127 -0.000000 0.000000
9 -2.218673 7.605834 22.730032 0.000000 -0.000000 0.000000
10 -29.901350 -6.014032 19.025015 0.589358 0.593690 0.321550
11 -16.470577 8.774503 -32.827271 -0.171147 -0.275580 -0.619162
12 -3.609779 -7.798384 -47.026997 -0.017429 -0.047413 -0.018072
13 0.834984 -4.016105 -5.162220 0.089807 -0.001804 0.044557
14 0.005736 -197.774002 -0.033978 0.000000 -0.000000 0.000000
15 0.834963 -4.092319 -5.162234 0.000000 -0.000000 0.000000
16 0.000000 120.872215 42.351284 0.000000 -0.000000 0.000000
17 -0.095610 14.113424 -18.528481 -0.125762 -0.000000 0.000000
18 -19.739088 -11.325929 -11.240501 0.343492 0.000000 0.000000
19 2.586502 -9.846300 -63.433289 0.295461 -0.005327 0.000494
20 -3.713729 12.550162 -70.151375 0.725097 -0.015826 -0.013243
21 -5.364248 -10.348114 -20.245993 0.000000 -0.000000 0.000000
22 19.739244 -11.325931 -11.241521 0.343027 -0.012823 -0.014883
23 -2.618113 -9.826509 -63.432465 0.221729 0.005129 0.008479
24 3.087353 12.512326 -70.151245 0.725152 -0.009777 0.005034
25 1.360179 -10.341124 -20.246529 0.000000 -0.000000 0.000000
26 0.0 0.0 0.0 0.0 0.0 0.0
27 0.0 0.0 0.0 0.0 0.0 0.0
28 0.0 0.0 0.0 0.0 0.0 0.0
time 4
0 0.000000 0.000000 0.000000 0.000000 -0.000000 0.000000
1 0.0 0.0 0.0 0.0 0.0 0.0
2 -1.485613 -0.000002 264.931091 0.000000 -0.000000 0.000000
3 0.000000 9.214025 15.229761 -0.356938 -0.000000 0.000000
4 29.901533 -6.014021 19.027500 0.723928 -0.571079 -0.241946
5 16.515514 8.615003 -32.829487 -0.257136 0.257739 0.340793
6 4.457199 -7.128714 -48.400089 -0.014131 -0.033277 0.011592
7 -1.748660 -1.262043 -3.912316 0.000000 -0.000000 0.000000
8 0.000000 -20.059677 49.784969 -0.349127 -0.000000 0.000000
9 -2.218673 7.605841 22.730036 0.000000 -0.000000 0.000000
10 -29.901350 -6.014032 19.025013 0.589358 0.593690 0.321550
11 -16.470598 8.774506 -32.827282 -0.144212 -0.197186 -0.463991
12 -3.609772 -7.798385 -47.026966 -0.014575 -0.039491 -0.015176
13 0.834992 -4.016112 -5.162211 0.091840 -0.003863 0.042930
14 0.005750 -197.774002 -0.033934 0.000000 -0.000000 0.000000
15 0.834983 -4.092323 -5.162229 0.000000 -0.000000 0.000000
16 0.000000 120.872223 42.351284 0.000000 -0.000000 0.000000
17 -0.095610 14.113424 -18.528481 -0.104801 -0.000000 0.000000
18 -19.739088 -11.325931 -11.240489 0.343492 0.000000 0.000000
19 2.586503 -9.846300 -63.433296 0.295461 -0.005327 0.000494
20 -3.713729 12.550165 -70.151390 0.725097 -0.015826 -0.013269
21 -5.364249 -10.348120 -20.245989 0.000000 -0.000000 0.000000
22 19.739244 -11.325930 -11.241534 0.343027 -0.012823 -0.014883
23 -2.618111 -9.826522 -63.432503 0.221732 0.005205 0.008391
24 3.087353 12.512323 -70.151237 0.725148 -0.009846 0.005081
25 1.360176 -10.341132 -20.246527 0.000000 -0.000000 0.000000
26 0.0 0.0 0.0 0.0 0.0 0.0
27 0.0 0.0 0.0 0.0 0.0 0.0
28 0.0 0.0 0.0 0.0 0.0 0.0
time 5
0 0.000000 0.000000 0.000000 0.000000 -0.000000 0.000000
1 0.0 0.0 0.0 0.0 0.0 0.0
2 -1.485613 -0.000001 274.669647 0.000000 -0.000000 0.000000
3 0.000000 9.214025 15.229761 -0.356938 -0.000000 0.000000
4 29.901533 -6.014032 19.027477 0.723928 -0.571079 -0.241946
5 16.515524 8.615004 -32.829453 -0.179565 0.159063 0.226055
6 4.457188 -7.128709 -48.400085 -0.010306 -0.039686 0.005665
7 -1.748645 -1.262040 -3.912303 0.000000 -0.000000 0.000000
8 0.000000 -20.059683 49.784954 -0.349127 -0.000000 0.000000
9 -2.218673 7.605840 22.730017 0.000000 -0.000000 0.000000
10 -29.901350 -6.014032 19.025002 0.589358 0.593690 0.321550
11 -16.470551 8.774500 -32.827274 -0.105737 -0.123797 -0.308697
12 -3.609780 -7.798385 -47.026981 -0.011699 -0.031580 -0.012260
13 0.834992 -4.016112 -5.162227 0.093880 -0.005922 0.041297
14 0.005763 -197.774017 -0.033959 0.000000 -0.000000 0.000000
15 0.834972 -4.092321 -5.162252 0.000000 -0.000000 0.000000
16 0.000000 120.872215 42.351250 0.000000 -0.000000 0.000000
17 -0.095610 14.113424 -18.528481 -0.083841 -0.000000 0.000000
18 -19.739086 -11.325928 -11.240498 0.343492 0.000000 0.000000
19 2.586502 -9.846303 -63.433270 0.295461 -0.005327 0.000494
20 -3.713727 12.550145 -70.151382 0.725097 -0.015825 -0.013296
21 -5.364248 -10.348119 -20.245989 0.000000 -0.000000 0.000000
22 19.739244 -11.325927 -11.241532 0.343027 -0.012823 -0.014883
23 -2.618114 -9.826518 -63.432480 0.221735 0.005280 0.008304
24 3.087349 12.512327 -70.151245 0.725145 -0.009915 0.005128
25 1.360180 -10.341127 -20.246525 0.000000 -0.000000 0.000000
26 0.0 0.0 0.0 0.0 0.0 0.0
27 0.0 0.0 0.0 0.0 0.0 0.0
28 0.0 0.0 0.0 0.0 0.0 0.0
time 6
0 0.000000 0.000000 0.000000 0.000000 -0.000000 0.000000
1 0.0 0.0 0.0 0.0 0.0 0.0
2 -1.485613 -0.000001 284.408234 0.000000 -0.000000 0.000000
3 0.000000 9.214025 15.229761 -0.356938 -0.000000 0.000000
4 29.901533 -6.014032 19.027479 0.723928 -0.571079 -0.241946
5 16.515503 8.614997 -32.829453 -0.091993 0.069945 0.105202
6 4.457187 -7.128712 -48.400093 -0.006444 -0.046072 -0.000286
7 -1.748652 -1.262041 -3.912314 0.000000 -0.000000 0.000000
8 0.000000 -20.059675 49.784966 -0.349127 -0.000000 0.000000
9 -2.218673 7.605834 22.730019 0.000000 -0.000000 0.000000
10 -29.901350 -6.014031 19.025002 0.589358 0.593690 0.321550
11 -16.470581 8.774501 -32.827259 -0.056578 -0.057171 -0.151608
12 -3.609771 -7.798385 -47.026978 -0.008801 -0.023681 -0.009323
13 0.834975 -4.016115 -5.162219 0.095927 -0.007982 0.039656
14 0.005726 -197.773987 -0.033950 0.000000 -0.000000 0.000000
15 0.834958 -4.092318 -5.162248 0.000000 -0.000000 0.000000
16 0.000000 120.872215 42.351261 0.000000 -0.000000 0.000000
17 -0.095610 14.113424 -18.528481 -0.062880 -0.000000 0.000000
18 -19.739088 -11.325928 -11.240502 0.343492 0.000000 0.000000
19 2.586503 -9.846297 -63.433270 0.295461 -0.005327 0.000494
20 -3.713728 12.550152 -70.151390 0.725097 -0.015825 -0.013323
21 -5.364245 -10.348125 -20.245991 0.000000 -0.000000 0.000000
22 19.739244 -11.325928 -11.241532 0.343027 -0.012823 -0.014883
23 -2.618113 -9.826510 -63.432476 0.221738 0.005356 0.008217
24 3.087352 12.512322 -70.151237 0.725142 -0.009984 0.005175
25 1.360178 -10.341119 -20.246525 0.000000 -0.000000 0.000000
26 0.0 0.0 0.0 0.0 0.0 0.0
27 0.0 0.0 0.0 0.0 0.0 0.0
28 0.0 0.0 0.0 0.0 0.0 0.0
time 7
0 0.000000 0.000000 0.000000 0.000000 -0.000000 0.000000
1 0.0 0.0 0.0 0.0 0.0 0.0
2 -1.485613 -0.000001 294.146820 0.000000 -0.000000 0.000000
3 0.000000 9.214025 15.229761 -0.356938 -0.000000 0.000000
4 29.901533 -6.014034 19.027487 0.723928 -0.571080 -0.241946
5 16.515520 8.615006 -32.829456 0.005542 -0.007774 -0.022780
6 4.457186 -7.128714 -48.400089 -0.002543 -0.052434 -0.006264
7 -1.748659 -1.262034 -3.912335 0.000000 -0.000000 0.000000
8 0.000000 -20.059673 49.784966 -0.349127 -0.000000 0.000000
9 -2.218673 7.605841 22.730026 0.000000 -0.000000 0.000000
10 -29.901350 -6.014032 19.025005 0.589358 0.593690 0.321550
11 -16.470552 8.774506 -32.827259 0.002386 0.000966 0.008477
12 -3.609772 -7.798380 -47.026978 -0.005882 -0.015792 -0.006363
13 0.835000 -4.016112 -5.162208 0.097982 -0.010043 0.038007
14 0.005735 -197.774002 -0.033959 0.000000 -0.000000 0.000000
15 0.834980 -4.092317 -5.162227 0.000000 -0.000000 0.000000
16 0.000000 120.872223 42.351265 0.000000 -0.000000 0.000000
17 -0.095610 14.113424 -18.528481 -0.041920 -0.000000 0.000000
18 -19.739086 -11.325929 -11.240480 0.343492 0.000000 0.000000
19 2.586503 -9.846304 -63.433281 0.295461 -0.005327 0.000494
20 -3.713730 12.550152 -70.151382 0.725097 -0.015824 -0.013350
21 -5.364243 -10.348130 -20.245993 0.000000 -0.000000 0.000000
22 19.739244 -11.325928 -11.241511 0.343027 -0.012823 -0.014883
23 -2.618113 -9.826510 -63.432484 0.221740 0.005431 0.008130
24 3.087353 12.512313 -70.151245 0.725139 -0.010053 0.005221
25 1.360178 -10.341130 -20.246531 0.000000 -0.000000 0.000000
26 0.0 0.0 0.0 0.0 0.0 0.0
27 0.0 0.0 0.0 0.0 0.0 0.0
28 0.0 0.0 0.0 0.0 0.0 0.0
time 8
0 0.000000 0.000000 0.000000 0.000000 -0.000000 0.000000
1 0.0 0.0 0.0 0.0 0.0 0.0
2 -1.485613 -0.000001 303.885406 0.000000 -0.000000 0.000000
3 0.000000 9.214025 15.229762 -0.356938 -0.000000 0.000000
4 29.901533 -6.014033 19.027481 0.723928 -0.571079 -0.241946
5 16.515503 8.614997 -32.829475 0.007572 -0.009184 -0.025390
6 4.457207 -7.128705 -48.400059 0.001398 -0.058773 -0.012268
7 -1.748638 -1.262035 -3.912315 0.000000 -0.000000 0.000000
8 0.000000 -20.059671 49.784966 -0.349127 -0.000000 0.000000
9 -2.218673 7.605841 22.730009 0.000000 -0.000000 0.000000
10 -29.901350 -6.014032 19.025003 0.589358 0.593690 0.321550
11 -16.470564 8.774506 -32.827263 0.003646 0.002020 0.011682
12 -3.609791 -7.798380 -47.026997 -0.002940 -0.007912 -0.003382
13 0.834980 -4.016112 -5.162220 0.100044 -0.012104 0.036351
14 0.005760 -197.774002 -0.033958 0.000000 -0.000000 0.000000
15 0.835000 -4.092317 -5.162241 0.000000 -0.000000 0.000000
16 0.000000 120.872215 42.351265 0.000000 -0.000000 0.000000
17 -0.095610 14.113424 -18.528481 -0.020961 -0.000000 0.000000
18 -19.739088 -11.325928 -11.240502 0.343492 0.000000 0.000000
19 2.586503 -9.846292 -63.433266 0.295461 -0.005327 0.000494
20 -3.713730 12.550151 -70.151367 0.725097 -0.015824 -0.013377
21 -5.364250 -10.348146 -20.245991 0.000000 -0.000000 0.000000
22 19.739244 -11.325928 -11.241532 0.343027 -0.012823 -0.014883
23 -2.618113 -9.826518 -63.432465 0.221743 0.005507 0.008043
24 3.087351 12.512322 -70.151245 0.725135 -0.010121 0.005268
25 1.360177 -10.341129 -20.246531 0.000000 -0.000000 0.000000
26 0.0 0.0 0.0 0.0 0.0 0.0
27 0.0 0.0 0.0 0.0 0.0 0.0
28 0.0 0.0 0.0 0.0 0.0 0.0
time 9
0 0.000000 0.000000 0.000000 0.000000 -0.000000 0.000000
1 0.0 0.0 0.0 0.0 0.0 0.0
2 -1.485613 0.000003 313.623993 0.000000 -0.000000 0.000000
3 0.000000 9.214025 15.229761 -0.356938 -0.000000 0.000000
4 29.901533 -6.014043 19.027443 0.723928 -0.571079 -0.241946
5 16.515503 8.615007 -32.829475 0.007572 -0.009184 -0.025390
6 4.457187 -7.128705 -48.400078 0.005377 -0.065088 -0.018300
7 -1.748658 -1.262045 -3.912305 0.000000 -0.000000 0.000000
8 0.000000 -20.059681 49.784927 -0.349127 -0.000000 0.000000
9 -2.218673 7.605857 22.730024 0.000000 -0.000000 0.000000
10 -29.901350 -6.014032 19.025002 0.589358 0.593690 0.321550
11 -16.470566 8.774506 -32.827263 0.003646 0.002020 0.011682
12 -3.609790 -7.798374 -47.026958 0.000025 -0.000043 -0.000377
13 0.834980 -4.016112 -5.162240 0.102113 -0.014165 0.034688
14 0.005760 -197.773987 -0.033950 0.000000 -0.000000 0.000000
15 0.834980 -4.092317 -5.162240 0.000000 -0.000000 0.000000
16 0.000000 120.872223 42.351265 0.000000 -0.000000 0.000000
17 -0.095610 14.113424 -18.528481 -0.000000 -0.000000 0.000000
18 -19.739088 -11.325928 -11.240502 0.343492 0.000000 0.000000
19 2.586502 -9.846297 -63.433285 0.295461 -0.005327 0.000494
20 -3.713730 12.550146 -70.151375 0.725097 -0.015823 -0.013403
21 -5.364248 -10.348130 -20.245987 0.000000 -0.000000 0.000000
22 19.739244 -11.325928 -11.241532 0.343027 -0.012823 -0.014883
23 -2.618113 -9.826517 -63.432480 0.221746 0.005582 0.007955
24 3.087353 12.512312 -70.151237 0.725132 -0.010190 0.005315
25 1.360178 -10.341110 -20.246531 0.000000 -0.000000 0.000000
26 0.0 0.0 0.0 0.0 0.0 0.0
27 0.0 0.0 0.0 0.0 0.0 0.0
28 0.0 0.0 0.0 0.0 0.0 0.0
end
