version 1
nodes
0 "Object001" -1
1 "Null 1" -1
2 "Bone_Root" -1
3 "Bone_Chest" 2
4 "Bone_Arm1_L" 3
5 "Bone_Arm2_L" 4
6 "Bone_Hand_L" 5
7 "Hand Left Ref" 6
8 "Bone_Head" 3
9 "Head Ref" 8
10 "Bone_Arm1_R" 3
11 "Bone_Arm2_R" 10
12 "Bone_Hand_R" 11
13 "Bone_Runeblade" 12
14 "Weapon Ref" 13
15 "Hand Right Ref" 12
16 "Sprite Ref" 3
17 "Bone_Pelvis" 2
18 "Bone_Leg1_R" 17
19 "Bone_Leg2_R" 18
20 "Bone_Foot_R" 19
21 "Foot Right Ref" 20
22 "Bone_Leg1_L" 17
23 "Bone_Leg2_L" 22
24 "Bone_Foot_L" 23
25 "Foot Left Ref" 24
26 "Null 26" -1
27 "Null 27" -1
28 "Null 28" -1
end
skeleton
time 0
0 0.000000 0.000000 0.000000 0.000000 -0.000000 0.000000
1 0.0 0.0 0.0 0.0 0.0 0.0
2 -1.485613 -14.390855 268.230835 0.000000 -0.000000 0.000000
3 0.000000 9.214025 15.229761 0.017329 0.116209 -0.698020
4 29.901529 -6.014029 19.027491 -0.698339 -0.289611 0.115389
5 16.515511 8.614997 -32.829475 -0.519088 -0.289002 -0.665066
6 4.457165 -7.128710 -48.400078 -0.065073 -0.032156 0.101092
7 -1.748660 -1.262028 -3.912315 0.000000 -0.000000 0.000000
8 0.000000 -20.059679 49.784969 -0.048983 -0.065767 0.700744
9 -2.218671 7.605828 22.730024 0.000000 -0.000000 0.000000
10 -29.901348 -6.014026 19.025013 -0.165396 0.333100 -0.222971
11 -16.470585 8.774501 -32.827232 0.005809 -0.227299 -0.691825
12 -3.609773 -7.798377 -47.026993 -0.143324 -0.113953 -0.127145
13 0.834989 -4.016111 -5.162211 0.000000 -0.000000 -0.000000
14 0.005754 -197.773987 -0.033946 0.000000 -0.000000 0.000000
15 0.834973 -4.092311 -5.162241 0.000000 -0.000000 0.000000
16 0.000013 120.872223 42.351288 0.000000 -0.000000 0.000000
17 -0.095610 14.113424 -18.528481 -0.000000 -0.000000 -0.476101
18 -19.739079 -11.325927 -11.240502 0.036658 0.036935 0.009894
19 2.586502 -9.846298 -63.433296 0.099087 0.026887 0.002967
20 -3.713724 12.550145 -70.151360 0.425987 0.019427 -0.032001
21 -5.364244 -10.348128 -20.245987 0.000000 -0.000000 0.000000
22 19.641308 -11.098785 -12.750043 -0.578235 -0.054835 0.199620
23 -2.575897 -9.449793 -63.630138 0.915800 -0.106375 0.209889
24 3.087352 12.512325 -70.151260 0.517795 0.017756 0.013719
25 1.360178 -10.341128 -20.246527 0.000000 -0.000000 0.000000
26 0.0 0.0 0.0 0.0 0.0 0.0
27 0.0 0.0 0.0 0.0 0.0 0.0
28 0.0 0.0 0.0 0.0 0.0 0.0
time 1
0 0.000000 0.000000 0.000000 0.000000 -0.000000 0.000000
1 0.0 0.0 0.0 0.0 0.0 0.0
2 -1.485613 -32.893383 302.846191 0.000000 -0.000000 0.000000
3 0.000000 9.214025 15.229761 -0.041906 0.117875 -0.682788
4 29.901533 -6.014038 19.027500 -1.202644 -0.411133 0.261976
5 16.515503 8.614997 -32.829483 -0.479445 -0.546555 -0.684465
6 4.457187 -7.128705 -48.400078 -0.093557 0.091022 0.193843
7 -1.748658 -1.262055 -3.912315 0.000000 -0.000000 0.000000
8 0.000000 -20.059681 49.784946 -0.085919 -0.109987 0.642290
9 -2.218673 7.605830 22.730064 0.000000 -0.000000 0.000000
10 -29.901348 -6.014022 19.025021 -0.550231 0.663692 -0.665154
11 -16.470585 8.774510 -32.827248 -0.116695 -0.527144 -0.892124
12 -3.609772 -7.798367 -47.026997 -0.314075 -0.311306 -0.276132
13 0.834990 -4.016112 -5.162210 0.000000 -0.000000 -0.000000
14 0.005712 -197.774002 -0.033960 0.000000 -0.000000 0.000000
15 0.834970 -4.092312 -5.162240 0.000000 -0.000000 0.000000
16 0.000000 120.872231 42.351246 0.000000 -0.000000 0.000000
17 -0.095610 14.113424 -18.528481 0.000000 -0.000000 -0.486046
18 -19.739079 -11.325928 -11.240502 0.096549 0.066887 0.038448
19 2.586503 -9.846297 -63.433266 0.206745 0.060792 0.010067
20 -3.713732 12.550144 -70.151367 0.107017 0.032337 -0.078147
21 -5.364248 -10.348125 -20.245991 0.000000 -0.000000 0.000000
22 19.515396 -10.806753 -14.689560 -0.649344 -0.065885 0.347253
23 -2.521622 -8.965493 -63.884235 1.115913 -0.139135 0.158031
24 3.087350 12.512326 -70.151237 0.497051 -0.004263 0.023839
25 1.360175 -10.341140 -20.246525 0.000000 -0.000000 0.000000
26 0.0 0.0 0.0 0.0 0.0 0.0
27 0.0 0.0 0.0 0.0 0.0 0.0
28 0.0 0.0 0.0 0.0 0.0 0.0
time 2
0 0.000000 0.000000 0.000000 0.000000 -0.000000 0.000000
1 0.0 0.0 0.0 0.0 0.0 0.0
2 -1.485613 -51.415077 339.346710 0.000000 -0.000000 0.000000
3 0.000000 9.214025 15.229761 -0.101125 0.120434 -0.667678
4 29.901525 -6.014030 19.027483 -1.322962 -0.431150 0.303334
5 16.515501 8.615021 -32.829472 -0.468615 -0.595812 -0.689152
6 4.457176 -7.128713 -48.400078 0.011139 0.093057 0.187434
7 -1.748637 -1.262034 -3.912314 0.000000 -0.000000 0.000000
8 -0.000003 -20.059673 49.784988 -0.120445 -0.156316 0.585101
9 -2.218673 7.605825 22.730047 0.000000 -0.000000 0.000000
10 -29.901348 -6.014026 19.025023 -1.163955 0.766923 -1.329690
11 -16.470598 8.774509 -32.827244 -0.185186 -0.862694 -1.108564
12 -3.609773 -7.798384 -47.026997 -0.460357 -0.520692 -0.394622
13 0.834982 -4.016117 -5.162241 0.000000 -0.000000 -0.000000
14 0.005765 -197.774002 -0.033951 0.000000 -0.000000 0.000000
15 0.834962 -4.092310 -5.162260 0.000000 -0.000000 0.000000
16 0.000002 120.872231 42.351288 0.000000 -0.000000 0.000000
17 -0.095610 14.113424 -18.528481 -0.000000 -0.000000 -0.495991
18 -19.739334 -11.154892 -11.240967 0.157465 0.095087 0.068844
19 2.586504 -9.846294 -63.433277 0.314860 0.093719 0.020797
20 -3.713730 12.550144 -70.151375 -0.212226 0.030120 -0.126017
21 -5.364245 -10.348126 -20.246000 0.000000 -0.000000 0.000000
22 19.385557 -10.501469 -16.655695 -0.721392 -0.066349 0.495473
23 -2.467351 -8.481150 -64.138268 1.318311 -0.160945 0.100400
24 3.087351 12.512318 -70.151260 0.476077 -0.026067 0.034418
25 1.360178 -10.341125 -20.246527 0.000000 -0.000000 0.000000
26 0.0 0.0 0.0 0.0 0.0 0.0
27 0.0 0.0 0.0 0.0 0.0 0.0
28 0.0 0.0 0.0 0.0 0.0 0.0
time 3
0 0.000000 0.000000 0.000000 0.000000 -0.000000 0.000000
1 0.0 0.0 0.0 0.0 0.0 0.0
2 -1.485613 -68.671593 251.432739 0.000000 -0.000000 0.000000
3 0.000000 9.214025 15.229761 0.438619 -0.019085 0.223768
4 29.901533 -6.014022 19.027479 -1.130971 -0.401825 0.236589
5 16.515522 8.614997 -32.829475 -0.272689 -0.427344 -0.400232
6 4.457187 -7.128715 -48.400093 0.724250 0.037011 -0.092227
7 -1.748658 -1.262055 -3.912315 0.000000 -0.000000 0.000000
8 0.000000 -20.059681 49.784966 -0.336574 -0.102203 -0.238357
9 -2.218670 7.605815 22.730064 0.000000 -0.000000 0.000000
10 -29.901348 -6.014022 19.025003 -0.774839 0.911149 -0.343452
11 -16.470564 8.774500 -32.827236 -0.787589 0.011278 -0.753131
12 -3.609772 -7.798367 -47.026997 0.395002 -0.489729 -0.789208
13 0.834980 -4.016152 -5.162220 0.000000 -0.000000 -0.000000
14 0.005785 -197.773972 -0.033950 0.000000 -0.000000 0.000000
15 0.834965 -4.092330 -5.162248 0.000000 -0.000000 0.000000
16 0.000000 120.872231 42.351284 0.000000 -0.000000 0.000000
17 -0.095610 14.113424 -18.528481 0.004111 -0.014347 -0.166943
18 -19.722929 -22.272278 -11.210748 0.380177 0.225941 -0.143611
19 2.586508 -9.846297 -63.433285 0.584927 0.136279 0.060518
20 -3.713727 12.550133 -70.151375 -0.181058 -0.232364 0.101902
21 -5.364248 -10.348120 -20.245987 0.000000 -0.000000 0.000000
22 19.514812 -11.070522 -16.864988 -1.021616 0.066726 0.304626
23 -2.413078 -7.996808 -64.392365 1.522061 -0.170807 0.039384
24 3.087353 12.512322 -70.151237 0.351936 0.053662 0.088886
25 1.360180 -10.341125 -20.246525 0.000000 -0.000000 0.000000
26 0.0 0.0 0.0 0.0 0.0 0.0
27 0.0 0.0 0.0 0.0 0.0 0.0
28 0.0 0.0 0.0 0.0 0.0 0.0
time 4
0 0.000000 0.000000 0.000000 0.000000 -0.000000 0.000000
1 0.0 0.0 0.0 0.0 0.0 0.0
2 -1.485613 -64.362511 211.934708 0.000000 -0.000000 0.000000
3 0.000000 9.214025 15.229761 0.572642 -0.142888 0.425132
4 29.901531 -6.014030 19.027479 -0.921179 -0.355310 0.171525
5 16.515514 8.615002 -32.829460 -0.010603 -0.306645 -0.054177
6 4.457175 -7.128710 -48.400078 1.063994 0.045527 -0.246347
7 -1.748636 -1.262036 -3.912310 0.000000 -0.000000 0.000000
8 0.000001 -20.059679 49.784966 -0.392522 -0.084668 -0.431761
9 -2.218671 7.605831 22.730022 0.000000 -0.000000 0.000000
10 -29.901346 -6.014026 19.025002 -0.356164 0.689022 0.652370
11 -16.470589 8.774495 -32.827248 -0.442102 0.282204 -0.766321
12 -3.609762 -7.798370 -47.026981 1.132493 -0.043407 -0.326888
13 0.834989 -4.016121 -5.162211 0.000000 -0.000000 -0.000000
14 0.005740 -197.774002 -0.033963 0.000000 -0.000000 0.000000
15 0.834969 -4.092325 -5.162240 0.000000 -0.000000 0.000000
16 0.000001 120.872223 42.351265 0.000000 -0.000000 0.000000
17 -0.095610 14.113424 -18.528481 0.004348 -0.018322 -0.074754
18 -19.718634 -25.179903 -11.202847 0.405289 0.253085 -0.215429
19 2.586505 -9.846303 -63.433273 0.604179 0.132486 0.063363
20 -3.713724 12.550148 -70.151360 -0.029252 -0.323172 0.161884
21 -5.364248 -10.348122 -20.245985 0.000000 -0.000000 0.000000
22 19.608648 -11.358599 -15.994917 -1.075789 0.081207 0.178918
23 -2.424762 -8.101062 -64.337654 1.478482 -0.169850 0.054656
24 3.087353 12.512325 -70.151237 0.329730 0.085882 0.096466
25 1.360179 -10.341125 -20.246527 0.000000 -0.000000 0.000000
26 0.0 0.0 0.0 0.0 0.0 0.0
27 0.0 0.0 0.0 0.0 0.0 0.0
28 0.0 0.0 0.0 0.0 0.0 0.0
time 5
0 0.000000 0.000000 0.000000 0.000000 -0.000000 0.000000
1 0.0 0.0 0.0 0.0 0.0 0.0
2 -1.485613 -42.908344 221.725723 0.000000 -0.000000 0.000000
3 0.000000 9.214025 15.229761 0.440390 0.006522 0.063020
4 29.901525 -6.014022 19.027500 -0.718768 -0.297449 0.119134
5 16.515503 8.614997 -32.829475 -0.140326 -0.195491 -0.201570
6 4.457167 -7.128705 -48.400059 0.948057 -0.230454 -0.252080
7 -1.748638 -1.262030 -3.912315 0.000000 -0.000000 0.000000
8 0.000000 -20.059673 49.784946 -0.278377 -0.017610 -0.042571
9 -2.218673 7.605830 22.730024 0.000000 -0.000000 0.000000
10 -29.901348 -6.014018 19.025002 -0.280959 0.439084 0.444427
11 -16.470594 8.774495 -32.827248 -0.238560 0.197803 -0.664053
12 -3.609762 -7.798367 -47.027004 0.756741 -0.065709 -0.208451
13 0.835000 -4.016118 -5.162220 0.000000 -0.000000 -0.000000
14 0.005760 -197.773956 -0.033970 0.000000 -0.000000 0.000000
15 0.834980 -4.092325 -5.162258 0.000000 -0.000000 0.000000
16 0.000000 120.872223 42.351265 0.000000 -0.000000 0.000000
17 -0.095610 14.113424 -18.528481 0.003706 -0.012042 -0.205958
18 -19.725452 -20.561913 -11.215419 0.271135 0.163932 -0.158017
19 2.586505 -9.846297 -63.433277 0.406109 0.092756 0.033518
20 -3.713732 12.550151 -70.151367 0.214954 -0.229562 0.081309
21 -5.364248 -10.348125 -20.245991 0.000000 -0.000000 0.000000
22 19.652180 -11.347708 -14.410458 -0.893290 0.035646 0.155375
23 -2.489210 -8.676225 -64.035934 1.237557 -0.153282 0.129688
24 3.087353 12.512334 -70.151253 0.397445 0.067079 0.067824
25 1.360178 -10.341120 -20.246525 0.000000 -0.000000 0.000000
26 0.0 0.0 0.0 0.0 0.0 0.0
27 0.0 0.0 0.0 0.0 0.0 0.0
28 0.0 0.0 0.0 0.0 0.0 0.0
time 6
0 0.000000 0.000000 0.000000 0.000000 -0.000000 0.000000
1 0.0 0.0 0.0 0.0 0.0 0.0
2 -1.485613 -21.454178 231.516739 0.000000 -0.000000 0.000000
3 0.000000 9.214025 15.229761 0.263014 0.097873 -0.317429
4 29.901529 -6.014032 19.027491 -0.523020 -0.230896 0.080577
5 16.515509 8.615003 -32.829475 -0.337434 -0.117850 -0.425049
6 4.457187 -7.128720 -48.400066 0.450388 -0.212241 -0.098846
7 -1.748658 -1.262036 -3.912314 0.000000 -0.000000 0.000000
8 0.000000 -20.059683 49.784966 -0.147114 0.000800 0.352280
9 -2.218671 7.605827 22.730017 0.000000 -0.000000 0.000000
10 -29.901342 -6.014032 19.025003 -0.160629 0.207336 0.234114
11 -16.470589 8.774499 -32.827259 -0.047570 0.095676 -0.582376
12 -3.609766 -7.798380 -47.026981 0.380546 -0.042950 -0.089949
13 0.834991 -4.016112 -5.162209 0.000000 -0.000000 -0.000000
14 0.005772 -197.773972 -0.033960 0.000000 -0.000000 0.000000
15 0.834971 -4.092314 -5.162240 0.000000 -0.000000 0.000000
16 0.000003 120.872223 42.351265 0.000000 -0.000000 0.000000
17 -0.095610 14.113424 -18.528481 0.002248 -0.005899 -0.337159
18 -19.732267 -15.943919 -11.227961 0.133356 0.083127 -0.089695
19 2.586501 -9.846297 -63.433285 0.210157 0.048050 0.012186
20 -3.713730 12.550142 -70.151375 0.447799 -0.119716 0.026980
21 -5.364246 -10.348125 -20.245991 0.000000 -0.000000 0.000000
22 19.695713 -11.336816 -12.826006 -0.709707 -0.004919 0.123935
23 -2.553661 -9.251375 -63.734238 0.999281 -0.119594 0.198357
24 3.087353 12.512320 -70.151253 0.465420 0.050300 0.038084
25 1.360178 -10.341124 -20.246529 0.000000 -0.000000 0.000000
26 0.0 0.0 0.0 0.0 0.0 0.0
27 0.0 0.0 0.0 0.0 0.0 0.0
28 0.0 0.0 0.0 0.0 0.0 0.0
time 7
0 0.000000 0.000000 0.000000 0.000000 -0.000000 0.000000
1 0.0 0.0 0.0 0.0 0.0 0.0
2 -1.485613 0.000000 241.307755 0.000000 -0.000000 0.000000
3 0.000000 9.214025 15.229761 0.063408 0.115534 -0.709918
4 29.901531 -6.014032 19.027462 -0.332390 -0.158335 0.056333
5 16.515509 8.615007 -32.829475 -0.545319 -0.086434 -0.657654
6 4.457187 -7.128705 -48.400078 -0.034980 -0.125485 0.026199
7 -1.748638 -1.262045 -3.912305 0.000000 -0.000000 0.000000
8 0.000002 -20.059681 49.784966 -0.018515 -0.032873 0.747296
9 -2.218673 7.605830 22.730007 0.000000 -0.000000 0.000000
10 -29.901344 -6.014028 19.024982 0.002795 0.005612 0.002100
11 -16.470591 8.774497 -32.827263 0.133682 -0.019573 -0.521841
12 -3.609762 -7.798375 -47.026978 0.009888 0.021406 0.011868
13 0.835000 -4.016112 -5.162220 0.000000 -0.000000 -0.000000
14 0.005740 -197.774048 -0.033970 0.000000 -0.000000 0.000000
15 0.834980 -4.092317 -5.162240 0.000000 -0.000000 0.000000
16 0.000008 120.872231 42.351265 0.000000 -0.000000 0.000000
17 -0.095610 14.113424 -18.528481 0.000000 -0.000000 -0.468365
18 -19.739082 -11.325928 -11.240503 -0.009329 0.012474 -0.011049
19 2.586500 -9.846297 -63.433285 0.015539 0.000098 -0.000009
20 -3.713730 12.550150 -70.151382 0.673440 -0.000274 -0.000301
21 -5.364250 -10.348125 -20.245991 0.000000 -0.000000 0.000000
22 19.739243 -11.325922 -11.241533 -0.524493 -0.039089 0.085522
23 -2.618110 -9.826506 -63.432533 0.764915 -0.070941 0.256843
24 3.087348 12.512322 -70.151245 0.533714 0.035604 0.007340
25 1.360178 -10.341130 -20.246531 0.000000 -0.000000 0.000000
26 0.0 0.0 0.0 0.0 0.0 0.0
27 0.0 0.0 0.0 0.0 0.0 0.0
28 0.0 0.0 0.0 0.0 0.0 0.0
end
