version 1
nodes
0 "Object001" -1
1 "Null 1" -1
2 "Bone_Root" -1
3 "Bone_Chest" 2
4 "Bone_Arm1_L" 3
5 "Bone_Arm2_L" 4
6 "Bone_Hand_L" 5
7 "Hand Left Ref" 6
8 "Bone_Head" 3
9 "Head Ref" 8
10 "Bone_Arm1_R" 3
11 "Bone_Arm2_R" 10
12 "Bone_Hand_R" 11
13 "Bone_Runeblade" 12
14 "Weapon Ref" 13
15 "Hand Right Ref" 12
16 "Sprite Ref" 3
17 "Bone_Pelvis" 2
18 "Bone_Leg1_R" 17
19 "Bone_Leg2_R" 18
20 "Bone_Foot_R" 19
21 "Foot Right Ref" 20
22 "Bone_Leg1_L" 17
23 "Bone_Leg2_L" 22
24 "Bone_Foot_L" 23
25 "Foot Left Ref" 24
26 "Null 26" -1
27 "Null 27" -1
28 "Null 28" -1
end
skeleton
time 0
0 0.000000 0.000000 0.000000 0.000000 -0.000000 0.000000
1 0.0 0.0 0.0 0.0 0.0 0.0
2 -1.485613 -0.000001 243.673950 0.523599 -0.000000 0.000000
3 0.000000 9.214019 15.229777 -0.258102 -0.188453 -0.332426
4 29.901535 -6.014028 19.027460 -0.692886 -0.202067 0.129276
5 16.515512 8.614988 -32.829456 -0.991345 -0.037691 -0.968484
6 4.457187 -7.128698 -48.400085 -0.047737 -0.167755 0.007568
7 -1.748657 -1.262056 -3.912317 0.000000 -0.000000 0.000000
8 0.000000 -20.059679 49.784946 -0.277695 0.096021 0.347046
9 -2.218670 7.605825 22.730007 0.000000 -0.000000 0.000000
10 -29.901354 -6.014027 19.024984 -0.097608 0.374583 -0.148181
11 -16.470604 8.774500 -32.827248 0.130049 0.111681 -0.010859
12 -5.151136 -4.260835 -48.949833 1.471133 0.271421 0.328891
13 0.835000 -4.016123 -5.162220 0.059007 0.192133 -0.059208
14 0.005740 -197.773956 -0.033971 0.000000 -0.000000 0.000000
15 0.834979 -4.092313 -5.162240 0.000000 -0.000000 0.000000
16 -0.000000 120.872231 42.351265 0.000000 -0.000000 0.000000
17 -0.095610 14.113435 -18.528481 -0.009967 0.186391 -0.113724
18 -19.739084 -11.325922 -11.240481 -0.844878 -0.260908 -0.043535
19 2.586498 -9.846297 -63.433285 1.160453 -0.175594 -0.054914
20 -3.713727 12.550143 -70.151382 0.008277 -0.003636 -0.045112
21 -5.364248 -10.348130 -20.245996 0.000000 -0.000000 0.000000
22 19.739246 -11.325932 -11.241531 -0.343859 -0.072626 0.181232
23 -2.618108 -9.826521 -63.432503 0.630393 0.004101 0.027289
24 3.087347 12.512312 -70.151237 0.001406 -0.010960 0.016369
25 1.360177 -10.341120 -20.246525 0.000000 -0.000000 0.000000
26 0.0 0.0 0.0 0.0 0.0 0.0
27 0.0 0.0 0.0 0.0 0.0 0.0
28 0.0 0.0 0.0 0.0 0.0 0.0
time 1
0 0.000000 0.000000 0.000000 0.000000 -0.000000 0.000000
1 0.0 0.0 0.0 0.0 0.0 0.0
2 -1.485613 -0.000001 246.619629 0.523599 -0.000000 0.000000
3 0.000000 9.214020 15.229761 -0.268153 -0.198661 -0.346191
4 29.901535 -6.014022 19.027460 -0.724889 -0.208894 0.139253
5 16.515514 8.615005 -32.829494 -0.957891 -0.069323 -0.958718
6 4.457169 -7.128707 -48.400078 -0.047737 -0.167755 0.007568
7 -1.748659 -1.262036 -3.912316 0.000000 -0.000000 0.000000
8 -0.000002 -20.059671 49.784962 -0.276394 0.098323 0.361986
9 -2.218670 7.605829 22.730061 0.000000 -0.000000 0.000000
10 -29.901350 -6.014023 19.025002 -0.097608 0.374583 -0.148181
11 -16.470594 8.774501 -32.827248 0.130049 0.111681 -0.010859
12 -5.151122 -4.260831 -48.949841 1.474952 0.253102 0.338076
13 0.835000 -4.016152 -5.162220 0.059007 0.192133 -0.059208
14 0.005725 -197.773987 -0.033957 0.000000 -0.000000 0.000000
15 0.834961 -4.092328 -5.162241 0.000000 -0.000000 0.000000
16 0.000001 120.872200 42.351242 0.000000 -0.000000 0.000000
17 -0.095610 14.113425 -18.528482 -0.010916 0.194622 -0.118891
18 -19.739084 -11.325923 -11.240503 -0.870839 -0.269028 -0.040967
19 2.586505 -9.846310 -63.433277 1.281257 -0.178106 -0.066516
20 -3.713732 12.550144 -70.151390 0.008277 -0.003636 -0.045112
21 -5.364244 -10.348130 -20.245987 0.000000 -0.000000 0.000000
22 19.739244 -11.325912 -11.241496 -0.377112 -0.073778 0.185971
23 -2.618108 -9.826521 -63.432503 0.687167 0.005952 0.029871
24 3.087353 12.512324 -70.151237 0.001406 -0.010960 0.016369
25 1.360178 -10.341138 -20.246531 0.000000 -0.000000 0.000000
26 0.0 0.0 0.0 0.0 0.0 0.0
27 0.0 0.0 0.0 0.0 0.0 0.0
28 0.0 0.0 0.0 0.0 0.0 0.0
time 2
0 0.000000 0.000000 0.000000 0.000000 -0.000000 0.000000
1 0.0 0.0 0.0 0.0 0.0 0.0
2 -1.485613 -0.000001 249.592468 0.523599 -0.000000 0.000000
3 0.000000 9.214020 15.229761 -0.278080 -0.209002 -0.359879
4 29.901533 -6.014024 19.027472 -0.757003 -0.215403 0.149461
5 16.515512 8.614996 -32.829475 -0.924670 -0.101252 -0.949998
6 4.457186 -7.128709 -48.400082 -0.047737 -0.167755 0.007568
7 -1.748638 -1.262039 -3.912314 0.000000 -0.000000 0.000000
8 0.000000 -20.059677 49.784977 -0.275058 0.100605 0.376928
9 -2.218673 7.605834 22.729994 0.000000 -0.000000 0.000000
10 -29.901354 -6.014022 19.025003 -0.097608 0.374583 -0.148181
11 -16.470587 8.774505 -32.827278 0.130048 0.111681 -0.010859
12 -5.151139 -4.260825 -48.949825 1.478579 0.234752 0.347146
13 0.835000 -4.016124 -5.162229 0.059007 0.192133 -0.059208
14 0.005757 -197.774002 -0.033961 0.000000 -0.000000 0.000000
15 0.834965 -4.092312 -5.162247 0.000000 -0.000000 0.000000
16 0.000006 120.872215 42.351250 0.000000 -0.000000 0.000000
17 -0.095610 14.113424 -18.528481 -0.011910 0.202847 -0.124075
18 -19.739079 -11.325924 -11.240500 -0.896880 -0.277079 -0.038177
19 2.586505 -9.846296 -63.433273 1.402155 -0.179224 -0.078348
20 -3.713738 12.550138 -70.151390 0.008277 -0.003636 -0.045112
21 -5.364248 -10.348130 -20.245985 0.000000 -0.000000 0.000000
22 19.739244 -11.325921 -11.241529 -0.410371 -0.074772 0.190745
23 -2.618107 -9.826513 -63.432510 0.743943 0.007655 0.032554
24 3.087352 12.512327 -70.151245 0.001406 -0.010960 0.016369
25 1.360177 -10.341139 -20.246531 0.000000 -0.000000 0.000000
26 0.0 0.0 0.0 0.0 0.0 0.0
27 0.0 0.0 0.0 0.0 0.0 0.0
28 0.0 0.0 0.0 0.0 0.0 0.0
time 3
0 0.000000 0.000000 0.000000 0.000000 -0.000000 0.000000
1 0.0 0.0 0.0 0.0 0.0 0.0
2 -1.485613 -0.000000 247.488831 0.523599 -0.000000 0.000000
3 0.000000 9.214020 15.229761 -0.287884 -0.219476 -0.373492
4 29.901531 -6.014027 19.027454 -0.789242 -0.221591 0.159898
5 16.515511 8.615001 -32.829460 -0.891630 -0.133426 -0.942324
6 4.457181 -7.128699 -48.400078 -0.047737 -0.167755 0.007568
7 -1.748635 -1.262037 -3.912319 0.000000 -0.000000 0.000000
8 0.000000 -20.059673 49.784966 -0.273688 0.102867 0.391879
9 -2.218674 7.605832 22.730034 0.000000 -0.000000 0.000000
10 -29.901354 -6.014019 19.024996 -0.097608 0.374583 -0.148181
11 -16.470602 8.774501 -32.827263 0.130049 0.111681 -0.010859
12 -5.151124 -4.260827 -48.949848 1.482020 0.216370 0.356111
13 0.834978 -4.016136 -5.162222 0.059007 0.192133 -0.059208
14 0.005709 -197.774017 -0.033955 0.000000 -0.000000 0.000000
15 0.834959 -4.092316 -5.162242 0.000000 -0.000000 0.000000
16 -0.000000 120.872231 42.351261 0.000000 -0.000000 0.000000
17 -0.095610 14.113431 -18.528481 -0.012949 0.211068 -0.129278
18 -19.739084 -11.325925 -11.240481 -0.923004 -0.285056 -0.035162
19 2.586502 -9.846294 -63.433296 1.419626 -0.179844 -0.081326
20 -3.713726 12.550148 -70.151390 0.008277 -0.003636 -0.045112
21 -5.364246 -10.348128 -20.245989 0.000000 -0.000000 0.000000
22 19.739248 -11.325935 -11.241511 -0.443638 -0.075606 0.195550
23 -2.618108 -9.826521 -63.432491 0.800725 0.009202 0.035329
24 3.087352 12.512314 -70.151237 0.001406 -0.010960 0.016369
25 1.360178 -10.341131 -20.246523 0.000000 -0.000000 0.000000
26 0.0 0.0 0.0 0.0 0.0 0.0
27 0.0 0.0 0.0 0.0 0.0 0.0
28 0.0 0.0 0.0 0.0 0.0 0.0
time 4
0 0.000000 0.000000 0.000000 0.000000 -0.000000 0.000000
1 0.0 0.0 0.0 0.0 0.0 0.0
2 -1.485613 -0.000001 244.543167 0.523599 -0.000000 0.000000
3 0.000000 9.214020 15.229768 -0.297564 -0.230078 -0.387033
4 29.901537 -6.014022 19.027475 -0.821620 -0.227452 0.170558
5 16.515512 8.615002 -32.829475 -0.858718 -0.165797 -0.935702
6 4.457188 -7.128709 -48.400085 -0.047737 -0.167755 0.007568
7 -1.748637 -1.262038 -3.912314 0.000000 -0.000000 0.000000
8 0.000000 -20.059679 49.784966 -0.272283 0.105109 0.406843
9 -2.218673 7.605826 22.730030 0.000000 -0.000000 0.000000
10 -29.901350 -6.014026 19.025009 -0.097608 0.374583 -0.148181
11 -16.470602 8.774500 -32.827251 0.130048 0.111681 -0.010859
12 -5.151119 -4.260830 -48.949841 1.485281 0.197960 0.364976
13 0.835000 -4.016137 -5.162213 0.059007 0.192133 -0.059208
14 0.005738 -197.773987 -0.033966 0.000000 -0.000000 0.000000
15 0.834959 -4.092319 -5.162233 0.000000 -0.000000 0.000000
16 0.000002 120.872238 42.351276 0.000000 -0.000000 0.000000
17 -0.095610 14.113430 -18.528479 -0.014034 0.219283 -0.134497
18 -19.739082 -11.325929 -11.240482 -0.949218 -0.292957 -0.031922
19 2.586502 -9.846293 -63.433277 1.419185 -0.180519 -0.082761
20 -3.713728 12.550150 -70.151405 0.008277 -0.003636 -0.045112
21 -5.364249 -10.348133 -20.245993 0.000000 -0.000000 0.000000
22 19.739243 -11.325929 -11.241511 -0.476913 -0.076282 0.200381
23 -2.618110 -9.826522 -63.432495 0.857511 0.010589 0.038187
24 3.087352 12.512324 -70.151245 0.001406 -0.010960 0.016369
25 1.360178 -10.341125 -20.246523 0.000000 -0.000000 0.000000
26 0.0 0.0 0.0 0.0 0.0 0.0
27 0.0 0.0 0.0 0.0 0.0 0.0
28 0.0 0.0 0.0 0.0 0.0 0.0
time 5
0 0.000000 0.000000 0.000000 0.000000 -0.000000 0.000000
1 0.0 0.0 0.0 0.0 0.0 0.0
2 -1.485613 -0.000001 241.525055 0.523599 -0.000000 0.000000
3 0.000000 9.214020 15.229769 -0.292570 -0.224575 -0.380034
4 29.901535 -6.014026 19.027460 -0.804844 -0.224460 0.165013
5 16.515507 8.615008 -32.829475 -0.875738 -0.149022 -0.938996
6 4.457166 -7.128697 -48.400082 -0.047737 -0.167755 0.007568
7 -1.748636 -1.262039 -3.912318 0.000000 -0.000000 0.000000
8 0.000001 -20.059681 49.784966 -0.270844 0.107332 0.421827
9 -2.218670 7.605830 22.730005 0.000000 -0.000000 0.000000
10 -29.901352 -6.014028 19.025002 -0.097608 0.374583 -0.148181
11 -16.470606 8.774497 -32.827251 0.130049 0.111681 -0.010859
12 -5.151108 -4.260832 -48.949825 1.488364 0.179521 0.373749
13 0.835010 -4.016140 -5.162214 0.059007 0.192133 -0.059208
14 0.005742 -197.773987 -0.033971 0.000000 -0.000000 0.000000
15 0.834983 -4.092323 -5.162235 0.000000 -0.000000 0.000000
16 -0.000000 120.872215 42.351265 0.000000 -0.000000 0.000000
17 -0.095610 14.113436 -18.528490 -0.013467 0.215032 -0.131793
18 -19.739088 -11.325922 -11.240480 -0.975526 -0.300775 -0.028460
19 2.586503 -9.846297 -63.433285 1.373348 -0.180302 -0.078027
20 -3.713735 12.550145 -70.151390 0.008277 -0.003636 -0.045112
21 -5.364248 -10.348125 -20.245989 0.000000 -0.000000 0.000000
22 19.739248 -11.325927 -11.241533 -0.510196 -0.076796 0.205233
23 -2.618108 -9.826518 -63.432487 0.914300 0.011812 0.041119
24 3.087353 12.512313 -70.151237 0.001406 -0.010960 0.016369
25 1.360178 -10.341136 -20.246523 0.000000 -0.000000 0.000000
26 0.0 0.0 0.0 0.0 0.0 0.0
27 0.0 0.0 0.0 0.0 0.0 0.0
28 0.0 0.0 0.0 0.0 0.0 0.0
time 6
0 0.000000 0.000000 0.000000 0.000000 -0.000000 0.000000
1 0.0 0.0 0.0 0.0 0.0 0.0
2 -1.485613 -0.000001 243.963684 0.523599 -0.000000 0.000000
3 0.000000 9.214020 15.229769 -0.285622 -0.217036 -0.370343
4 29.901535 -6.014022 19.027449 -0.781755 -0.220186 0.157458
5 16.515514 8.615003 -32.829475 -0.899275 -0.125948 -0.944007
6 4.457196 -7.128704 -48.400085 -0.047737 -0.167755 0.007568
7 -1.748651 -1.262053 -3.912315 0.000000 -0.000000 0.000000
8 -0.000002 -20.059673 49.784958 -0.272004 0.105548 0.409789
9 -2.218671 7.605825 22.730011 0.000000 -0.000000 0.000000
10 -29.901352 -6.014022 19.024988 -0.097608 0.374583 -0.148181
11 -16.470598 8.774500 -32.827263 0.130048 0.111681 -0.010859
12 -5.151131 -4.260825 -48.949829 1.485902 0.194334 0.366709
13 0.835008 -4.016142 -5.162220 0.059007 0.192133 -0.059208
14 0.005757 -197.773987 -0.033944 0.000000 -0.000000 0.000000
15 0.834969 -4.092326 -5.162240 0.000000 -0.000000 0.000000
16 0.000005 120.872223 42.351257 0.000000 -0.000000 0.000000
17 -0.095610 14.113435 -18.528481 -0.012704 0.209162 -0.128069
18 -19.739082 -11.325915 -11.240480 -0.954385 -0.294502 -0.031259
19 2.586502 -9.846297 -63.433292 1.321652 -0.179704 -0.072520
20 -3.713731 12.550144 -70.151398 0.008277 -0.003636 -0.045112
21 -5.364246 -10.348131 -20.245991 0.000000 -0.000000 0.000000
22 19.739248 -11.325921 -11.241511 -0.483459 -0.076396 0.201334
23 -2.618109 -9.826519 -63.432495 0.868682 0.010843 0.038758
24 3.087352 12.512326 -70.151230 0.001406 -0.010960 0.016369
25 1.360178 -10.341124 -20.246529 0.000000 -0.000000 0.000000
26 0.0 0.0 0.0 0.0 0.0 0.0
27 0.0 0.0 0.0 0.0 0.0 0.0
28 0.0 0.0 0.0 0.0 0.0 0.0
time 7
0 0.000000 0.000000 0.000000 0.000000 -0.000000 0.000000
1 0.0 0.0 0.0 0.0 0.0 0.0
2 -1.485613 -0.000000 246.909363 0.523599 -0.000000 0.000000
3 0.000000 9.214020 15.229761 -0.278611 -0.209563 -0.360614
4 29.901537 -6.014027 19.027445 -0.758735 -0.215745 0.150018
5 16.515516 8.614989 -32.829491 -0.922884 -0.102979 -0.949556
6 4.457171 -7.128711 -48.400078 -0.047737 -0.167755 0.007568
7 -1.748658 -1.262043 -3.912308 0.000000 -0.000000 0.000000
8 0.000000 -20.059679 49.784958 -0.273415 0.103309 0.394822
9 -2.218673 7.605824 22.730040 0.000000 -0.000000 0.000000
10 -29.901352 -6.014022 19.025009 -0.097608 0.374583 -0.148181
11 -16.470598 8.774501 -32.827263 0.130048 0.111681 -0.010859
12 -5.151125 -4.260828 -48.949829 1.482676 0.212751 0.357862
13 0.834999 -4.016138 -5.162216 0.059007 0.192133 -0.059208
14 0.005739 -197.773972 -0.033948 0.000000 -0.000000 0.000000
15 0.834959 -4.092300 -5.162242 0.000000 -0.000000 0.000000
16 0.000009 120.872223 42.351246 0.000000 -0.000000 0.000000
17 -0.095610 14.113434 -18.528494 -0.011965 0.203290 -0.124355
18 -19.739084 -11.325925 -11.240481 -0.928154 -0.286617 -0.034542
19 2.586501 -9.846299 -63.433277 1.269980 -0.178827 -0.067053
20 -3.713728 12.550154 -70.151382 0.008277 -0.003636 -0.045112
21 -5.364249 -10.348122 -20.245983 0.000000 -0.000000 0.000000
22 19.739248 -11.325921 -11.241518 -0.450183 -0.075752 0.196499
23 -2.618114 -9.826520 -63.432480 0.811895 0.009488 0.035885
24 3.087351 12.512322 -70.151237 0.001406 -0.010960 0.016369
25 1.360175 -10.341127 -20.246527 0.000000 -0.000000 0.000000
26 0.0 0.0 0.0 0.0 0.0 0.0
27 0.0 0.0 0.0 0.0 0.0 0.0
28 0.0 0.0 0.0 0.0 0.0 0.0
time 8
0 0.000000 0.000000 0.000000 0.000000 -0.000000 0.000000
1 0.0 0.0 0.0 0.0 0.0 0.0
2 -1.485613 -0.000002 249.936523 0.523599 -0.000000 0.000000
3 0.000000 9.214020 15.229761 -0.271537 -0.202157 -0.350847
4 29.901535 -6.014022 19.027481 -0.735780 -0.211140 0.142693
5 16.515524 8.615005 -32.829483 -0.946584 -0.080135 -0.955638
6 4.457192 -7.128715 -48.400078 -0.047737 -0.167755 0.007568
7 -1.748636 -1.262028 -3.912313 0.000000 -0.000000 0.000000
8 0.000000 -20.059679 49.784988 -0.274792 0.101052 0.379868
9 -2.218673 7.605830 22.729982 0.000000 -0.000000 0.000000
10 -29.901348 -6.014023 19.025023 -0.097608 0.374583 -0.148181
11 -16.470594 8.774501 -32.827263 0.130049 0.111681 -0.010859
12 -5.151123 -4.260822 -48.949833 1.479271 0.231138 0.348918
13 0.835000 -4.016141 -5.162211 0.059007 0.192133 -0.059208
14 0.005756 -197.773972 -0.033971 0.000000 -0.000000 0.000000
15 0.834977 -4.092330 -5.162240 0.000000 -0.000000 0.000000
16 0.000002 120.872231 42.351273 0.000000 -0.000000 0.000000
17 -0.095610 14.113424 -18.528481 -0.011249 0.197416 -0.120650
18 -19.739079 -11.325918 -11.240498 -0.902012 -0.278654 -0.037601
19 2.586503 -9.846297 -63.433266 1.218326 -0.177674 -0.061641
20 -3.713727 12.550144 -70.151382 0.008277 -0.003636 -0.045112
21 -5.364246 -10.348136 -20.245993 0.000000 -0.000000 0.000000
22 19.739248 -11.325921 -11.241533 -0.416915 -0.074948 0.191687
23 -2.618110 -9.826524 -63.432487 0.755113 0.007972 0.033093
24 3.087350 12.512329 -70.151245 0.001406 -0.010960 0.016369
25 1.360178 -10.341129 -20.246521 0.000000 -0.000000 0.000000
26 0.0 0.0 0.0 0.0 0.0 0.0
27 0.0 0.0 0.0 0.0 0.0 0.0
28 0.0 0.0 0.0 0.0 0.0 0.0
time 9
0 0.000000 0.000000 0.000000 0.000000 -0.000000 0.000000
1 0.0 0.0 0.0 0.0 0.0 0.0
2 -1.485613 -0.000000 247.199097 0.523599 -0.000000 0.000000
3 0.000000 9.214020 15.229761 -0.264401 -0.194820 -0.341042
4 29.901531 -6.014022 19.027477 -0.712884 -0.206373 0.135487
5 16.515505 8.615007 -32.829491 -0.970395 -0.057433 -0.962254
6 4.457166 -7.128696 -48.400085 -0.047737 -0.167755 0.007568
7 -1.748638 -1.262037 -3.912312 0.000000 -0.000000 0.000000
8 0.000003 -20.059677 49.784966 -0.276135 0.098774 0.364925
9 -2.218670 7.605829 22.730017 0.000000 -0.000000 0.000000
10 -29.901350 -6.014018 19.025003 -0.097608 0.374583 -0.148181
11 -16.470594 8.774502 -32.827255 0.130049 0.111681 -0.010859
12 -5.151122 -4.260834 -48.949860 1.475680 0.249494 0.339869
13 0.834981 -4.016131 -5.162219 0.059007 0.192133 -0.059208
14 0.005776 -197.774002 -0.033949 0.000000 -0.000000 0.000000
15 0.834960 -4.092314 -5.162230 0.000000 -0.000000 0.000000
16 0.000002 120.872238 42.351284 0.000000 -0.000000 0.000000
17 -0.095610 14.113434 -18.528498 -0.010555 0.191539 -0.116953
18 -19.739079 -11.325923 -11.240502 -0.875955 -0.270616 -0.040436
19 2.586500 -9.846300 -63.433277 1.166687 -0.176247 -0.056298
20 -3.713733 12.550162 -70.151390 0.008277 -0.003636 -0.045112
21 -5.364245 -10.348121 -20.245987 0.000000 -0.000000 0.000000
22 19.739250 -11.325923 -11.241533 -0.383654 -0.073986 0.186907
23 -2.618110 -9.826515 -63.432503 0.698336 0.006299 0.030391
24 3.087350 12.512324 -70.151253 0.001406 -0.010960 0.016369
25 1.360177 -10.341123 -20.246531 0.000000 -0.000000 0.000000
26 0.0 0.0 0.0 0.0 0.0 0.0
27 0.0 0.0 0.0 0.0 0.0 0.0
28 0.0 0.0 0.0 0.0 0.0 0.0
time 10
0 0.000000 0.000000 0.000000 0.000000 -0.000000 0.000000
1 0.0 0.0 0.0 0.0 0.0 0.0
2 -1.485613 -0.000001 244.253418 0.523599 -0.000000 0.000000
3 0.000000 9.214020 15.229760 -0.257201 -0.187552 -0.331197
4 29.901535 -6.014022 19.027462 -0.690042 -0.201444 0.128399
5 16.515512 8.615006 -32.829494 -0.994335 -0.034891 -0.969403
6 4.457188 -7.128714 -48.400082 -0.047737 -0.167755 0.007568
7 -1.748657 -1.262036 -3.912315 0.000000 -0.000000 0.000000
8 -0.000000 -20.059681 49.784966 -0.277443 0.096476 0.349985
9 -2.218675 7.605827 22.730049 0.000000 -0.000000 0.000000
10 -29.901352 -6.014022 19.025002 -0.097608 0.374583 -0.148181
11 -16.470594 8.774501 -32.827282 0.130048 0.111681 -0.010859
12 -5.151118 -4.260835 -48.949841 1.471900 0.267820 0.330707
13 0.835000 -4.016123 -5.162220 0.059007 0.192133 -0.059208
14 0.005739 -197.773972 -0.033941 0.000000 -0.000000 0.000000
15 0.834961 -4.092322 -5.162240 0.000000 -0.000000 0.000000
16 0.000003 120.872231 42.351246 0.000000 -0.000000 0.000000
17 -0.095610 14.113435 -18.528481 -0.009885 0.185658 -0.113264
18 -19.739079 -11.325912 -11.240483 -0.849979 -0.262511 -0.043047
19 2.586502 -9.846297 -63.433285 1.115062 -0.174550 -0.051037
20 -3.713732 12.550145 -70.151390 0.008277 -0.003636 -0.045112
21 -5.364245 -10.348130 -20.246000 0.000000 -0.000000 0.000000
22 19.739250 -11.325912 -11.241514 -0.350400 -0.072865 0.182161
23 -2.618110 -9.826516 -63.432491 0.641561 0.004477 0.027789
24 3.087350 12.512329 -70.151237 0.001406 -0.010960 0.016369
25 1.360178 -10.341139 -20.246527 0.000000 -0.000000 0.000000
26 0.0 0.0 0.0 0.0 0.0 0.0
27 0.0 0.0 0.0 0.0 0.0 0.0
28 0.0 0.0 0.0 0.0 0.0 0.0
time 11
0 0.000000 0.000000 0.000000 0.000000 -0.000000 0.000000
1 0.0 0.0 0.0 0.0 0.0 0.0
2 -1.485613 0.000000 241.307755 0.523599 -0.000000 0.000000
3 0.000000 9.214020 15.229761 -0.249939 -0.180353 -0.321313
4 29.901535 -6.014022 19.027462 -0.667248 -0.196357 0.121433
5 16.515522 8.614997 -32.829456 -1.018421 -0.012529 -0.977086
6 4.457187 -7.128715 -48.400078 -0.047737 -0.167755 0.007568
7 -1.748638 -1.262035 -3.912313 0.000000 -0.000000 0.000000
8 0.000000 -20.059673 49.784985 -0.278717 0.094158 0.335044
9 -2.218673 7.605830 22.730024 0.000000 -0.000000 0.000000
10 -29.901348 -6.014018 19.025002 -0.097608 0.374583 -0.148181
11 -16.470585 8.774500 -32.827263 0.130049 0.111681 -0.010859
12 -5.151100 -4.260835 -48.949852 1.467925 0.286111 0.321424
13 0.835000 -4.016142 -5.162220 0.059007 0.192133 -0.059208
14 0.005760 -197.774002 -0.033922 0.000000 -0.000000 0.000000
15 0.834960 -4.092312 -5.162240 0.000000 -0.000000 0.000000
16 -0.000002 120.872238 42.351265 0.000000 -0.000000 0.000000
17 -0.095610 14.113434 -18.528498 -0.009238 0.179777 -0.109584
18 -19.739079 -11.325933 -11.240502 -0.824078 -0.254342 -0.045434
19 2.586505 -9.846297 -63.433285 1.063445 -0.172588 -0.045872
20 -3.713732 12.550152 -70.151382 0.008277 -0.003636 -0.045112
21 -5.364250 -10.348120 -20.245991 0.000000 -0.000000 0.000000
22 19.739246 -11.325921 -11.241533 -0.317152 -0.071587 0.177456
23 -2.618110 -9.826528 -63.432499 0.584790 0.002509 0.025294
24 3.087355 12.512329 -70.151245 0.001406 -0.010960 0.016369
25 1.360180 -10.341130 -20.246531 0.000000 -0.000000 0.000000
26 0.0 0.0 0.0 0.0 0.0 0.0
27 0.0 0.0 0.0 0.0 0.0 0.0
28 0.0 0.0 0.0 0.0 0.0 0.0
end
