version 1
nodes
0 "Object001" -1
1 "Null 1" -1
2 "Bone_Root" -1
3 "Bone_Chest" 2
4 "Bone_Arm1_L" 3
5 "Bone_Arm2_L" 4
6 "Bone_Hand_L" 5
7 "Hand Left Ref" 6
8 "Bone_Head" 3
9 "Head Ref" 8
10 "Bone_Arm1_R" 3
11 "Bone_Arm2_R" 10
12 "Bone_Hand_R" 11
13 "Bone_Runeblade" 12
14 "Weapon Ref" 13
15 "Hand Right Ref" 12
16 "Sprite Ref" 3
17 "Bone_Pelvis" 2
18 "Bone_Leg1_R" 17
19 "Bone_Leg2_R" 18
20 "Bone_Foot_R" 19
21 "Foot Right Ref" 20
22 "Bone_Leg1_L" 17
23 "Bone_Leg2_L" 22
24 "Bone_Foot_L" 23
25 "Foot Left Ref" 24
26 "Null 26" -1
27 "Null 27" -1
28 "Null 28" -1
end
skeleton
time 0
0 0.000000 0.000000 0.000000 0.000000 -0.000000 0.000000
1 0.0 0.0 0.0 0.0 0.0 0.0
2 -1.485613 -0.000001 244.266586 0.146178 -0.000000 0.000000
3 0.000000 9.214029 15.229778 0.000009 0.001612 0.010953
4 29.901535 -6.014020 19.027498 -0.033302 0.002261 0.000055
5 16.515516 8.614997 -32.829475 -0.058726 0.003522 0.001902
6 4.457192 -7.128708 -48.400059 -0.001720 -0.019451 0.083128
7 -1.748648 -1.262040 -3.912316 0.000000 -0.000000 0.000000
8 0.000000 -20.059681 49.784985 -0.039474 -0.005119 0.052266
9 -2.218673 7.605823 22.730026 0.000000 -0.000000 0.000000
10 -29.901350 -6.014025 19.025002 -0.265093 -0.136087 0.005141
11 -16.470594 8.774495 -32.827263 -0.101045 0.051111 0.550684
12 -3.609765 -7.798379 -47.026958 0.532198 -0.097356 -0.092507
13 0.834995 -4.016118 -5.162220 0.006645 -0.036673 0.001419
14 0.005737 -197.774002 -0.033970 0.000000 -0.000000 0.000000
15 0.834970 -4.092322 -5.162258 0.000000 -0.000000 0.000000
16 0.000000 120.872231 42.351303 0.000000 -0.000000 0.000000
17 -0.095610 14.113424 -18.528481 -0.001424 -0.138515 0.020526
18 -19.739082 -11.325928 -11.240483 -0.149305 0.078337 -0.003585
19 2.586503 -9.846297 -63.433273 -0.043960 0.008786 0.004424
20 -3.713730 12.550152 -70.151398 0.560097 -0.001139 -0.000284
21 -5.364248 -10.348128 -20.245991 0.000000 -0.000000 0.000000
22 19.739244 -11.325928 -11.241512 -0.424866 0.207148 -0.061827
23 -2.618113 -9.826506 -63.432472 0.609700 0.021162 -0.001864
24 3.087353 12.512325 -70.151253 0.403317 0.010149 0.015796
25 1.360178 -10.341125 -20.246521 0.000000 -0.000000 0.000000
26 0.0 0.0 0.0 0.0 0.0 0.0
27 0.0 0.0 0.0 0.0 0.0 0.0
28 0.0 0.0 0.0 0.0 0.0 0.0
time 1
0 0.000000 0.000000 0.000000 0.000000 -0.000000 0.000000
1 0.0 0.0 0.0 0.0 0.0 0.0
2 -1.485613 0.000000 246.283249 0.146178 -0.000000 0.000000
3 0.000000 9.214029 15.229776 0.000041 0.003453 0.023457
4 29.901535 -6.014019 19.027477 -0.071317 0.004844 0.000025
5 16.515514 8.615005 -32.829456 -0.125755 0.007671 0.003816
6 4.457188 -7.128708 -48.400078 -0.005277 -0.039828 0.164967
7 -1.748643 -1.262042 -3.912315 0.000000 -0.000000 0.000000
8 0.000000 -20.059679 49.784946 -0.017648 -0.012192 0.111796
9 -2.218673 7.605828 22.730011 0.000000 -0.000000 0.000000
10 -29.901350 -6.014022 19.024984 -0.300233 -0.131959 0.015294
11 -16.470591 8.774499 -32.827248 -0.228820 0.122700 0.643695
12 -3.609767 -7.798372 -47.026978 0.541839 -0.088079 -0.132699
13 0.834995 -4.016115 -5.162202 0.006645 -0.036673 0.001419
14 0.005761 -197.773987 -0.033933 0.000000 -0.000000 0.000000
15 0.834967 -4.092317 -5.162239 0.000000 -0.000000 0.000000
16 0.000000 120.872238 42.351246 0.000000 -0.000000 0.000000
17 -0.095610 14.113424 -18.528481 -0.001424 -0.138515 0.020526
18 -19.739084 -11.325925 -11.240481 -0.149305 0.078337 -0.003585
19 2.586502 -9.846297 -63.433285 -0.022842 0.008741 0.004425
20 -3.713730 12.550150 -70.151398 0.599863 -0.001265 -0.000380
21 -5.364248 -10.348131 -20.245996 0.000000 -0.000000 0.000000
22 19.739244 -11.325928 -11.241532 -0.424866 0.207148 -0.061827
23 -2.618110 -9.826509 -63.432491 0.613381 0.021158 -0.001569
24 3.087350 12.512325 -70.151245 0.446456 0.010252 0.015884
25 1.360178 -10.341125 -20.246525 0.000000 -0.000000 0.000000
26 0.0 0.0 0.0 0.0 0.0 0.0
27 0.0 0.0 0.0 0.0 0.0 0.0
28 0.0 0.0 0.0 0.0 0.0 0.0
time 2
0 0.000000 0.000000 0.000000 0.000000 -0.000000 0.000000
1 0.0 0.0 0.0 0.0 0.0 0.0
2 -1.485613 -0.000001 248.299911 0.146178 -0.000000 0.000000
3 0.000000 9.214027 15.229797 0.000096 0.005293 0.035960
4 29.901535 -6.014020 19.027483 -0.109333 0.007423 -0.000102
5 16.515514 8.615000 -32.829479 -0.192778 0.011938 0.005449
6 4.457188 -7.128706 -48.400078 -0.007559 -0.052045 0.166908
7 -1.748647 -1.262045 -3.912303 0.000000 -0.000000 0.000000
8 0.000000 -20.059677 49.784966 0.003723 -0.020549 0.171166
9 -2.218673 7.605825 22.729990 0.000000 -0.000000 0.000000
10 -29.901354 -6.014026 19.024982 -0.335310 -0.127480 0.025288
11 -16.470598 8.774496 -32.827259 -0.350918 0.205274 0.727840
12 -3.609772 -7.798374 -47.026958 0.350111 -0.097614 -0.153634
13 0.834986 -4.016112 -5.162218 0.006645 -0.036673 0.001419
14 0.005731 -197.773987 -0.033950 0.000000 -0.000000 0.000000
15 0.834965 -4.092317 -5.162241 0.000000 -0.000000 0.000000
16 0.000000 120.872231 42.351288 0.000000 -0.000000 0.000000
17 -0.095610 14.113424 -18.528461 -0.001424 -0.138515 0.020526
18 -19.739082 -11.325921 -11.240485 -0.149305 0.078337 -0.003585
19 2.586503 -9.846297 -63.433266 -0.001723 0.008697 0.004424
20 -3.713729 12.550148 -70.151375 0.639630 -0.001386 -0.000481
21 -5.364245 -10.348120 -20.245995 0.000000 -0.000000 0.000000
22 19.739248 -11.325925 -11.241532 -0.424866 0.207148 -0.061827
23 -2.618110 -9.826510 -63.432480 0.617060 0.021153 -0.001275
24 3.087350 12.512315 -70.151245 0.489597 0.010350 0.015977
25 1.360178 -10.341131 -20.246525 0.000000 -0.000000 0.000000
26 0.0 0.0 0.0 0.0 0.0 0.0
27 0.0 0.0 0.0 0.0 0.0 0.0
28 0.0 0.0 0.0 0.0 0.0 0.0
time 3
0 0.000000 0.000000 0.000000 0.000000 -0.000000 0.000000
1 0.0 0.0 0.0 0.0 0.0 0.0
2 -1.485613 -0.000002 249.683228 0.146178 -0.000000 0.000000
3 0.000000 9.214029 15.229782 0.000173 0.007132 0.048463
4 29.901535 -6.014020 19.027485 -0.147351 0.009996 -0.000328
5 16.515516 8.615000 -32.829475 -0.259799 0.016306 0.006792
6 4.457181 -7.128716 -48.400066 -0.009867 -0.064258 0.168879
7 -1.748648 -1.262044 -3.912300 0.000000 -0.000000 0.000000
8 0.000000 -20.059679 49.784966 0.024564 -0.030159 0.230359
9 -2.218671 7.605827 22.730040 0.000000 -0.000000 0.000000
10 -29.901356 -6.014025 19.024981 -0.370319 -0.122657 0.035113
11 -16.470591 8.774500 -32.827274 -0.468125 0.297170 0.802765
12 -3.609765 -7.798381 -47.026974 0.135453 -0.112846 -0.169386
13 0.834992 -4.016112 -5.162195 0.006645 -0.036673 0.001419
14 0.005766 -197.773987 -0.033928 0.000000 -0.000000 0.000000
15 0.834971 -4.092322 -5.162217 0.000000 -0.000000 0.000000
16 0.000000 120.872231 42.351254 0.000000 -0.000000 0.000000
17 -0.095610 14.113425 -18.528477 -0.001424 -0.138515 0.020526
18 -19.739084 -11.325929 -11.240485 -0.149305 0.078337 -0.003585
19 2.586503 -9.846295 -63.433277 0.012761 0.008666 0.004423
20 -3.713732 12.550154 -70.151405 0.666908 -0.001466 -0.000553
21 -5.364248 -10.348131 -20.245995 0.000000 -0.000000 0.000000
22 19.739244 -11.325927 -11.241532 -0.424866 0.207148 -0.061827
23 -2.618110 -9.826504 -63.432484 0.619584 0.021149 -0.001074
24 3.087352 12.512320 -70.151237 0.519194 0.010311 0.015910
25 1.360178 -10.341122 -20.246521 0.000000 -0.000000 0.000000
26 0.0 0.0 0.0 0.0 0.0 0.0
27 0.0 0.0 0.0 0.0 0.0 0.0
28 0.0 0.0 0.0 0.0 0.0 0.0
time 4
0 0.000000 0.000000 0.000000 0.000000 -0.000000 0.000000
1 0.0 0.0 0.0 0.0 0.0 0.0
2 -1.485613 0.000001 247.666565 0.146178 -0.000000 0.000000
3 0.000000 9.214025 15.229774 0.000274 0.008970 0.060967
4 29.901537 -6.014021 19.027479 -0.185371 0.012558 -0.000651
5 16.515511 8.615000 -32.829498 -0.326819 0.020753 0.007839
6 4.457189 -7.128703 -48.400070 -0.012201 -0.076465 0.170880
7 -1.748650 -1.262046 -3.912331 0.000000 -0.000000 0.000000
8 0.000000 -20.059679 49.784977 0.044808 -0.040983 0.289362
9 -2.218674 7.605824 22.729998 0.000000 -0.000000 0.000000
10 -29.901352 -6.014026 19.024998 -0.405257 -0.117496 0.044755
11 -16.470591 8.774495 -32.827251 -0.406484 0.248767 0.765998
12 -3.609762 -7.798385 -47.026955 0.148468 -0.113027 -0.151103
13 0.834991 -4.016109 -5.162201 0.006645 -0.036673 0.001419
14 0.005747 -197.773987 -0.033945 0.000000 -0.000000 0.000000
15 0.834973 -4.092316 -5.162241 0.000000 -0.000000 0.000000
16 0.000000 120.872215 42.351288 0.000000 -0.000000 0.000000
17 -0.095610 14.113424 -18.528481 -0.001424 -0.138515 0.020526
18 -19.739084 -11.325924 -11.240498 -0.149305 0.078337 -0.003585
19 2.586503 -9.846295 -63.433273 -0.008356 0.008711 0.004425
20 -3.713729 12.550152 -70.151382 0.627142 -0.001348 -0.000448
21 -5.364249 -10.348121 -20.245989 0.000000 -0.000000 0.000000
22 19.739244 -11.325922 -11.241526 -0.424866 0.207148 -0.061827
23 -2.618112 -9.826508 -63.432476 0.615905 0.021155 -0.001367
24 3.087351 12.512321 -70.151230 0.476089 0.009526 0.014980
25 1.360177 -10.341130 -20.246527 0.000000 -0.000000 0.000000
26 0.0 0.0 0.0 0.0 0.0 0.0
27 0.0 0.0 0.0 0.0 0.0 0.0
28 0.0 0.0 0.0 0.0 0.0 0.0
time 5
0 0.000000 0.000000 0.000000 0.000000 -0.000000 0.000000
1 0.0 0.0 0.0 0.0 0.0 0.0
2 -1.485613 0.000000 245.649887 0.146178 -0.000000 0.000000
3 0.000000 9.214030 15.229798 0.000397 0.010807 0.073471
4 29.901535 -6.014021 19.027477 -0.223394 0.015106 -0.001072
5 16.515514 8.615000 -32.829494 -0.393842 0.025261 0.008586
6 4.457189 -7.128712 -48.400074 -0.014562 -0.088668 0.172911
7 -1.748646 -1.262041 -3.912302 0.000000 -0.000000 0.000000
8 0.000000 -20.059681 49.784954 -0.013138 -0.035959 0.252482
9 -2.218670 7.605829 22.730038 0.000000 -0.000000 0.000000
10 -29.901356 -6.014028 19.024982 -0.440123 -0.112004 0.054204
11 -16.470602 8.774496 -32.827263 -0.248454 0.137960 0.662042
12 -3.609767 -7.798379 -47.026966 0.278358 -0.108175 -0.115713
13 0.834995 -4.016103 -5.162208 0.006645 -0.036673 0.001419
14 0.005760 -197.774002 -0.033959 0.000000 -0.000000 0.000000
15 0.834970 -4.092311 -5.162251 0.000000 -0.000000 0.000000
16 0.000000 120.872231 42.351261 0.000000 -0.000000 0.000000
17 -0.095610 14.113424 -18.528482 -0.001424 -0.138515 0.020526
18 -19.739084 -11.325927 -11.240480 -0.149305 0.078337 -0.003585
19 2.586503 -9.846295 -63.433270 -0.029474 0.008755 0.004425
20 -3.713732 12.550151 -70.151390 0.587376 -0.001226 -0.000349
21 -5.364248 -10.348130 -20.245993 0.000000 -0.000000 0.000000
22 19.739246 -11.325927 -11.241532 -0.424866 0.207148 -0.061827
23 -2.618113 -9.826509 -63.432476 0.612225 0.021159 -0.001661
24 3.087352 12.512321 -70.151245 0.432985 0.008701 0.014086
25 1.360177 -10.341131 -20.246525 0.000000 -0.000000 0.000000
26 0.0 0.0 0.0 0.0 0.0 0.0
27 0.0 0.0 0.0 0.0 0.0 0.0
28 0.0 0.0 0.0 0.0 0.0 0.0
time 6
0 0.000000 0.000000 0.000000 0.000000 -0.000000 0.000000
1 0.0 0.0 0.0 0.0 0.0 0.0
2 -1.485613 -0.000002 243.633255 0.146178 -0.000000 0.000000
3 0.000000 9.214028 15.229798 0.000197 0.007615 0.051745
4 29.901535 -6.014022 19.027477 -0.232582 0.015719 -0.001188
5 16.515511 8.615000 -32.829483 -0.410037 0.026357 0.008721
6 4.457191 -7.128711 -48.400089 -0.014705 -0.090838 0.165144
7 -1.748646 -1.262033 -3.912304 0.000000 -0.000000 0.000000
8 0.000000 -20.059681 49.784943 -0.110131 -0.029549 0.167564
9 -2.218671 7.605827 22.730013 0.000000 -0.000000 0.000000
10 -29.901350 -6.014027 19.024958 -0.474914 -0.106188 0.063449
11 -16.470592 8.774496 -32.827274 -0.081313 0.045128 0.542945
12 -3.609764 -7.798367 -47.026958 0.408986 -0.107931 -0.079811
13 0.834993 -4.016114 -5.162200 0.006645 -0.036673 0.001419
14 0.005751 -197.773987 -0.033951 0.000000 -0.000000 0.000000
15 0.834970 -4.092316 -5.162251 0.000000 -0.000000 0.000000
16 0.000000 120.872231 42.351242 0.000000 -0.000000 0.000000
17 -0.095610 14.113425 -18.528460 -0.001424 -0.138515 0.020526
18 -19.739082 -11.325927 -11.240505 -0.149305 0.078337 -0.003585
19 2.586503 -9.846297 -63.433273 -0.050593 0.008799 0.004424
20 -3.713730 12.550151 -70.151390 0.547609 -0.001100 -0.000255
21 -5.364248 -10.348128 -20.245993 0.000000 -0.000000 0.000000
22 19.739244 -11.325930 -11.241533 -0.424866 0.207148 -0.061827
23 -2.618111 -9.826507 -63.432487 0.608545 0.021163 -0.001955
24 3.087352 12.512320 -70.151245 0.389882 0.007839 0.013227
25 1.360178 -10.341131 -20.246523 0.000000 -0.000000 0.000000
26 0.0 0.0 0.0 0.0 0.0 0.0
27 0.0 0.0 0.0 0.0 0.0 0.0
28 0.0 0.0 0.0 0.0 0.0 0.0
time 7
0 0.000000 0.000000 0.000000 0.000000 -0.000000 0.000000
1 0.0 0.0 0.0 0.0 0.0 0.0
2 -1.485613 -0.000002 243.383240 0.146178 -0.000000 0.000000
3 0.000000 9.214028 15.229798 0.000014 0.002023 0.013742
4 29.901533 -6.014021 19.027500 -0.203504 0.013775 -0.000840
5 16.515520 8.615000 -32.829487 -0.358783 0.022897 0.008233
6 4.457187 -7.128705 -48.400066 -0.012043 -0.079661 0.144382
7 -1.748649 -1.262040 -3.912317 0.000000 -0.000000 0.000000
8 0.000000 -20.059677 49.784973 -0.207310 -0.031400 0.082431
9 -2.218673 7.605830 22.730011 0.000000 -0.000000 0.000000
10 -29.901350 -6.014024 19.024992 -0.479222 -0.105445 0.064581
11 -16.470596 8.774493 -32.827259 0.016828 0.002032 0.469437
12 -3.609765 -7.798372 -47.026970 0.495457 -0.113558 -0.050124
13 0.834999 -4.016112 -5.162199 0.006645 -0.036673 0.001419
14 0.005734 -197.774033 -0.033960 0.000000 -0.000000 0.000000
15 0.834972 -4.092314 -5.162230 0.000000 -0.000000 0.000000
16 0.000000 120.872231 42.351284 0.000000 -0.000000 0.000000
17 -0.095610 14.113425 -18.528471 -0.001424 -0.138515 0.020526
18 -19.739082 -11.325925 -11.240493 -0.149305 0.078337 -0.003585
19 2.586502 -9.846297 -63.433281 -0.053211 0.008805 0.004424
20 -3.713730 12.550153 -70.151390 0.542680 -0.001084 -0.000243
21 -5.364246 -10.348125 -20.245993 0.000000 -0.000000 0.000000
22 19.739244 -11.325927 -11.241533 -0.424866 0.207148 -0.061827
23 -2.618110 -9.826505 -63.432480 0.608089 0.021163 -0.001992
24 3.087350 12.512323 -70.151245 0.384538 0.007730 0.013124
25 1.360178 -10.341123 -20.246525 0.000000 -0.000000 0.000000
26 0.0 0.0 0.0 0.0 0.0 0.0
27 0.0 0.0 0.0 0.0 0.0 0.0
28 0.0 0.0 0.0 0.0 0.0 0.0
time 8
0 0.000000 0.000000 0.000000 0.000000 -0.000000 0.000000
1 0.0 0.0 0.0 0.0 0.0 0.0
2 -1.485613 -0.000001 245.399918 0.146178 -0.000000 0.000000
3 0.000000 9.214028 15.229790 0.000043 -0.003571 -0.024260
4 29.901531 -6.014021 19.027479 -0.174428 0.011822 -0.000548
5 16.515511 8.615000 -32.829468 -0.307531 0.019466 0.007569
6 4.457187 -7.128706 -48.400070 -0.009617 -0.068432 0.123666
7 -1.748644 -1.262041 -3.912325 0.000000 -0.000000 0.000000
8 0.000000 -20.059677 49.784954 -0.304004 -0.041484 -0.002140
9 -2.218674 7.605829 22.730005 0.000000 -0.000000 0.000000
10 -29.901354 -6.014027 19.024967 -0.444440 -0.111300 0.055361
11 -16.470594 8.774497 -32.827244 0.016674 0.001565 0.468434
12 -3.609766 -7.798374 -47.026966 0.524706 -0.122480 -0.028545
13 0.834994 -4.016113 -5.162211 0.006645 -0.036673 0.001419
14 0.005741 -197.774002 -0.033964 0.000000 -0.000000 0.000000
15 0.834970 -4.092314 -5.162240 0.000000 -0.000000 0.000000
16 0.000000 120.872231 42.351273 0.000000 -0.000000 0.000000
17 -0.095610 14.113424 -18.528481 -0.001424 -0.138515 0.020526
18 -19.739082 -11.325927 -11.240491 -0.149305 0.078337 -0.003585
19 2.586503 -9.846297 -63.433273 -0.032092 0.008760 0.004425
20 -3.713730 12.550149 -70.151390 0.582446 -0.001210 -0.000337
21 -5.364248 -10.348131 -20.245993 0.000000 -0.000000 0.000000
22 19.739244 -11.325927 -11.241533 -0.424866 0.207148 -0.061827
23 -2.618109 -9.826506 -63.432472 0.611769 0.021160 -0.001698
24 3.087353 12.512315 -70.151245 0.427641 0.008597 0.013978
25 1.360179 -10.341133 -20.246525 0.000000 -0.000000 0.000000
26 0.0 0.0 0.0 0.0 0.0 0.0
27 0.0 0.0 0.0 0.0 0.0 0.0
28 0.0 0.0 0.0 0.0 0.0 0.0
time 9
0 0.000000 0.000000 0.000000 0.000000 -0.000000 0.000000
1 0.0 0.0 0.0 0.0 0.0 0.0
2 -1.485613 -0.000002 247.416565 0.146178 -0.000000 0.000000
3 0.000000 9.214030 15.229783 0.000285 -0.009160 -0.062263
4 29.901535 -6.014017 19.027485 -0.145354 0.009861 -0.000314
5 16.515516 8.615000 -32.829483 -0.256280 0.016074 0.006728
6 4.457189 -7.128701 -48.400082 -0.007426 -0.057155 0.102992
7 -1.748642 -1.262040 -3.912325 0.000000 -0.000000 0.000000
8 0.000000 -20.059677 49.784969 -0.399574 -0.059639 -0.085406
9 -2.218673 7.605823 22.730032 0.000000 -0.000000 0.000000
10 -29.901348 -6.014022 19.024981 -0.409584 -0.116833 0.045937
11 -16.470596 8.774501 -32.827263 0.016519 0.001099 0.467430
12 -3.609759 -7.798375 -47.026966 0.553792 -0.132023 -0.007210
13 0.834994 -4.016112 -5.162200 0.006645 -0.036673 0.001419
14 0.005760 -197.773987 -0.033950 0.000000 -0.000000 0.000000
15 0.834978 -4.092317 -5.162227 0.000000 -0.000000 0.000000
16 0.000000 120.872223 42.351284 0.000000 -0.000000 0.000000
17 -0.095610 14.113424 -18.528475 -0.001424 -0.138515 0.020526
18 -19.739084 -11.325923 -11.240479 -0.149305 0.078337 -0.003585
19 2.586503 -9.846297 -63.433266 -0.010974 0.008716 0.004425
20 -3.713728 12.550150 -70.151390 0.622212 -0.001333 -0.000436
21 -5.364246 -10.348125 -20.245993 0.000000 -0.000000 0.000000
22 19.739243 -11.325927 -11.241517 -0.424866 0.207148 -0.061827
23 -2.618111 -9.826509 -63.432480 0.615449 0.021155 -0.001404
24 3.087353 12.512318 -70.151253 0.470745 0.009426 0.014868
25 1.360179 -10.341131 -20.246525 0.000000 -0.000000 0.000000
26 0.0 0.0 0.0 0.0 0.0 0.0
27 0.0 0.0 0.0 0.0 0.0 0.0
28 0.0 0.0 0.0 0.0 0.0 0.0
time 10
0 0.000000 0.000000 0.000000 0.000000 -0.000000 0.000000
1 0.0 0.0 0.0 0.0 0.0 0.0
2 -1.485613 -0.000002 249.433243 0.146178 -0.000000 0.000000
3 0.000000 9.214028 15.229799 0.000739 -0.014737 -0.100271
4 29.901533 -6.014028 19.027466 -0.116282 0.007894 -0.000137
5 16.515512 8.615000 -32.829460 -0.205029 0.012730 0.005716
6 4.457188 -7.128705 -48.400078 -0.005470 -0.045835 0.082355
7 -1.748644 -1.262040 -3.912318 0.000000 -0.000000 0.000000
8 0.000000 -20.059683 49.784946 -0.410059 -0.062817 -0.117363
9 -2.218670 7.605830 22.730057 0.000000 -0.000000 0.000000
10 -29.901352 -6.014028 19.024963 -0.374654 -0.122036 0.036318
11 -16.470592 8.774496 -32.827259 0.016365 0.000632 0.466426
12 -3.609770 -7.798374 -47.026936 0.548992 -0.127036 -0.016109
13 0.834992 -4.016108 -5.162191 0.006645 -0.036673 0.001419
14 0.005730 -197.774002 -0.033949 0.000000 -0.000000 0.000000
15 0.834967 -4.092312 -5.162226 0.000000 -0.000000 0.000000
16 0.000000 120.872223 42.351265 0.000000 -0.000000 0.000000
17 -0.095610 14.113424 -18.528465 -0.001424 -0.138515 0.020526
18 -19.739084 -11.325922 -11.240504 -0.149305 0.078337 -0.003585
19 2.586503 -9.846297 -63.433273 0.010144 0.008672 0.004424
20 -3.713730 12.550150 -70.151382 0.661978 -0.001452 -0.000539
21 -5.364248 -10.348129 -20.245993 0.000000 -0.000000 0.000000
22 19.739246 -11.325922 -11.241533 -0.424866 0.207148 -0.061827
23 -2.618113 -9.826506 -63.432484 0.619128 0.021150 -0.001110
24 3.087350 12.512323 -70.151253 0.513850 0.010215 0.015793
25 1.360178 -10.341131 -20.246525 0.000000 -0.000000 0.000000
26 0.0 0.0 0.0 0.0 0.0 0.0
27 0.0 0.0 0.0 0.0 0.0 0.0
28 0.0 0.0 0.0 0.0 0.0 0.0
time 11
0 0.000000 0.000000 0.000000 0.000000 -0.000000 0.000000
1 0.0 0.0 0.0 0.0 0.0 0.0
2 -1.485613 -0.000001 248.549911 0.146178 -0.000000 0.000000
3 0.000000 9.214027 15.229794 0.000796 -0.015288 -0.104037
4 29.901533 -6.014026 19.027462 -0.087211 0.005923 -0.000016
5 16.515512 8.615000 -32.829475 -0.153777 0.009442 0.004534
6 4.457184 -7.128710 -48.400097 -0.003749 -0.034477 0.061750
7 -1.748651 -1.262037 -3.912296 0.000000 -0.000000 0.000000
8 0.000000 -20.059679 49.784950 -0.322909 -0.043309 -0.090180
9 -2.218673 7.605831 22.730022 0.000000 -0.000000 0.000000
10 -29.901352 -6.014025 19.024967 -0.339654 -0.126901 0.026515
11 -16.470600 8.774500 -32.827263 0.016211 0.000166 0.465422
12 -3.609769 -7.798384 -47.026939 0.542684 -0.121473 -0.026327
13 0.834992 -4.016112 -5.162218 0.006645 -0.036673 0.001419
14 0.005744 -197.773972 -0.033936 0.000000 -0.000000 0.000000
15 0.834965 -4.092316 -5.162256 0.000000 -0.000000 0.000000
16 0.000000 120.872215 42.351265 0.000000 -0.000000 0.000000
17 -0.095610 14.113428 -18.528465 -0.001424 -0.138515 0.020526
18 -19.739082 -11.325929 -11.240501 -0.149305 0.078337 -0.003585
19 2.586503 -9.846297 -63.433277 0.000894 0.008691 0.004424
20 -3.713728 12.550150 -70.151390 0.644560 -0.001401 -0.000494
21 -5.364248 -10.348125 -20.245991 0.000000 -0.000000 0.000000
22 19.739248 -11.325931 -11.241532 -0.424866 0.207148 -0.061827
23 -2.618110 -9.826506 -63.432476 0.617516 0.021153 -0.001239
24 3.087352 12.512327 -70.151237 0.494969 0.009874 0.015384
25 1.360180 -10.341131 -20.246531 0.000000 -0.000000 0.000000
26 0.0 0.0 0.0 0.0 0.0 0.0
27 0.0 0.0 0.0 0.0 0.0 0.0
28 0.0 0.0 0.0 0.0 0.0 0.0
time 12
0 0.000000 0.000000 0.000000 0.000000 -0.000000 0.000000
1 0.0 0.0 0.0 0.0 0.0 0.0
2 -1.485613 0.000000 246.533234 0.146178 -0.000000 0.000000
3 0.000000 9.214025 15.229779 0.000354 -0.010202 -0.069355
4 29.901535 -6.014022 19.027479 -0.058139 0.003949 0.000047
5 16.515516 8.614997 -32.829494 -0.102522 0.006219 0.003185
6 4.457183 -7.128711 -48.400059 -0.002263 -0.023087 0.041170
7 -1.748647 -1.262040 -3.912314 0.000000 -0.000000 0.000000
8 0.000000 -20.059679 49.784966 -0.235321 -0.026245 -0.061419
9 -2.218673 7.605830 22.730011 0.000000 -0.000000 0.000000
10 -29.901352 -6.014022 19.025000 -0.304585 -0.131423 0.016541
11 -16.470594 8.774498 -32.827263 0.016059 -0.000301 0.464419
12 -3.609765 -7.798381 -47.026958 0.536325 -0.115974 -0.036574
13 0.834995 -4.016113 -5.162200 0.006645 -0.036673 0.001419
14 0.005751 -197.774002 -0.033954 0.000000 -0.000000 0.000000
15 0.834970 -4.092313 -5.162242 0.000000 -0.000000 0.000000
16 -0.000000 120.872208 42.351284 0.000000 -0.000000 0.000000
17 -0.095610 14.113425 -18.528481 -0.001424 -0.138515 0.020526
18 -19.739082 -11.325925 -11.240483 -0.149305 0.078337 -0.003585
19 2.586503 -9.846297 -63.433266 -0.020224 0.008735 0.004425
20 -3.713730 12.550145 -70.151398 0.604794 -0.001280 -0.000392
21 -5.364245 -10.348125 -20.245996 0.000000 -0.000000 0.000000
22 19.739246 -11.325925 -11.241532 -0.424866 0.207148 -0.061827
23 -2.618110 -9.826506 -63.432472 0.613837 0.021158 -0.001532
24 3.087353 12.512322 -70.151245 0.451864 0.009067 0.014474
25 1.360178 -10.341131 -20.246527 0.000000 -0.000000 0.000000
26 0.0 0.0 0.0 0.0 0.0 0.0
27 0.0 0.0 0.0 0.0 0.0 0.0
28 0.0 0.0 0.0 0.0 0.0 0.0
time 13
0 0.000000 0.000000 0.000000 0.000000 -0.000000 0.000000
1 0.0 0.0 0.0 0.0 0.0 0.0
2 -1.485613 -0.000001 244.516571 0.146178 -0.000000 0.000000
3 0.000000 9.214027 15.229798 0.000088 -0.005104 -0.034677
4 29.901531 -6.014025 19.027479 -0.029070 0.001974 0.000052
5 16.515518 8.615003 -32.829456 -0.051264 0.003069 0.001672
6 4.457192 -7.128708 -48.400078 -0.001012 -0.011667 0.020612
7 -1.748643 -1.262040 -3.912316 0.000000 -0.000000 0.000000
8 0.000000 -20.059683 49.784946 -0.147310 -0.011767 -0.031286
9 -2.218673 7.605825 22.730024 0.000000 -0.000000 0.000000
10 -29.901350 -6.014030 19.024961 -0.269453 -0.135595 0.006407
11 -16.470591 8.774497 -32.827263 0.015905 -0.000769 0.463415
12 -3.609767 -7.798373 -47.026978 0.529910 -0.110540 -0.046853
13 0.834990 -4.016108 -5.162200 0.006645 -0.036673 0.001419
14 0.005754 -197.773987 -0.033951 0.000000 -0.000000 0.000000
15 0.834970 -4.092312 -5.162257 0.000000 -0.000000 0.000000
16 0.000000 120.872223 42.351246 0.000000 -0.000000 0.000000
17 -0.095610 14.113424 -18.528481 -0.001424 -0.138515 0.020526
18 -19.739086 -11.325928 -11.240502 -0.149305 0.078337 -0.003585
19 2.586503 -9.846297 -63.433266 -0.041342 0.008780 0.004424
20 -3.713730 12.550151 -70.151405 0.565028 -0.001155 -0.000296
21 -5.364248 -10.348128 -20.245996 0.000000 -0.000000 0.000000
22 19.739244 -11.325928 -11.241533 -0.424866 0.207148 -0.061827
23 -2.618110 -9.826510 -63.432484 0.610157 0.021162 -0.001827
24 3.087350 12.512322 -70.151245 0.408761 0.008221 0.013599
25 1.360178 -10.341130 -20.246521 0.000000 -0.000000 0.000000
26 0.0 0.0 0.0 0.0 0.0 0.0
27 0.0 0.0 0.0 0.0 0.0 0.0
28 0.0 0.0 0.0 0.0 0.0 0.0
time 14
0 0.000000 0.000000 0.000000 0.000000 -0.000000 0.000000
1 0.0 0.0 0.0 0.0 0.0 0.0
2 -1.485613 -0.000002 242.499908 0.146178 -0.000000 0.000000
3 0.000000 9.214029 15.229797 0.000000 -0.000000 0.000000
4 29.901533 -6.014022 19.027479 0.000000 -0.000000 0.000000
5 16.515511 8.615003 -32.829475 0.000000 -0.000000 0.000000
6 4.457187 -7.128705 -48.400078 0.000004 -0.000225 0.000069
7 -1.748648 -1.262043 -3.912335 0.000000 -0.000000 0.000000
8 0.000000 -20.059677 49.784946 -0.058911 -0.000000 0.000000
9 -2.218673 7.605825 22.730007 0.000000 -0.000000 0.000000
10 -29.901350 -6.014022 19.024963 -0.234260 -0.139411 -0.003873
11 -16.470594 8.774501 -32.827263 0.015753 -0.001236 0.462411
12 -3.609767 -7.798375 -47.026958 0.523438 -0.105165 -0.057171
13 0.834992 -4.016123 -5.162200 0.006645 -0.036673 0.001419
14 0.005748 -197.774002 -0.033970 0.000000 -0.000000 0.000000
15 0.834970 -4.092322 -5.162240 0.000000 -0.000000 0.000000
16 0.000000 120.872231 42.351246 0.000000 -0.000000 0.000000
17 -0.095610 14.113425 -18.528463 -0.001424 -0.138515 0.020526
18 -19.739084 -11.325928 -11.240482 -0.149305 0.078337 -0.003585
19 2.586502 -9.846297 -63.433285 -0.062459 0.008824 0.004423
20 -3.713727 12.550149 -70.151390 0.525261 -0.001027 -0.000204
21 -5.364248 -10.348122 -20.245995 0.000000 -0.000000 0.000000
22 19.739243 -11.325928 -11.241533 -0.424866 0.207148 -0.061827
23 -2.618113 -9.826510 -63.432484 0.606477 0.021164 -0.002121
24 3.087353 12.512322 -70.151245 0.365658 0.007339 0.012762
25 1.360178 -10.341130 -20.246525 0.000000 -0.000000 0.000000
26 0.0 0.0 0.0 0.0 0.0 0.0
27 0.0 0.0 0.0 0.0 0.0 0.0
28 0.0 0.0 0.0 0.0 0.0 0.0
end
