version 1
nodes
0 "Object001" -1
1 "Null 1" -1
2 "Bone_Root" -1
3 "Bone_Chest" 2
4 "Bone_Arm1_L" 3
5 "Bone_Arm2_L" 4
6 "Bone_Hand_L" 5
7 "Hand Left Ref" 6
8 "Bone_Head" 3
9 "Head Ref" 8
10 "Bone_Arm1_R" 3
11 "Bone_Arm2_R" 10
12 "Bone_Hand_R" 11
13 "Bone_Runeblade" 12
14 "Weapon Ref" 13
15 "Hand Right Ref" 12
16 "Sprite Ref" 3
17 "Bone_Pelvis" 2
18 "Bone_Leg1_R" 17
19 "Bone_Leg2_R" 18
20 "Bone_Foot_R" 19
21 "Foot Right Ref" 20
22 "Bone_Leg1_L" 17
23 "Bone_Leg2_L" 22
24 "Bone_Foot_L" 23
25 "Foot Left Ref" 24
26 "Null 26" -1
27 "Null 27" -1
28 "Null 28" -1
end
skeleton
time 0
0 0.000000 0.000000 0.000000 0.000000 -0.000000 0.000000
1 0.0 0.0 0.0 0.0 0.0 0.0
2 -1.485613 -14.390858 241.307739 0.000000 -0.000000 0.000000
3 0.000000 9.214025 15.229761 0.017329 0.116209 -0.698020
4 29.901529 -6.014029 19.027491 -0.698339 -0.289611 0.115389
5 16.515514 8.614991 -32.829479 -0.519088 -0.289002 -0.665066
6 4.457176 -7.128706 -48.400078 -0.034980 -0.125485 0.026199
7 -1.748659 -1.262040 -3.912309 0.000000 -0.000000 0.000000
8 0.000000 -20.059677 49.784966 -0.048983 -0.065767 0.700744
9 -2.218671 7.605827 22.730005 0.000000 -0.000000 0.000000
10 -29.901348 -6.014026 19.025002 -0.172044 0.282457 -0.266047
11 -16.470585 8.774501 -32.827232 0.111014 -0.190851 -0.707570
12 -3.609764 -7.798387 -47.026997 -0.152345 0.063209 -0.160258
13 0.834993 -4.016103 -5.162199 0.000000 -0.000000 -0.000000
14 0.005762 -197.774033 -0.033954 0.000000 -0.000000 0.000000
15 0.834970 -4.092312 -5.162221 0.000000 -0.000000 0.000000
16 0.000013 120.872231 42.351288 0.000000 -0.000000 0.000000
17 -0.095610 14.113424 -18.528481 -0.000000 -0.000000 -0.476101
18 -19.739079 -11.325925 -11.240502 0.036658 0.036935 0.009894
19 2.586501 -9.846298 -63.433292 0.099087 0.026887 0.002967
20 -3.713726 12.550146 -70.151367 0.425987 0.019427 -0.032001
21 -5.364248 -10.348122 -20.245991 0.000000 -0.000000 0.000000
22 19.739243 -11.325923 -11.241533 -0.578235 -0.054835 0.199620
23 -2.618107 -9.826511 -63.432526 0.915800 -0.106375 0.209889
24 3.087352 12.512327 -70.151237 0.517795 0.017756 0.013719
25 1.360178 -10.341127 -20.246527 0.000000 -0.000000 0.000000
26 0.0 0.0 0.0 0.0 0.0 0.0
27 0.0 0.0 0.0 0.0 0.0 0.0
28 0.0 0.0 0.0 0.0 0.0 0.0
time 1
0 0.000000 0.000000 0.000000 0.000000 -0.000000 0.000000
1 0.0 0.0 0.0 0.0 0.0 0.0
2 -1.485613 -32.893375 241.307739 0.000000 -0.000000 0.000000
3 0.000000 9.214025 15.229761 -0.041906 0.117875 -0.682788
4 29.901533 -6.014038 19.027479 -1.202644 -0.411133 0.261976
5 16.515512 8.614997 -32.829483 -0.479445 -0.546555 -0.684465
6 4.457167 -7.128698 -48.400078 -0.034980 -0.125485 0.026199
7 -1.748658 -1.262045 -3.912315 0.000000 -0.000000 0.000000
8 0.000000 -20.059677 49.784946 -0.085919 -0.109987 0.642290
9 -2.218673 7.605830 22.730064 0.000000 -0.000000 0.000000
10 -29.901342 -6.014022 19.025003 -0.529607 0.534601 -0.719684
11 -16.470594 8.774489 -32.827248 0.131852 -0.415899 -0.960553
12 -3.609772 -7.798346 -47.026985 -0.367704 0.074417 -0.388008
13 0.835000 -4.016132 -5.162210 0.000000 -0.000000 -0.000000
14 0.005760 -197.773956 -0.033950 0.000000 -0.000000 0.000000
15 0.834970 -4.092330 -5.162240 0.000000 -0.000000 0.000000
16 -0.000002 120.872231 42.351265 0.000000 -0.000000 0.000000
17 -0.095610 14.113424 -18.528481 0.000000 -0.000000 -0.486046
18 -19.739079 -11.325928 -11.240502 0.096549 0.066887 0.038448
19 2.586505 -9.846300 -63.433277 0.206745 0.060792 0.010067
20 -3.713730 12.550144 -70.151367 0.107017 0.032337 -0.078147
21 -5.364248 -10.348125 -20.245991 0.000000 -0.000000 0.000000
22 19.739244 -11.325925 -11.241532 -0.649344 -0.065885 0.347253
23 -2.618108 -9.826519 -63.432529 1.115913 -0.139135 0.158031
24 3.087350 12.512324 -70.151230 0.497051 -0.004263 0.023839
25 1.360178 -10.341125 -20.246536 0.000000 -0.000000 0.000000
26 0.0 0.0 0.0 0.0 0.0 0.0
27 0.0 0.0 0.0 0.0 0.0 0.0
28 0.0 0.0 0.0 0.0 0.0 0.0
time 2
0 0.000000 0.000000 0.000000 0.000000 -0.000000 0.000000
1 0.0 0.0 0.0 0.0 0.0 0.0
2 -1.485613 -51.415081 241.670364 0.000000 -0.000000 0.000000
3 0.000000 9.214025 15.229761 -0.101125 0.120434 -0.667678
4 29.901525 -6.014033 19.027479 -1.322962 -0.431150 0.303334
5 16.515512 8.614985 -32.829468 -0.468615 -0.595812 -0.689152
6 4.457189 -7.128708 -48.400078 -0.034980 -0.125485 0.026199
7 -1.748645 -1.262040 -3.912315 0.000000 -0.000000 0.000000
8 0.000001 -20.059677 49.784966 -0.120445 -0.156316 0.585101
9 -2.218673 7.605825 22.730036 0.000000 -0.000000 0.000000
10 -29.901346 -6.014025 19.025000 -1.000732 0.593440 -1.275469
11 -16.470585 8.774500 -32.827251 0.229704 -0.635860 -1.267390
12 -3.609774 -7.798376 -47.026989 -0.579536 0.037068 -0.612363
13 0.835001 -4.016110 -5.162208 0.000000 -0.000000 -0.000000
14 0.005749 -197.773987 -0.033958 0.000000 -0.000000 0.000000
15 0.834983 -4.092314 -5.162245 0.000000 -0.000000 0.000000
16 0.000001 120.872231 42.351254 0.000000 -0.000000 0.000000
17 -0.095610 14.113424 -18.528481 -0.000000 -0.000000 -0.495991
18 -19.739082 -11.325926 -11.240501 0.157465 0.095087 0.068844
19 2.586501 -9.846293 -63.433270 0.314860 0.093719 0.020797
20 -3.713727 12.550147 -70.151367 -0.212226 0.030120 -0.126017
21 -5.364248 -10.348124 -20.245985 0.000000 -0.000000 0.000000
22 19.739246 -11.325927 -11.241532 -0.721392 -0.066349 0.495473
23 -2.618110 -9.826494 -63.432533 1.318311 -0.160945 0.100400
24 3.087351 12.512316 -70.151253 0.476077 -0.026067 0.034418
25 1.360178 -10.341132 -20.246536 0.000000 -0.000000 0.000000
26 0.0 0.0 0.0 0.0 0.0 0.0
27 0.0 0.0 0.0 0.0 0.0 0.0
28 0.0 0.0 0.0 0.0 0.0 0.0
time 3
0 0.000000 0.000000 0.000000 0.000000 -0.000000 0.000000
1 0.0 0.0 0.0 0.0 0.0 0.0
2 -1.485613 -68.671577 218.099380 0.000000 -0.000000 0.000000
3 0.000000 9.214025 15.229761 0.438619 -0.019085 0.223768
4 29.901533 -6.014022 19.027479 -1.130971 -0.401825 0.236589
5 16.515512 8.614997 -32.829494 -0.272689 -0.427344 -0.400232
6 4.457187 -7.128715 -48.400093 -0.034980 -0.125485 0.026199
7 -1.748638 -1.262045 -3.912325 0.000000 -0.000000 0.000000
8 0.000000 -20.059681 49.784966 -0.336574 -0.102203 -0.238357
9 -2.218670 7.605820 22.730024 0.000000 -0.000000 0.000000
10 -29.901350 -6.014032 19.025002 -0.748930 0.831159 -0.319154
11 -16.470566 8.774500 -32.827255 -0.396014 0.068960 -1.126632
12 -3.609767 -7.798384 -47.026997 -0.047994 0.050730 -1.267224
13 0.834980 -4.016122 -5.162215 0.000000 -0.000000 -0.000000
14 0.005798 -197.774002 -0.033950 0.000000 -0.000000 0.000000
15 0.834980 -4.092330 -5.162240 0.000000 -0.000000 0.000000
16 0.000000 120.872208 42.351246 0.000000 -0.000000 0.000000
17 -0.095610 14.113424 -18.528481 0.004111 -0.014347 -0.166943
18 -19.739082 -11.325917 -11.240502 0.380177 0.225941 -0.143611
19 2.586508 -9.846292 -63.433266 0.584927 0.136279 0.060518
20 -3.713727 12.550151 -70.151367 -0.181058 -0.232364 0.101902
21 -5.364248 -10.348125 -20.245989 0.000000 -0.000000 0.000000
22 19.739244 -11.325916 -11.241532 -1.021616 0.066726 0.304626
23 -2.618108 -9.826508 -63.432545 1.522061 -0.170807 0.039384
24 3.087348 12.512312 -70.151237 0.351936 0.053662 0.088886
25 1.360178 -10.341125 -20.246525 0.000000 -0.000000 0.000000
26 0.0 0.0 0.0 0.0 0.0 0.0
27 0.0 0.0 0.0 0.0 0.0 0.0
28 0.0 0.0 0.0 0.0 0.0 0.0
time 4
0 0.000000 0.000000 0.000000 0.000000 -0.000000 0.000000
1 0.0 0.0 0.0 0.0 0.0 0.0
2 -1.485613 -64.362511 211.934708 0.000000 -0.000000 0.000000
3 0.000000 9.214025 15.229761 0.572642 -0.142888 0.425132
4 29.901531 -6.014030 19.027479 -0.921179 -0.355310 0.171525
5 16.515514 8.615002 -32.829460 -0.010603 -0.306645 -0.054177
6 4.457175 -7.128710 -48.400078 -0.034980 -0.125485 0.026199
7 -1.748648 -1.262039 -3.912310 0.000000 -0.000000 0.000000
8 0.000001 -20.059679 49.784966 -0.392522 -0.084668 -0.431761
9 -2.218671 7.605831 22.730022 0.000000 -0.000000 0.000000
10 -29.901346 -6.014026 19.025002 -0.271124 0.689536 0.865564
11 -16.470591 8.774495 -32.827248 -0.392415 0.386325 -0.368167
12 -3.609774 -7.798373 -47.026985 0.568260 -0.135685 -0.340736
13 0.834979 -4.016119 -5.162216 0.000000 -0.000000 -0.000000
14 0.005745 -197.774002 -0.033957 0.000000 -0.000000 0.000000
15 0.834971 -4.092317 -5.162244 0.000000 -0.000000 0.000000
16 0.000001 120.872223 42.351265 0.000000 -0.000000 0.000000
17 -0.095610 14.113424 -18.528481 0.004348 -0.018322 -0.074754
18 -19.739086 -11.325925 -11.240500 0.405289 0.253085 -0.215429
19 2.586502 -9.846300 -63.433270 0.604179 0.132486 0.063363
20 -3.713731 12.550145 -70.151367 -0.029252 -0.323172 0.161884
21 -5.364245 -10.348132 -20.245989 0.000000 -0.000000 0.000000
22 19.739244 -11.325921 -11.241521 -1.075789 0.081207 0.178918
23 -2.618112 -9.826516 -63.432529 1.478482 -0.169850 0.054656
24 3.087354 12.512325 -70.151237 0.329730 0.085882 0.096466
25 1.360179 -10.341127 -20.246521 0.000000 -0.000000 0.000000
26 0.0 0.0 0.0 0.0 0.0 0.0
27 0.0 0.0 0.0 0.0 0.0 0.0
28 0.0 0.0 0.0 0.0 0.0 0.0
time 5
0 0.000000 0.000000 0.000000 0.000000 -0.000000 0.000000
1 0.0 0.0 0.0 0.0 0.0 0.0
2 -1.485613 -42.908344 221.725723 0.000000 -0.000000 0.000000
3 0.000000 9.214025 15.229761 0.440390 0.006522 0.063020
4 29.901525 -6.014022 19.027500 -0.718768 -0.297449 0.119134
5 16.515503 8.614997 -32.829475 -0.140326 -0.195491 -0.201570
6 4.457167 -7.128705 -48.400059 -0.034980 -0.125485 0.026199
7 -1.748658 -1.262035 -3.912310 0.000000 -0.000000 0.000000
8 0.000000 -20.059673 49.784946 -0.278377 -0.017610 -0.042571
9 -2.218673 7.605830 22.730024 0.000000 -0.000000 0.000000
10 -29.901348 -6.014018 19.025002 -0.244485 0.432916 0.563782
11 -16.470594 8.774502 -32.827263 -0.229271 0.251482 -0.393662
12 -3.609790 -7.798374 -47.026978 0.387741 -0.108362 -0.221458
13 0.834980 -4.016122 -5.162220 0.000000 -0.000000 -0.000000
14 0.005760 -197.774002 -0.033950 0.000000 -0.000000 0.000000
15 0.834970 -4.092322 -5.162248 0.000000 -0.000000 0.000000
16 0.000000 120.872223 42.351265 0.000000 -0.000000 0.000000
17 -0.095610 14.113424 -18.528481 0.003706 -0.012042 -0.205958
18 -19.739079 -11.325928 -11.240502 0.271135 0.163932 -0.158017
19 2.586503 -9.846297 -63.433273 0.406109 0.092756 0.033518
20 -3.713732 12.550151 -70.151367 0.214954 -0.229562 0.081309
21 -5.364245 -10.348125 -20.245993 0.000000 -0.000000 0.000000
22 19.739243 -11.325928 -11.241533 -0.893290 0.035646 0.155375
23 -2.618110 -9.826509 -63.432529 1.237557 -0.153282 0.129688
24 3.087353 12.512340 -70.151237 0.397445 0.067079 0.067824
25 1.360178 -10.341125 -20.246525 0.000000 -0.000000 0.000000
26 0.0 0.0 0.0 0.0 0.0 0.0
27 0.0 0.0 0.0 0.0 0.0 0.0
28 0.0 0.0 0.0 0.0 0.0 0.0
time 6
0 0.000000 0.000000 0.000000 0.000000 -0.000000 0.000000
1 0.0 0.0 0.0 0.0 0.0 0.0
2 -1.485613 -21.454178 231.516739 0.000000 -0.000000 0.000000
3 0.000000 9.214025 15.229761 0.263014 0.097873 -0.317429
4 29.901529 -6.014032 19.027491 -0.523020 -0.230896 0.080577
5 16.515509 8.615003 -32.829475 -0.337434 -0.117850 -0.425049
6 4.457187 -7.128720 -48.400066 -0.034980 -0.125485 0.026199
7 -1.748653 -1.262045 -3.912309 0.000000 -0.000000 0.000000
8 0.000000 -20.059683 49.784966 -0.147114 0.000800 0.352280
9 -2.218671 7.605827 22.730017 0.000000 -0.000000 0.000000
10 -29.901342 -6.014032 19.025003 -0.148081 0.200644 0.287976
11 -16.470585 8.774498 -32.827248 -0.054718 0.113161 -0.444417
12 -3.609767 -7.798377 -47.027000 0.199331 -0.056107 -0.101313
13 0.834996 -4.016115 -5.162221 0.000000 -0.000000 -0.000000
14 0.005776 -197.774002 -0.033951 0.000000 -0.000000 0.000000
15 0.834981 -4.092319 -5.162250 0.000000 -0.000000 0.000000
16 0.000003 120.872223 42.351265 0.000000 -0.000000 0.000000
17 -0.095610 14.113424 -18.528481 0.002248 -0.005899 -0.337159
18 -19.739084 -11.325927 -11.240513 0.133356 0.083127 -0.089695
19 2.586504 -9.846297 -63.433277 0.210157 0.048050 0.012186
20 -3.713730 12.550146 -70.151375 0.447799 -0.119716 0.026980
21 -5.364248 -10.348127 -20.245991 0.000000 -0.000000 0.000000
22 19.739246 -11.325925 -11.241532 -0.709707 -0.004919 0.123935
23 -2.618111 -9.826509 -63.432518 0.999281 -0.119594 0.198357
24 3.087352 12.512325 -70.151253 0.465420 0.050300 0.038084
25 1.360177 -10.341125 -20.246529 0.000000 -0.000000 0.000000
26 0.0 0.0 0.0 0.0 0.0 0.0
27 0.0 0.0 0.0 0.0 0.0 0.0
28 0.0 0.0 0.0 0.0 0.0 0.0
time 7
0 0.000000 0.000000 0.000000 0.000000 -0.000000 0.000000
1 0.0 0.0 0.0 0.0 0.0 0.0
2 -1.485613 0.000000 241.307755 0.000000 -0.000000 0.000000
3 0.000000 9.214025 15.229761 0.063408 0.115534 -0.709918
4 29.901531 -6.014032 19.027462 -0.332390 -0.158335 0.056333
5 16.515509 8.615007 -32.829475 -0.545319 -0.086434 -0.657654
6 4.457187 -7.128705 -48.400078 -0.034980 -0.125485 0.026199
7 -1.748648 -1.262025 -3.912315 0.000000 -0.000000 0.000000
8 0.000002 -20.059681 49.784966 -0.018515 -0.032873 0.747296
9 -2.218673 7.605830 22.730007 0.000000 -0.000000 0.000000
10 -29.901344 -6.014028 19.024982 0.002795 0.005612 0.002100
11 -16.470591 8.774497 -32.827263 0.133682 -0.019573 -0.521841
12 -3.609762 -7.798375 -47.026978 0.009888 0.021406 0.011868
13 0.835000 -4.016112 -5.162220 0.000000 -0.000000 -0.000000
14 0.005740 -197.774048 -0.033970 0.000000 -0.000000 0.000000
15 0.834980 -4.092317 -5.162240 0.000000 -0.000000 0.000000
16 0.000008 120.872231 42.351265 0.000000 -0.000000 0.000000
17 -0.095610 14.113424 -18.528481 0.000000 -0.000000 -0.468365
18 -19.739082 -11.325928 -11.240503 -0.009329 0.012474 -0.011049
19 2.586500 -9.846297 -63.433285 0.015539 0.000098 -0.000009
20 -3.713730 12.550150 -70.151382 0.673440 -0.000274 -0.000301
21 -5.364250 -10.348125 -20.245991 0.000000 -0.000000 0.000000
22 19.739243 -11.325922 -11.241533 -0.524493 -0.039089 0.085522
23 -2.618110 -9.826506 -63.432533 0.764915 -0.070941 0.256843
24 3.087348 12.512322 -70.151245 0.533714 0.035604 0.007340
25 1.360178 -10.341130 -20.246531 0.000000 -0.000000 0.000000
26 0.0 0.0 0.0 0.0 0.0 0.0
27 0.0 0.0 0.0 0.0 0.0 0.0
28 0.0 0.0 0.0 0.0 0.0 0.0
end
