version 1
nodes
0 "Object001" -1
1 "Null 1" -1
2 "Bone_Root" -1
3 "Bone_Chest" 2
4 "Bone_Arm1_L" 3
5 "Bone_Arm2_L" 4
6 "Bone_Hand_L" 5
7 "Hand Left Ref" 6
8 "Bone_Head" 3
9 "Head Ref" 8
10 "Bone_Arm1_R" 3
11 "Bone_Arm2_R" 10
12 "Bone_Hand_R" 11
13 "Bone_Runeblade" 12
14 "Weapon Ref" 13
15 "Hand Right Ref" 12
16 "Sprite Ref" 3
17 "Bone_Pelvis" 2
18 "Bone_Leg1_R" 17
19 "Bone_Leg2_R" 18
20 "Bone_Foot_R" 19
21 "Foot Right Ref" 20
22 "Bone_Leg1_L" 17
23 "Bone_Leg2_L" 22
24 "Bone_Foot_L" 23
25 "Foot Left Ref" 24
26 "Null 26" -1
27 "Null 27" -1
28 "Null 28" -1
end
skeleton
time 0
0 0.000000 0.000000 0.000000 0.000000 -0.000000 0.000000
1 0.0 0.0 0.0 0.0 0.0 0.0
2 -1.485613 -0.000001 243.266556 0.146178 -0.000000 0.000000
3 0.000000 9.214027 15.229798 0.007131 -0.000000 0.000000
4 29.901533 -6.014018 19.027500 0.000000 -0.000000 0.000000
5 16.515511 8.614997 -32.829475 0.000000 -0.000000 0.000000
6 4.457187 -7.128711 -48.400078 0.000004 -0.000225 0.000069
7 -1.748643 -1.262040 -3.912315 0.000000 -0.000000 0.000000
8 0.000000 -20.059669 49.785004 -0.058912 -0.000000 0.000000
9 -2.218673 7.605827 22.730007 0.000000 -0.000000 0.000000
10 -29.901350 -6.014028 19.024981 -0.235756 -0.138270 0.000640
11 -16.470598 8.774497 -32.827263 0.015753 -0.001237 0.462411
12 -3.609760 -7.798378 -47.026920 0.530426 -0.108828 -0.074163
13 0.834997 -4.016113 -5.162199 0.006645 -0.036673 0.001419
14 0.005790 -197.773987 -0.033950 0.000000 -0.000000 0.000000
15 0.834975 -4.092322 -5.162257 0.000000 -0.000000 0.000000
16 0.000000 120.872238 42.351265 0.000000 -0.000000 0.000000
17 -0.095610 14.113427 -18.528481 -0.001424 -0.138515 0.020526
18 -19.739082 -11.325925 -11.240482 -0.149305 0.078337 -0.003585
19 2.586503 -9.846295 -63.433277 -0.054432 0.008808 0.004424
20 -3.713730 12.550151 -70.151390 0.540380 -0.001076 -0.000238
21 -5.364248 -10.348123 -20.245991 0.000000 -0.000000 0.000000
22 19.739250 -11.325928 -11.241532 -0.424866 0.207148 -0.061827
23 -2.618108 -9.826517 -63.432484 0.607876 0.021164 -0.002009
24 3.087350 12.512318 -70.151237 0.381925 0.010096 0.015754
25 1.360178 -10.341130 -20.246525 0.000000 -0.000000 0.000000
26 0.0 0.0 0.0 0.0 0.0 0.0
27 0.0 0.0 0.0 0.0 0.0 0.0
28 0.0 0.0 0.0 0.0 0.0 0.0
time 1
0 0.000000 0.000000 0.000000 0.000000 -0.000000 0.000000
1 0.0 0.0 0.0 0.0 0.0 0.0
2 -1.485613 -0.000001 244.283249 0.146178 -0.000000 0.000000
3 0.000000 9.214027 15.229779 0.016588 -0.000000 0.000000
4 29.901533 -6.014022 19.027498 0.000000 -0.000000 0.000000
5 16.515511 8.614997 -32.829494 0.000000 -0.000000 0.000000
6 4.457187 -7.128706 -48.400063 0.000004 -0.000225 0.000069
7 -1.748643 -1.262040 -3.912315 0.000000 -0.000000 0.000000
8 0.000000 -20.059677 49.785004 -0.058912 -0.000000 0.000000
9 -2.218673 7.605830 22.730045 0.000000 -0.000000 0.000000
10 -29.901350 -6.014023 19.024981 -0.237733 -0.136748 0.006621
11 -16.470596 8.774500 -32.827263 0.015753 -0.001237 0.462411
12 -3.609762 -7.798381 -47.026958 0.539783 -0.113499 -0.096726
13 0.834997 -4.016113 -5.162182 0.006645 -0.036673 0.001419
14 0.005761 -197.774017 -0.033913 0.000000 -0.000000 0.000000
15 0.834970 -4.092322 -5.162219 0.000000 -0.000000 0.000000
16 0.000000 120.872238 42.351265 0.000000 -0.000000 0.000000
17 -0.095610 14.113424 -18.528481 -0.001424 -0.138515 0.020526
18 -19.739082 -11.325928 -11.240484 -0.149305 0.078337 -0.003585
19 2.586503 -9.846295 -63.433273 -0.043786 0.008785 0.004424
20 -3.713730 12.550152 -70.151398 0.560426 -0.001140 -0.000285
21 -5.364248 -10.348130 -20.245995 0.000000 -0.000000 0.000000
22 19.739244 -11.325929 -11.241513 -0.424866 0.207148 -0.061827
23 -2.618108 -9.826512 -63.432472 0.609731 0.021162 -0.001861
24 3.087353 12.512324 -70.151245 0.403673 0.010150 0.015796
25 1.360178 -10.341125 -20.246527 0.000000 -0.000000 0.000000
26 0.0 0.0 0.0 0.0 0.0 0.0
27 0.0 0.0 0.0 0.0 0.0 0.0
28 0.0 0.0 0.0 0.0 0.0 0.0
time 2
0 0.000000 0.000000 0.000000 0.000000 -0.000000 0.000000
1 0.0 0.0 0.0 0.0 0.0 0.0
2 -1.485613 -0.000000 245.299911 0.146178 -0.000000 0.000000
3 0.000000 9.214029 15.229780 0.026044 -0.000000 0.000000
4 29.901533 -6.014021 19.027462 0.000000 -0.000000 0.000000
5 16.515511 8.615002 -32.829460 0.000000 -0.000000 0.000000
6 4.457187 -7.128715 -48.400093 0.000004 -0.000225 0.000069
7 -1.748648 -1.262040 -3.912320 0.000000 -0.000000 0.000000
8 0.000000 -20.059679 49.784966 -0.058912 -0.000000 0.000000
9 -2.218673 7.605828 22.730003 0.000000 -0.000000 0.000000
10 -29.901352 -6.014022 19.024963 -0.239699 -0.135213 0.012599
11 -16.470594 8.774501 -32.827278 0.015753 -0.001237 0.462411
12 -3.609761 -7.798380 -47.026978 0.549249 -0.117958 -0.119345
13 0.834995 -4.016123 -5.162199 0.006645 -0.036673 0.001419
14 0.005740 -197.774002 -0.033947 0.000000 -0.000000 0.000000
15 0.834968 -4.092324 -5.162240 0.000000 -0.000000 0.000000
16 0.000000 120.872238 42.351276 0.000000 -0.000000 0.000000
17 -0.095610 14.113424 -18.528481 -0.001424 -0.138515 0.020526
18 -19.739082 -11.325926 -11.240500 -0.149305 0.078337 -0.003585
19 2.586502 -9.846297 -63.433281 -0.033139 0.008763 0.004425
20 -3.713730 12.550149 -70.151405 0.580474 -0.001204 -0.000332
21 -5.364248 -10.348131 -20.245991 0.000000 -0.000000 0.000000
22 19.739248 -11.325926 -11.241534 -0.424866 0.207148 -0.061827
23 -2.618107 -9.826512 -63.432472 0.611586 0.021160 -0.001713
24 3.087350 12.512320 -70.151245 0.425422 0.010202 0.015840
25 1.360178 -10.341125 -20.246529 0.000000 -0.000000 0.000000
26 0.0 0.0 0.0 0.0 0.0 0.0
27 0.0 0.0 0.0 0.0 0.0 0.0
28 0.0 0.0 0.0 0.0 0.0 0.0
time 3
0 0.000000 0.000000 0.000000 0.000000 -0.000000 0.000000
1 0.0 0.0 0.0 0.0 0.0 0.0
2 -1.485613 0.000000 246.316574 0.146178 -0.000000 0.000000
3 0.000000 9.214028 15.229775 0.035500 -0.000000 0.000000
4 29.901533 -6.014026 19.027481 0.000000 -0.000000 0.000000
5 16.515511 8.615001 -32.829475 0.000000 -0.000000 0.000000
6 4.457187 -7.128711 -48.400070 0.000004 -0.000225 0.000069
7 -1.748648 -1.262040 -3.912312 0.000000 -0.000000 0.000000
8 0.000000 -20.059679 49.784966 -0.058912 -0.000000 0.000000
9 -2.218673 7.605827 22.730011 0.000000 -0.000000 0.000000
10 -29.901350 -6.014023 19.024988 -0.241655 -0.133667 0.018571
11 -16.470602 8.774498 -32.827263 0.015753 -0.001237 0.462411
12 -3.609763 -7.798380 -47.026970 0.556990 -0.122106 -0.139074
13 0.834994 -4.016112 -5.162196 0.006645 -0.036673 0.001419
14 0.005758 -197.773987 -0.033976 0.000000 -0.000000 0.000000
15 0.834969 -4.092311 -5.162255 0.000000 -0.000000 0.000000
16 0.000000 120.872223 42.351288 0.000000 -0.000000 0.000000
17 -0.095610 14.113424 -18.528482 -0.001424 -0.138515 0.020526
18 -19.739084 -11.325925 -11.240480 -0.149305 0.078337 -0.003585
19 2.586502 -9.846297 -63.433281 -0.022493 0.008740 0.004425
20 -3.713730 12.550150 -70.151398 0.600522 -0.001267 -0.000381
21 -5.364247 -10.348131 -20.245993 0.000000 -0.000000 0.000000
22 19.739244 -11.325928 -11.241532 -0.424866 0.207148 -0.061827
23 -2.618108 -9.826509 -63.432480 0.613442 0.021158 -0.001564
24 3.087350 12.512327 -70.151237 0.447169 0.010253 0.015886
25 1.360178 -10.341133 -20.246527 0.000000 -0.000000 0.000000
26 0.0 0.0 0.0 0.0 0.0 0.0
27 0.0 0.0 0.0 0.0 0.0 0.0
28 0.0 0.0 0.0 0.0 0.0 0.0
time 4
0 0.000000 0.000000 0.000000 0.000000 -0.000000 0.000000
1 0.0 0.0 0.0 0.0 0.0 0.0
2 -1.485613 -0.000002 247.333237 0.146178 -0.000000 0.000000
3 0.000000 9.214030 15.229792 0.044957 -0.000000 0.000000
4 29.901533 -6.014019 19.027489 0.000000 -0.000000 0.000000
5 16.515511 8.615003 -32.829475 0.000000 -0.000000 0.000000
6 4.457187 -7.128711 -48.400074 0.000004 -0.000225 0.000069
7 -1.748649 -1.262035 -3.912311 0.000000 -0.000000 0.000000
8 0.000000 -20.059673 49.784977 -0.058912 -0.000000 0.000000
9 -2.218673 7.605826 22.730005 0.000000 -0.000000 0.000000
10 -29.901350 -6.014020 19.024990 -0.243602 -0.132109 0.024540
11 -16.470591 8.774497 -32.827251 0.015753 -0.001237 0.462411
12 -3.609760 -7.798380 -47.026958 0.538543 -0.124477 -0.116548
13 0.834995 -4.016120 -5.162195 0.006645 -0.036673 0.001419
14 0.005759 -197.774002 -0.033971 0.000000 -0.000000 0.000000
15 0.834971 -4.092325 -5.162245 0.000000 -0.000000 0.000000
16 0.000000 120.872231 42.351280 0.000000 -0.000000 0.000000
17 -0.095610 14.113425 -18.528467 -0.001424 -0.138515 0.020526
18 -19.739082 -11.325926 -11.240480 -0.149305 0.078337 -0.003585
19 2.586503 -9.846297 -63.433266 -0.011846 0.008718 0.004425
20 -3.713729 12.550149 -70.151398 0.620569 -0.001328 -0.000431
21 -5.364247 -10.348133 -20.245993 0.000000 -0.000000 0.000000
22 19.739243 -11.325928 -11.241526 -0.424866 0.207148 -0.061827
23 -2.618108 -9.826506 -63.432476 0.615296 0.021156 -0.001416
24 3.087353 12.512313 -70.151237 0.468918 0.010303 0.015932
25 1.360178 -10.341130 -20.246529 0.000000 -0.000000 0.000000
26 0.0 0.0 0.0 0.0 0.0 0.0
27 0.0 0.0 0.0 0.0 0.0 0.0
28 0.0 0.0 0.0 0.0 0.0 0.0
time 5
0 0.000000 0.000000 0.000000 0.000000 -0.000000 0.000000
1 0.0 0.0 0.0 0.0 0.0 0.0
2 -1.485613 -0.000001 248.349915 0.146178 -0.000000 0.000000
3 0.000000 9.214029 15.229798 0.054413 -0.000000 0.000000
4 29.901533 -6.014022 19.027460 0.000000 -0.000000 0.000000
5 16.515511 8.615000 -32.829464 0.000000 -0.000000 0.000000
6 4.457187 -7.128708 -48.400085 0.000004 -0.000225 0.000069
7 -1.748648 -1.262038 -3.912304 0.000000 -0.000000 0.000000
8 0.000000 -20.059677 49.784958 -0.058912 -0.000000 0.000000
9 -2.218673 7.605828 22.730061 0.000000 -0.000000 0.000000
10 -29.901350 -6.014022 19.024982 -0.245539 -0.130540 0.030504
11 -16.470596 8.774497 -32.827255 0.015753 -0.001237 0.462411
12 -3.609761 -7.798383 -47.026985 0.520057 -0.126434 -0.093995
13 0.834993 -4.016113 -5.162199 0.006645 -0.036673 0.001419
14 0.005757 -197.774002 -0.033952 0.000000 -0.000000 0.000000
15 0.834974 -4.092311 -5.162226 0.000000 -0.000000 0.000000
16 0.000000 120.872223 42.351273 0.000000 -0.000000 0.000000
17 -0.095610 14.113425 -18.528460 -0.001424 -0.138515 0.020526
18 -19.739082 -11.325924 -11.240490 -0.149305 0.078337 -0.003585
19 2.586503 -9.846297 -63.433270 -0.001200 0.008696 0.004424
20 -3.713730 12.550149 -70.151375 0.640617 -0.001389 -0.000483
21 -5.364245 -10.348128 -20.245991 0.000000 -0.000000 0.000000
22 19.739244 -11.325924 -11.241533 -0.424866 0.207148 -0.061827
23 -2.618107 -9.826511 -63.432480 0.617151 0.021154 -0.001268
24 3.087353 12.512320 -70.151245 0.490666 0.010353 0.015980
25 1.360176 -10.341130 -20.246521 0.000000 -0.000000 0.000000
26 0.0 0.0 0.0 0.0 0.0 0.0
27 0.0 0.0 0.0 0.0 0.0 0.0
28 0.0 0.0 0.0 0.0 0.0 0.0
time 6
0 0.000000 0.000000 0.000000 0.000000 -0.000000 0.000000
1 0.0 0.0 0.0 0.0 0.0 0.0
2 -1.485613 -0.000000 249.366577 0.146178 -0.000000 0.000000
3 0.000000 9.214029 15.229798 0.063870 -0.000000 0.000000
4 29.901533 -6.014025 19.027472 0.000000 -0.000000 0.000000
5 16.515511 8.615000 -32.829475 0.000000 -0.000000 0.000000
6 4.457187 -7.128705 -48.400078 0.000004 -0.000225 0.000069
7 -1.748648 -1.262043 -3.912315 0.000000 -0.000000 0.000000
8 0.000000 -20.059681 49.784966 -0.058912 -0.000000 0.000000
9 -2.218673 7.605827 22.730024 0.000000 -0.000000 0.000000
10 -29.901350 -6.014025 19.024969 -0.247467 -0.128959 0.036464
11 -16.470600 8.774498 -32.827274 0.015753 -0.001237 0.462411
12 -3.609763 -7.798381 -47.026958 0.501521 -0.127977 -0.071396
13 0.834994 -4.016112 -5.162199 0.006645 -0.036673 0.001419
14 0.005760 -197.773987 -0.033953 0.000000 -0.000000 0.000000
15 0.834970 -4.092311 -5.162237 0.000000 -0.000000 0.000000
16 0.000000 120.872238 42.351254 0.000000 -0.000000 0.000000
17 -0.095610 14.113424 -18.528471 -0.001424 -0.138515 0.020526
18 -19.739084 -11.325924 -11.240504 -0.149305 0.078337 -0.003585
19 2.586503 -9.846297 -63.433270 0.009446 0.008673 0.004424
20 -3.713730 12.550150 -70.151390 0.660664 -0.001448 -0.000536
21 -5.364248 -10.348131 -20.245995 0.000000 -0.000000 0.000000
22 19.739246 -11.325925 -11.241532 -0.424866 0.207148 -0.061827
23 -2.618109 -9.826510 -63.432484 0.619007 0.021151 -0.001120
24 3.087352 12.512322 -70.151237 0.512415 0.010401 0.016029
25 1.360177 -10.341130 -20.246521 0.000000 -0.000000 0.000000
26 0.0 0.0 0.0 0.0 0.0 0.0
27 0.0 0.0 0.0 0.0 0.0 0.0
28 0.0 0.0 0.0 0.0 0.0 0.0
time 7
0 0.000000 0.000000 0.000000 0.000000 -0.000000 0.000000
1 0.0 0.0 0.0 0.0 0.0 0.0
2 -1.485613 -0.000003 249.616577 0.146178 -0.000000 0.000000
3 0.000000 9.214028 15.229788 0.066195 -0.000000 0.000000
4 29.901533 -6.014029 19.027468 0.000000 -0.000000 0.000000
5 16.515511 8.615000 -32.829475 0.000000 -0.000000 0.000000
6 4.457187 -7.128705 -48.400074 0.000004 -0.000225 0.000069
7 -1.748648 -1.262043 -3.912315 0.000000 -0.000000 0.000000
8 0.000000 -20.059685 49.784977 -0.058912 -0.000000 0.000000
9 -2.218673 7.605832 22.730034 0.000000 -0.000000 0.000000
10 -29.901350 -6.014028 19.024982 -0.247939 -0.128569 0.037929
11 -16.470596 8.774497 -32.827263 0.015753 -0.001237 0.462411
12 -3.609766 -7.798381 -47.026947 0.500162 -0.130853 -0.049998
13 0.834990 -4.016114 -5.162211 0.006645 -0.036673 0.001419
14 0.005746 -197.774002 -0.033950 0.000000 -0.000000 0.000000
15 0.834968 -4.092317 -5.162250 0.000000 -0.000000 0.000000
16 0.000000 120.872231 42.351265 0.000000 -0.000000 0.000000
17 -0.095610 14.113425 -18.528469 -0.001424 -0.138515 0.020526
18 -19.739084 -11.325924 -11.240492 -0.149305 0.078337 -0.003585
19 2.586503 -9.846297 -63.433277 0.012063 0.008668 0.004424
20 -3.713731 12.550150 -70.151405 0.665594 -0.001463 -0.000549
21 -5.364248 -10.348131 -20.245996 0.000000 -0.000000 0.000000
22 19.739246 -11.325924 -11.241532 -0.424866 0.207148 -0.061827
23 -2.618109 -9.826509 -63.432472 0.619463 0.021150 -0.001083
24 3.087353 12.512321 -70.151253 0.517769 0.010285 0.015879
25 1.360178 -10.341125 -20.246523 0.000000 -0.000000 0.000000
26 0.0 0.0 0.0 0.0 0.0 0.0
27 0.0 0.0 0.0 0.0 0.0 0.0
28 0.0 0.0 0.0 0.0 0.0 0.0
time 8
0 0.000000 0.000000 0.000000 0.000000 -0.000000 0.000000
1 0.0 0.0 0.0 0.0 0.0 0.0
2 -1.485613 -0.000001 248.599899 0.146178 -0.000000 0.000000
3 0.000000 9.214028 15.229789 0.056739 -0.000000 0.000000
4 29.901533 -6.014022 19.027470 0.000000 -0.000000 0.000000
5 16.515511 8.614999 -32.829475 0.000000 -0.000000 0.000000
6 4.457187 -7.128705 -48.400089 0.000004 -0.000225 0.000069
7 -1.748648 -1.262037 -3.912309 0.000000 -0.000000 0.000000
8 0.000000 -20.059677 49.784943 -0.058912 -0.000000 0.000000
9 -2.218673 7.605828 22.730045 0.000000 -0.000000 0.000000
10 -29.901350 -6.014022 19.024975 -0.246015 -0.130153 0.031970
11 -16.470594 8.774496 -32.827244 0.015753 -0.001237 0.462411
12 -3.609762 -7.798381 -47.026962 0.527168 -0.136838 -0.030786
13 0.834995 -4.016112 -5.162197 0.006645 -0.036673 0.001419
14 0.005749 -197.774002 -0.033934 0.000000 -0.000000 0.000000
15 0.834969 -4.092323 -5.162227 0.000000 -0.000000 0.000000
16 0.000000 120.872238 42.351250 0.000000 -0.000000 0.000000
17 -0.095610 14.113427 -18.528469 -0.001424 -0.138515 0.020526
18 -19.739082 -11.325924 -11.240497 -0.149305 0.078337 -0.003585
19 2.586503 -9.846297 -63.433277 0.001418 0.008690 0.004424
20 -3.713730 12.550150 -70.151390 0.645546 -0.001404 -0.000496
21 -5.364248 -10.348125 -20.245989 0.000000 -0.000000 0.000000
22 19.739248 -11.325924 -11.241532 -0.424866 0.207148 -0.061827
23 -2.618109 -9.826511 -63.432476 0.617608 0.021153 -0.001231
24 3.087352 12.512320 -70.151245 0.496038 0.009894 0.015407
25 1.360179 -10.341131 -20.246529 0.000000 -0.000000 0.000000
26 0.0 0.0 0.0 0.0 0.0 0.0
27 0.0 0.0 0.0 0.0 0.0 0.0
28 0.0 0.0 0.0 0.0 0.0 0.0
time 9
0 0.000000 0.000000 0.000000 0.000000 -0.000000 0.000000
1 0.0 0.0 0.0 0.0 0.0 0.0
2 -1.485613 -0.000000 247.583221 0.146178 -0.000000 0.000000
3 0.000000 9.214029 15.229774 0.047282 -0.000000 0.000000
4 29.901533 -6.014021 19.027464 0.000000 -0.000000 0.000000
5 16.515511 8.614999 -32.829483 0.000000 -0.000000 0.000000
6 4.457187 -7.128709 -48.400055 0.000004 -0.000225 0.000069
7 -1.748650 -1.262035 -3.912295 0.000000 -0.000000 0.000000
8 0.000000 -20.059677 49.784966 -0.058912 -0.000000 0.000000
9 -2.218673 7.605829 22.730043 0.000000 -0.000000 0.000000
10 -29.901350 -6.014019 19.024990 -0.244080 -0.131724 0.026007
11 -16.470591 8.774497 -32.827251 0.015753 -0.001237 0.462411
12 -3.609761 -7.798379 -47.026958 0.554083 -0.143336 -0.011722
13 0.834997 -4.016112 -5.162199 0.006645 -0.036673 0.001419
14 0.005748 -197.773987 -0.033928 0.000000 -0.000000 0.000000
15 0.834971 -4.092311 -5.162249 0.000000 -0.000000 0.000000
16 0.000000 120.872231 42.351257 0.000000 -0.000000 0.000000
17 -0.095610 14.113424 -18.528482 -0.001424 -0.138515 0.020526
18 -19.739084 -11.325923 -11.240489 -0.149305 0.078337 -0.003585
19 2.586503 -9.846297 -63.433270 -0.009228 0.008712 0.004425
20 -3.713727 12.550150 -70.151382 0.625498 -0.001343 -0.000444
21 -5.364247 -10.348124 -20.245991 0.000000 -0.000000 0.000000
22 19.739243 -11.325927 -11.241517 -0.424866 0.207148 -0.061827
23 -2.618109 -9.826511 -63.432484 0.615753 0.021155 -0.001380
24 3.087353 12.512323 -70.151237 0.474307 0.009492 0.014943
25 1.360177 -10.341128 -20.246523 0.000000 -0.000000 0.000000
26 0.0 0.0 0.0 0.0 0.0 0.0
27 0.0 0.0 0.0 0.0 0.0 0.0
28 0.0 0.0 0.0 0.0 0.0 0.0
time 10
0 0.000000 0.000000 0.000000 0.000000 -0.000000 0.000000
1 0.0 0.0 0.0 0.0 0.0 0.0
2 -1.485613 0.000000 246.566574 0.146178 -0.000000 0.000000
3 0.000000 9.214025 15.229781 0.037826 -0.000000 0.000000
4 29.901533 -6.014019 19.027475 0.000000 -0.000000 0.000000
5 16.515511 8.614998 -32.829475 0.000000 -0.000000 0.000000
6 4.457187 -7.128709 -48.400066 0.000004 -0.000225 0.000069
7 -1.748649 -1.262040 -3.912301 0.000000 -0.000000 0.000000
8 0.000000 -20.059677 49.784958 -0.058912 -0.000000 0.000000
9 -2.218673 7.605827 22.730026 0.000000 -0.000000 0.000000
10 -29.901350 -6.014022 19.025000 -0.242135 -0.133285 0.020039
11 -16.470592 8.774498 -32.827267 0.015753 -0.001237 0.462411
12 -3.609760 -7.798381 -47.026939 0.550277 -0.136542 -0.018867
13 0.834996 -4.016115 -5.162200 0.006645 -0.036673 0.001419
14 0.005752 -197.773972 -0.033940 0.000000 -0.000000 0.000000
15 0.834968 -4.092323 -5.162235 0.000000 -0.000000 0.000000
16 0.000000 120.872231 42.351276 0.000000 -0.000000 0.000000
17 -0.095610 14.113425 -18.528481 -0.001424 -0.138515 0.020526
18 -19.739082 -11.325925 -11.240486 -0.149305 0.078337 -0.003585
19 2.586503 -9.846297 -63.433266 -0.019875 0.008735 0.004425
20 -3.713729 12.550146 -70.151390 0.605451 -0.001282 -0.000393
21 -5.364248 -10.348125 -20.245996 0.000000 -0.000000 0.000000
22 19.739246 -11.325925 -11.241532 -0.424866 0.207148 -0.061827
23 -2.618108 -9.826510 -63.432484 0.613898 0.021158 -0.001527
24 3.087352 12.512325 -70.151237 0.452577 0.009081 0.014489
25 1.360177 -10.341133 -20.246525 0.000000 -0.000000 0.000000
26 0.0 0.0 0.0 0.0 0.0 0.0
27 0.0 0.0 0.0 0.0 0.0 0.0
28 0.0 0.0 0.0 0.0 0.0 0.0
time 11
0 0.000000 0.000000 0.000000 0.000000 -0.000000 0.000000
1 0.0 0.0 0.0 0.0 0.0 0.0
2 -1.485613 0.000000 245.549896 0.146178 -0.000000 0.000000
3 0.000000 9.214025 15.229798 0.028369 -0.000000 0.000000
4 29.901533 -6.014022 19.027481 0.000000 -0.000000 0.000000
5 16.515511 8.615003 -32.829475 0.000000 -0.000000 0.000000
6 4.457187 -7.128706 -48.400063 0.000004 -0.000225 0.000069
7 -1.748648 -1.262045 -3.912331 0.000000 -0.000000 0.000000
8 0.000000 -20.059681 49.784969 -0.058912 -0.000000 0.000000
9 -2.218673 7.605825 22.729992 0.000000 -0.000000 0.000000
10 -29.901350 -6.014023 19.024984 -0.240181 -0.134834 0.014068
11 -16.470598 8.774497 -32.827278 0.015753 -0.001237 0.462411
12 -3.609764 -7.798378 -47.026974 0.543672 -0.128602 -0.028377
13 0.834990 -4.016122 -5.162203 0.006645 -0.036673 0.001419
14 0.005717 -197.774002 -0.033935 0.000000 -0.000000 0.000000
15 0.834972 -4.092321 -5.162240 0.000000 -0.000000 0.000000
16 0.000000 120.872238 42.351269 0.000000 -0.000000 0.000000
17 -0.095610 14.113425 -18.528481 -0.001424 -0.138515 0.020526
18 -19.739082 -11.325926 -11.240480 -0.149305 0.078337 -0.003585
19 2.586503 -9.846297 -63.433266 -0.030521 0.008757 0.004425
20 -3.713730 12.550150 -70.151390 0.585404 -0.001219 -0.000344
21 -5.364248 -10.348125 -20.245995 0.000000 -0.000000 0.000000
22 19.739243 -11.325929 -11.241533 -0.424866 0.207148 -0.061827
23 -2.618108 -9.826509 -63.432484 0.612042 0.021160 -0.001676
24 3.087351 12.512319 -70.151222 0.430847 0.008660 0.014043
25 1.360177 -10.341120 -20.246527 0.000000 -0.000000 0.000000
26 0.0 0.0 0.0 0.0 0.0 0.0
27 0.0 0.0 0.0 0.0 0.0 0.0
28 0.0 0.0 0.0 0.0 0.0 0.0
time 12
0 0.000000 0.000000 0.000000 0.000000 -0.000000 0.000000
1 0.0 0.0 0.0 0.0 0.0 0.0
2 -1.485613 -0.000001 244.533249 0.146178 -0.000000 0.000000
3 0.000000 9.214025 15.229798 0.018913 -0.000000 0.000000
4 29.901533 -6.014022 19.027481 0.000000 -0.000000 0.000000
5 16.515511 8.615003 -32.829475 0.000000 -0.000000 0.000000
6 4.457187 -7.128716 -48.400097 0.000004 -0.000225 0.000069
7 -1.748648 -1.262035 -3.912315 0.000000 -0.000000 0.000000
8 0.000000 -20.059681 49.784981 -0.058912 -0.000000 0.000000
9 -2.218673 7.605827 22.730021 0.000000 -0.000000 0.000000
10 -29.901350 -6.014027 19.024981 -0.238217 -0.136371 0.008092
11 -16.470591 8.774497 -32.827248 0.015753 -0.001237 0.462411
12 -3.609760 -7.798381 -47.026958 0.536999 -0.120729 -0.037927
13 0.834995 -4.016112 -5.162220 0.006645 -0.036673 0.001419
14 0.005764 -197.774002 -0.033950 0.000000 -0.000000 0.000000
15 0.834970 -4.092312 -5.162240 0.000000 -0.000000 0.000000
16 0.000000 120.872231 42.351246 0.000000 -0.000000 0.000000
17 -0.095610 14.113425 -18.528479 -0.001424 -0.138515 0.020526
18 -19.739084 -11.325926 -11.240501 -0.149305 0.078337 -0.003585
19 2.586503 -9.846297 -63.433266 -0.041168 0.008779 0.004424
20 -3.713730 12.550149 -70.151390 0.565356 -0.001156 -0.000296
21 -5.364248 -10.348125 -20.245991 0.000000 -0.000000 0.000000
22 19.739244 -11.325928 -11.241533 -0.424866 0.207148 -0.061827
23 -2.618108 -9.826512 -63.432476 0.610188 0.021162 -0.001824
24 3.087350 12.512321 -70.151230 0.409117 0.008228 0.013606
25 1.360178 -10.341125 -20.246525 0.000000 -0.000000 0.000000
26 0.0 0.0 0.0 0.0 0.0 0.0
27 0.0 0.0 0.0 0.0 0.0 0.0
28 0.0 0.0 0.0 0.0 0.0 0.0
time 13
0 0.000000 0.000000 0.000000 0.000000 -0.000000 0.000000
1 0.0 0.0 0.0 0.0 0.0 0.0
2 -1.485613 -0.000002 243.516586 0.146178 -0.000000 0.000000
3 0.000000 9.214027 15.229797 0.009456 -0.000000 0.000000
4 29.901533 -6.014022 19.027500 0.000000 -0.000000 0.000000
5 16.515511 8.615002 -32.829475 0.000000 -0.000000 0.000000
6 4.457187 -7.128710 -48.400097 0.000004 -0.000225 0.000069
7 -1.748648 -1.262040 -3.912315 0.000000 -0.000000 0.000000
8 0.000000 -20.059679 49.784966 -0.058912 -0.000000 0.000000
9 -2.218673 7.605827 22.730024 0.000000 -0.000000 0.000000
10 -29.901350 -6.014028 19.024981 -0.236243 -0.137897 0.002111
11 -16.470598 8.774495 -32.827263 0.015753 -0.001237 0.462411
12 -3.609762 -7.798381 -47.026958 0.530256 -0.112918 -0.047523
13 0.834993 -4.016112 -5.162219 0.006645 -0.036673 0.001419
14 0.005749 -197.774002 -0.033932 0.000000 -0.000000 0.000000
15 0.834967 -4.092312 -5.162257 0.000000 -0.000000 0.000000
16 0.000000 120.872231 42.351265 0.000000 -0.000000 0.000000
17 -0.095610 14.113427 -18.528461 -0.001424 -0.138515 0.020526
18 -19.739082 -11.325928 -11.240503 -0.149305 0.078337 -0.003585
19 2.586502 -9.846297 -63.433285 -0.051814 0.008802 0.004424
20 -3.713730 12.550152 -70.151398 0.545309 -0.001092 -0.000250
21 -5.364248 -10.348128 -20.245991 0.000000 -0.000000 0.000000
22 19.739243 -11.325928 -11.241533 -0.424866 0.207148 -0.061827
23 -2.618110 -9.826510 -63.432484 0.608332 0.021163 -0.001973
24 3.087353 12.512327 -70.151237 0.387388 0.007788 0.013179
25 1.360180 -10.341130 -20.246525 0.000000 -0.000000 0.000000
26 0.0 0.0 0.0 0.0 0.0 0.0
27 0.0 0.0 0.0 0.0 0.0 0.0
28 0.0 0.0 0.0 0.0 0.0 0.0
time 14
0 0.000000 0.000000 0.000000 0.000000 -0.000000 0.000000
1 0.0 0.0 0.0 0.0 0.0 0.0
2 -1.485613 -0.000002 242.499908 0.146178 -0.000000 0.000000
3 0.000000 9.214029 15.229797 0.000000 -0.000000 0.000000
4 29.901533 -6.014022 19.027479 0.000000 -0.000000 0.000000
5 16.515511 8.615003 -32.829475 0.000000 -0.000000 0.000000
6 4.457187 -7.128705 -48.400078 0.000004 -0.000225 0.000069
7 -1.748648 -1.262043 -3.912335 0.000000 -0.000000 0.000000
8 0.000000 -20.059677 49.784946 -0.058912 -0.000000 0.000000
9 -2.218673 7.605827 22.730024 0.000000 -0.000000 0.000000
10 -29.901350 -6.014022 19.024963 -0.234260 -0.139411 -0.003873
11 -16.470594 8.774501 -32.827263 0.015753 -0.001237 0.462411
12 -3.609762 -7.798381 -47.026958 0.523438 -0.105165 -0.057171
13 0.834993 -4.016112 -5.162200 0.006645 -0.036673 0.001419
14 0.005750 -197.774002 -0.033932 0.000000 -0.000000 0.000000
15 0.834970 -4.092312 -5.162240 0.000000 -0.000000 0.000000
16 0.000000 120.872231 42.351246 0.000000 -0.000000 0.000000
17 -0.095610 14.113425 -18.528463 -0.001424 -0.138515 0.020526
18 -19.739084 -11.325928 -11.240482 -0.149305 0.078337 -0.003585
19 2.586502 -9.846297 -63.433285 -0.062459 0.008824 0.004423
20 -3.713727 12.550149 -70.151390 0.525261 -0.001027 -0.000204
21 -5.364248 -10.348122 -20.245995 0.000000 -0.000000 0.000000
22 19.739243 -11.325928 -11.241533 -0.424866 0.207148 -0.061827
23 -2.618110 -9.826510 -63.432484 0.606477 0.021164 -0.002121
24 3.087353 12.512325 -70.151253 0.365658 0.007339 0.012762
25 1.360178 -10.341120 -20.246525 0.000000 -0.000000 0.000000
26 0.0 0.0 0.0 0.0 0.0 0.0
27 0.0 0.0 0.0 0.0 0.0 0.0
28 0.0 0.0 0.0 0.0 0.0 0.0
end
